<?xml version="1.0" encoding="utf-8"?>
<!-- Generator: Adobe Illustrator 25.4.1, SVG Export Plug-In . SVG Version: 6.00 Build 0)  -->
<svg version="1.1" id="cricetulus_x5F_griseus" xmlns="http://www.w3.org/2000/svg" xmlns:xlink="http://www.w3.org/1999/xlink"
	 x="0px" y="0px" viewBox="0 0 32 32" style="enable-background:new 0 0 32 32;" xml:space="preserve">
<path d="M13.9,1.9c0.3,0,0.5,0.1,0.8,0.2c0.5,0.2,0.9,0.5,1.4,0.8c0.1,0.1,0.3,0.3,0.4,0.4c0.2,0.2,0.5,0.3,0.8,0.3
	c0.4,0,0.7-0.1,1.1-0.1c0.2,0,0.5,0,0.7,0c0.2,0,0.3-0.1,0.4-0.2c0.2-0.3,0.5-0.6,0.8-0.9c0.1-0.1,0.3-0.3,0.3-0.4
	c0.1-0.4,0.4-0.6,0.7-0.8C21.3,1,21.5,1,21.7,1c0.1,0,0.2,0.1,0.3,0.1c0.2,0.1,0.3,0.4,0.4,0.6c0.2,0.4,0.2,0.9,0.3,1.3
	c0,0.3,0,0.7,0,1c0,0.2-0.1,0.5-0.2,0.7c-0.1,0.1-0.2,0.3-0.3,0.4c0,0.1-0.1,0.1-0.2,0.1c-0.2,0.1-0.2,0.3-0.1,0.5
	c0,0,0.1,0.1,0.1,0.1c0.2,0.2,0.3,0.5,0.3,0.8c0,0.1,0.1,0.2,0.2,0.4c0.2,0.3,0.4,0.5,0.6,0.8c0.1,0.1,0.1,0.3,0.1,0.4
	c0.2,0.4,0.2,0.7,0.2,1.1c0,0.2-0.1,0.4-0.1,0.6c0,0.1,0,0.1,0,0.2c0.1,0.3,0.1,0.6,0,0.9c0,0.4-0.1,0.7-0.1,1.1
	c0,0.1,0.1,0.2,0.1,0.4c0,0.1,0,0.2,0.1,0.3c0,0.3,0,0.6,0,0.9c0,0.2,0,0.3,0,0.5c0,0.1,0,0.3,0.1,0.4c0.1,0.3,0.1,0.5,0,0.8
	c-0.2,0.6-0.3,1.1-0.5,1.7c-0.1,0.2-0.1,0.4-0.2,0.7c0,0.2,0,0.4,0,0.6c-0.1,0.4-0.2,0.7-0.4,1c-0.1,0.1-0.3,0.3-0.4,0.4
	c-0.1,0.1-0.2,0.1-0.3,0.1c-0.3,0.1-0.4,0.3-0.3,0.6c0.1,0.6,0.3,1.2,0.2,1.8c0,0.6-0.1,1.3-0.1,1.9c0,0.5-0.1,0.9-0.3,1.3
	c-0.1,0.2-0.2,0.4-0.3,0.6c-0.1,0.3,0,0.5,0.2,0.6c0.4,0.2,0.8,0.4,1.3,0.5c0.2,0,0.3,0,0.5,0c0.2,0,0.3,0.1,0.5,0.2
	c0.2,0.2,0.4,0.3,0.5,0.5c0.1,0.1,0.2,0.2,0.2,0.3c0,0.1,0,0.2-0.2,0.2c-0.3,0-0.6,0.1-0.9,0.1c-0.4,0-0.8,0-1.1,0
	c-0.3,0-0.6-0.1-0.8-0.3c-0.1-0.1-0.3-0.1-0.4-0.2c-0.1-0.1-0.3-0.2-0.4-0.3c-0.2-0.2-0.4-0.3-0.6-0.4c-0.2,0-0.2-0.2-0.2-0.3
	c-0.1-0.4-0.1-0.7-0.2-1.1c0-0.1-0.1-0.2-0.3-0.2c-0.1,0-0.3,0-0.4,0c-0.8,0.2-1.6,0.3-2.4,0.3c-0.3,0-0.6,0-0.9,0
	c-0.1,0-0.2-0.1-0.3-0.1c-0.2-0.1-0.3-0.1-0.5,0.1c-0.2,0.2-0.5,0.4-0.7,0.5c-0.1,0.1-0.2,0.1-0.3,0.1c-0.2,0.1-0.4,0.3-0.6,0.5
	c-0.1,0.2-0.2,0.4-0.3,0.6c-0.1,0.3-0.2,0.5-0.3,0.8c0,0,0,0.3,0,0.4c0,0.2-0.1,0.4,0,0.7c0.2,0.5,0.4,0.4,0.4,0.7
	c0,0.1-0.1,0,0,0.2c0.2,0.4-0.2,0.5-0.3,0.5c0,0-0.1,0-0.4-0.2C12,30.6,11.9,31,11.6,31c-0.3,0-0.4-0.3-0.5-0.3
	c-0.1,0.1-0.3,0.2-0.5,0.2c-0.1,0-0.2-0.2-0.2-0.3c0-0.1-0.1,0.1-0.1,0.1c-0.3,0-0.7,0-0.2-0.8c0.3-0.4,0.6-0.6,0.6-0.8
	c0.1-0.3,0-0.4,0-0.6c0-0.1-0.2-0.9-0.2-1c-0.1-0.5-0.2-1-0.4-1.5c-0.1-0.3-0.3-0.6-0.5-0.9c-0.2-0.3-0.4-0.6-0.6-0.9
	C9,24.1,8.9,24,8.9,23.8c-0.1-0.2-0.2-0.4-0.2-0.7c-0.1-0.3-0.1-0.7-0.2-1c-0.1-0.8-0.2-1.6-0.5-2.4c-0.1-0.3-0.1-0.6-0.1-0.8
	c-0.1-0.3,0-0.6,0-1c0-0.4,0-0.8,0-1.2c0-0.4,0-0.9,0.1-1.3c0.2-0.6,0.4-1.2,0.7-1.8C8.8,13.3,9,13,9.3,12.7
	c0.2-0.2,0.3-0.5,0.5-0.7c0.4-0.5,0.5-1.2,0.7-1.7c0.1-0.1,0.2-0.3,0.2-0.4c0,0,0.1-0.1,0.1-0.1c0.3-0.5,0.7-0.8,1.1-1.1
	c0.1-0.1,0.2-0.2,0.3-0.2c0.2-0.1,0.2-0.3,0.3-0.5c0.1-0.2,0.2-0.4,0.4-0.5c0.2-0.1,0.4-0.3,0.6-0.4c0.1-0.1,0.3-0.2,0.4-0.2
	c0.1-0.1,0.1-0.2,0-0.3c-0.3-0.3-0.6-0.6-0.8-0.9c-0.1-0.1-0.2-0.3-0.2-0.4c-0.1-0.3-0.3-0.7-0.4-1c-0.1-0.5-0.1-1.1,0.2-1.5
	c0-0.1,0.1-0.2,0.2-0.2C13,2.2,13.2,2.1,13.4,2C13.5,1.9,13.7,1.9,13.9,1.9C13.9,1.9,13.9,1.9,13.9,1.9z"/>
</svg>
