<?xml version="1.0" encoding="utf-8"?>
<!-- Generator: Adobe Illustrator 25.4.1, SVG Export Plug-In . SVG Version: 6.00 Build 0)  -->
<svg version="1.1" id="mus_x5F_musculus" xmlns="http://www.w3.org/2000/svg" xmlns:xlink="http://www.w3.org/1999/xlink" x="0px"
	 y="0px" viewBox="0 0 32 32" style="enable-background:new 0 0 32 32;" xml:space="preserve">
<path d="M28,27.1c0,0-0.1-0.5-0.4-0.6c-0.3-0.1-0.9-0.3-0.9-0.3s0.2-0.5,0.1-1.3c0-0.7-0.3-1.8-0.2-2c0-0.2-0.3-1.4-0.5-2.3
	c-0.4-0.8-1.5-2-1.5-2s-0.8-2.7-1.6-3.9c-0.7-1.2-2.3-2.1-3.1-2.3c-0.7-0.3-3-0.4-3.9-0.4s-3.5,0.9-4,1.3c-0.4,0.4-2.2-1.4-2.3-1.6
	c-0.2-0.1-2.4-2.8-3.2-3.9C6,7.1,5,5.8,5,3.8c0.1-1.4-0.2-1.4-0.3-1.2S4.6,4.5,4.6,5.1c0,1.3,1.2,3.3,1.5,4c0.4,0.5,1.6,2.2,2.5,3.2
	c0.4,0.4,2.2,2.3,2.1,2.6S9.4,16.5,9,16.9c-0.4,0.4-1.1,0.8-1.4,1s-1,0.5-1.2,1.2c-0.2,0.6-0.5,1.3-0.5,1.4s-0.1,0.6-0.3,0.9
	c-0.2,0.2-0.8,1.1-0.5,1.3s0.4-0.3,0.6-0.3c0,0,0.2,0.4,0.2,0.6c0.1,0.3,0.1,0.5,0.4,0.5c0.2-0.2,0.3-0.9,0.3-0.9s0.4,0.6,0.6,0.7
	c0.2,0.1,0.3-0.4,0.3-0.4s-0.5-1.2,2.3-0.5c0.4,0.1,1.7,0.4,1.9,0.5c0.2,0.1,0.9,1.7,1,1.7c0.2,0.1,0.7,0.5,0.7,0.8
	c0,0.3-0.1,0.8,0,1.1c0,0.3,0,0.7,0,1.3s-0.1,1,0.4,1.3c0,0,1.3,0.6,1.9,0.5c0.7-0.2,1.1-0.5,1.5-0.6c0.5-0.1,2-0.1,2.6-0.3
	s1.4-0.4,1.9-0.7c0.5-0.3,1.3-0.3,1.7-0.4c0.4-0.1,0.7-0.3,1.3-0.7c0.5-0.5,1.1-1,1.1-1s0.1,1.1-0.1,1.4s0,0.2,0.3,0.2
	s0.4,0.1,0.4,0.3s0.1,0.5,0.4,0.4s0.2-0.5,0.2-0.5s0.7,0.1,0.8,0.3s0.3,0.3,0.4,0.2s0.3,0.1,0.3-0.3C28.3,27.4,28,27.1,28,27.1z
	 M15.6,21.5c0,0-0.5-0.5-0.9-0.9c-0.3-0.5-0.1-1,0.2-1.5c0.3-0.5-0.3-1.1-0.2-2c0-0.9,0.7-1.1,0.9-0.5c0.1,0.5,1.4,2.2,1.6,2.3
	s0.4,1.1,0.2,1.1C16.3,20.1,15.7,21.5,15.6,21.5z M25.1,23.5c-0.5,0.6-1.2,1.2-1.9,1.1c-0.7-0.1-1.4-0.3-1.4-0.5s0-0.2,0.5-0.5
	c0.4-0.4,0.5-0.7,0.4-0.9c0-0.2-0.7,0.3-0.7,0.3s-0.5,0.3-0.7,0.3s-0.7-0.7-0.2-1.8c0.1-0.1,0.4-0.6,1.1-0.7s1.6-0.5,1.9-0.5
	s1-0.3,1.2-0.4c0.2,0,0.5,1.4,0.5,1.9C25.5,22.2,25.6,22.8,25.1,23.5z"/>
</svg>
