<?xml version="1.0" encoding="utf-8"?>
<!-- Generator: Adobe Illustrator 27.6.1, SVG Export Plug-In . SVG Version: 6.00 Build 0)  -->
<svg version="1.1" id="mouse" xmlns="http://www.w3.org/2000/svg" xmlns:xlink="http://www.w3.org/1999/xlink" x="0px" y="0px"
	 viewBox="0 0 32 32" style="enable-background:new 0 0 32 32;" xml:space="preserve">
<path d="M28.005,27.127c0,0-0.09-0.54-0.36-0.63c-0.27-0.09-0.9-0.27-0.9-0.27s0.18-0.54,0.09-1.26c0-0.72-0.27-1.801-0.18-1.981
	c0-0.18-0.27-1.44-0.54-2.251c-0.36-0.81-1.531-1.981-1.531-1.981s-0.81-2.701-1.621-3.871c-0.72-1.17-2.251-2.071-3.061-2.341
	c-0.72-0.27-2.971-0.45-3.871-0.45s-3.511,0.9-3.961,1.26c-0.45,0.45-2.161-1.44-2.341-1.621c-0.18-0.09-2.431-2.791-3.151-3.871
	C6.037,7.14,4.957,5.79,5.047,3.809c0.09-1.44-0.18-1.44-0.27-1.17S4.597,4.53,4.597,5.07c0,1.26,1.17,3.331,1.531,3.961
	c0.36,0.54,1.621,2.161,2.521,3.151c0.36,0.45,2.161,2.251,2.071,2.611s-1.35,1.711-1.711,2.071c-0.36,0.36-1.08,0.81-1.44,0.99
	s-0.99,0.45-1.17,1.17c-0.18,0.63-0.54,1.26-0.54,1.44s-0.09,0.63-0.27,0.9c-0.18,0.18-0.81,1.08-0.54,1.26s0.45-0.27,0.63-0.27
	c0,0,0.18,0.36,0.18,0.63c0.09,0.27,0.09,0.54,0.36,0.45c0.18-0.18,0.27-0.9,0.27-0.9s0.36,0.63,0.63,0.72
	c0.18,0.09,0.27-0.36,0.27-0.36s-0.54-1.17,2.341-0.45c0.36,0.09,1.711,0.36,1.891,0.45c0.18,0.09,0.9,1.711,0.99,1.711
	c0.18,0.09,0.72,0.54,0.72,0.81c0,0.27-0.09,0.81,0,1.08c0,0.27,0,0.72,0,1.26s-0.09,0.99,0.36,1.26c0,0,1.26,0.63,1.891,0.45
	c0.72-0.18,1.08-0.54,1.531-0.63c0.45-0.09,1.981-0.09,2.611-0.27s1.44-0.36,1.891-0.72c0.45-0.27,1.26-0.27,1.711-0.36
	c0.36-0.09,0.72-0.27,1.26-0.72c0.54-0.45,1.08-0.99,1.08-0.99s0.09,1.08-0.09,1.35s0,0.18,0.27,0.18s0.36,0.09,0.36,0.27
	s0.09,0.54,0.36,0.36s0.18-0.54,0.18-0.54s0.72,0.09,0.81,0.27s0.27,0.27,0.36,0.18s0.27,0.09,0.27-0.27
	C28.275,27.397,28.005,27.127,28.005,27.127z M15.04,24.156c0,0.36-0.72,0.72-0.72,0.72c-0.45,0-0.18-0.81,0.09-1.08
	c0.18-0.36,0.45-0.63,0.72-0.54C15.4,23.256,15.04,23.886,15.04,24.156z M15.581,21.545c0,0-0.54-0.54-0.9-0.9
	c-0.27-0.45-0.09-0.99,0.18-1.531c0.27-0.54-0.27-1.08-0.18-1.981c0-0.9,0.72-1.08,0.9-0.54c0.09,0.54,1.44,2.161,1.621,2.341
	s0.36,1.08,0.18,1.08C16.301,20.104,15.671,21.545,15.581,21.545z M18.912,26.137c-0.18,0.36-0.99,0.63-1.35,0.45
	s-0.99-0.27-0.9-0.9c0,0,0.81-1.17,1.531-0.99C18.912,24.876,19.092,25.776,18.912,26.137z M25.124,23.526
	c-0.45,0.63-1.17,1.17-1.891,1.08c-0.72-0.09-1.35-0.27-1.44-0.54s0-0.18,0.45-0.54c0.36-0.36,0.45-0.72,0.36-0.9
	c0-0.18-0.72,0.27-0.72,0.27s-0.45,0.27-0.72,0.27s-0.72-0.72-0.18-1.801c0.09-0.09,0.36-0.63,1.08-0.72s1.621-0.45,1.891-0.54
	s0.99-0.27,1.17-0.36c0.18,0,0.45,1.35,0.45,1.891C25.484,22.175,25.574,22.805,25.124,23.526z"/>
</svg>
