<?xml version="1.0" encoding="utf-8"?>
<!-- Generator: Adobe Illustrator 25.4.1, SVG Export Plug-In . SVG Version: 6.00 Build 0)  -->
<svg version="1.1" id="rattus_x5F_norvegicus" xmlns="http://www.w3.org/2000/svg" xmlns:xlink="http://www.w3.org/1999/xlink"
	 x="0px" y="0px" viewBox="0 0 32 32" style="enable-background:new 0 0 32 32;" xml:space="preserve">
<path d="M28.3999996,11.8999996c-1.2174797-0.7328234-3.0038376-1.6974287-4.399889-1.7002239
	c-1.8081455,0.192008-0.7667141-0.9346008-2.0001125-1.0997753c-0.6820335,0.0455313-0.9410782,1.0848255-1.3999977,1.3000002
	c0.0080643,0.0905638-0.7358723,0.0558739-0.6999989,0.2000008c-0.2913017-0.0865002-0.1331139,0.2927332-0.4000168,0.3000269
	c-0.2360096,0.0145741-0.286356,0.3545074-0.5999718,0.2999592c-0.1826153-0.0779305-0.2104816,0.234458-0.3000126,0.1000147
	c-0.1732044,0.1025829-0.2834682,0.3992548-0.6000023,0.3000002c-0.1131973,0.3156176-0.6401443,0.1672478-0.899992,0.2000275
	c-0.3567238,0.3165007-1.0794411-0.1924763-1.5000162-0.3001194c-0.9446535-0.191555-2.3537054-0.6095419-3.1999931-0.3999081
	c0.335784-0.2123985-1.5941401,0.0008554-1.399929-0.1999874c-0.0000715-0.1000137-0.1000719-0.1000137-0.2000713-0.0000134
	c-0.1991816,0.2277489-0.8859491,0.510066-1.1998997,0.6001854c-0.3840141-0.070981-0.6565514,0.0774651-0.9000969,0.1998129
	c0,0,0,0.1000004-0.1000004,0.1000004c-0.2455521,0.0976152,0.0669088,0.3073959-0.4000349,0.2999697
	c-0.1831379,0.3160124-1.2521462,0.9759254-1.3999653,1.0000305c-0.283021,0.3424273-1.0969038,0.4701157-1.0001097,0.7999544
	C6.0220304,13.9796534,5.1912098,14.300621,5.2000008,14.5c-0.3167791,0.2160769-0.1535034,0.2795153-0.4000912,0.4998932
	c-0.0062904,0.1403189,0.0424509,0.3153839-0.0999241,0.4000931c-0.130959,0.4199572-0.6180968,0.6212788-0.7999604,1.0000515
	C3.8,16.5,3.8,16.6000004,3.8999999,16.6000004c0.2172077,0.1464367-0.1546676,0.2348576-0.0999897,0.4000149
	C3.8,17.1000023,3.8,17.1000023,3.8,17.1000023c-0.0377159,0.0019341-0.5455258,0.6120586-0.2999549,0.4999466
	C3.6000001,17.6000023,3.7,17.7000027,3.5,17.8000031c-0.3240392,0.2174244,0.3961596-0.097683,0.4000001-0.1000004
	C3.9295678,17.7405567,3.4360018,18.139349,3.5,18.1000042c0.1948872-0.0022831-0.2028909,0.6041698-0.0999999,0.6000004
	c0.0999999,0,0.0999999-0.1000004,0.2-0.1000004c0.4773071-0.297514-0.0763688,0.4178123,0.2999353,0.2999439
	c0.2260845,0.146286-0.1210644,1.342844,0.1002362,1.2999859C4,20.2000065,4.0999999,20.3000069,4,20.3000069
	c-0.0055001,0.2308807,0.2576027-0.0538197,0.1999536,0.3000164c-0.0312924,0.4315281,0.1057296,0.0513382,0.2001009,0.2999382
	c-0.0683188,0.3519707,0.1320777,1.7887058-0.0999918,1.9000683c0.7366819,0.7894993,0.0483222,1.1078835,2.6997914,1.5001526
	c12.9514589,0.9037457,21.1112747,0.4107189,20.8004913-0.2998905C27.7999992,24.0000134,24,24.5000134,13.7999992,23.8000126
	l-2.8999996-0.2999992c0.8424168-0.172533,4.8143568,0.6352997,5.500103-0.299633
	c0.3235626-0.3499298-1.0145044-0.6365452-1.2000551-0.4003925c-0.8748903,0.4436378-0.6981039-0.5386391-0.6999798-1.1000156
	c-0.0555019-0.5774384,0.1964741,0.0869617,0.1999769-0.2999535c-0.0000458-0.1000099-0.0000458-0.2000103,0.0999546-0.1000099
	s0.1999998-0.1000004,0.3999996-0.2000008c0.2695255-0.3833942,0.5933619-0.0034294,0.9000034-0.3999844
	c0.2554531-0.3199387,0.5076656-0.1662731,0.8000126-0.2000408c0.2868938,0.0552521,0.2857685-0.2089958,0.4999809-0.2000122
	C17.5,20.300005,17.6000004,20.300005,17.6000004,20.2000046c0.2000008-0.1000004,0.2000008-0.1000004,0.2000008-0.1000004
	c1.3855705,0.2637024,1.9159298,1.898016,3.0000858,2.6999321c0.2496891,0.1200905,0.7807198-0.0730572,0.9998856,0.3001137
	c0.4002934-0.2137127,0.2552986,0.1303864,0.6000423,0.2000465c0.4302979-0.0531731,2.5137825,0.2930965,1.4000645-0.4001389
	c-0.8883247-0.7440205-1.6246719-0.6693134-2.000164-1.4997826c-0.1958923-0.6038704-0.5320339-0.7442551-0.5000191-1.1001129
	c-0.0226173-0.5913982-0.2821083-1.2499523,0.1000881-1.8000698c0.3373814-0.166708,0.4190655-0.7916374,0.699894-0.9000912
	c0.1440239,0.0551491,0.0902443-0.1759129,0.1001244-0.1998978c0.0116806-0.0279808-0.0455074-0.2512302,0.0999966-0.1999645
	c0.2073879,0.0363331,0.0032234-0.239769,0.2000046-0.3000374c0-0.2000008,0.1000004-0.2000008,0.1000004-0.2000008
	c0.1432076,0.0466766,0.1105061-0.2959461,0.2000561-0.2999802c0.2654591-0.2289543-0.1790886-0.4212837,0.1999435-0.4000263
	c0.2846088-0.0071011-0.1813812-0.3798113,0.2000217-0.2999325c0.0999813-0.0000629,0.1999817-0.0000629,0.1999817-0.1000633
	c0.239212-0.3478441,0.4434605-0.0604601,0.6000004-0.3000002c0.700079-0.1725502,0.9153881-0.1188068,1.5999432-0.4001932
	c0.5531082-0.1498051,1.2579689-0.2637959,1.200058-0.5998077C28.0324917,13.9894524,29.1673775,13.246069,28.3999996,11.8999996z"
	/>
</svg>
