<?xml version="1.0" encoding="utf-8"?>
<!-- Generator: Adobe Illustrator 27.6.1, SVG Export Plug-In . SVG Version: 6.00 Build 0)  -->
<svg version="1.1" id="Layer_1" xmlns="http://www.w3.org/2000/svg" xmlns:xlink="http://www.w3.org/1999/xlink" x="0px" y="0px"
	 viewBox="0 0 32 32" style="enable-background:new 0 0 32 32;" xml:space="preserve">
<path d="M28.417,11.893c-0.083-0.167-0.333-0.333-0.667-0.417c-0.083,0-0.25-0.083-0.25-0.083c-0.083,0-0.25-0.083-0.417-0.167
	c-0.167-0.083-0.333-0.167-0.5-0.25c-1.167-0.583-1.5-0.75-2.583-0.75c-1,0-1.167-0.083-1.25-0.417
	C22.667,9.393,22.333,9.06,22,9.06l0,0c-0.083,0-0.083,0-0.167,0C21.667,9.143,21.5,9.31,21.5,9.393c0,0-0.083,0.083-0.25,0.167
	C21.167,9.81,21,9.893,21,9.977c-0.083,0.167-0.25,0.333-0.333,0.333s-0.083,0-0.083,0.083c0,0-0.167,0.083-0.417,0.083
	c-0.167,0-0.333,0-0.333,0.083H19.75c-0.083,0-0.083,0-0.083,0.083s-0.083,0.167-0.25,0.167c-0.083,0-0.25,0.083-0.333,0.25
	C19,11.143,19,11.143,18.833,11.143c-0.083,0-0.167,0-0.167,0.083c0,0-0.083,0.083-0.083,0c0,0-0.25,0.083-0.25,0.167
	c0,0.083-0.083,0.083-0.25,0.083c-0.083,0-0.083,0-0.167,0c0,0.083-0.25,0.167-0.333,0.167s-0.083,0-0.167,0c0,0-0.083,0-0.167,0
	s-0.167,0-0.167,0s-0.167,0.083-0.333,0.083c-0.25,0-0.333,0-0.667-0.167c-0.25-0.083-0.417-0.167-0.5-0.167s-0.25,0-0.417-0.083
	c-0.167,0-0.333-0.083-0.5-0.083s-0.5-0.083-0.75-0.167c-0.083,0-0.25-0.083-0.333,0c-0.083,0-0.167,0-0.25,0
	c-0.167-0.083-0.417-0.083-0.667,0c-0.167,0-0.25,0-0.25,0c-0.083-0.083-0.083-0.083-0.083,0c0.083-0.083,0-0.083-0.583-0.083
	c-0.5,0-0.75,0-0.833-0.083s-0.083-0.083-0.25,0c0,0.083-0.083,0.083-0.167,0.167c-0.083,0-0.25,0-0.333,0.083
	c-0.083,0-0.25,0.083-0.25,0.083S9.75,11.31,9.667,11.31c-0.083,0.083-0.25,0.083-0.333,0.083s-0.25,0.083-0.333,0.083
	c-0.083,0.083-0.167,0.167-0.25,0.167s-0.083,0-0.083,0s0,0.083-0.083,0.083C8.5,11.727,8.5,11.81,8.5,11.81
	c0,0.083,0,0.167-0.333,0.25c-0.083,0.083-0.25,0.083-0.25,0.167L7.833,12.31c0,0-0.083,0.083-0.167,0.167
	c-0.083,0.083-0.333,0.167-0.5,0.333c-0.417,0.167-0.5,0.25-0.417,0.25l-0.083,0.083c-0.167,0.083-0.5,0.333-0.5,0.333
	S6.083,13.56,6,13.56c-0.167,0.083-0.333,0.333-0.25,0.333s0.083,0.083-0.167,0.25c-0.083,0.083-0.25,0.167-0.25,0.167
	s-0.167,0.083-0.25,0.167c-0.167,0.083-0.167,0.167-0.167,0.25s0,0.083-0.083,0.167c-0.083,0-0.083,0.083-0.083,0.083v0.083v0.083
	v0.083L4.667,15.31c0,0-0.083,0.167-0.083,0.25C4.5,15.727,4.5,15.727,4.5,15.727s-0.083,0.083-0.25,0.25
	C4.083,16.143,4,16.31,3.917,16.393s-0.083,0.167,0,0.167C4,16.643,4,16.643,3.917,16.727c-0.083,0.083-0.083,0.083-0.083,0.167
	s0,0.083,0,0.083S3.75,17.06,3.667,17.143C3.5,17.477,3.5,17.477,3.583,17.477s0.167,0.083,0,0.167c-0.167,0.083,0,0.083,0.167,0
	c0.083-0.083,0.167-0.083,0.167-0.083s-0.083,0.167-0.167,0.25c-0.167,0.167-0.167,0.25-0.167,0.25c0.083,0,0.083,0.083,0,0.167
	C3.5,18.393,3.5,18.643,3.5,18.643c0.083,0,0.083-0.083,0.167-0.083c0.083-0.083,0.167-0.083,0.167,0c0,0,0,0.083,0,0.167
	C3.75,18.81,3.75,18.81,3.917,18.81C4,18.81,4,18.81,4,18.893c-0.083,0.417-0.083,1.167,0,1.25c0,0,0.083,0.083,0,0.083
	c0,0.083,0,0.083,0.083,0.083s0.083,0,0.083,0.167c0,0.25,0,0.333,0.083,0.25c0,0,0.083,0,0.083,0.083s0,0.167,0,0.25
	s0,0.083,0,0.167c0,0,0,0.083,0,0.167s0,0.167,0,0.167s0,0.25,0,0.417c0,0.583,0,0.667-0.083,0.667s0,0.083,0.083,0.083
	s0.083,0,0,0.083c0,0.083,0.417,0.417,0.5,0.583c0.083,0.083,0.167,0.5,2.083,0.667c12.667,1,20.417,0.167,20.75-0.083
	c0.417-0.083,0.417-0.167,0-0.167c0,0-3.833,0.5-14-0.167L10.75,23.31c0,0,2.917,0.083,3.417,0.083c0.083,0,0.25,0,0.417,0
	s0.75,0,1,0c0.5-0.083,0.583-0.083,0.583-0.25c0-0.083,0.083-0.083,0.083-0.167c0.083-0.083,0.083-0.083,0.083-0.083l-0.25-0.167
	l-0.167-0.083c-0.083,0-0.583-0.083-0.583-0.083s-0.167,0-0.333,0.083c-0.167,0-0.083,0.083-0.167,0.083c-0.167,0-0.5,0-0.5-0.167
	c0-0.25,0-0.25,0-0.333c0-0.333,0-0.417,0-0.667s0-0.333,0.083-0.25s0.083,0,0.083-0.083s0-0.167,0.083-0.083s0.25-0.083,0.417-0.25
	c0.167-0.25,0.167-0.25,0.5-0.25c0.167,0,0.25,0,0.417-0.167s0.25-0.167,0.417-0.167c0.083,0,0.167,0,0.167,0s0.167,0,0.25,0
	c0.167,0,0.25,0,0.333-0.083s0.083-0.083,0.167-0.083s0.167,0,0.25-0.083c0.167-0.083,0.167-0.083,0.25-0.083
	c0.083,0.083,0.25,0.083,0.333,0.083c0,0,0.083,0,0.167,0c0.083,0,0.167,0.083,0.333,0.25c0.083,0.083,0.25,0.167,0.25,0.167
	l0.083,0.083c0,0.083,0.083,0.167,0.167,0.167c0.25,0.25,0.25,0.25,0.333,0.333c0.083,0.167,0.417,0.667,0.583,0.75
	c0.167,0.083,0.583,0.667,0.75,0.75s0.5,0,0.75,0.083l0.167,0.167c0.083,0.083,0.083-0.083,0.167-0.083
	C22,22.81,22.083,23.06,22.25,23.06H23c0.417,0,0.75,0.083,1.083,0c0.25-0.083-0.083-0.333-0.333-0.417
	C23.333,22.56,23.083,22.06,23,22.06c-1-0.417-0.833-0.25-1.167-0.917c-0.083-0.167-0.167-0.333-0.25-0.5s-0.167-0.25-0.167-0.25
	c-0.083-0.083-0.083-0.25-0.083-0.417c0-0.333-0.083-0.583-0.083-0.917c0-0.083,0-0.25,0-0.417l0.083-0.333
	c0-0.083,0-0.083,0.083-0.167L21.5,18.06c0,0,0.083-0.083,0.167-0.25c0.083-0.167,0.167-0.333,0.167-0.417s0.083-0.167,0.167-0.167
	s0.083,0,0.083-0.083s0-0.083,0-0.083s0,0,0-0.083s0-0.083,0.083-0.083s0.083,0,0.083-0.083c0,0,0-0.167,0.083-0.25
	c0-0.167,0.083-0.167,0.083-0.167c0.083,0,0.083,0,0.083-0.083s0.083-0.167,0.083-0.167c0.083-0.083,0.083-0.167,0.083-0.25
	c-0.083-0.167-0.083-0.167,0.083-0.167c0.083,0,0.083,0,0.083-0.083c-0.083-0.167-0.083-0.25,0.083-0.25c0.083,0,0.167,0,0.25-0.083
	c0.083-0.167,0.417-0.25,0.417-0.25s0.167,0,0.25-0.083c0.167-0.083,0.333-0.083,0.5-0.083s0.333,0,0.417-0.083
	c0.083,0,0.083,0,0.167,0s0.083,0,0.167-0.083c0.083-0.083,0.083-0.083,0.333-0.083c0.5,0,0.5-0.167,0.583-0.167
	c0.25-0.083,0.5-0.083,0.583-0.25c0-0.083,0-0.167,0-0.167s0.25,0,0.333-0.083c0.167,0,0.25-0.083,0.333-0.083
	s0.167-0.083,0.167-0.083c0.083,0,0.083-0.083,0.167-0.083l0.083-0.083c0.083,0,0.667-0.333,0.667-0.75
	c0-0.083,0.083-0.167,0.167-0.25l0,0C28.5,12.477,28.5,12.06,28.417,11.893z M24.635,12.066c-0.224,0-0.504-0.112-0.448-0.336
	c0.112-0.448,0.56-0.336,0.672-0.28c0.112,0.056,0.18,0.152,0.224,0.28C25.03,11.936,25.027,12.066,24.635,12.066z"/>
</svg>
