<?xml version="1.0" encoding="utf-8"?>
<!-- Generator: Adobe Illustrator 27.6.1, SVG Export Plug-In . SVG Version: 6.00 Build 0)  -->
<svg version="1.1" id="cavefish" xmlns="http://www.w3.org/2000/svg" xmlns:xlink="http://www.w3.org/1999/xlink" x="0px" y="0px"
	 viewBox="0 0 32 32" style="enable-background:new 0 0 32 32;" xml:space="preserve">
<path d="M29.542,11.706c-0.028-0.041-0.052-0.079-0.072-0.115c-0.192-0.341-0.061-0.492,0.012-0.592
	c0.004-0.006,0.008-0.011,0.011-0.016c0.001-0.002,0.003-0.004,0.004-0.006c0.004-0.006,0.008-0.013,0.011-0.019
	c0.001-0.001,0.001-0.002,0.002-0.003c0.003-0.006,0.006-0.013,0.008-0.019c0-0.001,0-0.001,0-0.002
	c0.002-0.007,0.003-0.013,0.003-0.019l0,0l0,0c-0.001-0.027-0.024-0.052-0.06-0.074c-0.079-0.05-0.225-0.093-0.365-0.141
	c-0.013-0.004-0.025-0.009-0.038-0.014c-0.01-0.003-0.019-0.007-0.029-0.01c-0.021-0.008-0.042-0.016-0.062-0.025
	c-0.006-0.003-0.012-0.005-0.017-0.008c-0.015-0.007-0.03-0.014-0.045-0.021c-0.006-0.003-0.012-0.006-0.017-0.009
	c-0.018-0.01-0.035-0.02-0.05-0.03c0,0-0.001,0-0.001-0.001c-0.049-0.034-0.109-0.09-0.156-0.141
	c-0.018-0.019-0.033-0.038-0.045-0.054c-0.014-0.019-0.025-0.035-0.035-0.049c0-0.001-0.001-0.001-0.001-0.002
	c0-0.001-0.001-0.001-0.001-0.002c-0.04-0.063-0.037-0.093-0.015-0.233c0.01-0.066,0.018-0.126,0.021-0.16
	c0.001-0.016,0.002-0.028,0.001-0.03c-0.003-0.006-0.035-0.009-0.079-0.01c-0.015,0-0.031,0-0.047,0.001
	c-0.018,0.001-0.035,0-0.052-0.001c-0.103-0.008-0.192-0.053-0.242-0.121c-0.008-0.011-0.015-0.023-0.021-0.036
	c-0.005-0.011-0.011-0.02-0.017-0.029c-0.022-0.031-0.051-0.052-0.087-0.061c-0.06-0.015-0.07-0.026-0.071-0.087
	c0-0.026,0.013-0.062,0.034-0.098c0.004-0.006,0.007-0.013,0.011-0.019c0.001-0.001,0.001-0.003,0.002-0.004
	c0.01-0.015,0.021-0.03,0.033-0.044c0.008-0.009,0.014-0.017,0.021-0.025c0.066-0.088,0.053-0.141-0.048-0.171
	c-0.002-0.001-0.004-0.001-0.006-0.002c-0.001,0-0.002,0-0.003-0.001c-0.039-0.01-0.088-0.018-0.151-0.022
	c-0.103-0.008-0.166-0.027-0.179-0.054c-0.007-0.014-0.019-0.024-0.038-0.029c-0.019-0.005-0.043-0.006-0.074-0.002
	c-0.075,0.009-0.097,0-0.121-0.05c-0.016-0.034-0.046-0.068-0.066-0.075c-0.018-0.006-0.013-0.034,0.012-0.078
	c0.028-0.053,0.084-0.129,0.166-0.228c0.111-0.133,0.08-0.169-0.152-0.174c-0.017,0-0.032-0.001-0.047-0.002
	c-0.004,0-0.008,0-0.012,0c-0.011-0.001-0.021-0.001-0.031-0.002c-0.004,0-0.008-0.001-0.012-0.001
	c-0.011-0.001-0.021-0.002-0.031-0.004c-0.005-0.001-0.01-0.002-0.015-0.002c-0.005-0.001-0.009-0.002-0.014-0.003
	s-0.011-0.002-0.016-0.003c-0.003-0.001-0.005-0.001-0.007-0.002c-0.01-0.003-0.02-0.006-0.029-0.01
	c-0.02-0.008-0.036-0.018-0.05-0.03c-0.017-0.015-0.043-0.03-0.071-0.042c-0.007-0.003-0.014-0.006-0.022-0.008
	c-0.022-0.008-0.044-0.013-0.064-0.015c-0.047-0.005-0.07-0.008-0.081-0.019s-0.009-0.03-0.004-0.066
	c0.013-0.093-0.027-0.135-0.141-0.15c-0.002,0-0.004-0.001-0.007-0.001c-0.148-0.017-0.182-0.098-0.1-0.238
	c0.094-0.16,0.188-0.281,0.3-0.385c0.114-0.107,0.281-0.357,0.241-0.361c-0.004,0-0.008-0.001-0.014,0
	c-0.026,0-0.073,0.005-0.13,0.012c-0.137,0.017-0.331,0.049-0.415,0.071c-0.024,0.006-0.046,0.012-0.067,0.017
	c-0.012,0.003-0.024,0.006-0.035,0.008c-0.028,0.006-0.053,0.01-0.075,0.013c-0.005,0.001-0.011,0.001-0.016,0.002
	c-0.083,0.007-0.125-0.012-0.152-0.063l0,0c-0.006-0.011-0.011-0.024-0.017-0.038l0,0c-0.003-0.008-0.006-0.015-0.009-0.022
	c-0.009-0.018-0.018-0.028-0.031-0.031c-0.017-0.004-0.039,0.006-0.073,0.027c-0.024,0.015-0.072,0.027-0.119,0.034
	c-0.06,0.008-0.119,0.008-0.127-0.008c-0.002-0.004-0.003-0.009-0.004-0.016c-0.001-0.009-0.002-0.019-0.002-0.031
	c0-0.016,0.001-0.033,0.004-0.049c0.004-0.025,0.003-0.049-0.003-0.066c-0.003-0.008-0.006-0.015-0.01-0.018
	c-0.006-0.004-0.033,0.002-0.07,0.015c-0.008,0.003-0.017,0.006-0.026,0.009c-0.043,0.016-0.095,0.038-0.151,0.065
	c-0.192,0.091-0.231,0.102-0.284,0.08c-0.026-0.011-0.045-0.029-0.058-0.052c-0.027-0.047-0.025-0.11,0.015-0.158
	c0.082-0.097,0.01-0.096-0.239,0.004c-0.1,0.04-0.206,0.09-0.32,0.15c-0.159,0.083-0.334,0.186-0.531,0.313
	c-0.119,0.075-0.21,0.12-0.303,0.145C23.9,7.574,23.844,7.582,23.78,7.584c-0.105,0.004-0.149-0.011-0.169-0.077
	c-0.006-0.022-0.01-0.05-0.013-0.084c-0.002-0.032-0.004-0.056-0.001-0.076c0.008-0.062,0.055-0.094,0.241-0.222
	c0.221-0.152,0.369-0.227,0.477-0.242c0.026-0.004,0.081-0.02,0.144-0.041c0.037-0.013,0.077-0.027,0.115-0.042
	c0.15-0.06,0.177-0.072,0.179-0.113c0-0.001,0-0.001,0-0.002V6.684c0-0.006,0-0.012-0.001-0.019
	c-0.002-0.023,0.007-0.05,0.024-0.077c0.011-0.019,0.026-0.038,0.045-0.055c0.04-0.038,0.088-0.094,0.107-0.124
	c0.015-0.024,0.067-0.063,0.133-0.103c0.022-0.013,0.046-0.026,0.071-0.039c0.096-0.049,0.153-0.087,0.177-0.119
	c0.012-0.016,0.015-0.031,0.011-0.044c-0.004-0.014-0.017-0.027-0.037-0.039c-0.053-0.035-0.078-0.09-0.079-0.145
	c-0.001-0.07,0.036-0.142,0.112-0.178c0.042-0.02,0.061-0.053,0.066-0.112c0-0.005,0.001-0.012,0.003-0.018
	c0.001-0.002,0.001-0.005,0.002-0.008c0.001-0.004,0.002-0.008,0.003-0.012c0.001-0.005,0.003-0.01,0.005-0.015
	c0-0.001,0.001-0.003,0.001-0.004c0.013-0.037,0.033-0.081,0.056-0.123l0,0c0,0-0.001,0-0.001,0.001
	c0.008-0.015,0.016-0.029,0.025-0.042C25.51,5.355,25.541,5.29,25.56,5.24c0.008-0.021,0.014-0.04,0.016-0.054
	C25.598,5.033,25.672,4.86,25.74,4.8c0.034-0.03,0.05-0.05,0.052-0.076c0-0.001,0-0.001,0-0.002V4.721
	c0-0.016-0.004-0.034-0.013-0.058c-0.035-0.097-0.012-0.125,0.358-0.434c0.029-0.024,0.058-0.049,0.087-0.074
	c0.118-0.102,0.227-0.202,0.263-0.243c0.045-0.051,0.116-0.117,0.157-0.147c0.127-0.092,0.37-0.445,0.344-0.5
	c-0.009-0.019-0.042-0.034-0.09-0.046c-0.009-0.002-0.018-0.004-0.028-0.006c-0.013-0.002-0.026-0.004-0.04-0.006
	c-0.167-0.021-0.433-0.01-0.631,0.04c-0.028,0.007-0.074,0.017-0.122,0.026c-0.033,0.006-0.066,0.012-0.095,0.017
	c-0.29,0.046-0.381,0.056-0.427,0.037c-0.01-0.004-0.017-0.01-0.024-0.016c-0.012-0.011-0.023-0.019-0.036-0.025
	c-0.002-0.001-0.004-0.002-0.006-0.003c-0.001,0-0.003,0-0.004-0.001c-0.006-0.002-0.013-0.004-0.02-0.004
	c-0.014-0.001-0.031,0.001-0.05,0.006c-0.004,0.001-0.007,0.001-0.01,0.002c-0.006,0.002-0.014,0.005-0.021,0.007
	c-0.006,0.002-0.012,0.004-0.019,0.006C25.36,3.3,25.354,3.302,25.349,3.305c-0.026,0.01-0.055,0.023-0.09,0.04
	c-0.068,0.032-0.115,0.049-0.16,0.055c-0.028,0.003-0.055,0.002-0.085-0.002c-0.124-0.019-0.158-0.065-0.154-0.209
	c0.001-0.034-0.001-0.066-0.006-0.09c-0.004-0.019-0.009-0.032-0.015-0.036l0,0l0,0c-0.03-0.02-0.195,0.082-0.309,0.192
	c-0.113,0.109-0.238,0.175-0.373,0.198L24.115,3.46l-0.061,0.01l-0.006,0L23.99,3.348c-0.027-0.058-0.05-0.094-0.074-0.108
	c-0.016-0.01-0.033-0.01-0.053,0c-0.004,0.002-0.009,0.005-0.013,0.008c-0.001,0.001-0.001,0.001-0.002,0.001
	c-0.028,0.018-0.059,0.051-0.1,0.099c-0.042,0.049-0.078,0.088-0.111,0.119c-0.064,0.061-0.113,0.087-0.144,0.076
	c-0.007-0.002-0.013-0.006-0.018-0.012c-0.018-0.02-0.051-0.049-0.073-0.066c-0.017-0.012-0.029-0.024-0.039-0.037
	c-0.001-0.001-0.001-0.002-0.001-0.002c-0.027-0.039-0.025-0.091-0.002-0.2c0.031-0.147,0.024-0.248-0.02-0.29
	c-0.021-0.02-0.059-0.003-0.204,0.091c-0.03,0.019-0.064,0.04-0.099,0.06c-0.063,0.036-0.129,0.069-0.181,0.092
	c-0.015,0.006-0.028,0.012-0.04,0.016L22.774,3.21l-0.028,0.01l-0.072,0.027l-0.022-0.039l0,0L22.62,3.152l-0.038-0.066
	l-0.015-0.028l0,0l0,0l0,0l0,0l-0.033,0.02L22.432,3.14c-0.097,0.059-0.152,0.08-0.192,0.055c-0.031-0.019-0.054-0.067-0.08-0.147
	c-0.008-0.025-0.016-0.053-0.022-0.08C22.127,2.92,22.12,2.874,22.121,2.85c0.001-0.025,0.004-0.087,0.008-0.159
	c0.002-0.04,0.004-0.083,0.007-0.124c0.001-0.025,0.002-0.048,0.003-0.072c0-0.004,0-0.008,0-0.013c0-0.024,0.001-0.047,0-0.069
	c0-0.001,0-0.001,0-0.002c-0.002-0.181-0.026-0.318-0.063-0.342c-0.003-0.002-0.006-0.003-0.01-0.004
	c-0.087-0.011-0.169,0.074-0.377,0.389c-0.027,0.041-0.061,0.085-0.098,0.127c-0.079,0.092-0.175,0.182-0.268,0.249
	c-0.027,0.02-0.064,0.054-0.08,0.077c-0.044,0.06-0.087,0.074-0.125,0.041c-0.006-0.005-0.011-0.01-0.016-0.017
	c-0.006-0.007-0.011-0.013-0.017-0.019c-0.011-0.012-0.02-0.02-0.027-0.024c-0.003-0.002-0.005-0.003-0.007-0.002
	c-0.005,0.002-0.038,0.062-0.075,0.132c-0.145,0.28-0.294,0.39-0.483,0.357c-0.036-0.006-0.064-0.01-0.082-0.01
	c-0.018,0-0.027,0.003-0.026,0.009c0.001,0.004,0.006,0.009,0.017,0.016c0.021,0.014,0.033,0.038,0.036,0.07
	c0.005,0.054-0.016,0.129-0.062,0.216c-0.092,0.176-0.167,0.246-0.214,0.201c-0.012-0.012-0.022-0.026-0.027-0.038
	c-0.002-0.006-0.004-0.011-0.003-0.015c0.004-0.039-0.061-0.267-0.119-0.422C20.009,3.391,20.004,3.38,20,3.369
	c-0.002-0.004-0.003-0.008-0.005-0.013c-0.002-0.005-0.004-0.01-0.006-0.015c-0.028-0.072-0.055-0.165-0.067-0.228
	c-0.002-0.01-0.003-0.019-0.004-0.027c-0.008-0.065-0.032-0.172-0.054-0.239c-0.016-0.049-0.028-0.148-0.032-0.247
	c-0.001-0.034-0.002-0.068-0.001-0.1c0.001-0.045,0.002-0.081,0.001-0.112c-0.001-0.109-0.016-0.146-0.066-0.226
	c-0.029-0.046-0.045-0.075-0.052-0.101C19.706,2.029,19.712,2,19.731,1.947c0.036-0.105,0.035-0.133-0.004-0.147l0,0
	c-0.003-0.001-0.007-0.002-0.01-0.003C19.712,1.8,19.706,1.8,19.701,1.8c-0.004,0.001-0.008,0.002-0.013,0.004
	c-0.001,0-0.002,0.001-0.004,0.002c-0.003,0.001-0.006,0.003-0.009,0.005c-0.002,0.001-0.003,0.003-0.005,0.004
	c-0.003,0.002-0.006,0.005-0.008,0.007c-0.002,0.002-0.004,0.004-0.006,0.006c-0.003,0.003-0.006,0.006-0.009,0.01
	c-0.002,0.003-0.004,0.005-0.006,0.008c-0.003,0.004-0.006,0.008-0.009,0.013c-0.002,0.003-0.004,0.006-0.007,0.01
	c-0.003,0.005-0.007,0.011-0.011,0.017c-0.002,0.004-0.004,0.007-0.007,0.011c-0.005,0.008-0.01,0.018-0.016,0.028
	c-0.002,0.004-0.004,0.008-0.006,0.012c-0.005,0.01-0.011,0.02-0.017,0.032c-0.003,0.006-0.006,0.012-0.009,0.018
	c-0.004,0.009-0.009,0.018-0.013,0.027c-0.003,0.007-0.007,0.015-0.011,0.022c-0.005,0.01-0.009,0.02-0.014,0.03
	c-0.004,0.008-0.008,0.017-0.012,0.025c-0.005,0.011-0.01,0.022-0.015,0.034c-0.004,0.009-0.008,0.019-0.013,0.029
	c-0.006,0.012-0.011,0.026-0.017,0.039c-0.004,0.01-0.009,0.02-0.013,0.03c-0.007,0.015-0.014,0.031-0.021,0.048
	c-0.004,0.01-0.008,0.019-0.013,0.029C19.41,2.317,19.4,2.339,19.391,2.36c-0.003,0.007-0.006,0.013-0.009,0.02l0,0
	c-0.01,0.023-0.021,0.046-0.031,0.068c-0.019,0.038-0.039,0.074-0.059,0.106c-0.065,0.104-0.133,0.176-0.177,0.179
	c-0.011,0.001-0.027-0.005-0.043-0.016c-0.016-0.011-0.033-0.026-0.046-0.043c-0.033-0.045-0.054-0.06-0.066-0.046
	c-0.009,0.01-0.014,0.033-0.016,0.074C18.941,2.765,18.92,2.83,18.89,2.881c-0.026,0.045-0.059,0.08-0.092,0.091
	c-0.018,0.006-0.034,0.008-0.052,0.004c-0.03-0.005-0.064-0.025-0.111-0.061c-0.039-0.03-0.079-0.054-0.105-0.062
	c-0.001,0-0.003-0.001-0.004-0.002c-0.001,0-0.002,0-0.003-0.001c-0.003,0.001-0.006,0-0.008,0c-0.003,0-0.006,0-0.008,0.001
	c-0.015,0.007-0.036,0.117-0.046,0.245c-0.018,0.23-0.018,0.232-0.113,0.281c-0.022,0.012-0.039,0.02-0.054,0.026
	c-0.044,0.017-0.062,0.005-0.11-0.038c-0.015-0.014-0.032-0.032-0.047-0.051c-0.023-0.028-0.043-0.057-0.054-0.08
	c-0.01-0.021-0.019-0.035-0.029-0.043c-0.002-0.001-0.003-0.004-0.005-0.005c-0.002-0.001-0.004-0.001-0.006-0.002
	c-0.004-0.002-0.008-0.004-0.012-0.004c-0.006,0-0.012,0.001-0.019,0.004c-0.062,0.029-0.235,0.6-0.229,0.755
	c0.002,0.056-0.007,0.083-0.034,0.088c-0.019,0.003-0.046-0.004-0.086-0.021c-0.047-0.02-0.073-0.026-0.084-0.012
	c-0.01,0.014-0.005,0.049,0.013,0.109c0.015,0.052,0.016,0.123,0.001,0.158c0,0,0,0,0,0.001c-0.007,0.001-0.015,0.001-0.022,0.002
	c-0.041,0.005-0.081,0.015-0.122,0.019c-0.001,0-0.002,0-0.003,0c-0.05-0.022-0.119-0.062-0.173-0.099
	c-0.08-0.056-0.125-0.076-0.148-0.06c-0.001,0.001-0.003,0.001-0.004,0.002c-0.014,0.012-0.019,0.039-0.019,0.08
	c0,0.046-0.001,0.089-0.001,0.13c-0.121,0.04-0.247,0.076-0.37,0.092c-0.041,0.005-0.083-0.002-0.123,0.006
	c-0.039,0.008-0.075,0.027-0.113,0.04c-0.228,0.103,0.013,0.007-0.229,0.065c-0.038,0.009-0.073,0.029-0.11,0.04
	c-0.037,0.011-0.077,0.013-0.113,0.026c-0.072,0.025-0.134,0.076-0.208,0.097c-0.041-0.002-0.083-0.015-0.122-0.006
	c-0.036,0.009-0.063,0.041-0.095,0.059c-0.032,0.017-0.064,0.033-0.098,0.046c-0.033,0.013-0.07,0.015-0.1,0.034
	c-0.03,0.019-0.043,0.062-0.075,0.078c-0.031,0.015-0.068,0.007-0.102,0.011c-0.025,0.02-0.047,0.044-0.074,0.061
	c-0.252,0.155,0.081-0.083-0.161,0.08c-0.03,0.014-0.108,0.084-0.138,0.099c-0.025,0.013-0.054,0.017-0.081,0.025
	c-0.028,0.005-0.058,0.004-0.083,0.016c-0.024,0.011-0.039,0.036-0.059,0.053c-0.019,0.016-0.039,0.032-0.059,0.048
	c-0.019,0.014-0.039,0.027-0.059,0.041c-0.022,0.01-0.045,0.017-0.065,0.031c-0.02,0.014-0.034,0.034-0.051,0.051
	c-0.142,0.036-0.01-0.012-0.116,0.071c-0.017,0.013-0.04,0.018-0.059,0.029c-0.058,0.032-0.109,0.075-0.175,0.091
	c-0.053,0.054-0.033,0.043-0.1,0.076c-0.019,0.009-0.04,0.013-0.057,0.025c-0.05,0.037-0.064,0.101-0.138,0.103
	c-0.01,0.006-0.082,0.05-0.094,0.054c-0.017,0.007-0.036,0.005-0.052,0.013c-0.049,0.023-0.075,0.076-0.138,0.068
	C13.4,6.067,13.51,5.953,13.389,5.988c-0.017,0.005-0.018,0.031-0.032,0.042c-0.012,0.01-0.029,0.011-0.043,0.017
	c-0.063,0.029-0.02,0.024-0.096,0.015c-0.018,0.022-0.036,0.056-0.072,0.056c-0.018,0-0.034-0.022-0.051-0.018
	c-0.016,0.004-0.016,0.031-0.031,0.037c-0.103,0.041,0.001-0.064-0.076,0.029c-0.023,0.021-0.034,0.031-0.038,0.036
	c0.009-0.01,0.033-0.044-0.043-0.021c-0.017,0.005-0.018,0.032-0.034,0.04c-0.044,0.025-0.093-0.032-0.127,0.023
	C12.69,6.26,12.719,6.26,12.657,6.241c-0.015,0.002-0.024,0.022-0.039,0.025c-0.014,0.003-0.028-0.008-0.042-0.008
	c-0.014,0.001-0.027,0.008-0.04,0.012c-0.013,0-0.027-0.001-0.04-0.001c-0.023,0.013-0.036,0.021-0.042,0.026
	c0.014-0.01,0.039-0.034-0.04-0.019c-0.015,0.003-0.019,0.028-0.034,0.031c-0.013,0.003-0.025-0.016-0.039-0.014
	c-0.014,0.003-0.023,0.018-0.035,0.027c-0.012,0-0.024,0-0.036,0.001c-0.013,0.002-0.026,0.005-0.039,0.005s-0.027-0.008-0.04-0.004
	c-0.014,0.004-0.021,0.022-0.035,0.026c-0.013,0.004-0.026-0.006-0.039-0.005s-0.024,0.008-0.036,0.012
	c-0.012,0-0.024,0.001-0.036,0.001c-0.012-0.004-0.024-0.012-0.037-0.012c-0.034,0-0.067,0.042-0.101,0.037
	c-0.013-0.002-0.022-0.016-0.035-0.02c-0.011-0.003-0.022,0-0.033-0.001c-0.013,0.01-0.041,0.037-0.062,0.036
	c-0.043-0.003-0.058-0.054-0.125-0.016c-0.01,0.002-0.022,0.001-0.031,0.005c-0.012,0.005-0.019,0.024-0.031,0.022
	c-0.014-0.002-0.015-0.031-0.029-0.03c-0.013,0-0.011,0.03-0.025,0.032c-0.013,0.002-0.019-0.017-0.029-0.025
	c-0.009,0.003-0.017,0.006-0.026,0.008c-0.017,0.003-0.027,0.006-0.033,0.007c0.01-0.003,0.027-0.011-0.022-0.015
	c-0.019-0.004-0.033,0.016-0.05,0.017c-0.01,0-0.018-0.009-0.028-0.007c-0.007,0.001-0.012,0.009-0.018,0.014
	c-0.035-0.01-0.029,0.018-0.058,0.009c-0.009-0.003-0.015-0.013-0.024-0.014c-0.018-0.004-0.016,0.006-0.015,0.009
	c-0.001-0.002-0.005-0.009-0.016-0.025c-0.012,0.01-0.017,0.014-0.018,0.015c0.004-0.003,0.017-0.019-0.02-0.007
	c-0.006,0.002-0.006,0.011-0.011,0.015c-0.011,0.01-0.018,0.002-0.031,0.005c-0.003,0.001-0.005,0.004-0.007,0.006
	c-0.004-0.001-0.008,0-0.011-0.003c-0.007-0.007-0.007-0.03-0.017-0.025c-0.01,0.004,0.001,0.022,0.001,0.032
	c-0.003-0.004-0.006-0.012-0.008-0.012c-0.009-0.002-0.018,0.001-0.027,0.002l0,0c-0.674,0.025-0.638,0.977,0.035,0.953
	C11.05,7.379,11.117,7.4,11.118,7.4c0.01-0.005,0.011-0.02,0.019-0.027c0.002-0.002,0.004,0.004,0.006,0.005
	c0.004,0.001,0.008,0.001,0.012,0.001c0.006-0.003,0.011-0.013,0.018-0.01s0.002,0.02,0.01,0.022c0.002,0,0.027-0.034,0.037-0.022
	c0.028,0.035-0.004,0.082,0.03,0.01c0.048-0.042-0.007-0.006,0.045,0.008c0.02,0.006,0.009-0.041,0.038-0.023
	c0.047,0.03,0.004,0.067,0.049,0.005c0.053,0.033,0.034,0.017,0.076-0.001c0.02-0.009,0.056-0.007,0.078-0.006
	c0.08,0.018-0.024,0.002,0.058-0.015c0.131-0.027-0.065,0.049,0.065,0.004c0.01-0.003,0.017-0.019,0.028-0.016
	c0.015,0.004,0.022,0.021,0.033,0.031c0.01-0.011,0.016-0.029,0.031-0.033c0.012-0.003,0.022,0.013,0.035,0.014
	c0.057,0.009,0.015-0.013,0.069-0.022c0.024-0.004,0.049,0.008,0.074,0.011c0.04-0.053,0.066,0,0.112-0.007
	c0.014-0.002,0.022-0.018,0.036-0.022c0.019-0.006,0.061,0.003,0.079,0.006c0.042,0.006,0.078-0.026,0.118-0.029
	c0.014-0.001,0.028,0.007,0.042,0.005c0.072-0.008,0.047-0.014,0.036-0.015c0.006,0.001,0.02,0.002,0.048,0.004
	c0.028-0.021,0.061,0.001,0.09-0.006c0.016-0.004,0.028-0.022,0.045-0.024c0.016-0.003,0.032,0.011,0.048,0.01
	c0.015-0.001,0.028-0.011,0.043-0.016c0.015,0,0.03,0.001,0.045,0.001c0.115-0.081-0.03,0.004,0.094-0.017
	c0.018-0.003,0.027-0.026,0.045-0.03c0.017-0.003,0.034,0.014,0.051,0.01c0.079-0.015,0.05-0.026,0.036-0.03
	c0.007,0.001,0.024,0.004,0.058,0.009c0.004-0.003,0.081-0.058,0.089-0.059c0.018-0.002,0.034,0.018,0.053,0.017
	c0.017-0.001,0.029-0.02,0.046-0.023c0.09-0.018,0.055,0.004,0.049,0.007c0.003-0.001,0.016-0.008,0.054-0.026
	c0.063,0.015,0.101-0.038,0.157-0.05c0.019-0.004,0.04,0.004,0.059,0c0.023-0.004,0.038-0.011,0.053-0.02
	c-0.001,0.002-0.002,0.003-0.003,0.005c-0.025,0.049-0.052,0.098-0.079,0.146c-0.03,0.052-0.059,0.104-0.088,0.157
	c-0.031,0.056-0.06,0.113-0.089,0.17c-0.03,0.06-0.057,0.123-0.085,0.185c-0.02,0.019-0.034,0.045-0.039,0.081
	c0,0.003-0.001,0.008-0.002,0.01c0,0-0.005,0.01-0.007,0.013c-0.008,0.015-0.018,0.029-0.029,0.043
	c-0.017,0.023-0.037,0.043-0.057,0.064c-0.03,0.031-0.064,0.059-0.098,0.086c-0.051,0.04-0.106,0.074-0.162,0.107
	c-0.08,0.046-0.164,0.085-0.249,0.123c-0.109,0.047-0.222,0.085-0.336,0.12c-0.132,0.04-0.266,0.072-0.401,0.1
	c-0.151,0.03-0.304,0.047-0.458,0.057c-0.175,0.011-0.35,0.004-0.524-0.011c-0.189-0.017-0.375-0.056-0.558-0.102
	c-0.189-0.048-0.37-0.118-0.549-0.196c-0.176-0.077-0.34-0.175-0.499-0.281c-0.119-0.08-0.227-0.175-0.328-0.277
	C8.913,7.609,8.95,7.585,8.986,7.559c0.124-0.091,0.24-0.191,0.339-0.308c0.097-0.115,0.188-0.234,0.261-0.366
	c0.069-0.126,0.13-0.256,0.17-0.394c0.036-0.125,0.066-0.253,0.072-0.384c0.004-0.118-0.001-0.237-0.039-0.35
	c-0.038-0.104-0.09-0.2-0.174-0.274C9.537,5.417,9.45,5.363,9.351,5.335C9.25,5.308,9.147,5.294,9.042,5.306
	C8.93,5.321,8.821,5.35,8.72,5.403C8.615,5.46,8.515,5.527,8.432,5.614C8.344,5.707,8.264,5.809,8.203,5.923
	c-0.069,0.129-0.127,0.264-0.148,0.41C8.037,6.491,8.041,6.648,8.088,6.802c0.05,0.163,0.117,0.32,0.203,0.468
	c0.056,0.095,0.116,0.187,0.18,0.275c-0.13,0.05-0.267,0.076-0.405,0.095C7.918,7.657,7.768,7.655,7.62,7.646
	c-0.148-0.01-0.294-0.037-0.437-0.074C7.045,7.536,6.915,7.48,6.788,7.418c-0.122-0.06-0.236-0.133-0.346-0.212
	c-0.049-0.035-0.095-0.072-0.14-0.112C6.34,7.035,6.374,6.973,6.397,6.906c0.028-0.081,0.05-0.163,0.064-0.247
	c0.013-0.083,0.024-0.166,0.025-0.25c0.001-0.081-0.003-0.162-0.013-0.242C6.461,6.09,6.447,6.014,6.42,5.941
	C6.393,5.874,6.361,5.808,6.313,5.753C6.27,5.705,6.221,5.662,6.163,5.632C6.105,5.605,6.045,5.586,5.98,5.586
	c-0.064,0.001-0.126,0.01-0.185,0.038C5.733,5.655,5.678,5.695,5.638,5.753C5.596,5.816,5.565,5.885,5.553,5.96
	C5.538,6.044,5.532,6.13,5.541,6.215c0.01,0.099,0.029,0.198,0.061,0.293C5.64,6.617,5.686,6.723,5.747,6.822
	C5.81,6.924,5.879,7.021,5.96,7.11C5.944,7.125,5.93,7.14,5.914,7.155c-0.06,0.056-0.127,0.103-0.195,0.149
	c-0.087,0.057-0.177,0.11-0.266,0.164C5.346,7.532,5.24,7.596,5.135,7.66c-0.116,0.071-0.229,0.147-0.34,0.225
	C4.681,7.967,4.574,8.056,4.47,8.15C4.366,8.245,4.276,8.353,4.194,8.467C4.111,8.586,4.05,8.718,3.999,8.853
	C3.947,8.993,3.921,9.14,3.908,9.289c-0.013,0.16,0.015,0.315,0.063,0.466c0.055,0.159,0.154,0.293,0.263,0.418
	c0.111,0.122,0.243,0.22,0.378,0.315c0.062,0.044,0.127,0.085,0.191,0.126c0.15,0.096,0.285-0.116,0.135-0.212
	c-0.061-0.039-0.122-0.078-0.181-0.119c-0.118-0.083-0.235-0.169-0.334-0.275c-0.088-0.1-0.168-0.205-0.213-0.329
	C4.171,9.559,4.149,9.436,4.159,9.31c0.01-0.126,0.032-0.249,0.076-0.368c0.043-0.115,0.094-0.227,0.164-0.328
	c0.071-0.1,0.15-0.194,0.241-0.277c0.095-0.087,0.195-0.17,0.3-0.245c0.106-0.076,0.215-0.148,0.326-0.216
	C5.371,7.81,5.477,7.747,5.583,7.683c0.092-0.056,0.186-0.111,0.276-0.171c0.079-0.053,0.157-0.109,0.227-0.174
	C6.104,7.321,6.122,7.304,6.14,7.287c0.05,0.044,0.101,0.086,0.155,0.124c0.122,0.087,0.248,0.168,0.382,0.234
	c0.143,0.069,0.29,0.13,0.443,0.171c0.159,0.041,0.32,0.07,0.484,0.081c0.165,0.01,0.33,0.012,0.494-0.008
	c0.16-0.022,0.319-0.053,0.471-0.112c0.023-0.009,0.046-0.019,0.069-0.029c0.129,0.136,0.267,0.264,0.424,0.369
	c0.171,0.115,0.349,0.22,0.539,0.303c0.192,0.083,0.387,0.158,0.589,0.21c0.197,0.049,0.396,0.09,0.598,0.108
	c0.187,0.016,0.375,0.023,0.562,0.011c0.165-0.011,0.329-0.029,0.491-0.062c0.143-0.029,0.285-0.063,0.425-0.106
	c0.123-0.038,0.245-0.079,0.363-0.13c0.094-0.041,0.186-0.085,0.275-0.136c0.025-0.015,0.049-0.03,0.073-0.045
	c-0.006,0.022-0.012,0.043-0.018,0.065c-0.021,0.075-0.04,0.151-0.059,0.226c-0.02,0.08-0.04,0.161-0.058,0.241
	c-0.019,0.085-0.037,0.169-0.055,0.254c-0.017,0.085-0.035,0.171-0.053,0.256c-0.018,0.086-0.036,0.171-0.055,0.256
	C12.66,9.656,12.64,9.743,12.62,9.83c-0.02,0.088-0.041,0.176-0.062,0.263c-0.006,0.025-0.012,0.051-0.017,0.077
	c-0.017,0.047-0.035,0.094-0.053,0.14c-0.03,0.077-0.06,0.153-0.091,0.229c-0.031,0.078-0.065,0.154-0.098,0.231
	c-0.035,0.079-0.069,0.159-0.104,0.238c-0.036,0.082-0.072,0.164-0.106,0.247c-0.018,0.042-0.034,0.084-0.05,0.127
	c-0.014-0.003-0.029-0.007-0.044-0.012c-0.05-0.016-0.106-0.042-0.181-0.081c-0.094-0.049-0.163-0.078-0.204-0.085
	c-0.041-0.007-0.053,0.007-0.031,0.045c0.037,0.063,0.004,0.164-0.071,0.217c-0.056,0.04-0.092,0.046-0.243,0.012
	c0.006-0.011,0.011-0.021,0.017-0.032c0.338-0.704,0.041-1.548-0.662-1.886c-0.704-0.338-1.548-0.041-1.886,0.662
	c-0.128,0.266-0.165,0.553-0.123,0.824c-0.021-0.001-0.043-0.002-0.064-0.003c-0.129-0.005-0.259-0.005-0.388-0.004
	c-0.109-0.667-0.71-1.154-1.398-1.107C6.03,9.98,5.476,10.613,5.525,11.344c0.032,0.474,0.309,0.874,0.7,1.082
	c-0.363,0.71-0.095,1.583,0.61,1.964c0.106,0.058,0.217,0.101,0.329,0.13c-0.097,0.145-0.169,0.311-0.206,0.493
	c-0.263-0.34-0.686-0.545-1.147-0.509c-0.726,0.057-1.269,0.691-1.212,1.417c0.05,0.644,0.555,1.144,1.176,1.209
	c-0.036,0.051-0.07,0.104-0.1,0.161c-0.361,0.685-0.099,1.533,0.586,1.894c0.661,0.349,1.473,0.117,1.854-0.515
	c0.014,0.114,0.042,0.225,0.083,0.332c-0.135,0.069-0.266,0.145-0.395,0.224c-0.083,0.051-0.164,0.104-0.245,0.158
	c-0.129,0.062-0.246,0.142-0.349,0.238l-0.001,0.001c-0.629-0.4-1.467-0.239-1.901,0.377c-0.447,0.634-0.295,1.51,0.339,1.956
	c0.555,0.391,1.295,0.323,1.771-0.125c0.098,0.062,0.204,0.112,0.316,0.148c-0.24,0.117-0.447,0.307-0.586,0.558
	c-0.117,0.211-0.17,0.44-0.167,0.665c-0.594-0.237-1.291-0.024-1.644,0.537c-0.397,0.632-0.206,1.466,0.426,1.863
	c0.093,0.058,0.19,0.104,0.29,0.137c-0.048,0.52,0.221,1.041,0.716,1.289c0.13,0.065,0.265,0.106,0.401,0.125
	c-0.025,0.079-0.042,0.161-0.052,0.246c-0.078,0.72,0.455,1.355,1.196,1.432c0.05,0.262,0.187,0.51,0.409,0.693
	c0.506,0.42,1.256,0.35,1.676-0.155c0.42-0.506,0.35-1.256-0.155-1.676c-0.116-0.096-0.245-0.166-0.38-0.211
	c0-0.089-0.01-0.176-0.028-0.261c0.157-0.031,0.306-0.09,0.441-0.172c0.126,0.099,0.27,0.178,0.431,0.23
	c0.725,0.234,1.502-0.165,1.736-0.89c0.192-0.597-0.044-1.228-0.537-1.564c0.072-0.063,0.139-0.133,0.199-0.213
	c0.201-0.265,0.293-0.578,0.285-0.886c0.121,0.072,0.255,0.127,0.399,0.161c0.741,0.171,1.481-0.292,1.651-1.033
	s-0.292-1.481-1.033-1.651c-0.13-0.03-0.259-0.04-0.386-0.033c0.034-0.045,0.064-0.091,0.091-0.138
	c0.048-0.005,0.071-0.027,0.107-0.092c0.003-0.005,0.005-0.009,0.008-0.014c0.02-0.038,0.041-0.069,0.062-0.096
	c0.011-0.013,0.022-0.025,0.033-0.035c0.002-0.001,0.003-0.002,0.005-0.004c0.021-0.018,0.042-0.032,0.064-0.041
	c0.036-0.014,0.073-0.014,0.111-0.002c0.075,0.024,0.105,0.009,0.293-0.149c0.245-0.207,0.286-0.226,0.402-0.192l0.087,0.026
	l0.058-0.16c0.024-0.066,0.057-0.145,0.085-0.201v-0.001l0,0c0.009-0.019,0.018-0.035,0.025-0.047
	c0.091-0.152,0.164-0.27,0.224-0.358c0.098,0.023,0.199,0.035,0.302,0.036c0.005,0.026,0.009,0.049,0.013,0.071
	c0.017,0.113,0.006,0.176-0.03,0.309c-0.031,0.114-0.038,0.198-0.021,0.255c0,0,0,0,0,0.001c0.01,0.034,0.029,0.058,0.057,0.073
	c0.029,0.015,0.05,0.035,0.062,0.057c0.021,0.038,0.018,0.084-0.008,0.135c-0.065,0.125-0.07,0.182-0.009,0.226
	c0.009,0.006,0.019,0.012,0.03,0.018c0.007,0.004,0.014,0.008,0.02,0.012c0.002,0.002,0.005,0.003,0.007,0.005
	c0.004,0.003,0.008,0.006,0.012,0.009c0.04,0.033,0.071,0.08,0.096,0.15c0.027,0.077,0.047,0.182,0.063,0.326
	c0.018,0.159,0.044,0.278,0.076,0.353c0.027,0.061,0.057,0.093,0.091,0.093c0.003,0,0.005-0.001,0.008-0.001s0.006,0,0.008-0.001
	c0.006-0.002,0.011-0.004,0.017-0.008c0.005-0.003,0.018-0.018,0.036-0.04c0.035-0.044,0.088-0.118,0.142-0.2
	c0.067-0.101,0.129-0.177,0.186-0.231c0.066-0.063,0.125-0.094,0.171-0.089c0.006,0.001,0.013,0.003,0.02,0.007
	c0.012,0.007,0.025,0.018,0.039,0.032c0.043,0.044,0.088,0.117,0.1,0.173c0.017,0.079,0.059,0.096,0.131,0.055
	c0.031-0.018,0.054-0.026,0.071-0.023c0.028,0.005,0.039,0.04,0.038,0.11c0,0.052,0.025,0.118,0.057,0.147
	c0.045,0.04,0.055,0.1,0.045,0.259c-0.007,0.114-0.004,0.212,0.008,0.218l0,0l0,0c0.005,0.003,0.018-0.001,0.035-0.008
	c0.022-0.009,0.051-0.025,0.08-0.045c0.052-0.035,0.167-0.087,0.256-0.117c0.072-0.024,0.114-0.036,0.148-0.035
	c0.001,0,0.002,0,0.003,0c0.034,0.002,0.06,0.018,0.101,0.049c0.017,0.013,0.034,0.023,0.051,0.032
	c0.026,0.014,0.047,0.021,0.06,0.019c0.003,0,0.007,0,0.009-0.001c0.011-0.007,0.025-0.01,0.04-0.01
	c0.004,0,0.009,0.001,0.014,0.001c0.003,0,0.006,0,0.01,0.001c0.021,0.004,0.044,0.014,0.066,0.029
	c0.089,0.059,0.168,0.198,0.094,0.393l-0.091,0.24l0,0l0,0l0.094-0.065l0.138-0.096c0.157-0.046,0.23-0.008,0.249,0.129
	c0.004,0.033,0.012,0.059,0.024,0.08c0.002,0.003,0.003,0.008,0.005,0.011c0.004,0.006,0.009,0.011,0.013,0.016
	c0.004,0.005,0.008,0.011,0.013,0.015c0.006,0.005,0.013,0.009,0.02,0.014c0.005,0.003,0.009,0.007,0.015,0.01
	c0.059,0.031,0.078,0.07,0.09,0.179c0.005,0.052,0.015,0.101,0.026,0.131c0.005,0.014,0.01,0.024,0.015,0.027
	c0.059,0.04,0.114,0.048,0.19,0.027c0.044-0.012,0.1-0.011,0.124,0.002c0.068,0.036,0.114,0.487,0.223,0.722
	c0.011,0.024,0.022,0.042,0.034,0.053c0.079,0.083,0.164-0.098,0.295-0.014c0.132,0.084,0.192,0.146,0.304,0.317
	c0.077,0.117-0.176,0.338-0.183,0.351s0.337-0.07,0.386-0.044c0.083,0.044,0.409,0.416,0.435,0.496l0,0
	c0.001,0.004,0.004,0.009,0.007,0.015c0.001,0.002,0.003,0.005,0.004,0.007c0.003,0.005,0.005,0.01,0.009,0.015
	c0.002,0.003,0.004,0.006,0.006,0.01c0.004,0.006,0.008,0.012,0.012,0.019c0.002,0.004,0.005,0.007,0.007,0.011
	c0.005,0.008,0.011,0.017,0.017,0.025c0.002,0.003,0.004,0.006,0.007,0.01c0.008,0.011,0.016,0.023,0.025,0.035
	c0.004,0.005,0.008,0.011,0.012,0.016c0.006,0.008,0.011,0.015,0.017,0.023c0.005,0.006,0.01,0.012,0.014,0.019
	c0.006,0.007,0.012,0.015,0.017,0.022c0.005,0.007,0.01,0.013,0.015,0.02c0.006,0.008,0.012,0.015,0.018,0.023
	c0.007,0.008,0.013,0.016,0.02,0.024c0.009,0.011,0.018,0.022,0.027,0.032c0.006,0.006,0.011,0.013,0.017,0.019
	c0.006,0.007,0.012,0.013,0.017,0.019c0.006,0.006,0.012,0.013,0.018,0.019c0.006,0.006,0.011,0.011,0.017,0.017
	s0.011,0.012,0.017,0.017c0.006,0.005,0.011,0.01,0.017,0.015c0.005,0.005,0.011,0.01,0.016,0.014
	c0.009,0.008,0.019,0.016,0.027,0.022l0,0c0.033,0.025,0.062,0.039,0.081,0.034c0.14-0.034,0.008-0.534,0.128-0.895
	c0.018-0.055,0.037-0.103,0.057-0.147c0.199-0.451,0.455-0.393,0.594-0.403c0.001,0,0.002,0,0.003,0
	c0.004,0,0.008-0.001,0.012-0.001c0.002,0,0.003,0,0.005-0.001c0.003,0,0.006-0.001,0.01-0.002c0.002,0,0.004-0.001,0.005-0.001
	c0.003-0.001,0.006-0.001,0.008-0.002c0.002,0,0.003-0.001,0.005-0.001c0.003-0.001,0.005-0.002,0.008-0.003
	c0.001-0.001,0.003-0.001,0.004-0.002c0.004-0.002,0.007-0.004,0.01-0.006l0,0c0.118-0.092-0.159-0.591-0.167-0.867
	c-0.003-0.095,0.016-0.241,0.041-0.323c0.045-0.147,0.049-0.151,0.229-0.247c0.064-0.034,0.122-0.067,0.157-0.089
	c0.02-0.012,0.033-0.021,0.034-0.024c0.004-0.008-0.031-0.064-0.08-0.123c-0.01-0.013-0.02-0.026-0.029-0.04
	c-0.068-0.102-0.091-0.219-0.063-0.315c0.005-0.017,0.011-0.033,0.019-0.049c0.005-0.01,0.009-0.02,0.012-0.03
	c0.016-0.044,0.016-0.088-0.002-0.129c-0.028-0.066-0.024-0.083,0.032-0.127c0.031-0.024,0.092-0.039,0.16-0.041
	c0.016,0,0.033,0,0.05,0.001c0.114,0.008,0.173-0.015,0.179-0.076c0.006-0.053-0.029-0.135-0.103-0.252
	c-0.064-0.101-0.091-0.174-0.074-0.205c0.008-0.016,0.008-0.034,0-0.055s-0.025-0.044-0.05-0.07
	c-0.061-0.063-0.068-0.091-0.038-0.148c0.02-0.039,0.031-0.09,0.024-0.114c-0.007-0.021,0.023-0.036,0.084-0.045
	c0.069-0.01,0.179-0.011,0.325-0.003c0.201,0.011,0.213-0.043,0.056-0.263c-0.063-0.088-0.099-0.15-0.116-0.201
	c-0.01-0.031-0.013-0.058-0.011-0.084s-0.002-0.061-0.011-0.095c-0.009-0.035-0.022-0.069-0.038-0.096
	c-0.022-0.036-0.035-0.059-0.038-0.075c-0.006-0.026,0.012-0.038,0.058-0.063c0.061-0.034,0.088-0.073,0.082-0.127
	c-0.003-0.032-0.018-0.07-0.045-0.116c-0.087-0.15-0.036-0.238,0.152-0.258c0.215-0.024,0.392-0.021,0.567,0.011
	c0.179,0.032,0.528,0.013,0.504-0.028c-0.002-0.004-0.005-0.008-0.01-0.014c-0.011-0.015-0.03-0.037-0.054-0.062
	c-0.106-0.115-0.311-0.314-0.403-0.387c-0.239-0.189-0.276-0.26-0.195-0.38c0.043-0.065,0.032-0.09-0.055-0.122
	c-0.041-0.015-0.108-0.076-0.152-0.128c-0.007-0.008-0.014-0.017-0.019-0.025c-0.019-0.026-0.029-0.048-0.024-0.057
	c0.005-0.01,0.02-0.024,0.039-0.038c0.015-0.011,0.032-0.022,0.049-0.031c0.036-0.019,0.065-0.047,0.067-0.067
	c0-0.001,0.001-0.003,0.001-0.004l0,0l0,0c-0.001-0.013-0.055-0.052-0.133-0.099c-0.037-0.022-0.078-0.045-0.123-0.069
	c-0.219-0.115-0.256-0.144-0.273-0.209c-0.016-0.062,0.011-0.121,0.059-0.156c0.029-0.021,0.066-0.032,0.106-0.03
	c0.065,0.004,0.091-0.007,0.078-0.033c-0.017-0.034-0.098-0.095-0.248-0.186c-0.257-0.155-0.585-0.306-1.024-0.47
	c-0.245-0.091-0.367-0.172-0.492-0.326c-0.033-0.041-0.054-0.073-0.064-0.102c-0.022-0.061,0.005-0.107,0.088-0.179
	c0.112-0.097,0.113-0.097,0.445,0.015c0.295,0.099,0.468,0.185,0.557,0.275c0.015,0.015,0.045,0.039,0.083,0.066
	c0.05,0.036,0.114,0.079,0.175,0.117c0.187,0.115,0.197,0.118,0.25,0.071c0.034-0.03,0.098-0.041,0.17-0.029
	c0.064,0.011,0.149,0.017,0.19,0.013c0.027-0.002,0.082,0.012,0.148,0.036c0.039,0.015,0.083,0.033,0.126,0.055
	c0.096,0.047,0.165,0.073,0.212,0.08c0.008,0.001,0.015,0.002,0.022,0.002c0.046,0,0.064-0.028,0.06-0.083
	c-0.004-0.056,0.014-0.104,0.045-0.142c0.061-0.075,0.175-0.105,0.278-0.052c0.048,0.025,0.092,0.02,0.15-0.017
	c0.045-0.029,0.168-0.06,0.272-0.069c0.074-0.006,0.157-0.022,0.216-0.04c0.025-0.007,0.046-0.015,0.06-0.023
	c0.157-0.085,0.37-0.136,0.472-0.115c0.048,0.01,0.077,0.011,0.101-0.002c0.018-0.01,0.034-0.028,0.054-0.058
	c0.037-0.056,0.066-0.08,0.182-0.067c0.013,0.001,0.027,0.003,0.042,0.006c0.018,0.003,0.038,0.006,0.06,0.01
	c0.029,0.005,0.061,0.012,0.098,0.02c0.011,0.002,0.023,0.005,0.035,0.008c0.066,0.015,0.143,0.032,0.235,0.054
	c0.218,0.051,0.461,0.098,0.539,0.105c0.079,0.006,0.19,0.026,0.247,0.044c0.174,0.054,0.672,0.034,0.705-0.028
	c0.013-0.025,0-0.075-0.031-0.139c-0.084-0.171-0.3-0.442-0.502-0.607c-0.045-0.036-0.13-0.114-0.19-0.172
	c-0.298-0.288-0.341-0.341-0.333-0.406c0.003-0.027,0.002-0.05-0.008-0.071c-0.021-0.047-0.081-0.088-0.215-0.158
	c-0.087-0.046-0.137-0.081-0.175-0.125c-0.017-0.02-0.031-0.041-0.045-0.066c-0.069-0.128-0.05-0.192,0.087-0.289
	c0.058-0.041,0.104-0.089,0.103-0.107c-0.003-0.042-0.213-0.124-0.393-0.154c-0.18-0.029-0.328-0.099-0.444-0.209l-0.034-0.032
	l-0.06-0.057l0.073-0.139c0.035-0.066,0.052-0.112,0.049-0.145c-0.006-0.055-0.071-0.072-0.217-0.08
	c-0.254-0.014-0.373-0.056-0.36-0.126c0.001-0.005,0.002-0.012,0.003-0.018c0.003-0.023,0.006-0.05,0.007-0.074
	c0.008,0.01,0.015,0.02,0.021,0.033c0.06,0.125,0.099,0.149,0.179,0.112c0.058-0.027,0.123-0.027,0.214,0.006
	c0.063,0.023,0.138,0.06,0.234,0.117c0.123,0.073,0.221,0.117,0.29,0.132s0.108,0,0.113-0.045l0,0l0,0
	c0.001-0.007-0.004-0.029-0.014-0.062c-0.013-0.047-0.035-0.114-0.06-0.185c-0.036-0.103-0.058-0.189-0.065-0.258
	c-0.007-0.073,0.002-0.125,0.029-0.154c0.013-0.013,0.044-0.021,0.081-0.022c0.049-0.003,0.109,0.005,0.147,0.023
	c0.063,0.029,0.097,0.009,0.105-0.062c0.004-0.03,0.01-0.05,0.021-0.06c0.018-0.017,0.047-0.006,0.095,0.03
	c0.036,0.027,0.095,0.044,0.131,0.036c0.051-0.01,0.097,0.014,0.202,0.103c0.075,0.064,0.144,0.112,0.154,0.107l0,0l0,0
	c0.005-0.003,0.011-0.016,0.015-0.036c0.004-0.019,0.007-0.044,0.009-0.07c0.003-0.054,0.026-0.16,0.051-0.236
	c0.043-0.128,0.054-0.141,0.139-0.166c0.025-0.007,0.048-0.017,0.065-0.027c0.014-0.008,0.025-0.016,0.029-0.024
	c0.001-0.002,0.002-0.004,0.003-0.007c0.001-0.011,0.006-0.022,0.014-0.033c0.003-0.004,0.007-0.008,0.011-0.012
	c0.001-0.001,0.002-0.002,0.003-0.003c0.004-0.004,0.009-0.007,0.014-0.01c0.001-0.001,0.003-0.002,0.004-0.003
	c0.006-0.004,0.012-0.007,0.019-0.01c0.001,0,0.002-0.001,0.003-0.002c0.006-0.003,0.012-0.004,0.018-0.007
	c0.002-0.001,0.004-0.002,0.007-0.003c0.004-0.001,0.007-0.002,0.011-0.003c0.087-0.021,0.209,0.005,0.298,0.144l0.1,0.157
	l0.019,0.029l0.002-0.061l0.007-0.183c0.049-0.132,0.113-0.163,0.217-0.105c0.038,0.021,0.068,0.029,0.098,0.027
	c0.005,0,0.009,0,0.014-0.001c0.004-0.001,0.009-0.003,0.013-0.004c0.007-0.002,0.014-0.004,0.022-0.008
	c0.052-0.025,0.088-0.018,0.17,0.031c0.043,0.026,0.086,0.046,0.112,0.052c0.004,0.001,0.008,0.002,0.011,0.002s0.006,0,0.007-0.001
	c0.058-0.02,0.092-0.054,0.117-0.117c0.014-0.036,0.044-0.074,0.066-0.084c0.06-0.028,0.394,0.172,0.612,0.219
	c0.023,0.005,0.041,0.006,0.055,0.004c0.097-0.012,0.017-0.163,0.142-0.211c0.126-0.048,0.2-0.057,0.375-0.046
	c0.12,0.007,0.142,0.296,0.147,0.308c0.006,0.012,0.126-0.268,0.169-0.289c0.073-0.035,0.497-0.067,0.566-0.043l0,0
	c0.003,0.001,0.008,0.002,0.014,0.003c0.002,0,0.004,0.001,0.007,0.001c0.005,0.001,0.009,0.001,0.015,0.002
	c0.003,0,0.006,0.001,0.01,0.001c0.006,0.001,0.012,0.001,0.019,0.001c0.004,0,0.008,0.001,0.012,0.001
	c0.008,0,0.018,0.001,0.027,0.001c0.003,0,0.005,0,0.008,0c0.012,0,0.025,0.001,0.038,0.001c0.006,0,0.011,0,0.017,0
	c0.008,0,0.016,0,0.025,0c0.007,0,0.014,0,0.02,0c0.008,0,0.016,0,0.024,0c0.007,0,0.015,0,0.022-0.001
	c0.008,0,0.016-0.001,0.025-0.001c0.009,0,0.018-0.001,0.027-0.001c0.012-0.001,0.024-0.001,0.036-0.002
	c0.007-0.001,0.014-0.001,0.022-0.002c0.007-0.001,0.015-0.001,0.022-0.002c0.007-0.001,0.015-0.002,0.022-0.003
	s0.013-0.002,0.02-0.003s0.014-0.002,0.021-0.003s0.013-0.002,0.019-0.003c0.006-0.001,0.013-0.002,0.018-0.003
	c0.011-0.002,0.02-0.005,0.03-0.007l0,0c0.035-0.01,0.059-0.023,0.066-0.038C30.141,12.142,29.728,11.975,29.542,11.706z
	 M5.791,6.189C5.785,6.127,5.789,6.064,5.8,6.003c0.007-0.039,0.022-0.076,0.046-0.109c0.015-0.021,0.037-0.035,0.06-0.045
	c0.024-0.01,0.049-0.013,0.075-0.012s0.049,0.01,0.071,0.022C6.08,5.875,6.104,5.897,6.125,5.921
	c0.027,0.033,0.045,0.072,0.06,0.112c0.02,0.055,0.029,0.113,0.038,0.171c0.009,0.067,0.011,0.135,0.011,0.203
	c-0.001,0.071-0.01,0.141-0.022,0.211c-0.011,0.07-0.03,0.138-0.053,0.205c-0.01,0.031-0.024,0.06-0.04,0.088
	C6.06,6.842,6.009,6.767,5.961,6.69C5.91,6.606,5.871,6.517,5.839,6.424C5.814,6.348,5.799,6.269,5.791,6.189z M8.305,6.363
	c0.018-0.115,0.066-0.221,0.12-0.322c0.051-0.094,0.116-0.178,0.189-0.255C8.68,5.719,8.758,5.668,8.84,5.624
	c0.073-0.038,0.153-0.059,0.234-0.069c0.072-0.007,0.143,0.003,0.212,0.022C9.349,5.596,9.403,5.63,9.452,5.673
	c0.05,0.046,0.079,0.105,0.101,0.168c0.025,0.083,0.027,0.17,0.024,0.256C9.571,6.207,9.545,6.315,9.515,6.42
	C9.48,6.542,9.426,6.655,9.366,6.765C9.3,6.881,9.219,6.987,9.133,7.089C9.046,7.19,8.945,7.278,8.838,7.356
	C8.795,7.387,8.75,7.413,8.705,7.438C8.632,7.344,8.568,7.244,8.507,7.142c-0.076-0.13-0.136-0.269-0.179-0.413
	C8.293,6.609,8.289,6.486,8.305,6.363z M14.879,6.339c0.058-0.014,0.116-0.024,0.175-0.034c0.067-0.011,0.134-0.018,0.201-0.024
	c0.075-0.006,0.15-0.005,0.225-0.001c0.083,0.005,0.165,0.015,0.247,0.028c0.083,0.012,0.164,0.032,0.244,0.056
	c0.086,0.026,0.166,0.065,0.245,0.108c0.063,0.035,0.121,0.075,0.178,0.118c0.003,0.015,0.006,0.03,0.008,0.042
	c0.015,0.09,0.011,0.101-0.051,0.114c-0.124,0.026-0.139,0.036-0.128,0.079c0.006,0.024,0.113,0.123,0.239,0.221
	c0.195,0.152,0.326,0.293,0.357,0.381c-0.108,0.024-0.213,0.058-0.311,0.112c-0.103,0.059-0.201,0.125-0.278,0.216
	c-0.028,0.034-0.054,0.069-0.078,0.105c-0.002-0.001-0.004-0.003-0.006-0.004c-0.248-0.161-0.528-0.349-0.782-0.523
	c-0.276-0.189-0.516-0.358-0.684-0.482c0.003-0.016,0.005-0.032,0.007-0.044c0-0.003-0.048-0.015-0.107-0.031
	c-0.11-0.083-0.181-0.142-0.23-0.185c0.003-0.002,0.006-0.004,0.009-0.006c0.02-0.012,0.049-0.003,0.069-0.015
	s0.021-0.046,0.043-0.055c0.138-0.054,0.039,0.09,0.116-0.063c0.062-0.011,0.107-0.04,0.149-0.074
	C14.782,6.364,14.831,6.351,14.879,6.339z M15.075,7.77c0.262,0.167,0.555,0.349,0.812,0.502c0.051,0.03,0.099,0.058,0.148,0.086
	c0.008,0.061,0.021,0.121,0.046,0.178c0.034,0.074,0.077,0.143,0.135,0.2c0.004,0.004,0.008,0.007,0.012,0.011
	c-0.002,0.003-0.004,0.006-0.007,0.01c-0.048,0.07-0.124,0.166-0.169,0.212c-0.073,0.077-0.086,0.08-0.141,0.032
	c-0.111-0.097-0.13-0.104-0.163-0.064c-0.018,0.022-0.036,0.191-0.039,0.376c-0.006,0.35-0.065,0.602-0.147,0.637
	c-0.031,0.013-0.072-0.001-0.125-0.043c-0.076-0.061-0.079-0.06-0.079,0.014c0,0.042,0.023,0.163,0.052,0.269
	s0.05,0.281,0.046,0.388c-0.01,0.301,0.031,0.541,0.119,0.713c-0.002,0.001-0.003,0.003-0.005,0.004
	c-0.065,0.053-0.088,0.117-0.054,0.137c0.005,0.003,0.011,0.005,0.018,0.006c0.022,0.003,0.051,0,0.067-0.007
	c0.001,0,0.003-0.001,0.003-0.001c0.005-0.003,0.011-0.003,0.017-0.002c0.01,0.001,0.02,0.008,0.03,0.017
	c0.023,0.052,0.041,0.101,0.048,0.131c0.008,0.038,0.016,0.079,0.022,0.123c-0.005,0.022-0.013,0.044-0.024,0.066
	c-0.037,0.074-0.111,0.151-0.235,0.247c-0.031,0.024-0.051,0.054-0.045,0.066l0,0l0,0c0.005,0.01,0.102,0.02,0.228,0.025
	c0.025,0.001,0.051,0.002,0.077,0.002c0.01,0,0.019,0,0.029,0c0.009,0.507-0.065,1.073-0.174,1.057
	c-0.006-0.001-0.017-0.015-0.032-0.038c-0.013-0.038-0.026-0.076-0.04-0.114c-0.217-0.631-0.425-1.29-0.552-1.823
	c-0.065-0.273-0.108-0.51-0.141-0.756c-0.034-0.256-0.057-0.527-0.078-0.847c-0.023-0.342-0.044-0.734-0.059-1.092
	c-0.017-0.394-0.027-0.739-0.029-0.982c0-0.006,0-0.011,0-0.018C14.776,7.578,14.921,7.672,15.075,7.77z M7.013,16.548
	c0.085-0.128,0.148-0.272,0.185-0.425c0.057,0.078,0.121,0.15,0.193,0.214c-0.065,0.079-0.131,0.158-0.197,0.235
	C7.133,16.56,7.073,16.552,7.013,16.548z M14.946,12.645c0.064,0.168,0.129,0.336,0.194,0.501c0.004,0.01,0.008,0.019,0.012,0.029
	c-0.096-0.077-0.204-0.143-0.323-0.194c-0.001,0-0.002-0.001-0.004-0.001C14.88,12.875,14.921,12.763,14.946,12.645z M8.685,24.844
	c-0.095,0.081-0.179,0.175-0.25,0.28c-0.121-0.179-0.288-0.33-0.495-0.433c-0.04-0.02-0.08-0.038-0.121-0.053
	c0.001-0.005,0.002-0.011,0.002-0.016c0.004-0.002,0.008-0.003,0.012-0.005c0.088-0.034,0.176-0.068,0.264-0.1
	c0.237,0.041,0.478,0.017,0.699-0.066c-0.033,0.117-0.066,0.235-0.099,0.352C8.694,24.816,8.689,24.83,8.685,24.844z M10.248,19.978
	c-0.015-0.01-0.029-0.02-0.044-0.031c0.021-0.102,0.041-0.204,0.061-0.307c0.186-0.128,0.344-0.303,0.452-0.519
	c0.083-0.164,0.129-0.337,0.142-0.51c0.081,0.007,0.162,0.007,0.242,0c-0.004,0.101-0.032,0.221-0.084,0.34
	c-0.063,0.144-0.072,0.194-0.044,0.236c0.023,0.034,0.05,0.042,0.127,0.027c0.022-0.004,0.047-0.011,0.079-0.019
	c0.02-0.005,0.039-0.009,0.058-0.013c0.004,0.014,0.009,0.028,0.014,0.042c-0.128,0.078-0.246,0.178-0.345,0.302
	c-0.128,0.159-0.212,0.338-0.257,0.523c-0.115-0.026-0.23-0.037-0.344-0.034C10.286,20.003,10.267,19.991,10.248,19.978z
	 M17.208,8.918c0.028,0.01,0.058,0.021,0.086,0.031c-0.018,0.003-0.035,0.004-0.052,0.001c-0.01-0.002-0.02-0.005-0.029-0.01
	c-0.012-0.006-0.024-0.018-0.035-0.033c0.006,0.002,0.012,0.004,0.019,0.007C17.201,8.916,17.204,8.917,17.208,8.918z
	 M10.014,19.777c-0.02,0.098-0.04,0.196-0.061,0.294c-0.158,0.046-0.307,0.119-0.44,0.217C9.474,20.138,9.411,20,9.328,19.875
	C9.563,19.902,9.8,19.866,10.014,19.777z M9.551,22.562c0.071,0.049,0.148,0.092,0.23,0.128c0.005,0.008,0.01,0.016,0.015,0.024
	c0.035,0.055,0.071,0.11,0.106,0.164c-0.011,0.013-0.021,0.026-0.031,0.039c-0.088,0.115-0.154,0.24-0.202,0.369
	c0.017-0.236-0.029-0.472-0.13-0.683C9.543,22.59,9.547,22.576,9.551,22.562z M17.433,8.231c0.005-0.065,0.006-0.13,0.005-0.194
	c0.122,0.07,0.235,0.113,0.34,0.127c0.086,0.011,0.193,0.037,0.238,0.057c0.064,0.029,0.135,0.068,0.21,0.115
	c-0.081,0.048-0.109,0.048-0.157,0.044c-0.096-0.009-0.105-0.002-0.217,0.169c-0.043,0.066-0.074,0.112-0.098,0.143
	c-0.138-0.053-0.27-0.107-0.392-0.159c-0.001-0.001-0.003-0.001-0.004-0.002C17.399,8.436,17.426,8.336,17.433,8.231z M16.506,8.615
	c-0.007,0.004-0.015,0.009-0.021,0.013c-0.033-0.019-0.063-0.043-0.091-0.07C16.432,8.577,16.469,8.596,16.506,8.615z M9.063,24.315
	c0.178-0.116,0.332-0.277,0.442-0.476c0.033-0.06,0.062-0.122,0.085-0.185c-0.025,0.311,0.055,0.625,0.23,0.889
	c-0.011-0.002-0.021-0.004-0.032-0.006c-0.291-0.047-0.576,0.002-0.821,0.123C8.999,24.545,9.031,24.43,9.063,24.315z M16.848,7.679
	c0.021,0.009,0.042,0.018,0.063,0.026c0.075,0.029,0.18,0.088,0.254,0.141c0.003,0.018,0.006,0.036,0.009,0.054
	c0.015,0.104,0.016,0.208,0.008,0.312c-0.006,0.075-0.024,0.147-0.053,0.215c-0.016-0.008-0.032-0.015-0.048-0.023
	c0-0.012-0.001-0.023-0.001-0.034c-0.004-0.081-0.018-0.135-0.038-0.141l0,0l0,0c-0.003-0.001-0.01,0-0.017,0.003
	C17,8.241,16.953,8.27,16.898,8.311c-0.043-0.023-0.086-0.047-0.129-0.071c-0.13-0.073-0.263-0.154-0.407-0.244
	c0.018-0.028,0.039-0.054,0.06-0.079c0.058-0.067,0.132-0.115,0.209-0.158C16.7,7.721,16.773,7.697,16.848,7.679z M7.565,16.471
	c0.146,0.095,0.312,0.164,0.493,0.199c0.609,0.119,1.203-0.178,1.489-0.693c0.004,0.007,0.008,0.014,0.013,0.021
	c-0.002,0.085-0.03,0.202-0.085,0.344c-0.026,0.067-0.043,0.139-0.037,0.158c0.003,0.008,0.042,0.003,0.099-0.009
	c0.029-0.006,0.062-0.014,0.098-0.023c0.016-0.004,0.032-0.009,0.049-0.013c0.005-0.001,0.009-0.003,0.014-0.004
	c0.074-0.02,0.152-0.044,0.217-0.066c0.007,0.005,0.013,0.01,0.019,0.014c-0.083,0.101-0.153,0.215-0.205,0.342
	c-0.053,0.128-0.085,0.26-0.098,0.391c-0.519-0.055-1.041,0.189-1.323,0.653c-0.052-0.443-0.314-0.853-0.738-1.077
	c-0.048-0.025-0.096-0.047-0.145-0.066C7.471,16.584,7.518,16.528,7.565,16.471z M8.994,21.772c0.032,0.119,0.079,0.233,0.141,0.34
	c-0.05-0.037-0.102-0.071-0.158-0.102c-0.071-0.039-0.145-0.071-0.219-0.096C8.841,21.874,8.92,21.826,8.994,21.772z M11.757,22.237
	c-0.026,0.112-0.037,0.223-0.035,0.333c-0.125-0.077-0.258-0.132-0.395-0.166c0.144-0.142,0.259-0.318,0.331-0.521
	c0.023-0.065,0.041-0.13,0.054-0.196c0.098,0.018,0.197,0.023,0.295,0.019C11.89,21.857,11.803,22.037,11.757,22.237z M9.37,12.094
	c-0.143,0.179-0.243,0.395-0.285,0.636c-0.101,0.585,0.175,1.147,0.652,1.439c-0.006,0.02-0.021,0.043-0.046,0.078
	c-0.048,0.067-0.113,0.112-0.208,0.144c-0.024,0.008-0.048,0.017-0.072,0.027c-0.172-0.212-0.406-0.374-0.681-0.457
	c0.037-0.051,0.072-0.105,0.103-0.163c0.316-0.583,0.198-1.285-0.245-1.735c0.088-0.054,0.176-0.107,0.263-0.161
	c0.047-0.029,0.094-0.058,0.141-0.087C9.098,11.926,9.225,12.021,9.37,12.094z M15.281,6.005c0.041-0.026,0.092-0.032,0.134-0.055
	c0.022-0.012,0.039-0.032,0.061-0.044c0.023-0.012,0.049-0.016,0.072-0.026c0.082-0.037,0.066-0.033,0.128-0.101
	c0.019-0.003,0.15-0.026,0.169-0.032c0.046-0.015,0.111-0.056,0.153-0.077c0.086-0.043,0.078-0.037,0.171-0.068
	c0.029-0.014,0.057-0.03,0.087-0.042c0.076-0.029,0.117-0.029,0.195-0.048c0.101-0.025,0.199-0.06,0.301-0.085
	c0.035-0.007,0.073-0.007,0.106-0.021c0.036-0.015,0.06-0.052,0.096-0.065c0.035-0.013,0.075-0.002,0.111-0.009
	c0.009-0.002,0.018-0.004,0.027-0.007c0.004,0.015,0.006,0.028,0.006,0.038v0.001c0,0,0,0,0,0.001c0,0.006-0.001,0.012-0.002,0.017
	c-0.005,0.02-0.022,0.031-0.05,0.044c-0.022,0.01-0.036,0.024-0.043,0.041v0.001c-0.002,0.006-0.004,0.011-0.004,0.018
	c-0.001,0.01,0,0.022,0.003,0.035c0.004,0.022,0.013,0.046,0.027,0.076c0.008,0.018,0.013,0.036,0.016,0.055
	c0.01,0.059-0.006,0.12-0.041,0.151c-0.007,0.006-0.014,0.011-0.022,0.015c-0.068,0.032-0.246-0.041-0.418-0.172
	c-0.01-0.007-0.019-0.014-0.029-0.021c-0.008-0.006-0.016-0.011-0.024-0.016c-0.001-0.001-0.002-0.001-0.003-0.002
	c-0.043-0.028-0.078-0.043-0.096-0.041c-0.004,0-0.007,0.001-0.009,0.003c-0.003,0.002-0.005,0.008-0.007,0.016
	c-0.011,0.038-0.014,0.138-0.007,0.249c0.001,0.021,0.002,0.041,0.003,0.06c0,0.002,0,0.005,0,0.007
	c0.001,0.016,0.001,0.032,0.002,0.047c0,0.003,0,0.006,0,0.009c0,0.015,0.001,0.029,0.001,0.042c0,0.002,0,0.004,0,0.006
	c0.001,0.079-0.002,0.136-0.01,0.177l0,0c-0.008,0.04-0.021,0.063-0.039,0.075c-0.003-0.002-0.007-0.004-0.01-0.006
	c-0.094-0.051-0.191-0.098-0.294-0.128c-0.091-0.027-0.183-0.049-0.277-0.063c-0.09-0.014-0.181-0.025-0.273-0.03
	c-0.083-0.004-0.166-0.005-0.248,0.001C15.256,6.022,15.268,6.014,15.281,6.005z M12.699,11.25c0.04-0.212,0.077-0.424,0.111-0.637
	c0.021-0.052,0.042-0.103,0.062-0.155c0.03-0.078,0.059-0.156,0.088-0.235c0.028-0.077,0.055-0.154,0.081-0.232
	c0.025-0.078,0.051-0.155,0.074-0.234c0.022-0.077,0.044-0.154,0.065-0.231c0.02-0.075,0.04-0.151,0.061-0.226
	c0.02-0.074,0.039-0.147,0.059-0.221c0.019-0.071,0.037-0.142,0.056-0.213c0.018-0.068,0.037-0.137,0.057-0.205
	c0.02-0.069,0.04-0.137,0.06-0.206c0.019-0.066,0.039-0.132,0.06-0.197c0.02-0.062,0.04-0.123,0.062-0.184
	c0.021-0.058,0.044-0.115,0.068-0.172c0.023-0.053,0.046-0.107,0.072-0.159c0.024-0.051,0.049-0.101,0.074-0.152
	c0.025-0.049,0.049-0.097,0.075-0.146c0.025-0.047,0.049-0.095,0.073-0.142c0.013-0.025,0.026-0.05,0.039-0.074
	c0.002,0.083,0.005,0.181,0.011,0.299c0.012,0.249,0.034,0.605,0.063,1c0.027,0.36,0.062,0.759,0.099,1.106
	c0.035,0.327,0.074,0.609,0.125,0.882c0.032,0.172,0.071,0.34,0.117,0.514c0.013,0.061,0.039,0.154,0.074,0.269
	c0.001,0.005,0.002,0.009,0.004,0.013c0.006,0.019,0.012,0.038,0.017,0.057c-0.196-0.164-0.441-0.272-0.715-0.298
	c-0.395-0.037-0.764,0.105-1.029,0.36c-0.03-0.018-0.054-0.032-0.073-0.04c-0.005-0.004-0.01-0.007-0.015-0.011
	C12.683,11.337,12.691,11.293,12.699,11.25z M8.538,11.263c0.042,0.002,0.084,0.004,0.126,0.006
	c0.043,0.133,0.106,0.259,0.186,0.375c-0.038,0.024-0.077,0.047-0.115,0.071c-0.098,0.06-0.197,0.12-0.295,0.18
	c-0.009,0.006-0.019,0.011-0.029,0.017c-0.055-0.04-0.112-0.077-0.173-0.111c-0.049-0.027-0.099-0.05-0.15-0.07
	c0.056-0.147,0.087-0.306,0.088-0.472C8.297,11.258,8.418,11.259,8.538,11.263z M8.329,19.258c-0.041-0.005-0.083-0.008-0.126-0.009
	c0.03-0.016,0.06-0.032,0.09-0.048C8.305,19.221,8.316,19.24,8.329,19.258z"/>
</svg>
