<?xml version="1.0" encoding="utf-8"?>
<!-- Generator: Adobe Illustrator 27.6.1, SVG Export Plug-In . SVG Version: 6.00 Build 0)  -->
<svg version="1.1" id="arabidopsis" xmlns="http://www.w3.org/2000/svg" xmlns:xlink="http://www.w3.org/1999/xlink" x="0px"
	 y="0px" viewBox="0 0 32 32" style="enable-background:new 0 0 32 32;" xml:space="preserve">
<path d="M26.663,24.431c-2.6-1.156-6.7-1.445-9.4-0.674l0.1-0.482c0.1-0.289,0.3-0.674,0-0.964s-0.5,0-0.5,0s0-1.253,0-1.638
	c0-0.193,0-1.253,0-2.409c0.3-0.482,1.1-1.253,1.4-1.445c0.6-0.385,0.9-0.289,1.5-0.385s0.5-0.385,0.3-0.482
	c-0.2-0.193-0.7-0.096-1.1,0c-1.2,0.289-1.6,1.06-2.1,2.023c0-1.349,0.1-1.156,0.1-1.638c0.1-0.385-0.3-1.445,0.1-2.023
	c0.3-0.193,0.6-0.385,0.9-0.482c0.2-0.096,0.7,0.096,0.9-0.193c0.1-0.289,0.1-0.578-0.3-0.578c-0.6,0-1,0.578-1,0.578l-0.4,0.482
	c0-0.867,0-1.638,0-1.831c0-0.385-0.1-0.482-0.2-0.771c0-0.289,0.1-0.964,0.1-1.156s0.3-0.482,0.5-0.578s0.3-0.578,0.3-0.771
	c0-0.096,0.1-0.193,0.1-0.289c0.4-0.193,1.2-0.674,1-0.771c-0.2-0.289-0.7,0.289-0.7,0.289l-0.1,0.096c0-0.096,0-0.096,0-0.193
	V8.052l0.5-0.482c0.1,0,0.6-0.289,0.3-0.482c-0.2-0.193-0.6,0.289-0.6,0.289l-0.4,0.771c-0.1,0-0.2,0.096-0.2,0.096
	s-0.2,0.674-0.2,0.964c0,0.289-0.7,0.771-0.7,0.771s-0.1-0.964-0.2-1.349c0-0.482,0.4-1.349,0.4-1.349s0-0.867,0.1-1.349
	s0-0.578,0.3-0.385c0.2,0.193,0.5-0.193,0.5-0.385c0.2,0,0.5-0.193,0.4-0.482c0,0-0.9,0.096-0.8,0.385c-0.2,0-0.5,0-0.5,0V4.969
	c0.1-0.385,0.2-0.867,0.2-1.06c0-0.289-0.1-0.482-0.1-0.771c0.2-0.289,0.6-0.867,0.2-0.867l-0.3,0.674
	c-0.1-0.096-0.1-0.385-0.2-0.674c0.3-0.193-0.1-0.771-0.1-0.771s-0.4,1.06,0,0.867l0,0l0.2,1.542V4.68l-0.1-0.385
	c0,0-0.2-0.482-0.3-0.385c-0.1,0.096,0.3,0.964,0.3,0.964s-0.5-0.193-0.6,0s0.6,0.289,0.6,0.289s0,1.542,0,1.734
	c0,0.193-0.2,1.156-0.3,1.445c-0.1,0.193,0.3,2.312,0.3,2.505s0.1,0.674-0.3,0.578s0-1.156,0-1.156s-0.3-0.867-0.4-1.06
	c-0.1-0.289-0.3-0.674-0.6-0.964c-0.1-0.096-0.2-0.193-0.2-0.385c0,0.096-0.1,0.096-0.1,0.096c-0.1,0-0.3-0.193-0.5-0.289
	c-0.1-0.289-0.4-0.867-0.7-0.674c-0.4,0.193,0.3,0.674,0.3,0.674l0.5,0.096c0,0,0,0.096,0.1,0.096c0,0.096,0.5,0.385,0.7,0.674
	c0.2,0.193,0.3,0.964,0.5,1.349c0.2,0.289,0.3,0.867,0.2,1.253c-0.1,0.482,0.5,0.674,0.5,1.06c0,0.193-0.1,2.505-0.2,5.781
	c-0.2-0.482-0.6-1.156-1.2-1.156c-0.8,0-1.5,0.578-1.2,0.867s0.4-0.289,1.1-0.289c0.6,0,1.1,0.674,1.3,0.964l-0.1,3.758
	c0,0-0.6-0.096-0.7,0c-0.1,0.096-0.2,0.674,0,1.349c0,0.193,0.1,0.385,0.1,0.482c-0.1,0-0.1,0-0.2,0c0,0-2.5-1.349-5.7-1.06
	c-3.4,0.289-5.4,1.253-5.5,2.312c-0.2,1.253,2.9-0.193,3.8-0.385c2.7-0.771,4.1-0.964,5.7-0.964c2,0.096,1.8,0.385,2,0.578
	c0,0-2,0.289-3.6,1.349c-0.9,0.578-2.2,1.06-2.7,2.794c-0.4,1.445,1.8,3.083,3.2,0.771c2-3.276,1.2-3.372,3.2-4.721
	c0.8-0.578-0.5,1.927-0.5,1.927s-0.7,1.542,0.2,2.216c1.3,1.06,2.6,0.385,2.8-0.385c0.3-0.964-0.5-2.312-0.6-2.601
	s-0.7-1.06-0.6-1.349c0.1-0.193,0.1-0.385,0.4-0.482c0.5-0.096,2.8-0.482,7.3,1.734C27.763,27.129,27.963,24.913,26.663,24.431z
	 M15.263,7.088c0-0.193,0-0.674-0.5-0.674c0,0,0.4,0.674,0.4,0.771l0,0c0,0.193,0,0.385,0.1,0.578
	C15.463,7.666,15.363,7.281,15.263,7.088z M14.463,7.088c0,0,0.2-0.867,0-0.867s-0.4,0.193-0.4,0.193l-0.3-0.193
	c0,0-0.6,0.096-0.2,0.482c0.1,0.096-0.5,0.193-0.3,0.289s0.3,0.385,0.3,0.385s-0.4,0.193-0.2,0.289s1-0.096,1-0.096L14.463,7.088z
	 M16.363,4.872c0,0-0.2-0.674-0.4-0.771c-0.2-0.096-0.3,0.289-0.3,0.289s-0.5,0-0.5,0.096s0.3,0.193,0.3,0.193s-0.4,0-0.4,0.193
	s0.5,0.193,0.5,0.193s-0.1,0.289,0,0.289s0.7,0,0.7,0l0.2-0.289C16.563,4.969,16.363,4.872,16.363,4.872z M17.163,2.753
	c0,0,0.8,0.289,1,0s-0.2-0.385-0.2-0.385s0.3-0.193,0.2-0.385s-0.3,0-0.3,0s0.1-0.385-0.1-0.289s-0.3,0.385-0.3,0.385
	s-0.5,0.096-0.4,0.193C17.163,2.367,16.963,2.656,17.163,2.753z M18.763,6.221c0,0-0.2,0.578-0.3,0.771
	c-0.1,0.193,0.1,0.482,0.1,0.482s0.9,0.096,1,0s0-0.385,0-0.385s0.5-0.289,0.4-0.482s-0.5-0.193-0.5-0.193s0.4-0.385,0.2-0.482
	s-0.5,0.482-0.5,0.482S18.863,6.028,18.763,6.221z"/>
</svg>
