<?xml version="1.0" encoding="utf-8"?>
<!-- Generator: Adobe Illustrator 25.4.1, SVG Export Plug-In . SVG Version: 6.00 Build 0)  -->
<svg version="1.1" id="brassica_x5F_napus" xmlns="http://www.w3.org/2000/svg" xmlns:xlink="http://www.w3.org/1999/xlink" x="0px"
	 y="0px" viewBox="0 0 32 32" style="enable-background:new 0 0 32 32;" xml:space="preserve">
<path d="M16.7,30.3c-1.1,0.5-1-0.1-1.1-1.2c0-0.1,0-1.1,0-1.2c0-0.6,0-1.1,0.1-1.7c0-0.1,0-0.3,0-0.4c0-0.1,0-0.1-0.1-0.1
	c-0.1-0.1-0.2-0.2-0.4-0.3c-0.1-0.1-0.2-0.2-0.2-0.3c-0.1-0.4-0.4-0.6-0.6-0.9c0,0-0.1,0-0.1-0.1c0,0-0.1,0-0.1,0c0,0-0.1,0-0.1-0.1
	c-0.1-0.1-0.1-0.2-0.3-0.2c-0.1,0-0.1,0-0.1-0.1c-0.1-0.1-0.1-0.1-0.2-0.1c0,0-0.1,0-0.1,0c-0.1,0-0.1-0.1-0.2,0
	c-0.1,0-0.1,0-0.2-0.1c0,0,0-0.1-0.1-0.1c0-0.1-0.1-0.1-0.1,0c-0.1,0.1-0.3,0.1-0.5,0.1c-0.1,0-0.2,0-0.3,0c-0.2,0-0.3,0-0.4-0.1
	c-0.1-0.1-0.1-0.1-0.1-0.2c-0.1-0.1-0.2-0.2-0.3-0.3c-0.1,0-0.2,0-0.2,0.1c-0.2,0.2-0.4,0.3-0.6,0.4c-0.1,0-0.1,0.1-0.2,0.2
	c0,0,0,0.1-0.1,0.1c-0.1,0.1-0.2,0.1-0.3,0.1c-0.1,0-0.1,0-0.2,0c-0.2-0.1-0.4-0.1-0.5-0.2c-0.2,0-0.3-0.1-0.4-0.3c0,0,0,0,0-0.1
	c0,0-0.1-0.1-0.1,0c-0.1,0.1-0.2,0.1-0.3,0.2c-0.1,0-0.2,0.1-0.2,0.1c-0.2,0-0.3,0-0.5,0c-0.1,0-0.2,0-0.3-0.1
	c-0.3-0.1-0.5-0.3-0.8-0.3c-0.1,0-0.2,0-0.3,0.1c-0.1,0-0.1,0-0.1,0.1c-0.1,0.1-0.3,0.1-0.4,0c-0.1,0-0.3,0-0.4,0
	c-0.2,0-0.4,0-0.6,0c-0.1,0-0.1,0-0.2,0c-0.2,0-0.4-0.1-0.4-0.3c-0.1-0.1-0.1-0.2-0.2-0.3c0-0.1,0-0.1,0-0.2c0,0,0,0,0,0
	c0.2-0.1,0.3-0.2,0.4-0.4c0-0.1,0.1-0.2,0.2-0.2c0.1-0.1,0.2-0.1,0.3-0.2c0.2-0.1,0.4-0.2,0.6-0.1c0.1,0,0.3,0,0.4,0
	c0.1,0,0.3,0,0.4-0.1c0.2-0.1,0.4-0.2,0.6-0.2C6.7,21,6.8,21,7,20.9c0.1-0.1,0.2-0.1,0.3-0.1c0.1,0,0.3,0,0.4-0.1
	c0.1,0,0.2-0.1,0.3-0.2c0.1-0.1,0.2-0.1,0.3-0.1c0.1,0,0.1,0,0.2,0c0.1,0,0.1,0,0.1-0.1c0-0.1,0.1-0.1,0.1-0.1c0,0,0.1,0,0.1,0
	c0.2,0,0.4,0,0.5,0c0.1,0,0.1,0,0.2,0c0.1,0,0.1,0,0.2,0c0.1,0,0.2,0,0.3-0.1c0,0,0.1-0.1,0.1-0.1c0.1,0,0.2-0.1,0.3-0.1
	c0.1,0,0.1,0,0.1,0.1c0,0,0,0.1,0,0.1c0,0.1,0,0.2,0.1,0.3c0,0.1,0.1,0.2,0.2,0.3c0.1,0,0.1,0.1,0.2,0.2c0.2,0.1,0.3,0.3,0.4,0.5
	c0.1,0.2,0.3,0.4,0.5,0.5c0.4,0.2,0.9,0.4,1.3,0.6c0.1,0.1,0.2,0.1,0.4,0.2c0.2,0.2,0.5,0.4,0.7,0.6c0.1,0.1,0.2,0.2,0.4,0.2
	c0.1,0,0.2,0.1,0.3,0.2c0.1,0,0.2,0.1,0.3,0.1c0.1,0,0.1,0.1,0.2,0.2c0,0.1,0.1,0.2,0.1,0.3c0,0.1,0,0.1,0.1,0.2c0,0,0-0.1,0-0.1
	c0-0.1,0-0.3,0-0.4c0-0.6,0-1.1,0.1-1.7c0.1-0.9,0.1-1.8,0.1-2.7c0-0.4,0-0.9,0-1.3c0-0.1,0-0.1-0.1-0.2c-0.5-0.2-1-0.4-1.6-0.6
	c-0.7-0.2-1.4-0.4-2.1-0.6c-0.1,0-0.1,0-0.2,0c0,0-0.1,0-0.1-0.1c0-0.1-0.1-0.1-0.2-0.1c-0.1,0-0.3,0-0.4-0.1
	c-0.1,0-0.2-0.1-0.2-0.2c0-0.1,0-0.1,0-0.2c0-0.1-0.1-0.2,0-0.3c0.1-0.1,0.1-0.2,0.2-0.3c0.1,0,0.1-0.1,0.2-0.1
	c0.3-0.1,0.6-0.2,0.8-0.4c0.1-0.1,0.2-0.1,0.3-0.2c0.1-0.1,0.1-0.2,0.2-0.2c0,0,0,0,0,0c0-0.1,0-0.1,0-0.2c0-0.1,0.1-0.2,0.1-0.2
	c0-0.1,0.1-0.1,0.1-0.2c0,0,0-0.1,0.1-0.1c0,0,0-0.1,0.1-0.1c0.1,0,0.1,0,0.1,0c0,0.1,0.1,0.1,0.2,0.1c0,0,0,0,0,0
	c0.1-0.1,0.3-0.1,0.4-0.1c0,0,0.1,0,0.1-0.1c0,0,0.1-0.1,0.1-0.1c0.1-0.2,0.3-0.3,0.5-0.4c0.1,0,0.2,0,0.3,0c0.1,0,0.2,0,0.3,0
	c0.1,0,0.2,0,0.3,0c0.1,0,0.1,0.1,0.2,0.1c0,0,0,0.1,0,0.1c0,0.1,0,0.1,0.2,0.2c0-0.1,0-0.1,0-0.2c0-0.2,0-0.4,0-0.5
	C16,13,16,13,16,13c-0.1-0.1-0.2-0.2-0.3-0.3c-0.2-0.3-0.4-0.5-0.5-0.8c-0.1-0.1-0.1-0.2-0.2-0.3c-0.1-0.1-0.2-0.2-0.3-0.3
	c-0.1-0.1-0.1-0.1-0.2,0c-0.1,0.1-0.3,0.1-0.5,0.1c0,0-0.1,0-0.1,0c0,0,0,0,0,0c0,0.2-0.2,0.3-0.4,0.3c-0.1,0-0.1,0-0.2,0
	C13,11.6,13,11.5,13,11.4c-0.1,0-0.1,0-0.2,0c0,0-0.1,0-0.1,0c-0.1,0.2-0.3,0.2-0.5,0.2c-0.3,0-0.6,0-0.8-0.1
	c-0.2,0-0.2-0.1-0.1-0.3c0.1-0.1,0.3-0.2,0.4-0.2c0.1,0,0.2,0,0.2,0c0-0.1,0-0.2,0.1-0.3c-0.1-0.1-0.1-0.2-0.2-0.3c0,0,0,0-0.1,0
	c-0.1,0-0.3,0-0.4,0.1c-0.1,0-0.1,0-0.1,0.1c0,0.1,0,0.1,0,0.2c0,0.1,0,0.2,0,0.4c-0.1,0.2-0.1,0.3-0.2,0.5
	c-0.1,0.1-0.2,0.2-0.3,0.3c-0.1,0-0.1,0-0.2,0c0-0.1,0-0.1,0-0.2c0.3-0.2,0.4-0.5,0.4-0.9c0-0.1,0-0.1,0-0.2c-0.1,0-0.3,0.1-0.3,0.1
	c0,0,0,0,0,0c0,0.1,0,0.2,0,0.3c0.1,0.1,0,0.3-0.1,0.4c-0.1,0-0.2,0.1-0.2,0.2c0,0.1,0,0.3,0,0.4c0,0.2-0.1,0.3-0.3,0.3
	c-0.2,0-0.3,0-0.5-0.2c-0.1-0.1-0.1-0.2-0.1-0.3c0-0.3,0-0.5,0.2-0.7c0.1-0.1,0.1-0.1,0.1-0.2c0-0.1,0-0.2,0-0.3
	c0-0.1,0-0.1-0.1-0.2c0,0,0,0-0.1,0c-0.1,0-0.1-0.1,0-0.1c0.1,0,0.1-0.1,0.2-0.1c0,0,0.1,0,0.1,0c0,0-0.1,0-0.1,0
	c-0.1,0-0.2,0-0.2,0c-0.1,0-0.1,0-0.1-0.1c0-0.1,0.1-0.1,0.1-0.2c0.1-0.1,0.1,0,0.2,0c0,0,0,0,0,0c0-0.1,0-0.2,0-0.4
	C9.8,9.7,9.7,9.5,9.6,9.4c0,0,0,0,0,0c-0.1,0-0.2-0.1-0.2-0.1c0,0-0.1,0-0.1,0.1c-0.1,0-0.1,0.1-0.2,0.1c0,0-0.1,0.1-0.2,0
	c0-0.1,0.1-0.2,0.2-0.3c0,0,0-0.1-0.1-0.1C8.9,9,9,8.9,9.1,8.9c0.1,0,0.2-0.1,0.3-0.1c0.1,0,0.2,0,0.2-0.1c0,0,0,0,0.1,0
	c0-0.1,0-0.2,0-0.3c0-0.1,0-0.2-0.1-0.3C9.5,8,9.4,8,9.4,7.9c-0.1-0.1-0.1-0.2,0-0.3c0,0,0.1-0.1,0.1-0.1c0.1-0.1,0.2-0.2,0.4-0.1
	c0.1,0,0.3,0.1,0.4,0.1c0,0,0.1,0,0.2,0c0-0.1,0-0.1-0.1-0.1c-0.1-0.2-0.2-0.3-0.2-0.5C10,6.7,10,6.4,10,6.2c0-0.1,0-0.1,0.1-0.2
	c0.1-0.1,0.2-0.1,0.3,0c0,0,0,0.1,0.1,0.1c0,0.1,0.1,0.2,0.1,0.3c0.1,0.3,0.2,0.5,0.3,0.7c0,0,0,0,0,0c0.3,0.3,0.5,0.6,0.5,1
	c0,0.1,0,0.1,0.1,0.1c0,0,0,0,0,0c0-0.4,0.2-0.7,0.5-1c0.1-0.1,0.2-0.1,0.3-0.1c0.1,0,0.3,0,0.4-0.1c0,0,0.1,0,0.2,0
	c0.2,0,0.4-0.1,0.5-0.2c0.1-0.1,0.1-0.1,0.2-0.2c0,0,0-0.1,0-0.1c-0.1,0-0.1,0-0.2-0.2c0,0,0,0,0-0.1c0-0.1-0.1-0.2-0.1-0.3
	c-0.1,0-0.1,0-0.2-0.1c0,0,0-0.1,0-0.1c0-0.1,0.2-0.2,0.3-0.1c0.1,0,0.2,0,0.2,0c0.1-0.1,0.2-0.1,0.3-0.1c0.1,0,0.2,0,0.2-0.2
	c0-0.1,0-0.1,0-0.2c-0.1,0-0.1,0-0.2,0c-0.1,0-0.1,0-0.2,0c0,0.1,0,0.2,0,0.3c0,0,0,0-0.1,0c0,0-0.1,0-0.1,0c-0.2,0-0.4,0.1-0.6,0.2
	c-0.1,0.1-0.2,0-0.4,0c-0.1,0-0.1-0.1-0.1-0.2c0-0.1,0-0.2-0.1-0.2c0,0-0.1-0.1-0.1-0.1c-0.1-0.1-0.2-0.1-0.3-0.1
	c-0.1,0-0.1,0.1-0.2,0.1c0,0-0.1,0-0.1,0c0,0,0-0.1,0-0.1c0-0.1,0.1-0.1,0.2-0.2c0,0,0.1,0,0.1,0c0,0,0-0.1,0-0.1
	c0-0.1,0-0.1-0.1-0.1c-0.1-0.1-0.2-0.2-0.3-0.3c-0.2-0.2-0.1-0.5,0.1-0.6c0.2-0.1,0.4-0.2,0.7-0.2c0.1,0,0.2,0,0.4,0
	c0.1,0,0.2,0.1,0.3,0.1c0,0,0.1,0,0.1,0c0,0,0-0.1,0-0.1c0-0.3,0.1-0.5,0.3-0.8c0.1-0.1,0.2-0.2,0.3-0.4c0.1-0.2,0.3-0.2,0.5-0.1
	c0.1,0.1,0.2,0.2,0.3,0.4c0.2,0,0.4,0,0.7,0.1c0-0.1,0-0.1,0.1-0.2c0,0-0.1,0-0.1,0c-0.1,0-0.1,0-0.2,0c-0.3,0.1-0.6-0.1-0.7-0.5
	c0,0,0,0,0-0.1C14,2,14.1,2,14.2,1.9c0.2,0,0.4,0,0.5,0.1c0.1,0,0.2,0,0.3,0.1c0.2,0,0.3,0.1,0.5,0.1c0.1,0,0.1,0,0.1-0.1
	c0,0,0-0.1,0.1-0.1c-0.1,0-0.2,0-0.3-0.1c0,0,0,0,0.1,0c0,0,0.1-0.1,0.1-0.1c0,0,0-0.1,0-0.1c0-0.1,0.1-0.1,0.1-0.1
	c0,0,0.1,0,0.1,0.1c0,0,0.1,0,0.1,0c0.2,0,0.2,0,0.3-0.2c0,0,0.1,0.1,0.1,0.1c0.1,0.1,0.1,0.1,0,0.2c0,0,0,0-0.1,0c0,0,0,0,0,0
	c0.1,0.1,0.1,0,0.2,0c0.1,0,0.1-0.1,0.2,0c0,0,0.1,0,0.1,0c0.1,0,0.2,0,0.2-0.1c0.1,0,0.1,0,0.2,0.1c0.1,0,0.1,0,0.2-0.1
	c0.1-0.1,0.3-0.1,0.4-0.1c0.1,0,0.1,0,0.2,0.1C18,1.8,18,1.9,17.9,2C18,2.2,18,2.4,18.1,2.6c0,0,0.1-0.1,0.1-0.1
	c0.1-0.1,0.2-0.1,0.3,0c0,0,0,0,0,0c0.1-0.1,0.2-0.2,0.2-0.3c0-0.1,0-0.2,0-0.2c0-0.1,0.1-0.2,0.2-0.3c0.1,0,0.1-0.1,0.2-0.1
	c0.1,0,0.1,0,0.2,0.1c0.1,0.1,0.2,0.2,0.2,0.3c0,0.1,0,0.1,0,0.2c0,0,0,0.1,0,0.1c0,0,0,0,0-0.1c0.1-0.2,0.2-0.3,0.4-0.3
	c0,0,0.1,0,0.1,0c0.2,0,0.2,0,0.3,0.2c0,0.2,0,0.4,0,0.7c0,0.1-0.1,0.3-0.2,0.3c0,0,0,0.1-0.1,0.1c0.1,0,0.1,0,0.2,0
	c0.2,0,0.3,0.1,0.4,0.2c0.1,0.1,0.2,0.2,0.3,0.2C20.9,3.7,21,3.8,21,3.9C21,4,21,4,21.2,4c0,0,0-0.1,0-0.1c0-0.2,0-0.4,0-0.7
	c0,0,0-0.1,0-0.1c0.1,0,0.1,0,0.1,0.1c0,0,0,0.1,0,0.1c0,0.2,0.1,0.3,0.1,0.5c0.1,0.2,0.1,0.4,0.1,0.6c-0.1,0-0.1-0.1-0.2-0.1
	c0,0-0.1,0-0.1,0c-0.1,0.1-0.1,0.1-0.2,0.2C21.1,4.6,21,4.7,21,4.7c0.1,0,0.3,0,0.4,0c0.1-0.1,0.1-0.2,0.1-0.3c0,0,0,0,0,0
	c0.3-0.2,0.5-0.1,0.8-0.1c0.2,0,0.3,0.1,0.3,0.3c0,0.1,0.1,0.2,0.1,0.2C23,5.2,23,5.5,22.7,5.7c0,0,0,0,0,0c0.1,0.1-0.1,0.1-0.1,0.2
	c0.2,0.1,0.5,0.2,0.7,0.3c0.1-0.1,0.1-0.2,0.2-0.3c0-0.1,0.1-0.2,0.1-0.3c0.1-0.1,0.1-0.2,0.3-0.3c0.1-0.1,0.3-0.1,0.4,0
	c0.1,0.1,0.2,0.1,0.2,0.2c0,0.1,0.1,0.1,0.1,0.2c0,0.1,0,0.3,0.1,0.4c0,0.1,0,0.3-0.1,0.3c-0.1,0.1-0.2,0.2-0.4,0.4
	c0,0-0.1,0.1-0.1,0.1c0,0,0,0.1,0,0.1c0,0.1,0,0.1-0.1,0.2c0.1,0,0.1,0,0.1,0c0.1-0.1,0.3-0.2,0.4-0.3C24.6,7.1,24.7,7,24.7,7
	c0.1-0.1,0.2,0,0.2,0.1c0,0.1,0,0.2-0.1,0.3c-0.1,0.1-0.1,0.1-0.2,0.2c0,0.1-0.1,0.1,0,0.2c0,0,0,0.1,0,0.1
	c-0.1,0.1-0.2,0.2-0.4,0.3c-0.2,0.1-0.3,0.1-0.5,0.1c-0.2,0-0.3,0-0.5,0c0,0,0,0.1,0.1,0.1c0.1,0.1,0.1,0.1,0.2,0.2
	c0,0.1,0.1,0.1,0.1,0.2c0,0.2,0.1,0.4,0.1,0.6c0,0.2-0.1,0.4-0.3,0.5c-0.1,0-0.2,0-0.3,0c-0.2-0.1-0.5-0.2-0.7-0.3
	c-0.1-0.1-0.2-0.2-0.3-0.3c-0.1-0.2-0.3-0.2-0.4-0.3c-0.1,0-0.1-0.1-0.2-0.1c0,0-0.1-0.1-0.1-0.1c-0.4,0.2-0.7,0.4-1,0.7
	c0.1,0,0.1,0,0.1,0c0.2,0,0.4,0,0.6,0.1c0.1,0.1,0.3,0.2,0.4,0.3c0.1,0.1,0.1,0.2,0.1,0.3c0,0.1,0,0.2,0,0.3c0,0.1,0,0.2-0.1,0.3
	c-0.2,0.3-0.5,0.4-0.9,0.5c-0.2,0-0.4-0.1-0.5-0.2c-0.1,0-0.1-0.1-0.2-0.1c0,0,0,0.1,0,0.1c0,0.3,0,0.5-0.2,0.8
	c-0.1,0.2-0.3,0.4-0.6,0.5c-0.2,0.1-0.5,0-0.6-0.2c-0.1-0.1-0.1-0.3,0-0.4c0-0.1,0-0.2,0-0.3c0-0.2,0-0.4,0.1-0.6c0,0,0,0,0,0
	c-0.1,0-0.1,0-0.2,0.1c0,0,0,0.1,0,0.1c0.1,0.2,0,0.2-0.2,0.3c-0.1,0.1-0.3,0.1-0.4,0.1c-0.1,0-0.1,0-0.2,0c0.1,0.1,0.1,0.1,0.2,0.1
	c0.1,0,0.1,0,0.2,0.1c0,0,0.1,0.1,0.1,0.1c0,0,0,0.1,0,0.1c-0.1,0-0.2,0.1-0.3,0.3c-0.1,0.1-0.2,0.2-0.3,0.2c0,0-0.1,0-0.1,0
	c-0.1,0-0.2,0-0.3-0.1c0,0,0,0-0.1,0c0,0,0,0.1,0,0.1c0,0.2,0,0.5,0,0.7c0,0,0,0,0,0.1c0.1,0,0.1,0,0.2,0c0,0,0.1-0.1,0.1-0.1
	c0.1,0,0.1,0,0.1,0.1c0,0.1,0,0.1,0.1,0.1c0,0,0.1,0,0.1,0.1c0.1,0.1,0.2,0.2,0.2,0.3c0,0.2,0,0.3-0.1,0.5c0,0.1,0,0.2,0,0.2
	c0,0,0,0.1,0.1,0.1c-0.1,0-0.1,0-0.2,0c-0.1,0-0.1-0.1-0.2-0.1c-0.1,0-0.1,0-0.2,0c-0.1,0-0.2,0-0.3,0.1c0,0,0,0,0,0.1
	c0,0.7,0,1.3,0,2c0,0.8,0,1.6,0,2.4c0,0.1,0,0.3,0,0.4c0.1-0.1,0.2-0.1,0.2-0.1c0.1,0,0.2-0.1,0.3-0.2c0.2-0.2,0.5-0.2,0.8-0.2
	c0,0,0.1,0,0.1,0c0.1,0,0.2,0,0.2-0.1c0.1-0.2,0.2-0.2,0.3-0.2c0.2,0,0.4-0.1,0.5-0.1c0.1,0,0.2-0.1,0.3-0.2c0,0,0.1-0.1,0.1-0.1
	c0,0,0,0,0.1,0c0.3,0,0.5-0.2,0.6-0.4c0.1-0.1,0.3-0.2,0.4-0.1c0.2,0,0.4,0,0.5,0.1c0,0,0.1,0,0.1,0c0.1,0,0.3-0.1,0.4,0
	c0,0,0.1,0,0.1,0c0,0,0.1-0.1,0.1-0.2c0-0.1,0.1-0.1,0.2-0.1c0.1,0,0.1,0,0.2,0c0.1,0,0.1,0,0.1-0.1c0-0.2,0.2-0.3,0.4-0.4
	c0,0,0.1,0,0.2,0c0.1,0,0.1,0,0.2-0.1c0-0.1,0.1-0.1,0.2-0.1c0.1,0.1,0.3,0.1,0.5,0.1c0,0,0.1,0,0.1,0c0.1,0.1,0.2,0.1,0.3,0.1
	c0,0.1,0.2,0.3,0.3,0.2c0.1,0,0.3,0,0.4,0c0.1,0,0.1,0,0.2,0.1c0,0.1,0,0.1,0.1,0.1c0.1,0,0.2,0.1,0.4,0.1c0.1,0,0.2,0,0.3-0.1
	c0.1-0.1,0.2-0.1,0.4,0c0.1,0,0.1,0.1,0.2,0.1c0.1,0,0.3,0,0.4,0c0.1,0,0.2,0,0.4,0c0.1,0,0.2,0,0.2,0c0.1,0,0.1,0,0.2,0.1
	c0.1,0.1,0.1,0.2,0.1,0.4c0,0.1,0,0.1,0.1,0.2c0.1,0.1,0.2,0.2,0.3,0.2c0,0,0,0,0,0c-0.2,0-0.4,0-0.5,0c-0.1,0-0.2,0-0.2-0.1
	c-0.3-0.2-0.7-0.2-1.1-0.3c-0.2,0-0.3,0-0.5,0c0,0-0.1,0-0.1,0c-0.1,0-0.3,0-0.4,0c-0.1,0-0.2-0.1-0.3-0.1c-0.1,0-0.1,0-0.2,0
	c-0.3,0-0.6,0-0.9,0.1c-0.1,0.1-0.3,0.2-0.5,0.2c-0.1,0-0.1,0.1-0.2,0.1c-0.1,0-0.1,0.1-0.2,0.1c-0.1,0.1-0.3,0.1-0.4,0
	c-0.1,0-0.2-0.1-0.3-0.1c-0.1,0-0.1,0-0.2,0.1c0,0,0,0.1-0.1,0.1c-0.1,0.1-0.2,0.2-0.4,0.1c-0.2-0.1-0.4,0-0.5,0.2
	c-0.1,0.1-0.2,0.1-0.4,0.1c-0.1,0-0.2,0-0.2,0c-0.1,0-0.2,0-0.2,0.2c0,0.1,0,0.1,0,0.2c0,0.2-0.1,0.2-0.3,0.2c-0.1,0-0.1,0-0.2,0
	c-0.1,0-0.2,0-0.3,0.2c-0.1,0.1-0.2,0.3-0.3,0.4c-0.1,0.1-0.1,0.2-0.2,0.3c-0.1,0.1-0.1,0.1-0.2,0.2c-0.1,0-0.2,0.1-0.3,0.2
	c-0.1,0.1-0.1,0.1-0.2,0.1c-0.1,0-0.1,0-0.2,0c-0.1,0-0.3,0-0.4,0c-0.1,0-0.2,0-0.3,0c-0.1,0-0.2,0.1-0.3,0.1c-0.1,0-0.2,0.1-0.3,0
	c0,0-0.1,0-0.1,0c0,0.1,0,0.1,0,0.1c0,0.2,0,0.4,0,0.6c0,0.5,0,1-0.1,1.5c0,0.4-0.1,0.7-0.1,1.1c0,0.4-0.1,0.8-0.1,1.2
	c0,0.1,0,0.1,0,0.2c0,0.1,0,0.1,0,0.2c0,0.1,0.1,0.2,0.1,0.3c0.1-0.1,0.1-0.1,0.1-0.2c0-0.2,0-0.5,0.1-0.7c0-0.1,0-0.1,0.1-0.2
	c0-0.3,0.1-0.5,0.2-0.7c0-0.1,0.1-0.2,0-0.3c0,0,0-0.1,0-0.1c0.1-0.1,0.1-0.3,0-0.5c0-0.1,0-0.1,0-0.2c0-0.1,0-0.2,0.1-0.2
	c0,0,0,0,0.1,0c0.1,0,0.2-0.1,0.2-0.2c0,0,0,0,0,0c0-0.2,0.1-0.3,0.2-0.4c0.1-0.1,0.2-0.1,0.3-0.2c0.1-0.1,0.1,0,0.2,0
	c0,0,0,0,0.1,0.1c0.1,0.1,0.1,0,0.1,0c0,0,0-0.1,0-0.1c0-0.1,0.1-0.1,0.1-0.1c0.1,0,0.2,0,0.2-0.1c0.1,0,0.2,0,0.2,0
	c0.1,0.1,0.2,0.1,0.2,0.2c0.1,0.1,0.1,0.1,0,0.2c0,0.1-0.1,0.2-0.1,0.3c-0.2,0.1-0.4,0.3-0.7,0.5c-0.1,0.1-0.2,0.2-0.2,0.4
	c0,0.1-0.1,0.1-0.2,0.1c-0.1,0-0.2,0.1-0.3,0.1c-0.1,0.1,0,0.2,0,0.3c0.1,0.1,0.1,0.2,0.1,0.3c0,0.1,0,0.1-0.1,0.2
	c-0.1,0-0.2,0.1-0.3,0.1c-0.1,0-0.1,0.1-0.1,0.1c-0.1,0.3-0.2,0.6-0.3,0.9c-0.1,0.3-0.2,0.7-0.3,1c-0.1,0.4-0.2,0.7-0.3,1.1
	c0,0,0,0.1,0,0.1c0,0.9,0,1.8,0,2.8L16.7,30.3z M15.6,5.3C15.6,5.3,15.6,5.3,15.6,5.3c-0.2,0-0.3,0.1-0.3,0.2c0,0,0,0,0,0
	c0.1,0.1,0.1,0.1,0.1,0.2c0,0,0,0,0.1,0c0,0,0,0,0,0c0-0.1,0-0.2-0.1-0.3C15.5,5.4,15.6,5.4,15.6,5.3c0,0,0.1-0.1,0.1-0.1
	c0,0,0.1,0,0.1,0.1c0-0.1,0-0.1,0-0.2c0,0-0.1-0.1-0.1,0C15.6,5.2,15.6,5.2,15.6,5.3z M15.9,17.6c0-1.1,0.1-2.1,0.1-3.1
	c-0.1,0-0.1,0-0.1,0c-0.1,0-0.1,0-0.2-0.1c0-0.1-0.1-0.3-0.1-0.4c-0.1-0.2-0.1-0.2-0.3-0.2c0,0,0,0.1,0,0.1c0,0.1,0,0.2-0.1,0.3
	c-0.1,0.1-0.1,0.2-0.1,0.4c0,0.1-0.1,0.2-0.2,0.2c-0.1,0-0.1,0-0.2,0.1c-0.1,0.1-0.2,0.1-0.3,0c-0.1-0.1-0.2,0-0.3,0
	C14,15,13.9,15,13.9,15.1c-0.2,0.1-0.4,0.3-0.6,0.5c0,0,0,0.1-0.1,0.1c-0.1,0.2-0.3,0.4-0.4,0.5c0,0-0.1,0.1-0.1,0.2
	c0,0.1-0.1,0.1-0.1,0.2c0.1,0,0.1,0,0.1,0c0.2,0.1,0.4,0.1,0.6,0.2c0.1,0,0.3,0.1,0.4,0.2c0.4,0.1,0.9,0.2,1.3,0.3
	c0.3,0.1,0.5,0.1,0.7,0.3C15.8,17.6,15.8,17.6,15.9,17.6z M15.3,7.8c0-0.1,0-0.1,0.1-0.1c0-0.1,0.1-0.1,0.1-0.2
	c0.1-0.1,0.2,0,0.2,0.1c0,0,0,0.1,0,0.2c0,0.1,0,0.1,0.1,0.1C16,7.9,16.1,8,16.1,8c0.1,0.1,0.1,0.2,0.1,0.3c0,0,0,0.1,0.1,0.1
	c0.1-0.1,0.2-0.2,0.3-0.3c0-0.1,0-0.1,0-0.2c0,0-0.1-0.1-0.1-0.1c-0.2-0.1-0.2-0.3-0.1-0.5c0,0,0,0,0,0c0,0,0,0-0.1,0
	c-0.2-0.1-0.3-0.2-0.5-0.3c0,0-0.1,0.1-0.1,0.1c0,0,0,0.1-0.1,0.1C15.7,7.1,15.6,7,15.6,7c-0.1,0.1-0.3,0.2-0.4,0.2
	c-0.1,0-0.2,0-0.4,0c-0.1,0-0.1,0-0.2,0.1c-0.1,0.1-0.1,0.2-0.2,0.2c0,0-0.1,0.1-0.1,0.1c0.1,0,0.2,0.1,0.2,0.1
	c0.1,0.1,0.2,0.2,0.2,0.3c0,0.2,0,0.4,0,0.6c0,0,0.1-0.1,0.1-0.1C15,8.4,15,8.3,15,8.1c0-0.1,0-0.2,0-0.2c0-0.1,0.1-0.1,0.2-0.1
	C15.2,7.8,15.3,7.8,15.3,7.8z M21,7.3C21,7.4,21,7.4,21,7.3c-0.1,0.2-0.1,0.2-0.3,0.2c-0.1,0-0.1,0-0.2,0c-0.1,0-0.1,0-0.1,0.1
	c0,0.1,0,0.2-0.1,0.3c0,0,0,0.1,0,0.1c0.1,0,0.1,0,0.2,0.1c0.1,0.1,0.2,0.1,0.3,0C20.9,8,20.9,8,21,8c0.1,0,0.2,0,0.2,0
	c0.1,0,0.2,0,0.3,0C21.4,7.8,21.2,7.6,21,7.3z M10.1,9C10.1,9,10.1,9,10.1,9c0.1,0.3,0.3,0.5,0.4,0.7c0,0,0.1,0,0.1,0.1
	c0.1,0.1,0.2,0.1,0.3,0.2c0,0,0.1,0,0.1,0.1c0-0.1,0-0.1,0-0.1c-0.1-0.2-0.1-0.4-0.2-0.6c0-0.1-0.1-0.2-0.1-0.2c0,0,0,0-0.1,0
	c-0.1,0-0.2,0-0.3,0C10.2,8.9,10.1,9,10.1,9z M11.1,9.6c0.1-0.2,0.1-0.3,0.1-0.5c0-0.1,0.1-0.2,0.2-0.3c0,0,0.1-0.1,0.1-0.1
	c0,0,0,0,0,0c0,0,0,0,0,0c-0.1,0-0.1,0-0.2,0.1c0,0-0.1,0.1-0.1,0.1c-0.1,0-0.2,0.1-0.2,0.1c-0.1,0-0.1,0-0.2,0.1
	C10.9,9.2,11,9.4,11.1,9.6z M14.6,3.8c0.1,0.1,0.2,0.1,0.2,0.3c0,0,0,0,0.1,0.1c0.1,0.1,0.2,0.1,0.3,0.2c0,0,0.1,0,0.1,0.1
	c0.2,0.1,0.4,0.2,0.6,0.3C16,4.8,16,4.7,16.1,4.6c-0.1-0.1-0.2-0.1-0.3-0.2c-0.1-0.1-0.3-0.1-0.4-0.1c-0.2,0-0.4-0.1-0.5-0.3
	c0-0.1-0.1-0.1-0.1-0.2c0,0,0-0.1-0.1-0.1C14.7,3.8,14.7,3.8,14.6,3.8z M19.4,6.7C19.4,6.7,19.4,6.8,19.4,6.7c0.3,0,0.5,0.1,0.7,0.2
	c0,0,0.1,0,0.1,0c0,0,0.1-0.1,0.1-0.1c0-0.1,0-0.2,0-0.2c-0.1,0-0.3,0-0.4,0C19.6,6.6,19.5,6.7,19.4,6.7z M21.7,6.2
	c0,0.1,0,0.1,0,0.1c0.1,0,0.1,0.1,0.2,0.1c0.1,0.1,0.3,0.1,0.4,0c-0.1-0.1-0.2-0.2-0.3-0.3c0,0,0,0-0.1,0
	C21.9,6.1,21.7,6.1,21.7,6.2c-0.1,0-0.1,0-0.1,0c0,0,0,0,0,0C21.6,6.2,21.6,6.2,21.7,6.2z M17.1,9.9c0.2-0.1,0.2-0.2,0.2-0.3
	c0-0.1,0-0.2,0.1-0.3c0-0.1,0.1-0.2,0.1-0.3c0,0,0,0,0-0.1c-0.1,0-0.1,0-0.2,0.1c-0.1,0.1-0.2,0.2-0.2,0.2
	C17.1,9.5,17.1,9.7,17.1,9.9z M13.2,7.9C13.3,7.9,13.3,7.8,13.2,7.9c0.1-0.1,0.2-0.1,0.2-0.2c0,0,0-0.1,0-0.1c0,0-0.1,0-0.1,0
	c-0.1,0-0.1,0.1-0.1,0.1C13.2,7.8,13.2,7.8,13.2,7.9C13.1,8,13,8,13,8.1c0.1,0.1,0.1,0.1,0.1,0.2c-0.1,0-0.2-0.1-0.3,0.1
	c-0.1,0-0.1,0-0.1,0c0.1,0.1,0.2,0.1,0.4,0.1c0.1,0,0.1,0,0.1-0.1C13.1,8.2,13.2,8.1,13.2,7.9C13.2,8,13.2,7.9,13.2,7.9z M19.2,4.3
	c0,0.1,0.1,0.2,0.2,0.2c0.1,0,0.1-0.1,0.2-0.1c0-0.1,0-0.1,0-0.2c0-0.1,0-0.1-0.1-0.2c-0.1,0-0.1,0-0.2,0
	C19.3,4.1,19.2,4.2,19.2,4.3z M22,7C22,7,22,7,22,7.1c0,0.2,0,0.3,0,0.5c0,0,0,0.1,0,0.1c0,0,0.1,0,0.2,0c0.1-0.1,0.1-0.1,0.1-0.2
	c0-0.1-0.1-0.1-0.1-0.1c0,0,0,0,0,0c0,0,0.1-0.1,0.1-0.1C22.1,7.1,22.1,7,22,7z M16.8,11.1C16.8,11.1,16.8,11.1,16.8,11.1
	C16.8,11.1,16.8,11.1,16.8,11.1c0.1,0.2,0.1,0.3,0.1,0.4c0,0.1,0.1,0.1,0.1,0c0.1-0.1,0.1-0.1,0.2-0.2c0,0,0,0,0,0c0,0,0-0.1,0-0.1
	c0,0-0.1,0-0.1,0c0,0-0.1,0-0.1,0c0-0.1,0-0.1,0-0.1c0,0,0-0.1,0-0.1c0,0,0-0.1-0.1-0.1c0,0.1,0,0.1,0,0.2c0,0.1,0,0.1,0,0.2
	C17,11.2,16.9,11.2,16.8,11.1C16.8,11.1,16.8,11.1,16.8,11.1z M22.2,7.8c0,0.1,0.1,0.2,0.1,0.3c0,0,0.1,0.1,0.1,0.1
	c0.1,0,0.2,0,0.3,0.1C22.8,8.1,22.7,8,22.6,8c0,0-0.1,0-0.1,0c0,0-0.1,0-0.1-0.1c0,0,0,0,0,0c0,0,0.1-0.1,0-0.1c0,0-0.1-0.1-0.1-0.1
	C22.3,7.7,22.3,7.7,22.2,7.8z M20.2,5.4c0.1,0,0.1,0,0.1,0.1c0.1,0.1,0.2,0.1,0.3,0.3c0,0,0,0.1,0.1,0.1c0.2-0.2,0.1-0.3,0-0.5
	C20.5,5.3,20.3,5.3,20.2,5.4z M21.7,6.5c0.1,0.1,0.1,0.1,0.2,0.1c0.1,0,0.3,0,0.4,0c0.1,0,0.3,0,0.3,0.2c0,0,0,0,0,0
	c0.1,0,0.1-0.1,0.2-0.1c-0.2-0.1-0.4-0.1-0.5-0.2C22.2,6.7,21.9,6.5,21.7,6.5z M20,9.8c0-0.1-0.1-0.1-0.1-0.1c-0.1,0-0.1,0-0.2,0.1
	c0,0,0,0.1,0,0.1c0,0,0,0.1,0,0.1c0,0,0,0.1,0,0.1c0,0.1,0,0.1,0.1,0.2c0-0.1,0.1-0.2,0.2-0.2c0-0.1-0.1,0-0.2-0.1
	C19.9,9.9,19.9,9.8,20,9.8z M19.4,10.2c-0.1-0.1-0.2-0.1-0.2,0c0,0.1-0.1,0.2,0,0.3c0.1,0,0.2,0,0.2,0c0,0,0,0,0.1,0
	c0,0,0.1-0.1,0.1-0.1c0-0.1,0-0.1-0.1-0.1c-0.1,0-0.1,0-0.2,0c0,0-0.1,0-0.1,0C19.2,10.3,19.2,10.3,19.4,10.2z M12.7,8
	c0,0-0.1-0.1-0.1-0.1c-0.1-0.1-0.2-0.1-0.3,0c0,0-0.1,0.1-0.1,0.1c0,0,0.1,0.1,0.1,0.1C12.5,8,12.6,8,12.7,8C12.7,8,12.7,8,12.7,8z
	 M15.8,6.4c0-0.1,0.1-0.2,0.1-0.3c0-0.1,0-0.1-0.1-0.1c0,0-0.1,0-0.1,0c0,0.1-0.1,0.1-0.1,0.2c0,0,0,0.1,0,0.1
	C15.6,6.3,15.7,6.3,15.8,6.4z M21.2,8.7c-0.1-0.1-0.2-0.1-0.3-0.2c0,0.1,0,0.2-0.1,0.3c0,0.1,0,0.2-0.1,0.2c0,0,0,0,0,0
	C20.9,9,21.1,8.9,21.2,8.7z M18.1,7.4c0-0.1,0.1-0.2,0.1-0.3c0.1,0,0.2,0,0.3,0c0,0,0,0,0.1,0.1c0-0.1,0-0.1,0-0.2
	c-0.1,0-0.2,0-0.2,0.1c0,0-0.1,0-0.1,0c-0.1,0-0.2,0.1-0.2,0.1C18.1,7.2,18,7.3,18.1,7.4C18,7.4,18,7.4,18.1,7.4z M15.1,9.8
	C15.1,9.8,15,9.8,15.1,9.8C15,9.9,15,10,14.9,10c0,0.1,0,0.1,0.1,0.1c0.1,0,0.1,0,0.2,0.1c0-0.1,0-0.1,0-0.2
	C15.2,10,15.1,9.9,15.1,9.8z M21.9,8.6c0,0.1,0.1,0.1,0.1,0.2c0,0,0.1,0,0.1,0c0.1,0,0.1-0.1,0-0.2c0-0.1-0.1-0.1-0.2,0
	C22,8.5,21.9,8.6,21.9,8.6z M16.1,5.8c0-0.1,0-0.2,0-0.2c0-0.1,0-0.1-0.1-0.1c0,0-0.1,0-0.1,0.1c0,0.1,0,0.1,0,0.2
	C16,5.7,16,5.7,16.1,5.8z M19.6,5c-0.1-0.1-0.1-0.2-0.2-0.2c0,0-0.1,0-0.1,0c0,0.2,0.1,0.3,0.2,0.3C19.5,5.1,19.6,5.1,19.6,5z
	 M12.8,10.5C12.8,10.5,12.8,10.5,12.8,10.5C12.8,10.5,12.8,10.6,12.8,10.5c0.2,0.2,0.3,0.2,0.4,0.2c0.1,0,0.1-0.1,0-0.1
	c0,0-0.1,0-0.1,0C13,10.5,12.9,10.5,12.8,10.5z M14.7,9.4c-0.1,0-0.1,0-0.1,0.1c0,0.1,0,0.1,0,0.2c0,0,0.1,0.1,0.2,0.1
	c0,0,0,0,0.1,0c0,0,0,0,0-0.1c0-0.1-0.1-0.2-0.1-0.2C14.7,9.5,14.7,9.5,14.7,9.4z M19.1,9.3C19.1,9.3,19,9.3,19.1,9.3
	c-0.1,0-0.1,0-0.2,0.1c-0.1,0-0.1,0.1,0,0.2c0,0.1,0.1,0.1,0.2,0C19.1,9.5,19.1,9.4,19.1,9.3z M18.2,7.6c-0.1,0-0.2,0-0.2,0.1
	c0,0.1,0.1,0.1,0.1,0.2C18.1,7.8,18.2,7.8,18.2,7.6z M17.8,8.4c-0.2,0-0.2,0.1-0.2,0.2c0.1,0,0.2,0,0.3-0.1
	C17.8,8.5,17.8,8.5,17.8,8.4z M18.4,7.4c0,0.1,0.1,0.1,0.1,0.2c0.1-0.1,0.1-0.1,0.1-0.2c0,0,0-0.1,0-0.1c0,0-0.1,0-0.1,0
	C18.5,7.4,18.5,7.4,18.4,7.4z M13.1,10.9c0,0.1,0.1,0.1,0.1,0.1c0.1,0.1,0.1,0.1,0.2,0c0-0.1-0.1-0.1-0.1-0.2
	C13.2,10.8,13.2,10.8,13.1,10.9z M15.2,9.6c0-0.1,0-0.1-0.1-0.2c0-0.1,0-0.1-0.1-0.1C15,9.3,15,9.4,15,9.4c0,0.1,0,0.1,0,0.2
	C15.1,9.6,15.1,9.6,15.2,9.6z M19.8,4.1C19.8,4.1,19.8,4.1,19.8,4.1c0,0.1,0,0.1,0.1,0.2c0,0,0.1,0,0.1,0c0,0,0.1-0.1,0.1-0.1
	c0,0,0-0.1-0.1-0.1C19.9,4.1,19.8,4.1,19.8,4.1z M19,5.8c0.1,0,0.1,0,0.2,0c0.1,0,0.1,0,0.1-0.2c0,0-0.1,0-0.1,0
	C19,5.6,19,5.6,19,5.8z M18.8,4.8c0.1,0,0.1,0,0.1-0.1c0.1,0,0.1-0.1,0-0.1c-0.1,0-0.1,0-0.2,0C18.7,4.7,18.7,4.7,18.8,4.8
	C18.8,4.8,18.8,4.8,18.8,4.8z M16.7,25.9c0,0.2,0,0.3,0,0.5c0,0,0,0,0,0c0-0.1,0.1-0.3,0.1-0.4C16.8,25.9,16.7,25.9,16.7,25.9z
	 M19.8,5.1C20,5,20,5,20,4.9c0,0,0-0.1-0.1-0.1c0,0-0.1,0-0.1,0.1C19.8,4.9,19.8,5,19.8,5.1z M11.5,10.3c-0.1-0.1-0.2-0.2-0.3-0.3
	c-0.1,0.2,0.1,0.2,0.2,0.4C11.4,10.3,11.5,10.3,11.5,10.3z M12.5,8.1c-0.1,0-0.1,0-0.2,0.1c0,0,0,0.1,0,0.1c0,0,0.1,0,0.1,0
	C12.5,8.2,12.5,8.2,12.5,8.1z M16.9,2.5C16.9,2.5,17,2.5,16.9,2.5c0.1-0.1,0.2-0.1,0.3-0.1c0,0,0-0.1,0-0.1
	C17.1,2.3,17.1,2.3,16.9,2.5C16.9,2.4,16.9,2.5,16.9,2.5z M21.8,8.5c0-0.1,0-0.1,0-0.2c0,0,0-0.1-0.1-0.1c0,0-0.1,0-0.1,0
	c0,0,0,0.1,0,0.1C21.7,8.4,21.8,8.5,21.8,8.5z M16.1,1.9C16.1,1.8,16,1.8,16.1,1.9c-0.1,0-0.2,0-0.3,0c0,0,0,0,0,0c0,0,0,0,0,0
	C15.9,1.9,15.9,1.9,16.1,1.9C16,1.9,16,1.9,16.1,1.9z M12.1,10.1c-0.1,0.1-0.1,0.1-0.2,0.1c0.1,0,0.1,0,0.2,0c0,0,0,0,0.1,0
	C12.1,10.2,12.1,10.2,12.1,10.1z M13.5,5.3c0,0.1,0,0.1,0.1,0.1c0.1,0,0.1,0,0.1-0.1C13.6,5.3,13.6,5.3,13.5,5.3z M19.8,10.6
	c-0.1,0.1-0.1,0.1-0.1,0.1c0,0.1,0,0.1,0.1,0.1C19.9,10.8,19.9,10.8,19.8,10.6C19.9,10.7,19.8,10.6,19.8,10.6z M18.1,5.6
	c0.1,0,0.1,0.1,0.2,0.1C18.3,5.7,18.3,5.6,18.1,5.6C18.2,5.6,18.2,5.6,18.1,5.6z M14.9,9.3C14.8,9.3,14.8,9.3,14.9,9.3
	c-0.1-0.1-0.1-0.1-0.1-0.1c-0.1,0-0.1,0.1-0.1,0.1c0,0,0,0,0,0.1c0,0,0,0,0,0c0,0,0,0,0,0C14.8,9.3,14.8,9.3,14.9,9.3z M16,4.3
	c0.1,0.1,0.1,0.1,0.2,0.1C16.2,4.4,16.1,4.3,16,4.3z M19.3,6.5C19.3,6.5,19.4,6.5,19.3,6.5c0.1,0,0.1,0,0.2,0c0,0-0.1-0.1-0.1-0.1
	C19.4,6.4,19.4,6.4,19.3,6.5z M12.3,8.4C12.3,8.4,12.3,8.4,12.3,8.4C12.3,8.4,12.3,8.4,12.3,8.4c-0.1,0.1-0.1,0.1,0,0.1
	C12.3,8.5,12.3,8.4,12.3,8.4C12.3,8.4,12.3,8.4,12.3,8.4z M15.9,12.3c0.1,0.1,0.1,0.1,0.1,0.1C16.1,12.3,16.1,12.3,15.9,12.3z
	 M19.3,9.9C19.3,9.9,19.3,9.9,19.3,9.9C19.4,10,19.4,10,19.3,9.9C19.4,9.9,19.4,9.9,19.3,9.9z M22.3,8.5C22.3,8.5,22.3,8.5,22.3,8.5
	C22.3,8.4,22.3,8.4,22.3,8.5C22.3,8.4,22.3,8.5,22.3,8.5C22.3,8.5,22.3,8.5,22.3,8.5z M19.8,4.4C19.8,4.4,19.8,4.4,19.8,4.4
	C19.7,4.4,19.7,4.4,19.8,4.4C19.7,4.5,19.7,4.5,19.8,4.4C19.7,4.5,19.8,4.5,19.8,4.4z M22,8.4C22,8.4,22,8.4,22,8.4
	C22,8.4,22,8.4,22,8.4C22,8.4,22,8.4,22,8.4C22,8.4,22,8.4,22,8.4z M19,5.2C19,5.1,19,5.1,19,5.2C19,5.1,19,5.1,19,5.2
	C19,5.1,19,5.1,19,5.2C19,5.1,19,5.1,19,5.2z"/>
</svg>
