<?xml version="1.0" encoding="utf-8"?>
<!-- Generator: Adobe Illustrator 25.4.1, SVG Export Plug-In . SVG Version: 6.00 Build 0)  -->
<svg version="1.1" id="brassica_x5F_rapa" xmlns="http://www.w3.org/2000/svg" xmlns:xlink="http://www.w3.org/1999/xlink" x="0px"
	 y="0px" viewBox="0 0 32 32" style="enable-background:new 0 0 32 32;" xml:space="preserve">
<path d="M20.5,10.4C20.5,10.4,20.5,10.5,20.5,10.4c-0.1-0.4-0.4-0.9-0.1-1.2c0,0,0,0.1,0,0.1c0,0,0,0,0,0.1c0,0,0,0,0,0.1
	c0,0,0,0,0,0.1c0,0.3-0.1,0.6,0,0.8C20.5,10.4,20.5,10.4,20.5,10.4z M16.6,4.8L16.6,4.8C16.6,4.8,16.6,4.7,16.6,4.8
	c0.1-0.1,0.1-0.1,0.2-0.1C16.8,4.7,16.7,4.7,16.6,4.8c0.1,0.1,0,0.2,0,0.2c0,0,0-0.1,0-0.1C16.6,4.9,16.6,4.8,16.6,4.8z M16.6,5.2
	L16.6,5.2c0,0,0.1,0.1,0.1,0.1c0,0.1-0.1,0.2-0.1,0.3c0,0,0,0,0,0c0,0,0,0,0,0C16.6,5.4,16.6,5.3,16.6,5.2z M16.2,4.9
	c0,0,0.1-0.1,0.2-0.1c0,0,0.1,0,0.1,0c0,0,0,0,0,0c0,0,0,0.1,0,0.1c0,0,0,0.1,0,0.1c0,0.1,0,0.2,0,0.3l0,0c0,0,0,0.1,0,0.1
	c0,0.1,0,0.3,0,0.4c0,0,0,0,0,0c-0.1-0.2-0.1-0.5-0.2-0.7c0,0,0,0,0,0c0,0,0-0.1,0-0.1C16.2,5,16.2,4.9,16.2,4.9z M16.4,6.7
	c0-0.1-0.1-0.1-0.1-0.2c0,0,0-0.1,0-0.1c0,0,0-0.1-0.1-0.1c0,0,0,0,0-0.1c0-0.1,0-0.1-0.1-0.2c0,0,0-0.1,0-0.1c0,0,0-0.1,0-0.1
	c0,0,0,0,0,0c0-0.1,0.1-0.1,0.1-0.2c0,0,0,0,0-0.1c0,0,0-0.1,0-0.1c0,0.1,0,0.1,0,0.2c0,0,0,0.1,0,0.1c0,0.1,0,0.1,0,0.2
	c0,0,0,0.1,0,0.1c-0.2-0.1-0.1,0.1,0,0.1c0,0,0,0.1,0,0.1c0,0,0,0,0,0.1c0.1,0.1,0.1,0.3,0.1,0.4c0,0.1,0,0.1,0,0.2
	C16.5,6.9,16.4,6.8,16.4,6.7z M16.9,10.1L16.9,10.1c0-0.1,0.1-0.2,0-0.3c0-0.2,0-0.3,0-0.5c0-0.1,0.1-0.1,0-0.2c0-0.2,0-0.4,0-0.6
	c0,0,0-0.1,0-0.1c0-0.1,0-0.3,0-0.4l0,0c0,0,0-0.1,0-0.1c0,0,0,0,0-0.1c0-0.3,0.1-0.6,0.2-0.8c0,0.1,0,0.1,0,0.2c0,0,0,0.1,0,0.1
	c0,0.1,0,0.1,0,0.2c0,0,0,0.1,0,0.1c0,0.1,0,0.1,0,0.2c0,0.1,0,0.1,0,0.2c0,0,0,0,0,0.1c0,0,0,0.1,0,0.1c0,0.1,0,0.2,0.1,0.2
	c-0.1-0.1-0.2,0,0,0.1c0,0,0,0,0,0.1c0,0.1,0,0.1,0,0.1c0,0.1,0,0.2,0,0.4c0,0.4-0.2,0.7-0.4,1C17,10.1,17,10.2,16.9,10.1
	C16.9,10.2,16.9,10.2,16.9,10.1z M14.8,10c0,0,0-0.1,0-0.1c0-0.1,0-0.1,0-0.2c0,0,0-0.1,0-0.1c0-0.1,0-0.1,0-0.2c0,0,0,0.1,0.1,0.1
	c0,0,0,0,0,0.1c0,0.1,0.1,0.1,0.2,0.2c0,0,0,0,0,0c0,0,0,0.1,0,0.1c0,0,0,0.1,0,0.1c0,0.1,0,0.1,0,0.2c0,0,0,0.1,0,0.1
	c0,0,0,0.1,0,0.1c0,0,0,0.1,0,0.1c0,0.1,0,0.1-0.1,0.2c0,0.1-0.1,0.1-0.1,0.2c0-0.1,0-0.1,0-0.2c0-0.2,0-0.3,0.1-0.5c0,0,0,0,0-0.1
	c0,0,0-0.1,0-0.1C14.9,10.1,14.9,9.8,14.8,10z M14.1,8.9C14.1,8.8,14.1,8.8,14.1,8.9C14.1,8.8,14.2,8.8,14.1,8.9
	C14.2,8.8,14.2,8.8,14.1,8.9l0.1,0c0,0,0,0.1,0,0.2c0,0,0,0.1,0,0.1C14.2,9,14.2,8.9,14.1,8.9z M14.4,9.7c0-0.1-0.1-0.2-0.1-0.3
	c0,0,0-0.1,0-0.1l0,0C14.4,9.4,14.4,9.5,14.4,9.7C14.4,9.6,14.4,9.6,14.4,9.7C14.4,9.6,14.4,9.7,14.4,9.7z M14.6,9.9
	c0-0.1-0.1-0.2-0.1-0.4c0,0,0-0.1,0-0.1l0,0c0-0.1,0-0.2-0.1-0.3c0,0,0-0.1,0-0.1c0,0,0-0.1,0-0.1c0,0,0,0,0,0c0,0,0.1,0,0.1,0
	c0.1,0,0.1,0,0.2,0.1c0,0,0.1,0.1,0.1,0.1c0,0,0,0.1,0,0.1c0,0,0,0,0,0C14.7,9.4,14.7,9.7,14.6,9.9C14.6,9.9,14.6,9.9,14.6,9.9z
	 M14.8,14.3c0-0.1-0.1-0.1-0.2-0.1c-0.2-0.3-0.4-0.6-0.5-0.9c0-0.1,0-0.2-0.1-0.4c0-0.1,0-0.1,0-0.2c0,0,0,0,0-0.1
	c0.1-0.1,0-0.1-0.1-0.1c0-0.1,0-0.2,0-0.2c0,0,0-0.1,0-0.1c0,0,0,0,0-0.1c0-0.1,0-0.1,0-0.2c0-0.1,0-0.1,0-0.2c0,0,0-0.1,0-0.1
	c0-0.1,0-0.1,0-0.2c0,0,0-0.1,0-0.1c0-0.1,0-0.1,0-0.2c0.2,0.2,0.3,0.5,0.4,0.8c0,0,0,0,0,0.1c0,0,0,0.1,0,0.1v0c0,0.1,0,0.3,0,0.4
	c0,0,0,0.1,0,0.1c0,0.2,0,0.4,0.1,0.6c-0.1,0,0,0.1,0,0.2c0,0.2,0,0.3,0.1,0.5c0,0.1,0,0.2,0,0.3L14.8,14.3
	C14.8,14.2,14.8,14.3,14.8,14.3z M15.2,19.6C15.3,19.6,15.2,19.5,15.2,19.6c0-0.2-0.1-0.4-0.1-0.5c0-0.2-0.1-0.4-0.1-0.5
	c0,0,0-0.1,0-0.1c0-0.1,0-0.1,0.1-0.2c0.1-0.1,0-0.1,0,0c0,0,0,0.1-0.1,0.1c0,0,0-0.1,0-0.1c0-0.1,0-0.3-0.1-0.4
	c0.2-0.2,0.3-0.5,0.4-0.7c0-0.1,0.1-0.2,0.1-0.3c0-0.1,0-0.1,0-0.2c0,0,0,0,0,0c0,0,0,0,0,0c0,0,0,0.1,0,0.1c0,0,0,0.1,0,0.1
	c0,0.3,0,0.6,0,0.8c0,0,0,0,0,0.1c0,0,0,0.1,0,0.1c-0.1-0.1-0.1-0.2-0.1-0.3c0-0.1-0.2-0.1-0.1,0.1c0.1,0.2,0.3,0.4,0.2,0.6
	c0,0,0,0,0,0.1c0,0.1,0,0.1,0,0.2c0,0.2-0.1,0.3-0.1,0.5l0,0C15.4,19.3,15.3,19.5,15.2,19.6L15.2,19.6z M15.8,22L15.8,22
	c0-0.1,0-0.1,0-0.1c0-0.1,0-0.1,0-0.2c0-0.1,0-0.1-0.1-0.2c0,0,0-0.1,0-0.1c0-0.1,0-0.2-0.1-0.3c0,0,0-0.1,0-0.1
	c0-0.1,0-0.2-0.1-0.3c0,0,0,0,0,0c0,0,0-0.1,0-0.1c0-0.1,0-0.1,0-0.2c0-0.2-0.1-0.4-0.1-0.6c0,0,0-0.1,0.1-0.1c0,0,0-0.1,0-0.1
	c0-0.1,0-0.2,0.1-0.3c0,0,0,0,0,0c0-0.2,0.1-0.3,0.1-0.5c0,0,0-0.1,0-0.1c0-0.1,0-0.2,0-0.2c0.2,0.6,0.5,1.1,0.8,1.7
	c0,0.5-0.2,1.1-0.3,1.6c-0.1,0.1-0.1,0.2-0.2,0.3C15.8,21.9,15.8,22.1,15.8,22z M11.2,14.1C11.2,14.1,11.2,14,11.2,14.1
	c0-0.1,0-0.1,0-0.1c0,0,0-0.1,0-0.1c0.3,0.3,0.1,0.8,0.1,1.2c0,0,0,0,0,0c0,0,0-0.1,0-0.1C11.4,14.7,11.2,14.4,11.2,14.1
	C11.2,14.1,11.2,14.1,11.2,14.1z M11.1,14.2c0,0.1,0,0.1,0.1,0.2c0,0,0,0.1,0,0.1c0,0,0,0.1,0,0.1c0,0,0,0.1,0,0.1c0,0,0,0,0,0
	c0-0.1-0.1-0.2-0.1-0.2c0,0,0-0.1,0-0.1C11,14.3,11,14.3,11.1,14.2C11,14.2,11,14.2,11.1,14.2z M10.7,13.6
	C10.7,13.6,10.7,13.6,10.7,13.6C10.7,13.6,10.7,13.6,10.7,13.6c0.1,0.1,0.1,0.1,0.1,0.2c0,0,0,0.1,0,0.1c0,0,0,0.1,0,0.1
	c0,0.1,0,0.2,0,0.3c0,0,0,0.1,0,0.1c0,0.1,0,0.1,0,0.2c0,0.1,0,0.2,0,0.2c0-0.1-0.1-0.1-0.1-0.2c-0.1-0.1-0.1-0.2-0.2-0.3
	c0-0.1,0.1-0.2,0.1-0.3C10.8,13.8,10.7,13.7,10.7,13.6C10.7,13.6,10.6,13.6,10.7,13.6z M10.8,15.3c-0.1,0-0.1,0-0.1-0.1
	c-0.1-0.1-0.1-0.3-0.2-0.4c-0.1-0.2-0.2-0.5-0.2-0.7c0,0,0-0.1,0-0.1c0.1,0.2,0.4,0.3,0.5,0.6c0,0,0,0.1,0.1,0.1c0,0,0,0.1,0.1,0.1
	c0,0,0.1,0.1,0.1,0.1c0,0,0,0.1,0.1,0.1c0,0,0,0.1,0.1,0.1c0,0.1,0.1,0.2,0.1,0.3c0,0,0,0,0,0c0,0.1-0.1,0.1-0.1,0.2
	c0,0,0,0.1-0.1,0.1c-0.1,0,0-0.2-0.1-0.2C10.9,15.4,10.9,15.4,10.8,15.3C10.8,15.4,10.8,15.3,10.8,15.3z M11.3,17.6
	c0-0.1-0.1-0.2-0.2-0.3c0,0,0,0,0,0c0.1,0,0.1-0.1,0.1-0.1c0,0,0.1-0.1,0-0.1c0,0,0-0.1,0-0.1l0,0c0-0.2,0-0.3-0.1-0.5
	c0,0,0-0.1,0-0.1l0,0c0-0.3-0.2-0.1-0.1,0c0,0,0,0.1,0,0.1c0,0,0,0.1,0,0.1c0,0,0,0.1,0,0.1c0,0,0,0.1,0,0.1c0,0,0,0,0,0
	c-0.1-0.2-0.1-0.4-0.2-0.6c0,0,0,0,0-0.1c0,0,0.1-0.1,0.1-0.1c0,0,0,0,0.1,0c0,0,0.1,0,0.1,0c0,0,0,0,0,0c0.1,0.1,0.1,0.1,0.1,0.2
	c0,0.1,0,0.2,0.1,0.3c0,0,0,0.1,0,0.1c0,0.2,0.1,0.4,0.1,0.6c0,0,0,0.1,0,0.1c0,0,0,0.1,0,0.1c0,0,0,0.1,0,0.1
	c0,0.2,0.2,0.5,0.2,0.7C11.6,18.2,11.4,17.9,11.3,17.6z M13.9,28.4L13.9,28.4C13.9,28.4,13.9,28.3,13.9,28.4c0.1-0.1,0.1-0.1,0.2,0
	c0,0,0.1,0.1,0,0.1C14.1,28.5,14,28.4,13.9,28.4z M16.6,30.4c0.2-0.1,0.3-0.2,0.4-0.3c0,0,0,0,0,0c0.1-0.1,0.1-0.1,0.2-0.3
	c0,0,0-0.2,0-0.3c0,0,0,0,0,0c0,0,0-0.1,0-0.1c0-0.1,0-0.2,0-0.2c0,0,0-0.1,0-0.1c0,0,0-0.1,0-0.1c0-0.1,0-0.2,0-0.2
	c0,0,0-0.1-0.1-0.1c0,0,0-0.1,0-0.1c0,0,0-0.1,0-0.1c0,0,0,0,0-0.1c0-0.1,0.1-0.1,0.1-0.2c0.3-0.6,0.5-1.2,0.9-1.7
	c0.3-0.1,0.5-0.5,0.7-0.8c0.1-0.1,0.1-0.2,0.1-0.3c0,0,0-0.1,0-0.1c0-0.3,0.4-0.5,0.6-0.6c0.1,0,0.1-0.1,0.2-0.1
	c0,0,0.1-0.1,0.1-0.1c0,0,0.1-0.1,0.1-0.1c0.1-0.1,0.1-0.1,0.2-0.2c0.1,0,0.2,0.1,0.2,0.1c0,0,0,0.1,0.1,0.1
	c0.2,0.3,0.2-0.2,0.4-0.3c0,0,0,0,0,0c0.1-0.1,0-0.3-0.1-0.4c0,0,0,0,0,0c0,0,0,0-0.1,0c0,0-0.1,0-0.1,0c0,0,0,0,0,0
	c-0.2,0.1-0.1-0.1-0.2-0.1l0,0c0,0-0.1,0-0.1,0c0,0-0.1,0-0.1,0c0,0,0-0.1-0.1,0l0,0c0,0-0.1,0-0.1,0c0,0,0,0,0,0
	c0,0-0.1-0.1-0.1-0.1c-0.1-0.1-0.3-0.2-0.4-0.3c0,0-0.1-0.1-0.1,0c0,0.1,0,0.1,0,0.2c0,0.1,0.3,0.2,0.1,0.2c0,0-0.1,0-0.1,0
	c-0.1,0-0.1,0.1,0,0.1c0,0,0.1,0.1,0.1,0c0.1,0,0.2,0,0.3,0.1c0,0,0,0,0.1,0.1c0,0,0,0,0,0.1c0,0-0.1,0-0.1,0c0,0-0.1,0-0.1,0.1
	c-0.1,0-0.1,0.1-0.1,0.2c-0.1,0.1-0.1,0.3-0.2,0.5c0,0.1-0.1,0.2,0,0.2c0.1,0,0,0.1-0.1,0.2c-0.1,0.1-0.1,0.1-0.2,0.2
	c0,0,0-0.1,0-0.1c0,0,0,0,0-0.1c0-0.1,0-0.1,0-0.2c0-0.1-0.1-0.1-0.1-0.1c0,0-0.1,0-0.1,0c0,0-0.1,0,0,0.1c0,0,0,0.1,0,0.1
	c0,0,0,0,0,0c0,0,0,0.1,0,0.1c0,0.2,0,0.3,0,0.5c0,0-0.1,0-0.1,0.1c-0.1,0.1-0.1,0.2-0.2,0.3c0,0,0,0.1-0.1,0.1c0,0,0,0,0,0.1
	C18,26,18,26.1,18,26.2c0,0,0,0,0,0.1c0,0,0,0,0,0.1c-0.2,0.3-0.3,0.6-0.5,0.8c0,0.1-0.1,0.1-0.1,0.2c-0.1,0.1-0.1,0.2-0.1,0.3
	c0,0.1-0.1,0.1-0.1,0.2l0,0c0,0,0,0,0,0c0-0.1,0-0.1,0-0.2c0,0,0-0.1,0-0.1c0-0.1,0-0.2,0-0.4c0,0,0-0.1,0-0.1c0,0,0-0.1,0-0.1
	c0,0,0-0.1,0-0.1c0,0,0-0.1,0-0.1c0,0,0-0.1,0-0.1c0,0,0-0.1,0-0.1c0,0,0,0,0,0c0,0,0-0.1,0-0.1c0-0.2,0-0.3,0-0.5c0,0,0-0.1,0-0.1
	c0,0,0-0.1,0-0.1c0,0,0-0.1,0-0.1c0-0.1,0-0.1,0-0.2c0,0,0-0.1,0-0.1c0,0,0-0.1,0-0.1c0-0.1,0-0.1,0-0.2c0,0,0,0,0,0
	c0,0,0-0.1,0-0.1c0,0,0,0,0,0l0,0c0,0,0-0.1,0-0.1c0-0.1,0-0.1,0-0.2c0,0,0-0.1,0-0.1c0-0.1,0.1-0.2,0.1-0.3
	c0.1-0.1,0.1-0.3,0.2-0.4c0.1-0.1,0.2-0.3,0.2-0.5c0.1,0,0.1-0.1,0.2-0.1c0.2-0.1,0.2-0.4,0.4-0.6c0,0,0-0.1,0-0.1
	c0.3-0.4,0.5-0.7,1-1c0.1-0.1,0.3-0.1,0.4-0.3c0.1-0.1,0-0.2-0.1-0.2c-0.8-0.1-1.2,0.8-1.7,1.2c0,0-0.1,0.1-0.1,0.2
	c0,0-0.1,0-0.1,0.1c0.2-1.1,0.7-2.1,1.1-3.2c0.3-0.8,0.5-1.6,0.8-2.4c0.2-0.6,0.4-1.2,0.5-1.8c0.1-0.3,0.1-0.6,0.2-0.9
	c0,0,0.1-0.1,0.1-0.1c0.2-0.2,0.3-0.4,0.4-0.6c0.1-0.2,0.2-0.5,0.3-0.8c0,0,0,0,0.1,0c0.2,0.1,0.4,0.1,0.5-0.2c0,0,0,0,0-0.1
	c0,0,0-0.1,0.1-0.1c0,0,0,0,0.1,0c0.1-0.1,0.1-0.2,0.2-0.3c0.1-0.3-0.1-0.1-0.2,0c0,0.1-0.1,0.1-0.1,0.2c0,0,0,0.1,0,0.1
	c0,0-0.1,0.1-0.1,0.1c0-0.1,0.1-0.2,0.1-0.4c0,0,0-0.1,0.1-0.1c0-0.1,0.1-0.2,0.2-0.3l0,0c0,0,0.1,0,0.1,0c0.2,0.1,0.4,0.2,0.6,0.1
	c0,0,0.1,0,0.1,0c0.2,0,0.3-0.1,0.4-0.3v0c-0.1,0-0.2,0-0.3,0c-0.2,0,0-0.1,0.1-0.2l0,0c0,0,0-0.1,0-0.1c0,0,0-0.1,0-0.1
	c0-0.1-0.1-0.1-0.2-0.1c0,0-0.1,0-0.1,0c-0.1,0-0.1,0-0.2,0c-0.1,0-0.2,0.1-0.3,0.1c0,0,0-0.1,0-0.1c0,0,0,0,0,0
	c0,0-0.1-0.1-0.1-0.1c0,0,0,0-0.1,0c0,0,0,0,0-0.1c0-0.1-0.1,0-0.1,0c0,0-0.1-0.1-0.1-0.1c0,0,0,0,0,0l0,0c0,0,0-0.1-0.1-0.1
	c-0.1,0-0.2,0-0.3,0c0-0.1,0.1-0.2,0.1-0.4l0,0c0.1-0.3,0.1-0.6,0.2-0.8c0.1,0,0.1-0.1,0.1-0.2c0,0,0,0,0-0.1c0,0,0-0.1,0-0.1
	c0,0,0-0.1,0.1-0.1c0-0.1,0-0.1,0-0.2c0-0.1,0-0.1,0-0.2c0,0,0-0.1,0-0.1c0,0,0,0,0-0.1c0,0,0,0,0-0.1c-0.1-0.1-0.2,0-0.2,0.1
	c-0.1,0.1-0.1,0.2-0.2,0.4c0-0.1,0-0.1,0-0.2c0-0.1,0-0.2-0.1-0.3c-0.1-0.1-0.2,0-0.2,0.1c0,0,0,0,0,0c0-0.1,0-0.2,0-0.3
	c0,0,0-0.1,0-0.2C21,8,21,8,21,8c0,0,0.1-0.3,0-0.2c0,0,0,0,0-0.1c0-0.1-0.1,0-0.1,0.1c0,0,0,0.1-0.1,0.1c0,0,0,0.1,0,0.2
	c0,0.1,0,0.2,0,0.2c0,0,0,0,0,0.1c0,0.1,0,0.2-0.1,0.3c0,0-0.1,0-0.1,0.1c0,0,0,0,0,0.1c0,0,0,0.1,0,0.1c0,0,0,0.1,0,0.1
	c0,0,0,0,0,0c0-0.2-0.1-0.5-0.3-0.7c0,0-0.1-0.1-0.2,0c0,0,0,0.1,0,0.1c0,0.1,0,0.3,0,0.4l0,0c0,0.1,0,0.2,0.1,0.3c0,0,0,0,0,0
	c0,0,0,0.1,0,0.1c0,0,0,0.1,0,0.1c0,0,0,0,0,0c0.2,0.1,0.1,0.2,0.1,0.4c0,0,0,0.1,0,0.1c0,0.3,0.1,0.6,0.2,1l0,0c0,0,0,0-0.1,0
	c0,0-0.1,0-0.1,0c-0.1,0-0.1,0.2-0.1,0.2c-0.1,0-0.1,0.1,0,0.1c0.1,0.1,0.2,0.1,0.3,0.1c0,0,0,0,0.1,0l0,0c0,0.1,0,0.3,0,0.4l0,0
	c0,0,0,0.1,0,0.1c0,0.1,0,0.2,0,0.3c0,0.1,0,0.2,0,0.3c0,0.1,0,0.2,0,0.3c0,0,0,0.1,0,0.1c0,0,0,0.1,0,0.2c0,0.1,0,0.1,0,0.2
	c0,0.1,0,0.2,0,0.3c0,0,0,0.1,0,0.1c0,0,0,0.1,0,0.1c0,0,0,0.1,0,0.1c0,0.1,0,0.1,0,0.2c0,0.1,0,0.1,0,0.2c0,0,0,0,0,0
	c-0.1-0.1-0.1-0.2-0.2-0.3c-0.1-0.2-0.1-0.3-0.1-0.5c0,0,0-0.1,0-0.1c0-0.2,0-0.4,0-0.6c0.1,0,0.1,0,0.2-0.1c0,0,0,0,0-0.1
	c0,0,0-0.1,0-0.1c0-0.1,0-0.3,0-0.4c0-0.1,0-0.2-0.1-0.3c0,0,0,0,0,0l0,0c0,0,0,0,0,0c0,0-0.1-0.1-0.1-0.1c0,0,0,0-0.1,0
	c0,0-0.1,0.1-0.1,0.1l0,0c0,0,0,0.1-0.1,0.1c0,0.1,0,0.1,0,0.2c0,0.1,0,0.3,0,0.4c0,0,0,0.1,0,0.1c0,0,0,0,0,0c0,0.1,0,0.1,0.1,0.1
	c0,0,0,0,0,0c0,0,0,0,0,0.1c0,0.1,0,0.3,0,0.4c0,0.1,0,0.1,0,0.2c0,0.2,0,0.4,0.1,0.5c0.1,0.1,0.2,0.3,0.2,0.4c0,0,0,0,0,0.1
	c0,0,0,0,0,0.1c0,0.1,0,0.1,0,0.2c0,0.1,0,0.2-0.1,0.3c0,0.1-0.1,0.2-0.1,0.3c0,0.1-0.1,0.3-0.1,0.4l0,0c0,0.1,0,0.2-0.1,0.3
	c0,0-0.1,0.1-0.1,0.1c0,0,0,0.1,0,0.1c0,0,0,0.1,0,0.1c0,0,0,0,0,0.1c0,0.1-0.1,0.2-0.1,0.3c0,0,0,0,0,0c0,0.1-0.1,0.2-0.1,0.3
	c0,0,0,0.1,0,0.1c-0.1,0.5-0.3,0.9-0.4,1.4c0,0,0,0.1,0,0.1c-0.1,0.3-0.2,0.6-0.3,0.9c0,0-0.1,0.1-0.1,0.2c0,0,0,0,0,0.1
	c0,0.1,0,0.1-0.1,0.2c0,0.1-0.1,0.1-0.1,0.2c0,0-0.1,0-0.1,0.1c0,0,0,0,0,0.1c0,0.1-0.1,0.2-0.1,0.2c-0.1,0.1-0.1,0.3-0.2,0.4
	c0,0,0,0.1,0,0.1c-0.1,0.1-0.1,0.2-0.1,0.3c-0.1,0.2-0.1,0.4-0.2,0.5c0,0,0,0.1,0,0.1c0,0,0,0.1,0,0.1c0,0,0,0.1,0,0.1
	c0,0,0,0.1,0,0.1c0,0.1-0.1,0.1-0.1,0.2c-0.1-0.2-0.2,0.2-0.3,0.3c0,0,0,0-0.1-0.1c0-0.2,0-0.3-0.1-0.5c0-0.1,0-0.1,0-0.2
	c0,0,0-0.1,0-0.1c0-0.1,0-0.2,0-0.2c0-0.1,0-0.1,0-0.2c0,0,0-0.1,0-0.2c0,0,0,0,0,0c0,0,0-0.1,0-0.1c0-0.1,0-0.2,0-0.3
	c0,0,0-0.1,0-0.1c0-0.1,0-0.2,0-0.2c0,0,0-0.1,0-0.1c0-0.1,0-0.1,0.1-0.1c0.1-0.1,0-0.2,0-0.3c0.1-0.1,0.3-0.2,0.4-0.3
	c0.1-0.2-0.1-0.2-0.2-0.1c0,0,0-0.1,0-0.1c0.1-0.1-0.1-0.2-0.1-0.1c0,0,0,0,0,0c-0.1,0.1-0.1,0-0.1-0.1c0,0,0-0.1,0-0.1
	c0,0,0-0.1,0-0.2c0-0.1,0-0.1,0-0.2c0,0,0-0.1,0-0.1c0-0.1,0-0.2,0-0.3c0-0.1,0-0.1,0-0.2c0,0,0-0.1,0-0.1c0-0.1,0-0.1,0-0.2l0,0
	c0,0,0-0.1,0-0.1c0-0.1,0-0.1,0-0.2c0,0,0-0.1,0-0.2c0,0,0-0.1,0-0.1c0,0,0-0.1,0-0.1c0,0,0-0.1,0-0.1c0,0,0-0.1,0-0.1
	c0-0.1,0.1-0.2,0.1-0.3c0.1,0,0.2-0.1,0.2-0.2c-0.1,0-0.1,0.1-0.2,0.2l0,0c0-0.3,0.2-0.6,0.2-0.9c0.1-0.5,0.1-1,0.3-1.5
	c0-0.1,0.2-0.1,0.1-0.2c0,0,0,0,0,0c0-0.1,0-0.1,0-0.2c0,0,0,0,0-0.1c0,0,0-0.1,0-0.1c0-0.1,0-0.1,0-0.2c0,0,0-0.1,0-0.1
	c0,0,0-0.1,0-0.1c0,0,0-0.1,0-0.1c0,0,0-0.1,0-0.1c0,0,0-0.1,0-0.1c0-0.1,0-0.2,0-0.3c0,0,0-0.1,0-0.1c0-0.1,0-0.2,0-0.2
	c0,0,0-0.1,0-0.1c0,0,0,0,0-0.1c0.1-0.3,0.1-0.6,0.2-1c0,0,0,0,0-0.1c0-0.1,0-0.1,0-0.2c0.2-0.2-0.2-0.3-0.1,0
	c-0.1,0.1-0.1,0.3-0.1,0.4c0,0.1,0,0.1-0.1,0.2c0,0,0,0.1,0,0.1c0,0.1,0,0.1,0,0.2l0,0c-0.1,0.2-0.1,0.3-0.1,0.5c0,0,0,0.1,0,0.1
	c0,0,0,0.1,0,0.1c0,0,0,0.1,0,0.1l0,0c-0.1,0.1,0,0.1,0,0.1c0,0.1,0,0.2,0,0.4c0,0,0,0.1,0,0.1c0,0,0,0.1,0,0.1c0,0,0,0.1,0,0.1
	c0,0,0,0.1,0,0.1l0,0c0,0.1,0,0.1,0,0.2c0,0,0,0.1,0,0.1c0,0,0,0.1,0,0.1c0,0,0,0,0,0c-0.1,0-0.2,0.1,0,0.1c0,0.2-0.1,0.4-0.1,0.6
	c0,0.1,0,0.1,0,0.2c0,0.1,0,0.1,0,0.2c0,0.1,0,0.1,0,0.2c0,0,0,0.1,0,0.1c0,0.1-0.1,0.2-0.1,0.3c-0.1,0.2-0.1,0.4-0.1,0.5
	c0,0,0,0,0,0c0,0,0-0.1,0-0.2c0,0,0-0.1,0-0.1c0,0,0-0.1,0-0.1c0-0.1,0-0.2,0-0.3c0,0,0-0.1,0-0.2c0-0.1,0-0.1,0-0.2
	c0-0.2,0-0.4,0-0.6c0-0.1,0-0.1,0-0.2c0,0,0,0,0,0c0,0,0-0.1,0-0.1c0,0,0-0.1,0-0.1c0-0.1,0-0.2,0-0.2c0,0,0-0.1,0-0.2
	c0.1,0,0.1-0.1,0.2-0.1c0.2-0.1,0-0.2,0,0c0,0-0.1,0-0.1,0.1l0,0c0,0,0-0.1,0-0.1c0,0,0-0.1,0-0.1c0-0.1,0.2-0.1,0.2-0.2
	c-0.1-0.1-0.2,0.1-0.2,0c0-0.2-0.1-0.5-0.1-0.7c0,0,0-0.1,0-0.1c0-0.1,0-0.1,0-0.2c0.1-0.1,0.2-0.2,0.3-0.3c0.2-0.2,0.4-0.4,0.5-0.6
	c0-0.1,0.1-0.1,0.1-0.2c0,0,0,0,0-0.1c0,0,0-0.1,0-0.1c0.1-0.1,0.1-0.2,0.1-0.4c0-0.1,0-0.2,0-0.2c0.1,0,0-0.2,0-0.2
	c0.1-0.1,0.1-0.1,0-0.1v0c0,0,0-0.1,0-0.1c0-0.1,0-0.2,0-0.2c0-0.2,0.1-0.4,0.1-0.6c0,0,0-0.1,0-0.1c0-0.1,0-0.2,0-0.3
	c0,0,0-0.1,0-0.1c0-0.1,0-0.2,0-0.3c0,0,0-0.1,0-0.1c0,0,0-0.1,0-0.1c0.1-0.2-0.1-0.3-0.1-0.1l0,0c0,0,0,0.1,0,0.1
	c0,0.1,0,0.2,0,0.3c0,0,0,0.1,0,0.1c0,0.2-0.1,0.4-0.1,0.5c0,0.2-0.1,0.4-0.1,0.6c0,0.3,0,0.5,0,0.8c0,0,0,0,0,0c0,0,0,0.1,0,0.1
	c0,0,0,0.1,0,0.1c0,0.1,0,0.1,0,0.2c-0.1,0.1-0.1,0.2-0.1,0.4c-0.1,0.1-0.1,0.2-0.2,0.3c0,0-0.1,0.1-0.1,0.1c0,0,0,0,0,0.1
	c-0.1,0.1-0.2,0.2-0.2,0.2c0,0,0,0,0,0.1c-0.1,0-0.1,0.1-0.2,0.1c-0.1-0.2-0.1-0.5,0-0.7c0-0.1-0.1-0.1-0.1-0.1c0,0.2-0.1,0.1-0.1,0
	c0-0.3,0-0.6-0.1-0.9c0,0,0.1-0.1,0.1-0.1c0,0,0,0,0.1,0c0,0,0,0,0-0.1c0.2-0.4,0.4-0.8,0.4-1.2c0-0.1,0-0.2,0-0.2
	c-0.1-0.1,0.2-0.4,0-0.4c0,0,0,0,0-0.1c0-0.1,0-0.1,0-0.2c0-0.4-0.1-0.8-0.2-1.2c0,0,0-0.1,0-0.1c0.1-0.1,0.2-0.3,0.3-0.4
	c0,0,0,0,0,0c0-0.1,0.1-0.2,0.1-0.3c0,0,0.1-0.1,0.1-0.1c0,0,0,0,0.1,0c0,0,0,0,0.1,0c0.1,0,0.2-0.1,0.3-0.2
	c0.1-0.2,0.2-0.3,0.3-0.5c0-0.1-0.1-0.1-0.1,0c0,0,0-0.1,0.1-0.1c0.2-0.1,0.3-0.3,0.4-0.5c0,0,0-0.1,0-0.1l0,0C19,4.2,19,3.9,19,3.6
	c0,0,0-0.1,0-0.1c0,0,0,0,0,0c0,0-0.1-0.1-0.1,0c0,0-0.1,0-0.1,0.1c0,0,0,0-0.1,0.1c0,0,0,0,0,0c0,0-0.1-0.1-0.1-0.1c0,0,0,0-0.1,0
	c0-0.1-0.1-0.1-0.1,0l0,0c-0.1,0-0.2,0.2-0.2,0.3c0,0,0,0-0.1,0c0,0,0,0-0.1,0c-0.2,0.1-0.2,0.4-0.2,0.6c0,0.1,0,0.2,0.1,0.3
	c-0.1,0-0.1,0.1-0.2,0.2c-0.1,0.1-0.1,0.2-0.1,0.3c0,0.1-0.1,0.3-0.1,0.4c0,0.1,0,0.2,0.2,0.2c-0.1,0.3-0.3,0.7-0.5,0.8
	c0-0.1-0.1-0.3-0.1-0.1c0,0,0,0.1,0,0.2c0,0,0,0,0,0c0,0,0,0.1,0,0.1c0,0,0,0.1-0.1,0.1c-0.1,0.2-0.2,0.5-0.3,0.7c0-0.1,0-0.1,0-0.2
	c0,0,0-0.1,0-0.1c0,0,0-0.1,0-0.1c0,0,0-0.1,0-0.2c0-0.1,0-0.1,0-0.2c0-0.2,0.1-0.3,0.2-0.5C17,6.3,17,6.2,17,6.1c0,0,0-0.1,0-0.1
	l0,0c0,0,0-0.1,0-0.1c0,0,0-0.1,0-0.1c0,0,0-0.1,0-0.1l0,0c0,0,0-0.1,0-0.2c0-0.1,0.1-0.3,0.1-0.4c0,0,0-0.1,0-0.1
	c0-0.2,0.1-0.5,0.1-0.8c0,0,0-0.1,0-0.1c0,0,0-0.1,0-0.1c0,0,0.1,0,0.1-0.1c0.1-0.1,0.1-0.2,0.1-0.3c0,0,0-0.1,0-0.1
	c0-0.1,0.1-0.1,0.1-0.2c0-0.1,0-0.2,0-0.2c0,0,0,0-0.1,0c0,0-0.1,0-0.1,0.1c0,0-0.1,0-0.1,0c0,0,0,0,0,0c0-0.1,0-0.1,0.1-0.1
	c0,0,0.1,0,0.1,0c0,0,0.1,0,0.1,0c0.5-0.1,0.6-0.6,0.4-1c0-0.1-0.1-0.1-0.2-0.1c0,0-0.1,0.1-0.1,0.1c0,0-0.1,0-0.1,0
	c0-0.1-0.1,0-0.1,0c0,0.1,0,0.1,0,0.2c0,0-0.1,0-0.1,0.1c0,0-0.1,0-0.1,0c0,0,0,0,0-0.1c0.2-0.2,0.2-0.5,0-0.7
	c0-0.1-0.1-0.1-0.2-0.2c0,0,0,0,0,0h0h-0.1l0,0c0,0,0,0-0.1,0c0,0-0.1,0-0.1,0.1c0,0,0,0,0,0c0,0-0.1,0-0.1,0.1
	c-0.1,0.2,0,0.4,0,0.5c0,0.1,0,0.1-0.1,0.1c0,0,0,0,0,0c0,0,0-0.1-0.1,0c0,0-0.1-0.1-0.1-0.1c0-0.1-0.1-0.3-0.3-0.3
	c-0.1,0-0.1,0-0.2,0c0,0-0.1,0-0.1,0c0,0.1,0,0.2,0,0.3l0,0c0,0.1,0,0.1,0.1,0.2c0,0.1,0.1,0.1,0.2,0.1c0.1,0.1,0.1,0.1,0.2,0.1
	c0,0,0,0,0,0.1c-0.1,0.1-0.1,0.2,0,0.2c0,0,0.1,0.1,0.1,0.1c0,0,0.1,0,0.1,0c0,0,0,0.1,0,0.1c0,0.1,0,0.2,0,0.3c0,0.1,0,0.1,0,0.2
	c0,0,0,0.1,0,0.1c0,0,0,0.1,0.1,0.1c0,0,0,0,0.1,0c0,0,0.1,0,0.1,0c0,0.1,0,0.1,0,0.2c0,0,0,0.1,0,0.1c0,0.4-0.1,0.8-0.1,1.2
	c0,0,0,0.1,0,0.1c0,0.3-0.1,0.6-0.2,1c0,0.1-0.1,0.2-0.1,0.2c0,0,0,0,0,0c-0.1-0.2-0.1-0.3-0.1-0.5c0,0,0-0.1,0-0.1
	c0-0.2,0.1-0.3,0.2-0.4c0.1-0.1,0.1-0.2,0.1-0.3c0,0,0,0,0,0c0-0.1,0.1-0.1,0.1-0.2c0,0,0-0.1,0-0.1c0,0,0-0.1,0-0.1
	c0-0.1,0-0.2,0-0.3c0-0.1-0.1,0-0.2,0c0-0.1,0.1-0.4-0.1-0.3c0,0,0,0,0,0l0,0c0.1-0.1,0.1-0.3,0.1-0.5c0-0.1-0.1-0.3-0.2-0.4
	c0,0-0.1-0.1-0.1-0.1c-0.1-0.1-0.3,0.1-0.2,0.2c0,0,0,0,0,0c0,0.1,0,0.3,0.1,0.4c0,0.1,0,0.1,0.1,0.1c0,0,0,0,0.1,0.1c0,0,0,0,0.1,0
	c0,0,0,0,0,0c0,0.1-0.1,0.1-0.2,0.2c0,0,0,0,0,0c0,0-0.1,0,0,0.1c-0.1,0-0.1-0.1-0.1-0.1c0.2-0.2-0.1-0.5-0.3-0.4l0,0c0,0,0,0,0,0
	c0,0,0-0.1,0-0.1c0,0,0-0.1,0-0.1c0-0.2-0.1-0.3-0.1-0.5c0-0.1-0.1-0.2-0.1-0.2c0,0,0,0,0,0c-0.1-0.1-0.3,0-0.3,0.2c0,0,0,0.1,0,0.1
	c0,0.1,0,0.2,0.1,0.3c0,0,0,0.1,0,0.1c0,0,0,0,0,0c0,0,0,0.1,0,0.1c0,0.2,0.2,0.3,0.3,0.4c0,0-0.1,0.1-0.1,0.1c0,0,0,0,0,0
	c0-0.1-0.1-0.2-0.2-0.2c-0.1,0-0.1,0.1-0.2,0.1c0,0,0,0,0,0.1l0,0v0.1l0,0c0,0.1,0,0.1,0.1,0.2c0,0.1,0.1,0.1,0.1,0.1
	c0,0,0.1,0.1,0.1,0.1c0,0,0.1,0.1,0.1,0.1c0,0,0,0.1,0,0.1l0,0c0,0.2,0,0.3,0,0.5c0,0,0,0.1,0,0.2c0,0.1,0.1,0.3,0.2,0.2
	c0,0,0,0.1,0.1,0.1C16,6.2,16.2,6.7,16.4,7c0.2,0.2,0.2,0.6,0.2,0.8c0,0,0,0.1,0,0.1c0,0.1,0,0.2,0,0.3c0,0,0,0.1,0,0.1
	c0,0,0,0.1,0,0.1c0,0,0,0.1,0,0.1c0,0.1,0,0.1,0,0.2c0,0.1,0,0.1,0,0.2c0,0.1,0,0.1,0,0.2c0,0.1,0,0.2,0,0.2c0,0.1,0,0.3,0,0.4v0
	c0,0.1,0,0.2,0,0.4c0,0.1,0,0.3,0,0.4c0,0,0,0.1,0,0.1c0,0.1,0,0.2,0,0.2c0,0.1,0,0.1,0,0.2c0,0,0,0,0,0.1c0,0.1,0,0.2,0.1,0.3
	c0,0.1,0,0.3,0.1,0.4c0,0.1,0.1,0.2,0.1,0.3c0,0,0,0,0,0.1c0,0,0,0.1,0,0.1c0,0.1,0,0.1,0,0.2c0,0,0,0.1,0,0.1c0,0,0,0,0,0.1
	c0,0,0,0.1,0,0.1c0,0,0,0.1,0,0.1c0,0,0,0,0,0c0,0.1,0,0.2,0,0.3c0,0.1,0,0.2,0,0.2c-0.1-0.1-0.1-0.1-0.2-0.1
	c-0.1-0.1-0.1-0.2-0.2-0.3c-0.1-0.1-0.1-0.3-0.2-0.4c0-0.1-0.1-0.2-0.1-0.3c0,0,0,0,0-0.1c0,0,0-0.1,0-0.1c0-0.3,0.1-0.6,0.1-0.9
	c0-0.1,0-0.3,0-0.4c0-0.1,0-0.2,0-0.2c0-0.2,0-0.4-0.1-0.5c0,0,0-0.1,0-0.1c0-0.1,0-0.3-0.1-0.2c0,0.1-0.1,0.1,0,0.2c0,0,0,0,0,0
	c0,0,0,0.1,0,0.1l0,0c0,0.1,0,0.1,0,0.2l0,0c0,0,0,0.1,0,0.1c0,0,0,0.1,0,0.1c0,0,0,0.1,0,0.2c0,0.1,0,0.3,0,0.4c0,0,0,0.1,0,0.1
	c0,0.1,0,0.2,0,0.3c0,0.1,0,0.4-0.1,0.2c-0.1-0.2-0.1-0.4-0.2-0.6c0,0,0-0.1,0-0.1c0-0.2-0.1-0.4-0.1-0.6c0,0,0-0.1,0-0.1
	c0,0,0-0.1,0-0.1c0,0,0-0.1,0-0.1c0,0,0-0.1,0-0.1c0,0,0-0.1,0-0.1c0-0.1,0-0.1,0-0.2c0-0.1,0-0.2,0-0.3c0,0,0-0.1,0-0.1
	c0-0.1,0-0.1,0-0.2c0-0.3-0.1-0.5-0.1-0.8c0-0.1,0-0.1-0.1,0c0,0-0.1,0.1-0.1,0.1c0,0,0,0.1,0,0.1c0,0.1,0,0.2,0,0.3
	c0,0,0,0.1,0,0.1c0,0.1,0,0.2,0,0.3c0,0,0,0,0,0c0,0.1,0,0.3,0,0.4l0,0c0,0,0,0.1,0,0.1c0,0,0,0,0,0c0,0.1,0,0.3,0,0.4
	c0,0,0,0.1,0,0.2c0,0,0,0,0,0.1c0,0,0,0.1,0,0.1c0,0,0,0.1,0,0.1c0,0,0,0.1,0,0.1c0,0,0,0.1,0,0.1c0,0.1,0,0.2,0.1,0.3
	c0,0.1,0,0.2,0,0.3c0,0,0,0.1,0,0.1l0,0c0,0,0,0.1,0,0.1c0.1,0.1,0.2,0.3,0.3,0.4c0,0.1,0,0.2,0,0.3c0,0.1,0,0.1,0,0.2
	c0,0.1,0,0.2,0,0.4c0,0,0,0,0,0.1c0,0.1,0.1,0.2,0.1,0.3l0,0c0,0,0,0.1,0,0.1l0,0c0,0,0,0,0,0.1c0,0.1,0.1,0.3,0.1,0.4
	c0,0.1-0.1,0.3-0.1,0.4c-0.1,0.1-0.1,0.3-0.2,0.4c0,0.1,0,0.1-0.1,0.2c0,0.1-0.1,0.2-0.1,0.3c0,0.1-0.1,0.2-0.1,0.4
	c0,0.1,0,0.1,0,0.2c0,0,0,0.1,0,0.1c0,0.1-0.1,0.2-0.1,0.4c0.3,0.1,0.3,0.5,0.4,0.7c0,0,0,0,0,0.1c0.1,0.2,0.1,0.4,0.3,0.5
	c0,0.1,0.1,0.2,0.2,0.3c0,0.1,0.1,0.1,0.1,0.2c0,0.1,0.1,0.1,0.1,0.2c0,0,0,0,0,0c0,0,0,0.1,0,0.1c0,0.1,0,0.2,0,0.3c0,0,0,0,0,0
	c0,0,0,0.1,0,0.1c0,0,0,0.1,0,0.1c0,0.1,0,0.1,0,0.2c0,0,0,0.1,0,0.1c0,0,0,0.1,0,0.1c0,0,0,0.1,0,0.1c-0.1,0-0.2,0-0.2,0.2
	c0,0-0.1,0-0.1,0c0,0-0.1,0-0.2,0c0,0,0,0.1,0,0.2c0,0.1,0,0.3,0.2,0.3c0.1,0,0.2,0,0.2,0.1c0,0,0,0.1,0,0.1c0,0,0,0.1,0,0.1
	c0,0.3,0,0.5,0,0.8c0,0,0,0.1,0,0.1c0,0,0,0.1,0,0.1c0,0,0,0.1,0,0.2c0,0,0,0.1,0,0.2c0,0,0,0.1,0,0.1c0,0.1,0,0.2,0,0.3
	c0,0,0,0,0,0c0,0.1,0,0.2,0,0.3c0,0.1,0,0.1,0,0.2c0,0,0,0,0,0.1c0,0,0,0,0,0c0,0.1-0.1,0.1-0.1,0.2c0,0,0,0-0.1,0.1
	c0,0,0,0.1,0.1,0.1c0,0,0.1,0,0.1,0c0,0,0.1,0,0.1,0l0,0c0,0.1,0,0.3,0,0.4c0,0,0,0.1,0,0.1c0,0.1,0,0.1,0,0.2c0,0,0,0.1,0,0.1
	c0,0,0,0.1,0,0.1c0,0,0,0.1,0,0.1c0,0,0,0.1,0,0.1c0,0,0,0.1,0,0.1c0,0.1,0,0.2,0,0.3c0,0,0,0.1,0,0.1c0,0,0,0.1,0,0.1
	c0,0,0,0.1,0,0.1c0,0.1,0,0.1,0,0.2c0,0.1,0,0.3,0,0.4c0,0.1,0,0.1,0,0.2c0,0,0,0.1,0,0.2c0,0,0,0.1,0,0.1c0,0.1,0,0.2,0,0.3
	c0,0,0,0,0,0c0,0,0,0.1,0,0.1c0,0,0,0.1,0,0.1c0,0,0,0.1,0,0.1c0,0.1,0,0.1-0.1,0l0,0c0,0,0-0.1,0-0.1c0,0,0-0.1,0-0.1
	c0-0.1,0-0.3,0-0.4c0,0,0-0.1,0-0.1c0,0,0-0.1,0-0.1c0,0,0-0.1-0.1-0.1c0,0,0-0.1,0-0.1c0-0.1,0-0.1,0-0.2c0-0.1,0-0.1,0-0.2
	c0,0,0,0,0-0.1c0-0.1,0-0.1,0-0.2c0,0,0,0,0,0c0-0.1,0.1-0.2,0-0.3c0,0,0,0,0,0c0,0,0,0-0.1-0.1c0-0.1,0-0.2,0-0.3c0,0,0-0.1,0-0.1
	c0-0.1,0.1-0.1,0-0.2c0,0,0-0.1-0.1-0.1c0,0,0.1,0,0.2-0.1c0.1-0.1,0.2-0.2,0.1-0.3c0-0.1,0-0.1-0.1-0.1c0,0-0.1,0-0.2,0
	c0,0-0.1,0-0.1,0c0-0.2-0.1-0.2-0.2-0.2c0,0,0-0.1,0-0.1c0,0,0-0.1,0-0.1c0,0,0-0.1,0-0.1c0-0.1,0-0.1,0-0.2c0,0,0-0.1,0-0.1
	c0,0,0-0.1,0-0.1c0,0,0,0,0,0c0-0.1,0-0.2,0-0.3c0,0,0-0.1,0-0.1c0,0,0,0,0,0c0-0.1,0-0.1,0.1-0.2c0-0.1,0.1-0.1,0.1-0.2
	c0-0.1,0.1-0.2,0.1-0.3c0.1-0.2,0.1-0.4,0.2-0.5c0,0,0,0,0-0.1c0.1-0.2,0-0.6,0.3-0.7c0-0.1-0.1-0.2-0.1-0.3c0,0,0-0.1,0-0.1
	c0-0.1,0-0.1-0.1-0.2c0-0.1-0.1-0.2-0.2-0.4c0-0.1-0.1-0.2-0.1-0.3c0-0.1-0.1-0.1-0.1-0.2c-0.1-0.1-0.1-0.3-0.2-0.4
	c-0.1-0.1-0.1-0.2-0.2-0.4c0-0.1,0.1-0.3,0.1-0.4c0,0,0,0,0-0.1l0,0c0,0,0-0.1,0-0.1l0,0c0-0.1,0-0.2,0.1-0.3c0,0,0,0,0-0.1
	c0-0.1,0-0.2,0-0.4c0-0.1,0-0.1,0-0.2c0-0.1,0-0.2-0.1-0.3c0.1-0.1,0.1-0.3,0.2-0.4c0,0,0-0.1,0-0.1v0c0,0,0-0.1,0-0.1
	c0-0.1,0-0.2,0-0.3c0-0.1,0-0.2,0-0.3c0,0,0-0.1,0-0.1c0,0,0-0.1,0-0.1c0,0,0-0.1,0-0.1c0,0,0-0.1,0-0.1c0,0,0,0,0-0.1
	c0,0,0-0.1,0-0.2c0-0.1,0-0.3-0.1-0.4c0,0,0,0,0,0c0,0,0-0.1,0-0.1l0,0c0-0.1,0-0.3,0-0.4c0,0,0,0,0,0c0-0.1,0-0.2,0-0.3
	c0,0,0-0.1,0-0.1c0-0.1,0-0.2-0.1-0.3c0,0,0-0.1,0-0.1c0,0,0-0.1-0.1-0.1c-0.1,0-0.1,0-0.1,0c0.1,0.3,0,0.5,0.1,0.8
	c0,0.1,0,0.1,0,0.2c0,0,0,0.1,0,0.1c0,0.1,0,0.2,0.1,0.3c0,0.1,0,0.1,0,0.2c0,0,0,0.1,0,0.1c0,0,0,0.1,0,0.1c0,0,0,0.1,0,0.1
	c0,0,0,0.1,0,0.1c0,0,0,0.1,0,0.1c0,0.2,0,0.4,0,0.6c0,0,0,0.1,0,0.1c0,0.2,0,0.4-0.1,0.6c-0.1,0.2-0.1-0.2-0.2-0.2
	c0-0.1,0-0.2-0.1-0.3c0,0,0-0.1,0-0.1c0-0.1-0.1-0.3-0.1-0.4c0,0,0-0.1,0-0.2c0,0,0-0.1,0-0.1c0-0.1,0-0.1,0-0.1l0,0
	c0-0.1,0-0.1,0-0.2l0,0c0,0,0-0.1,0-0.1c0,0,0,0,0,0c0-0.1,0-0.1-0.1-0.2c-0.1,0-0.1,0.2-0.1,0.2c0,0,0,0.1,0,0.1c0,0.2,0,0.4,0,0.5
	c0,0.1,0,0.2,0,0.2c0,0.1,0,0.3,0,0.4c0.1,0.3,0.2,0.6,0.2,0.9c0,0,0,0.1,0,0.1c0,0,0,0,0,0.1c0,0.1-0.1,0.2-0.1,0.3
	c-0.1,0.1-0.1,0.3-0.2,0.4c0,0.1-0.1,0.2-0.1,0.3c-0.1,0.1-0.1,0.1-0.2,0.2c0-0.1,0-0.2,0-0.2c0-0.1,0-0.2,0-0.3c0,0,0,0,0,0
	c0,0,0-0.1,0-0.1c0,0,0-0.1,0-0.1c0,0,0,0,0-0.1c0,0,0-0.1,0-0.1c0-0.1,0-0.1,0-0.2c0,0,0-0.1,0-0.1c0,0,0,0,0-0.1
	c0-0.1,0-0.2,0-0.4c0-0.1,0-0.3,0-0.4c0-0.1,0-0.2,0-0.3c0,0,0,0,0-0.1c0-0.1,0-0.1,0-0.2c0-0.1,0-0.2,0-0.2c0,0,0-0.1,0-0.1
	c0-0.1,0-0.3,0-0.4c0-0.1,0-0.2-0.1-0.4l0,0c0-0.1,0-0.3-0.1-0.4c0-0.1,0-0.2,0-0.2c0-0.1,0-0.1,0-0.2c0-0.1,0-0.1,0-0.2
	c0-0.1,0-0.1,0-0.2c0,0,0-0.1,0-0.1c0,0,0-0.1,0-0.1c0,0,0-0.1,0-0.1c0-0.1,0-0.2,0-0.3c0,0,0-0.1,0-0.1c0-0.3,0-0.6,0.1-0.9
	c0.2-0.4,0.3-0.8,0.4-1.3c0,0,0.1-0.1,0-0.1c0.2,0,0.2-0.1,0.2-0.2c0,0,0-0.1,0-0.2c0-0.2,0-0.3-0.1-0.4l0,0c0,0,0,0,0-0.1
	c0,0,0.1,0,0.1-0.1c0.1,0,0.1,0,0.1-0.1c0-0.1,0.1-0.1,0.1-0.2c0-0.1,0-0.1,0-0.2l0,0l0-0.1l0,0c0,0,0,0,0-0.1
	c-0.1,0-0.1-0.1-0.2-0.1c-0.1,0-0.1,0.1-0.1,0.2c0,0,0,0,0,0c0,0-0.1-0.1-0.1-0.1c0.1-0.1,0.2-0.2,0.2-0.4c0,0,0-0.1,0-0.1
	c0,0,0,0,0,0c0,0,0-0.1,0-0.1c0-0.1,0-0.2,0-0.3c0,0,0-0.1,0-0.1c0-0.2-0.2-0.2-0.3-0.1c0,0,0,0,0,0c-0.1,0.1-0.1,0.2-0.1,0.2
	c0,0.2,0,0.3,0,0.5c0,0,0,0.1,0,0.1c0,0,0,0.1,0,0.1c0,0,0,0,0,0l0,0c-0.2,0-0.5,0.3-0.3,0.4c0,0.1,0.1,0.1,0,0.1c0,0,0-0.1-0.1-0.1
	c0,0,0,0-0.1,0c-0.1,0-0.2,0-0.2-0.1c0,0,0,0,0,0c0,0,0,0,0.1-0.1c0,0,0,0,0-0.1c0,0,0.1-0.1,0.1-0.1c0-0.1,0-0.3,0-0.4c0,0,0,0,0,0
	c0-0.1-0.2-0.2-0.3-0.1c0,0-0.1,0.1-0.1,0.1C14,7.7,14,7.8,14,8c0,0.2,0.1,0.3,0.1,0.4l0,0c0,0,0,0,0,0c-0.2,0-0.1,0.2-0.1,0.3
	c-0.1,0-0.1,0-0.1,0c0,0.1,0,0.2,0,0.3c0,0,0,0.1,0,0.1c0,0,0,0.1,0,0.1c0,0.1,0.1,0.1,0.2,0.2c0,0,0,0,0,0c0.1,0.1,0.1,0.2,0.2,0.3
	c0.1,0.1,0.2,0.2,0.2,0.4c0,0,0,0.1,0,0.1c0,0.2,0,0.3-0.1,0.5c0,0,0,0,0,0c-0.1-0.1-0.1-0.1-0.2-0.2c-0.1-0.3-0.3-0.6-0.4-0.9
	c0,0,0-0.1,0-0.1c-0.1-0.4-0.2-0.7-0.3-1.1c0,0,0-0.1,0-0.1c0-0.1,0-0.1,0-0.2c0,0,0.1,0,0.1,0c0,0,0,0,0.1,0c0.1,0,0-0.1,0-0.1
	c0,0,0-0.1,0-0.1c0-0.1,0-0.1,0-0.2c0-0.1,0-0.2,0-0.3c0,0,0-0.1,0-0.1c0,0,0,0,0.1,0C13.9,7.1,14,7.1,14,7C14,6.9,14,6.8,14,6.8
	c0,0,0,0,0-0.1c0.1,0,0.2-0.1,0.2-0.2c0.1,0,0.1-0.1,0.2-0.1c0.1,0,0.1-0.1,0.1-0.2l0,0c0-0.1-0.1-0.2-0.1-0.3c0,0-0.1,0-0.1,0
	c-0.1,0-0.1,0-0.2,0c-0.1,0-0.2,0.2-0.2,0.3c0,0-0.1,0.1-0.1,0.1c0,0-0.1,0-0.1,0.1c0,0,0,0,0,0c-0.1,0-0.1-0.1-0.1-0.1
	c0-0.2,0-0.4-0.1-0.5c0,0,0-0.1-0.1,0c0,0,0,0,0,0c0,0,0-0.1-0.1,0c0,0,0,0-0.1,0l0,0l-0.1,0l0,0c0,0,0,0,0,0
	c-0.1,0-0.1,0.1-0.1,0.2c-0.2,0.2-0.1,0.5,0.1,0.7c0,0,0,0,0,0.1c0,0-0.1,0-0.1,0c0,0,0-0.1-0.1-0.1c0-0.1,0-0.1-0.1-0.2
	c0-0.1-0.1-0.1-0.1,0c0,0-0.1,0-0.1,0c0,0-0.1-0.1-0.1-0.1c-0.1,0-0.2,0-0.2,0.1c0,0.4,0.1,0.9,0.6,0.9c0,0,0.1,0,0.1,0
	c0,0,0.1,0,0.1,0c0.1,0,0.1,0.1,0.1,0.1c0,0,0,0,0,0c0,0-0.1-0.1-0.1,0c0,0-0.1,0-0.1,0c0,0,0,0-0.1,0c0,0.1,0,0.2,0,0.2
	c0,0.1,0.1,0.1,0.1,0.1c0,0,0,0.1,0,0.1c0,0.1,0.1,0.2,0.2,0.3c0,0,0.1,0,0.1,0.1c0,0,0,0.1,0.1,0.1c0,0,0,0.1,0,0.1
	c0,0.2,0.1,0.5,0.2,0.7c0,0,0,0.1,0,0.1c0,0.1,0.1,0.3,0.1,0.4c0,0,0,0.1,0,0.1l0,0c0,0,0,0.1,0,0.1c0,0,0,0.1,0,0.1
	c0,0,0,0.1,0,0.1l0,0c0,0,0,0.1,0,0.1c0,0.1,0.1,0.2,0.1,0.3c0.1,0.2,0.2,0.3,0.2,0.4c0,0.1,0,0.1,0,0.2c0,0,0,0.1,0,0.2
	c0,0,0,0.1,0,0.1c0,0,0,0.1,0,0.1c0,0.1,0,0.1,0,0.2c-0.1-0.2-0.2-0.4-0.4-0.6c0,0-0.1-0.1-0.1-0.1c0,0,0-0.1,0-0.1c0,0,0,0,0,0
	c0,0,0-0.1,0-0.1c-0.1-0.1-0.1,0-0.1,0.1c-0.3-0.1-0.5-0.5-0.6-0.7c0.1,0,0.2-0.1,0.1-0.2c0-0.1-0.1-0.3-0.2-0.4
	c0-0.1-0.1-0.2-0.1-0.2C13.1,9.1,13.1,9,13,9c0-0.1,0-0.2,0-0.3c0-0.2,0-0.5-0.3-0.5c0,0,0,0-0.1,0c0,0,0,0-0.1,0
	c0-0.1-0.1-0.2-0.2-0.3l0,0c0,0-0.1,0-0.1,0c0,0,0,0-0.1,0c-0.1,0-0.1,0.1-0.1,0.1c0,0,0,0,0,0c0,0,0,0-0.1,0c0,0-0.1,0-0.1,0
	c-0.1,0-0.1,0-0.1,0.1c0,0,0,0,0,0c0,0-0.1,0,0,0.1c0,0.3,0,0.6,0.2,0.9l0,0C12,9,12,9,12,9c0.1,0.2,0.2,0.4,0.4,0.4
	c0,0,0.1,0.1,0.1,0.1c-0.1-0.1-0.2,0-0.1,0.1c0.1,0.2,0.2,0.3,0.3,0.5c0.1,0.1,0.2,0.2,0.3,0.2c0,0,0,0,0.1,0c0,0,0,0,0.1,0
	c0,0,0.1,0,0.1,0.1c0.1,0.1,0.1,0.2,0.2,0.3c0,0,0,0,0,0c0.1,0.1,0.3,0.3,0.4,0.4c0,0,0,0.1,0,0.1c0,0.4,0,0.8,0,1.3
	c0,0.1,0,0.1,0,0.2c0,0,0,0,0,0.1c-0.2,0,0.1,0.2,0,0.4c0,0.1,0,0.2,0.1,0.2c0.1,0.4,0.3,0.8,0.6,1.1c0,0,0,0,0.1,0.1c0,0,0,0,0.1,0
	c0,0,0.1,0.1,0.1,0.1c0,0.3,0,0.6,0.1,0.9c0,0.1-0.1,0.2-0.1,0.1c0-0.1-0.1,0-0.1,0.1c0.1,0.2,0.2,0.4,0.1,0.7
	c-0.1,0-0.1-0.1-0.2-0.1c0,0,0,0-0.1-0.1c-0.1-0.1-0.2-0.1-0.3-0.2c0,0,0,0-0.1,0c0,0-0.1-0.1-0.1-0.1c-0.1-0.1-0.1-0.2-0.2-0.2
	c-0.1-0.1,0-0.3-0.2-0.3c0-0.1,0-0.1,0-0.2c0,0,0-0.1,0-0.1c0,0,0-0.1,0-0.1c0,0,0,0,0,0c0-0.3-0.1-0.5-0.1-0.8
	c-0.1-0.2-0.1-0.4-0.2-0.6c-0.1-0.2-0.1-0.3-0.2-0.5c0,0,0-0.1,0-0.1c0-0.1,0-0.2,0-0.3c0,0,0-0.1,0-0.1l0,0c0-0.2-0.2,0-0.1,0.1
	c0,0,0,0.1,0,0.1c0,0,0,0.1,0,0.1c0,0.1,0,0.2,0,0.3c0,0,0,0.1,0,0.1c0,0.1,0,0.2,0.1,0.3c0,0,0,0.1,0,0.1c0,0.2,0.1,0.4,0.2,0.6
	c0,0.1,0,0.2,0,0.2c0,0,0,0.1,0,0.1l0,0c0,0,0,0.1,0,0.1c0,0.1-0.1,0.2,0,0.2c0,0.1,0,0.2,0.1,0.2c0,0.1,0.1,0.2,0.2,0.3
	c0,0,0,0.1,0,0.1c0,0,0,0,0,0.1c0,0.1,0.1,0.1,0.1,0.2c0.2,0.2,0.4,0.4,0.6,0.5c0.1,0.1,0.2,0.2,0.3,0.2c0,0.1,0,0.1,0,0.2
	c0,0,0,0.1,0,0.1c0,0.2,0,0.5,0,0.7c0,0.1-0.1-0.1-0.2,0.1c0,0.1,0.1,0.1,0.2,0.1c0,0,0,0.1,0,0.1c0,0,0,0.1,0,0.1l0,0
	c0,0-0.1,0-0.1-0.1c-0.1-0.1-0.2,0,0,0c0.1,0,0.1,0.1,0.2,0.1c0,0,0,0.1,0,0.2c0,0.1,0,0.2,0,0.2c0,0,0,0.1,0,0.1c0,0,0,0.1,0,0.1
	c0,0,0,0,0,0c0,0.1,0,0.1,0,0.2c0,0.2,0.1,0.4,0.1,0.6c0,0.1,0,0.1,0,0.2c0,0,0,0.1,0,0.2c0,0.1,0,0.2,0,0.3c0,0,0,0.1,0,0.1
	c0,0,0,0.1,0,0.1c0,0,0,0.1,0,0.2c0,0,0,0,0,0c-0.1-0.2-0.2-0.3-0.2-0.5c0-0.1-0.1-0.2-0.1-0.3c0,0,0-0.1,0-0.1c0-0.1,0-0.1-0.1-0.2
	c0-0.1,0-0.1,0-0.2c0,0,0-0.1,0-0.1c-0.1-0.2-0.1-0.4-0.2-0.5c0.1-0.1,0.1-0.1-0.1-0.1c0,0,0,0,0,0c0,0,0-0.1,0-0.1c0,0,0-0.1,0-0.1
	c0-0.1,0-0.1-0.1-0.2l0,0c0,0,0-0.1,0-0.1c0,0,0-0.1,0-0.1c0,0,0-0.1,0-0.1c0,0,0-0.1,0-0.1c0-0.1,0-0.2-0.1-0.4c0,0,0-0.1,0-0.1
	l0,0c0,0,0-0.1,0-0.1c0,0,0-0.1,0-0.1c0,0,0-0.1,0-0.1c0-0.2-0.1-0.3-0.2-0.5l0,0c0-0.1,0-0.1-0.1-0.2c0,0,0-0.1-0.1-0.1
	c0-0.1,0-0.1-0.1-0.2c-0.1-0.1-0.1-0.2-0.2-0.4c0-0.3-0.3-0.2-0.1,0c0,0,0,0.1,0.1,0.1c0,0,0,0,0,0.1c0.1,0.3,0.2,0.6,0.3,0.9
	c0,0,0,0,0,0.1c0,0,0,0.1,0,0.1c0,0.1,0,0.2,0,0.2c0,0,0,0.1,0,0.1c0,0.1,0,0.2,0.1,0.3c0,0,0,0.1,0,0.1c0,0,0,0.1,0,0.1
	c0,0,0,0.1,0,0.1c0,0,0,0.1,0,0.1c0,0,0,0.1,0,0.1c0,0.1,0,0.1,0.1,0.2c0,0,0,0.1,0,0.1c0,0,0,0,0,0.1c0,0.1,0,0.1,0.1,0.2
	c0,0,0,0,0,0c-0.1,0.1,0.1,0.1,0.1,0.2c0.2,0.5,0.3,0.9,0.5,1.4c0.1,0.3,0.3,0.5,0.4,0.8l0,0c-0.1-0.1-0.1-0.2-0.2-0.1
	c0,0.1,0.1,0.1,0.2,0.1c0,0.1,0.2,0.1,0.2,0.3c0,0,0,0.1,0,0.1c0,0,0,0.1,0,0.1c0,0,0,0.1,0,0.1c0,0,0,0.1,0,0.1c0,0,0,0.1,0,0.2
	c0,0.1,0,0.1,0,0.2c0,0,0,0.1,0,0.1l0,0c0,0.1,0,0.1,0,0.2c0,0,0,0.1,0,0.1c0,0.1,0,0.1,0,0.2c0,0.1,0,0.2,0,0.3c0,0,0,0.1,0,0.1
	c0,0.1,0,0.1,0,0.2c0,0,0,0.1,0,0.2c0,0,0,0.1,0,0.1c0,0.1,0,0.1-0.1,0.1c0,0,0,0,0,0c-0.1-0.1-0.2,0-0.1,0.1c0,0,0,0.1,0,0.1
	c-0.1-0.1-0.3,0-0.2,0.1c0.1,0.2,0.3,0.1,0.5,0.3c0,0.1-0.1,0.2,0,0.3c0,0,0.1,0.1,0.1,0.1c0,0.1,0,0.3-0.1,0.4c0,0,0,0,0,0.1
	c0,0.1,0,0.2,0,0.3c0,0.1,0,0.1,0,0.2c0,0.1-0.1,0.2-0.1,0.2c0,0.1,0,0.2,0,0.3c0,0,0,0.1,0,0.1c0,0-0.1,0-0.1,0c0,0,0,0,0,0
	c0,0,0-0.1,0-0.1c-0.1-0.2-0.1-0.4-0.3-0.5c0-0.1,0-0.2-0.1-0.2c0,0,0-0.1,0-0.1c-0.1-0.1-0.1-0.3-0.2-0.4c0-0.1-0.1-0.1-0.1-0.2
	c0,0,0,0,0-0.1c0,0,0,0-0.1-0.1c0-0.1,0-0.1-0.1-0.2c0,0-0.1-0.1-0.1-0.2c0,0,0,0-0.1-0.1c0-0.1-0.1-0.1-0.1-0.1
	c-0.1-0.3-0.3-0.6-0.5-0.8c0,0,0-0.1,0-0.1c-0.2-0.4-0.4-0.9-0.6-1.3c0,0,0-0.1,0-0.1c-0.1-0.1-0.1-0.2-0.2-0.3c0,0,0,0,0,0
	c0-0.1-0.1-0.2-0.1-0.3c0,0,0,0,0-0.1c0,0,0-0.1-0.1-0.1c0,0,0-0.1-0.1-0.1c0,0,0-0.1-0.1-0.1c0-0.1-0.1-0.2-0.1-0.2l0,0
	c0-0.1-0.1-0.3-0.2-0.4c0-0.1-0.1-0.2-0.1-0.3c0-0.1-0.1-0.2-0.1-0.2c0-0.1,0-0.1-0.1-0.2c0,0,0,0,0-0.1c0,0,0,0,0-0.1
	c0-0.2,0.1-0.3,0.1-0.4c0-0.2,0-0.4,0-0.5c0-0.1,0-0.1,0-0.2c0-0.1,0-0.3,0-0.4c0,0,0,0,0-0.1c0,0,0,0,0,0c0.1,0,0.1-0.1,0.1-0.1
	c0,0,0,0,0,0c0,0,0-0.1,0-0.1c0-0.1,0-0.3,0-0.4c0-0.1,0-0.1-0.1-0.2c0,0,0-0.1-0.1-0.1l0,0c0,0,0-0.1-0.1-0.1c0,0,0,0-0.1,0
	c0,0-0.1,0.1-0.1,0.1c0,0,0,0,0,0l0,0c0,0,0,0,0,0c0,0.1,0,0.2,0,0.3c0,0.1,0,0.3,0,0.4c0,0,0,0.1,0,0.1c0,0,0,0.1,0,0.1
	c0.1,0,0.1,0.1,0.2,0.1c0,0.2,0,0.4,0.1,0.5c0,0,0,0.1,0,0.1c0,0.2,0,0.3,0,0.5c0,0.1-0.1,0.2-0.1,0.3c0,0,0,0,0,0
	c0-0.1-0.1-0.1-0.1-0.2c0-0.1,0-0.1-0.1-0.2c0,0,0-0.1,0-0.1c0,0,0-0.1,0-0.1c0,0,0-0.1,0-0.1c0-0.1,0-0.2-0.1-0.3
	c0,0,0-0.1-0.1-0.1c0-0.1,0-0.1,0-0.2c0,0,0-0.1,0-0.1c0-0.1,0-0.2-0.1-0.3c0-0.1,0-0.2-0.1-0.3c0-0.1,0-0.2,0-0.3c0,0,0-0.1,0-0.1
	l0,0c0-0.1,0-0.3-0.1-0.4l0,0c0,0,0,0,0.1,0c0.1,0,0.3,0,0.3-0.2c0-0.1,0-0.1-0.1-0.1c-0.1-0.1-0.1-0.2-0.1-0.2c0,0-0.1,0-0.1,0
	c0,0,0,0-0.1,0l0,0c0-0.3,0.1-0.6,0.1-1c0,0,0-0.1,0-0.1c0-0.1-0.1-0.3,0.1-0.4c0,0,0,0,0-0.1c0,0,0.1,0,0-0.1c0,0,0-0.1,0-0.1
	c0,0,0,0,0,0c0-0.1,0-0.2,0-0.3v0c0-0.1,0-0.3-0.1-0.4c0,0,0-0.1-0.1-0.1c0-0.1-0.1,0-0.2,0c-0.2,0.2-0.2,0.4-0.2,0.7c0,0,0,0,0,0
	c0,0,0-0.1,0-0.1c0,0,0,0,0-0.1c0,0,0,0,0-0.1c0,0-0.1,0-0.1,0c0-0.1-0.1-0.2-0.1-0.3c0,0,0,0,0-0.1c0-0.1,0-0.2-0.1-0.2
	c0-0.1,0-0.1-0.1-0.2c0,0,0,0-0.1-0.1c0-0.1-0.1-0.1-0.1,0c0,0,0,0.1,0,0.1c-0.1-0.1,0,0.2,0,0.2c0,0,0,0.1,0,0.1c0,0,0,0.1,0,0.2
	c0,0.1,0,0.2,0,0.3c0,0,0,0,0,0c0-0.1-0.1-0.1-0.2-0.1c-0.1,0.1-0.1,0.2-0.1,0.3c0,0.1,0,0.1,0,0.2c-0.1-0.1-0.1-0.2-0.2-0.3
	c-0.1-0.1-0.2-0.2-0.3-0.1c0,0,0,0,0,0.1c0,0,0,0.1,0,0.1c0,0,0,0.1,0,0.1c0,0.1,0,0.1,0,0.2c0,0.1,0,0.1,0.1,0.2c0,0,0,0.1,0.1,0.1
	c0,0,0,0,0,0.1c0,0,0,0.1,0,0.1c0,0.1,0.1,0.2,0.2,0.2c0.2,0.2,0.2,0.5,0.3,0.8l0,0c0.1,0.1,0.1,0.2,0.2,0.3c-0.1,0-0.2,0.1-0.2,0.1
	c0,0-0.1,0.1-0.1,0.1l0,0c0,0,0,0,0,0c0,0-0.1,0-0.1,0.1c0,0-0.1-0.1-0.2,0c0,0,0,0,0,0.1c0,0,0,0-0.1,0c0,0-0.1,0-0.1,0.1
	c0,0,0,0,0,0c0,0,0,0.1,0,0.1c-0.1,0-0.2-0.1-0.3-0.1c-0.1,0-0.1,0-0.2,0c0,0-0.1,0-0.1,0c-0.1,0-0.1,0.1-0.2,0.2c0,0,0,0.1,0,0.1
	c0,0,0,0.1,0,0.1l0,0c0,0.1,0.3,0.2,0.1,0.2c-0.1,0-0.2,0-0.3,0.1l0,0c0.1,0.1,0.3,0.3,0.4,0.2c0,0,0.1,0,0.1,0
	c0.2,0,0.4-0.1,0.5-0.2c0,0,0.1,0,0.1,0l0,0c0.1,0,0.1,0.1,0.2,0.2c0,0,0.1,0.1,0.1,0.1c0.1,0.1,0.1,0.2,0.2,0.4
	c-0.1,0-0.1-0.1-0.1-0.1c0,0,0-0.1-0.1-0.1c-0.1-0.1-0.1-0.1-0.2-0.2c-0.1-0.1-0.3-0.3-0.2,0c0.1,0.1,0.2,0.2,0.2,0.3c0,0,0,0,0.1,0
	c0,0,0,0,0.1,0.1c0,0,0,0,0,0c0.1,0.2,0.3,0.2,0.5,0.1c0,0,0,0,0.1,0c0.1,0.2,0.2,0.5,0.4,0.7c0.1,0.2,0.3,0.4,0.5,0.5
	c0,0,0,0.1,0.1,0.1c0.1,0.3,0.2,0.5,0.3,0.8c0.2,0.6,0.5,1.1,0.8,1.6c0.4,0.8,0.7,1.6,1.1,2.3c0.5,1,1.1,1.9,1.5,2.9c0,0,0,0,0,0
	c0,0-0.1,0-0.1,0c0,0-0.1-0.1-0.1-0.1c-0.6-0.4-1.1-1.2-1.9-0.9c-0.1,0-0.2,0.1-0.1,0.2c0.1,0.1,0.3,0.1,0.5,0.2
	c0.4,0.2,0.8,0.5,1.1,0.8c0,0,0,0.1,0.1,0.1c0.2,0.1,0.2,0.4,0.5,0.5c0,0,0.1,0,0.1,0c0,0.1,0,0.2,0,0.2c0,0,0,0.1,0.1,0.1
	c0,0.1,0,0.2,0,0.2c0,0.1,0,0.1,0,0.2c0,0.1,0.2,0.2,0.2,0.3c0,0,0,0.1,0,0.1c0,0.1,0,0.1,0,0.2c0,0,0,0,0,0c0,0.2-0.1,0.3-0.2,0.5
	c-0.1,0.1,0,0.3-0.1,0.5c0,0,0,0,0,0c0-0.2-0.1-0.3-0.1-0.5c0,0,0-0.1,0-0.1c0,0,0,0,0,0c0,0,0-0.1-0.1-0.1c0,0,0-0.1-0.1-0.1
	c0,0-0.1,0-0.1,0c-0.1,0-0.1,0-0.1,0.1c0,0.1,0,0.1,0,0.2c0,0,0,0,0,0.1c0,0,0,0.1,0,0.1C15.1,29.1,15,29,15,29
	c0-0.1-0.2-0.2-0.1-0.2c0.1,0,0-0.2,0-0.2c-0.1-0.1-0.1-0.3-0.2-0.4c0-0.1-0.1-0.1-0.2-0.2c0,0,0-0.1-0.1-0.1c0,0-0.1,0-0.1,0
	c0,0,0,0,0-0.1c0,0,0,0,0.1-0.1c0.1-0.1,0.2-0.1,0.3-0.1c0,0,0.1,0,0.1-0.1c0.1,0,0-0.1,0-0.1c0,0-0.1,0-0.1,0
	c-0.2,0,0.1-0.1,0.1-0.2c0-0.1,0-0.1,0-0.2c0-0.1-0.1,0-0.1,0c-0.2,0.1-0.3,0.2-0.4,0.3c0,0-0.1,0.1-0.1,0.1c0,0,0,0,0,0
	c0,0-0.1,0-0.1,0l0,0c0,0-0.1,0-0.1,0.1c0,0-0.1,0-0.1,0c0,0-0.1,0-0.1,0l0,0c-0.1,0.1,0.1,0.2-0.2,0.2c0,0,0,0,0,0c0,0-0.1,0-0.1,0
	c0,0,0,0-0.1,0c0,0,0,0,0,0c-0.1,0.1-0.2,0.3-0.1,0.4c0,0,0,0,0,0c0.1,0.1,0.2,0.5,0.4,0.2c0,0,0.1,0,0.1-0.1c0.1,0,0.2-0.1,0.2-0.1
	c0.1,0.1,0.1,0.1,0.2,0.2c0,0,0.1,0.1,0.1,0.1c0,0,0.1,0.1,0.1,0.1c0.1,0,0.1,0.1,0.2,0.1c0.2,0,0.6,0.2,0.7,0.5c0,0,0,0.1,0,0.1
	c0,0.1,0.1,0.2,0.2,0.3c0.2,0.1,0.3,0.3,0.5,0.5c0.1,0.1,0.2,0.2,0.3,0.2C16.2,30.5,16.5,30.5,16.6,30.4z M19.8,24
	c0,0,0.1,0,0.1-0.1c0,0,0.1,0,0.1,0.1l0,0c-0.1,0-0.1,0.1-0.2,0.1C19.8,24.1,19.8,24.1,19.8,24z M18.1,26.1c0.1-0.2,0.2-0.4,0.3-0.5
	c0.1,0,0,0.2,0,0.3c-0.1,0.1-0.1,0.1-0.2,0.2C18.2,26.1,18.1,26.2,18.1,26.1L18.1,26.1C18.1,26.2,18.1,26.2,18.1,26.1z M16.7,13.9
	C16.7,13.9,16.7,13.9,16.7,13.9c-0.1-0.3-0.1-0.6-0.1-0.9c0,0,0-0.1,0-0.1c0,0,0-0.1,0-0.1c0,0,0,0,0,0c0,0,0,0,0,0
	c0,0.1,0,0.1,0.1,0.2c0,0.1,0.1,0.2,0.1,0.3c0.2,0.2,0.3,0.5,0.5,0.7c0,0.1,0,0.3,0,0.4c0,0,0,0.1,0,0.1c0,0-0.1-0.1-0.1-0.1
	c0-0.1-0.1-0.1,0,0c0,0.1,0.1,0.1,0.1,0.2c0,0,0,0.1,0.1,0.1c0,0.2,0,0.4,0,0.5c0,0.1,0,0.3,0,0.4c0,0,0,0.1,0,0.1l0,0
	c-0.1-0.1-0.2-0.3-0.2-0.5l0,0c0-0.2-0.1-0.3-0.1-0.5c0-0.1,0-0.1,0-0.2c0,0,0,0,0-0.1c-0.1-0.2,0-0.4,0.1-0.6
	c0.1-0.1-0.1-0.2-0.1,0c0,0.1-0.1,0.2-0.1,0.3C16.7,14,16.7,13.9,16.7,13.9z M17.2,17.7c0,0.1,0,0.1,0,0.2c0,0,0,0.1,0,0.1v0
	c0,0.1-0.1-0.1-0.2-0.1c-0.1-0.1-0.1-0.2-0.2-0.3c-0.2-0.5-0.5-1-0.6-1.5c0.1-0.6,0.4-1.2,0.5-1.8c0,0.1,0,0.2,0.1,0.2
	c0,0,0,0.1,0,0.1c0,0.2,0.1,0.3,0.1,0.5c0,0,0,0,0,0c0,0.1,0.1,0.2,0.1,0.3c0,0,0,0.1,0,0.1c0,0,0.1,0.1,0.1,0.1c0,0.2,0,0.4,0,0.6
	c0,0.1,0,0.1,0,0.2c0,0,0,0.1,0,0.1c0,0,0,0,0,0c0,0.1,0,0.2,0,0.3c0,0,0,0.1,0,0.1c0,0.1,0,0.2,0,0.3c0,0,0,0.1,0,0.1
	C17.2,17.5,17.2,17.6,17.2,17.7z M20.8,9.5c0-0.1,0-0.2,0-0.3c0,0,0-0.1,0-0.2c0,0,0-0.1,0-0.1c0,0,0-0.1,0-0.1c0,0,0,0,0,0
	c0,0,0,0,0,0c0,0,0,0.1,0,0.1c0,0.1,0,0.2,0,0.2c0,0.1,0,0.2,0.1,0.3c0,0.1-0.1,0.2-0.1,0.4c0,0.1,0,0.1-0.1,0.2c0-0.1,0-0.2,0-0.2
	c0-0.1,0-0.1,0-0.2C20.8,9.6,20.8,9.6,20.8,9.5z M20.6,9.8c0,0,0-0.1,0-0.1c0-0.1,0-0.1,0-0.2c0,0,0,0,0.1,0.1c0,0,0,0.1,0,0.1
	c0,0,0,0.1,0,0.1c0,0.1,0,0.2,0,0.3c0,0,0,0,0,0C20.6,10,20.5,10,20.6,9.8C20.5,9.9,20.5,9.9,20.6,9.8z M21,12.1c0,0,0-0.1,0-0.1
	c0,0,0-0.1,0-0.1c0,0,0-0.1,0-0.1c0-0.2-0.2-0.3-0.1,0l0,0c0,0,0,0.1,0,0.1c0,0.2,0,0.3,0,0.5v0c0,0,0,0.1,0,0.1c0,0,0,0.1,0,0.1
	c0,0.1,0.1,0.1,0.2,0.1c0,0,0,0,0,0c0,0.1-0.1,0.2-0.1,0.3c0,0.3-0.2,0.6-0.3,0.9c-0.1-0.2,0-0.5,0-0.7c0,0,0-0.1,0-0.1
	c0,0,0-0.1,0-0.1c0,0,0-0.1,0-0.1c0-0.2,0-0.4,0-0.6c0,0,0-0.1,0-0.1c0-0.1,0-0.2,0-0.4c0-0.1,0-0.2,0.1-0.2c0,0,0,0,0,0
	c0,0,0.1,0,0.1,0c0,0,0,0,0.1,0c0,0,0.1,0.1,0.1,0.1c0,0,0,0,0,0.1c0,0.2,0,0.4-0.1,0.6c0,0,0,0,0,0C21,12.1,21,12.1,21,12.1z
	 M21.2,10.5c0,0,0,0.1-0.1,0.1c0,0-0.1,0.1-0.1,0.1c0,0-0.1,0,0,0.1c-0.1,0.1,0,0.2-0.1,0.2c0,0,0-0.1-0.1-0.1
	c-0.1,0-0.1-0.1-0.1-0.1c0,0,0,0,0,0c0-0.1,0-0.2,0-0.3c0,0,0-0.1,0-0.1c0,0,0.1,0,0-0.1c0-0.1,0.1-0.1,0.1-0.2c0,0,0.1,0,0-0.1
	c0,0,0-0.1,0-0.1c0-0.3,0.3-0.4,0.4-0.6c0,0,0,0.1,0.1,0.1c0.1,0.2,0,0.5,0,0.7C21.2,10.2,21.2,10.4,21.2,10.5z"/>
</svg>
