<?xml version="1.0" encoding="utf-8"?>
<!-- Generator: Adobe Illustrator 25.4.1, SVG Export Plug-In . SVG Version: 6.00 Build 0)  -->
<svg version="1.1" id="brassica_x5F_oleracea" xmlns="http://www.w3.org/2000/svg" xmlns:xlink="http://www.w3.org/1999/xlink"
	 x="0px" y="0px" viewBox="0 0 32 32" style="enable-background:new 0 0 32 32;" xml:space="preserve">
<path d="M29.2,11.2c-0.2,0-0.5,0-0.7,0.1c-0.7,0.2-1.5,0-2.2,0.3c-0.5,0.2-0.9,0.4-1,1c-0.1,0.4-0.3,0.8-0.8,0.9
	c-0.3,0.1-0.5,0.3-0.6,0.5c-0.1,0.1-0.2,0.2-0.3,0.3c-0.4,0.3-0.8,0.6-1.2,0.9c-0.2,0.1-0.4,0.3-0.6,0.3c-0.4,0.1-0.7,0.2-1.1,0.3
	c-0.6-0.7-1.1-1.4-1.8-2.2c-0.7-0.8-1.4-1.5-2.3-2c-0.3-0.1-0.5-0.3-0.9-0.1l0.1-0.1c0.5-0.5,0.5-0.9-0.1-1.2c0,0-0.1,0-0.1-0.1
	c-1.1-0.6-2.3-0.2-3.2,0.5c0,0,0,0.1,0,0.2l0,0c0,0,0,0-0.1,0c-0.8-0.3-1.6-0.5-2.5-0.5H9.7c0-0.1,0.1-0.1,0.1-0.2
	c0-0.6,0.3-1.1,0.6-1.6c0.1,0.1,0.3,0.2,0.4,0.3c0-0.5,0.3-0.8,0.7-0.9c0.1,0.3,0.2,0.6,0.4,1C12,8.7,12,8.4,12,8.2
	c0-0.4,0.1-0.5,0.5-0.3c0.3,0.1,0.6,0.3,0.8,0.4C14,8.5,14,8.5,14.1,7.9c0.1-0.4,0.2-0.7,0.5-0.9c0.3-0.3,0.4-0.2,0.6,0.1v0.1
	c0.2,0.8,0.7,1.3,1.4,1.6C16.8,9,16.9,9.2,17,9.4s0.2,0.4,0.3,0.6c0.4,1,0.9,1.9,2,2.3c0.2,0.1,0.4,0.3,0.7,0.5
	c-0.1,0.1-0.2,0.1-0.2,0.1c-0.2,0.2-0.2,0.3,0,0.4c0.1,0.1,0.3,0.2,0.5,0.3c0.3,0.1,0.5,0.3,0.7,0.6c0.3,0.4,0.6,0.9,0.9,1.3
	c0-0.1,0.1-0.2,0.1-0.3c0.1-0.9,0-1.7-0.5-2.4c-0.2-0.3-0.4-0.5-0.7-0.6c-0.1,0-0.2-0.1-0.2-0.2c-0.1-0.3-0.3-0.5-0.5-0.7
	c-0.2-0.1-0.4-0.3-0.5-0.5c-0.2-0.2-0.3-1.1-0.6-0.9c-0.3-0.2-0.5-0.3-0.5-0.8c0-0.1-0.1-0.4-0.3-0.5C18.1,8.5,18,8.4,18,8.2
	c0-0.4-0.1-0.5-0.5-0.6c-0.2,0-0.4-0.1-0.5,0c-0.4,0.1-0.6-0.1-0.7-0.3c-0.3,0-0.4-0.2-0.4-0.3c0.2,0.2,0.3,0,0.4-0.1
	c0.6-0.7,1.4-1.2,2.3-1.4c0.3-0.1,0.6-0.1,0.9,0.1C20,6,20,5.9,20.5,5.5c0,0,0.1-0.1,0.2-0.1c-0.1,0.3-0.2,0.6-0.2,0.8
	c-0.2,0.8-0.1,1.6,0,2.5c0.1,0.7,0.3,1.5-0.1,2.2c-0.1,0.1-0.1,0.2-0.1,0.3s0,0.1,0,0.2c0.3-0.6,0.6-1.3,0.8-1.9
	c0.3-0.6,0.5-1.3,0.7-1.9s0.2-1.2,0.4-1.8c0.2-0.8,0.9-1.2,1.6-1.7c0.2-0.1,0.3,0,0.3,0.2c0,0.4,0,0.7,0.1,1.1
	c0-0.1-0.5,1.8-0.7,2.7c-0.3,1.2-0.6,2.4-0.8,3.5c-0.2,0.7-0.2,1.5-0.6,2.2c0,0.1,0,0.1,0,0.2c0.4-0.4,0.8-0.8,1.2-1.1
	c0.6-0.5,1.1-1.1,1.3-1.8c0.2-0.7,0.4-1.5,0.6-2.2c0.2-0.5,0.4-1,0.6-1.5C26,7,26.4,7,26.8,7c0.3,0,0.7,0,0.8,0.4
	c0,0.1,0.1,0.1,0.1,0.2c0.2,0.2,0.2,0.4,0.1,0.6c0,0,0,0.2,0.1,0.2c0.2,0.1,0.4,0.2,0.6,0.3c0-0.1,0-0.1,0-0.2c0-0.1,0-0.2,0-0.3
	c-0.3-0.7-0.6-1.5-0.9-2.2c-0.1-0.3-0.4-0.5-0.7-0.7c-0.3-0.2-0.8-0.4-1.1-0.6c-0.4-0.4-1-0.6-1.5-0.8c-0.6-0.3-1.2-0.2-1.7,0.1
	c-0.2,0-0.5,0-0.8,0.1c-0.6,0.1-1.2,0.1-1.7,0.5c-0.6,0.5-1.3,0.6-2,0.8c0,0-0.1-0.1-0.1-0.1c-0.4-0.6-0.8-1-1.5-1.3
	c-0.2-0.1-0.5-0.2-0.7-0.4c-0.4-0.3-0.8-0.3-1.2-0.4c-0.3,0-0.7-0.1-1-0.2c-0.3-0.1-0.5-0.2-0.8-0.2C12.4,3,12,3.2,11.6,3.4
	c0,0,0,0.1,0.1,0.1c0.2-0.1,0.4-0.2,0.6-0.3C12.5,3.1,12.8,3,13,3c0,0.4,0.1,0.7,0.1,1.1l0,0c0-0.2,0-0.4,0.1-0.7
	c0.4,0.6,0.1,1.2,0.1,1.8c0,0,0,0-0.1-0.1c-0.4-0.4-0.6-1-1.2-1.3c-0.2-0.1-0.4-0.2-0.5-0.4c-0.3-0.2-0.5-0.2-0.8,0
	c-0.1,0-0.1-0.1-0.2-0.1c-0.6,0-1-0.2-1.5-0.4c-0.2,0-0.4-0.1-0.5-0.1C8,2.8,7.4,2.9,6.9,2.9c-0.3,0-0.6,0-0.9,0
	c-0.7,0-1,0.2-1.1,0.8c0,0.2-0.1,0.4-0.3,0.5c-0.3,0.2-0.7,0.4-1,0.6C3.2,5,2.9,5.2,2.8,5.7c0,0.6-0.3,1.1-0.7,1.5
	C1.8,7.6,1.7,8,1.8,8.5c0.1,0.3,0,0.6,0.1,0.9C2,10,2,10.6,2.1,11.3c0.1,0.5,0.4,0.9,0.7,1.2C3,12.4,3,12.4,2.9,12.1
	c-0.2-0.3-0.4-0.6-0.5-1c-0.1-0.3-0.1-0.6-0.2-1C2.1,9.5,2.5,8.9,3.1,8.8c0.3,0,0.6,0,0.9,0C4.6,9,5.1,9.2,5.6,9.4
	C5.8,9.5,5.9,9.5,6,9.6C5.9,9.3,5.7,9.1,5.5,8.8C6,9,6.2,9.3,6.4,9.7c0,0.1,0.1,0.1,0.1,0.2c0,0,0.1,0,0.1-0.1
	C6.4,9.5,6.2,9.2,6.1,8.9C5.5,8,4.7,7.3,4,6.6C3.9,6.5,3.8,6.4,3.7,6.3C4,6,4.3,6,4.6,6c1.1,0.2,2,0.8,2.9,1.5
	c0.1,0.1,0.2,0.2,0.4,0.3c0-0.1,0-0.2,0-0.2c-0.2-0.5-0.3-1-0.4-1.5c0-0.1-0.1-0.2-0.2-0.3C7,5.7,6.8,5.6,6.7,5.4c0,0,0,0,0-0.1
	c0.2,0.1,0.4,0.2,0.6,0.4c-0.2-0.8-0.7-1.4-1.1-2c0.5,0.5,0.9,1.1,1.2,1.7C7.6,5.9,8,6.1,8.5,6.5c0-0.4,0.1-0.8,0.1-1.1
	c-0.1-0.5-0.3-1-0.4-1.6c0.3,0.5,0.6,1.1,0.6,1.8c0,0.5,0,1.1,0.1,1.6c0,0.1,0,0.2,0,0.2s-0.1,0-0.1,0.1C8.6,6.8,8.3,6.4,7.6,6.1
	c0.1,0.5,0.2,1,0.3,1.5c0.1,0,0.2-0.1,0.4-0.1c0.3-0.1,0.6,0,0.8,0.2c0.2,0.3,0.2,0.4,0,0.5C8.8,8.3,8.6,8.5,8.3,8.6
	C8.2,8.4,8,8.2,7.8,7.9C7.6,7.7,7.4,7.6,7.2,7.8C6.9,7.9,6.7,8.1,6.8,8.4c0,0.5,0.1,0.9,0.2,1.4c0.3,0,0.5-0.1,0.7-0.1
	c0-0.3-0.1-0.4-0.2-0.6c0,0,0,0,0-0.1C7.8,9.2,8,9.3,8.2,9.4c0.2,0.2,0.4,0.4,0.6,0.7c0.1,0.2,0.3,0.3,0.5,0.3s0.4,0.1,0.6,0.1
	c-0.7,0.1-1.4-0.1-2-0.5C7.7,9.8,7.4,9.8,7.3,9.8C6.7,10,6,10,5.4,10c-0.1,0-0.2,0-0.3,0.1c-0.2,0.1-0.4,0.2-0.4,0.4
	c0,0.1,0.2,0.4,0.3,0.4c0.6,0.2,1.2,0.6,1.9,0.6s1.4,0.1,2,0.5c0.5,0.3,1.1,0.3,1.7,0.4c0.1,0,0.1,0,0.2,0c0.3-0.2,0.4-0.1,0.4,0.2
	c0.2,0.5,0.5,0.7,1,0.7c0.2,0,0.3-0.1,0.5-0.2c0.2-0.1,0.3-0.1,0.4,0.2c0.1,0.7,0.5,1.1,1.1,1.4c0.4,0.2,0.8,0.5,1.1,0.9
	c0.5,0.6,1.2,1,2,1.2c0.4,0.1,0.6-0.1,0.6-0.5c0-0.1,0-0.1,0-0.2c0.3,0.3,0.6,0.7,1.1,0.8C18.9,17,18.7,17,18.6,17
	c-0.4,0-0.7,0-1.1-0.1s-0.8,0-1.2,0.2c-0.3,0.1-0.6,0.2-0.9,0.3c-0.3,0.1-0.6,0.2-1,0.3c0.4,0.2,0.8,0.4,1.2,0.6
	c-0.2,1.4-0.7,2.6-1.3,3.8c-0.6-0.7-1.3-1.4-1.9-2.1l0,0c-0.3-0.4-0.2-1.2,0.1-1.4c0.3,0.9,1.2,1.7,2,1.7c-0.4-0.6-0.8-1.1-0.9-1.7
	c0.3-0.3,0.6-0.5,0.8-0.7v-0.1c-0.9,0-1.7,0.5-2.6,0.8c0-0.2,0-0.3,0-0.5c0.1-0.3,0.2-0.7,0.3-1c0.1-0.2,0.1-0.5,0.2-0.8
	c0,0-0.1,0-0.1-0.1c-0.8,0.9-1.9,1.2-2.6,2.1c0.1-0.3,0.3-0.5,0.5-0.7c0.5-0.4,1-0.8,1.6-1.2c0.5-0.4,1-0.8,1.3-1.3
	c-0.7,0.2-1.4,0.4-2.1,0.6c-0.5,0.1-0.8,0.4-1.1,0.8c-0.1,0.2-0.2,0.3-0.3,0.5c0.1-1,0.7-1.8,1-2.6c-0.2,0-0.3,0-0.5,0
	c-0.1,0.1-0.1,0.3-0.2,0.4c0,0,0,0-0.1,0c0.2-0.7,0.5-1.4,0.8-2.1c-0.2-0.1-0.2,0.1-0.3,0.2c-0.3,0.7-0.5,1.4-0.5,2.2
	c0,0.3-0.1,0.5-0.1,0.8c-0.1-0.2-0.1-0.4-0.1-0.5c0-0.9-0.1-1.8-0.4-2.7c-0.1-0.4-0.4-0.5-0.8-0.6c0.7,1.1,0.9,2.3,0.8,3.7
	c0-0.2-0.1-0.3-0.1-0.4c-0.1-1.2-0.5-2.2-1.2-3.2c-0.2-0.3-0.3-0.4-0.7-0.2c0.1,0.1,0.2,0.2,0.2,0.4C7.6,12.6,8,13.2,7.9,14
	c-0.1,0.6,0.1,1.2,0.3,1.7c0,0.1,0.1,0.2,0.1,0.3c0.2,0.6,0.4,1.2,0.4,1.8c-0.3-0.8-0.6-1.6-0.9-2.3c-0.1,0.1-0.1,0.1-0.1,0.2
	c-0.1,1.3,0.2,2.5,0.5,3.7c0.2,0.8,0.6,1.5,1.3,2c0.6,0.5,1.1,1.2,1.5,1.9c0.5,0.9,1.1,1.6,1.8,2c0.4-0.1,0.8-0.2,1.2-0.3
	c-0.3-0.3,0-0.3,0.1-0.5c-0.3-0.2-0.6-0.4-0.8-0.6c0,0,0-0.1,0.1-0.1s0.2,0.1,0.4,0.1c0.1,0,0.3,0,0.4-0.1c0.1-0.2,0.3-0.1,0.4-0.1
	c0.1,0.1,0.3,0.1,0.4,0.2c0.1,0.1,0.2,0.1,0.3,0.1c-0.8-0.5-1.6-1-2.4-1.6c-1.1-0.8-1.7-1.7-1.8-2.2c0.9,1.4,2.2,2.4,3.6,3.3
	c-0.1-0.2-0.2-0.4-0.3-0.6c0-0.1-0.1-0.2-0.1-0.3c0.2-0.6,0.4-1.1,1-1.4c0.7-0.3,1.5-0.7,2.2-1.1c0.1-0.1,0.2-0.1,0.3-0.2
	c0,0,0,0,0-0.1c-0.9,0.4-1.9,0.8-2.9,1.2c0.1-0.3,0.2-0.5,0.3-0.7s0.2-0.5,0.3-0.7s0.3-0.4,0.5-0.6c0.2-0.2,0.4-0.3,0.6-0.5
	c0,0,0-0.1-0.1-0.1c-0.3,0.2-0.6,0.5-1,0.7c0-0.4,0.1-0.7,0.1-0.9c0.7-0.1,1.4-0.2,2.1-0.3c0.3,0,0.6,0,0.8,0
	c0.3,0.1,0.5,0.1,0.8-0.1c0.1-0.1,0.2-0.1,0.3-0.1c0.3,0.1,0.6,0.1,0.8,0.2c0,0.2,0.1,0.5,0.1,0.7c0.2,1.5,0.1,2.9-1,4.1
	c-0.8,0.9-1.6,1.9-2.5,2.8c-0.3,0.3-0.7,0.6-1,0.9c-0.3,0.3-0.6,0.5-0.9,0.8c-0.2,0.3-0.4,0.6-0.6,0.9c-0.7-0.6-1.2-1.4-1.4-2.3H13
	c0,0.2,0,0.4,0,0.7c-0.7-0.7-1.5-1.4-2.2-2.2c0,0,0,0-0.1,0.1c0.3,0.4,0.7,0.9,1,1.3c0.4,0.6,0.7,1.3,0.7,1.6
	c-0.3-0.4-0.6-0.8-0.9-1.2l0,0c0.2,0.4,0.4,0.9,0.5,1.3c-0.5-0.3-0.9-0.7-1.1-1.3c-0.3-1-0.9-1.8-1.8-2.3c-0.3-0.2-0.5-0.5-0.5-0.9
	S8.4,22.2,8,22.1c0-0.1-0.2-0.3-0.3-0.5c-0.1-0.2-0.2-0.5-0.4-0.7c-0.3-0.4-0.7-0.8-0.9-1.2c-0.4-0.8-1-1.3-1.8-1.5
	c-0.4-0.1-0.8-0.2-1.2-0.3c0.6-0.3,1.3-0.2,1.9,0c-0.9-0.7-1.9-1.4-2.8-2.2c1,0.2,1.9,0.5,2.5,1.3c0.4,0.5,0.7,1,1.1,1.4
	c0.3,0.4,0.7,0.7,1,1l0.1-0.1c-0.1,0-0.1-0.1-0.2-0.1c-0.6-0.8-1.2-1.5-1.9-2.3c-0.2-0.2-0.3-0.5-0.5-0.7c-0.5-0.5-0.9-1.1-1.4-1.6
	C4,15,4.7,15.4,5.1,16.3c0-0.1,0-0.2,0-0.3c-0.2-0.5-0.4-1-0.6-1.5c-0.1-0.3-0.2-0.7-0.3-1.1c0-0.2,0-0.4,0.2-0.4
	c0.1,0,0.3,0.1,0.4,0.2c0.1,0,0.1,0.1,0.1,0.2c0.4,0.7,0.6,1.5,0.7,2.2c0.1,0.6,0.2,1.1,0.5,1.6c-0.2-1-0.4-2-0.7-3
	c-0.2-0.5-0.4-1-0.7-1.5C4.4,12.1,4,12,3.3,12.3s-1.1,0.9-1.5,1.5c-0.1,0.1-0.1,0.2-0.1,0.3c0.1,0.4-0.1,0.5-0.4,0.7
	s-0.4,0.4-0.2,0.7c0.1,0.1,0.2,0.2,0.3,0.3c0.1,0.2,0.2,0.4,0.3,0.6c0.1,0.2,0.1,0.4,0.2,0.6c0.3,0.4,0.5,0.8,0.6,1.3
	c0.1,0.5,0.4,0.9,0.9,1.3c0.7,0.5,1.4,0.8,2.2,1c0.5,0.1,1,0.4,1.4,0.9c0.6,0.7,1.2,1.4,1.7,2.3C8.8,24,8.9,24.1,9,24.3
	c0.7,0.6,1.2,1.3,1.7,2.1c0.4,0.8,1.1,1.4,1.9,1.9c0.3,0.2,0.6,0.3,0.8,0.5c0.3,0.2,0.7,0.4,1,0.4s0.6,0,0.9,0c0.8,0,1.4-0.3,1.7-1
	c0.3-0.7,1-1.2,1.6-1.5c0.1-0.1,0.3-0.2,0.4-0.2c0.3-0.2,0.5-0.6,0.6-0.9c-0.1,0-0.2,0.1-0.3,0.2c-0.5,0.3-1,0.7-1.6,1
	c-0.3,0.2-0.6,0.4-0.8,0.7c-0.2,0.3-0.5,0.5-0.7,0.8c0.2-1.3,0.5-1.7,1.6-2.1h0.1c0.7-0.3,1.3-0.5,1.8-1.1c0.2-0.3,0.4-0.7,0.6-1
	c0.4-0.7,0.9-1.4,1.3-2c0.1-0.2,0.3-0.4,0.5-0.6c0,0,0.1,0,0.1,0.1c0,0.2,0,0.4-0.1,0.5c-0.4,0.8-0.8,1.6-1.4,2.2
	c-0.3,0.3-0.6,0.7-0.9,1.1c0,0,0,0,0.1,0c0.3-0.3,0.6-0.5,0.8-0.8c0.3-0.1,0.6-0.1,0.8-0.2c1.5-0.4,2.6-1.3,3.4-2.6
	c0.4-0.8,1-1.4,1.8-1.8c1-0.4,1.5-1.2,1.8-2.3c0.2-0.7,0.3-1.4,0.7-2c0.5-0.9,0.5-1.7,0.4-2.7c-0.2,0-0.3,0.1-0.3,0.3
	c0.1,0.8-0.1,1.6-0.5,2.3c-0.1,0.1-0.1,0.2-0.1,0.3c-0.2,0.7-0.5,1.4-0.7,2.1c-0.2,0.8-0.7,1.3-1.4,1.6c-0.9,0.4-1.5,1.1-2,2
	c-0.5,1-1.3,1.8-2.4,2.2c-0.5,0.2-1,0.4-1.5,0.6c0.5-0.6,1.1-1.3,1.5-2c0.8-1.2,1.3-2.6,1.8-4c0.1-0.2,0.1-0.4,0.2-0.5l0,0
	c-0.7,0.7-1.3,1.5-2,2.2c0,0,0,0-0.1-0.1c0.4-0.5,0.9-1.1,1.3-1.6c0.6-0.7,1.2-1.3,1.6-2.1c0-0.1,0.1-0.2,0.1-0.2
	c-0.2-0.1,0-0.2,0-0.2c0.4-0.5,0.9-0.9,1.3-1.4c0.4-0.6,0.8-1.1,1.5-1.4c0.3-0.2,0.5-0.3,0.8-0.3c0.5,0,0.8-0.1,1.1-0.5
	c0.2-0.3,0.5-0.5,0.7-0.8c0.4-0.4,0.5-0.9,0.2-1.4c-0.2-0.2-0.4-0.3-0.6-0.5s-0.5-0.3-0.7-0.5c-0.6-0.6-1.4-0.9-2.3-1
	c-1-0.1-1.6,0.3-1.9,1.2c-0.2,0.6-0.4,1.2-0.5,1.8c0,0.1-0.1,0.2-0.1,0.4c0,0.1,0,0.2-0.1,0.3c0.3-1.3,1.2-2.1,2.3-2.9
	c-0.8,0.8-1,1.8-1.3,2.9c0.6-0.5,0.9-1.2,1.6-1.5s1.4-0.5,2.2-0.5c-0.6,0.3-1.2,0.6-1.7,0.9c0.1,0,0.2,0.1,0.4,0.1"/>
</svg>
