<?xml version="1.0" encoding="utf-8"?>
<!-- Generator: Adobe Illustrator 25.4.1, SVG Export Plug-In . SVG Version: 6.00 Build 0)  -->
<svg version="1.1" id="aegilops_x5F_tauschii" xmlns="http://www.w3.org/2000/svg" xmlns:xlink="http://www.w3.org/1999/xlink"
	 x="0px" y="0px" viewBox="0 0 32 32" style="enable-background:new 0 0 32 32;" xml:space="preserve">
<g>
	<path d="M11.9,10.9L11.9,10.9c0,0.2-0.1,0.2,0,0.4c0,0.1,0.1,0.2,0.1,0.3s0.1,0.2,0.1,0.3c0,0.2,0,0.5,0,0.7c0,0.3,0.1,0.7,0.1,1
		c0.1,0.2,0,0.4,0.1,0.7v0.1l0,0c0,0.1,0,0.2,0,0.3s0,0.2,0,0.2l0,0c0,0.1,0,0.2,0,0.3c0.1,0,0.1-0.2,0.1-0.2
		c0.1-0.1,0.1-0.2,0.1-0.3c0,0,0,0,0-0.1c0,0,0,0,0,0.1c0,0.3-0.1,0.5-0.2,0.7s-0.2,0.3-0.1,0.5c0,0.1,0,0.2,0.1,0.2
		c0,0.1,0,0.2,0,0.3c0,0.3-0.1,0.6-0.1,0.9c0,0.1,0,0.2,0,0.2c0,0.1,0,0.1,0,0.2s0,0.2,0.1,0.3c0,0.1,0,0.2,0,0.3s0,0.1,0.1,0.1v0.1
		c0,0.1,0,0.1,0,0.2l0,0l0,0c0-0.1,0-0.2,0-0.2l0,0l0,0c0,0.3,0,0.5-0.1,0.7c0,0.1-0.1,0.2,0,0.3v0.1c0,0.2,0,0.3,0,0.5
		c-0.1,0.6,0,1.2,0,1.6l0,0c0,0-0.1,0.1,0,0.1c0,0,0,0.1,0,0.2s0,0.1,0.1,0c0,0,0,0,0,0.1s-0.1,0.3-0.1,0.4c0,0.1-0.1,0.2-0.1,0.3
		c0,0.2,0,0.4,0,0.6c0,0.1,0,0.2,0,0.3c-0.1,0.1,0,0.2-0.1,0.3l0,0c0,0.2-0.1,0.4-0.1,0.6c0,0.1,0,0.2,0,0.3s0,0.2,0,0.3l0,0
		c0,0.2,0.1,0.4,0.1,0.6c0,0.1,0,0.3-0.1,0.4c0,0,0,0.1-0.1,0.2c0,0.1,0,0.1,0,0.2c0,0-0.1,0.1,0,0.2c0,0.1-0.1,0.2,0,0.3l0,0l0,0
		c0-0.1,0-0.1-0.1-0.2l0,0l0,0c0,0.1,0,0.2,0.1,0.4c0,0.1,0.1,0.1,0,0.1s-0.1,0.1-0.1,0.2c0,0.2,0,0.3,0,0.5v0.1
		c0,0.5,0.1,1.1,0.1,1.5c0,0.1,0.1,0.2,0.1,0.3s0,0.2,0,0.3s0,0.2,0,0.2s0,0-0.1,0c0,0-0.1,0-0.1-0.1s0-0.1-0.1-0.2v-0.1v0.1
		c0,0.1,0.1,0.1,0,0.2l0,0l0,0c-0.1-0.2-0.1-0.3-0.2-0.5s-0.1-0.4-0.2-0.6c-0.1-0.2-0.1-0.3-0.2-0.5c0-0.1-0.1-0.3-0.1-0.4
		s-0.1-0.3-0.1-0.4c0-0.1-0.1-0.3-0.1-0.4c0-0.1,0-0.2-0.1-0.3c-0.1-0.2-0.1-0.3-0.1-0.5c0-0.2-0.1-0.5-0.2-0.7
		c-0.1-0.2-0.1-0.3-0.2-0.5c-0.1-0.3-0.1-0.5-0.2-0.8C10,24.3,10,24.1,10,24c-0.1-0.2-0.1-0.5-0.2-0.7c-0.1-0.2-0.1-0.3-0.1-0.5
		c0-0.1,0-0.2-0.1-0.2c0-0.2-0.1-0.3-0.1-0.5c0-0.3-0.1-0.7-0.2-1c-0.1-0.2-0.1-0.4-0.2-0.7c0-0.1-0.1-0.2-0.1-0.3v-0.1
		c0.1,0,0,0,0,0.1c0.1,0.2,0.2,0.4,0.3,0.7c0.1,0.1,0.1,0.3,0.1,0.4c0,0.3,0.1,0.5,0.2,0.7c0.2,0.4,0.3,0.8,0.4,1.3l0,0
		c0.1,0.2,0.1,0.3,0.2,0.5c0,0.2,0.1,0.3,0.2,0.5c0,0.1,0.1,0.1,0.1,0.2v0.1c0,0,0,0-0.1-0.1c0,0,0,0-0.1,0l0,0
		c0.1,0.1,0.1,0.3,0.1,0.4c0.1,0.1,0,0.2,0,0.3c0,0,0,0,0,0.1c0,0,0,0,0-0.1l0,0v0.1c0,0,0,0,0.1,0.1v-0.1c0-0.1,0-0.1-0.1-0.2
		c0-0.1,0-0.1,0-0.2l0,0l0,0c0.1,0.3,0.2,0.6,0.3,0.9c0.1,0.2,0.2,0.5,0.2,0.7c0,0.1,0.1,0.3,0.1,0.4c0.1,0.1,0,0.3,0.1,0.4
		c0,0.2,0.1,0.3,0.1,0.5c0,0.2,0.1,0.3,0.1,0.5l0,0l0,0c0-0.2,0-0.4,0-0.6c0-0.1,0-0.2,0-0.4s0-0.3-0.1-0.5v-0.1c0-0.1,0-0.2,0-0.2
		c0-0.6,0-1.2-0.1-1.7c0-0.1,0-0.2-0.1-0.3c0-0.1,0.1-0.1,0-0.2c0-0.1-0.1-0.2,0-0.2l0,0c-0.1-0.1-0.1-0.3-0.1-0.4v-0.1
		c0-0.1,0-0.1,0-0.2c0,0.1,0.1,0.2,0.1,0.2v0.1l0,0l0,0c0-0.1,0.1-0.3,0.1-0.4s0-0.1,0-0.2c0-0.1,0-0.1,0-0.2s-0.1-0.3,0-0.4v-0.1
		c-0.1-0.2,0-0.5,0-0.7c0-0.1,0-0.2,0-0.2v-0.1c0.1-0.1,0-0.3,0.1-0.5c0,0,0,0,0-0.1c0-0.2-0.2-0.3-0.2-0.5c0,0-0.1-0.1,0-0.1v-0.1
		l0.1,0.1c0,0.1,0,0.2,0.1,0.3l0,0l0,0c0-0.1,0-0.1,0-0.1c-0.1-0.1,0-0.3,0-0.4s0-0.1,0-0.2v-0.1c0,0,0,0,0-0.1
		c0-0.2,0.1-0.5,0.1-0.7c0-0.1,0-0.2,0-0.2v-0.1c0-0.3,0-0.5-0.1-0.8v-0.1v-0.1l0,0c0-0.1,0-0.3,0-0.4C11,17.2,11,17.1,10.9,17
		c0,0,0,0,0-0.1s0-0.1,0-0.2l0.1,0.1c0,0.1,0,0.2,0.1,0.2l0,0l0,0c-0.1-0.1,0-0.2,0-0.3s0-0.2,0-0.2c0-0.4,0.1-0.7,0.1-1.1
		c0-0.1,0.1-0.2,0-0.3c-0.1-0.3,0-0.6,0-0.8c0-0.3,0-0.6,0-0.9c0-0.1,0.1-0.1,0-0.2c0,0,0-0.1,0-0.2s0-0.1,0-0.2s0-0.1,0-0.1
		c-0.1-0.1-0.1-0.1-0.1-0.3S11,12.2,11,12.1V12l0,0l0,0c0,0,0,0.1,0.1,0.1c0,0.2,0.2,0.4,0.3,0.6l0,0l0,0l0,0
		c-0.1-0.2-0.1-0.3-0.1-0.5s0-0.4,0-0.6v-0.1c0-0.3,0.1-0.6,0.1-0.9c0-0.2,0.1-0.4,0-0.6c0-0.1,0-0.2,0-0.4s0-0.4,0.1-0.7
		c0-0.1,0-0.2,0-0.3s0-0.2,0-0.4c0-0.1-0.1-0.2-0.1-0.3c0-0.2-0.1-0.4-0.2-0.7C11.1,7.2,11.1,7,11,6.8c-0.1-0.3-0.2-0.6-0.2-0.8
		c0,0.1,0,0,0-0.1c-0.1-0.2-0.1-0.4-0.2-0.6c0-0.3-0.2-0.5-0.2-0.8c-0.1-0.2-0.2-0.5-0.3-0.7c-0.1-0.2-0.1-0.3-0.2-0.5
		c0,0,0,0,0-0.1l0,0c0.1,0.2,0.2,0.5,0.3,0.7c0.1,0.2,0.1,0.5,0.2,0.7c0.1,0.2,0.1,0.5,0.3,0.7c0,0.1,0.1,0.2,0.1,0.3v0.1v0.1h0.1
		C10.9,6,11,6.1,11,6.2v0.1c0,0,0,0,0.1,0l0,0c0,0.2,0.1,0.3,0.1,0.5s0.1,0.3,0.1,0.4c0.1,0.2,0.1,0.4,0.2,0.6v0.1
		c0,0.1,0,0.1,0.1,0.2c0.1,0,0-0.1,0-0.2c0-0.2,0-0.3,0-0.5c0-0.1,0-0.3,0-0.4s0-0.2,0-0.4c0,0,0-0.1,0-0.2c0-0.6,0-1.1,0-1.6
		c0-0.1,0-0.2,0-0.2V4.4V4.3c-0.1-0.2,0-0.4,0-0.6c0-0.1,0-0.3,0-0.4c0,0,0,0,0-0.1c0,0,0,0,0.1,0.1l0,0c0,0.7,0.1,1.3,0.1,1.9
		c0.1,0.5,0,1,0.1,1.4c0,0.2,0,0.4,0.1,0.6c0,0.2,0,0.4,0,0.6c0,0.1,0.1,0.1,0,0.2c0.1,0.1,0,0.2,0,0.3s0,0.2,0,0.3l0,0l0,0
		c0-0.2,0-0.3,0.1-0.5s0-0.5,0.1-0.7c0-0.2,0.1-0.5,0.1-0.7c0.1-0.3,0.1-0.7,0.2-1c0-0.1,0-0.3,0.1-0.4c0-0.1,0-0.2,0-0.3
		s0-0.2,0.1-0.3l0,0c0-0.2,0-0.4,0.1-0.6c0-0.2,0-0.4,0-0.6l0,0l0,0c0,0.2,0.1,0.4,0,0.6c0,0,0,0,0,0.1c0,0.2,0,0.4,0,0.6
		c0,0.3,0,0.5-0.1,0.8c0,0.2,0,0.5-0.1,0.7c0,0.1,0,0.3-0.1,0.4c0,0.2-0.1,0.4-0.1,0.6l0,0c0,0.2,0,0.4,0,0.6c0,0,0,0,0,0.1
		c0,0,0,0,0-0.1c0.1-0.5,0.2-0.9,0.4-1.4V6.4V6.3v0.1c0,0.1-0.1,0.2-0.1,0.3c-0.1,0.2-0.1,0.4-0.2,0.6c0,0.3-0.2,0.5-0.2,0.8
		c0,0.2-0.1,0.4-0.1,0.5l0,0c0,0.2,0,0.3-0.1,0.5c0,0.2,0,0.3,0.1,0.4c0,0.2,0.1,0.5,0,0.6c0,0.1,0,0.2-0.1,0.3c0,0.1,0,0.3,0,0.4
		v0.1C11.8,10.9,11.9,10.9,11.9,10.9C11.9,10.8,11.9,10.8,11.9,10.9z M11.3,2.3L11.3,2.3c0-0.1,0-0.2,0-0.2V2
		C11.3,2.1,11.3,2.1,11.3,2.3c0,0,0.1,0.1,0.1,0.2l0,0l0,0c0,0,0-0.1,0,0.5c0,0.1,0,0.2,0,0.3v0.1c0,0,0,0,0.1,0l0,0
		c0-0.1,0-0.2,0-0.4c0-0.1,0-0.3,0-0.4c0,0,0,0,0-0.1c0,0,0,0,0,0.1C11.3,2.7,11.3,2.8,11.3,2.3z M13.1,4.5
		C13.1,4.4,13.1,4.4,13.1,4.5c0-0.1,0-0.1,0-0.2C13.1,4.4,13.1,4.4,13.1,4.5C13.1,4.5,13.1,4.5,13.1,4.5c-0.1,0.1-0.1,0.2-0.1,0.3
		l0,0l0,0C13.1,4.7,13.1,4.6,13.1,4.5z M12.9,5.3C12.9,5.3,12.8,5.3,12.9,5.3c-0.1,0.2-0.1,0.3-0.1,0.4l0,0l0,0V5.6
		C12.8,5.5,12.9,5.4,12.9,5.3C12.9,5.4,12.9,5.3,12.9,5.3z M11.9,19.9C11.9,19.9,11.8,19.9,11.9,19.9c-0.1,0.1-0.1,0.2-0.1,0.2
		c0,0.1,0,0.1-0.1,0c0,0-0.1-0.1-0.1,0v0.1c0,0.2,0,0.3,0,0.5v0.1l0,0l0,0c0-0.1,0-0.2,0-0.2l0,0l0,0c0,0.2,0,0.3,0,0.5
		c0,0.1,0,0.1,0.1,0.1s0.1,0,0.1-0.1s-0.1-0.2,0.1-0.3v-0.3C12,20.2,11.9,20.1,11.9,19.9C12,19.9,11.9,19.8,11.9,19.9
		c0.2-0.2,0.1-0.2,0.1-0.2h-0.1C11.9,19.7,11.9,19.8,11.9,19.9C11.8,19.8,11.8,19.8,11.9,19.9C11.8,19.8,11.9,19.8,11.9,19.9
		C11.9,19.8,11.9,19.9,11.9,19.9z M11.8,22.2c0-0.2-0.1-0.3-0.1-0.5l-0.1-0.1c-0.1,0-0.2,0.2-0.1,0.3c0.1,0.1,0,0.2,0,0.2
		c0,0.2,0,0.4,0,0.6c0,0,0,0.1,0.1,0.1s0.1,0,0.2-0.1h-0.1l0,0l0.1-0.1c0,0,0,0.1,0.1,0C11.7,22.4,11.7,22.3,11.8,22.2z M11.9,14.8
		L11.9,14.8c0-0.1,0-0.2,0-0.3s-0.1-0.3-0.1-0.4c0,0,0,0,0-0.1c0,0,0,0,0,0.1c0,0,0,0,0,0.1c0,0,0,0,0-0.1c0,0,0,0,0-0.1
		c-0.1,0-0.1,0-0.1-0.1l0,0c0,0.1-0.1,0.2,0,0.4c0,0.2,0,0.5,0,0.7l0,0l0,0c0-0.1,0-0.2,0.1-0.4c0-0.1,0-0.2,0-0.2
		c0,0.1,0,0.1,0,0.2C11.8,14.7,11.8,14.7,11.9,14.8L11.9,14.8L11.9,14.8L11.9,14.8c-0.1-0.2-0.1-0.2-0.1-0.3
		C11.9,14.6,11.9,14.7,11.9,14.8s-0.1,0.2,0,0.2l0,0l0,0C11.9,14.8,11.9,14.8,11.9,14.8z M12,18.9c0-0.2-0.1-0.3-0.1-0.5
		c0-0.1-0.1-0.3-0.1-0.4l0,0l0,0v0.1c0,0.1,0.1,0.1,0,0.2c0,0,0,0-0.1,0l0,0v0.1c0,0,0,0,0,0.1l0,0c0,0,0,0,0-0.1v-0.1v0.1
		c0,0.1,0,0.2,0.1,0.3v0.1c-0.1,0.1,0.1,0.2,0,0.3l0,0l0,0C11.8,19,11.9,19,12,18.9C11.9,18.9,11.9,18.8,12,18.9
		C11.9,18.8,11.9,18.9,12,18.9C11.9,18.9,11.9,19,12,18.9C11.9,19,11.9,19,12,18.9C12,19,12,19,12,18.9C12,19,12,18.9,12,18.9z
		 M11.5,23.9L11.5,23.9C11.5,24,11.5,24,11.5,23.9C11.6,24,11.6,23.9,11.5,23.9C11.6,23.9,11.6,23.9,11.5,23.9
		C11.6,23.9,11.6,23.9,11.5,23.9c0.1,0.2,0.1,0.3,0.1,0.4l0,0l0,0c0,0,0,0,0-0.1S11.6,24,11.5,23.9c0.2,0.1,0.1,0.2,0.1,0.3v0.1
		c0,0,0,0.1,0.1,0.1c0,0,0,0,0.1,0c0,0,0.1,0,0-0.1c0,0-0.1,0-0.1-0.1s0-0.3,0.1-0.4c0-0.1,0-0.2,0.1-0.3c0,0,0.1-0.1,0-0.2
		c-0.1-0.1,0-0.1,0-0.2l0,0l0,0c0,0.1,0,0.1,0,0.2v0.1c-0.1,0-0.1,0.1-0.2,0.1s-0.2,0.1-0.2,0.2C11.6,23.7,11.5,23.8,11.5,23.9z
		 M11.9,16.4L11.9,16.4C11.8,16.4,11.8,16.4,11.9,16.4c0-0.1-0.1-0.1-0.1-0.2C11.8,16.3,11.8,16.3,11.9,16.4
		C11.8,16.4,11.8,16.4,11.9,16.4c-0.1,0.2-0.1,0.3-0.1,0.3C11.7,16.6,11.8,16.5,11.9,16.4L11.9,16.4L11.9,16.4
		c-0.1,0.1-0.1,0.2-0.1,0.3c0,0.2,0,0.3,0,0.5c0,0,0,0,0,0.1h0.1c0-0.1,0-0.2,0-0.3v-0.1V17c0,0.1,0,0.2,0,0.2v0.1c0,0,0,0,0-0.1
		s0-0.1,0-0.2c0-0.1,0-0.2,0-0.2c-0.1-0.1,0-0.1,0-0.2C11.9,16.6,11.9,16.6,11.9,16.4c0,0.1,0,0.1,0,0.2c0,0.1,0,0.1,0,0.2l0,0l0,0
		c0-0.1,0-0.2,0-0.2S11.9,16.5,11.9,16.4L11.9,16.4 M11.5,25.3c0,0.1,0,0.2,0,0.3c0,0,0,0,0,0.1h0.1c0,0,0,0.1,0.1,0.1l0,0
		c0-0.1,0-0.1,0-0.2c0,0,0-0.1,0.1,0c0,0,0,0,0,0.1l0,0c0-0.2,0-0.3-0.1-0.5l0,0c0,0,0,0,0,0.1c0,0,0,0,0,0.1c0,0,0.1,0,0,0.1
		C11.7,25.5,11.7,25.5,11.5,25.3L11.5,25.3C11.6,25.3,11.6,25.2,11.5,25.3C11.4,25.2,11.5,25.3,11.5,25.3
		C11.5,25.1,11.5,25.2,11.5,25.3z M11.8,11.9c0-0.1,0-0.1,0-0.2c0,0,0,0,0-0.1c0,0,0,0,0,0.1S11.8,11.9,11.8,11.9L11.8,11.9
		C11.7,11.9,11.7,11.9,11.8,11.9c-0.2-0.1-0.2-0.2-0.2-0.3l0,0l0,0v0.1c0,0.1,0,0.1,0,0.2S11.7,11.9,11.8,11.9
		c-0.1,0.2-0.1,0.3-0.1,0.5l0,0c0,0.1,0.2,0.1,0.2,0.1c0.1,0,0-0.1,0-0.2c0-0.1,0-0.1,0-0.2c-0.1,0.1,0,0.1,0,0.2v0.1l-0.1-0.1
		C11.8,12.2,11.8,12.1,11.8,11.9C11.8,12.1,11.8,12,11.8,11.9z M11.7,9.2L11.7,9.2c-0.1,0.1-0.1,0.2-0.2,0.3v0.1c0.1,0,0,0.1,0,0.2
		s0,0.1,0,0.2l0,0l0,0c0-0.1,0-0.2,0-0.2l0,0l0,0c0,0,0,0,0,0.1c0,0,0,0,0-0.1s-0.1-0.2,0-0.3C11.8,9.3,11.8,9.3,11.7,9.2
		C11.8,9.2,11.8,9.2,11.7,9.2z M11.6,19.5L11.6,19.5c-0.2,0-0.2,0-0.2,0.1v0.1c0,0.1,0,0.2,0.1,0.3l0,0l0,0c0,0,0,0,0-0.1
		C11.5,19.7,11.5,19.6,11.6,19.5L11.6,19.5L11.6,19.5C11.7,19.5,11.7,19.5,11.6,19.5z M11.4,26.2L11.4,26.2
		C11.5,26.2,11.5,26.2,11.4,26.2C11.5,26.2,11.5,26.2,11.4,26.2h0.2c0-0.1,0.1-0.1,0.2-0.2l0,0c0,0,0,0-0.1,0S11.6,26.1,11.4,26.2
		C11.4,26,11.4,26.1,11.4,26.2z M12,13.6L12,13.6c-0.1-0.1-0.1-0.1-0.1-0.2c0-0.1,0-0.1,0-0.2c-0.1,0.1,0,0.2,0,0.2
		C11.8,13.5,11.8,13.5,12,13.6c-0.1,0,0,0.1,0,0.2C12,13.8,12,13.7,12,13.6L12,13.6L12,13.6z M11.7,10.3
		C11.6,10.3,11.6,10.3,11.7,10.3c0,0.2-0.1,0.2-0.1,0.3v0.1h0.1v-0.1C11.7,10.5,11.7,10.5,11.7,10.3C11.7,10.3,11.8,10.4,11.7,10.3
		C11.8,10.4,11.8,10.3,11.7,10.3z M11.7,21.5c0-0.1-0.2-0.2-0.2-0.2s0,0-0.1,0.1c0,0,0,0,0.1,0C11.6,21.4,11.5,21.5,11.7,21.5
		C11.6,21.5,11.6,21.5,11.7,21.5C11.6,21.5,11.7,21.5,11.7,21.5z M11.4,14.7c0,0.1,0,0.2,0,0.4C11.5,14.8,11.5,14.8,11.4,14.7
		c0.1-0.1,0.1-0.2,0-0.3C11.4,14.5,11.4,14.6,11.4,14.7z M11.6,11.1c0,0.1,0,0.1,0,0.2C11.6,11.2,11.6,11.1,11.6,11.1
		c0.1-0.1,0.1-0.1,0.1-0.2l0,0l0,0C11.6,10.9,11.6,11,11.6,11.1z M11.8,16c0.1,0,0.1-0.1,0.2-0.1l0,0l0,0C11.9,16,11.9,16,11.8,16
		L11.8,16C11.7,15.9,11.7,15.9,11.8,16C11.7,16,11.7,16,11.8,16z M12,10.7C12,10.6,12,10.6,12,10.7c0.1,0,0.2-0.1,0.1-0.2
		c0-0.1-0.1-0.2,0-0.3c0,0,0,0,0-0.1H12C12.1,10.3,12,10.4,12,10.7C11.9,10.7,11.9,10.7,12,10.7z M11.3,3.3L11.3,3.3
		C11.3,3.4,11.3,3.4,11.3,3.3C11.4,3.4,11.4,3.4,11.3,3.3c0.1,0,0.1-0.2,0.1-0.3s0-0.3,0-0.4c0,0,0,0,0-0.1c0,0,0,0,0,0.1
		s0,0.3,0,0.4C11.3,3,11.3,3.2,11.3,3.3z M11.8,10.9C11.8,10.9,11.9,10.9,11.8,10.9C11.9,10.8,11.9,10.8,11.8,10.9
		c0.2-0.1,0.2-0.1,0.2-0.2c0,0,0-0.1-0.1,0s0,0-0.1,0C11.8,10.7,11.8,10.8,11.8,10.9z M13.1,4.4L13.1,4.4
		C13.1,4.4,13.1,4.4,13.1,4.4c-0.1,0.1-0.1,0.1-0.1,0.2s0,0.1-0.1,0.2l0,0l0,0C13,4.7,13.1,4.6,13.1,4.4C13.1,4.4,13.1,4.4,13.1,4.4
		z M11.3,2.3c0-0.1,0-0.1-0.1-0.2V2C11.2,2.1,11.2,2.1,11.3,2.3c-0.1,0,0,0.1,0,0.2l0,0l0,0C11.3,2.4,11.3,2.4,11.3,2.3L11.3,2.3z
		 M12.8,5.3c0,0.1-0.1,0.2-0.1,0.4l0,0l0,0V5.6C12.8,5.5,12.9,5.4,12.8,5.3C12.9,5.4,12.9,5.3,12.8,5.3C12.9,5.3,12.8,5.3,12.8,5.3z
		 M11.5,14.9c0-0.1,0-0.2,0-0.3s0-0.2,0-0.3c0,0.1,0,0.2,0,0.3S11.4,14.8,11.5,14.9z"/>
	<path d="M19.9,30.1c0-0.2,0.4-2.2,0.5-3V27c0-0.1,0-0.1,0.1-0.4c0,0,0.1-0.1,0-0.2c0-0.1,0-0.3,0-0.4c0-0.1,0-0.3,0.1-0.4
		c0-0.1,0.1-0.3,0.1-0.4s0,0,0.1-0.4c0-0.2,0.1-0.2,0.1-0.6c0-0.1,0,0,0-0.4c0-0.2-0.1-0.4,0-0.8l0,0c0,0.1,0,0,0,0.2
		c0,0.1,0,0.2,0.1,0.3l0,0l0,0c0-0.1,0-0.2,0.1-0.7c0-0.1,0-0.1,0-0.4v-0.1c0,0,0,0,0-0.1v-0.1v-0.1c0,0,0-0.1,0-0.4
		c0-0.1-0.1-0.1,0-0.6l0,0l0,0v0.1l0,0c0,0,0,0,0,0.1l0,0l0,0l0,0v-0.1c0-0.1,0.1-0.1,0.1-0.4c0-0.1,0-0.1,0-0.3c0-0.1,0,0,0-0.2
		l0,0c0-0.1,0-0.2-0.1-0.5c0-0.1,0-0.2,0.1-0.6c0.1,0.1,0,0.2,0,0.7l0,0l0,0c0-0.2,0-0.9,0.2-1.6l0,0c-0.1,0,0,0,0-0.1l0,0
		c0-0.1,0-0.3,0-0.8c0,0,0,0,0-0.1l0,0c0,0.1,0,0.1,0,0.2l0,0l0,0c0-0.1,0,0,0-0.3c0.1-0.1,0,0.2,0,0.4c0,0,0,0,0,0.1
		c0.2-0.3,0-0.5,0.1-1.2l0,0v-0.1c0.1-0.2,0-0.1,0.1-0.4c0,0,0,0,0-0.2s0-0.3-0.3-1c0.2,0.2,0.2,0.3,0.3,0.9l0,0l0,0v-0.1
		c0,0,0,0,0-0.1c0.1-0.1,0-0.2,0.1-0.5c0-0.2-0.1-0.5,0-1.2c0-0.2,0-0.1,0-0.5l0,0c0-0.1,0-0.1,0-0.3c0,0,0,0,0-0.1c0,0,0,0,0,0.2
		l0,0l0,0c0-0.2,0-0.4,0-0.7c0-0.1,0-0.1,0-0.7c0,0,0,0,0-0.1l0,0c0,0.2,0,0.1,0,0.6c0,0.1,0,0.2,0,0.5s0,0.3,0,1c0-0.1,0-0.2,0-0.2
		c0-0.3,0-0.5,0.2-1c0-0.1,0-0.1,0-0.2l0,0l0,0c0,0,0,0,0,0.1c0,0,0,0,0,0.2c0.1-0.1-0.1-0.1,0.1-0.5l0,0c0,0.1,0,0-0.1,0.3
		c0,0,0,0,0,0.1c0,0,0,0,0-0.1l0,0c0-0.1,0.1-0.1,0.1-0.4c0-0.1,0-0.2,0-0.3s0-0.3-0.2-0.9c-0.2-0.2-0.2-0.4-0.4-0.8l0,0
		c-0.2-0.3-0.5-0.6-0.8-1.2c-0.1-0.1-0.1-0.1-0.1-0.4l0,0l0,0c0,0.2,0,0.1,0.1,0.4l0.1,0.1l0.8-0.1c0,0.1,0.1,0.1,0.3,0.4
		c0,0.1,0.1,0.1,0.2,0.2c0.1,0.1,0.5,0.6,0.6,1.1c0.1,0.2,0.1,0.5,0.2,1.1c0.1-0.2,0.1-0.2,0.2-0.8c0.1-0.3,0.2-0.8,0.5-1.3
		c0.1-0.4,0.4-0.9,0.6-1.5c0.1-0.2,0.3-0.8,0.4-1.3c0,0,0.1-0.4,0.1-0.2c-0.1,0.3-0.3,0.9-0.4,1.4l0,0C24,8.8,24,8.8,23.8,9.4
		s-0.6,1.3-0.8,2.2l0,0l0,0c0.1-0.1,0,0,0.2-0.3c0.2-0.2,0.2-0.5,0.6-1c-0.2,0.3,0,0.1-0.4,0.7c-0.1,0.1-0.2,0.4-0.3,0.8l0,0
		c0.1-0.1,0.2-0.2,0.3-0.3l0,0c0,0,0-0.1,0.2-0.2l0,0c0,0,0,0,0-0.1c0.1-0.1,0.2-0.2,0.5-0.5l0,0l0,0C24,11,24,11.1,23.5,11.5
		c-0.1,0.1,0,0-0.3,0.3C23.1,11.9,23,12,22.9,12s0,0.2-0.2,0.8c0,0.2,0,0.4-0.2,0.8c0,0.1,0,0.2,0,0.3l0,0c0.1,0,0.1,0.1,0.1,0.3
		c0,0.1,0,0.3,0,0.6c0,0,0,0,0,0.1c0.1-0.2,0.1-0.5,0.1-1l0,0c0.1,0.1,0.1,0.5-0.1,0.9c0,0.1,0,0.1-0.2,0.3c0,0.1,0,0.1,0,0.4
		c0,0.1,0,0.1,0,0.3c-0.1,0.2-0.2,0.4-0.2,0.9c0.1-0.3,0.4-1.1,0.1,0c0,0.1-0.1,0.1-0.1,0.4c0,0,0,0,0,0.2c0,0,0,0,0,0.2
		c0,0.1,0,0.2,0,0.3l0,0c0,0.1,0,0,0,0.1c-0.1,0.2-0.2,0.5-0.2,0.9c0,0,0,0,0,0.1v0.1l0,0l0,0v-0.1c0,0,0-0.2,0.1-0.4l0,0
		c0,0.3-0.2,0.5-0.2,0.9c-0.1,0.2,0,0.1-0.1,0.6c0,0.1,0,0.1-0.1,0.2c0,0.2,0.1,0.2,0,0.6c0,0,0,0,0.1-0.1l0,0l0,0c0,0,0,0,0-0.1
		l0,0l0,0c0,0.1,0,0.1,0,0.2c0,0.1-0.1,0.2-0.1,0.5s0.1,0.2-0.2,0.8c0,0.1,0,0-0.1,0.3c0,0.2,0.1,0.3-0.1,0.7c0.1,0,0-0.1,0.1-0.1
		c0.1-0.2,0.1-0.1,0.1-0.5l0,0l0,0c0,0.1,0,0,0,0.3c0-0.1,0-0.1,0.1-0.1c0,0.1,0,0.2-0.1,0.2c-0.1,0.2-0.1,0.3-0.2,0.8l0,0
		c-0.1,0.1,0,0-0.2,0.4c0,0.1,0,0.1,0,0.4l0,0c0,0.2-0.2,0.4-0.3,0.8l0,0c-0.3,0.9-0.1,0.6-0.4,2.1l0,0c0,0.1-0.5,2.7-0.5,3
		L19.9,30.1z M21.8,21c0,0.6-0.1,0.6-0.1,0.8l0,0l0,0c0-0.1,0.1-0.2,0.1-0.3C21.9,21,21.8,21.1,21.8,21C21.8,20.9,21.7,20.9,21.8,21
		c-0.2,0-0.2,0-0.2,0c-0.1,0.1-0.1,0.1-0.2,0.2c-0.1,0.3,0,0.3,0,0.4v0.1v0.1c0.2,0.1,0.2,0.1,0.3,0.1l0,0
		C21.7,21.4,21.8,21.1,21.8,21z M22.5,15.1L22.5,15.1C22.4,15.1,22.4,15,22.5,15.1c-0.5,0.2-0.4,1-0.2,0.9c-0.1-0.1,0-0.1,0-0.2
		C22.5,15.4,22.4,15.2,22.5,15.1z M22.3,14c0.2,0.4,0.1,0.3,0.1,0.5l0,0c-0.1,0.2-0.1,0.2-0.1,0.3c0,0,0,0,0,0.1
		C22.5,14.5,22.4,14.2,22.3,14C22.4,14,22.4,14,22.3,14L22.3,14C22.3,13.9,22.2,13.9,22.3,14L22.3,14L22.3,14c0,0.1-0.1,0.1-0.1,0.2
		s0,0.2,0,0.3c0,0.3,0,0.2,0,0.3C22.6,14.5,22.3,14.2,22.3,14C22.3,14.1,22.3,14,22.3,14z M21.7,22.9c-0.1,0-0.1,0-0.2,0l0,0
		c0.1,0,0,0.1,0,0.1c-0.2,0.3-0.1,0.3-0.2,0.4v0.1v0.1l0,0l0,0c0,0.1,0.1,0,0.1,0C21.6,23.4,21.6,23,21.7,22.9z M21.9,18l0.1-0.4
		l0,0l0,0C22,17.9,22,17.9,21.9,18c0.2-0.2,0.2-0.2,0.2-0.3c0.1-0.3,0-0.3,0.1-0.4c0-0.1,0-0.1,0-0.1l0,0c-0.1-0.1-0.1,0.1-0.2,0
		c-0.1,0.1-0.1,0.1-0.2,0.2l0,0l0,0C21.8,17.8,21.8,17.9,21.9,18C21.8,17.9,21.9,17.9,21.9,18c-0.1-0.4,0.1-0.6,0.2-0.8
		c0,0.1,0,0.1,0,0.1C21.9,18,21.8,17.8,21.9,18z M22,19.2c-0.1,0.1-0.1,0.2-0.2,0.3c0,0.4-0.1,0.3,0,0.4
		C21.9,19.4,21.9,19.5,22,19.2c-0.1,0.2-0.1,0.2-0.1,0.3l0,0c0,0.1-0.1,0.2-0.1,0.4C22,19.5,22.1,19.1,22,19.2
		C21.9,19.1,21.9,19.1,22,19.2C21.9,19.1,21.9,19.2,22,19.2c-0.3,0.3-0.4,0.7-0.2,0.8l0,0l0,0C21.7,19.7,21.9,19.3,22,19.2
		C21.9,19.2,21.9,19.2,22,19.2z M22.5,12.7C22.3,12.7,22.4,12.7,22.5,12.7C22.4,12.8,22.4,12.8,22.5,12.7c-0.2,0.4-0.2,0.7-0.2,0.8
		l0,0l0,0C22.3,12.9,22.4,13,22.5,12.7c-0.3,0.6-0.2,0.8-0.1,1c0,0,0,0,0.1,0C22.7,13.2,22.4,12.9,22.5,12.7z M21.8,16.6
		C21.8,16.4,21.8,16.5,21.8,16.6c0,0.2,0,0.1,0,0.2s0,0.2,0,0.3c0,0,0,0,0,0.1c0,0,0,0,0,0.1c0.1-0.5,0-0.6,0-0.9l0,0
		c0.1,0.5,0,0.5,0,0.7c0,0.1,0,0.1,0,0.1l0,0c0.2-0.2,0.1-0.3,0.1-0.4c0-0.2-0.1-0.4-0.1-0.4c-0.1-0.2,0-0.1-0.1-0.2c0,0,0,0-0.1,0
		C21.8,16.5,21.8,16.5,21.8,16.6z M21.4,22.8L21.4,22.8c0.2-0.3,0.2-0.3,0.2-0.3c0-0.2,0-0.2,0-0.3c0,0,0-0.1-0.1-0.1
		c-0.1-0.2-0.1-0.1-0.1-0.2l0,0l0,0V22l0,0c0,0,0,0,0,0.1C21.4,22.5,21.4,22.6,21.4,22.8C21.3,22.7,21.3,22.7,21.4,22.8
		C21.3,22.8,21.3,22.8,21.4,22.8z M21.5,20.9L21.5,20.9c0.4-0.3,0.2-0.6,0.2-0.6c-0.1-0.2-0.1-0.2-0.1-0.2h-0.1l0,0l0,0
		c0.1,0.2,0,0.2,0.1,0.2c0-0.1,0-0.1,0-0.2l0,0l0,0c0,0.2,0,0.2,0,0.3C21.6,20.9,21.6,20.7,21.5,20.9z M21,23.6
		c0,0.5,0.1,0.5,0.1,0.8c0-0.4-0.1-0.6-0.1-0.6l0,0c0,0.1,0,0.1,0.1,0.2c0.1,0.3,0,0.3,0,0.4v0.1v0.1c0.1-0.4,0.1-0.6,0-0.7
		C21.1,23.8,21.1,23.7,21,23.6L21,23.6z M22.3,15c0.1-0.1,0.1-0.1,0.2-0.2c0.1-0.4,0.1-0.2,0.1-0.5s-0.1-0.3,0-0.4
		c-0.1,0.2-0.1,0.2-0.1,0.3C22.5,14.8,22.5,14.8,22.3,15C22.4,15,22.4,15,22.3,15z M22,18.5c-0.1,0.4-0.2,0.6-0.3,0.7l0,0l0,0
		C22,19,22,18.8,22,18.5c0-0.1,0-0.1,0-0.2s0-0.1-0.1-0.2h-0.1l0,0l0,0C22.1,18.3,21.9,18.5,22,18.5L22,18.5z M22,16.1
		c0,0.3,0.1,0.3,0.1,0.3c0.1,0.3,0,0.4,0,0.5s0,0.1,0,0.2l0,0c0.2-0.3,0-0.6,0-0.7C22,16.1,22,16.2,22,16.1z M21.7,19
		c0.4-0.3,0.2-0.6,0.1-0.8l0,0C21.8,18.7,21.8,18.8,21.7,19z M21.7,18.9c0.2-0.4,0.1-0.4,0.1-0.6c0-0.2,0-0.1-0.1-0.2
		c0,0.2,0,0.4,0,0.5C21.7,18.8,21.7,18.9,21.7,18.9z M22.2,15.2c-0.3,0.3-0.2,0.4-0.2,0.5c0.1,0.2,0,0.2,0.1,0.3l0,0l0,0
		C21.9,15.6,22.2,15.3,22.2,15.2z"/>
	<path d="M6.3,30.1c0-0.2-0.3-7.2-0.3-8V22c0-0.1,0-0.1,0-0.4c0,0,0-0.1,0-0.2s0-0.3-0.1-0.4c0-0.1-0.1-0.3,0-0.4c0-0.1,0-0.3,0-0.4
		s0,0,0-0.4c0-0.2,0.1-0.2-0.1-0.6c0-0.1,0,0-0.1-0.4c0-0.2-0.2-0.4-0.2-0.8l0,0c0.1,0.1,0,0,0.1,0.2c0,0.1,0.1,0.2,0.1,0.3l0,0l0,0
		c-0.1-0.1,0-0.2-0.1-0.7c0,0-0.1-0.1-0.1-0.4v-0.1c0,0,0,0,0-0.1v-0.1v-0.1c0-0.1,0-0.1,0-0.4c0-0.1-0.1-0.1-0.1-0.6l0,0l0,0v0.1
		l0,0c0,0,0,0,0,0.1l0,0l0,0l0,0v-0.1c0-0.1,0-0.1,0-0.4c0-0.1,0-0.1-0.1-0.3c0-0.1,0,0,0-0.2l0,0c0-0.1-0.1-0.2-0.2-0.5
		c0-0.1,0-0.2-0.1-0.6c0.1,0.1,0,0.2,0.2,0.6l0,0l0,0c0-0.2-0.2-0.9-0.2-1.6l0,0c-0.1,0,0,0,0-0.1l0,0c0-0.3,0-0.5-0.1-1.1
		c0,0,0,0,0-0.1l0,0c0,0.1,0,0.1,0,0.2l0,0l0,0c0-0.1,0,0,0-0.3C5,11.9,5,12.1,5,12.3c0,0,0,0,0,0.1C5.1,12,4.9,12,4.8,11.3l0,0
		v-0.1c0-0.2,0-0.1,0-0.4c0,0,0,0-0.1-0.2s0-0.3-0.5-0.9c0.2,0.2,0.3,0.3,0.5,0.8l0,0l0,0v-0.1c0,0,0,0,0-0.1s0-0.2,0-0.5
		c0.1-0.2,0-0.5-0.1-1.1c-0.1-0.2,0-0.1-0.1-0.4l0,0c0-0.1,0-0.1-0.1-0.3c0,0,0,0,0-0.1c0.1,0,0,0,0.1,0.2l0,0l0,0
		c0-0.2-0.1-0.4-0.2-0.7c0-0.1,0-0.1-0.2-0.7c0,0,0,0,0-0.1l0,0c0,0.2,0.1,0.1,0.2,0.6c0,0.1,0,0.2,0.1,0.5c0,0.3,0,0.3,0.3,0.9
		c0-0.1,0-0.2,0-0.2C4.6,8.3,4.6,8,4.6,7.5c0-0.1,0-0.1-0.1-0.2l0,0l0,0c0,0,0,0,0,0.1c0,0,0,0,0.1,0.2c0-0.1-0.1-0.1,0-0.6l0,0
		c0,0.1,0,0.1,0,0.4c0,0,0,0.1,0,0c0,0,0,0,0-0.1l0,0c0-0.1,0.1-0.1,0-0.4c0-0.1-0.1-0.2-0.1-0.3c0-0.3,0-0.4-0.3-0.9
		C4.1,5.6,4,5.4,3.7,5.1l0,0C3.4,4.9,3,4.6,2.6,4.2c-0.1-0.1-0.1,0-0.2-0.4l0,0l0,0c0,0.1,0,0.1,0.2,0.3l0.1,0.1l0.2,0.3
		C3,4.6,3,4.5,3.3,4.8C3.4,4.9,3.5,4.9,3.5,5c0.1,0.1,0.6,0.5,0.9,1c0.1,0.2,0.2,0.5,0.4,1c0-0.2,0-0.2,0-0.8c0-0.3,0-0.8,0.2-1.4
		c0.1-0.4,0.2-1,0.2-1.6c0-0.3,0.1-0.8,0.1-1.4c0,0,0-0.4,0.1-0.3c0,0.3-0.1,0.9-0.1,1.4l0,0c0,0.4,0,0.4-0.1,1.2S4.8,5.6,4.8,6.5
		l0,0l0,0c0.1-0.1,0,0,0.1-0.4C5,6.1,5,5.7,5.3,5.2C5.2,5.5,5.3,5.3,5.1,6C5,6.1,5,6.3,4.9,6.8l0,0C5,6.6,5.1,6.5,5.2,6.4l0,0
		c0,0,0-0.1,0.2-0.2l0,0c0,0,0,0,0-0.1C5.5,6.1,5.6,6,5.7,5.6l0,0l0,0c-0.1,0.2,0,0.3-0.4,0.8c-0.1,0.2,0,0-0.2,0.4
		c0,0-0.1,0.1-0.2,0.2C4.9,7.1,5,7.1,5,7.7c0,0.2,0,0.4,0,0.8c0,0.1,0.1,0.2,0.1,0.3l0,0c0.1,0,0.1,0.1,0.1,0.2s0.1,0.3,0.1,0.5
		c0,0,0,0,0,0.1c0.1-0.2,0-0.5-0.1-1l0,0C5.3,8.7,5.4,9,5.4,9.4c0,0.1,0,0.1-0.1,0.3c0,0.1,0.1,0.1,0.1,0.4c0,0,0,0.1,0.1,0.3
		c0,0.2-0.1,0.4,0,0.9c0.1-0.3,0.2-1.1,0.1,0c0,0.1,0,0.1,0,0.4c0,0,0,0,0.1,0.2c0,0,0,0,0,0.2c0,0.1,0,0.2,0.1,0.2l0,0
		c0,0.1,0,0,0,0.1c-0.1,0.2-0.1,0.5,0,0.9c0,0,0,0,0,0.1c0,0,0,0,0,0.1l0,0l0,0v-0.1c0,0,0-0.2,0-0.4l0,0c0,0.3-0.1,0.5,0,1
		c0,0.2,0,0.1,0,0.6c0,0.1,0,0.2,0,0.2c0,0.2,0.1,0.1,0.1,0.5V15l0,0c0,0,0,0,0-0.1c0,0,0,0,0-0.1l0,0l0,0c0,0.1,0,0.1,0,0.2
		c0,0.1,0,0.2,0,0.5s0.1,0.2,0,0.8c0,0.1,0,0-0.1,0.3c0,0.2,0.1,0.3,0,0.7c0.1,0,0-0.1,0.1-0.1C6,17,6,17.1,5.9,16.7l0,0l0,0
		c0,0.1,0,0,0,0.3c0-0.1,0-0.1,0-0.1c0,0.1,0,0.2,0,0.2c0,0.2,0,0.3,0,0.8l0,0c0,0.1,0,0-0.1,0.4c0,0.1,0,0.1,0.1,0.4l0,0
		c0,0.2-0.1,0.5-0.1,0.9l0,0c0,0.9,0,0.6,0.1,2.1l0,0c0.1,0.1,0.3,7.8,0.4,8V30.1z M5.9,15.8c0.1,0.6,0,0.6,0,0.8l0,0l0,0
		c0-0.1,0.1-0.2,0.1-0.3C6,15.8,6,15.9,5.9,15.8C5.9,15.7,5.8,15.8,5.9,15.8c-0.2,0.1-0.2,0.1-0.2,0.1c-0.1,0.1-0.1,0.2-0.1,0.2
		c0,0.3,0,0.3,0.1,0.4v0.1v0.1c0.2,0.1,0.3,0,0.3,0l0,0C6,16.3,6,16,5.9,15.8z M5.3,10L5.3,10C5.2,10,5.2,10,5.3,10
		c-0.4,0.4-0.2,1.2,0,1c-0.1-0.1,0-0.1,0-0.2C5.4,10.3,5.2,10.1,5.3,10z M4.8,8.9C5.1,9.2,5,9.1,5.1,9.3l0,0c0,0.2,0,0.2,0,0.3
		c0,0,0,0,0,0.1C5.2,9.2,5,9.1,5,9C4.9,8.9,4.9,8.9,4.8,8.9L4.8,8.9C4.8,8.8,4.7,8.9,4.8,8.9L4.8,8.9L4.8,8.9c0,0.1-0.1,0.1,0,0.2
		c0,0.1,0,0.2,0.1,0.3C5,9.6,4.9,9.5,5,9.6C5.2,9.2,4.9,9.1,4.8,8.9C4.8,9,4.8,9,4.8,8.9z M6.2,17.7c-0.1,0-0.1,0.1-0.2,0.1l0,0
		c0.1-0.1,0,0.1,0,0.1c-0.2,0.4-0.1,0.4-0.1,0.5v0.1v0.1l0,0l0,0H6C6.3,18.2,6.2,17.8,6.2,17.7z M5.4,12.9v-0.4l0,0l0,0
		C5.4,12.8,5.4,12.8,5.4,12.9c0.2-0.2,0.1-0.3,0.1-0.3c0-0.3-0.1-0.3,0-0.5c0-0.1,0,0-0.1,0l0,0c-0.1,0-0.1,0.1-0.1,0.1
		c0,0.1,0,0.2-0.1,0.2l0,0l0,0C5.2,12.7,5.3,12.8,5.4,12.9C5.3,12.9,5.3,12.9,5.4,12.9c-0.2-0.4,0-0.6,0-0.8c0,0.1,0,0.1,0,0.2
		C5.4,12.9,5.3,12.7,5.4,12.9z M5.7,14.1c-0.1,0.1-0.1,0.2-0.1,0.3c0.1,0.4,0,0.3,0.1,0.4C5.7,14.3,5.7,14.3,5.7,14.1
		c0,0.2,0,0.2,0,0.3l0,0c0,0.1,0,0.2,0,0.4C5.8,14.3,5.8,14,5.7,14.1C5.6,14,5.6,14,5.7,14.1L5.7,14.1c-0.2,0.3-0.2,0.7,0,0.8l0,0
		l0,0C5.5,14.6,5.6,14.2,5.7,14.1L5.7,14.1z M4.7,7.6C4.6,7.6,4.6,7.7,4.7,7.6C4.6,7.7,4.6,7.7,4.7,7.6c-0.1,0.5,0,0.7,0,0.8l0,0
		l0,0C4.6,7.8,4.7,7.9,4.7,7.6C4.5,8.2,4.6,8.4,4.8,8.5c0,0,0,0,0.1,0C5.1,8,4.7,7.8,4.7,7.6z M5,11.5C5,11.3,4.9,11.4,5,11.5
		c0,0.2,0,0.1,0,0.2s0,0.2,0.1,0.2c0,0,0,0,0,0.1l0,0c0-0.6-0.1-0.6-0.2-0.8c0,0,0,0,0.1,0c0.2,0.5,0.1,0.5,0.2,0.7
		c0,0.1,0,0.1,0,0.2l0,0c0.1-0.2,0-0.3,0-0.4c0-0.2-0.1-0.4-0.2-0.4c0-0.2,0-0.2,0-0.2l0,0C4.9,11.4,4.9,11.4,5,11.5z M5.9,17.6
		L5.9,17.6c0.1-0.3,0.1-0.3,0-0.3c0-0.2-0.1-0.2-0.1-0.2s0-0.1-0.1-0.1c-0.2-0.2-0.1-0.1-0.2-0.2l0,0l0,0V17l0,0c0,0,0,0,0.1,0
		c0.1,0.4,0.1,0.5,0.1,0.6l0,0C5.8,17.6,5.8,17.6,5.9,17.6z M5.6,15.8L5.6,15.8c0.3-0.3,0-0.6,0-0.6C5.5,15,5.5,15,5.5,15H5.4l0,0
		l0,0c0.1,0.1,0.1,0.2,0.1,0.2c0-0.1,0-0.1,0-0.1l0,0l0,0c0.1,0.2,0,0.2,0.1,0.3C5.6,15.8,5.6,15.6,5.6,15.8z M5.7,18.5
		C5.8,19,5.9,19,6,19.2C6,18.8,5.8,18.7,5.7,18.5L5.7,18.5c0.1,0.2,0.2,0.2,0.2,0.3C6,19.1,6,19.1,6,19.2c0,0,0,0,0,0.1v0.1
		c0.1-0.4,0-0.6,0-0.6C5.9,18.7,5.8,18.6,5.7,18.5C5.8,18.5,5.7,18.5,5.7,18.5z M5.1,9.9c0.1-0.1,0.1-0.2,0.1-0.2c0-0.4,0-0.3,0-0.5
		c0-0.4-0.1-0.3-0.1-0.4c-0.1,0.2,0,0.2,0,0.3C5.3,9.6,5.2,9.6,5.1,9.9L5.1,9.9z M5.6,13.4c0,0.4-0.1,0.6-0.2,0.7l0,0l0,0
		C5.6,13.8,5.6,13.6,5.6,13.4c-0.1-0.1,0-0.1-0.1-0.2c0-0.1-0.1-0.1-0.1-0.2H5.3l0,0l0,0C5.6,13.1,5.5,13.3,5.6,13.4L5.6,13.4z
		 M5,11c0.1,0.3,0.1,0.2,0.2,0.3c0.2,0.2,0.1,0.4,0.1,0.4c0.1,0.1,0,0.1,0,0.2l0,0c0.2-0.3-0.1-0.6-0.1-0.7C5.1,11.1,5.1,11.1,5,11z
		 M5.4,14c0.3-0.4,0-0.6,0-0.8l0,0C5.5,13.6,5.4,13.8,5.4,14z M5.4,13.8c0.1-0.5,0-0.4-0.1-0.6C5.2,13,5.2,13.1,5.2,13
		c0.1,0.2,0.1,0.4,0.1,0.5C5.4,13.8,5.4,13.8,5.4,13.8z M5.1,10.1C4.9,10.4,5,10.5,5,10.6c0.1,0.2,0.1,0.2,0.1,0.3l0,0l0,0
		C4.9,10.6,5.1,10.2,5.1,10.1z"/>
	<path d="M24.6,29.8c0-0.2,0,0,0-0.7v-0.1c0-0.1,0-0.1,0-0.6c0-0.1-0.1-0.1,0-0.3c0-0.2,0-0.4,0.1-0.6c0-0.2,0.1-0.3,0-0.5
		c0-0.2,0-0.4,0-0.5c0-0.2,0,0,0-0.6c0-0.2-0.1-0.3,0.1-0.8c0.1-0.2,0,0,0.1-0.6c0-0.3,0.2-0.5,0.2-1.1l0,0c-0.1,0.1,0,0-0.1,0.3
		c0,0.1-0.1,0.2-0.1,0.3l0,0l0,0c0.1-0.2,0-0.2,0.1-0.9c0-0.1,0.1-0.2,0.1-0.5v-0.1c0,0,0,0,0-0.1v-0.1v-0.1c0-0.1,0-0.2,0-0.5
		c0.1-0.2,0.1-0.1,0.1-0.8l0,0l0,0c0,0.1,0,0.1,0,0.2l0,0c0,0,0,0,0,0.1c0,0,0,0-0.1,0c0,0,0,0,0-0.1c0,0,0,0,0-0.1v-0.1
		c0-0.1,0-0.2,0-0.5c0-0.1,0-0.1,0.1-0.4c0-0.2,0,0,0-0.3c0,0,0,0,0-0.1c0.1-0.1,0.1-0.2,0.2-0.7c0-0.2,0.1-0.3,0.1-0.8
		c-0.2,0.1-0.1,0.3-0.2,0.8l0,0l0,0c0-0.3,0.2-1.2,0.2-2.1l0,0c0.1,0,0.1,0,0-0.1c0,0,0,0,0-0.1c0.1-0.1,0.1-0.4,0.2-1
		c0,0,0,0,0-0.1l0,0c0,0.1,0,0.1,0,0.2l0,0l0,0c0-0.2,0,0,0.1-0.4c-0.1-0.2-0.1,0.2-0.1,0.5v0.1c-0.1-0.5,0.1-0.7,0.2-1.4l0,0v-0.1
		c0-0.3,0-0.1,0-0.6c0.1,0,0,0,0.1-0.3s0-0.4,0.6-1.2c-0.3,0.2-0.4,0.4-0.6,1.1l0,0l0,0v-0.1c0,0,0,0,0-0.2s0-0.2,0-0.7
		c0.1-0.3,0.3-0.6,0.4-1.4c0.1-0.2,0.1-0.1,0.2-0.6l0,0c0-0.1,0-0.1,0.2-0.4c0,0,0,0,0-0.2c-0.1,0,0,0-0.1,0.2l0,0l0,0
		c0-0.2,0.1-0.5,0.2-0.9c0-0.2,0-0.2,0.2-0.9c0,0,0,0,0-0.2l0,0C27,8.7,27,8.7,26.9,9.2c-0.1,0.1-0.1,0.2-0.2,0.6
		c0,0.4,0,0.5-0.3,1.2c0-0.1,0-0.2,0.1-0.3c0.1-0.3,0.1-0.6,0.1-1.4c0.1-0.1,0-0.2,0.1-0.3l0,0l0,0v0.1c0,0,0,0-0.1,0.2
		c-0.1-0.1,0.1-0.2,0-0.7l0,0c0,0.1,0,0.1,0,0.5v0.1c-0.1,0,0,0,0-0.1c0,0,0,0,0-0.1s-0.1-0.1,0-0.6c0-0.1,0.1-0.2,0.1-0.3
		c0.1-0.1,0-0.4,0.5-1c0.3-0.3,0.4-0.4,0.8-0.9l0,0c0.4-0.3,0.9-0.6,1.4-1.3C29.4,5,29.4,5,29.6,4.6l0,0l0,0c-0.1,0.2,0,0.1-0.2,0.4
		c-0.1,0-0.1,0.1-0.2,0.1l-1,1c-0.1,0.1-0.1,0-0.5,0.4c-0.1,0.1-0.2,0.1-0.3,0.2c-0.2,0.2-0.8,0.7-1.1,1.4c-0.1,0.3-0.2,0.7-0.5,1.3
		c0-0.3,0-0.3,0-1.1c0-0.4,0-1.1-0.3-1.7c-0.1-0.5-0.3-1.3-0.3-2c0-0.3-0.1-1.1-0.1-1.7c0,0,0-0.5-0.1-0.4c0,0.5,0.1,1.2,0.2,1.9
		l0,0c0,0.5,0,0.6,0.1,1.4s0.4,1.8,0.4,3.1l0,0l0,0c-0.1-0.2,0,0-0.2-0.5c-0.1-0.3-0.1-0.7-0.5-1.4c0.1,0.4,0,0.1,0.3,1.1
		c0.1,0.1,0.1,0.5,0.2,1.1l0,0c-0.1-0.2-0.2-0.3-0.3-0.5c0,0,0,0,0-0.1s0-0.1-0.2-0.3l0,0V8.1C25,8,24.9,7.8,24.7,7.3l0,0l0,0
		c0.1,0.3,0.1,0.4,0.6,1.1c0.1,0.2,0,0,0.3,0.5c0.1,0.2,0.2,0.3,0.3,0.5s0,0.3,0,1c0,0.3-0.1,0.5,0,1.1c-0.1,0.1-0.1,0.2-0.1,0.3
		l0,0c-0.1,0-0.1,0.1-0.2,0.3c0,0.1-0.1,0.4-0.1,0.7c0,0,0,0,0,0.2c-0.1-0.3-0.1-0.7,0.1-1.3l0,0c-0.1,0.2-0.2,0.6-0.2,1.2
		c0,0.1,0,0.1,0.1,0.4c-0.1,0.1-0.1,0.2-0.1,0.6c-0.1,0.1,0,0.1-0.1,0.4c0.1,0.3,0.1,0.5,0,1.2c-0.1-0.4-0.3-1.4-0.1,0
		c0,0.1,0.1,0.1,0,0.6c0,0,0,0-0.1,0.2c0,0,0,0-0.1,0.2c-0.1,0.1,0,0.2-0.1,0.3l0,0c0,0.1,0,0,0,0.2c0.1,0.2,0.1,0.7,0,1.2v0.1V18
		l0,0l0,0v-0.1c0-0.1,0-0.3,0-0.5c0,0,0,0-0.1,0c0,0.4,0.1,0.7,0,1.3c0.1,0.3-0.1,0.1,0,0.8c0,0.1,0,0.2,0.1,0.3
		c0,0.2-0.1,0.2-0.2,0.7c0,0,0-0.1-0.1-0.1l0,0c0,0,0,0,0-0.1v-0.1l0,0l0,0c0,0.1,0,0.2,0,0.3s0.1,0.3,0,0.6c-0.1,0.4-0.2,0.3,0,1.1
		c0,0.1,0.1,0.1,0.1,0.4s-0.2,0.4,0,1c-0.1,0,0-0.1-0.1-0.1c-0.1-0.3-0.1-0.1,0-0.7c0,0,0,0,0-0.1l0,0c0,0.1,0,0,0,0.5
		c0-0.1,0-0.1-0.1-0.2c0,0.1,0,0.2,0,0.3c0.1,0.2,0,0.4,0,1.1l0,0c0,0.2,0,0,0.1,0.6c-0.1,0.2,0,0.1-0.1,0.5c0,0,0,0,0,0.1
		c0,0.2,0.1,0.6,0.1,1.1l0,0c0.1,1.2,0,0.8-0.1,2.8l0,0c-0.1,0.1,0,0.3-0.1,0.6L24.6,29.8z M24.5,21c-0.2,0.8,0,0.9,0,1
		c0,0,0,0,0,0.1l0,0c0-0.1-0.1-0.2-0.1-0.4C24.5,21,24.5,21.1,24.5,21c0-0.1,0.1-0.1,0.2,0s0.1,0.1,0.1,0.2c0.1,0.1,0.1,0.2,0.2,0.3
		c0,0.4,0,0.4-0.1,0.5c0,0-0.1,0.1,0,0.1c0,0,0,0.1-0.1,0.1c-0.3,0.1-0.3,0-0.4,0c0,0,0,0,0-0.1C24.5,21.6,24.5,21.2,24.5,21z
		 M25.2,13.3L25.2,13.3c0.1,0.1,0.1,0,0.2,0c0.4,0.5,0.1,1.4-0.2,1.3c0.1-0.1,0-0.2,0-0.3C25.1,13.7,25.4,13.5,25.2,13.3z
		 M25.8,11.9c-0.3,0.4-0.2,0.3-0.3,0.6l0,0c0,0.2,0,0.3,0,0.4c0,0,0,0,0,0.1c-0.2-0.6,0.1-0.9,0.1-1C25.7,11.9,25.7,11.9,25.8,11.9
		L25.8,11.9c0-0.2,0.1-0.1,0.2-0.1l0,0l0,0c-0.2,0.3,0,0.3-0.1,0.4c0,0.1,0,0.3-0.1,0.4c-0.1,0.4,0,0.2-0.1,0.4
		C25.3,12.3,25.7,12.1,25.8,11.9C25.8,11.9,25.8,11.9,25.8,11.9z M24.3,23.5c0.1,0,0.2,0.1,0.2,0.1l0,0c-0.1-0.1,0,0.2,0,0.2
		c0.2,0.5,0.1,0.5,0.1,0.6v0.1v0.1c0,0.1,0,0.1-0.1,0l0,0c-0.1,0.1-0.1,0-0.1,0C24.2,24.1,24.3,23.6,24.3,23.5z M25.1,17.1v-0.6l0,0
		l0,0C25.1,17.1,25.1,17,25.1,17.1c-0.2-0.3-0.2-0.4-0.2-0.4c-0.1-0.4,0.1-0.4-0.1-0.6c0-0.1,0-0.1,0.1-0.1c0,0,0,0,0.1,0
		c0.2,0,0.2,0.1,0.2,0.1c0,0.1,0.1,0.2,0.1,0.3l0,0c0,0,0,0,0,0.1c0.1,0.4,0,0.5,0,0.6C25.2,17.1,25.2,17.1,25.1,17.1
		c0.2-0.5,0-0.8,0-1c0,0.1,0,0.1,0,0.2C25.2,17.1,25.3,16.9,25.1,17.1z M24.8,18.6c0.1,0.1,0.1,0.3,0.1,0.4c-0.1,0.5,0,0.4-0.1,0.5
		c0-0.6,0-0.6,0-0.7c-0.1,0.1-0.1,0.1,0,0.2l0,0c0,0.2,0,0.3,0,0.5c-0.1-0.7-0.1-1.1,0.1-1.1c0,0,0,0,0.1,0l0,0
		c0.2,0.5,0.2,1-0.1,1.1l0,0l0,0C25.1,19.3,24.8,18.7,24.8,18.6C24.8,18.7,24.8,18.6,24.8,18.6z M25.9,10.1
		C26.1,10.2,26,10.2,25.9,10.1L25.9,10.1c0.1,0.6,0,0.9,0,1l0,0l0,0C26.1,10.3,25.9,10.5,25.9,10.1c0.2,0.8,0.1,1-0.1,1.2h-0.1
		C25.5,10.7,25.9,10.4,25.9,10.1z M25.7,15.3c0-0.2,0.1-0.2,0-0.2c-0.1,0.4,0,0.3-0.1,0.4c0,0.1,0,0.2-0.1,0.3v0.1c0,0,0,0-0.1,0.1
		c0-0.7,0.1-0.7,0.2-1.1h-0.1c-0.2,0.7-0.1,0.6-0.2,0.9c0,0.1,0,0.1,0,0.2l0,0c-0.2-0.3-0.1-0.5-0.1-0.6c0-0.3,0.2-0.5,0.2-0.5
		c0.1-0.2,0.1-0.1,0.1-0.2c0,0,0,0,0.1,0C25.8,15.1,25.7,15.1,25.7,15.3z M24.6,23.4C24.6,23.4,24.6,23.4,24.6,23.4
		c-0.2-0.4-0.2-0.4-0.1-0.5c0-0.3,0.1-0.3,0.1-0.3l0.1-0.1c0.2-0.2,0.1-0.2,0.2-0.3c0,0,0,0,0.1,0l0,0v0.1l0,0c-0.1,0-0.1,0-0.1,0.1
		c-0.2,0.5-0.1,0.6-0.1,0.8v0.1C24.8,23.4,24.7,23.4,24.6,23.4z M24.9,21C24.8,21,24.8,21,24.9,21c-0.3-0.5,0-0.7,0-0.8
		c0.2-0.2,0.2-0.2,0.2-0.3h0.1l0,0l0,0c-0.2,0.2-0.1,0.2-0.1,0.2c0-0.2,0.1-0.2,0-0.2l0,0l0,0c-0.1,0.3,0,0.3-0.1,0.4
		C24.9,20.9,24.9,20.6,24.9,21z M24.9,24.5c-0.2,0.6-0.2,0.7-0.4,1c0-0.5,0.3-0.7,0.3-0.8l0,0c0,0.1-0.1,0.1-0.1,0.2
		c-0.2,0.4-0.1,0.4-0.2,0.5v0.1c0,0.1,0,0.1,0,0.2c-0.1-0.5,0.1-0.8,0.1-0.8C24.6,24.8,24.7,24.7,24.9,24.5
		C24.8,24.6,24.8,24.6,24.9,24.5z M25.4,13.2c-0.1-0.1-0.1-0.2-0.1-0.3c0-0.6,0-0.3,0-0.6c0.1-0.4,0.1-0.4,0.1-0.5
		c0.1,0.2,0,0.3,0,0.4C25.2,12.9,25.4,12.8,25.4,13.2C25.4,13.1,25.4,13.2,25.4,13.2z M24.9,17.7c0,0.5,0.1,0.8,0.2,1l0,0l0,0
		c-0.3-0.4-0.3-0.6-0.3-0.8c0.1-0.3,0-0.3,0.1-0.4c0-0.1,0.1-0.1,0.1-0.2c0,0,0.1,0,0.2,0l0,0l0,0C24.9,17.5,25,17.7,24.9,17.7
		L24.9,17.7z M25.6,14.7c-0.1,0.4-0.2,0.3-0.2,0.4c-0.2,0.3-0.1,0.5-0.2,0.6c-0.1,0.2,0,0.2,0,0.2l0,0c-0.2-0.4,0.1-0.8,0.2-0.9
		C25.5,14.7,25.5,14.8,25.6,14.7z M25.1,18.5c-0.4-0.5,0-0.8,0-1.1l0,0C25,18,25.1,18.2,25.1,18.5z M25.2,18.3
		c-0.1-0.6,0-0.6,0.1-0.8c0.1-0.3,0.1-0.2,0.2-0.3c-0.1,0.3-0.1,0.5-0.2,0.7C25.2,18.2,25.2,18.3,25.2,18.3z M25.5,13.5
		c0.2,0.5,0.2,0.6,0.2,0.7c-0.1,0.3-0.1,0.2-0.2,0.3l0,0l0,0C25.8,14.1,25.5,13.7,25.5,13.5z"/>
	<path d="M15.3,10.4L15.3,10.4c0,0.2,0.1,0.2,0,0.4c0,0.1-0.1,0.2-0.1,0.3s-0.1,0.2-0.1,0.3c0,0.2,0,0.5,0,0.7c0,0.3-0.1,0.7-0.1,1
		c-0.1,0.2,0,0.4-0.1,0.7v0.1l0,0c0,0.1,0,0.2,0,0.3s0,0.2,0,0.2l0,0c0,0.1,0,0.2,0,0.3c-0.1,0-0.1-0.2-0.1-0.2
		c-0.1-0.1-0.1-0.2-0.1-0.3c0,0,0,0,0-0.1c0,0,0,0,0,0.1c0,0.3,0.1,0.5,0.2,0.7c0.1,0.2,0.2,0.3,0.1,0.5c0,0.1,0,0.2-0.1,0.2
		c0,0.1,0,0.2,0,0.3c0,0.3,0.1,0.6,0.1,0.9c0,0.1,0,0.2,0,0.2c0,0.1,0,0.1,0,0.2c0,0.1,0,0.2-0.1,0.3c0,0.1,0,0.2,0,0.3
		s0,0.1-0.1,0.1v0.1c0,0.1,0,0.1,0,0.2l0,0l0,0c0-0.1,0-0.2,0-0.2l0,0l0,0c0,0.3,0,0.5,0.1,0.7c0,0.1,0.1,0.2,0,0.3v0.1
		c0,0.2,0,0.3,0,0.5c0.1,0.6,0,1.2,0,1.6l0,0c0,0,0.1,0.1,0,0.1c0,0,0,0.1,0,0.2c0,0.1,0,0.1-0.1,0c0,0,0,0,0,0.1s0.1,0.3,0.1,0.4
		S15,21.9,15,22c0,0.2,0,0.4,0,0.6c0,0.1,0,0.2,0,0.3c0.1,0.1,0,0.2,0.1,0.3l0,0c0,0.2,0.1,0.4,0.1,0.6c0,0.1,0,0.2,0,0.3
		s0,0.2,0,0.3l0,0c0,0.2-0.1,0.4-0.1,0.6c0,0.1,0,0.3,0.1,0.4c0,0,0,0.1,0.1,0.2c0,0.1,0,0.1,0,0.2c0,0,0.1,0.1,0,0.2
		c0,0.1,0.1,0.2,0,0.3l0,0l0,0c0-0.1,0-0.1,0.1-0.2l0,0l0,0c0,0.1,0,0.2-0.1,0.4c0,0.1-0.1,0.1,0,0.1s0.1,0.1,0.1,0.2
		c0,0.2,0,0.3,0,0.5v0.1c0,0.5-0.1,1.1-0.1,1.5c0,0.1-0.1,0.2-0.1,0.3s0,0.2,0,0.3s0,0.2,0,0.2s0,0,0.1,0c0,0,0.1,0,0.1-0.1
		s0-0.1,0.1-0.2v-0.1v0.1c0,0.1-0.1,0.1,0,0.2l0,0l0,0c0.1-0.2,0.1-0.3,0.2-0.5c0.1-0.2,0.1-0.4,0.2-0.6c0.1-0.2,0.1-0.3,0.2-0.5
		c0-0.1,0.1-0.3,0.1-0.4c0-0.1,0.1-0.3,0.1-0.4c0-0.1,0.1-0.3,0.1-0.4c0-0.1,0-0.2,0.1-0.3c0.1-0.2,0.1-0.3,0.1-0.5
		c0-0.2,0.1-0.5,0.2-0.7c0.1-0.2,0.1-0.3,0.2-0.5c0.1-0.3,0.1-0.5,0.2-0.8c0.1-0.2,0.1-0.4,0.1-0.5c0.1-0.2,0.1-0.5,0.2-0.7
		c0.1-0.2,0.1-0.3,0.1-0.5c0-0.1,0-0.2,0.1-0.2c0-0.2,0.1-0.3,0.1-0.5c0-0.3,0.1-0.7,0.2-1c0.1-0.2,0.1-0.4,0.2-0.7
		c0-0.1,0.1-0.2,0.1-0.3v-0.1c-0.1,0,0,0,0,0.1c-0.1,0.2-0.2,0.4-0.3,0.7c-0.1,0.1-0.1,0.3-0.1,0.4c0,0.3-0.1,0.5-0.2,0.7
		c-0.2,0.4-0.3,0.8-0.4,1.3l0,0c-0.1,0.2-0.1,0.3-0.2,0.5c0,0.2-0.1,0.3-0.2,0.5c0,0.1-0.1,0.1-0.1,0.2V24c0,0,0,0,0.1-0.1
		c0,0,0,0,0.1,0l0,0c-0.1,0.1-0.1,0.3-0.1,0.4c-0.1,0.1,0,0.2,0,0.3c0,0,0,0,0,0.1c0,0,0,0,0-0.1l0,0v0.1c0,0,0,0-0.1,0.1v-0.1
		c0-0.1,0-0.1,0.1-0.2c0-0.1,0-0.1,0-0.2l0,0l0,0c-0.1,0.3-0.2,0.6-0.3,0.9c-0.1,0.2-0.2,0.5-0.2,0.7c0,0.1-0.1,0.3-0.1,0.4
		c-0.1,0.1,0,0.3-0.1,0.4c0,0.2-0.1,0.3-0.1,0.5c0,0.2-0.1,0.3-0.1,0.5l0,0l0,0c0-0.2,0-0.4,0-0.6c0-0.1,0-0.2,0-0.4s0-0.3,0.1-0.5
		v-0.1c0-0.1,0-0.2,0-0.2c0-0.6,0-1.2,0.1-1.7c0-0.1,0-0.2,0.1-0.3c0-0.1-0.1-0.1,0-0.2c0-0.1,0.1-0.2,0-0.2l0,0
		c0.1-0.1,0.1-0.3,0.1-0.4V23c0-0.1,0-0.1,0-0.2c0,0.1-0.1,0.2-0.1,0.2v0.1l0,0l0,0c0-0.1-0.1-0.3-0.1-0.4s0-0.1,0-0.2
		c0-0.1,0-0.1,0-0.2c0-0.1,0.1-0.3,0-0.4v-0.1c0.1-0.2,0-0.5,0-0.7c0-0.1,0-0.2,0-0.2v-0.1c-0.1-0.1,0-0.3-0.1-0.5c0,0,0,0,0-0.1
		c0-0.2,0.2-0.3,0.2-0.5c0,0,0.1-0.1,0-0.1v-0.1l-0.1,0.1c0,0.1,0,0.2-0.1,0.3l0,0l0,0c0-0.1,0-0.1,0-0.1c0.1-0.1,0-0.3,0-0.4
		c0-0.1,0-0.1,0-0.2v-0.1c0,0,0,0,0-0.1c0-0.2-0.1-0.5-0.1-0.7c0-0.1,0-0.2,0-0.2v-0.1c0-0.3,0-0.5,0.1-0.8v-0.1v-0.1l0,0
		c0-0.1,0-0.3,0-0.4c0.1-0.1,0.1-0.2,0.2-0.3c0,0,0,0,0-0.1s0-0.1,0-0.2l-0.1,0.1c0,0.1,0,0.2-0.1,0.2l0,0l0,0c0.1-0.1,0-0.2,0-0.3
		s0-0.2,0-0.2c0-0.4-0.1-0.7-0.1-1.1c0-0.1-0.1-0.2,0-0.3c0.1-0.3,0-0.6,0-0.8c0-0.3,0-0.6,0-0.9c0-0.1-0.1-0.1,0-0.2
		c0,0,0-0.1,0-0.2c0-0.1,0-0.1,0-0.2s0-0.1,0-0.1C16,12.2,16,12.2,16,12s0.1-0.3,0.1-0.4v-0.1l0,0l0,0c0,0,0,0.1-0.1,0.1
		c0,0.2-0.2,0.4-0.3,0.6l0,0l0,0l0,0c0.1-0.2,0.1-0.3,0.1-0.5s0-0.4,0-0.6v-0.1c0-0.3-0.1-0.6-0.1-0.9c0-0.2-0.1-0.4,0-0.6
		c0-0.1,0-0.2,0-0.4c-0.1,0-0.1-0.3-0.1-0.5c0-0.1,0-0.2,0-0.3s0-0.2,0-0.4c0-0.1,0.1-0.2,0.1-0.3c0-0.2,0.1-0.4,0.2-0.7
		C16,6.9,16,6.7,16.1,6.5c0.1-0.3,0.2-0.6,0.2-0.8c0-0.1,0.1-0.2,0.1-0.3c0.1-0.2,0.1-0.4,0.2-0.6c0-0.3,0.2-0.5,0.2-0.8
		c0.1-0.2,0.2-0.5,0.3-0.7s0.1-0.3,0.2-0.5c0,0,0,0,0-0.1l0,0c-0.1,0.2-0.2,0.5-0.3,0.7S16.9,4,16.8,4.2c-0.1,0.2-0.1,0.5-0.3,0.7
		c0,0.1-0.1,0.2-0.1,0.3v0.1v0.1h-0.1c0,0.1-0.1,0.2-0.1,0.3v0.1c0,0,0,0-0.1,0l0,0C16.1,6,16,6.1,16,6.2s-0.1,0.3-0.1,0.4
		c-0.1,0.2-0.1,0.4-0.2,0.6v0.1c0,0.1,0,0.1-0.1,0.2c-0.1,0,0-0.1,0-0.2c0-0.2,0-0.3,0-0.5c0-0.1,0-0.3,0-0.4s0-0.2,0-0.4
		c0,0,0-0.1,0-0.2c0-0.6,0-1.1,0-1.6c0-0.1,0-0.2,0-0.2V3.9V3.8c0.1-0.2,0-0.4,0-0.6c0-0.1,0-0.3,0-0.4c0,0,0,0,0-0.1
		c0,0,0,0-0.1,0.1l0,0c0,0.7-0.1,1.3-0.1,1.9c-0.1,0.5,0,1-0.1,1.4c0,0.2,0,0.4-0.1,0.6c0,0.2,0,0.4,0,0.6c0,0.1-0.1,0.1,0,0.2
		c-0.1,0.1,0,0.2,0,0.3s0,0.2,0,0.3l0,0l0,0c0-0.2,0-0.3-0.1-0.5s0-0.5-0.1-0.7c0-0.2-0.1-0.5-0.1-0.7c-0.1-0.3-0.1-0.7-0.2-1
		c0-0.1,0-0.3-0.1-0.4c0-0.1,0-0.2,0-0.3s0-0.2-0.1-0.3l0,0c0-0.2,0-0.4-0.1-0.6c0-0.2,0-0.4,0-0.6l0,0l0,0c0,0.2-0.1,0.4,0,0.6
		c0,0,0,0,0,0.1c0,0.2,0,0.4,0,0.6c0,0.3,0,0.5,0.1,0.8c0,0.2,0,0.5,0.1,0.7c0,0.1,0,0.3,0.1,0.4c0,0.2,0.1,0.4,0.1,0.6l0,0
		c0,0.2,0,0.4,0,0.6c0,0,0,0,0,0.1c0,0,0,0,0-0.1c-0.1-0.5-0.2-0.9-0.4-1.4V6V5.9V6c0.2,0.2,0.2,0.3,0.3,0.4
		c0.1,0.2,0.1,0.4,0.2,0.6c0,0.3,0.2,0.5,0.2,0.8c0,0.2,0.1,0.4,0.1,0.5l0,0c0,0.2,0,0.3,0.1,0.5c0,0.2,0,0.3-0.1,0.4
		c0,0.2-0.1,0.5,0,0.6c0,0.1,0,0.2,0.1,0.3C15.4,10,15.4,10.2,15.3,10.4L15.3,10.4C15.4,10.5,15.3,10.5,15.3,10.4
		S15.3,10.3,15.3,10.4z M15.9,1.9L15.9,1.9c0-0.1,0-0.2,0-0.2V1.6C15.9,1.7,15.9,1.7,15.9,1.9c0,0-0.1,0.1-0.1,0.2l0,0l0,0
		c0,0,0-0.1,0,0.5c0,0.1,0,0.2,0,0.3V3c0,0,0,0-0.1,0l0,0c0-0.1,0-0.2,0-0.4c0-0.1,0-0.3,0-0.4c0,0,0,0,0-0.1c0,0,0,0,0,0.1
		C15.9,2.2,15.9,2.3,15.9,1.9z M14,4C14,3.9,14,3.9,14,4c0-0.1,0-0.1,0-0.2C14.1,3.9,14.1,3.9,14,4C14.1,4,14.1,4,14,4
		c0.1,0.1,0.1,0.2,0.1,0.3l0,0l0,0C14.1,4.2,14,4.1,14,4z M14.3,4.8C14.4,4.8,14.4,4.8,14.3,4.8c0.1,0.2,0.1,0.3,0.1,0.4l0,0l0,0
		V5.1C14.4,5.1,14.3,5,14.3,4.8C14.3,4.9,14.3,4.9,14.3,4.8z M15.3,19.4C15.3,19.4,15.4,19.5,15.3,19.4c0.1,0.1,0.1,0.2,0.1,0.2
		c0,0.1,0,0.1,0.1,0c0,0,0.1-0.1,0.1,0v0.1c0,0.2,0,0.3,0,0.5v0.1l0,0l0,0c0-0.1,0-0.2,0-0.2l0,0l0,0c0,0.2,0,0.3,0,0.5
		c0,0.1,0,0.1-0.1,0.1s-0.1,0-0.1-0.1s0.1-0.2-0.1-0.3V20C15.2,19.8,15.3,19.6,15.3,19.4C15.2,19.4,15.3,19.3,15.3,19.4
		c-0.2-0.2-0.1-0.2-0.1-0.2h0.1C15.3,19.2,15.3,19.3,15.3,19.4C15.4,19.3,15.4,19.3,15.3,19.4C15.4,19.3,15.3,19.3,15.3,19.4
		L15.3,19.4z M15.4,21.7c0-0.2,0.1-0.3,0.1-0.5l0.1-0.1c0.1,0,0.2,0.2,0.1,0.3c-0.1,0.1,0,0.2,0,0.2c0,0.2,0,0.4,0,0.6
		c0,0,0,0.1-0.1,0.1s-0.1,0-0.2-0.1h0.1l0,0l-0.1-0.1c0,0,0,0.1-0.1,0C15.5,22,15.5,21.8,15.4,21.7z M15.3,14.3L15.3,14.3
		c0-0.1,0-0.2,0-0.3s0.1-0.3,0.1-0.4c0,0,0,0,0-0.1c0,0,0,0,0,0.1c0,0,0,0,0,0.1c0,0,0,0,0-0.1c0,0,0,0,0-0.1c0.1,0,0.1,0,0.1-0.1
		l0,0c0,0.1,0.1,0.2,0,0.4c0,0.2,0,0.5,0,0.7l0,0l0,0c0-0.1,0-0.2-0.1-0.4c0-0.1,0-0.2,0-0.2c0,0.1,0,0.1,0,0.2S15.4,14.2,15.3,14.3
		L15.3,14.3L15.3,14.3L15.3,14.3c0.1-0.2,0.1-0.2,0.1-0.3C15.3,14.2,15.3,14.2,15.3,14.3s0.1,0.2,0,0.2l0,0l0,0
		C15.3,14.4,15.3,14.4,15.3,14.3z M15.2,18.5c0-0.2,0.1-0.3,0.1-0.5c0-0.1,0.1-0.3,0.1-0.4l0,0l0,0v0.1c0,0.1-0.1,0.1,0,0.2
		c0,0,0,0,0.1,0l0,0V18c0,0,0,0,0,0.1l0,0c0,0,0,0,0-0.1v-0.1V18c0,0.1,0,0.2-0.1,0.3v0.1c0.1,0.1-0.1,0.2,0,0.3l0,0l0,0
		C15.4,18.6,15.3,18.6,15.2,18.5C15.3,18.5,15.3,18.4,15.2,18.5C15.3,18.3,15.3,18.4,15.2,18.5C15.3,18.5,15.3,18.5,15.2,18.5
		C15.3,18.5,15.3,18.5,15.2,18.5L15.2,18.5L15.2,18.5z M15.7,23.4L15.7,23.4C15.7,23.5,15.7,23.5,15.7,23.4
		C15.6,23.5,15.6,23.5,15.7,23.4C15.6,23.4,15.6,23.4,15.7,23.4C15.6,23.4,15.6,23.4,15.7,23.4c-0.1,0.2-0.1,0.3-0.1,0.4l0,0l0,0
		c0,0,0,0,0-0.1S15.6,23.5,15.7,23.4c-0.2,0.1-0.1,0.2-0.1,0.3v0.1c0,0,0,0.1-0.1,0.1c0,0,0,0-0.1,0c0,0-0.1,0,0-0.1
		c0,0,0.1,0,0.1-0.1s0-0.3-0.1-0.4c0-0.1,0-0.2-0.1-0.3c0,0-0.1-0.1,0-0.2c0.1-0.1,0-0.1,0-0.2l0,0l0,0c0,0.1,0,0.1,0,0.2V23
		c0.1,0,0.1,0.1,0.2,0.1s0.2,0.1,0.2,0.2C15.7,23.3,15.7,23.4,15.7,23.4z M15.3,15.9C15.3,15.9,15.3,16,15.3,15.9
		C15.4,16,15.4,15.9,15.3,15.9c0-0.1,0.1-0.1,0.1-0.2C15.4,15.8,15.4,15.8,15.3,15.9C15.4,15.9,15.4,15.9,15.3,15.9
		c0.1,0.2,0.1,0.3,0.1,0.3C15.5,16.1,15.4,16,15.3,15.9L15.3,15.9L15.3,15.9c0.1,0.1,0.1,0.2,0.1,0.3c0,0.2,0,0.3,0,0.5
		c0,0,0,0,0,0.1h-0.1c0-0.1,0-0.2,0-0.3v-0.1v0.1c0,0.1,0,0.2,0,0.2v0.1c0,0,0,0,0-0.1s0-0.1,0-0.2s0-0.2,0-0.2c0.1-0.1,0-0.1,0-0.2
		C15.3,16.1,15.3,16.1,15.3,15.9c0,0.1,0,0.1,0,0.2s0,0.1,0,0.2l0,0l0,0c0-0.1,0-0.2,0-0.2S15.3,16,15.3,15.9L15.3,15.9 M15.7,24.8
		c0,0.1,0,0.2,0,0.3c0,0,0,0,0,0.1h-0.1c0,0,0,0.1-0.1,0.1l0,0c0-0.1,0-0.1,0-0.2c0,0,0-0.1-0.1,0c0,0,0,0,0,0.1l0,0
		c0-0.2,0-0.3,0.1-0.5l0,0c0,0,0,0,0,0.1c0,0,0,0,0,0.1c0,0-0.1,0,0,0.1C15.5,25,15.5,25,15.7,24.8L15.7,24.8
		C15.6,24.8,15.6,24.7,15.7,24.8C15.8,24.7,15.7,24.8,15.7,24.8C15.7,24.7,15.7,24.7,15.7,24.8z M15.4,11.5c0-0.1,0-0.1,0-0.2
		c0,0,0,0,0-0.1c0,0,0,0,0,0.1C15.4,11.4,15.4,11.4,15.4,11.5L15.4,11.5C15.5,11.5,15.5,11.5,15.4,11.5c0.2-0.1,0.2-0.2,0.2-0.3l0,0
		l0,0v0.1c0,0.1,0,0.1,0,0.2S15.5,11.4,15.4,11.5c0.1,0.2,0.1,0.3,0.1,0.5l0,0c0,0.1-0.2,0.1-0.2,0.1c-0.1,0,0-0.1,0-0.2
		c0-0.1,0-0.1,0-0.2c0.1,0.1,0,0.1,0,0.2V12l0.1-0.1C15.4,11.8,15.4,11.7,15.4,11.5C15.4,11.7,15.4,11.6,15.4,11.5z M15.5,8.8
		C15.5,8.9,15.5,8.9,15.5,8.8c0.1,0.1,0.1,0.2,0.2,0.3v0.1c-0.1,0,0,0.1,0,0.2s0,0.1,0,0.2l0,0l0,0c0-0.1,0-0.2,0-0.2l0,0l0,0
		c0,0,0,0,0,0.1c0,0,0,0,0-0.1s0.1-0.2,0-0.3C15.4,9,15.4,8.9,15.5,8.8C15.4,8.9,15.4,8.8,15.5,8.8z M15.6,19.1L15.6,19.1
		c0.2,0,0.2,0,0.2,0.1v0.1c0,0.1,0,0.2-0.1,0.3l0,0l0,0c0,0,0,0,0-0.1C15.7,19.3,15.7,19.2,15.6,19.1L15.6,19.1L15.6,19.1L15.6,19.1
		z M15.8,25.7C15.8,25.7,15.8,25.8,15.8,25.7C15.7,25.8,15.7,25.7,15.8,25.7C15.7,25.7,15.7,25.7,15.8,25.7h-0.2
		c0-0.1-0.1-0.1-0.2-0.2l0,0c0,0,0,0,0.1,0S15.6,25.6,15.8,25.7C15.8,25.6,15.8,25.6,15.8,25.7z M15.2,13.1L15.2,13.1
		c0.1-0.1,0.1-0.1,0.1-0.2s0-0.1,0-0.2c0.1,0.1,0,0.2,0,0.2C15.4,13,15.4,13,15.2,13.1c0.1,0,0,0.1,0,0.2
		C15.2,13.3,15.2,13.2,15.2,13.1C15.3,13.2,15.2,13.1,15.2,13.1L15.2,13.1z M15.5,9.8C15.6,9.8,15.6,9.9,15.5,9.8
		c0,0.2,0.1,0.2,0.1,0.3v0.1h-0.1v-0.1C15.5,10,15.5,10,15.5,9.8L15.5,9.8C15.4,9.9,15.4,9.8,15.5,9.8z M15.5,21.1
		c0-0.1,0.2-0.2,0.2-0.2s0,0,0.1,0.1c0,0,0,0-0.1,0S15.7,21.1,15.5,21.1C15.6,21,15.6,21,15.5,21.1C15.6,21.1,15.5,21.1,15.5,21.1z
		 M15.8,14.2c0,0.1,0,0.2,0,0.4C15.7,14.4,15.7,14.3,15.8,14.2c-0.1-0.1-0.1-0.2,0-0.3C15.8,14,15.8,14.1,15.8,14.2z M15.6,10.6
		c0,0.1,0,0.1,0,0.2C15.6,10.7,15.6,10.7,15.6,10.6c-0.1-0.1-0.1-0.1-0.1-0.2l0,0l0,0C15.6,10.5,15.6,10.5,15.6,10.6z M15.4,15.5
		c-0.1,0-0.1-0.1-0.2-0.1l0,0l0,0C15.3,15.5,15.3,15.5,15.4,15.5L15.4,15.5C15.5,15.4,15.5,15.5,15.4,15.5
		C15.5,15.5,15.5,15.5,15.4,15.5z M15.2,10.2C15.2,10.1,15.2,10.2,15.2,10.2c-0.1,0-0.2-0.1-0.1-0.2c0-0.1,0.1-0.2,0-0.3
		c0,0,0,0,0-0.1h0.1C15.1,9.8,15.2,10,15.2,10.2C15.3,10.2,15.3,10.2,15.2,10.2z M15.9,2.8C15.9,2.8,15.9,2.9,15.9,2.8
		C15.9,2.9,15.9,2.9,15.9,2.8C15.8,2.9,15.8,2.9,15.9,2.8c-0.1,0-0.1-0.2-0.1-0.3s0-0.3,0-0.4c0,0,0,0,0-0.1c0,0,0,0,0,0.1
		c0,0.1,0,0.3,0,0.4C15.9,2.6,15.9,2.7,15.9,2.8z M15.4,10.4C15.4,10.5,15.3,10.5,15.4,10.4C15.3,10.3,15.3,10.3,15.4,10.4
		c-0.2-0.1-0.2-0.1-0.2-0.2c0,0,0-0.1,0.1,0c0,0,0,0,0.1,0C15.4,10.2,15.4,10.3,15.4,10.4z M14,3.9L14,3.9C14.1,3.9,14.1,3.9,14,3.9
		C14.1,4,14.1,4,14.1,4.1c0,0.1,0,0.1,0.1,0.2l0,0l0,0C14.2,4.2,14.1,4.1,14,3.9C14,4,14,4,14,3.9z M15.9,1.9c0-0.1,0-0.1,0.1-0.2
		V1.6C16,1.7,16,1.7,15.9,1.9c0.1,0,0,0.1,0,0.2l0,0l0,0C15.9,1.9,15.9,1.9,15.9,1.9L15.9,1.9z M14.4,4.9c0,0.1,0.1,0.2,0.1,0.4l0,0
		l0,0V5.2C14.4,5.1,14.3,5,14.4,4.9C14.3,4.9,14.3,4.9,14.4,4.9C14.4,4.8,14.4,4.8,14.4,4.9z M15.7,14.5c0-0.1,0-0.2,0-0.3
		s0-0.2,0-0.3c0,0.1,0,0.2,0,0.3C15.8,14.3,15.8,14.4,15.7,14.5z"/>
	<path d="M14.1,29.8c0-0.2-0.4-6.6-0.5-7.3v-0.1c0-0.1,0-0.1,0-0.4c0,0-0.1-0.1,0-0.2c0-0.1,0-0.3,0-0.4s0-0.3,0-0.4s0-0.3,0-0.4
		s0,0,0-0.4c0-0.2-0.1-0.2,0-0.6c0-0.1,0,0,0.1-0.4c0-0.2,0.1-0.4,0.1-0.8l0,0c0,0.1,0,0,0,0.2c0,0.1,0,0.2-0.1,0.3l0,0l0,0
		c0-0.1,0-0.2,0-0.7c0-0.1,0-0.1,0-0.4v-0.1c0,0,0,0,0-0.1v-0.1v-0.1c0-0.1,0-0.1,0-0.4c0-0.1,0.1-0.1,0-0.6l0,0l0,0v0.1l0,0
		c0,0,0,0,0,0.1l0,0l0,0l0,0v-0.1c0-0.1-0.1-0.1-0.1-0.4c0-0.1,0-0.1,0-0.3c0-0.1,0,0,0-0.2l0,0c0-0.1,0-0.2,0.1-0.5
		c0-0.1,0-0.2,0-0.6c-0.1,0.1,0,0.2-0.1,0.7l0,0l0,0c0-0.2,0-0.9,0-1.6l0,0c0.1,0,0,0,0-0.1l0,0c0-0.1,0.1-0.3,0.1-0.8
		c0,0,0,0,0-0.1l0,0c0,0.1,0,0.1,0,0.2l0,0l0,0c0-0.1,0,0,0-0.3c-0.1-0.1,0,0.2,0,0.4c0,0,0,0,0,0.1c-0.1-0.4,0-0.5,0-1.2l0,0v-0.1
		c0-0.2,0-0.1-0.1-0.4c0,0,0,0,0-0.2c0.1-0.2,0-0.3,0.3-0.9c-0.2,0.2-0.3,0.3-0.4,0.9l0,0l0,0v-0.1c0,0,0,0,0-0.1s0-0.2-0.1-0.5
		c0-0.2,0.2-0.5,0.1-1.1c0-0.2,0-0.1,0.1-0.5l0,0c0-0.1,0-0.1,0.1-0.3c0,0,0,0,0-0.1c-0.1,0,0,0-0.1,0.2l0,0l0,0
		c0-0.2,0-0.4,0.1-0.7c0-0.1,0-0.1,0.1-0.7c0,0,0,0,0-0.1l0,0c0,0.2-0.1,0.1-0.1,0.6c0,0.1,0,0.2-0.1,0.5c0,0.3,0,0.3-0.1,1
		c0-0.1,0-0.2,0-0.2c0.1-0.3,0-0.5-0.1-1c0-0.1,0-0.1,0.1-0.2l0,0l0,0c0,0,0,0,0,0.1c0,0,0,0,0,0.2c0-0.1,0.1-0.1-0.1-0.5l0,0
		c0,0.1,0,0,0,0.4c0,0,0,0,0,0.1c0,0,0,0,0-0.1l0,0c0-0.1-0.1-0.1,0-0.5c0-0.1,0-0.2,0.1-0.3c0-0.1,0-0.3,0.3-0.8
		C14,6.6,14,6.4,14.3,6.2l0,0c0.2-0.3,0.6-0.6,0.9-1.1C15.3,5,15.3,5,15.3,4.7l0,0l0,0c0,0.1,0,0.1-0.1,0.4l-0.1,0.1l-0.2,0.3
		c-0.1,0.1-0.1,0-0.4,0.4C14.4,6,14.4,6,14.3,6.1c-0.1,0.1-0.5,0.6-0.7,1.1c-0.8-0.7-0.8-0.4-0.9,0.2c0-0.2,0-0.2-0.1-0.8
		c0-0.3-0.1-0.8-0.4-1.4c-0.1-0.4-0.3-0.9-0.4-1.5c-0.1-0.2-0.2-0.8-0.3-1.4c0,0,0-0.4-0.1-0.3c0.1,0.3,0.2,0.9,0.3,1.4l0,0
		c0,0.4,0.1,0.4,0.2,1.1c0.2,0.7,0.5,1.4,0.6,2.3l0,0l0,0c-0.1-0.1,0,0-0.2-0.4c-0.1-0.2-0.2-0.5-0.5-1c0.2,0.3,0,0.1,0.3,0.8
		c0,0.1,0.1,0.4,0.3,0.8l0,0c-0.1-0.1-0.2-0.2-0.3-0.3l0,0c0,0,0-0.1-0.2-0.2l0,0c0,0,0,0,0-0.1c-0.1,0-0.2-0.1-0.4-0.5l0,0l0,0
		c0.1,0.2,0.1,0.3,0.5,0.7c0.1,0.2,0,0,0.3,0.4c0.1,0.1,0.2,0.2,0.3,0.3c0.1,0.2,0,0.2,0.1,0.8c0,0.2,0,0.4,0.1,0.8
		c0,0.1-0.1,0.2-0.1,0.3l0,0c-0.1,0-0.1,0.1-0.1,0.3c0,0.1,0,0.3,0,0.6c0,0,0,0,0,0.1c-0.1-0.2-0.1-0.5-0.1-1l0,0
		c-0.1,0.1-0.1,0.4,0,0.9c0,0.1,0,0.1,0.1,0.3c0,0.1,0,0.1,0,0.4c0,0.1,0,0.1,0,0.3c0.1,0.2,0.1,0.4,0.1,0.9c-0.1-0.3-0.3-1.1-0.1,0
		c0,0.1,0.1,0.1,0.1,0.4c0,0,0,0,0,0.2c0,0,0,0,0,0.2c0,0.1,0,0.2,0,0.3l0,0c0,0.1,0,0,0,0.1c0.1,0.2,0.2,0.5,0.1,0.9c0,0,0,0,0,0.1
		v0.1l0,0l0,0V14c0,0,0-0.2-0.1-0.4l0,0c0,0.3,0.2,0.5,0.1,1c0.1,0.2,0,0.1,0.1,0.6c0,0.1,0,0.1,0.1,0.2c0,0.2-0.1,0.2-0.1,0.6
		c0,0,0-0.1-0.1-0.1l0,0l0,0c0,0,0,0,0-0.1l0,0l0,0c0,0.1,0,0.1,0,0.2c0,0.1,0.1,0.2,0.1,0.5s-0.1,0.2,0.1,0.8c0,0.1,0,0,0.1,0.3
		c0,0.2-0.1,0.3,0.1,0.7c-0.1,0,0-0.1-0.1-0.1c-0.1-0.2-0.1-0.1-0.1-0.5l0,0l0,0c0,0.1,0,0,0,0.3c0-0.1,0-0.1-0.1-0.1
		c0,0.1,0,0.2,0,0.2c0.1,0.2,0,0.3,0.1,0.8l0,0c0,0.1,0,0,0.2,0.4c0,0.1,0,0.1,0,0.4l0,0c0,0.2,0.2,0.5,0.2,0.9l0,0
		c0.2,0.9,0.1,0.6,0.2,2.1l0,0C13.5,22.6,14.1,29.5,14.1,29.8L14.1,29.8z M12.9,16.3c-0.1,0.6,0.1,0.6,0.1,0.8l0,0l0,0
		c0-0.1-0.1-0.2-0.1-0.3C12.8,16.3,12.8,16.4,12.9,16.3C12.9,16.2,13,16.2,12.9,16.3c0.2,0.1,0.2,0.1,0.2,0.1
		c0.1,0.1,0.1,0.1,0.2,0.2c0,0.3,0,0.3,0,0.4v0.1v0.1c-0.2,0.1-0.2,0.1-0.3,0l0,0C12.9,16.7,12.9,16.4,12.9,16.3z M12.6,10.4
		C12.7,10.4,12.7,10.4,12.6,10.4C12.7,10.4,12.7,10.4,12.6,10.4c0.5,0.3,0.3,1.1,0.1,1c0.1-0.1,0-0.1,0-0.2
		C12.6,10.7,12.8,10.5,12.6,10.4z M13,9.2c-0.2,0.4-0.1,0.3-0.2,0.5l0,0c0,0.2,0,0.2,0.1,0.3c0,0,0,0,0,0.1
		C12.7,9.7,12.9,9.4,13,9.2C12.9,9.2,12.9,9.2,13,9.2L13,9.2C13,9.1,13.1,9.1,13,9.2L13,9.2L13,9.2c0,0.1,0.1,0.2,0.1,0.2
		c0,0.1,0,0.2,0,0.3c0,0.3,0,0.2-0.1,0.3C12.7,9.7,12.9,9.4,13,9.2C13,9.3,13,9.2,13,9.2z M12.9,18.2c0.1,0,0.1,0,0.2,0l0,0
		c-0.1-0.1,0,0.1,0,0.1c0.2,0.3,0.1,0.3,0.2,0.4v0.1v0.1l0,0l0,0h-0.1C12.9,18.7,12.9,18.3,12.9,18.2z M13,13.3l-0.1-0.4l0,0l0,0
		C13,13.2,12.9,13.2,13,13.3c-0.2-0.2-0.2-0.3-0.2-0.3c-0.1-0.3,0-0.3-0.1-0.4c0-0.1,0-0.1,0-0.1l0,0c0.1,0,0.1,0.1,0.2,0.1
		c0,0.1,0.1,0.2,0.1,0.2l0,0l0,0C13.1,13.1,13.1,13.2,13,13.3C13.1,13.3,13.1,13.3,13,13.3c0.1-0.4,0-0.6-0.1-0.8c0,0.1,0,0.1,0,0.1
		C13,13.3,13.1,13.1,13,13.3z M12.8,14.5c0.1,0.1,0.1,0.2,0.1,0.3c0,0.4,0.1,0.3,0,0.4C12.8,14.7,12.9,14.7,12.8,14.5
		c0,0.2,0,0.2,0,0.3l0,0c0,0.1,0,0.2,0,0.4C12.7,14.8,12.7,14.4,12.8,14.5C12.9,14.4,12.9,14.4,12.8,14.5
		C12.9,14.5,12.9,14.5,12.8,14.5c0.3,0.3,0.3,0.7,0.2,0.8l0,0l0,0C13.1,14.9,12.9,14.6,12.8,14.5C12.9,14.5,12.9,14.5,12.8,14.5z
		 M12.9,8C13,8,13,8,12.9,8C13,8.1,13,8.1,12.9,8C13.1,8.5,13,8.7,13,8.8l0,0l0,0C13,8.2,13,8.3,12.9,8c0.2,0.6,0.2,0.8,0.1,1
		c0,0,0,0-0.1,0C12.6,8.5,12.9,8.2,12.9,8z M13.1,11.9C13.1,11.7,13.1,11.8,13.1,11.9c0,0.2,0,0.1,0,0.2s0,0.2,0,0.3c0,0,0,0,0,0.1
		c0,0,0,0,0,0.1c0-0.6,0-0.6,0.1-0.9c0,0,0,0-0.1,0c-0.1,0.5,0,0.5-0.1,0.7c0,0.1,0,0.1,0,0.2l0,0c-0.2-0.2-0.1-0.3-0.1-0.4
		C13,11.9,13.1,11.8,13.1,11.9c0-0.3-0.1-0.2,0-0.3l0,0C13.2,11.8,13.1,11.8,13.1,11.9z M13.1,18.1C13.1,18.1,13.1,18,13.1,18.1
		c-0.2-0.3-0.2-0.3-0.1-0.3c0-0.2,0.1-0.2,0.1-0.3c0,0,0-0.1,0.1-0.1c0.1-0.2,0.1-0.1,0.1-0.2l0,0l0,0v0.1l0,0c0,0,0,0-0.1,0
		c-0.1,0.4,0,0.5,0,0.6C13.2,17.9,13.2,17.9,13.1,18.1C13.2,18,13.2,18,13.1,18.1z M13.1,16.2L13.1,16.2c-0.3-0.3-0.1-0.6-0.1-0.6
		c0.1-0.2,0.1-0.2,0.1-0.2h0.1l0,0l0,0c-0.1,0.1-0.1,0.2-0.1,0.2c0-0.1,0-0.1,0-0.2l0,0l0,0c0,0.2,0,0.2,0,0.3
		C13.1,16.2,13.1,16,13.1,16.2z M13.4,18.9c-0.1,0.5-0.1,0.5-0.2,0.8c0-0.4,0.2-0.6,0.1-0.6l0,0c0,0.1-0.1,0.1-0.1,0.2
		c-0.1,0.3,0,0.3-0.1,0.4v0.1v0.1c-0.1-0.4,0-0.6,0-0.7C13.2,19.1,13.3,19,13.4,18.9L13.4,18.9z M12.8,10.3c0-0.1-0.1-0.1-0.1-0.2
		c-0.1-0.4-0.1-0.2-0.1-0.5s0.1-0.3,0.1-0.4c0.1,0.2,0,0.2,0,0.3C12.7,10.1,12.7,10,12.8,10.3L12.8,10.3z M12.9,13.8
		c0,0.4,0.2,0.6,0.3,0.7l0,0l0,0C12.8,14.3,12.8,14.1,12.9,13.8c-0.1-0.1-0.1-0.1-0.1-0.2s0.1-0.1,0.1-0.2H13l0,0l0,0
		C12.8,13.6,12.9,13.8,12.9,13.8L12.9,13.8z M13.1,11.4C13,11.7,13,11.7,13,11.7c-0.1,0.3,0,0.4-0.1,0.5c0,0.1,0,0.1,0,0.2l0,0
		c-0.2-0.3,0-0.6,0-0.7C13.1,11.5,13,11.5,13.1,11.4z M13.1,14.4c-0.3-0.3-0.1-0.6-0.1-0.8l0,0C13,14,13.1,14.2,13.1,14.4z
		 M13.1,14.2c-0.1-0.4,0-0.4,0-0.6c0-0.2,0-0.1,0.1-0.2c0,0.2-0.1,0.4-0.1,0.5C13.1,14.2,13.1,14.2,13.1,14.2z M12.9,10.5
		c0.2,0.3,0.2,0.4,0.2,0.5c-0.1,0.2,0,0.2-0.1,0.3l0,0l0,0C13.1,10.9,12.9,10.6,12.9,10.5z"/>
	<path d="M22.7,29.9c0-0.2,0.1-6.7,0.2-7.4v-0.1c0-0.1,0-0.1,0-0.4c0,0,0-0.1,0-0.2c0-0.1,0-0.3,0.1-0.4c0-0.1,0.1-0.3,0-0.4
		c0-0.1,0-0.3,0-0.4s0,0,0-0.4c0-0.2-0.1-0.2,0.1-0.6c0-0.1,0,0,0.1-0.4c0-0.2,0.2-0.4,0.2-0.8l0,0c-0.1,0.1,0,0-0.1,0.2
		c0,0.1-0.1,0.2-0.1,0.3l0,0l0,0c0.1-0.1,0-0.2,0.1-0.7c0,0,0.1-0.1,0.1-0.4v-0.1c0,0,0,0,0-0.1v-0.1v-0.1c0-0.1,0-0.1,0-0.4
		c0-0.1,0.1-0.1,0.1-0.6l0,0l0,0v0.1l0,0c0,0,0,0,0,0.1l0,0l0,0l0,0v-0.1c0-0.1,0-0.1,0-0.4c0-0.1,0-0.1,0.1-0.3c0-0.1,0,0,0-0.2
		l0,0c0-0.1,0.1-0.2,0.2-0.5c0-0.1,0-0.2,0.1-0.6c-0.1,0.1,0,0.2-0.2,0.6l0,0l0,0c0-0.2,0.2-0.9,0.2-1.6l0,0c0.1,0,0,0,0-0.1l0,0
		c0-0.1,0.1-0.3,0.2-0.8c0,0,0,0,0-0.1l0,0c0,0.1,0,0.1,0,0.2l0,0l0,0c0-0.1,0,0,0-0.3c0-0.1-0.1,0.2-0.1,0.3c0,0,0,0,0,0.1
		c-0.1-0.4,0.1-0.5,0.2-1.2l0,0v-0.1c0-0.2,0-0.1,0-0.4c0,0,0,0,0.1-0.2s0-0.3,0.5-0.9c-0.2,0.2-0.3,0.3-0.5,0.8l0,0l0,0V11
		c0,0,0,0,0-0.1s0-0.2,0-0.5c0.1-0.2,0.2-0.5,0.3-1.1c0.1-0.2,0-0.1,0.1-0.4l0,0c0-0.1,0-0.1,0.1-0.3c0,0,0,0,0-0.1
		c-0.1,0,0,0-0.1,0.2l0,0l0,0c0-0.2,0.1-0.4,0.2-0.7c0-0.1,0-0.1,0.2-0.7c0,0,0,0,0-0.1l0,0c0,0.2-0.1,0.1-0.2,0.6
		c0,0.1,0,0.2-0.1,0.5c0,0.3,0,0.3-0.3,0.9c0-0.1,0-0.2,0-0.2c0.1-0.2,0.1-0.5,0.1-1c0-0.1,0-0.1,0.1-0.2l0,0l0,0c0,0,0,0,0,0.1
		c0,0,0,0-0.1,0.2c0-0.1,0.1-0.1,0-0.6l0,0c0,0.1,0,0.1,0,0.4c0,0,0,0.1,0,0c0,0,0,0,0-0.1l0,0c0-0.1-0.1-0.1,0-0.4
		c0-0.1,0.1-0.2,0.1-0.3c0.1-0.1,0-0.3,0.4-0.8c0.2-0.2,0.3-0.3,0.6-0.7l0,0c0.3-0.2,0.7-0.5,1.1-0.9c-0.4-0.5-0.4-0.4-0.2-0.7l0,0
		l0,0c0,0.1,0,0.1-0.2,0.3l-0.1,0.1L26,4.9c-0.1,0.1-0.1,0-0.4,0.3c-0.2,0.1-0.3,0.1-0.3,0.2c-0.1,0.1-0.6,0.5-0.9,1
		c-0.1,0.2-0.2,0.5-0.4,1c0-0.2,0-0.2,0-0.8c0-0.3,0-0.8-0.2-1.4c-0.1-0.4-0.2-1-0.2-1.5c0-0.3-0.1-0.8-0.1-1.4c0,0,0-0.4-0.1-0.3
		c0,0.3,0.1,0.9,0.1,1.4l0,0c0,0.4,0,0.4,0.1,1.2C23.8,5.3,24,6,24,6.9l0,0l0,0c-0.1-0.1,0,0-0.1-0.4c-0.1-0.2-0.1-0.5-0.4-1.1
		c0.1,0.3,0,0.1,0.2,0.8c0,0.1,0.1,0.4,0.2,0.9l0,0c-0.1-0.1-0.1-0.3-0.2-0.4l0,0c0,0,0-0.1-0.2-0.2l0,0c0,0,0,0,0-0.1
		c-0.1-0.1-0.2-0.3-0.4-0.7l0,0l0,0c0.1,0.2,0,0.3,0.4,0.8c0.1,0.2,0,0,0.2,0.4c0.1,0.1,0.2,0.2,0.2,0.3c0.1,0.2,0,0.2,0,0.8
		c0,0.2,0,0.4,0,0.8c0,0.1-0.1,0.2-0.1,0.3l0,0c-0.1,0-0.1,0.1-0.1,0.2c0,0.1-0.1,0.3-0.1,0.5c0,0,0,0,0,0.1c-0.1-0.2,0-0.5,0.1-1
		l0,0c-0.2,0.4-0.3,0.6-0.3,1.1c0,0.1,0,0.1,0.1,0.3c0,0.1-0.1,0.1-0.1,0.4c0,0,0,0.1-0.1,0.3c0,0.2,0.1,0.4,0,0.9
		c-0.1-0.3-0.2-1.1-0.1,0c0,0.1,0,0.1,0,0.4c0,0,0,0-0.1,0.2c0,0,0,0,0,0.2c0,0.1,0,0.2-0.1,0.2l0,0c0,0.1,0,0,0,0.1
		c0.1,0.2,0.1,0.5,0,0.9c0,0,0,0,0,0.1c0,0,0,0,0,0.1l0,0l0,0v-0.1c0,0,0-0.2,0-0.4l0,0c0,0.3,0.1,0.5,0,1c0,0.2,0,0.1,0,0.6
		c0,0.1,0,0.2,0,0.2c0,0.2-0.1,0.1-0.1,0.5v-0.1l0,0c0,0,0,0,0-0.1c0,0,0,0,0-0.1l0,0l0,0c0,0.1,0,0.1,0,0.2c0,0.1,0,0.2,0,0.5
		c0,0.3-0.1,0.2,0,0.8c0,0.1,0,0,0.1,0.3c0,0.2-0.1,0.3,0,0.7c-0.1,0,0-0.1-0.1-0.1c-0.1-0.2-0.1-0.1,0-0.5l0,0l0,0c0,0.1,0,0,0,0.3
		c0-0.1,0-0.1,0-0.1c0,0.1,0,0.2,0,0.2c0,0.2,0,0.3,0,0.8l0,0c0,0.1,0,0,0.1,0.4c0,0.1,0,0.1-0.1,0.4l0,0c0,0.2,0.1,0.5,0.1,0.9l0,0
		c0,0.9,0,0.6-0.1,2.1l0,0c-0.1,0.1-0.2,7.1-0.2,7.3L22.7,29.9z M22.9,16.2c-0.1,0.6,0,0.6,0,0.8l0,0l0,0c0-0.1-0.1-0.2-0.1-0.3
		C22.8,16.2,22.8,16.3,22.9,16.2C22.9,16.1,23,16.2,22.9,16.2c0.2,0.1,0.2,0.1,0.2,0.1c0.1,0.1,0.1,0.2,0.1,0.2c0,0.3,0,0.3-0.1,0.4
		V17v0.1c-0.2,0.1-0.3,0-0.3,0l0,0C22.9,16.7,22.9,16.3,22.9,16.2z M23.5,10.4C23.5,10.3,23.6,10.3,23.5,10.4
		C23.6,10.4,23.6,10.4,23.5,10.4c0.4,0.4,0.2,1.2,0,1c0.1-0.1,0-0.1,0-0.2C23.4,10.6,23.7,10.5,23.5,10.4z M24,9.2
		c-0.3,0.3-0.2,0.2-0.3,0.5l0,0c0,0.2,0,0.2,0,0.3c0,0,0,0,0,0.1c-0.1-0.5,0.1-0.7,0.1-0.8C23.9,9.2,23.9,9.2,24,9.2L24,9.2
		C24,9.1,24.1,9.2,24,9.2L24,9.2L24,9.2c0,0.1,0.1,0.1,0,0.2c0,0.1,0,0.2-0.1,0.3c-0.1,0.3,0,0.2-0.1,0.3C23.6,9.6,23.9,9.4,24,9.2
		C24,9.3,24,9.2,24,9.2z M22.7,18.1c0.1,0,0.1,0.1,0.2,0.1l0,0c-0.1-0.1,0,0.1,0,0.1c0.2,0.4,0.1,0.4,0.1,0.5v0.1V19l0,0l0,0h-0.1
		C22.6,18.6,22.7,18.2,22.7,18.1z M23.5,13.2v-0.4l0,0l0,0C23.4,13.2,23.4,13.1,23.5,13.2c-0.2-0.2-0.1-0.3-0.1-0.3
		c0-0.3,0.1-0.3,0-0.5c0-0.1,0,0,0.1,0l0,0c0.1,0,0.1,0.1,0.1,0.1c0,0.1,0,0.2,0.1,0.2l0,0l0,0C23.6,13.1,23.6,13.2,23.5,13.2
		L23.5,13.2c0.2-0.4,0-0.6,0-0.8c0,0.1,0,0.1,0,0.2C23.5,13.2,23.6,13.1,23.5,13.2z M23.1,14.5c0.1,0.1,0.1,0.2,0.1,0.3
		c-0.1,0.4,0,0.3-0.1,0.4C23.1,14.7,23.1,14.7,23.1,14.5c0,0.2,0,0.2,0,0.3l0,0c0,0.1,0,0.2,0,0.4C23,14.7,23,14.3,23.1,14.5
		C23.2,14.4,23.2,14.4,23.1,14.5L23.1,14.5c0.2,0.3,0.2,0.7,0,0.8l0,0l0,0C23.4,14.9,23.2,14.5,23.1,14.5
		C23.2,14.5,23.2,14.4,23.1,14.5z M24.2,8C24.3,8,24.2,8,24.2,8C24.3,8.1,24.3,8.1,24.2,8c0.1,0.5,0,0.7,0,0.8l0,0l0,0
		C24.3,8.2,24.2,8.3,24.2,8c0.2,0.6,0.1,0.8-0.1,0.9c0,0,0,0-0.1,0C23.8,8.4,24.1,8.2,24.2,8z M23.9,11.9
		C23.9,11.7,24,11.8,23.9,11.9c0,0.2,0,0.1,0,0.2s0,0.2-0.1,0.2c0,0,0,0,0,0.1l0,0c0-0.6,0.1-0.6,0.2-0.8c0,0,0,0-0.1,0
		c-0.2,0.5-0.1,0.5-0.2,0.7c0,0.1,0,0.1,0,0.2l0,0c-0.1-0.2,0-0.3,0-0.4c0-0.2,0.1-0.4,0.2-0.4c0.1-0.1,0.1-0.1,0.1-0.2l0,0
		C24,11.8,23.9,11.8,23.9,11.9z M23,18C23,18,22.9,18,23,18c-0.1-0.3-0.1-0.3-0.1-0.3c0-0.2,0.1-0.2,0.1-0.2s0-0.1,0.1-0.1
		c0.2-0.2,0.1-0.1,0.2-0.2l0,0l0,0v0.1l0,0c0,0,0,0-0.1,0C23.1,17.7,23.1,17.8,23,18L23,18C23.1,18,23,18,23,18z M23.2,16.2
		L23.2,16.2c-0.3-0.3,0-0.6,0-0.6c0.1-0.2,0.1-0.2,0.2-0.2h0.1l0,0l0,0c-0.1,0.1-0.1,0.2-0.1,0.2c0-0.1,0-0.1,0-0.1l0,0l0,0
		c-0.1,0.2,0,0.2-0.1,0.3C23.2,16.2,23.2,16,23.2,16.2z M23.1,18.9c-0.1,0.5-0.2,0.5-0.3,0.7C22.8,19.2,23,19.1,23.1,18.9L23.1,18.9
		c-0.1,0.2-0.2,0.2-0.2,0.3c-0.1,0.3-0.1,0.3-0.1,0.4c0,0,0,0,0,0.1v0.1c-0.1-0.4,0.1-0.6,0.1-0.6C23,19.1,23,19,23.1,18.9
		L23.1,18.9z M23.7,10.3c-0.1-0.1-0.1-0.2-0.1-0.2c0-0.4,0-0.3,0-0.5c0.1-0.4,0.1-0.3,0.1-0.4c0.1,0.2,0,0.2,0,0.3
		C23.6,10,23.7,9.9,23.7,10.3C23.7,10.2,23.7,10.2,23.7,10.3z M23.3,13.8c0,0.4,0.1,0.6,0.2,0.7l0,0l0,0
		C23.3,14.2,23.3,14,23.3,13.8c0.1-0.1,0-0.1,0.1-0.2c0-0.1,0.1-0.1,0.1-0.2h0.1l0,0l0,0C23.2,13.5,23.3,13.7,23.3,13.8
		C23.3,13.7,23.3,13.7,23.3,13.8z M23.8,11.4c-0.1,0.3-0.1,0.2-0.2,0.3c-0.2,0.2-0.1,0.4-0.1,0.4c-0.1,0.1,0,0.1,0,0.2l0,0
		c-0.2-0.3,0.1-0.6,0.1-0.7C23.8,11.4,23.8,11.5,23.8,11.4z M23.4,14.3c-0.3-0.4,0-0.6,0-0.8l0,0C23.4,14,23.4,14.1,23.4,14.3z
		 M23.4,14.2c-0.1-0.5,0-0.4,0.1-0.6c0.1-0.2,0.1-0.1,0.1-0.2c-0.1,0.2-0.1,0.4-0.1,0.5C23.5,14.1,23.5,14.2,23.4,14.2z M23.8,10.5
		c0.2,0.3,0.1,0.4,0.1,0.5c-0.1,0.2-0.1,0.2-0.1,0.3l0,0l0,0C24,11,23.8,10.6,23.8,10.5z"/>
	<path d="M19.3,30.5c0-0.2,0,0,0-0.7v-0.1c0-0.1,0-0.1,0-0.6c0-0.1,0.1-0.1,0-0.3c0-0.2,0-0.4-0.1-0.6c0-0.2-0.1-0.3,0-0.5
		c0-0.2,0-0.4,0-0.5c0-0.2,0,0,0-0.6c0-0.2,0.1-0.3-0.1-0.8c-0.1-0.2,0,0-0.1-0.6c0-0.3-0.2-0.5-0.2-1.1l0,0c0.1,0.1,0,0,0.1,0.3
		c0,0.1,0.1,0.2,0.1,0.3l0,0l0,0c-0.1-0.2,0-0.2-0.1-0.9c0-0.1-0.1-0.2-0.1-0.5v-0.1c0,0,0,0,0-0.1v-0.1v-0.1c0-0.1,0-0.2,0-0.5
		c-0.1-0.2-0.1-0.1-0.1-0.8l0,0l0,0c0,0.1,0,0.1,0,0.2l0,0c0,0,0,0,0,0.1c0,0,0,0,0.1,0c0,0,0,0,0-0.1c0,0,0,0,0-0.1v-0.1
		c0-0.1,0-0.2,0-0.5c0-0.1,0-0.1-0.1-0.4c0-0.2,0,0,0-0.3c0,0,0,0,0-0.1c-0.1-0.1-0.1-0.2-0.2-0.7c0-0.2-0.1-0.3-0.1-0.8
		c0.2,0.1,0.1,0.3,0.2,0.8l0,0l0,0c0-0.3-0.2-1.2-0.2-2.1l0,0c-0.1,0-0.1,0,0-0.1c0,0,0,0,0-0.1c-0.1-0.1-0.1-0.4-0.2-1
		c0,0,0,0,0-0.1l0,0c0,0.1,0,0.1,0,0.2l0,0l0,0c0-0.2,0,0-0.1-0.4c0.1-0.2,0.1,0.2,0.1,0.5V17c0.1-0.5-0.1-0.7-0.2-1.4l0,0v-0.1
		c0-0.3,0-0.1,0-0.6c-0.1,0,0,0-0.1-0.3s0-0.4-0.6-1.2c0.3,0.2,0.4,0.4,0.6,1.1l0,0l0,0v-0.1c0,0,0,0,0-0.2s0-0.2,0-0.7
		c-0.1-0.3-0.3-0.6-0.4-1.4c-0.1-0.2-0.1-0.1-0.2-0.6l0,0c0-0.1,0-0.1-0.2-0.4c0,0,0,0,0-0.2c0.1,0,0,0,0.1,0.2l0,0l0,0
		c0-0.2-0.1-0.5-0.2-0.9c0-0.2,0-0.2-0.2-0.9c0,0,0,0,0-0.2l0,0C17,9.3,17,9.3,17.1,9.9c0.1,0.1,0.1,0.2,0.2,0.6
		c0,0.4,0,0.5,0.3,1.2c0-0.1,0-0.2-0.1-0.3c-0.1-0.3-0.1-0.6-0.1-1.4c-0.1-0.1,0-0.2-0.1-0.3l0,0l0,0v0.1c0,0,0,0,0.1,0.2
		c0.1-0.1-0.1-0.2,0-0.7l0,0c0,0.1,0,0.1,0,0.5v0.1c0.1,0,0,0,0-0.1c0,0,0,0,0-0.1s0.1-0.1,0-0.6c0-0.1-0.1-0.2-0.1-0.3
		c-0.1-0.1,0-0.4-0.5-1C16.5,7.6,16.4,7.5,16,7l0,0c-0.4-0.3-0.9-0.6-1.4-1.3c-0.1-0.1-0.1-0.1-0.3-0.5l0,0l0,0
		c0.1,0.2,0,0.1,0.2,0.4c0.1,0,0.1,0.1,0.2,0.1l0.3,0.3c0.1,0.1,0.1,0,0.5,0.4c0.1,0.1,0.2,0.1,0.3,0.2c0.8,0.9,1.4,1.4,1.7,1.9
		c0.1,0.3,0.2,0.7,0.5,1.3c0-0.3,0-0.3,0-1.1c0-0.4,0-1.1,0.3-1.7c0.1-0.5,0.3-1.3,0.3-2.1c0-0.3,0.1-1.1,0.1-1.7c0,0,0-0.5,0.1-0.4
		c0,0.5-0.1,1.2-0.2,1.9l0,0c0,0.5,0,0.6-0.1,1.4C18.5,7,18.2,8,18.2,9.2l0,0l0,0c0.1-0.2,0,0,0.2-0.5c0.1-0.3,0.1-0.7,0.5-1.4
		c-0.1,0.4,0,0.1-0.3,1.1c-0.1,0.1-0.1,0.5-0.2,1.1l0,0c0,0,0.2-0.2,0.3-0.3c0,0,0,0,0-0.1s0-0.1,0.2-0.3l0,0V8.8
		C18.9,8.7,19,8.5,19.2,8l0,0l0,0c0.1,0.3,0.1,0.3-0.4,1c-0.1,0.2,0,0-0.3,0.5c-0.1,0.2-0.2,0.3-0.3,0.5s0,0.3,0,1
		c0,0.3,0.1,0.5,0,1.1c0.1,0.1,0.1,0.2,0.1,0.3l0,0c0.1,0,0.1,0.1,0.2,0.3c0,0.1,0.1,0.4,0.1,0.7c0,0,0,0,0,0.2
		c0.1-0.3,0.1-0.7-0.1-1.3l0,0c0.1,0.2,0.2,0.6,0.2,1.2c0,0.1,0,0.1-0.1,0.4c0.1,0.1,0.1,0.2,0.1,0.6c0.1,0.1,0,0.1,0.1,0.4
		c-0.1,0.3-0.1,0.5,0,1.2c0.1-0.4,0.3-1.4,0.1,0c0,0.1-0.1,0.1,0,0.6c0,0,0,0,0.1,0.2c0,0,0,0,0.1,0.2c0.1,0.1,0,0.2,0.1,0.3l0,0
		c0,0.1,0,0,0,0.2c-0.1,0.2-0.1,0.7,0,1.2v0.1v0.1l0,0l0,0v-0.1c0-0.1,0-0.3,0-0.5c0,0,0,0,0.1,0c0,0.4-0.1,0.7,0,1.3
		c-0.1,0.3,0.1,0.1,0,0.8c0,0.1,0,0.2-0.1,0.3c0,0.2,0.1,0.2,0.2,0.7c0,0,0-0.1,0.1-0.1l0,0c0,0,0,0,0-0.1v-0.1l0,0l0,0
		c0,0.1,0,0.2,0,0.3s-0.1,0.3,0,0.6c0.1,0.4,0.2,0.3,0,1.1c0,0.1-0.1,0.1-0.1,0.4s0.2,0.4,0,1c0.1,0,0-0.1,0.1-0.1
		c0.1-0.3,0.1-0.1,0-0.7c0,0,0,0,0-0.1l0,0c0,0.1,0,0,0,0.5c0-0.1,0-0.1,0.1-0.2c0,0.1,0,0.2,0,0.3c-0.1,0.2,0,0.4,0,1.1l0,0
		c0,0.2,0,0-0.1,0.6c0.1,0.2,0,0.1,0.1,0.5c0,0,0,0,0,0.1c0,0.2-0.1,0.6-0.1,1.1l0,0c-0.1,1.2,0,0.8,0.1,2.8l0,0
		c0.1,0.1,0,0.3,0.1,0.6L19.3,30.5z M19.3,21.6c0.2,0.8,0,0.9,0,1c0,0,0,0,0,0.1l0,0c0-0.1,0.1-0.2,0.1-0.4
		C19.5,21.6,19.5,21.7,19.3,21.6c0-0.1-0.1-0.1-0.2,0C19,21.7,19,21.7,19,21.8c-0.1,0.1-0.1,0.2-0.2,0.3c0,0.4,0,0.4,0.1,0.5
		c0,0,0.1,0.1,0,0.1c0,0,0,0.1,0.1,0.1c0.3,0.1,0.3,0,0.4,0c0,0,0,0,0-0.1C19.4,22.2,19.4,21.8,19.3,21.6z M18.8,14L18.8,14
		c-0.1,0.1-0.1,0-0.2,0c-0.4,0.5-0.1,1.4,0.2,1.3c-0.1-0.1,0-0.2,0-0.3C18.9,14.3,18.6,14.1,18.8,14z M18.1,12.5
		c0.3,0.4,0.2,0.3,0.3,0.6l0,0c0,0.2,0,0.3,0,0.4c0,0,0,0,0,0.1c0.2-0.6-0.1-0.9-0.1-1C18.3,12.5,18.3,12.4,18.1,12.5
		C18.2,12.4,18.2,12.4,18.1,12.5c0-0.2-0.1-0.1-0.2-0.1l0,0l0,0c0.2,0.3,0,0.3,0.1,0.4c0,0.1,0,0.3,0.1,0.4c0.1,0.4,0,0.2,0.1,0.4
		C18.6,13,18.3,12.7,18.1,12.5C18.2,12.5,18.2,12.5,18.1,12.5z M19.6,24.1c-0.1,0-0.2,0.1-0.2,0.1l0,0c0.1-0.1,0,0.2,0,0.2
		c-0.2,0.5-0.1,0.5-0.1,0.6v0.1v0.1c0,0.1,0,0.1,0.1,0l0,0c0.1,0.1,0.1,0,0.1,0C19.7,24.8,19.6,24.2,19.6,24.1z M18.8,17.7v-0.6l0,0
		l0,0C18.8,17.6,18.9,17.6,18.8,17.7c0.2-0.3,0.2-0.4,0.2-0.4C19,17,18.9,17,19,16.8c0-0.1,0-0.1-0.1-0.1c0,0,0,0-0.1,0
		c-0.2,0-0.2,0.1-0.2,0.1c0,0.1-0.1,0.2-0.1,0.3l0,0c0,0,0,0,0,0.1c-0.1,0.4,0,0.5,0,0.6C18.7,17.7,18.7,17.7,18.8,17.7
		c-0.2-0.5,0-0.8,0-1c0,0.1,0,0.1,0,0.2C18.8,17.7,18.6,17.6,18.8,17.7z M19.1,19.3C19,19.4,19,19.6,19,19.7c0.1,0.5,0,0.4,0.1,0.5
		c0-0.6,0-0.6,0-0.7c0.1,0.1,0.1,0.1,0,0.2l0,0c0,0.2,0,0.3,0,0.5c0.1-0.7,0.1-1.1-0.1-1.1c0,0,0,0-0.1,0l0,0
		c-0.2,0.5-0.2,1,0.1,1.1l0,0l0,0C18.9,20,19,19.4,19.1,19.3C19,19.3,19,19.3,19.1,19.3z M18,10.8C17.8,10.9,17.9,10.9,18,10.8
		L18,10.8c-0.1,0.6,0,0.9,0,1l0,0l0,0C17.8,11,18,11.2,18,10.8c-0.2,0.8-0.1,1,0.1,1.2h0.1C18.5,11.4,18,11.1,18,10.8z M18.3,15.9
		c0-0.2-0.1-0.2,0-0.2c0.1,0.4,0,0.3,0.1,0.4c0,0.1,0,0.2,0.1,0.3v0.1c0,0,0,0,0.1,0.1c0-0.7-0.1-0.7-0.2-1.1h0.1
		c0.2,0.7,0.1,0.6,0.2,0.9c0,0.1,0,0.1,0,0.2l0,0c0.2-0.3,0.1-0.5,0.1-0.6c0-0.3-0.2-0.5-0.2-0.5c-0.1-0.2-0.1-0.1-0.1-0.2
		c0,0,0,0-0.1,0C18.2,15.8,18.2,15.8,18.3,15.9z M19.2,24C19.2,24,19.3,24,19.2,24c0.2-0.4,0.2-0.4,0.1-0.5c0-0.3-0.1-0.3-0.1-0.3
		l-0.1-0.1C18.9,23,19,23,18.9,22.9c0,0,0,0-0.1,0l0,0V23l0,0c0.1,0,0.1,0,0.1,0.1c0.2,0.5,0.1,0.6,0.1,0.8v0.1
		C19.1,24,19.1,24,19.2,24z M18.9,21.6C19,21.6,19,21.6,18.9,21.6c0.3-0.5,0-0.7,0-0.8c-0.2-0.2-0.2-0.2-0.2-0.3h-0.1l0,0l0,0
		c0.2,0.2,0.1,0.2,0.1,0.2c0-0.2-0.1-0.2,0-0.2l0,0l0,0c0.1,0.3,0,0.3,0.1,0.4C19,21.6,19,21.3,18.9,21.6z M19,25.2
		c0.2,0.6,0.2,0.7,0.4,1c0-0.5-0.3-0.7-0.3-0.8l0,0c0,0.1,0.1,0.1,0.1,0.2c0.2,0.4,0.1,0.4,0.2,0.5v0.1c0,0.1,0,0.1,0,0.2
		c0.1-0.5-0.1-0.8-0.1-0.8C19.2,25.4,19.2,25.3,19,25.2L19,25.2z M18.5,13.9c0.1-0.1,0.1-0.2,0.1-0.3c0-0.6,0-0.3,0-0.6
		c0-0.5,0-0.5,0-0.6c-0.1,0.2,0,0.3,0,0.4C18.7,13.5,18.6,13.4,18.5,13.9C18.5,13.8,18.5,13.8,18.5,13.9z M19,18.4
		c0,0.5-0.1,0.8-0.2,1l0,0l0,0c0.3-0.4,0.3-0.6,0.3-0.8c-0.1-0.3,0-0.3-0.1-0.4c0-0.1-0.1-0.1-0.1-0.2c0,0-0.1,0-0.2,0l0,0l0,0
		C19,18.1,18.9,18.3,19,18.4C19,18.3,19,18.4,19,18.4z M18.3,15.2c0.1,0.4,0.2,0.3,0.2,0.4c0.2,0.3,0.1,0.5,0.2,0.6
		c0.1,0.2,0,0.2,0,0.2l0,0c0.2-0.4-0.1-0.8-0.2-0.9C18.4,15.3,18.4,15.3,18.3,15.2z M18.8,19.1c0.4-0.5,0-0.8,0-1.1l0,0
		C18.9,18.7,18.9,18.9,18.8,19.1z M18.8,19c0.1-0.6,0-0.6-0.1-0.8c-0.1-0.3,0-0.2-0.1-0.3c0.1,0.3,0.1,0.5,0.2,0.7
		C18.8,18.9,18.8,18.9,18.8,19z M18.4,14.2c-0.2,0.5-0.2,0.6-0.2,0.7c0.1,0.3,0.1,0.2,0.2,0.3l0,0l0,0
		C18.2,14.8,18.4,14.3,18.4,14.2z"/>
	<path d="M8.6,30.1c0-0.2,0-0.3-0.1-1.3v-0.1c0-0.1,0-0.1-0.1-0.5c0,0,0-0.1,0-0.3s0-0.4-0.1-0.5c0-0.2-0.1-0.3,0-0.5
		c0-0.2,0-0.3,0-0.5c0-0.2,0,0,0-0.5c0-0.2,0.1-0.3-0.1-0.8c-0.1-0.2,0,0-0.2-0.5c0-0.3-0.2-0.5-0.2-1l0,0c0.1,0.1,0,0,0.1,0.3
		c0,0.1,0.1,0.2,0.1,0.3l0,0l0,0c-0.1-0.2,0-0.2-0.1-0.8c0-0.1-0.1-0.2-0.1-0.4v-0.1c0,0,0,0,0-0.1V23v-0.1c0-0.1,0-0.1-0.1-0.4
		c-0.1-0.1-0.1-0.1-0.2-0.8l0,0l0,0c0,0.1,0,0.1,0,0.2l0,0c0,0,0,0,0,0.1l0,0c0,0,0,0,0-0.1c0,0,0,0,0-0.1v-0.1c0-0.1,0-0.2,0-0.5
		c0-0.1,0-0.1-0.1-0.4c0-0.1,0,0,0-0.3l0,0c-0.1-0.1-0.1-0.2-0.2-0.6c0-0.2-0.1-0.2-0.1-0.8c0.2,0.1,0.1,0.3,0.3,0.8l0,0l0,0
		c0-0.3-0.2-1.1-0.3-1.9l0,0c-0.1,0-0.1,0,0-0.1c0,0,0,0,0-0.1C7.1,17.7,7,17.6,6.9,17c0,0,0,0,0-0.1l0,0c0,0.1,0,0.1,0,0.2l0,0l0,0
		c0-0.2,0,0-0.1-0.3C7,16.6,7,17,7.1,17.2v0.1c0.1-0.5-0.1-0.6-0.3-1.4l0,0v-0.1c0-0.2,0-0.1,0-0.5c-0.1,0,0,0-0.1-0.3
		s-0.1-0.4-0.6-1c0.3,0.2,0.4,0.3,0.6,1l0,0l0,0v-0.1c0,0,0,0,0-0.1c0-0.2,0-0.2,0-0.6C6.6,14,6.4,13.7,6.3,13
		c-0.1-0.2-0.1-0.1-0.2-0.5l0,0c0-0.1,0-0.1-0.2-0.4c0,0,0,0,0-0.2c0.1,0,0,0,0.1,0.2l0,0l0,0c0.1-0.4,0-0.6-0.1-1
		c0-0.1,0-0.1-0.2-0.8c0,0,0,0,0-0.1l0,0c0.1,0.2,0.1,0.1,0.2,0.7C6,11.1,6,11.2,6.1,11.6c0.1,0.3,0.1,0.4,0.4,1.1
		c0-0.1,0-0.2-0.1-0.3c-0.1-0.2-0.1-0.5-0.2-1.2c-0.1-0.1,0-0.2-0.1-0.2l0,0l0,0c0,0,0,0,0,0.1c0,0,0,0,0.1,0.2c0-0.1-0.1-0.1,0-0.7
		l0,0c0,0.1,0,0.1,0,0.4v0.1c0.1,0,0,0,0-0.1c0,0,0,0,0-0.1s0.1-0.1-0.1-0.5c0-0.1-0.1-0.2-0.1-0.3C6.1,10,6.2,9.8,5.7,9.2
		C5.5,9,5.4,8.9,5,8.5l0,0C4.6,8.2,4.3,7.9,3.7,7.4C3.6,7.3,3.6,7.4,3.5,7l0,0l0,0c0.1,0.2,0,0.1,0.2,0.4c0.1,0,0.1,0.1,0.1,0.1
		l0.3,0.3c0.1,0.1,0.1,0,0.5,0.4c0.2,0,0.3,0.1,0.4,0.2S5.6,9,6,9.4c0.1,0.2,0.2,0.6,0.5,1.2c0-0.3,0-0.3,0-1c0-0.4,0-1,0.1-1.6
		c0-0.5,0.2-1.2,0.2-1.9c0-0.3,0.1-1,0-1.6c0,0,0-0.5,0.1-0.3c0,0.4,0,1.1-0.1,1.8l0,0c0,0.5,0,0.5-0.1,1.4c0,0.9-0.2,1.7-0.2,2.9
		l0,0l0,0c0.1-0.2,0,0,0.1-0.5C6.7,9.4,6.7,9.1,7,8.5c-0.1,0.4,0,0.1-0.2,1c0,0.1-0.1,0.5-0.1,1.1l0,0C6.8,10.3,6.9,10.1,7,10
		c0,0,0,0,0-0.1s0-0.1,0.2-0.3l0,0V9.5c0.1-0.1,0.2-0.3,0.4-0.8l0,0l0,0c-0.1,0.3,0,0.3-0.5,1c-0.1,0.2,0,0-0.2,0.5
		c-0.1,0.1-0.2,0.3-0.2,0.4c-0.1,0.2,0,0.2,0.1,1c0.1,0.2,0.1,0.5,0.1,1C7,12.6,7,12.7,7,12.8l0,0c0.1,0,0.1,0.1,0.2,0.3
		c0,0.1,0.1,0.3,0.1,0.7c0,0,0,0,0,0.2c0.1-0.2,0-0.6-0.1-1.2l0,0c0.1,0.2,0.2,0.5,0.2,1.1c0,0.1,0,0.1-0.1,0.4
		c0.1,0.1,0.1,0.2,0.1,0.5c0.1,0.1,0,0.1,0.1,0.4c0,0.3-0.1,0.5,0,1.1c0.1-0.4,0.2-1.4,0.1,0c0,0.1,0,0.1,0,0.5c0,0,0,0,0.1,0.2
		c0,0,0,0,0.1,0.2c0.1,0.1,0,0.2,0.1,0.3l0,0c0,0.1,0,0,0,0.2c-0.1,0.2-0.1,0.7,0,1.1v0.1v0.1l0,0l0,0v-0.1c0-0.1,0-0.2,0-0.5l0,0
		c0,0.4-0.1,0.6,0,1.2c0,0.2,0.1,0.1,0,0.7c0,0.1,0,0.2,0,0.3c0,0.2,0.1,0.2,0.2,0.7v-0.1l0,0c0,0,0,0,0-0.1v-0.1l0,0l0,0
		c0,0.1,0,0.2,0,0.3s0,0.3,0,0.6c0.1,0.3,0.2,0.3,0.1,1c0,0.1,0,0.1-0.1,0.3c0,0.2,0.2,0.3,0.1,0.9c0.1,0,0-0.1,0.1-0.1
		c0.1-0.2,0.1-0.1,0-0.7c0,0,0,0,0-0.1l0,0c0,0.1,0,0,0.1,0.4c0-0.1,0-0.1,0-0.2c0,0.1,0,0.2,0,0.3c-0.1,0.2,0,0.4,0,1l0,0
		c0,0.2,0,0-0.1,0.5c0.1,0.1,0,0.1,0.1,0.5l0,0c0,0.2-0.1,0.6-0.1,1.1l0,0c0,1.1,0,0.7,0.2,2.6l0,0C8.5,29.1,8.5,29.9,8.6,30.1
		L8.6,30.1z M8.2,21.3c0.2,0.7,0.1,0.8,0.1,1l0,0l0,0c0-0.1,0.1-0.2,0.1-0.4C8.3,21.3,8.3,21.4,8.2,21.3C8.2,21.2,8.1,21.2,8.2,21.3
		C8,21.4,8,21.4,8,21.5c-0.1,0.1-0.1,0.2-0.2,0.3c0.1,0.4,0.1,0.3,0.1,0.5c0,0,0.1,0.1,0,0.1v0.1c0.3,0.1,0.3,0,0.3,0l0,0
		C8.3,21.9,8.3,21.5,8.2,21.3z M7.3,14.4L7.3,14.4c-0.1,0.1-0.1,0-0.2,0c-0.4,0.5,0,1.4,0.2,1.1c-0.1-0.1,0-0.2,0-0.2
		C7.4,14.7,7.1,14.5,7.3,14.4z M6.7,13C7,13.4,6.9,13.3,7,13.5l0,0c0,0.2,0,0.3,0,0.4c0,0,0,0,0,0.1C7.1,13.5,6.9,13.1,6.7,13
		C6.8,13,6.8,13,6.7,13L6.7,13c0-0.2-0.1,0-0.2-0.1l0,0l0,0c0.2,0.2,0.1,0.3,0.1,0.3c0,0.1,0.1,0.2,0.1,0.4c0.1,0.3,0,0.2,0.1,0.4
		C7.1,13.5,6.8,13.2,6.7,13C6.7,13.1,6.7,13,6.7,13z M8.6,23.6c-0.1,0-0.2,0.1-0.2,0.1l0,0c0.1-0.1,0,0.2,0,0.1
		c-0.2,0.4-0.1,0.4-0.1,0.5v0.1v0.1c0,0,0,0,0.1,0l0,0c0.1,0.1,0.1,0,0.1,0C8.7,24.2,8.6,23.7,8.6,23.6z M7.4,17.7v-0.5l0,0l0,0
		C7.5,17.7,7.5,17.6,7.4,17.7c0.2-0.3,0.1-0.3,0.1-0.4c0-0.4-0.1-0.4,0-0.5c0-0.1,0-0.1-0.1-0.1l0,0c-0.2,0-0.1,0.1-0.2,0.1
		c0,0.1,0,0.2-0.1,0.3l0,0l0,0C7.3,17.6,7.4,17.7,7.4,17.7C7.4,17.8,7.4,17.7,7.4,17.7c-0.2-0.5-0.1-0.7,0-0.9c0,0.1,0,0.1,0,0.2
		C7.4,17.7,7.4,17.6,7.4,17.7z M7.9,19.2c-0.1,0.1-0.1,0.3-0.1,0.4c0.1,0.4,0,0.4,0.1,0.5c0-0.6,0-0.6,0-0.7c0,0.1,0,0.1,0,0.2l0,0
		c0,0.1,0,0.3,0,0.4C8,19.4,8,19,7.9,19.2C7.8,19.1,7.8,19.1,7.9,19.2L7.9,19.2c-0.2,0.3-0.2,0.8,0,0.9l0,0l0,0
		C7.6,19.8,7.8,19.3,7.9,19.2C7.8,19.2,7.8,19.2,7.9,19.2z M6.5,11.5C6.4,11.6,6.4,11.6,6.5,11.5L6.5,11.5c-0.1,0.5,0,0.8,0,0.9l0,0
		l0,0C6.3,11.7,6.4,11.8,6.5,11.5c-0.2,0.7,0,0.9,0.1,1.1h0.1C6.9,11.9,6.5,11.7,6.5,11.5z M7,16.2C7,16,6.9,16,7,16
		C7,16.3,7,16.2,7,16.2c0,0.2,0,0.3,0.1,0.4v0.1c0,0,0,0,0.1,0.1c-0.1-0.7-0.1-0.7-0.3-1H7c0.2,0.6,0.1,0.6,0.2,0.8
		c0,0.1,0,0.1,0,0.2l0,0c0.2-0.3,0-0.4,0-0.5C7.2,16,7,15.9,7,15.8c0-0.2,0-0.1-0.1-0.2c0,0,0,0-0.1,0C6.9,16,6.9,16,7,16.2z
		 M8.2,23.5L8.2,23.5c0.1-0.4,0.1-0.4,0.1-0.4c-0.1-0.3-0.1-0.2-0.1-0.3l-0.1-0.1c-0.2-0.2-0.2-0.1-0.2-0.2c0,0,0,0-0.1,0l0,0v0.1
		l0,0h0.1C8.1,23.2,8,23.3,8,23.4v0.1C8.1,23.5,8.1,23.5,8.2,23.5z M7.8,21.3L7.8,21.3c0.3-0.4,0-0.7,0-0.8
		c-0.2-0.2-0.2-0.2-0.2-0.3H7.5l0,0l0,0c0.2,0.2,0.1,0.2,0.1,0.2c0-0.1-0.1-0.1-0.1-0.2l0,0l0,0c0.1,0.3,0,0.3,0.1,0.3
		C7.9,21.3,7.9,21,7.8,21.3z M8.1,24.6c0.2,0.6,0.3,0.6,0.4,0.9c-0.1-0.4-0.3-0.6-0.3-0.7l0,0c0,0.1,0.1,0.1,0.1,0.2
		c0.2,0.3,0.1,0.4,0.2,0.5v0.1c0,0.1,0,0.1,0,0.1c0.1-0.5-0.1-0.8-0.2-0.8C8.3,24.8,8.2,24.7,8.1,24.6L8.1,24.6z M7.1,14.3
		c0.1-0.1,0.1-0.2,0.1-0.3c0-0.5,0-0.3,0-0.6C7.1,13,7,13,7,12.9c-0.1,0.2,0,0.3,0,0.3C7.2,14,7.1,13.9,7.1,14.3
		C7.1,14.2,7.1,14.2,7.1,14.3z M7.7,18.4c0,0.4-0.1,0.8-0.2,0.9l0,0l0,0C7.8,19,7.8,18.7,7.7,18.4c-0.1-0.2,0-0.2-0.1-0.3
		c0-0.1-0.1-0.1-0.1-0.2H7.4l0,0l0,0C7.7,18.1,7.6,18.3,7.7,18.4C7.7,18.3,7.7,18.3,7.7,18.4z M7,15.5c0.1,0.3,0.2,0.3,0.2,0.4
		c0.2,0.3,0.1,0.4,0.2,0.5s0,0.2,0,0.2l0,0c0.2-0.4-0.1-0.7-0.2-0.8C7,15.6,7.1,15.6,7,15.5z M7.5,19.1c0.3-0.5,0-0.8-0.1-1l0,0
		C7.6,18.6,7.5,18.8,7.5,19.1z M7.5,18.9c0-0.6,0-0.5-0.1-0.7S7.4,18,7.3,18c0.1,0.2,0.2,0.5,0.2,0.6C7.5,18.8,7.5,18.9,7.5,18.9z
		 M7,14.5c-0.2,0.4-0.2,0.5-0.1,0.7C7,15.3,7,15.3,7.1,15.4l0,0l0,0C6.8,15,7,14.7,7,14.5z"/>
</g>
</svg>
