<?xml version="1.0" encoding="utf-8"?>
<!-- Generator: Adobe Illustrator 27.6.1, SVG Export Plug-In . SVG Version: 6.00 Build 0)  -->
<svg version="1.1" id="goatgrass" xmlns="http://www.w3.org/2000/svg" xmlns:xlink="http://www.w3.org/1999/xlink" x="0px" y="0px"
	 viewBox="0 0 32 32" style="enable-background:new 0 0 32 32;" xml:space="preserve">
<g>
	<path d="M11.894,10.887L11.894,10.887c0,0.193-0.097,0.193,0,0.386c0,0.097,0.097,0.193,0.097,0.29s0.097,0.193,0.097,0.29
		c0,0.193,0,0.483,0,0.676c0,0.29,0.097,0.676,0.097,0.966c0.097,0.193,0,0.386,0.097,0.676v0.097l0,0c0,0.097,0,0.193,0,0.29
		s0,0.193,0,0.193l0,0c0,0.097,0,0.193,0,0.29c0.097,0,0.097-0.193,0.097-0.193c0.097-0.097,0.097-0.193,0.097-0.29c0,0,0,0,0-0.097
		c0,0,0,0,0,0.097c0,0.29-0.097,0.483-0.193,0.676s-0.193,0.29-0.097,0.483c0,0.097,0,0.193,0.097,0.193c0,0.097,0,0.193,0,0.29
		c0,0.29-0.097,0.58-0.097,0.87c0,0.097,0,0.193,0,0.193c0,0.097,0,0.097,0,0.193s0,0.193,0.097,0.29c0,0.097,0,0.193,0,0.29
		s0,0.097,0.097,0.097v0.097c0,0.097,0,0.097,0,0.193l0,0l0,0c0-0.097,0-0.193,0-0.193l0,0l0,0c0,0.29,0,0.483-0.097,0.676
		c0,0.097-0.097,0.193,0,0.29v0.097c0,0.193,0,0.29,0,0.483c-0.097,0.58,0,1.159,0,1.642l0,0c0,0-0.097,0.097,0,0.097
		c0,0,0,0.097,0,0.193s0,0.097,0.097,0c0,0,0,0,0,0.097s-0.097,0.29-0.097,0.386c0,0.097-0.097,0.193-0.097,0.29
		c0,0.193,0,0.386,0,0.58c0,0.097,0,0.193,0,0.29c-0.097,0.097,0,0.193-0.097,0.29l0,0c0,0.193-0.097,0.386-0.097,0.58
		c0,0.097,0,0.193,0,0.29s0,0.193,0,0.29l0,0c0,0.193,0.097,0.386,0.097,0.58c0,0.097,0,0.29-0.097,0.386c0,0,0,0.097-0.097,0.193
		c0,0.097,0,0.097,0,0.193c0,0-0.097,0.097,0,0.193c0,0.097-0.097,0.193,0,0.29l0,0l0,0c0-0.097,0-0.097-0.097-0.193l0,0l0,0
		c0,0.097,0,0.193,0.097,0.386c0,0.097,0.097,0.097,0,0.097s-0.097,0.097-0.097,0.193c0,0.193,0,0.29,0,0.483v0.097
		c0,0.483,0.097,1.063,0.097,1.546c0,0.097,0.097,0.193,0.097,0.29s0,0.193,0,0.29s0,0.193,0,0.193s0,0-0.097,0
		c0,0-0.097,0-0.097-0.097s0-0.097-0.097-0.193V29.63v0.097c0,0.097,0.097,0.097,0,0.193l0,0l0,0
		c-0.097-0.193-0.097-0.29-0.193-0.483s-0.097-0.386-0.193-0.58c-0.097-0.193-0.097-0.29-0.193-0.483
		c0-0.097-0.097-0.29-0.097-0.386s-0.097-0.29-0.097-0.386c0-0.097-0.097-0.29-0.097-0.386c0-0.097,0-0.193-0.097-0.29
		c-0.097-0.193-0.097-0.29-0.097-0.483c0-0.193-0.097-0.483-0.193-0.676c-0.097-0.193-0.097-0.29-0.193-0.483
		c-0.097-0.29-0.097-0.483-0.193-0.773c-0.097-0.193-0.097-0.386-0.097-0.483c-0.097-0.193-0.097-0.483-0.193-0.676
		c-0.097-0.193-0.097-0.29-0.097-0.483c0-0.097,0-0.193-0.097-0.193c0-0.193-0.097-0.29-0.097-0.483c0-0.29-0.097-0.676-0.193-0.966
		c-0.097-0.193-0.097-0.386-0.193-0.676c0-0.097-0.097-0.193-0.097-0.29v-0.097c0.097,0,0,0,0,0.097
		c0.097,0.193,0.193,0.386,0.29,0.676c0.097,0.097,0.097,0.29,0.097,0.386c0,0.29,0.097,0.483,0.193,0.676
		c0.193,0.386,0.29,0.773,0.386,1.256l0,0c0.097,0.193,0.097,0.29,0.193,0.483c0,0.193,0.097,0.29,0.193,0.483
		c0,0.097,0.097,0.097,0.097,0.193v0.097c0,0,0,0-0.097-0.097c0,0,0,0-0.097,0l0,0c0.097,0.097,0.097,0.29,0.097,0.386
		c0.097,0.097,0,0.193,0,0.29c0,0,0,0,0,0.097c0,0,0,0,0-0.097l0,0v0.097c0,0,0,0,0.097,0.097v-0.097c0-0.097,0-0.097-0.097-0.193
		c0-0.097,0-0.097,0-0.193l0,0l0,0c0.097,0.29,0.193,0.58,0.29,0.87c0.097,0.193,0.193,0.483,0.193,0.676
		c0,0.097,0.097,0.29,0.097,0.386c0.097,0.097,0,0.29,0.097,0.386c0,0.193,0.097,0.29,0.097,0.483c0,0.193,0.097,0.29,0.097,0.483
		l0,0l0,0c0-0.193,0-0.386,0-0.58c0-0.097,0-0.193,0-0.386s0-0.29-0.097-0.483v-0.097c0-0.097,0-0.193,0-0.193
		c0-0.58,0-1.159-0.097-1.739c0-0.097,0-0.193-0.097-0.29c0-0.097,0.097-0.097,0-0.193c0-0.097-0.097-0.193,0-0.193l0,0
		c-0.097-0.097-0.097-0.29-0.097-0.386v-0.097c0-0.097,0-0.097,0-0.193c0,0.097,0.097,0.193,0.097,0.193v0.097l0,0l0,0
		c0-0.097,0.097-0.29,0.097-0.386s0-0.097,0-0.193c0-0.097,0-0.097,0-0.193s-0.097-0.29,0-0.386V22.29c-0.097-0.193,0-0.483,0-0.676
		c0-0.097,0-0.193,0-0.193v-0.097c0.097-0.097,0-0.29,0.097-0.483c0,0,0,0,0-0.097c0-0.193-0.193-0.29-0.193-0.483
		c0,0-0.097-0.097,0-0.097v-0.097l0.097,0.097c0,0.097,0,0.193,0.097,0.29l0,0l0,0c0-0.097,0-0.097,0-0.097
		c-0.097-0.097,0-0.29,0-0.386s0-0.097,0-0.193v-0.097c0,0,0,0,0-0.097c0-0.193,0.097-0.483,0.097-0.676c0-0.097,0-0.193,0-0.193
		v-0.097c0-0.29,0-0.483-0.097-0.773v-0.097V17.65l0,0c0-0.097,0-0.29,0-0.386c-0.097-0.097-0.097-0.193-0.193-0.29c0,0,0,0,0-0.097
		s0-0.097,0-0.193l0.097,0.097c0,0.097,0,0.193,0.097,0.193l0,0l0,0c-0.097-0.097,0-0.193,0-0.29s0-0.193,0-0.193
		c0-0.386,0.097-0.676,0.097-1.063c0-0.097,0.097-0.193,0-0.29c-0.097-0.29,0-0.58,0-0.773c0-0.29,0-0.58,0-0.87
		c0-0.097,0.097-0.097,0-0.193c0,0,0-0.097,0-0.193s0-0.097,0-0.193s0-0.097,0-0.097c-0.097-0.097-0.097-0.097-0.097-0.29
		s-0.097-0.29-0.097-0.386v-0.097l0,0l0,0c0,0,0,0.097,0.097,0.097c0,0.193,0.193,0.386,0.29,0.58l0,0l0,0l0,0
		c-0.097-0.193-0.097-0.29-0.097-0.483s0-0.386,0-0.58v-0.097c0-0.29,0.097-0.58,0.097-0.87c0-0.193,0.097-0.386,0-0.58
		c0-0.097,0-0.193,0-0.386s0-0.386,0.097-0.676c0-0.097,0-0.193,0-0.29s0-0.193,0-0.386c0-0.097-0.097-0.193-0.097-0.29
		c0-0.193-0.097-0.386-0.193-0.676c-0.097-0.193-0.097-0.386-0.193-0.58c-0.097-0.29-0.193-0.58-0.193-0.773c0,0.097,0,0,0-0.097
		c-0.097-0.193-0.097-0.386-0.193-0.58c0-0.29-0.193-0.483-0.193-0.773c-0.097-0.193-0.193-0.483-0.29-0.676
		C10.06,3.737,10.06,3.64,9.964,3.447c0,0,0,0,0-0.097l0,0c0.097,0.193,0.193,0.483,0.29,0.676c0.097,0.193,0.097,0.483,0.193,0.676
		c0.097,0.193,0.097,0.483,0.29,0.676c0,0.097,0.097,0.193,0.097,0.29v0.097v0.097h0.097c0,0.097,0.097,0.193,0.097,0.29V6.25
		c0,0,0,0,0.097,0l0,0c0,0.193,0.097,0.29,0.097,0.483s0.097,0.29,0.097,0.386c0.097,0.193,0.097,0.386,0.193,0.58v0.097
		c0,0.097,0,0.097,0.097,0.193c0.097,0,0-0.097,0-0.193c0-0.193,0-0.29,0-0.483c0-0.097,0-0.29,0-0.386s0-0.193,0-0.386
		c0,0,0-0.097,0-0.193c0-0.58,0-1.063,0-1.642c0-0.097,0-0.193,0-0.193V4.414V4.317c-0.097-0.193,0-0.386,0-0.58
		c0-0.097,0-0.29,0-0.386c0,0,0,0,0-0.097c0,0,0,0,0.097,0.097l0,0c0,0.676,0.097,1.256,0.097,1.932
		c0.097,0.483,0,0.966,0.097,1.353c0,0.193,0,0.386,0.097,0.58c0,0.193,0,0.386,0,0.58c0,0.097,0.097,0.097,0,0.193
		c0.097,0.097,0,0.193,0,0.29s0,0.193,0,0.29l0,0l0,0c0-0.193,0-0.29,0.097-0.483s0-0.483,0.097-0.676
		c0-0.193,0.097-0.483,0.097-0.676c0.097-0.29,0.097-0.676,0.193-0.966c0-0.097,0-0.29,0.097-0.386c0-0.097,0-0.193,0-0.29
		s0-0.193,0.097-0.29l0,0c0-0.193,0-0.386,0.097-0.58c0-0.193,0-0.386,0-0.58l0,0l0,0c0,0.193,0.097,0.386,0,0.58c0,0,0,0,0,0.097
		c0,0.193,0,0.386,0,0.58c0,0.29,0,0.483-0.097,0.773c0,0.193,0,0.483-0.097,0.676c0,0.097,0,0.29-0.097,0.386
		c0,0.193-0.097,0.386-0.097,0.58l0,0c0,0.193,0,0.386,0,0.58c0,0,0,0,0,0.097c0,0,0,0,0-0.097c0.097-0.483,0.193-0.87,0.386-1.353
		V6.443V6.346v0.097c0,0.097-0.097,0.193-0.097,0.29c-0.097,0.193-0.097,0.386-0.193,0.58c0,0.29-0.193,0.483-0.193,0.773
		c0,0.193-0.097,0.386-0.097,0.483l0,0c0,0.193,0,0.29-0.097,0.483c0,0.193,0,0.29,0.097,0.386c0,0.193,0.097,0.483,0,0.58
		c0,0.097,0,0.193-0.097,0.29c0,0.097,0,0.29,0,0.386v0.097C11.797,10.887,11.894,10.887,11.894,10.887
		C11.894,10.791,11.894,10.791,11.894,10.887z M11.314,2.288L11.314,2.288c0-0.097,0-0.193,0-0.193V1.999
		C11.314,2.095,11.314,2.095,11.314,2.288c0,0,0.097,0.097,0.097,0.193l0,0l0,0c0,0,0-0.097,0,0.483c0,0.097,0,0.193,0,0.29v0.097
		c0,0,0,0,0.097,0l0,0c0-0.097,0-0.193,0-0.386c0-0.097,0-0.29,0-0.386c0,0,0,0,0-0.097c0,0,0,0,0,0.097
		C11.314,2.675,11.314,2.772,11.314,2.288z M13.15,4.511C13.15,4.414,13.15,4.414,13.15,4.511c0-0.097,0-0.097,0-0.193
		C13.053,4.414,13.053,4.414,13.15,4.511C13.053,4.511,13.053,4.511,13.15,4.511c-0.097,0.097-0.097,0.193-0.097,0.29l0,0l0,0
		C13.053,4.704,13.15,4.607,13.15,4.511z M12.86,5.283C12.86,5.283,12.763,5.283,12.86,5.283c-0.097,0.193-0.097,0.29-0.097,0.386
		l0,0l0,0V5.573C12.763,5.477,12.86,5.38,12.86,5.283C12.86,5.38,12.86,5.283,12.86,5.283z M11.894,19.872
		C11.894,19.872,11.797,19.872,11.894,19.872c-0.097,0.097-0.097,0.193-0.097,0.193c0,0.097,0,0.097-0.097,0
		c0,0-0.097-0.097-0.097,0v0.097c0,0.193,0,0.29,0,0.483v0.097l0,0l0,0c0-0.097,0-0.193,0-0.193l0,0l0,0c0,0.193,0,0.29,0,0.483
		c0,0.097,0,0.097,0.097,0.097s0.097,0,0.097-0.097s-0.097-0.193,0.097-0.29v-0.29C11.99,20.162,11.894,20.066,11.894,19.872
		c0.097,0,0-0.097,0.097-0.097c0.097-0.097,0-0.097,0-0.097h-0.097c0,0,0,0.097-0.097,0.097
		C11.797,19.776,11.797,19.776,11.894,19.872C11.797,19.776,11.894,19.776,11.894,19.872C11.894,19.776,11.894,19.872,11.894,19.872
		z M11.797,22.191c0-0.193-0.097-0.29-0.097-0.483l-0.097-0.097c-0.097,0-0.193,0.193-0.097,0.29c0.097,0.097,0,0.193,0,0.193
		c0,0.193,0,0.386,0,0.58c0,0,0,0.097,0.097,0.097s0.097,0,0.193-0.097h-0.097l0,0l0.097-0.097c0,0,0,0.097,0.097,0
		C11.701,22.384,11.701,22.288,11.797,22.191z M11.894,14.752L11.894,14.752c0-0.097,0-0.193,0-0.29s-0.097-0.29-0.097-0.386
		c0,0,0,0,0-0.097c0,0,0,0,0,0.097c0,0,0,0,0,0.097c0,0,0,0,0-0.097c0,0,0,0,0-0.097c-0.097,0-0.097,0-0.097-0.097l0,0
		c0,0.097-0.097,0.193,0,0.386c0,0.193,0,0.483,0,0.676l0,0l0,0c0-0.097,0-0.193,0.097-0.386c0-0.097,0-0.193,0-0.193
		c0,0.097,0,0.097,0,0.193c0,0.097,0,0.097,0,0.193l0,0l0,0v-0.097c0-0.097,0-0.097,0-0.193
		C11.894,14.559,11.894,14.655,11.894,14.752s-0.097,0.193,0,0.193l0,0l0,0C11.894,14.848,11.894,14.752,11.894,14.752z
		 M11.99,18.906c0-0.193-0.097-0.29-0.097-0.483c0-0.097-0.097-0.29-0.097-0.386l0,0l0,0v0.097c0,0.097,0.097,0.097,0,0.193
		c0,0,0,0-0.097,0l0,0v0.097c0,0,0,0,0,0.097l0,0c0,0,0,0,0-0.097v-0.097v0.097c0,0.097,0,0.193,0.097,0.29v0.097
		c-0.097,0.097,0.097,0.193,0,0.29l0,0l0,0c0-0.097,0.097-0.097,0.097-0.193c0,0,0-0.097,0.097-0.097
		C11.894,18.81,11.894,18.906,11.99,18.906C11.894,18.906,11.894,19.003,11.99,18.906C11.894,19.003,11.894,19.003,11.99,18.906
		C11.99,19.003,11.99,19.003,11.99,18.906C11.99,19.003,11.99,18.906,11.99,18.906z M11.507,23.93L11.507,23.93
		c0,0.097,0,0.097,0,0.097C11.604,24.027,11.604,23.93,11.507,23.93C11.604,23.93,11.604,23.93,11.507,23.93
		C11.604,23.93,11.604,23.93,11.507,23.93c0.097,0.193,0.097,0.29,0.097,0.386l0,0l0,0c0,0,0,0,0-0.097s0-0.193,0-0.29
		c0.097,0.097,0,0.193,0,0.29v0.097c0,0,0,0.097,0.097,0.097c0,0,0,0,0.097,0c0,0,0.097,0,0-0.097c0,0-0.097,0-0.097-0.097
		s0-0.29,0.097-0.386c0-0.097,0-0.193,0.097-0.29c0,0,0.097-0.097,0-0.193c-0.097-0.097,0-0.097,0-0.193l0,0l0,0
		c0,0.097,0,0.097,0,0.193v0.097c-0.097,0-0.097,0.097-0.193,0.097s-0.193,0.097-0.193,0.193
		C11.604,23.737,11.507,23.834,11.507,23.93z M11.894,16.394L11.894,16.394C11.797,16.394,11.797,16.394,11.894,16.394
		c0-0.097-0.097-0.097-0.097-0.193c0,0.097,0,0.097,0,0.193c0,0,0,0,0,0.097s0,0.193,0,0.193c-0.097-0.097,0-0.193,0-0.29l0,0l0,0
		c0,0.097,0,0.193,0,0.29c0,0.193,0,0.29,0,0.483c0,0,0,0,0,0.097h0.097c0-0.097,0-0.193,0-0.29v-0.097v0.097
		c0,0.097,0,0.193,0,0.193v0.097c0,0,0,0,0-0.097s0-0.097,0-0.193c0-0.097,0-0.193,0-0.193c-0.097-0.097,0-0.097,0-0.193
		C11.894,16.587,11.894,16.587,11.894,16.394c0,0.097,0,0.097,0,0.193c0,0.097,0,0.097,0,0.193l0,0l0,0c0-0.097,0-0.193,0-0.193
		S11.894,16.491,11.894,16.394L11.894,16.394 M11.507,25.283c0,0.097,0,0.193,0,0.29c0,0,0,0,0,0.097h0.097c0,0,0,0.097,0.097,0.097
		l0,0c0-0.097,0-0.097,0-0.193c0,0,0-0.097,0.097,0c0,0,0,0,0,0.097l0,0c0-0.193,0-0.29-0.097-0.483l0,0c0,0,0,0,0,0.097
		c0,0,0,0,0,0.097c0,0,0.097,0,0,0.097c0,0,0,0-0.097-0.097v-0.097c0,0,0-0.097-0.097-0.097
		C11.411,25.186,11.507,25.283,11.507,25.283C11.507,25.09,11.507,25.186,11.507,25.283z M11.797,11.95c0-0.097,0-0.097,0-0.193
		c0,0,0,0,0-0.097c0,0,0,0,0,0.097S11.797,11.853,11.797,11.95L11.797,11.95c-0.097,0-0.097,0-0.097,0
		c-0.097-0.097-0.097-0.193-0.097-0.29l0,0l0,0v0.097c0,0.097,0,0.097,0,0.193s0.097-0.097,0.097,0c0,0.193,0,0.29,0,0.483l0,0
		c0,0.097,0.193,0.097,0.193,0.097c0.097,0,0-0.097,0-0.193c0-0.097,0-0.097,0-0.193c-0.097,0.097,0,0.097,0,0.193v0.097
		l-0.097-0.097C11.797,12.24,11.797,12.143,11.797,11.95C11.797,12.143,11.797,12.047,11.797,11.95z M11.701,9.245L11.701,9.245
		c-0.097,0.097-0.097,0.193-0.193,0.29v0.097c0.097,0,0,0.097,0,0.193s0,0.097,0,0.193l0,0l0,0c0-0.097,0-0.193,0-0.193l0,0l0,0
		c0,0,0,0,0,0.097c0,0,0,0,0-0.097s-0.097-0.193,0-0.29C11.797,9.341,11.797,9.341,11.701,9.245
		C11.797,9.245,11.797,9.245,11.701,9.245z M11.604,19.486h-0.097c-0.097,0-0.097,0-0.097,0.097v0.097c0,0.097,0,0.193,0.097,0.29
		l0,0l0,0c0,0,0,0,0-0.097C11.507,19.679,11.507,19.583,11.604,19.486L11.604,19.486L11.604,19.486
		C11.701,19.486,11.701,19.486,11.604,19.486z M11.411,26.152L11.411,26.152C11.507,26.152,11.507,26.152,11.411,26.152
		c0.097,0,0.097,0,0.097,0h0.097c0-0.097,0.097-0.097,0.193-0.193l0,0c0,0,0,0-0.097,0s-0.097,0.097-0.193,0.097
		C11.411,25.959,11.411,26.056,11.411,26.152z M11.99,13.592L11.99,13.592c-0.097-0.097-0.097-0.097-0.097-0.193
		c0-0.097,0-0.097,0-0.193c-0.097,0.097,0,0.193,0,0.193c-0.097,0.097-0.097,0.097,0,0.193c0,0,0.097,0.097,0.097,0.193
		C11.99,13.786,11.99,13.689,11.99,13.592L11.99,13.592L11.99,13.592z M11.701,10.307C11.604,10.307,11.604,10.307,11.701,10.307
		c0,0.193-0.097,0.193-0.097,0.29v0.097h0.097v-0.097c0-0.097,0-0.097,0-0.193c0-0.097,0.097,0,0.097,0
		C11.797,10.404,11.797,10.307,11.701,10.307z M11.701,21.515c0-0.097-0.193-0.193-0.193-0.193s0,0-0.097,0.097c0,0,0,0,0.097,0
		C11.604,21.418,11.507,21.515,11.701,21.515C11.604,21.515,11.604,21.515,11.701,21.515C11.604,21.515,11.701,21.515,11.701,21.515
		z M11.411,14.655c0,0.097,0,0.193,0,0.386C11.507,14.848,11.507,14.752,11.411,14.655c0.097-0.097,0.097-0.193,0-0.29
		C11.411,14.462,11.411,14.559,11.411,14.655z M11.604,11.08c0,0.097,0,0.097,0,0.193C11.604,11.177,11.604,11.08,11.604,11.08
		c0.097-0.097,0.097-0.097,0.097-0.193l0,0l0,0C11.604,10.887,11.604,10.984,11.604,11.08z M11.797,16.008
		c0.097,0,0.097-0.097,0.193-0.097l0,0l0,0c-0.097,0.097-0.097,0.097-0.193,0l0,0C11.701,15.911,11.701,15.911,11.797,16.008
		C11.701,16.008,11.701,16.008,11.797,16.008z M11.99,10.694C11.99,10.597,11.99,10.597,11.99,10.694
		c0.097,0,0.193-0.097,0.097-0.193c0-0.097-0.097-0.193,0-0.29c0,0,0,0,0-0.097H11.99C12.087,10.307,11.99,10.404,11.99,10.694
		C11.894,10.694,11.894,10.694,11.99,10.694z M11.314,3.255L11.314,3.255c0,0.097,0,0.097,0.097,0.097
		C11.411,3.351,11.411,3.351,11.314,3.255c0.097,0,0.097-0.193,0.097-0.29s0-0.29,0-0.386c0,0,0,0,0-0.097c0,0,0,0,0,0.097
		s0,0.29,0,0.386C11.314,2.965,11.314,3.158,11.314,3.255z M11.797,10.887C11.797,10.887,11.894,10.887,11.797,10.887
		c0.097-0.097,0.097-0.097,0.097,0c0.097-0.097,0.097-0.097,0.097-0.193c0,0,0-0.097-0.097,0s0,0-0.097,0
		C11.797,10.694,11.797,10.791,11.797,10.887z M13.15,4.414L13.15,4.414C13.053,4.414,13.053,4.414,13.15,4.414
		c-0.097,0.097-0.097,0.097-0.097,0.193s0,0.097-0.097,0.193l0,0l0,0c0-0.097,0.097-0.193,0.097-0.29
		C13.15,4.414,13.15,4.414,13.15,4.414z M11.314,2.288c0-0.097,0-0.097-0.097-0.193V1.999c0,0.097,0,0.097,0,0.193
		c0,0.097,0.097,0.193,0.097,0.29l0,0l0,0C11.314,2.385,11.314,2.385,11.314,2.288L11.314,2.288z M12.763,5.283
		c0,0.097-0.097,0.193-0.097,0.386l0,0l0,0V5.573C12.763,5.477,12.86,5.38,12.763,5.283C12.86,5.38,12.86,5.283,12.763,5.283
		C12.86,5.283,12.763,5.283,12.763,5.283z M11.507,14.945c0-0.097,0-0.193,0-0.29s0-0.193,0-0.29c0,0.097,0,0.193,0,0.29
		S11.411,14.848,11.507,14.945z"/>
	<path d="M19.913,30.114c0-0.193,0.386-2.222,0.483-2.995v-0.097c0-0.097,0-0.097,0.097-0.386c0,0,0.097-0.097,0-0.193
		c0-0.097,0-0.29,0-0.386c0-0.097,0-0.29,0.097-0.386c0-0.097,0.097-0.29,0.097-0.386s0,0,0.097-0.386
		c0-0.193,0.097-0.193,0.097-0.58c0-0.097,0,0,0-0.386c0-0.193-0.097-0.386,0-0.773l0,0c0,0.097,0,0,0,0.193
		c0,0.097,0,0.193,0.097,0.29l0,0l0,0c0-0.097,0-0.193,0.097-0.676c0-0.097,0-0.097,0-0.386v-0.097c0,0,0,0,0-0.097V22.29v-0.097
		c0,0,0-0.097,0-0.386c0-0.097-0.097-0.097,0-0.58l0,0l0,0v0.097l0,0c0,0,0,0,0,0.097l0,0l0,0l0,0v-0.097
		c0-0.097,0.097-0.097,0.097-0.386c0-0.097,0-0.097,0-0.29c0-0.097,0,0,0-0.193l0,0c0-0.097,0-0.193-0.097-0.483
		c0-0.097,0-0.193,0.097-0.58c0.097,0.097,0,0.193,0,0.676l0,0l0,0c0-0.193,0-0.87,0.193-1.642l0,0c-0.097,0,0,0,0-0.097l0,0
		c0-0.097,0-0.29,0-0.773c0,0,0,0,0-0.097l0,0c0,0.097,0,0.097,0,0.193l0,0l0,0c0-0.097,0,0,0-0.29c0.097-0.097,0,0.193,0,0.386
		c0,0,0,0,0,0.097c0.193-0.29,0-0.483,0.097-1.159l0,0v-0.097c0.097-0.193,0-0.097,0.097-0.386c0,0,0,0,0-0.193s0-0.29-0.29-0.966
		c0.193,0.193,0.193,0.29,0.29,0.87l0,0l0,0v-0.097c0,0,0,0,0-0.097c0.097-0.097,0-0.193,0.097-0.483c0-0.193-0.097-0.483,0-1.159
		c0-0.193,0-0.097,0-0.483l0,0c0-0.097,0-0.097,0-0.29c0,0,0,0,0-0.097c0,0,0,0,0,0.193l0,0l0,0c0-0.193,0-0.386,0-0.676
		c0-0.097,0-0.097,0-0.676c0,0,0,0,0-0.097l0,0c0,0.193,0,0.097,0,0.58c0,0.097,0,0.193,0,0.483s0,0.29,0,0.966
		c0-0.097,0-0.193,0-0.193c0-0.29,0-0.483,0.193-0.966c0-0.097,0-0.097,0-0.193l0,0l0,0c0,0,0,0,0,0.097c0,0,0,0,0,0.193
		c0.097-0.097-0.097-0.097,0.097-0.483l0,0c0,0.097,0,0-0.097,0.29c0,0,0,0,0,0.097c0,0,0,0,0-0.097l0,0
		c0-0.097,0.097-0.097,0.097-0.386c0-0.097,0-0.193,0-0.29s0-0.29-0.193-0.87c-0.193-0.193-0.193-0.386-0.386-0.773l0,0
		c-0.193-0.29-0.483-0.58-0.773-1.159c-0.097-0.097-0.097-0.097-0.097-0.386l0,0l0,0c0,0.193,0,0.097,0.097,0.386l0.097,0.097
		l0.773-0.097c0,0.097,0.097,0.097,0.29,0.386c0,0.097,0.097,0.097,0.193,0.193c0.097,0.097,0.483,0.58,0.58,1.063
		c0.097,0.193,0.097,0.483,0.193,1.063c0.097-0.193,0.097-0.193,0.193-0.773c0.097-0.29,0.193-0.773,0.483-1.256
		c0.097-0.386,0.386-0.87,0.58-1.546c0.097-0.193,0.29-0.773,0.386-1.256c0,0,0.097-0.386,0.097-0.193
		c-0.097,0.29-0.29,0.87-0.386,1.449l0,0c-0.097,0.386-0.097,0.386-0.29,1.063s-0.58,1.256-0.773,2.222l0,0l0,0
		c0.097-0.097,0,0,0.193-0.29c0.193-0.193,0.193-0.483,0.58-0.966c-0.193,0.29,0,0.097-0.386,0.676
		c-0.097,0.097-0.193,0.386-0.29,0.773l0,0c0.097-0.097,0.193-0.193,0.29-0.29l0,0c0,0,0-0.097,0.193-0.193l0,0c0,0,0,0,0-0.097
		c0.097-0.097,0.193-0.193,0.483-0.483l0,0l0,0c-0.097,0.193-0.097,0.29-0.58,0.676c-0.097,0.097,0,0-0.29,0.29
		c-0.097,0.097-0.193,0.193-0.29,0.29s0,0.193-0.193,0.773c0,0.193,0,0.386-0.193,0.773c0,0.097,0,0.193,0,0.29l0,0
		c0.097,0,0.097,0.097,0.097,0.29c0,0.097,0,0.29,0,0.58c0,0,0,0,0,0.097c0.097-0.193,0.097-0.483,0.097-0.966l0,0
		c0.097,0.097,0.097,0.483-0.097,0.87c0,0.097,0,0.097-0.193,0.29c0,0.097,0,0.097,0,0.386c0,0.097,0,0.097,0,0.29
		c-0.097,0.193-0.193,0.386-0.193,0.87c0.097-0.29,0.386-1.063,0.097,0c0,0.097-0.097,0.097-0.097,0.386c0,0,0,0,0,0.193
		c0,0,0,0,0,0.193c0,0.097,0,0.193,0,0.29l0,0c0,0.097,0,0,0,0.097c-0.097,0.193-0.193,0.483-0.193,0.87c0,0,0,0,0,0.097v0.097l0,0
		l0,0v-0.097c0,0,0-0.193,0.097-0.386l0,0c0,0.29-0.193,0.483-0.193,0.87c-0.097,0.193,0,0.097-0.097,0.58
		c0,0.097,0,0.097-0.097,0.193c0,0.193,0.097,0.193,0,0.58c0,0,0,0,0.097-0.097l0,0l0,0c0,0,0,0,0-0.097l0,0l0,0
		c0,0.097,0,0.097,0,0.193c0,0.097-0.097,0.193-0.097,0.483s0.097,0.193-0.193,0.773c0,0.097,0,0-0.097,0.29
		c0,0.193,0.097,0.29-0.097,0.676c0.097,0,0-0.097,0.097-0.097c0.097-0.193,0.097-0.097,0.097-0.483l0,0l0,0c0,0.097,0,0,0,0.29
		c0-0.097,0-0.097,0.097-0.097c0,0.097,0,0.193-0.097,0.193c-0.097,0.193-0.097,0.29-0.193,0.773l0,0c-0.097,0.097,0,0-0.193,0.386
		c0,0.097,0,0.097,0,0.386l0,0c0,0.193-0.193,0.386-0.29,0.773l0,0c-0.29,0.87-0.097,0.58-0.386,2.126l0,0
		c0,0.097-0.483,2.705-0.483,2.995L19.913,30.114z M21.845,21.032c0,0.58-0.097,0.58-0.097,0.773l0,0l0,0
		c0-0.097,0.097-0.193,0.097-0.29C21.942,21.032,21.845,21.128,21.845,21.032c0-0.097-0.097-0.097-0.097-0.097
		c-0.097,0.097-0.097,0.097-0.097,0.097c-0.097,0.097-0.097,0.097-0.193,0.193c-0.097,0.29,0,0.29,0,0.386v0.097v0.097
		c0.193,0.097,0.193,0.097,0.29,0.097l0,0C21.749,21.418,21.845,21.128,21.845,21.032z M22.522,15.138L22.522,15.138
		c-0.097,0-0.097-0.097-0.097-0.097c-0.386,0.29-0.29,1.063-0.097,0.966c-0.097-0.097,0-0.097,0-0.193
		C22.522,15.428,22.425,15.235,22.522,15.138z M22.328,13.979c0.193,0.386,0.097,0.29,0.097,0.483l0,0
		c-0.097,0.193-0.097,0.193-0.097,0.29c0,0,0,0,0,0.097c0.193-0.386,0.097-0.676,0.097-0.773S22.425,13.979,22.328,13.979
		L22.328,13.979c0-0.097-0.097-0.097-0.097-0.097l0,0l0,0c0.097,0.193,0,0.193,0,0.29s0,0.193,0,0.29c0,0.29,0,0.193,0,0.29
		C22.618,14.462,22.328,14.172,22.328,13.979C22.328,14.075,22.328,13.979,22.328,13.979z M21.652,22.867c-0.097,0-0.097,0-0.193,0
		l0,0c0.097,0,0,0.097,0,0.097c-0.193,0.29-0.097,0.29-0.193,0.386v0.097v0.097l0,0l0,0c0,0.097,0.097,0,0.097,0
		C21.555,23.35,21.555,22.964,21.652,22.867z M21.942,18.037l0.097-0.386l0,0l0,0C22.038,17.94,22.038,17.94,21.942,18.037
		c0.193-0.193,0.193-0.193,0.193-0.29c0.097-0.29,0-0.29,0.097-0.386c0-0.097,0-0.097,0-0.097l0,0c-0.097-0.097-0.097,0.097-0.193,0
		c-0.097,0.097-0.097,0.097-0.193,0.193l0,0l0,0C21.845,17.843,21.845,17.94,21.942,18.037C21.845,17.94,21.942,17.94,21.942,18.037
		c-0.097-0.386,0.097-0.58,0.193-0.773c0,0.097,0,0.097,0,0.097C21.942,18.037,21.845,17.843,21.942,18.037z M22.038,19.196
		c-0.097,0.097-0.097,0.193-0.193,0.29c0,0.386-0.097,0.29,0,0.386c0.097-0.483,0.097-0.386,0.097-0.58c0,0.097,0,0.097,0,0.193l0,0
		c0,0.097-0.097,0.193-0.097,0.386C22.038,19.486,22.135,19.099,22.038,19.196C21.942,19.099,21.942,19.099,22.038,19.196
		C21.942,19.099,21.942,19.196,22.038,19.196c-0.29,0.29-0.386,0.676-0.193,0.773l0,0l0,0
		C21.652,19.679,21.942,19.293,22.038,19.196C21.942,19.196,21.942,19.196,22.038,19.196z M22.522,12.723
		C22.328,12.723,22.425,12.723,22.522,12.723c-0.097,0.097-0.097,0.097-0.097,0.097c-0.097,0.29-0.097,0.58-0.097,0.676l0,0l0,0
		c0-0.58,0.097-0.483,0.097-0.676c-0.193,0.483-0.097,0.676,0,0.87c0,0,0,0,0.097,0C22.715,13.206,22.425,12.916,22.522,12.723z
		 M21.845,16.587c0-0.193,0-0.097,0-0.097c0,0.29,0,0.193,0,0.29s0,0.193,0,0.29c0,0,0,0,0,0.097c0,0,0,0,0,0.097
		c0.097-0.483,0-0.58,0-0.87l0,0c0.097,0.483,0,0.483,0,0.676c0,0.097,0,0.097,0,0.097l0,0c0.193-0.193,0.097-0.29,0.097-0.386
		c0-0.193-0.097-0.386-0.097-0.386c-0.097-0.193,0-0.097-0.097-0.193c0,0,0,0-0.097,0C21.845,16.491,21.845,16.491,21.845,16.587z
		 M21.362,22.771L21.362,22.771c0.193-0.29,0.193-0.29,0.193-0.29c0-0.193,0-0.193,0-0.29c0,0,0-0.097-0.097-0.097
		c-0.097-0.193-0.097-0.097-0.097-0.193l0,0l0,0v0.097l0,0c0,0,0,0,0,0.097c0,0.386,0,0.483-0.097,0.58c0,0,0,0,0,0.097
		C21.266,22.771,21.266,22.771,21.362,22.771z M21.459,20.935h0.097c0.29-0.29,0.097-0.58,0.097-0.58
		c-0.097-0.193-0.097-0.193-0.097-0.193h-0.097l0,0l0,0c0.097,0.193,0,0.193,0.097,0.193c0-0.097,0-0.097,0-0.193l0,0l0,0
		c0,0.193,0,0.193,0,0.29C21.555,20.935,21.555,20.742,21.459,20.935z M20.976,23.64c0,0.483,0.097,0.483,0.097,0.773
		c0-0.386-0.097-0.58-0.097-0.58l0,0c0,0.097,0,0.097,0.097,0.193c0.097,0.29,0,0.29,0,0.386v0.097v0.097
		c0.097-0.386,0.097-0.58,0-0.676C21.072,23.834,21.072,23.737,20.976,23.64L20.976,23.64z M22.328,15.042
		c0.097-0.097,0.097-0.097,0.193-0.193c0.097-0.386,0.097-0.193,0.097-0.483s-0.097-0.29,0-0.386
		c-0.097,0.193-0.097,0.193-0.097,0.29C22.522,14.848,22.522,14.752,22.328,15.042C22.425,15.042,22.425,15.042,22.328,15.042z
		 M22.038,18.52c-0.097,0.386-0.193,0.58-0.29,0.676l0,0l0,0c0.29-0.193,0.29-0.386,0.29-0.58c0-0.193,0-0.193,0-0.29
		s0-0.097-0.097-0.193h-0.097l0,0l0,0C22.135,18.327,21.942,18.52,22.038,18.52L22.038,18.52z M22.038,16.104
		c0,0.29,0.097,0.29,0.097,0.29c0.097,0.29,0,0.386,0,0.483s0,0.097,0,0.193l0,0c0.193-0.29,0-0.58,0-0.676
		C22.038,16.104,22.038,16.201,22.038,16.104z M21.749,19.003c0.386-0.29,0.193-0.58,0.097-0.773l0,0
		C21.845,18.713,21.845,18.81,21.749,19.003z M21.749,18.906c0.193-0.386,0.097-0.386,0.097-0.58c0-0.193,0-0.097-0.097-0.193
		c0,0.193,0,0.386,0,0.483C21.749,18.81,21.749,18.906,21.749,18.906z M22.232,15.235c-0.29,0.29-0.193,0.386-0.193,0.483
		c0.097,0.193,0,0.193,0.097,0.29l0,0l0,0C21.942,15.621,22.232,15.331,22.232,15.235z"/>
	<path d="M6.29,30.114c0-0.194-0.29-7.247-0.29-8.02v-0.097C6,21.9,6,21.9,6,21.611c0,0,0-0.097,0-0.193s0-0.29-0.097-0.386
		c0-0.097-0.097-0.29,0-0.386c0-0.097,0-0.29,0-0.386s0,0,0-0.386c0-0.193,0.097-0.193-0.097-0.58c0-0.097,0,0-0.097-0.386
		c0-0.193-0.193-0.386-0.193-0.773l0,0c0.097,0.097,0,0,0.097,0.193c0,0.097,0.097,0.193,0.097,0.29l0,0l0,0
		c-0.097-0.097,0-0.193-0.097-0.676c0,0-0.097-0.097-0.097-0.386v-0.097c0,0,0,0,0-0.097v-0.097v-0.097c0-0.097,0-0.097,0-0.386
		c0-0.097-0.097-0.097-0.097-0.58l0,0l0,0v0.097l0,0c0,0,0,0,0,0.097l0,0l0,0l0,0v-0.097c0-0.097,0-0.097,0-0.386
		c0-0.097,0-0.097-0.097-0.29c0-0.097,0,0,0-0.193l0,0c0-0.097-0.097-0.193-0.193-0.483c0-0.097,0-0.193-0.097-0.58
		c0.097,0.097,0,0.193,0.193,0.58l0,0l0,0c0-0.193-0.193-0.87-0.193-1.642l0,0c-0.097,0,0,0,0-0.097l0,0c0-0.29,0-0.483-0.097-1.063
		c0,0,0,0,0-0.097l0,0c0,0.097,0,0.097,0,0.193l0,0l0,0c0-0.097,0,0,0-0.29c0.097-0.097,0.097,0.193,0.097,0.386c0,0,0,0,0,0.097
		c0.097-0.386-0.097-0.483-0.193-1.159l0,0v-0.097c0-0.193,0-0.097,0-0.386c0,0,0,0-0.097-0.193s0-0.29-0.483-0.87
		c0.193,0.193,0.29,0.29,0.483,0.773l0,0l0,0v-0.097c0,0,0,0,0-0.097s0-0.193,0-0.483c0.097-0.193,0-0.483-0.097-1.063
		c-0.097-0.193,0-0.097-0.097-0.386l0,0c0-0.097,0-0.097-0.097-0.29c0,0,0,0,0-0.097c0.097,0,0,0,0.097,0.193l0,0l0,0
		c0-0.193-0.097-0.386-0.193-0.676c0-0.097,0-0.097-0.193-0.676c0,0,0,0,0-0.097l0,0c0,0.193,0.097,0.097,0.193,0.58
		c0,0.097,0,0.193,0.097,0.483c0,0.29,0,0.29,0.29,0.87c0-0.097,0-0.193,0-0.193C4.648,8.279,4.648,7.989,4.648,7.506
		c0-0.097,0-0.097-0.097-0.193l0,0l0,0c0,0,0,0,0,0.097c0,0,0,0,0.097,0.193c0-0.097-0.097-0.097,0-0.58l0,0
		c0,0.097,0,0.097,0,0.386c0,0,0,0.097,0,0c0,0,0,0,0-0.097l0,0c0-0.097,0.097-0.097,0-0.386c0-0.097-0.097-0.193-0.097-0.29
		c0-0.29,0-0.386-0.29-0.87C4.068,5.573,3.971,5.38,3.682,5.09l0,0c-0.29-0.193-0.676-0.483-1.063-0.87
		c-0.097-0.097-0.097,0-0.193-0.386l0,0l0,0c0,0.097,0,0.097,0.193,0.29l0.097,0.097l0.193,0.29c0.097,0.097,0.097,0,0.386,0.29
		c0.097,0.097,0.193,0.097,0.193,0.193c0.097,0.097,0.58,0.483,0.87,0.966c0.097,0.193,0.193,0.483,0.386,0.966
		c0-0.193,0-0.193,0-0.773c0-0.29,0-0.773,0.193-1.353C5.034,4.414,5.13,3.834,5.13,3.158c0-0.29,0.097-0.773,0.097-1.353
		c0,0,0-0.386,0.097-0.29c0,0.29-0.097,0.87-0.097,1.449l0,0c0,0.386,0,0.386-0.097,1.159S4.84,5.572,4.84,6.538l0,0l0,0
		c0.097-0.097,0,0,0.097-0.386C5.034,6.056,5.034,5.67,5.324,5.187c-0.097,0.29,0,0.097-0.193,0.773
		C5.034,6.057,5.034,6.346,4.938,6.83l0,0c0.097-0.193,0.193-0.29,0.29-0.386l0,0c0,0,0-0.097,0.193-0.193l0,0c0,0,0,0,0-0.097
		c0.097-0.097,0.193-0.193,0.29-0.58l0,0l0,0c-0.097,0.193,0,0.29-0.386,0.773c-0.097,0.193,0,0-0.193,0.386
		c0,0-0.097,0.097-0.193,0.193c0,0.193,0.097,0.193,0.097,0.773c0,0.193,0,0.386,0,0.773c0,0.097,0.097,0.193,0.097,0.29l0,0
		c0.097,0,0.097,0.097,0.097,0.193s0.097,0.29,0.097,0.483c0,0,0,0,0,0.097c0.097-0.193,0-0.483-0.097-0.966l0,0
		c0.097,0.097,0.193,0.386,0.193,0.87c0,0.097,0,0.097-0.097,0.29c0,0.097,0.097,0.097,0.097,0.386c0,0,0,0.097,0.097,0.29
		c0,0.193-0.097,0.386,0,0.87c0.097-0.29,0.193-1.063,0.097,0c0,0.097,0,0.097,0,0.386c0,0,0,0,0.097,0.193c0,0,0,0,0,0.193
		c0,0.097,0,0.193,0.097,0.193l0,0c0,0.097,0,0,0,0.097c-0.097,0.193-0.097,0.483,0,0.87c0,0,0,0,0,0.097c0,0,0,0,0,0.097l0,0l0,0
		v-0.097c0,0,0-0.193,0-0.386l0,0c0,0.29-0.097,0.483,0,0.966c0,0.193,0,0.097,0,0.58c0,0.097,0,0.193,0,0.193
		c0,0.193,0.097,0.097,0.097,0.483v-0.097l0,0c0,0,0,0,0-0.097c0,0,0,0,0-0.097l0,0l0,0c0,0.097,0,0.097,0,0.193
		c0,0.097,0,0.193,0,0.483s0.097,0.193,0,0.773c0,0.097,0,0-0.097,0.29c0,0.193,0.097,0.29,0,0.676c0.097,0,0-0.097,0.097-0.097
		C6,16.974,6,17.071,5.904,16.684l0,0l0,0c0,0.097,0,0,0,0.29c0-0.097,0-0.097,0-0.097c0,0.097,0,0.193,0,0.193
		c0,0.193,0,0.29,0,0.773l0,0c0,0.097,0,0-0.097,0.386c0,0.097,0,0.097,0.097,0.386l0,0c0,0.193-0.097,0.483-0.097,0.87l0,0
		c0,0.87,0,0.58,0.097,2.126l0,0C6,21.708,6.194,29.437,6.29,29.63V30.114z M5.904,15.815c0.097,0.58,0,0.58,0,0.773l0,0l0,0
		c0-0.097,0.097-0.193,0.097-0.29C6,15.815,6,15.911,5.904,15.815C5.904,15.718,5.807,15.815,5.904,15.815
		c-0.193,0.097-0.193,0.097-0.193,0.097c-0.097,0.097-0.097,0.193-0.097,0.193c0,0.29,0,0.29,0.097,0.386v0.097v0.097
		c0.193,0.097,0.29,0,0.29,0l0,0C6,16.298,6,16.008,5.904,15.815z M5.324,10.018L5.324,10.018
		C5.227,10.018,5.227,10.018,5.324,10.018c-0.386,0.386-0.193,1.159,0,0.966c-0.097-0.097,0-0.097,0-0.193
		C5.421,10.307,5.227,10.114,5.324,10.018z M4.841,8.858c0.29,0.386,0.193,0.29,0.29,0.483l0,0c0,0.193,0,0.193,0,0.29
		c0,0,0,0,0,0.097c0.097-0.483-0.097-0.676-0.097-0.773C4.938,8.858,4.938,8.858,4.841,8.858L4.841,8.858
		c0-0.097-0.097,0-0.097-0.097l0,0l0,0c0.097,0.193,0,0.193,0.097,0.29c0,0.097,0,0.193,0.097,0.29c0.097,0.29,0,0.193,0.097,0.29
		C5.227,9.245,4.938,9.051,4.841,8.858C4.841,8.955,4.841,8.955,4.841,8.858z M6.194,17.747c-0.097,0-0.097,0.097-0.193,0.097l0,0
		c0.097-0.097,0,0.097,0,0.097c-0.193,0.386-0.097,0.386-0.097,0.483v0.097v0.097l0,0l0,0H6C6.29,18.23,6.194,17.843,6.194,17.747z
		 M5.421,12.916V12.53l0,0l0,0C5.421,12.819,5.421,12.819,5.421,12.916c0.193-0.193,0.097-0.29,0.097-0.29
		c0-0.29-0.097-0.29,0-0.483c0-0.097,0,0-0.097,0l0,0c-0.097,0-0.097,0.097-0.097,0.097c0,0.097,0,0.193-0.097,0.193l0,0l0,0
		C5.227,12.723,5.324,12.819,5.421,12.916C5.324,12.916,5.324,12.916,5.421,12.916c-0.193-0.386,0-0.58,0-0.773
		c0,0.097,0,0.097,0,0.193C5.421,12.916,5.324,12.723,5.421,12.916z M5.711,14.075c-0.097,0.097-0.097,0.193-0.097,0.29
		c0.097,0.386,0,0.29,0.097,0.386C5.711,14.269,5.711,14.269,5.711,14.075c0,0.193,0,0.193,0,0.29l0,0c0,0.097,0,0.193,0,0.386
		C5.807,14.269,5.807,13.979,5.711,14.075c-0.097-0.097-0.097-0.097-0.097-0.097l0,0c-0.097,0.386-0.097,0.773,0.097,0.87l0,0l0,0
		C5.517,14.559,5.614,14.172,5.711,14.075L5.711,14.075z M4.744,7.602C4.648,7.602,4.648,7.699,4.744,7.602
		C4.648,7.699,4.648,7.699,4.744,7.602c-0.097,0.483,0,0.676,0,0.773l0,0l0,0c-0.097-0.58,0-0.483-0.097-0.676
		c-0.097,0.483,0,0.676,0.193,0.773c0,0,0,0,0.097,0C5.131,7.989,4.744,7.795,4.744,7.602z M5.034,11.467
		c0-0.193-0.097-0.097,0-0.097c0,0.29,0,0.193,0,0.29s0,0.193,0.097,0.193c0,0,0,0,0,0.097l0,0c0-0.58-0.097-0.58-0.193-0.773
		c0,0,0,0,0.097,0c0.193,0.483,0.097,0.483,0.193,0.676c0,0.097,0,0.097,0,0.193l0,0c0.097-0.193,0-0.29,0-0.386
		c0-0.193-0.097-0.386-0.193-0.386c0-0.193,0-0.193,0-0.193l0,0C4.938,11.37,4.938,11.37,5.034,11.467z M5.904,17.65L5.904,17.65
		C6,17.36,6,17.36,5.904,17.36c0-0.193-0.097-0.193-0.097-0.193s0-0.097-0.097-0.097c-0.193-0.193-0.097-0.097-0.193-0.193l0,0l0,0
		v0.097l0,0c0,0,0,0,0.097,0c0.097,0.386,0.097,0.483,0.097,0.58l0,0C5.807,17.65,5.807,17.65,5.904,17.65z M5.614,15.815
		L5.614,15.815c0.29-0.29,0-0.58,0-0.58c-0.097-0.193-0.097-0.193-0.097-0.193H5.421l0,0l0,0c0.097,0.097,0.097,0.193,0.097,0.193
		c0-0.097,0-0.097,0-0.097l0,0l0,0c0.097,0.193,0,0.193,0.097,0.29C5.614,15.815,5.614,15.621,5.614,15.815z M5.711,18.52
		c0.097,0.483,0.193,0.483,0.29,0.676c0-0.386-0.193-0.483-0.193-0.58l0,0c0,0.097,0.097,0.097,0.097,0.193
		C6,19.099,6,19.099,6,19.196c0,0,0,0,0,0.097v0.097c0.097-0.386,0-0.58,0-0.58C5.904,18.713,5.807,18.616,5.711,18.52
		C5.807,18.52,5.711,18.52,5.711,18.52z M5.131,9.921c0.097-0.097,0.097-0.193,0.097-0.193c0-0.386,0-0.29,0-0.483
		c0-0.386-0.097-0.29-0.097-0.386c-0.097,0.193,0,0.193,0,0.29C5.324,9.631,5.227,9.631,5.131,9.921L5.131,9.921z M5.614,13.399
		c0,0.386-0.097,0.58-0.193,0.676l0,0l0,0C5.614,13.786,5.614,13.592,5.614,13.399c-0.097-0.097,0-0.097-0.097-0.193
		c0-0.097-0.097-0.097-0.097-0.193H5.324l0,0l0,0C5.614,13.109,5.517,13.303,5.614,13.399L5.614,13.399z M5.034,10.984
		c0.097,0.29,0.097,0.193,0.193,0.29c0.193,0.193,0.097,0.386,0.097,0.386c0.097,0.097,0,0.097,0,0.193l0,0
		c0.193-0.29-0.097-0.58-0.097-0.676C5.131,11.08,5.131,11.08,5.034,10.984z M5.421,13.979c0.29-0.386,0-0.58,0-0.773l0,0
		C5.517,13.592,5.421,13.786,5.421,13.979z M5.421,13.786c0.097-0.483,0-0.386-0.097-0.58c-0.097-0.193-0.097-0.097-0.097-0.193
		c0.097,0.193,0.097,0.386,0.097,0.483C5.421,13.786,5.421,13.786,5.421,13.786z M5.131,10.114c-0.193,0.29-0.097,0.386-0.097,0.483
		c0.097,0.193,0.097,0.193,0.097,0.29l0,0l0,0C4.938,10.597,5.131,10.211,5.131,10.114z"/>
	<path d="M24.647,29.824c0-0.193,0,0,0-0.676v-0.097c0-0.097,0-0.097,0-0.58c0-0.097-0.097-0.097,0-0.29c0-0.193,0-0.386,0.097-0.58
		c0-0.193,0.097-0.29,0-0.483c0-0.193,0-0.386,0-0.483c0-0.193,0,0,0-0.58c0-0.193-0.097-0.29,0.097-0.773
		c0.097-0.193,0,0,0.097-0.58c0-0.29,0.193-0.483,0.193-1.063l0,0c-0.097,0.097,0,0-0.097,0.29c0,0.097-0.097,0.193-0.097,0.29l0,0
		l0,0c0.097-0.193,0-0.193,0.097-0.87c0-0.097,0.097-0.193,0.097-0.483v-0.097c0,0,0,0,0-0.097v-0.097v-0.097
		c0-0.097,0-0.193,0-0.483c0.097-0.193,0.097-0.097,0.097-0.773l0,0l0,0c0,0.097,0,0.097,0,0.193l0,0c0,0,0,0,0,0.097
		c0,0,0,0-0.097,0c0,0,0,0,0-0.097c0,0,0,0,0-0.097v-0.097c0-0.097,0-0.193,0-0.483c0-0.097,0-0.097,0.097-0.386c0-0.193,0,0,0-0.29
		c0,0,0,0,0-0.097c0.097-0.097,0.097-0.193,0.193-0.676c0-0.193,0.097-0.29,0.097-0.773c-0.193,0.097-0.097,0.29-0.193,0.773l0,0
		l0,0c0-0.29,0.193-1.159,0.193-2.126l0,0c0.097,0,0.097,0,0-0.097c0,0,0,0,0-0.097c0.097-0.097,0.097-0.386,0.193-0.966
		c0,0,0,0,0-0.097l0,0c0,0.097,0,0.097,0,0.193l0,0l0,0c0-0.193,0,0,0.097-0.386c-0.097-0.193-0.097,0.193-0.097,0.483v0.097
		c-0.097-0.483,0.097-0.676,0.193-1.449l0,0v-0.097c0-0.29,0-0.097,0-0.58c0.097,0,0,0,0.097-0.29s0-0.386,0.58-1.159
		c-0.29,0.193-0.386,0.386-0.58,1.063l0,0l0,0v-0.097c0,0,0,0,0-0.193s0-0.193,0-0.676c0.097-0.29,0.29-0.58,0.386-1.449
		c0.097-0.193,0.097-0.097,0.193-0.58l0,0c0-0.097,0-0.097,0.193-0.386c0,0,0,0,0-0.193c-0.097,0,0,0-0.097,0.193l0,0l0,0
		c0-0.193,0.097-0.483,0.193-0.87c0-0.193,0-0.193,0.193-0.87c0,0,0,0,0-0.193l0,0C26.965,8.66,26.965,8.66,26.869,9.24
		c-0.097,0.097-0.097,0.193-0.193,0.58c0,0.386,0,0.483-0.29,1.159c0-0.097,0-0.193,0.097-0.29c0.097-0.29,0.097-0.58,0.097-1.353
		c0.097-0.097,0-0.193,0.097-0.29l0,0l0,0v0.097c0,0,0,0-0.097,0.193c-0.097-0.097,0.097-0.193,0-0.676l0,0c0,0.097,0,0.097,0,0.483
		V9.24c-0.097,0,0,0,0-0.097c0,0,0,0,0-0.097s-0.097-0.097,0-0.58c0-0.097,0.097-0.193,0.097-0.29c0.097-0.097,0-0.386,0.483-0.966
		c0.29-0.29,0.386-0.386,0.773-0.87l0,0c0.386-0.29,0.87-0.58,1.353-1.256c0.097-0.097,0.097-0.097,0.29-0.483l0,0l0,0
		c-0.097,0.193,0,0.097-0.193,0.386c-0.097,0-0.097,0.097-0.193,0.097L28.224,6.05c-0.097,0.097-0.097,0-0.483,0.386
		c-0.097,0.097-0.193,0.097-0.29,0.193c-0.193,0.193-0.773,0.676-1.063,1.353c-0.097,0.29-0.193,0.676-0.483,1.256
		c0-0.29,0-0.29,0-1.063c0-0.386,0-1.063-0.29-1.739c-0.097-0.483-0.29-1.256-0.29-2.029c0-0.29-0.097-1.063-0.097-1.739
		c0,0,0-0.483-0.097-0.386c0,0.483,0.097,1.159,0.193,1.932l0,0c0,0.483,0,0.58,0.097,1.449s0.386,1.836,0.386,3.092l0,0l0,0
		c-0.097-0.193,0,0-0.193-0.483c-0.097-0.29-0.097-0.676-0.483-1.353c0.097,0.386,0,0.097,0.29,1.063
		c0.097,0.097,0.097,0.483,0.193,1.063l0,0c-0.097-0.193-0.193-0.29-0.29-0.483c0,0,0,0,0-0.097s0-0.097-0.193-0.29l0,0v-0.09
		c-0.097-0.097-0.193-0.29-0.386-0.773l0,0l0,0c0.097,0.29,0.097,0.386,0.58,1.063c0.097,0.193,0,0,0.29,0.483
		c0.097,0.193,0.193,0.29,0.29,0.483s0,0.29,0,0.966c0,0.29-0.097,0.483,0,1.063c-0.097,0.097-0.097,0.193-0.097,0.29l0,0
		c-0.097,0-0.097,0.097-0.193,0.29c0,0.097-0.097,0.386-0.097,0.676c0,0,0,0,0,0.193c-0.097-0.29-0.097-0.676,0.097-1.256l0,0
		c-0.097,0.193-0.193,0.58-0.193,1.159c0,0.097,0,0.097,0.097,0.386c-0.097,0.097-0.097,0.193-0.097,0.58
		c-0.097,0.097,0,0.097-0.097,0.386c0.097,0.29,0.097,0.483,0,1.159c-0.097-0.386-0.29-1.449-0.097,0c0,0.097,0.097,0.097,0,0.58
		c0,0,0,0-0.097,0.193c0,0,0,0-0.097,0.193c-0.097,0.097,0,0.193-0.097,0.29l0,0c0,0.097,0,0,0,0.193
		c0.097,0.193,0.097,0.676,0,1.159v0.097v0.097l0,0l0,0V17.94c0-0.097,0-0.29,0-0.483c0,0,0,0-0.097,0c0,0.386,0.097,0.676,0,1.256
		c0.097,0.29-0.097,0.097,0,0.773c0,0.097,0,0.193,0.097,0.29c0,0.193-0.097,0.193-0.193,0.676c0,0,0-0.097-0.097-0.097l0,0
		c0,0,0,0,0-0.097v-0.097l0,0l0,0c0,0.097,0,0.193,0,0.29s0.097,0.29,0,0.58c-0.097,0.386-0.193,0.29,0,1.063
		c0,0.097,0.097,0.097,0.097,0.386s-0.193,0.386,0,0.966c-0.097,0,0-0.097-0.097-0.097c-0.097-0.29-0.097-0.097,0-0.676
		c0,0,0,0,0-0.097l0,0c0,0.097,0,0,0,0.483c0-0.097,0-0.097-0.097-0.193c0,0.097,0,0.193,0,0.29c0.097,0.193,0,0.386,0,1.063l0,0
		c0,0.193,0,0,0.097,0.58c-0.097,0.193,0,0.097-0.097,0.483c0,0,0,0,0,0.097c0,0.193,0.097,0.58,0.097,1.063l0,0
		c0.097,1.159,0,0.773-0.097,2.802l0,0c-0.097,0.097,0,0.29-0.097,0.58L24.647,29.824z M24.55,21.032c-0.193,0.773,0,0.87,0,0.966
		c0,0,0,0,0,0.097l0,0c0-0.097-0.097-0.193-0.097-0.386C24.454,21.032,24.454,21.128,24.55,21.032c0-0.097,0.097-0.097,0.193,0
		s0.097,0.097,0.097,0.193c0.097,0.097,0.097,0.193,0.193,0.29c0,0.386,0,0.386-0.097,0.483c0,0-0.097,0.097,0,0.097
		c0,0,0,0.097-0.097,0.097c-0.29,0.097-0.29,0-0.386,0c0,0,0,0,0-0.097C24.55,21.611,24.55,21.225,24.55,21.032z M25.227,13.303
		h0.097c0,0.097,0,0,0.097,0c0.386,0.483,0.097,1.449-0.193,1.256c0.097-0.097,0-0.193,0-0.29
		C25.13,13.689,25.42,13.496,25.227,13.303z M25.806,11.853c-0.29,0.386-0.193,0.29-0.29,0.58l0,0c0,0.193,0,0.29,0,0.386
		c0,0,0,0,0,0.097c-0.193-0.58,0.097-0.87,0.097-0.966C25.71,11.853,25.71,11.853,25.806,11.853L25.806,11.853
		c0-0.193,0.097-0.097,0.193-0.097l0,0l0,0c-0.193,0.29,0,0.29-0.097,0.386c0,0.097,0,0.29-0.097,0.386
		c-0.097,0.386,0,0.193-0.097,0.386C25.323,12.336,25.71,12.143,25.806,11.853C25.806,11.95,25.806,11.853,25.806,11.853z
		 M24.261,23.544c0.097,0,0.193,0.097,0.193,0.097l0,0c-0.097-0.097,0,0.193,0,0.193c0.193,0.483,0.097,0.483,0.097,0.58v0.097
		v0.097c0,0.097,0,0.097-0.097,0l0,0c-0.097,0.097-0.097,0-0.097,0C24.164,24.123,24.261,23.64,24.261,23.544z M25.13,17.071v-0.58
		l0,0l0,0C25.13,17.071,25.13,16.974,25.13,17.071c-0.193-0.29-0.193-0.386-0.193-0.386c-0.097-0.386,0.097-0.386-0.097-0.58
		c0-0.097,0-0.097,0.097-0.097c0,0,0,0,0.097,0c0.193,0,0.193,0.097,0.193,0.097c0,0.097,0.097,0.193,0.097,0.29l0,0
		c0,0,0,0,0,0.097c0.097,0.386,0,0.483,0,0.58C25.227,17.071,25.227,17.071,25.13,17.071c0.193-0.483,0-0.773,0-0.966
		c0,0.097,0,0.097,0,0.193C25.227,17.071,25.323,16.877,25.13,17.071z M24.84,18.616c0.097,0.097,0.097,0.29,0.097,0.386
		c-0.097,0.483,0,0.386-0.097,0.483c0-0.58,0-0.58,0-0.676c-0.097,0.097-0.097,0.097,0,0.193l0,0c0,0.193,0,0.29,0,0.483
		c-0.097-0.676-0.097-1.063,0.097-1.063c0,0,0,0,0.097,0l0,0c0.193,0.483,0.193,0.966-0.097,1.063l0,0l0,0
		C25.13,19.293,24.84,18.713,24.84,18.616C24.84,18.713,24.84,18.616,24.84,18.616z M25.903,10.114
		C26.096,10.211,26,10.211,26,10.211l0,0c0,0.483-0.097,0.773-0.097,0.87l0,0l0,0c0.193-0.773,0-0.58,0.097-0.87
		c0.097,0.676,0,0.87-0.193,1.063H25.71C25.517,10.694,25.903,10.404,25.903,10.114z M25.71,15.331c0-0.193,0.097-0.193,0-0.193
		c-0.097,0.386,0,0.29-0.097,0.386c0,0.097,0,0.193-0.097,0.29v0.097c0,0,0,0-0.097,0.097c0-0.676,0.097-0.676,0.193-1.063h-0.097
		c-0.193,0.676-0.097,0.58-0.193,0.87c0,0.097,0,0.097,0,0.193l0,0c-0.193-0.29-0.097-0.483-0.097-0.58
		c0-0.29,0.193-0.483,0.193-0.483c0.097-0.193,0.097-0.097,0.097-0.193c0,0,0,0,0.097,0C25.806,15.138,25.71,15.138,25.71,15.331z
		 M24.647,23.447C24.647,23.447,24.647,23.35,24.647,23.447c-0.193-0.386-0.193-0.386-0.097-0.483c0-0.29,0.097-0.29,0.097-0.29
		l0.097-0.097c0.193-0.193,0.097-0.193,0.193-0.29c0,0,0,0,0.097,0l0,0v0.097l0,0c-0.097,0-0.097,0-0.097,0.097
		c-0.193,0.483-0.097,0.58-0.097,0.773v0.097C24.84,23.35,24.744,23.447,24.647,23.447z M24.937,21.032c-0.097,0-0.097,0-0.097,0
		c-0.193-0.483,0.097-0.676,0.097-0.773c0.193-0.193,0.193-0.193,0.193-0.29h0.097l0,0l0,0c-0.193,0.193-0.097,0.193-0.097,0.193
		c0-0.193,0.097-0.193,0-0.193l0,0l0,0c-0.097,0.29,0,0.29-0.097,0.386C24.937,20.935,24.937,20.645,24.937,21.032z M24.937,24.51
		c-0.193,0.58-0.193,0.676-0.386,0.966c0-0.483,0.29-0.676,0.29-0.773l0,0c0,0.097-0.097,0.097-0.097,0.193
		c-0.193,0.386-0.097,0.386-0.193,0.483v0.097c0,0.097,0,0.097,0,0.193c-0.097-0.483,0.097-0.773,0.097-0.773
		C24.647,24.8,24.744,24.703,24.937,24.51C24.84,24.606,24.84,24.606,24.937,24.51z M25.42,13.206
		c-0.097-0.097-0.097-0.193-0.097-0.29c0-0.58,0-0.29,0-0.58c0.097-0.386,0.097-0.386,0.097-0.483c0.097,0.193,0,0.29,0,0.386
		C25.227,12.916,25.42,12.819,25.42,13.206C25.42,13.109,25.42,13.206,25.42,13.206z M24.937,17.747
		c0,0.483,0.097,0.773,0.193,0.966l0,0l0,0c-0.29-0.386-0.29-0.58-0.29-0.773c0.097-0.29,0-0.29,0.097-0.386
		c0-0.097,0.097-0.097,0.097-0.193c0,0,0.097,0,0.193,0l0,0l0,0C24.937,17.457,25.033,17.747,24.937,17.747L24.937,17.747z
		 M25.613,14.655c-0.097,0.386-0.193,0.29-0.193,0.386c-0.193,0.29-0.097,0.483-0.193,0.58c-0.097,0.193,0,0.193,0,0.193l0,0
		c-0.193-0.386,0.097-0.773,0.193-0.87C25.517,14.655,25.517,14.752,25.613,14.655z M25.13,18.52c-0.386-0.483,0-0.773,0-1.063l0,0
		C25.033,18.037,25.13,18.23,25.13,18.52z M25.227,18.327c-0.097-0.58,0-0.58,0.097-0.773c0.097-0.29,0.097-0.193,0.193-0.29
		c-0.097,0.29-0.097,0.483-0.193,0.676C25.227,18.23,25.227,18.327,25.227,18.327z M25.517,13.496
		c0.193,0.483,0.193,0.58,0.193,0.676c-0.097,0.29-0.097,0.193-0.193,0.29l0,0l0,0C25.806,14.075,25.517,13.689,25.517,13.496z"/>
	<path d="M15.275,10.404L15.275,10.404c0,0.193,0.097,0.193,0,0.386c0,0.097-0.097,0.193-0.097,0.29s-0.097,0.193-0.097,0.29
		c0,0.193,0,0.483,0,0.676c0,0.29-0.097,0.676-0.097,0.966c-0.097,0.193,0,0.386-0.097,0.676v0.097l0,0c0,0.097,0,0.193,0,0.29
		s0,0.193,0,0.193l0,0c0,0.097,0,0.193,0,0.29c-0.097,0-0.097-0.193-0.097-0.193c-0.097-0.097-0.097-0.193-0.097-0.29
		c0,0,0,0,0-0.097c0,0,0,0,0,0.097c0,0.29,0.097,0.483,0.193,0.676c0.097,0.193,0.193,0.29,0.097,0.483c0,0.097,0,0.193-0.097,0.193
		c0,0.097,0,0.193,0,0.29c0,0.29,0.097,0.58,0.097,0.87c0,0.097,0,0.193,0,0.193c0,0.097,0,0.097,0,0.193
		c0,0.097,0,0.193-0.097,0.29c0,0.097,0,0.193,0,0.29s0,0.097-0.097,0.097v0.097c0,0.097,0,0.097,0,0.193l0,0l0,0
		c0-0.097,0-0.193,0-0.193l0,0l0,0c0,0.29,0,0.483,0.097,0.676c0,0.097,0.097,0.193,0,0.29v0.097c0,0.193,0,0.29,0,0.483
		c0.097,0.58,0,1.159,0,1.642l0,0c0,0,0.097,0.097,0,0.097c0,0,0,0.097,0,0.193c0,0.097,0,0.097-0.097,0c0,0,0,0,0,0.097
		s0.097,0.29,0.097,0.386s0.097,0.193,0.097,0.29c0,0.193,0,0.386,0,0.58c0,0.097,0,0.193,0,0.29c0.097,0.097,0,0.193,0.097,0.29
		l0,0c0,0.193,0.097,0.386,0.097,0.58c0,0.097,0,0.193,0,0.29s0,0.193,0,0.29l0,0c0,0.193-0.097,0.386-0.097,0.58
		c0,0.097,0,0.29,0.097,0.386c0,0,0,0.097,0.097,0.193c0,0.097,0,0.097,0,0.193c0,0,0.097,0.097,0,0.193c0,0.097,0.097,0.193,0,0.29
		l0,0l0,0c0-0.097,0-0.097,0.097-0.193l0,0l0,0c0,0.097,0,0.193-0.097,0.386c0,0.097-0.097,0.097,0,0.097s0.097,0.097,0.097,0.193
		c0,0.193,0,0.29,0,0.483v0.097c0,0.483-0.097,1.063-0.097,1.546c0,0.097-0.097,0.193-0.097,0.29s0,0.193,0,0.29s0,0.193,0,0.193
		s0,0,0.097,0c0,0,0.097,0,0.097-0.097s0-0.097,0.097-0.193v-0.097v0.097c0,0.097-0.097,0.097,0,0.193l0,0l0,0
		c0.097-0.193,0.097-0.29,0.193-0.483c0.097-0.193,0.097-0.386,0.193-0.58c0.097-0.193,0.097-0.29,0.193-0.483
		c0-0.097,0.097-0.29,0.097-0.386c0-0.097,0.097-0.29,0.097-0.386c0-0.097,0.097-0.29,0.097-0.386c0-0.097,0-0.193,0.097-0.29
		c0.097-0.193,0.097-0.29,0.097-0.483c0-0.193,0.097-0.483,0.193-0.676c0.097-0.193,0.097-0.29,0.193-0.483
		c0.097-0.29,0.097-0.483,0.193-0.773c0.097-0.193,0.097-0.386,0.097-0.483c0.097-0.193,0.097-0.483,0.193-0.676
		c0.097-0.193,0.097-0.29,0.097-0.483c0-0.097,0-0.193,0.097-0.193c0-0.193,0.097-0.29,0.097-0.483c0-0.29,0.097-0.676,0.193-0.966
		c0.097-0.193,0.097-0.386,0.193-0.676c0-0.097,0.097-0.193,0.097-0.29v-0.097c-0.097,0,0,0,0,0.097
		c-0.097,0.193-0.193,0.386-0.29,0.676c-0.097,0.097-0.097,0.29-0.097,0.386c0,0.29-0.097,0.483-0.193,0.676
		c-0.193,0.386-0.29,0.773-0.386,1.256l0,0c-0.097,0.193-0.097,0.29-0.193,0.483c0,0.193-0.097,0.29-0.193,0.483
		c0,0.097-0.097,0.097-0.097,0.193v0.097c0,0,0,0,0.097-0.097c0,0,0,0,0.097,0l0,0c-0.097,0.097-0.097,0.29-0.097,0.386
		c-0.097,0.097,0,0.193,0,0.29c0,0,0,0,0,0.097c0,0,0,0,0-0.097l0,0v0.097c0,0,0,0-0.097,0.097v-0.097c0-0.097,0-0.097,0.097-0.193
		c0-0.097,0-0.097,0-0.193l0,0l0,0c-0.097,0.29-0.193,0.58-0.29,0.87c-0.097,0.193-0.193,0.483-0.193,0.676
		c0,0.097-0.097,0.29-0.097,0.386c-0.097,0.097,0,0.29-0.097,0.386c0,0.193-0.097,0.29-0.097,0.483c0,0.193-0.097,0.29-0.097,0.483
		l0,0l0,0c0-0.193,0-0.386,0-0.58c0-0.097,0-0.193,0-0.386s0-0.29,0.097-0.483v-0.097c0-0.097,0-0.193,0-0.193
		c0-0.58,0-1.159,0.097-1.739c0-0.097,0-0.193,0.097-0.29c0-0.097-0.097-0.097,0-0.193c0-0.097,0.097-0.193,0-0.193l0,0
		c0.097-0.097,0.097-0.29,0.097-0.386v-0.097c0-0.097,0-0.097,0-0.193c0,0.097-0.097,0.193-0.097,0.193v0.097l0,0l0,0
		c0-0.097-0.097-0.29-0.097-0.386s0-0.097,0-0.193c0-0.097,0-0.097,0-0.193c0-0.097,0.097-0.29,0-0.386v-0.097
		c0.097-0.193,0-0.483,0-0.676c0-0.097,0-0.193,0-0.193v-0.097c-0.097-0.097,0-0.29-0.097-0.483c0,0,0,0,0-0.097
		c0-0.193,0.193-0.29,0.193-0.483c0,0,0.097-0.097,0-0.097v-0.097l-0.097,0.097c0,0.097,0,0.193-0.097,0.29l0,0l0,0
		c0-0.097,0-0.097,0-0.097c0.097-0.097,0-0.29,0-0.386c0-0.097,0-0.097,0-0.193v-0.097c0,0,0,0,0-0.097
		c0-0.193-0.097-0.483-0.097-0.676c0-0.097,0-0.193,0-0.193v-0.097c0-0.29,0-0.483,0.097-0.773v-0.097v-0.097l0,0
		c0-0.097,0-0.29,0-0.386c0.097-0.097,0.097-0.193,0.193-0.29c0,0,0,0,0-0.097s0-0.097,0-0.193L16.144,16.3
		c0,0.097,0,0.193-0.097,0.193l0,0l0,0c0.097-0.097,0-0.193,0-0.29s0-0.193,0-0.193c0-0.386-0.097-0.676-0.097-1.063
		c0-0.097-0.097-0.193,0-0.29c0.097-0.29,0-0.58,0-0.773c0-0.29,0-0.58,0-0.87c0-0.097-0.097-0.097,0-0.193c0,0,0-0.097,0-0.193
		c0-0.097,0-0.097,0-0.193s0-0.097,0-0.097c0.097-0.097,0.097-0.097,0.097-0.29s0.097-0.29,0.097-0.386v-0.097l0,0l0,0
		c0,0,0,0.097-0.097,0.097c0,0.193-0.193,0.386-0.29,0.58l0,0l0,0l0,0c0.097-0.193,0.097-0.29,0.097-0.483s0-0.386,0-0.58V11.08
		c0-0.29-0.097-0.58-0.097-0.87c0-0.193-0.097-0.386,0-0.58c0-0.097,0-0.193,0-0.386c-0.097,0-0.097-0.29-0.097-0.483
		c0-0.097,0-0.193,0-0.29s0-0.193,0-0.386c0-0.097,0.097-0.193,0.097-0.29c0-0.193,0.097-0.386,0.193-0.676
		c0.097-0.193,0.097-0.386,0.193-0.58c0.097-0.29,0.193-0.58,0.193-0.773c0-0.097,0.097-0.193,0.097-0.29
		c0.097-0.193,0.097-0.386,0.193-0.58c0-0.29,0.193-0.483,0.193-0.773c0.097-0.193,0.193-0.483,0.29-0.676s0.097-0.29,0.193-0.483
		c0,0,0,0,0-0.097l0,0c-0.097,0.193-0.193,0.483-0.29,0.676s-0.097,0.483-0.193,0.676c-0.097,0.193-0.097,0.483-0.29,0.676
		c0,0.097-0.097,0.193-0.097,0.29v0.097V5.38h-0.097c0,0.097-0.097,0.193-0.097,0.29v0.097c0,0,0,0-0.097,0l0,0
		c0,0.193-0.097,0.29-0.097,0.483s-0.097,0.29-0.097,0.386c-0.097,0.193-0.097,0.386-0.193,0.58v0.097c0,0.097,0,0.097-0.097,0.193
		c-0.097,0,0-0.097,0-0.193c0-0.193,0-0.29,0-0.483c0-0.097,0-0.29,0-0.386s0-0.193,0-0.386c0,0,0-0.097,0-0.193
		c0-0.58,0-1.063,0-1.642c0-0.097,0-0.193,0-0.193V3.931V3.834c0.097-0.193,0-0.386,0-0.58c0-0.097,0-0.29,0-0.386c0,0,0,0,0-0.097
		c0,0,0,0-0.097,0.097l0,0c0,0.676-0.097,1.256-0.097,1.932c-0.097,0.483,0,0.966-0.097,1.353c0,0.193,0,0.386-0.097,0.58
		c0,0.193,0,0.386,0,0.58c0,0.097-0.097,0.097,0,0.193c-0.097,0.097,0,0.193,0,0.29s0,0.193,0,0.29l0,0l0,0
		c0-0.193,0-0.29-0.097-0.483s0-0.483-0.097-0.676c0-0.193-0.097-0.483-0.097-0.676c-0.097-0.29-0.097-0.676-0.193-0.966
		c0-0.097,0-0.29-0.097-0.386c0-0.097,0-0.193,0-0.29s0-0.193-0.097-0.29l0,0c0-0.193,0-0.386-0.097-0.58c0-0.193,0-0.386,0-0.58
		l0,0l0,0c0,0.193-0.097,0.386,0,0.58c0,0,0,0,0,0.097c0,0.193,0,0.386,0,0.58c0,0.29,0,0.483,0.097,0.773
		c0,0.193,0,0.483,0.097,0.676c0,0.097,0,0.29,0.097,0.386c0,0.193,0.097,0.386,0.097,0.58l0,0c0,0.193,0,0.386,0,0.58
		c0,0,0,0,0,0.097c0,0,0,0,0-0.097c-0.097-0.483-0.193-0.87-0.386-1.353V5.96V5.863V5.96c0.193,0.193,0.193,0.29,0.29,0.386
		c0.097,0.193,0.097,0.386,0.193,0.58c0,0.29,0.193,0.483,0.193,0.773c0,0.193,0.097,0.386,0.097,0.483l0,0
		c0,0.193,0,0.29,0.097,0.483c0,0.193,0,0.29-0.097,0.386c0,0.193-0.097,0.483,0,0.58c0,0.097,0,0.193,0.097,0.29
		c0,0.097,0,0.29,0,0.386v0.097C15.372,10.501,15.275,10.501,15.275,10.404S15.275,10.307,15.275,10.404z M15.855,1.902
		L15.855,1.902c0-0.097,0-0.193,0-0.193V1.612C15.855,1.709,15.855,1.709,15.855,1.902c0,0-0.097,0.097-0.097,0.193l0,0l0,0
		c0,0,0-0.097,0,0.483c0,0.097,0,0.193,0,0.29v0.097c0,0,0,0-0.097,0l0,0c0-0.097,0-0.193,0-0.386c0-0.097,0-0.29,0-0.386
		c0,0,0,0,0-0.097c0,0,0,0,0,0.097C15.855,2.192,15.855,2.288,15.855,1.902z M14.019,4.027C14.019,3.931,14.019,3.931,14.019,4.027
		c0-0.097,0-0.097,0-0.193C14.116,3.931,14.116,3.931,14.019,4.027C14.116,4.027,14.116,4.027,14.019,4.027
		c0.097,0.097,0.097,0.193,0.097,0.29l0,0l0,0C14.116,4.221,14.019,4.124,14.019,4.027z M14.309,4.8
		C14.406,4.8,14.406,4.8,14.309,4.8c0.097,0.193,0.097,0.29,0.097,0.386l0,0l0,0V5.09C14.406,5.09,14.309,4.994,14.309,4.8
		C14.309,4.897,14.309,4.897,14.309,4.8z M15.275,19.389C15.275,19.389,15.372,19.486,15.275,19.389
		c0.097,0.097,0.097,0.193,0.097,0.193c0,0.097,0,0.097,0.097,0c0,0,0.097-0.097,0.097,0v0.097c0,0.193,0,0.29,0,0.483v0.097l0,0
		l0,0c0-0.097,0-0.193,0-0.193l0,0l0,0c0,0.193,0,0.29,0,0.483c0,0.097,0,0.097-0.097,0.097s-0.097,0-0.097-0.097
		s0.097-0.193-0.097-0.29v-0.29C15.179,19.776,15.275,19.583,15.275,19.389c-0.097,0,0-0.097-0.097-0.097
		c-0.097-0.097,0-0.097,0-0.097h0.097c0,0,0,0.097,0.097,0.097C15.372,19.293,15.372,19.293,15.275,19.389
		C15.372,19.293,15.275,19.293,15.275,19.389L15.275,19.389z M15.372,21.708c0-0.193,0.097-0.29,0.097-0.483l0.097-0.097
		c0.097,0,0.193,0.193,0.097,0.29c-0.097,0.097,0,0.193,0,0.193c0,0.193,0,0.386,0,0.58c0,0,0,0.097-0.097,0.097
		s-0.097,0-0.193-0.097h0.097l0,0l-0.097-0.097c0,0,0,0.097-0.097,0C15.469,21.998,15.469,21.805,15.372,21.708z M15.275,14.269
		L15.275,14.269c0-0.097,0-0.193,0-0.29s0.097-0.29,0.097-0.386c0,0,0,0,0-0.097c0,0,0,0,0,0.097c0,0,0,0,0,0.097c0,0,0,0,0-0.097
		c0,0,0,0,0-0.097c0.097,0,0.097,0,0.097-0.097l0,0c0,0.097,0.097,0.193,0,0.386c0,0.193,0,0.483,0,0.676l0,0l0,0
		c0-0.097,0-0.193-0.097-0.386c0-0.097,0-0.193,0-0.193c0,0.097,0,0.097,0,0.193s0,0.097,0,0.193l0,0l0,0v-0.097
		c0-0.097,0-0.097,0-0.193C15.275,14.172,15.275,14.172,15.275,14.269s0.097,0.193,0,0.193l0,0l0,0
		C15.275,14.365,15.275,14.365,15.275,14.269z M15.179,18.52c0-0.193,0.097-0.29,0.097-0.483c0-0.097,0.097-0.29,0.097-0.386l0,0
		l0,0v0.097c0,0.097-0.097,0.097,0,0.193c0,0,0,0,0.097,0l0,0v0.097c0,0,0,0,0,0.097l0,0c0,0,0,0,0-0.097V17.94v0.097
		c0,0.097,0,0.193-0.097,0.29v0.097c0.097,0.097-0.097,0.193,0,0.29l0,0l0,0c0-0.097-0.097-0.097-0.097-0.193
		c0,0,0-0.097-0.097-0.097C15.275,18.327,15.275,18.423,15.179,18.52C15.275,18.52,15.275,18.52,15.179,18.52
		C15.275,18.52,15.275,18.52,15.179,18.52L15.179,18.52L15.179,18.52z M15.662,23.447L15.662,23.447c0,0.097,0,0.097,0,0.097
		C15.565,23.544,15.565,23.544,15.662,23.447C15.565,23.447,15.565,23.447,15.662,23.447C15.565,23.447,15.565,23.447,15.662,23.447
		c-0.097,0.193-0.097,0.29-0.097,0.386l0,0l0,0c0,0,0,0,0-0.097s0-0.193,0-0.29c-0.097,0.097,0,0.193,0,0.29v0.097
		c0,0,0,0.097-0.097,0.097c0,0,0,0-0.097,0c0,0-0.097,0,0-0.097c0,0,0.097,0,0.097-0.097s0-0.29-0.097-0.386
		c0-0.097,0-0.193-0.097-0.29c0,0-0.097-0.097,0-0.193c0.097-0.097,0-0.097,0-0.193l0,0l0,0c0,0.097,0,0.097,0,0.193v0.097
		c0.097,0,0.097,0.097,0.193,0.097s0.193,0.097,0.193,0.193C15.662,23.254,15.662,23.35,15.662,23.447z M15.275,15.911
		C15.275,15.911,15.275,16.008,15.275,15.911C15.372,16.008,15.372,15.911,15.275,15.911c0-0.097,0.097-0.097,0.097-0.193
		c0,0.097,0,0.097,0,0.193c0,0,0,0,0,0.097c0,0.097,0,0.193,0,0.193c0.097-0.097,0-0.193,0-0.29l0,0l0,0c0,0.097,0,0.193,0,0.29
		c0,0.193,0,0.29,0,0.483c0,0,0,0,0,0.097h-0.097c0-0.097,0-0.193,0-0.29v-0.097v0.097c0,0.097,0,0.193,0,0.193v0.097
		c0,0,0,0,0-0.097s0-0.097,0-0.193s0-0.193,0-0.193c0.097-0.097,0-0.097,0-0.193c0,0,0,0,0-0.097c0,0,0,0,0,0.097s0,0.097,0,0.193
		l0,0l0,0c0-0.097,0-0.193,0-0.193S15.275,16.008,15.275,15.911L15.275,15.911 M15.662,24.8c0,0.097,0,0.193,0,0.29c0,0,0,0,0,0.097
		h-0.097c0,0,0,0.097-0.097,0.097l0,0c0-0.097,0-0.097,0-0.193c0,0,0-0.097-0.097,0c0,0,0,0,0,0.097l0,0c0-0.193,0-0.29,0.097-0.483
		l0,0c0,0,0,0,0,0.097c0,0,0,0,0,0.097c0,0-0.097,0,0,0.097c0,0,0,0,0.097-0.097V24.8c0,0,0-0.097,0.097-0.097
		C15.758,24.703,15.662,24.8,15.662,24.8C15.662,24.703,15.662,24.703,15.662,24.8z M15.372,11.467c0-0.097,0-0.097,0-0.193
		c0,0,0,0,0-0.097c0,0,0,0,0,0.097C15.372,11.37,15.372,11.37,15.372,11.467L15.372,11.467c0.097,0,0.097,0,0.097,0
		c0.097-0.097,0.097-0.193,0.097-0.29l0,0l0,0v0.097c0,0.097,0,0.097,0,0.193s-0.097-0.097-0.097,0c0,0.193,0,0.29,0,0.483l0,0
		c0,0.097-0.193,0.097-0.193,0.097c-0.097,0,0-0.097,0-0.193c0-0.097,0-0.097,0-0.193c0.097,0.097,0,0.097,0,0.193v0.097
		l0.097-0.097c0-0.097,0-0.193,0-0.29C15.372,11.66,15.372,11.563,15.372,11.467z M15.469,8.762
		C15.469,8.858,15.469,8.858,15.469,8.762c0.097,0.097,0.097,0.193,0.193,0.29v0.097c-0.097,0,0,0.097,0,0.193s0,0.097,0,0.193l0,0
		l0,0c0-0.097,0-0.193,0-0.193l0,0l0,0c0,0,0,0,0,0.097c0,0,0,0,0-0.097s0.097-0.193,0-0.29C15.372,8.955,15.372,8.858,15.469,8.762
		C15.372,8.858,15.372,8.762,15.469,8.762z M15.565,19.099h0.097c0.097,0,0.097,0,0.097,0.097v0.097c0,0.097,0,0.193-0.097,0.29l0,0
		l0,0c0,0,0,0,0-0.097C15.662,19.293,15.662,19.196,15.565,19.099L15.565,19.099L15.565,19.099L15.565,19.099z M15.758,25.669
		C15.758,25.669,15.758,25.766,15.758,25.669C15.662,25.766,15.662,25.669,15.758,25.669c-0.097,0-0.097,0-0.097,0h-0.097
		c0-0.097-0.097-0.097-0.193-0.193l0,0c0,0,0,0,0.097,0s0.097,0.097,0.193,0.097S15.758,25.573,15.758,25.669z M15.179,13.109
		L15.179,13.109c0.097-0.097,0.097-0.097,0.097-0.193s0-0.097,0-0.193c0.097,0.097,0,0.193,0,0.193c0.097,0.097,0.097,0.097,0,0.193
		c0,0-0.097,0.097-0.097,0.193C15.179,13.303,15.179,13.206,15.179,13.109C15.275,13.206,15.179,13.109,15.179,13.109L15.179,13.109
		z M15.469,9.824C15.565,9.824,15.565,9.921,15.469,9.824c0,0.193,0.097,0.193,0.097,0.29v0.097h-0.097v-0.097
		C15.469,10.018,15.469,10.018,15.469,9.824l-0.097,0.097C15.372,9.921,15.372,9.824,15.469,9.824z M15.469,21.128
		c0-0.097,0.193-0.193,0.193-0.193s0,0,0.097,0.097c0,0,0,0-0.097,0S15.662,21.128,15.469,21.128
		C15.565,21.032,15.565,21.032,15.469,21.128C15.565,21.128,15.469,21.128,15.469,21.128z M15.758,14.172c0,0.097,0,0.193,0,0.386
		C15.662,14.365,15.662,14.269,15.758,14.172c-0.097-0.097-0.097-0.193,0-0.29C15.758,13.979,15.758,14.075,15.758,14.172z
		 M15.565,10.597c0,0.097,0,0.097,0,0.193C15.565,10.694,15.565,10.694,15.565,10.597c-0.097-0.097-0.097-0.097-0.097-0.193l0,0l0,0
		C15.565,10.501,15.565,10.501,15.565,10.597z M15.372,15.525c-0.097,0-0.097-0.097-0.193-0.097l0,0l0,0
		c0.097,0.097,0.097,0.097,0.193,0l0,0C15.469,15.428,15.469,15.525,15.372,15.525C15.469,15.525,15.469,15.525,15.372,15.525z
		 M15.179,10.211C15.179,10.114,15.179,10.211,15.179,10.211c-0.097,0-0.193-0.097-0.097-0.193c0-0.097,0.097-0.193,0-0.29
		c0,0,0,0,0-0.097h0.097C15.082,9.824,15.179,10.018,15.179,10.211C15.275,10.211,15.275,10.211,15.179,10.211z M15.855,2.772
		C15.855,2.772,15.855,2.868,15.855,2.772c0,0.097,0,0.097-0.097,0.097C15.758,2.868,15.758,2.868,15.855,2.772
		c-0.097,0-0.097-0.193-0.097-0.29s0-0.29,0-0.386c0,0,0,0,0-0.097c0,0,0,0,0,0.097c0,0.097,0,0.29,0,0.386
		C15.855,2.578,15.855,2.675,15.855,2.772z M15.372,10.404C15.372,10.501,15.275,10.501,15.372,10.404
		c-0.097-0.097-0.097-0.097-0.097,0c-0.097-0.097-0.097-0.097-0.097-0.193c0,0,0-0.097,0.097,0c0,0,0,0,0.097,0
		C15.372,10.211,15.372,10.307,15.372,10.404z M14.019,3.931L14.019,3.931C14.116,3.931,14.116,3.931,14.019,3.931
		c0.097,0.097,0.097,0.097,0.097,0.193c0,0.097,0,0.097,0.097,0.193l0,0l0,0c0-0.097-0.097-0.193-0.097-0.29
		C14.019,4.027,14.019,4.027,14.019,3.931z M15.855,1.902c0-0.097,0-0.097,0.097-0.193V1.612c0,0.097,0,0.097,0,0.193
		c0,0.097-0.097,0.193-0.097,0.29l0,0l0,0C15.855,1.902,15.855,1.902,15.855,1.902L15.855,1.902z M14.406,4.897
		c0,0.097,0.097,0.193,0.097,0.386l0,0l0,0V5.187C14.406,5.09,14.309,4.994,14.406,4.897C14.309,4.897,14.309,4.897,14.406,4.897
		C14.406,4.8,14.406,4.8,14.406,4.897z M15.662,14.462c0-0.097,0-0.193,0-0.29s0-0.193,0-0.29c0,0.097,0,0.193,0,0.29
		C15.758,14.269,15.758,14.365,15.662,14.462z"/>
	<path d="M14.116,29.824c0-0.193-0.386-6.57-0.483-7.343v-0.097c0-0.097,0-0.097,0-0.386c0,0-0.097-0.097,0-0.193
		c0-0.097,0-0.29,0-0.386s0-0.29,0-0.386s0-0.29,0-0.386s0,0,0-0.386c0-0.193-0.097-0.193,0-0.58c0-0.097,0,0,0.097-0.386
		c0-0.193,0.097-0.386,0.097-0.773l0,0c0,0.097,0,0,0,0.193c0,0.097,0,0.193-0.097,0.29l0,0l0,0c0-0.097,0-0.193,0-0.676
		c0-0.097,0-0.097,0-0.386v-0.097c0,0,0,0,0-0.097V17.65v-0.097c0-0.097,0-0.097,0-0.386c0-0.097,0.097-0.097,0-0.58l0,0l0,0v0.097
		l0,0c0,0,0,0,0,0.097l0,0l0,0l0,0v-0.097c0-0.097-0.097-0.097-0.097-0.386c0-0.097,0-0.097,0-0.29c0-0.097,0,0,0-0.193l0,0
		c0-0.097,0-0.193,0.097-0.483c0-0.097,0-0.193,0-0.58c-0.097,0.097,0,0.193-0.097,0.676l0,0l0,0c0-0.193,0-0.87,0-1.642l0,0
		c0.097,0,0,0,0-0.097l0,0c0-0.097,0.097-0.29,0.097-0.773c0,0,0,0,0-0.097l0,0c0,0.097,0,0.097,0,0.193l0,0l0,0c0-0.097,0,0,0-0.29
		c-0.097-0.097,0,0.193,0,0.386c0,0,0,0,0,0.097c-0.097-0.386,0-0.483,0-1.159l0,0V11.95c0-0.193,0-0.097-0.097-0.386
		c0,0,0,0,0-0.193c0.097-0.193,0-0.29,0.29-0.87c-0.193,0.193-0.29,0.29-0.386,0.87l0,0l0,0v-0.097c0,0,0,0,0-0.097
		s0-0.193-0.097-0.483c0-0.193,0.193-0.483,0.097-1.063c0-0.193,0-0.097,0.097-0.483l0,0c0-0.097,0-0.097,0.097-0.29
		c0,0,0,0,0-0.097c-0.097,0,0,0-0.097,0.193l0,0l0,0c0-0.193,0-0.386,0.097-0.676c0-0.097,0-0.097,0.097-0.676c0,0,0,0,0-0.097l0,0
		c0,0.193-0.097,0.097-0.097,0.58c0,0.097,0,0.193-0.097,0.483c0,0.29,0,0.29-0.097,0.966c0-0.097,0-0.193,0-0.193
		c0.097-0.29,0-0.483-0.097-0.966c0-0.097,0-0.097,0.097-0.193l0,0l0,0c0,0,0,0,0,0.097c0,0,0,0,0,0.193
		c0-0.097,0.097-0.097-0.097-0.483l0,0c0,0.097,0,0,0,0.386c0,0,0,0,0,0.097c0,0,0,0,0-0.097l0,0c0-0.097-0.097-0.097,0-0.483
		c0-0.097,0-0.193,0.097-0.29c0-0.097,0-0.29,0.29-0.773c0.193-0.193,0.193-0.386,0.483-0.676l0,0c0.193-0.29,0.58-0.58,0.87-1.063
		c0.097-0.097,0.097-0.097,0.097-0.386l0,0l0,0c0,0.097,0,0.097-0.097,0.386l-0.097,0.097l-0.193,0.29
		c-0.097,0.097-0.097,0-0.386,0.386c-0.097,0.097-0.097,0.097-0.193,0.193c-0.097,0.097-0.483,0.58-0.676,1.063
		c-0.773-0.676-0.773-0.386-0.87,0.193c0-0.193,0-0.193-0.097-0.773c0-0.29-0.097-0.773-0.386-1.353
		c-0.097-0.386-0.29-0.87-0.386-1.546c-0.097-0.193-0.193-0.773-0.29-1.353c0,0,0-0.386-0.097-0.29
		c0.097,0.29,0.193,0.87,0.29,1.449l0,0c0,0.386,0.097,0.386,0.193,1.063c0.193,0.676,0.483,1.353,0.58,2.319l0,0l0,0
		c-0.097-0.097,0,0-0.193-0.386C12.28,6.25,12.184,5.96,11.894,5.477c0.193,0.29,0,0.097,0.29,0.773c0,0.097,0.097,0.386,0.29,0.773
		l0,0c-0.097-0.097-0.193-0.193-0.29-0.29l0,0c0,0,0-0.097-0.193-0.193l0,0c0,0,0,0,0-0.097c-0.097,0-0.193-0.097-0.386-0.483l0,0
		l0,0c0.097,0.193,0.097,0.29,0.483,0.676c0.097,0.193,0,0,0.29,0.386c0.097,0.097,0.193,0.193,0.29,0.29
		c0.097,0.193,0,0.193,0.097,0.773c0,0.193,0,0.386,0.097,0.773c0,0.097-0.097,0.193-0.097,0.29l0,0
		c-0.097,0-0.097,0.097-0.097,0.29c0,0.097,0,0.29,0,0.58c0,0,0,0,0,0.097C12.57,9.921,12.57,9.631,12.57,9.148l0,0
		c-0.097,0.097-0.097,0.386,0,0.87c0,0.097,0,0.097,0.097,0.29c0,0.097,0,0.097,0,0.386c0,0.097,0,0.097,0,0.29
		c0.097,0.193,0.097,0.386,0.097,0.87c-0.097-0.29-0.29-1.063-0.097,0c0,0.097,0.097,0.097,0.097,0.386c0,0,0,0,0,0.193
		c0,0,0,0,0,0.193c0,0.097,0,0.193,0,0.29l0,0c0,0.097,0,0,0,0.097c0.097,0.193,0.193,0.483,0.097,0.87c0,0,0,0,0,0.097v0.097l0,0
		l0,0V13.98c0,0,0-0.193-0.097-0.386l0,0c0,0.29,0.193,0.483,0.097,0.966c0.097,0.193,0,0.097,0.097,0.58
		c0,0.097,0,0.097,0.097,0.193c0,0.193-0.097,0.193-0.097,0.58c0,0,0-0.097-0.097-0.097l0,0l0,0c0,0,0,0,0-0.097l0,0l0,0
		c0,0.097,0,0.097,0,0.193c0,0.096,0.097,0.193,0.097,0.483s-0.097,0.193,0.097,0.773c0,0.097,0,0,0.097,0.29
		c0,0.193-0.097,0.29,0.097,0.676c-0.097,0,0-0.097-0.097-0.097c-0.097-0.193-0.097-0.097-0.097-0.483l0,0l0,0c0,0.097,0,0,0,0.29
		c0-0.097,0-0.097-0.097-0.097c0,0.097,0,0.193,0,0.193c0.097,0.193,0,0.29,0.097,0.773l0,0c0,0.097,0,0,0.193,0.386
		c0,0.097,0,0.097,0,0.386l0,0c0,0.193,0.193,0.483,0.193,0.87l0,0c0.193,0.87,0.097,0.58,0.193,2.126l0,0
		C13.536,22.578,14.116,29.534,14.116,29.824L14.116,29.824z M12.86,16.298c-0.097,0.58,0.097,0.58,0.097,0.773l0,0l0,0
		c0-0.097-0.097-0.193-0.097-0.29C12.763,16.298,12.763,16.394,12.86,16.298c0-0.097,0.097-0.097,0.097,0
		c0.097,0.097,0.097,0.097,0.097,0.097c0.097,0.097,0.097,0.097,0.193,0.193c0,0.29,0,0.29,0,0.386v0.097v0.097
		c-0.193,0.097-0.193,0.097-0.29,0l0,0C12.86,16.684,12.86,16.394,12.86,16.298z M12.57,10.404
		C12.667,10.404,12.667,10.404,12.57,10.404c0.097,0,0.097,0,0.097,0c0.386,0.29,0.193,1.063,0,0.966c0.097-0.097,0-0.097,0-0.193
		C12.57,10.694,12.763,10.501,12.57,10.404z M12.957,9.245c-0.193,0.386-0.097,0.29-0.193,0.483l0,0c0,0.193,0,0.193,0.097,0.29
		c0,0,0,0,0,0.097c-0.193-0.386,0-0.676,0-0.773C12.86,9.245,12.86,9.245,12.957,9.245L12.957,9.245
		c0-0.097,0.097-0.097,0.097-0.097l0,0l0,0c-0.097,0.193,0,0.29,0,0.29c0,0.097,0,0.193,0,0.29c0,0.29,0,0.193-0.097,0.29
		C12.667,9.728,12.86,9.438,12.957,9.245C12.957,9.341,12.957,9.245,12.957,9.245z M12.86,18.23c0.097,0,0.097,0,0.193,0l0,0
		c-0.097-0.097,0,0.097,0,0.097c0.193,0.29,0.097,0.29,0.193,0.386v0.097v0.097l0,0l0,0H13.15
		C12.86,18.713,12.86,18.327,12.86,18.23z M12.957,13.303l-0.097-0.386l0,0l0,0C12.957,13.206,12.86,13.206,12.957,13.303
		c-0.193-0.193-0.193-0.29-0.193-0.29c-0.097-0.29,0-0.29-0.097-0.386c0-0.097,0-0.097,0-0.097l0,0c0.097,0,0.097,0.097,0.193,0.097
		c0,0.097,0.097,0.193,0.097,0.193l0,0l0,0C13.053,13.109,13.053,13.206,12.957,13.303C13.053,13.303,13.053,13.303,12.957,13.303
		c0.097-0.386,0-0.58-0.097-0.773c0,0.097,0,0.097,0,0.097C12.957,13.303,13.053,13.109,12.957,13.303z M12.763,14.462
		c0.097,0.097,0.097,0.193,0.097,0.29c0,0.386,0.097,0.29,0,0.386C12.763,14.655,12.86,14.655,12.763,14.462c0,0.193,0,0.193,0,0.29
		l0,0c0,0.097,0,0.193,0,0.386C12.667,14.752,12.667,14.365,12.763,14.462C12.86,14.365,12.86,14.365,12.763,14.462
		C12.86,14.462,12.86,14.462,12.763,14.462c0.29,0.29,0.29,0.676,0.193,0.773l0,0l0,0C13.053,14.945,12.86,14.559,12.763,14.462
		C12.86,14.462,12.86,14.462,12.763,14.462z M12.86,7.989C12.957,7.989,12.957,7.989,12.86,7.989
		c0.097,0.097,0.097,0.097,0.097,0.097c0.097,0.386,0,0.58,0,0.676l0,0l0,0c0-0.58,0-0.483,0-0.676c0.097,0.483,0.097,0.676,0,0.87
		c0,0,0,0-0.097,0C12.57,8.472,12.86,8.182,12.86,7.989z M13.15,11.853c0-0.193,0-0.097,0-0.097c0,0.29,0,0.193,0,0.29
		s0,0.193,0,0.29c0,0,0,0,0,0.097c0,0,0,0,0,0.097c0-0.58,0-0.58,0.097-0.87c0,0,0,0-0.097,0c-0.097,0.483,0,0.483-0.097,0.676
		c0,0.097,0,0.097,0,0.193l0,0c-0.193-0.193-0.097-0.29-0.097-0.386c0-0.193,0.097-0.386,0.097-0.386
		c0.097-0.193,0-0.097,0.097-0.193l0,0C13.246,11.757,13.15,11.757,13.15,11.853z M13.15,18.133
		C13.15,18.133,13.15,18.037,13.15,18.133c-0.193-0.29-0.193-0.29-0.097-0.29c0-0.193,0.097-0.193,0.097-0.29
		c0,0,0-0.097,0.097-0.097c0.097-0.193,0.097-0.097,0.097-0.193l0,0l0,0v0.097l0,0c0,0,0,0-0.097,0c-0.097,0.386,0,0.483,0,0.58
		c0,0,0,0,0,0.097C13.246,18.037,13.246,18.037,13.15,18.133z M13.15,16.201h-0.097c-0.193-0.29,0-0.58,0-0.58
		c0.097-0.193,0.097-0.193,0.097-0.193h0.097l0,0l0,0c-0.097,0.097-0.097,0.193-0.097,0.193c0-0.097,0-0.097,0-0.193l0,0l0,0
		c0,0.193,0,0.193,0,0.29C13.15,16.201,13.053,16.008,13.15,16.201z M13.44,18.906c-0.097,0.483-0.097,0.483-0.193,0.773
		c0-0.386,0.193-0.58,0.097-0.58l0,0c0,0.097-0.097,0.097-0.097,0.193c-0.097,0.29,0,0.29-0.097,0.386v0.097v0.097
		c-0.097-0.386,0-0.58,0-0.676C13.246,19.099,13.343,19.003,13.44,18.906L13.44,18.906z M12.763,10.307
		c0-0.097-0.097-0.097-0.097-0.193C12.57,9.728,12.57,9.921,12.57,9.631s0.097-0.29,0.097-0.386c0.097,0.193,0,0.193,0,0.29
		C12.667,10.114,12.667,10.018,12.763,10.307L12.763,10.307z M12.86,13.786c0,0.386,0.193,0.58,0.29,0.676l0,0l0,0
		c-0.386-0.193-0.386-0.386-0.386-0.58c0-0.193,0-0.193,0-0.29s0.097-0.097,0.097-0.193h0.097l0,0l0,0
		C12.763,13.592,12.86,13.786,12.86,13.786L12.86,13.786z M13.053,11.37c-0.097,0.29-0.097,0.29-0.097,0.29
		c-0.097,0.29,0,0.386-0.097,0.483c0,0.097,0,0.097,0,0.193l0,0c-0.193-0.29,0-0.58,0-0.676
		C13.053,11.467,12.957,11.467,13.053,11.37z M13.053,14.365c-0.29-0.29-0.097-0.58-0.097-0.773l0,0
		C12.957,13.979,13.053,14.172,13.053,14.365z M13.053,14.172c-0.097-0.386,0-0.386,0-0.58c0-0.193,0-0.097,0.097-0.193
		c0,0.193-0.097,0.386-0.097,0.483C13.053,14.172,13.053,14.172,13.053,14.172z M12.86,10.501c0.193,0.29,0.193,0.386,0.193,0.483
		c-0.097,0.193,0,0.193-0.097,0.29l0,0l0,0C13.15,10.887,12.86,10.597,12.86,10.501z"/>
	<path d="M22.715,29.92c0-0.193,0.097-6.666,0.193-7.439v-0.097c0-0.097,0-0.097,0-0.386c0,0,0-0.097,0-0.193
		c0-0.097,0-0.29,0.097-0.386c0-0.097,0.097-0.29,0-0.386c0-0.097,0-0.29,0-0.386s0,0,0-0.386c0-0.193-0.097-0.193,0.097-0.58
		c0-0.097,0,0,0.097-0.386c0-0.193,0.193-0.386,0.193-0.773l0,0c-0.097,0.097,0,0-0.097,0.193c0,0.097-0.097,0.193-0.097,0.29l0,0
		l0,0c0.097-0.097,0-0.193,0.097-0.676c0,0,0.097-0.097,0.097-0.386v-0.097c0,0,0,0,0-0.097V17.65v-0.097c0-0.097,0-0.097,0-0.386
		c0-0.097,0.097-0.097,0.097-0.58l0,0l0,0v0.097l0,0c0,0,0,0,0,0.097l0,0l0,0l0,0v-0.097c0-0.097,0-0.097,0-0.386
		c0-0.097,0-0.097,0.097-0.29c0-0.097,0,0,0-0.193l0,0c0-0.097,0.097-0.193,0.193-0.483c0-0.097,0-0.193,0.097-0.58
		c-0.097,0.097,0,0.193-0.193,0.58l0,0l0,0c0-0.193,0.193-0.87,0.193-1.642l0,0c0.097,0,0,0,0-0.097l0,0
		c0-0.097,0.097-0.29,0.193-0.773c0,0,0,0,0-0.097l0,0c0,0.097,0,0.097,0,0.193l0,0l0,0c0-0.097,0,0,0-0.29
		c0-0.097-0.097,0.193-0.097,0.29c0,0,0,0,0,0.097c-0.097-0.386,0.097-0.483,0.193-1.159l0,0v-0.097c0-0.193,0-0.097,0-0.386
		c0,0,0,0,0.097-0.193s0-0.29,0.483-0.87c-0.193,0.193-0.29,0.29-0.483,0.773l0,0l0,0v-0.097c0,0,0,0,0-0.097s0-0.193,0-0.483
		c0.097-0.193,0.193-0.483,0.29-1.063c0.097-0.193,0-0.097,0.097-0.386l0,0c0-0.097,0-0.097,0.097-0.29c0,0,0,0,0-0.097
		c-0.097,0,0,0-0.097,0.193l0,0l0,0c0-0.193,0.097-0.386,0.193-0.676c0-0.097,0-0.097,0.193-0.676c0,0,0,0,0-0.097l0,0
		c0,0.193-0.097,0.097-0.193,0.58c0,0.097,0,0.193-0.097,0.483c0,0.29,0,0.29-0.29,0.87c0-0.097,0-0.193,0-0.193
		c0.097-0.193,0.097-0.483,0.097-0.966c0-0.097,0-0.097,0.097-0.193l0,0l0,0c0,0,0,0,0,0.097c0,0,0,0-0.097,0.193
		c0-0.097,0.097-0.097,0-0.58l0,0c0,0.097,0,0.097,0,0.386c0,0,0,0.097,0,0c0,0,0,0,0-0.097l0,0c0-0.097-0.097-0.097,0-0.386
		c0-0.097,0.097-0.193,0.097-0.29c0.097-0.097,0-0.29,0.386-0.773c0.193-0.193,0.29-0.29,0.58-0.676l0,0
		c0.29-0.193,0.676-0.483,1.063-0.87c-0.386-0.483-0.386-0.386-0.193-0.676l0,0l0,0c0,0.097,0,0.097-0.193,0.29l-0.097,0.097
		L26,4.897c-0.097,0.097-0.097,0-0.386,0.29c-0.193,0.097-0.29,0.097-0.29,0.193c-0.097,0.097-0.58,0.483-0.87,0.966
		c-0.097,0.193-0.193,0.483-0.386,0.966c0-0.193,0-0.193,0-0.773c0-0.29,0-0.773-0.193-1.353C23.778,4.8,23.682,4.22,23.682,3.64
		c0-0.29-0.097-0.773-0.097-1.353c0,0,0-0.386-0.097-0.29c0,0.29,0.097,0.87,0.097,1.449l0,0c0,0.386,0,0.386,0.097,1.159
		c0.097,0.676,0.29,1.353,0.29,2.319l0,0l0,0c-0.097-0.097,0,0-0.097-0.386c-0.097-0.193-0.097-0.483-0.386-1.063
		c0.097,0.29,0,0.097,0.193,0.773c0,0.097,0.097,0.386,0.193,0.87l0,0c-0.097-0.097-0.097-0.29-0.193-0.386l0,0
		c0,0,0-0.097-0.193-0.193l0,0c0,0,0,0,0-0.097c-0.097-0.097-0.193-0.29-0.386-0.676l0,0l0,0c0.097,0.193,0,0.29,0.386,0.773
		c0.097,0.193,0,0,0.193,0.386c0.097,0.097,0.193,0.193,0.193,0.29c0.097,0.193,0,0.193,0,0.773c0,0.193,0,0.386,0,0.773
		c0,0.097-0.097,0.193-0.097,0.29l0,0c-0.097,0-0.097,0.097-0.097,0.193c0,0.097-0.097,0.29-0.097,0.483c0,0,0,0,0,0.097
		c-0.097-0.193,0-0.483,0.097-0.966l0,0c-0.193,0.386-0.29,0.58-0.29,1.063c0,0.097,0,0.097,0.097,0.29
		c0,0.097-0.097,0.097-0.097,0.386c0,0,0,0.097-0.097,0.29c0,0.193,0.097,0.386,0,0.87c-0.097-0.29-0.193-1.063-0.097,0
		c0,0.097,0,0.097,0,0.386c0,0,0,0-0.097,0.193c0,0,0,0,0,0.193c0,0.097,0,0.193-0.097,0.193l0,0c0,0.097,0,0,0,0.097
		c0.097,0.193,0.097,0.483,0,0.87c0,0,0,0,0,0.097c0,0,0,0,0,0.097l0,0l0,0v-0.097c0,0,0-0.193,0-0.386l0,0
		c0,0.29,0.097,0.483,0,0.966c0,0.193,0,0.097,0,0.58c0,0.097,0,0.193,0,0.193c0,0.193-0.097,0.097-0.097,0.483v-0.097l0,0
		c0,0,0,0,0-0.097c0,0,0,0,0-0.097l0,0l0,0c0,0.097,0,0.097,0,0.193c0,0.097,0,0.193,0,0.483c0,0.29-0.097,0.193,0,0.773
		c0,0.097,0,0,0.097,0.29c0,0.193-0.097,0.29,0,0.676c-0.097,0,0-0.097-0.097-0.097c-0.097-0.193-0.097-0.097,0-0.483l0,0l0,0
		c0,0.097,0,0,0,0.29c0-0.097,0-0.097,0-0.097c0,0.097,0,0.193,0,0.193c0,0.193,0,0.29,0,0.773l0,0c0,0.097,0,0,0.097,0.386
		c0,0.097,0,0.097-0.097,0.386l0,0c0,0.193,0.097,0.483,0.097,0.87l0,0c0,0.87,0,0.58-0.097,2.126l0,0
		c-0.097,0.097-0.193,7.15-0.193,7.343L22.715,29.92z M22.908,16.201c-0.097,0.58,0,0.58,0,0.773l0,0l0,0
		c0-0.097-0.097-0.193-0.097-0.29C22.811,16.201,22.811,16.298,22.908,16.201c0-0.097,0.097,0,0.097,0
		c0.097,0.097,0.097,0.097,0.097,0.097c0.097,0.097,0.097,0.193,0.097,0.193c0,0.29,0,0.29-0.097,0.386v0.097v0.097
		c-0.193,0.097-0.29,0-0.29,0l0,0C22.908,16.684,22.908,16.298,22.908,16.201z M23.488,10.404
		C23.488,10.307,23.584,10.307,23.488,10.404c0.097,0,0.097,0,0.097,0c0.29,0.386,0.097,1.159-0.097,0.966
		c0.097-0.097,0-0.097,0-0.193C23.391,10.597,23.681,10.501,23.488,10.404z M23.971,9.245c-0.29,0.29-0.193,0.193-0.29,0.483l0,0
		c0,0.193,0,0.193,0,0.29c0,0,0,0,0,0.097c-0.097-0.483,0.097-0.676,0.097-0.773C23.874,9.245,23.874,9.245,23.971,9.245
		L23.971,9.245c0-0.097,0.097,0,0.097-0.097l0,0l0,0c-0.097,0.193,0,0.193-0.097,0.29c0,0.097,0,0.193-0.097,0.29
		c-0.097,0.29,0,0.193-0.097,0.29C23.584,9.631,23.874,9.438,23.971,9.245C23.971,9.341,23.971,9.245,23.971,9.245z M22.715,18.133
		c0.097,0,0.097,0.097,0.193,0.097l0,0c-0.097-0.097,0,0.097,0,0.097c0.193,0.386,0.097,0.386,0.097,0.483v0.097v0.097l0,0l0,0
		h-0.097C22.618,18.616,22.715,18.23,22.715,18.133z M23.488,13.206V12.82l0,0l0,0C23.391,13.206,23.391,13.109,23.488,13.206
		c-0.193-0.193-0.097-0.29-0.097-0.29c0-0.29,0.097-0.29,0-0.483c0-0.097,0,0,0.097,0l0,0c0.097,0,0.097,0.097,0.097,0.097
		c0,0.097,0,0.193,0.097,0.193l0,0l0,0C23.584,13.109,23.584,13.206,23.488,13.206L23.488,13.206c0.193-0.386,0-0.58,0-0.773
		c0,0.097,0,0.097,0,0.193C23.488,13.206,23.584,13.109,23.488,13.206z M23.101,14.462c0.097,0.097,0.097,0.193,0.097,0.29
		c-0.097,0.386,0,0.29-0.097,0.386C23.101,14.655,23.101,14.655,23.101,14.462c0,0.193,0,0.193,0,0.29l0,0c0,0.097,0,0.193,0,0.386
		C23.005,14.655,23.005,14.269,23.101,14.462c0.097-0.097,0.097-0.097,0.097-0.097l0,0c0.097,0.386,0.097,0.773-0.097,0.87l0,0l0,0
		C23.391,14.945,23.198,14.462,23.101,14.462C23.198,14.462,23.198,14.365,23.101,14.462z M24.164,7.989
		C24.261,7.989,24.164,7.989,24.164,7.989c0.097,0.097,0.097,0.097,0.097,0.097c0,0.386-0.097,0.58-0.097,0.676l0,0l0,0
		c0.097-0.58,0-0.483,0.097-0.676c0.097,0.483,0,0.676-0.193,0.773c0,0,0,0-0.097,0C23.778,8.375,24.067,8.182,24.164,7.989z
		 M23.874,11.853c0-0.193,0.097-0.097,0-0.097c0,0.29,0,0.193,0,0.29s0,0.193-0.097,0.193c0,0,0,0,0,0.097l0,0
		c0-0.58,0.097-0.58,0.193-0.773c0,0,0,0-0.097,0c-0.193,0.483-0.097,0.483-0.193,0.676c0,0.097,0,0.097,0,0.193l0,0
		c-0.097-0.193,0-0.29,0-0.386c0-0.193,0.097-0.386,0.193-0.386c0.097-0.097,0.097-0.097,0.097-0.193l0,0
		C23.971,11.757,23.874,11.757,23.874,11.853z M23.005,18.037C23.005,18.037,22.908,18.037,23.005,18.037
		c-0.097-0.29-0.097-0.29-0.097-0.29c0-0.193,0.097-0.193,0.097-0.193s0-0.097,0.097-0.097c0.193-0.193,0.097-0.097,0.193-0.193l0,0
		l0,0v0.097l0,0c0,0,0,0-0.097,0c-0.097,0.386-0.097,0.483-0.097,0.58l0,0C23.101,18.037,23.005,18.037,23.005,18.037z
		 M23.198,16.201h-0.097c-0.193-0.29,0.097-0.58,0.097-0.58c0.097-0.193,0.097-0.193,0.193-0.193h0.097l0,0l0,0
		c-0.097,0.097-0.097,0.193-0.097,0.193c0-0.097,0-0.097,0-0.097l0,0l0,0c-0.097,0.193,0,0.193-0.097,0.29
		C23.198,16.201,23.198,16.008,23.198,16.201z M23.101,18.906c-0.097,0.483-0.193,0.483-0.29,0.676c0-0.386,0.193-0.483,0.193-0.58
		l0,0c0,0.097-0.097,0.097-0.097,0.193c-0.097,0.29-0.097,0.29-0.097,0.386c0,0,0,0,0,0.097v0.097
		c-0.097-0.386,0.097-0.58,0.097-0.58C23.005,19.099,23.005,19.003,23.101,18.906L23.101,18.906z M23.681,10.307
		c-0.097-0.097-0.097-0.193-0.097-0.193c0-0.386,0-0.29,0-0.483c0.097-0.386,0.097-0.29,0.097-0.386c0.097,0.193,0,0.193,0,0.29
		C23.584,10.018,23.681,9.921,23.681,10.307C23.681,10.211,23.681,10.211,23.681,10.307z M23.294,13.786
		c0,0.386,0.097,0.58,0.193,0.676l0,0l0,0C23.294,14.172,23.294,13.979,23.294,13.786c0.097-0.097,0-0.097,0.097-0.193
		c0-0.097,0.097-0.097,0.097-0.193h0.097l0,0l0,0C23.198,13.496,23.294,13.689,23.294,13.786
		C23.294,13.689,23.294,13.689,23.294,13.786z M23.778,11.37c-0.097,0.29-0.097,0.193-0.193,0.29
		c-0.193,0.193-0.097,0.386-0.097,0.386c-0.097,0.097,0,0.097,0,0.193l0,0c-0.193-0.29,0.097-0.58,0.097-0.676
		C23.778,11.37,23.778,11.467,23.778,11.37z M23.391,14.269c-0.29-0.386,0-0.58,0-0.773l0,0
		C23.391,13.979,23.391,14.075,23.391,14.269z M23.391,14.172c-0.097-0.483,0-0.386,0.097-0.58c0.097-0.193,0.097-0.097,0.097-0.193
		c-0.097,0.193-0.097,0.386-0.097,0.483C23.488,14.075,23.488,14.172,23.391,14.172z M23.778,10.501
		c0.193,0.29,0.097,0.386,0.097,0.483c-0.097,0.193-0.097,0.193-0.097,0.29l0,0l0,0C23.971,10.984,23.778,10.597,23.778,10.501z"/>
	<path d="M19.333,30.5c0-0.193,0,0,0-0.676v-0.097c0-0.097,0-0.097,0-0.58c0-0.097,0.097-0.097,0-0.29c0-0.193,0-0.386-0.097-0.58
		c0-0.193-0.097-0.29,0-0.483c0-0.193,0-0.386,0-0.483c0-0.193,0,0,0-0.58c0-0.193,0.097-0.29-0.097-0.773
		c-0.097-0.193,0,0-0.097-0.58c0-0.29-0.193-0.483-0.193-1.063l0,0c0.097,0.097,0,0,0.097,0.29c0,0.097,0.097,0.193,0.097,0.29l0,0
		l0,0c-0.097-0.193,0-0.193-0.097-0.87c0-0.097-0.097-0.193-0.097-0.483v-0.097c0,0,0,0,0-0.097v-0.097v-0.097
		c0-0.097,0-0.193,0-0.483c-0.097-0.193-0.097-0.097-0.097-0.773l0,0l0,0c0,0.097,0,0.097,0,0.193l0,0c0,0,0,0,0,0.097
		c0,0,0,0,0.097,0c0,0,0,0,0-0.097c0,0,0,0,0-0.097v-0.097c0-0.097,0-0.193,0-0.483c0-0.097,0-0.097-0.097-0.386c0-0.193,0,0,0-0.29
		c0,0,0,0,0-0.097c-0.097-0.097-0.097-0.193-0.193-0.676c0-0.193-0.097-0.29-0.097-0.773c0.193,0.097,0.097,0.29,0.193,0.773l0,0
		l0,0c0-0.29-0.193-1.159-0.193-2.126l0,0c-0.097,0-0.097,0,0-0.097c0,0,0,0,0-0.097c-0.097-0.097-0.097-0.386-0.193-0.966
		c0,0,0,0,0-0.097l0,0c0,0.097,0,0.097,0,0.193l0,0l0,0c0-0.193,0,0-0.097-0.386c0.097-0.193,0.097,0.193,0.097,0.483v0.097
		c0.097-0.483-0.097-0.676-0.193-1.449l0,0v-0.097c0-0.29,0-0.097,0-0.58c-0.097,0,0,0-0.097-0.29s0-0.386-0.58-1.159
		c0.29,0.193,0.386,0.386,0.58,1.063l0,0l0,0V14.36c0,0,0,0,0-0.193s0-0.193,0-0.676c-0.097-0.29-0.29-0.58-0.386-1.449
		c-0.097-0.193-0.097-0.097-0.193-0.58l0,0c0-0.097,0-0.097-0.193-0.386c0,0,0,0,0-0.193c0.097,0,0,0,0.097,0.193l0,0l0,0
		c0-0.193-0.097-0.483-0.193-0.87c0-0.193,0-0.193-0.193-0.87c0,0,0,0,0-0.193l0,0c0.097,0.193,0.097,0.193,0.193,0.773
		c0.097,0.097,0.097,0.193,0.193,0.58c0,0.386,0,0.483,0.29,1.159c0-0.097,0-0.193-0.097-0.29c-0.097-0.29-0.097-0.58-0.097-1.353
		c-0.097-0.097,0-0.193-0.097-0.29l0,0l0,0v0.097c0,0,0,0,0.097,0.193c0.097-0.097-0.097-0.193,0-0.676l0,0c0,0.097,0,0.097,0,0.483
		v0.097c0.097,0,0,0,0-0.097c0,0,0,0,0-0.097s0.097-0.097,0-0.58c0-0.097-0.097-0.193-0.097-0.29c-0.097-0.097,0-0.386-0.483-0.966
		c-0.29-0.29-0.386-0.386-0.773-0.87l0,0c-0.386-0.29-0.87-0.58-1.353-1.256c-0.097-0.097-0.097-0.097-0.29-0.483l0,0l0,0
		c0.097,0.193,0,0.097,0.193,0.386c0.097,0,0.097,0.097,0.193,0.097l0.29,0.29c0.097,0.097,0.097,0,0.483,0.386
		c0.097,0.097,0.193,0.097,0.29,0.193c0.773,0.87,1.353,1.353,1.739,1.932c0.097,0.29,0.193,0.676,0.483,1.256
		c0-0.29,0-0.29,0-1.063c0-0.386,0-1.063,0.29-1.739c0.097-0.483,0.29-1.256,0.29-2.126c0-0.29,0.097-1.063,0.097-1.739
		c0,0,0-0.483,0.097-0.386c0,0.483-0.097,1.159-0.193,1.932l0,0c0,0.483,0,0.58-0.097,1.449c-0.097,0.87-0.386,1.836-0.386,3.092
		l0,0l0,0c0.097-0.193,0,0,0.193-0.483c0.097-0.29,0.097-0.676,0.483-1.353c-0.097,0.386,0,0.097-0.29,1.063
		c-0.097,0.097-0.097,0.483-0.193,1.063l0,0c0,0,0.193-0.193,0.29-0.29c0,0,0,0,0-0.097s0-0.097,0.193-0.29l0,0V8.762
		c0.097-0.097,0.193-0.29,0.386-0.773l0,0l0,0c0.097,0.29,0.097,0.29-0.386,0.966c-0.097,0.193,0,0-0.29,0.483
		c-0.097,0.193-0.193,0.29-0.29,0.483s0,0.29,0,0.966c0,0.29,0.097,0.483,0,1.063c0.097,0.097,0.097,0.193,0.097,0.29l0,0
		c0.097,0,0.097,0.097,0.193,0.29c0,0.097,0.097,0.386,0.097,0.676c0,0,0,0,0,0.193c0.097-0.29,0.097-0.676-0.097-1.256l0,0
		c0.097,0.193,0.193,0.58,0.193,1.159c0,0.097,0,0.097-0.097,0.386c0.097,0.097,0.097,0.193,0.097,0.58
		c0.097,0.097,0,0.097,0.097,0.386c-0.097,0.29-0.097,0.483,0,1.159c0.097-0.386,0.29-1.449,0.097,0c0,0.097-0.097,0.097,0,0.58
		c0,0,0,0,0.097,0.193c0,0,0,0,0.097,0.193c0.097,0.097,0,0.193,0.097,0.29l0,0c0,0.097,0,0,0,0.193
		c-0.097,0.193-0.097,0.676,0,1.159v0.097v0.097l0,0l0,0V18.52c0-0.097,0-0.29,0-0.483c0,0,0,0,0.097,0c0,0.386-0.097,0.676,0,1.256
		c-0.097,0.29,0.097,0.097,0,0.773c0,0.097,0,0.193-0.097,0.29c0,0.193,0.097,0.193,0.193,0.676c0,0,0-0.097,0.097-0.097l0,0
		c0,0,0,0,0-0.097v-0.097l0,0l0,0c0,0.097,0,0.193,0,0.29s-0.097,0.29,0,0.58c0.097,0.386,0.193,0.29,0,1.063
		c0,0.097-0.097,0.097-0.097,0.386s0.193,0.386,0,0.966c0.097,0,0-0.097,0.097-0.097c0.097-0.29,0.097-0.097,0-0.676
		c0,0,0,0,0-0.097l0,0c0,0.097,0,0,0,0.483c0-0.097,0-0.097,0.097-0.193c0,0.097,0,0.193,0,0.29c-0.097,0.193,0,0.386,0,1.063l0,0
		c0,0.193,0,0-0.097,0.58c0.097,0.193,0,0.097,0.097,0.483c0,0,0,0,0,0.097c0,0.193-0.097,0.58-0.097,1.063l0,0
		c-0.097,1.159,0,0.773,0.097,2.802l0,0c0.097,0.097,0,0.29,0.097,0.58L19.333,30.5z M19.333,21.611c0.193,0.773,0,0.87,0,0.966
		c0,0,0,0,0,0.097l0,0c0-0.097,0.097-0.193,0.097-0.386C19.526,21.611,19.526,21.708,19.333,21.611c0-0.097-0.097-0.097-0.193,0
		c-0.097,0.097-0.097,0.097-0.097,0.193c-0.097,0.097-0.097,0.193-0.193,0.29c0,0.386,0,0.386,0.097,0.483c0,0,0.097,0.097,0,0.097
		c0,0,0,0.097,0.097,0.097c0.29,0.097,0.29,0,0.386,0c0,0,0,0,0-0.097C19.43,22.191,19.43,21.805,19.333,21.611z M18.754,13.979
		h-0.097c0,0.097,0,0-0.097,0c-0.386,0.483-0.097,1.449,0.193,1.256c-0.097-0.097,0-0.193,0-0.29
		C18.85,14.269,18.56,14.075,18.754,13.979z M18.077,12.53c0.29,0.386,0.193,0.29,0.29,0.58l0,0c0,0.193,0,0.29,0,0.386
		c0,0,0,0,0,0.097c0.193-0.58-0.097-0.87-0.097-0.966C18.27,12.53,18.27,12.433,18.077,12.53
		C18.174,12.433,18.174,12.433,18.077,12.53c0-0.193-0.097-0.097-0.193-0.097l0,0l0,0c0.193,0.29,0,0.29,0.097,0.386
		c0,0.097,0,0.29,0.097,0.386c0.097,0.386,0,0.193,0.097,0.386C18.56,13.013,18.27,12.723,18.077,12.53
		C18.174,12.53,18.174,12.53,18.077,12.53z M19.623,24.123c-0.097,0-0.193,0.097-0.193,0.097l0,0c0.097-0.097,0,0.193,0,0.193
		c-0.193,0.483-0.097,0.483-0.097,0.58v0.097v0.097c0,0.097,0,0.097,0.097,0l0,0c0.097,0.097,0.097,0,0.097,0
		C19.72,24.8,19.623,24.22,19.623,24.123z M18.754,17.747v-0.58l0,0l0,0C18.754,17.65,18.85,17.65,18.754,17.747
		c0.193-0.29,0.193-0.386,0.193-0.386c0.097-0.386-0.097-0.386,0.097-0.58c0-0.097,0-0.097-0.097-0.097c0,0,0,0-0.097,0
		c-0.193,0-0.193,0.097-0.193,0.097c0,0.097-0.097,0.193-0.097,0.29l0,0c0,0,0,0,0,0.097c-0.097,0.386,0,0.483,0,0.58
		C18.657,17.747,18.657,17.747,18.754,17.747c-0.193-0.483,0-0.773,0-0.966c0,0.097,0,0.097,0,0.193
		C18.754,17.747,18.56,17.554,18.754,17.747z M19.14,19.293c-0.097,0.097-0.097,0.29-0.097,0.386c0.097,0.483,0,0.386,0.097,0.483
		c0-0.58,0-0.58,0-0.676c0.097,0.097,0.097,0.097,0,0.193l0,0c0,0.193,0,0.29,0,0.483c0.097-0.676,0.097-1.063-0.097-1.063
		c0,0,0,0-0.097,0l0,0c-0.193,0.483-0.193,0.966,0.097,1.063l0,0l0,0C18.85,19.969,19.043,19.389,19.14,19.293
		C19.043,19.293,19.043,19.293,19.14,19.293z M17.981,10.791c-0.193,0.097-0.097,0.097-0.097,0.097l0,0
		c0,0.483,0.097,0.773,0.097,0.87l0,0l0,0c-0.193-0.773,0-0.58-0.097-0.87c-0.097,0.676,0,0.87,0.193,1.063h0.097
		C18.464,11.37,17.981,11.08,17.981,10.791z M18.27,15.911c0-0.193-0.097-0.193,0-0.193c0.097,0.386,0,0.29,0.097,0.386
		c0,0.097,0,0.193,0.097,0.29v0.097c0,0,0,0,0.097,0.097c0-0.676-0.097-0.676-0.193-1.063h0.097c0.193,0.676,0.097,0.58,0.193,0.87
		c0,0.097,0,0.097,0,0.193l0,0c0.193-0.29,0.097-0.483,0.097-0.58c0-0.29-0.193-0.483-0.193-0.483
		c-0.097-0.193-0.097-0.097-0.097-0.193c0,0,0,0-0.097,0C18.174,15.815,18.174,15.815,18.27,15.911z M19.237,24.027
		C19.237,24.027,19.333,24.027,19.237,24.027c0.193-0.386,0.193-0.386,0.097-0.483c0-0.29-0.097-0.29-0.097-0.29l-0.097-0.097
		c-0.193-0.193-0.097-0.193-0.193-0.29c0,0,0,0-0.097,0l0,0v0.097l0,0c0.097,0,0.097,0,0.097,0.097
		c0.193,0.483,0.097,0.58,0.097,0.773v0.097C19.14,24.027,19.14,24.027,19.237,24.027z M18.947,21.611c0.097,0,0.097,0,0.097,0
		c0.193-0.483-0.097-0.676-0.097-0.773c-0.193-0.193-0.193-0.193-0.193-0.29h-0.097l0,0l0,0c0.193,0.193,0.097,0.193,0.097,0.193
		c0-0.193-0.097-0.193,0-0.193l0,0l0,0c0.097,0.29,0,0.29,0.097,0.386C19.043,21.611,19.043,21.322,18.947,21.611z M19.043,25.186
		c0.193,0.58,0.193,0.676,0.386,0.966c0-0.483-0.29-0.676-0.29-0.773l0,0c0,0.097,0.097,0.097,0.097,0.193
		c0.193,0.386,0.097,0.386,0.193,0.483v0.097c0,0.097,0,0.097,0,0.193c0.097-0.483-0.097-0.773-0.097-0.773
		C19.237,25.379,19.237,25.283,19.043,25.186L19.043,25.186z M18.464,13.882c0.097-0.097,0.097-0.193,0.097-0.29
		c0-0.58,0-0.29,0-0.58c0-0.483,0-0.483,0-0.58c-0.097,0.193,0,0.29,0,0.386C18.657,13.496,18.56,13.399,18.464,13.882
		C18.464,13.786,18.464,13.786,18.464,13.882z M19.043,18.423c0,0.483-0.097,0.773-0.193,0.966l0,0l0,0
		c0.29-0.386,0.29-0.58,0.29-0.773c-0.097-0.29,0-0.29-0.097-0.386c0-0.097-0.097-0.097-0.097-0.193c0,0-0.097,0-0.193,0l0,0l0,0
		C19.043,18.133,18.947,18.327,19.043,18.423C19.043,18.327,19.043,18.423,19.043,18.423z M18.27,15.235
		c0.097,0.386,0.193,0.29,0.193,0.386c0.193,0.29,0.097,0.483,0.193,0.58c0.097,0.193,0,0.193,0,0.193l0,0
		c0.193-0.386-0.097-0.773-0.193-0.87C18.367,15.331,18.367,15.331,18.27,15.235z M18.754,19.099c0.386-0.483,0-0.773,0-1.063l0,0
		C18.85,18.713,18.85,18.906,18.754,19.099z M18.754,19.003c0.097-0.58,0-0.58-0.097-0.773c-0.097-0.29,0-0.193-0.097-0.29
		c0.097,0.29,0.097,0.483,0.193,0.676C18.754,18.906,18.754,18.906,18.754,19.003z M18.367,14.172
		c-0.193,0.483-0.193,0.58-0.193,0.676c0.097,0.29,0.097,0.193,0.193,0.29l0,0l0,0C18.174,14.752,18.367,14.269,18.367,14.172z"/>
	<path d="M8.609,30.114c0-0.193,0-0.29-0.097-1.256v-0.097c0-0.097,0-0.097-0.097-0.483c0,0,0-0.097,0-0.29s0-0.386-0.097-0.483
		c0-0.193-0.097-0.29,0-0.483c0-0.193,0-0.29,0-0.483c0-0.193,0,0,0-0.483c0-0.193,0.097-0.29-0.097-0.773
		c-0.097-0.193,0,0-0.193-0.483c0-0.29-0.193-0.483-0.193-0.966l0,0c0.097,0.097,0,0,0.097,0.29c0,0.097,0.097,0.193,0.097,0.29l0,0
		l0,0c-0.097-0.193,0-0.193-0.097-0.773c0-0.097-0.097-0.193-0.097-0.386v-0.097c0,0,0,0,0-0.097v-0.097v-0.097
		c0-0.097,0-0.097-0.097-0.386c-0.097-0.097-0.097-0.097-0.193-0.773l0,0l0,0c0,0.097,0,0.097,0,0.193l0,0c0,0,0,0,0,0.097l0,0
		c0,0,0,0,0-0.097c0,0,0,0,0-0.097v-0.097c0-0.097,0-0.193,0-0.483c0-0.097,0-0.097-0.097-0.386c0-0.097,0,0,0-0.29l0,0
		c-0.097-0.097-0.097-0.193-0.193-0.58c0-0.193-0.097-0.193-0.097-0.773c0.193,0.097,0.097,0.29,0.29,0.773l0,0l0,0
		c0-0.29-0.193-1.063-0.29-1.932l0,0c-0.097,0-0.097,0,0-0.097c0,0,0,0,0-0.097c-0.097-0.097-0.193-0.29-0.29-0.87c0,0,0,0,0-0.097
		l0,0c0,0.097,0,0.097,0,0.193l0,0l0,0c0-0.193,0,0-0.097-0.29c0.193-0.193,0.193,0.193,0.29,0.386v0.097
		c0.097-0.483-0.097-0.58-0.29-1.353l0,0v-0.097c0-0.193,0-0.097,0-0.483c-0.097,0,0,0-0.097-0.29s-0.097-0.386-0.58-0.966
		c0.29,0.193,0.386,0.29,0.58,0.966l0,0l0,0v-0.097c0,0,0,0,0-0.097c0-0.193,0-0.193,0-0.58c-0.097-0.29-0.29-0.58-0.386-1.256
		c-0.097-0.193-0.097-0.097-0.193-0.483l0,0c0-0.097,0-0.097-0.193-0.386c0,0,0,0,0-0.193c0.097,0,0,0,0.097,0.193l0,0l0,0
		c0.097-0.386,0-0.58-0.097-0.966c0-0.097,0-0.097-0.193-0.773c0,0,0,0,0-0.097l0,0c0.097,0.193,0.097,0.097,0.193,0.676
		C6,11.08,6,11.177,6.097,11.563c0.097,0.29,0.097,0.386,0.386,1.063c0-0.097,0-0.193-0.097-0.29
		c-0.097-0.193-0.097-0.483-0.193-1.159c-0.097-0.097,0-0.193-0.097-0.193l0,0l0,0c0,0,0,0,0,0.097c0,0,0,0,0.097,0.193
		c0-0.097-0.097-0.097,0-0.676l0,0c0,0.097,0,0.097,0,0.386v0.097c0.097,0,0,0,0-0.097c0,0,0,0,0-0.097s0.097-0.097-0.097-0.483
		c0-0.097-0.097-0.193-0.097-0.29c0.097-0.097,0.193-0.29-0.29-0.87c-0.193-0.29-0.29-0.386-0.676-0.773l0,0
		C4.647,8.181,4.26,7.891,3.68,7.408c-0.097-0.097-0.097,0-0.193-0.386l0,0l0,0c0.097,0.193,0,0.097,0.193,0.386
		c0.097,0,0.097,0.097,0.097,0.097l0.29,0.29c0.097,0.097,0.097,0,0.483,0.386c0.193,0,0.29,0.097,0.386,0.193S5.614,8.955,6,9.438
		c0.097,0.193,0.193,0.58,0.483,1.159c0-0.29,0-0.29,0-0.966c0-0.386,0-0.966,0.097-1.642c0-0.483,0.193-1.159,0.193-1.932
		c0-0.29,0.097-0.966,0-1.642c0,0,0-0.483,0.097-0.29c0,0.386,0,1.063-0.097,1.836l0,0c0,0.483,0,0.483-0.097,1.353
		c0,0.87-0.193,1.739-0.193,2.898l0,0l0,0c0.097-0.193,0,0,0.097-0.483c0.097-0.29,0.097-0.58,0.386-1.256
		c-0.097,0.386,0,0.097-0.193,0.966c0,0.097-0.097,0.483-0.097,1.063l0,0c0.097-0.193,0.193-0.386,0.29-0.483c0,0,0,0,0-0.097
		s0-0.097,0.193-0.29l0,0V9.535c0.097-0.097,0.193-0.29,0.386-0.773l0,0l0,0c-0.097,0.29,0,0.29-0.483,0.966
		c-0.097,0.193,0,0-0.193,0.483c-0.097,0.097-0.193,0.29-0.193,0.386c-0.097,0.193,0,0.193,0.097,0.966
		C6.87,11.757,6.87,12.047,6.87,12.53c0.097,0.097,0.097,0.193,0.097,0.29l0,0c0.097,0,0.097,0.097,0.193,0.29
		c0,0.097,0.097,0.29,0.097,0.676c0,0,0,0,0,0.193c0.097-0.193,0-0.58-0.097-1.159l0,0c0.097,0.193,0.193,0.483,0.193,1.063
		c0,0.097,0,0.097-0.097,0.386c0.097,0.097,0.097,0.193,0.097,0.483c0.097,0.097,0,0.097,0.097,0.386c0,0.29-0.097,0.483,0,1.063
		c0.097-0.386,0.193-1.353,0.097,0c0,0.097,0,0.097,0,0.483c0,0,0,0,0.097,0.193c0,0,0,0,0.097,0.193
		c0.097,0.097,0,0.193,0.097,0.29l0,0c0,0.097,0,0,0,0.193c-0.097,0.193-0.097,0.676,0,1.063v0.097v0.097l0,0l0,0v-0.097
		c0-0.097,0-0.193,0-0.483l0,0c0,0.386-0.097,0.58,0,1.159c0,0.193,0.097,0.097,0,0.676c0,0.097,0,0.193,0,0.29
		c0,0.193,0.097,0.193,0.193,0.676v-0.097l0,0c0,0,0,0,0-0.097V20.74l0,0l0,0c0,0.097,0,0.193,0,0.29s0,0.29,0,0.58
		c0.097,0.29,0.193,0.29,0.097,0.966c0,0.097,0,0.097-0.097,0.29c0,0.193,0.193,0.29,0.097,0.87c0.097,0,0-0.097,0.097-0.097
		c0.097-0.193,0.097-0.097,0-0.676c0,0,0,0,0-0.097l0,0c0,0.097,0,0,0.097,0.386c0-0.097,0-0.097,0-0.193c0,0.097,0,0.193,0,0.29
		c-0.097,0.193,0,0.386,0,0.966l0,0c0,0.193,0,0-0.097,0.483c0.097,0.097,0,0.097,0.097,0.483l0,0c0,0.193-0.097,0.58-0.097,1.063
		l0,0c0,1.063,0,0.676,0.193,2.609l0,0C8.512,29.051,8.512,29.92,8.609,30.114L8.609,30.114z M8.222,21.322
		c0.193,0.676,0.097,0.773,0.097,0.966l0,0l0,0c0-0.097,0.097-0.193,0.097-0.386C8.319,21.322,8.319,21.418,8.222,21.322
		c0-0.097-0.097-0.097-0.097,0c-0.097,0.097-0.097,0.097-0.097,0.193c-0.097,0.097-0.097,0.193-0.193,0.29
		c0.097,0.386,0.097,0.29,0.097,0.483c0,0,0.097,0.097,0,0.097v0.097c0.29,0.097,0.29,0,0.29,0l0,0
		C8.319,21.901,8.319,21.515,8.222,21.322z M7.256,14.365L7.256,14.365c-0.097,0.097-0.097,0-0.193,0
		c-0.386,0.483,0,1.353,0.193,1.063c-0.097-0.097,0-0.193,0-0.193C7.353,14.655,7.063,14.462,7.256,14.365z M6.677,13.013
		c0.29,0.386,0.193,0.29,0.29,0.483l0,0c0,0.193,0,0.29,0,0.386c0,0,0,0,0,0.097c0.097-0.483-0.097-0.87-0.193-0.87
		C6.773,13.013,6.773,13.013,6.677,13.013L6.677,13.013c0-0.193-0.097,0-0.193-0.097l0,0l0,0c0.193,0.193,0.097,0.29,0.097,0.29
		c0,0.097,0.097,0.193,0.097,0.386c0.097,0.29,0,0.193,0.097,0.386C7.063,13.496,6.773,13.206,6.677,13.013
		C6.677,13.109,6.677,13.013,6.677,13.013z M8.609,23.64c-0.097,0-0.193,0.097-0.193,0.097l0,0c0.097-0.097,0,0.193,0,0.097
		c-0.193,0.386-0.097,0.386-0.097,0.483v0.097v0.097c0,0,0,0,0.097,0l0,0c0.097,0.097,0.097,0,0.097,0
		C8.706,24.22,8.609,23.737,8.609,23.64z M7.45,17.747v-0.483l0,0l0,0C7.546,17.747,7.546,17.65,7.45,17.747
		c0.193-0.29,0.097-0.29,0.097-0.386c0-0.386-0.097-0.386,0-0.483c0-0.097,0-0.097-0.097-0.097l0,0
		c-0.193,0-0.097,0.097-0.193,0.097c0,0.097,0,0.193-0.097,0.29l0,0l0,0C7.256,17.554,7.353,17.747,7.45,17.747
		C7.353,17.843,7.353,17.747,7.45,17.747c-0.193-0.483-0.097-0.676,0-0.87c0,0.097,0,0.097,0,0.193
		C7.45,17.747,7.353,17.65,7.45,17.747z M7.933,19.196c-0.097,0.097-0.097,0.29-0.097,0.386c0.097,0.386,0,0.386,0.097,0.483
		c0-0.58,0-0.58,0-0.676c0,0.097,0,0.097,0,0.193l0,0c0,0.097,0,0.29,0,0.386C8.029,19.389,8.029,19.003,7.933,19.196
		c-0.097-0.097-0.097-0.097-0.097-0.097l0,0c-0.097,0.386-0.097,0.87,0.097,0.966l0,0l0,0C7.643,19.776,7.836,19.293,7.933,19.196
		C7.836,19.196,7.836,19.196,7.933,19.196z M6.483,11.467c-0.097,0.097-0.097,0.097-0.097,0.097l0,0
		c0,0.386,0.097,0.676,0.097,0.773l0,0l0,0c-0.193-0.676-0.097-0.58-0.097-0.773c-0.097,0.58,0.097,0.773,0.193,0.966h0.097
		C6.87,11.95,6.483,11.66,6.483,11.467z M6.966,16.201c0-0.193-0.097-0.193,0-0.193C6.966,16.298,6.966,16.201,6.966,16.201
		c0,0.193,0,0.29,0.097,0.386v0.097c0,0,0,0,0.097,0.097c-0.097-0.676-0.097-0.676-0.29-0.966h0.097
		c0.193,0.58,0.097,0.58,0.193,0.773c0,0.097,0,0.097,0,0.193l0,0c0.193-0.29,0-0.386,0-0.483c0-0.29-0.193-0.386-0.193-0.483
		c0-0.193,0-0.097-0.097-0.193c0,0,0,0-0.097,0C6.87,16.008,6.87,16.008,6.966,16.201z M8.222,23.544L8.222,23.544
		c0.097-0.386,0.097-0.386,0.097-0.386c-0.097-0.29-0.097-0.193-0.097-0.29l-0.097-0.097c-0.193-0.193-0.193-0.097-0.193-0.193
		c0,0,0,0-0.097,0l0,0v0.097l0,0h0.097c0.193,0.483,0.097,0.58,0.097,0.773v0.097C8.126,23.544,8.126,23.544,8.222,23.544z
		 M7.836,21.322L7.836,21.322c0.29-0.386,0-0.676,0-0.773c-0.193-0.193-0.193-0.193-0.193-0.29H7.546l0,0l0,0
		c0.193,0.193,0.097,0.193,0.097,0.193c0-0.097-0.097-0.097-0.097-0.193l0,0l0,0c0.097,0.29,0,0.29,0.097,0.29
		C7.933,21.322,7.933,21.032,7.836,21.322z M8.126,24.606c0.193,0.58,0.29,0.58,0.386,0.87c-0.097-0.386-0.29-0.58-0.29-0.676l0,0
		c0,0.097,0.097,0.097,0.097,0.193c0.193,0.29,0.097,0.386,0.193,0.483v0.097c0,0.097,0,0.097,0,0.097
		c0.097-0.483-0.097-0.773-0.193-0.773C8.319,24.8,8.222,24.703,8.126,24.606L8.126,24.606z M7.063,14.269
		c0.097-0.097,0.097-0.193,0.097-0.29c0-0.483,0-0.29,0-0.58c-0.097-0.386-0.193-0.386-0.193-0.483c-0.097,0.193,0,0.29,0,0.29
		C7.16,13.979,7.063,13.882,7.063,14.269C7.063,14.172,7.063,14.172,7.063,14.269z M7.739,18.423c0,0.386-0.097,0.773-0.193,0.87
		l0,0l0,0c0.29-0.29,0.29-0.58,0.193-0.773c-0.097-0.29,0-0.29-0.097-0.386c0-0.097-0.097-0.097-0.097-0.193H7.45l0,0l0,0
		C7.739,18.133,7.643,18.327,7.739,18.423C7.739,18.327,7.739,18.327,7.739,18.423z M6.966,15.525
		c0.097,0.29,0.193,0.29,0.193,0.386c0.193,0.29,0.097,0.386,0.193,0.483s0,0.193,0,0.193l0,0c0.193-0.386-0.097-0.676-0.193-0.773
		C6.966,15.621,7.063,15.621,6.966,15.525z M7.546,19.099c0.29-0.483,0-0.773-0.097-0.966l0,0
		C7.643,18.616,7.546,18.81,7.546,19.099z M7.546,18.906c0-0.58,0-0.483-0.097-0.676s-0.097-0.193-0.193-0.193
		c0.097,0.193,0.193,0.483,0.193,0.58C7.546,18.81,7.546,18.906,7.546,18.906z M6.966,14.462c-0.193,0.386-0.193,0.483-0.097,0.676
		c0.097,0.193,0.097,0.193,0.193,0.29l0,0l0,0C6.773,15.042,6.966,14.655,6.966,14.462z"/>
</g>
</svg>
