<?xml version="1.0" encoding="utf-8"?>
<!-- Generator: Adobe Illustrator 25.4.1, SVG Export Plug-In . SVG Version: 6.00 Build 0)  -->
<svg version="1.1" id="glycine_x5F_max" xmlns="http://www.w3.org/2000/svg" xmlns:xlink="http://www.w3.org/1999/xlink" x="0px"
	 y="0px" viewBox="0 0 32 32" style="enable-background:new 0 0 32 32;" xml:space="preserve">
<path d="M21.4,23c0-0.6-0.4-2.4-1.7-4.6l0.3,0.4c0,0,1.1,1.5,2.2,2.1c1.1,0.7,3,1.4,4.3,1.3c1.4,0,4-0.3,4-0.3s-2.2-1.6-3.1-2.6
	l-0.8-0.7c-1-1-1.8-1.5-2.8-1.9c-1-0.4-2.2-0.4-3.3-0.2c-0.5,0.1-1,1-1.1,1.3c-0.5-0.5-1-1.3-1-1.3l-0.2-0.2l-1.3-1.2
	c0,0,1.3,0.8,2,0.9c0.7,0,2.8-0.8,3.8-2.3S25,9,25,9S23.7,10,22,10.6c-1.4,0.5-2.4,0.4-3.5,1c-1.1,0.6-1.4,2.6-1.4,2.6
	s-0.2,0.6-0.6,0.5c-0.3-0.1-0.4-0.2-1-0.6c-0.6-0.4-0.9-1.5-1.2-2c0.2-0.1,0.7,0.3,1.3,0c1.1-0.6,1.9-1.3,2.4-2.4
	c0.5-1.1,1-3.2,2.1-4.5c0.4-0.5,2-1.8,2-1.8s-3.3,0.3-5.7,2.9c-2.4,2.5-2.3,4.3-2.4,4.7c-0.1,0.2-0.3,0.5-0.2,0.8L13.4,12
	c0,0-1.8-0.2-2.7-0.1c-0.9,0.1-1.9,0.9-2.5,0.8c-2.4-0.4-3.8-2.4-4.6-2.9C3,9.1,2.5,9,2.5,9S1.9,9.1,1.7,9.5
	c-0.2,0.3,0.2,0.5,0.6,0.8c0.4,0.4,1.3,1.4,3.7,2.7c0.4,0.2,1.9,1.2,3.6,0.5c1.8-0.7,1.9-0.7,3.2-0.5c1.3,0.3,1.2,1,1.3,1
	c0,0.1,0,0.2,0.1,0.2c0,0.2-0.1,0.2-0.2,0.3c-0.6,0.2-1.1,0.5-1.6,0.6c-0.4,0.1-0.8,0.3-1.1,0.6c-0.1,0.1-0.2,0.2-0.3,0.5
	c-0.2,0.3-0.3,0.5-0.7,0.6c-0.3,0.2-0.6,0.3-0.8,0.6c-0.2,0.2-0.2,0.2-0.2,0.4c-0.1,0.2-0.3,0.6-0.5,0.6C8.3,18.8,8.2,19,8,19.3
	c-0.3,0.6-0.2,1-0.1,1.5c0.2-0.1,0.5-0.2,0.6-0.3c0.3-0.3,0.6-0.6,0.7-1c0.1-0.2,0.3-0.5,0.6-0.6c0.5-0.2,0.9-0.5,1-1.1
	c0.1-0.2,0.2-0.3,0.4-0.4c0.3-0.2,0.5-0.3,0.7-0.4c0.3-0.2,0.5-0.5,0.7-0.8c0.3-0.6,0.7-1,1.2-1.2c0.2,0,0.2,0.1,0.2,0.2
	c-0.1,0.6-0.4,1-0.8,1.4c-0.6,0.4-1.1,0.8-1.7,1.2c-0.6,0.4-1,0.8-1.1,1.4c0,0.2-0.1,0.4-0.1,0.6c0,0.2-0.1,0.2-0.2,0.4
	c-0.3,0.2-0.7,0.5-0.8,0.8c-0.2,0.3-0.2,0.5-0.2,0.8c0,0.3,0,0.5-0.3,0.7C8.1,23.3,8,24,8.4,24.9c0.1,0.1,0.2,0.2,0.2,0.4
	c0.7-0.5,1-0.9,1.2-1.6c0-0.2,0-0.3,0-0.5c0-0.3,0.1-0.4,0.3-0.6c0.2-0.2,0.4-0.4,0.6-0.6c0.2-0.4,0.4-0.7,0.3-1.1
	c0-0.3,0.1-0.6,0.4-0.7c0.2-0.2,0.4-0.4,0.7-0.6c0.3-0.3,0.4-0.7,0.5-1.1c0.1-0.6,0.3-1.1,0.7-1.5c0.1-0.1,0.1-0.1,0.2-0.2
	c0.1,0.1,0.1,0.1,0.1,0.1c-0.2,0.6-0.4,1.2-0.7,1.8c-0.2,0.5-0.4,0.9-0.4,1.4c0,0.5,0,0.8,0.2,1.2c0.1,0.1,0.1,0.2,0.2,0.3
	c0.1,0.2,0.1,0.4,0,0.6c0,0.2-0.1,0.4-0.2,0.6c-0.1,0.6,0.1,1,0.4,1.5c0.2,0.2,0.2,0.3,0.1,0.6c-0.1,0.1-0.1,0.2-0.2,0.3
	c-0.2,0.8,0.1,1.4,0.7,1.9c0.2,0.2,0.4,0.4,0.7,0.6c0.2-0.4,0.3-0.8,0.3-1.3s-0.1-1-0.4-1.4c-0.2-0.3-0.2-0.6-0.1-0.9
	c0.1-0.2,0.2-0.5,0.2-0.6c0.1-0.6,0-1-0.3-1.3c-0.2-0.2-0.3-0.5,0-1c0.1-0.2,0.1-0.6,0.2-0.8c0-0.5-0.1-1-0.3-1.4
	c-0.5-1-0.5-1.8,0-2.6c0-0.3,0.2-0.6,0.3-1c0.1-0.4,0.2-0.8,0.1-1.3c0.2,0.2,0.5,0.4,0.7,0.5c0.5,0.2,1.5,1.3,1.9,1.8
	c0.4,0.5,0.3,0.5,0.2,0.9c-0.1,0.3-0.9,1-1.2,1.6c-0.3,0.7-0.4,2.3,0.6,3.4c0.9,1.2,1.5,1.7,2.1,2.6c0.7,0.9,1.6,3.1,1.6,3.1
	s1.1-2.5,1-4.6L21.4,23z"/>
</svg>
