<?xml version="1.0" encoding="utf-8"?>
<!-- Generator: Adobe Illustrator 25.4.1, SVG Export Plug-In . SVG Version: 6.00 Build 0)  -->
<svg version="1.1" id="medicago_x5F_truncatula" xmlns="http://www.w3.org/2000/svg" xmlns:xlink="http://www.w3.org/1999/xlink"
	 x="0px" y="0px" viewBox="0 0 32 32" style="enable-background:new 0 0 32 32;" xml:space="preserve">
<path id="McGwXH_1_" d="M14.8,19.9c0.1,0.1,0.3,0,0.4,0.1c0.3,0.2,0.7,0.3,0.9,0.3h0.1c0.1,0.2,0.3,0.1,0.4,0.2c0.1,0,0.2,0,0.2,0
	c0.1,0.2,0.3,0.2,0.4,0.2s0.2,0.1,0.3,0.1s0.1,0.2,0.3,0.1c0.1,0.2,0.3,0.1,0.4,0.2c0.1,0,0.2,0.1,0.2,0.1c0.1,0,0.1,0,0.1,0
	l0.1,0.1c0.2,0,0.3,0.1,0.4,0.2c0.2,0.1,0.4,0.1,0.5,0.3c0.1,0.1,0.2,0.2,0.3,0.1c0.2-0.1,0.2,0.1,0.3,0.2h0.1
	c0.2,0.1,0.5,0.1,0.6,0.3l0,0c0.4,0.2,0.7,0.4,1,0.6c0.1,0.1,0.3,0.2,0.5,0.3l0,0l0,0c0-0.2,0.1-0.4-0.1-0.3c0-0.2-0.1-0.2-0.2-0.3
	c-0.7-0.5-1.3-1-2-1.5c-0.2-0.1-0.3-0.2-0.5-0.3c-0.2-0.1-0.3-0.3-0.5-0.5c-0.5-0.4-1-0.8-1.5-1.2c-0.3-0.3-0.7-0.6-0.9-0.8
	c-0.1-0.1-0.1-0.1-0.1,0c-0.2,0.5-0.5,0.7-0.8,1c-0.4,0.1-0.6,0.1-0.7,0.2l-0.1,0c-0.2,0-0.2-0.1-0.2-0.2c0,0,0,0,0-0.1
	c0-0.2-0.3-0.3-0.2-0.4c0.1-0.2,0.1-0.3,0-0.5c-0.1-0.1,0-0.1,0-0.2c0.1-0.1,0.2-0.1,0.1-0.2c0,0,0-0.1,0.1-0.1
	c0.1-0.1,0.2,0,0.2-0.2l0,0c0.2,0,0.3,0,0.5,0s0.4,0.2,0.7,0.1c0.3,0.2,0.7,0.3,0.9,0.4c-0.1-0.2-0.2-0.4-0.3-0.6l-0.1-0.1
	c-0.5,0.1-0.8-0.1-1.2-0.3c-0.3-0.1-0.6-0.2-0.8-0.4c-0.1,0-0.3-0.4-0.3-0.5l0,0c0-0.1-0.1-0.2-0.1-0.3s0.1-0.1,0.2-0.2
	c0.1-0.1,0.2-0.2,0.1-0.3l0.1-0.1c0.2,0,0.4-0.1,0.4-0.3l0.1-0.1c0.3,0.1,0.3-0.1,0.4-0.3c0-0.1,0.1-0.1,0.2-0.1
	c0.1,0.1,0.3,0,0.3,0c0,0.2,0.3,0.2,0.3,0.5c0,0.2,0.1,0.3,0.1,0.5s0,0.4,0.1,0.6c0,0.2,0,0.4,0,0.6c0,0.1,0,0.2-0.1,0.3
	c-0.1,0.2,0,0.1,0.1,0.3c0.1-0.4,0.3-0.4,0.4-0.7c0-0.1,0.1-0.1,0.1-0.2c0-0.3,0.3-0.5,0.4-0.7h0.1c0.1,0.1,0.2,0,0.3,0
	c0,0,0.1,0,0.1,0.1c0.1,0.2,0.1,0.2,0.3,0.1c0.1-0.1,0.1,0,0.1,0.1c0,0,0,0.1,0,0.2c0,0.2,0.3,0,0.3,0.2s0.1,0.2,0.2,0.3
	c0.1,0,0.2,0.1,0.1,0.2c0,0,0,0.1,0,0.2c0.2,0.1,0.1,0.2,0.1,0.3c0,0.3-0.2,0.3-0.4,0.5s-0.5,0.3-0.7,0.3c-0.3,0-0.5,0.1-0.7,0.1H17
	c0,0.1,0,0.1,0.1,0.2c0.2,0.2,0.4,0.4,0.7,0.6c0.9,0.7,1.9,1.5,2.9,2.3c0.2,0.2,0.5,0.3,0.7,0.5h0.1c0,0,0,0,0-0.1
	c-0.3-0.3-0.4-0.6-0.3-0.9c0-0.2,0-0.4,0-0.6v-0.1c0.1,0,0.2,0,0.3,0c0.1,0.1,0.3,0.1,0.4,0.1c0.2,0,0.2-0.1,0.1-0.3
	c-0.1-0.2-0.3-0.5-0.4-0.7c-0.3-0.4-0.6-0.8-0.7-1.2c-0.3-0.4-0.5-0.8-0.7-1.2c-0.3-0.4-0.5-0.7-0.7-1.1c-0.2-0.2-0.2-0.5-0.4-0.7
	c-0.2-0.2-0.3-0.5-0.5-0.7s-0.3-0.5-0.5-0.7s-0.4-0.5-0.5-0.7c-0.2-0.2-0.3-0.5-0.5-0.7c-0.3-0.3-0.6-0.7-0.8-0.9
	c-0.4-0.5-0.7-0.8-1-1.3c-0.4-0.5-0.8-1-1.2-1.5c-0.1-0.2-0.3-0.3-0.4-0.5s-0.3-0.3-0.4-0.5C13,8,13,8,12.9,7.9S12.8,7.8,12.8,8
	c-0.2,0.4-0.4,0.7-0.6,1.1c-0.1,0.2-0.3,0.5-0.4,0.7s-0.3,0.3-0.5,0.5h-0.1h-0.1c-0.1,0-0.3,0.1-0.4,0.1s-0.1,0-0.2,0
	c-0.1,0.1-0.1,0-0.2-0.1C9.8,10.1,9.7,9.9,9.5,10c0,0,0,0-0.1,0c0-0.1-0.1-0.2-0.1-0.2C9.1,9.9,9.2,9.7,9.1,9.7c0-0.1,0-0.2-0.2-0.2
	c-0.1,0-0.1,0-0.1-0.1c0.1-0.1,0-0.2-0.1-0.3c0-0.1-0.2-0.2,0-0.3s0.1-0.3,0.1-0.3c-0.1-0.1,0-0.1,0-0.2C8.9,8.2,8.9,8.1,8.9,8
	C8.8,7.9,8.9,7.9,9,7.9s0.2-0.1,0.2-0.2s0.1-0.1,0.1-0.1c0.5-0.2,0.9,0,1.4-0.1c0.4,0,0.7,0,1,0c0.1,0,0.3,0,0.4,0.1h0.1V7.5
	C12,7,11.7,6.7,11.4,6.2c0,0,0,0-0.1,0c-0.6-0.2-1-0.5-1.6-0.7C9.6,5.4,9.5,5.4,9.4,5.4C9.2,5.3,8.9,5.3,8.7,5.1C8.7,5,8.6,5,8.5,5
	S8.4,4.9,8.3,4.8C8.2,4.6,8.1,4.5,8.2,4.3V4.2c0-0.1,0-0.1,0-0.2c0-0.3,0.3-0.4,0.1-0.7c0,0,0-0.1,0.1-0.1s0.1,0,0.1-0.2l0.1-0.1
	C8.7,2.8,8.9,2.7,9,2.6c0-0.1,0.1-0.1,0.3-0.2c0.1,0,0.2,0,0.2,0C9.3,2.5,9.3,2.6,9.4,2.8l0.1,0.1c0-0.1,0-0.1,0-0.2s0-0.3,0-0.4
	c0.1-0.1,0.1-0.2,0.3-0.1h0.1c0.1,0,0.3-0.1,0.4-0.1h0.1c0.1,0,0.1,0.1,0.1,0.1c0.2-0.1,0.4,0,0.5,0.2c0,0.1,0.2,0.1,0.2,0.1
	c0.1,0.1,0,0.2,0.1,0.3c0.2,0.2,0.1,0.5,0.2,0.7c0.1,0.6,0.1,1,0.2,1.6c0,0.3,0.1,0.6,0.1,0.8c0,0.2,0.1,0.2,0.1,0.4
	c0.2,0.4,0.4,0.7,0.6,1c-0.1-0.7,0-1.4,0-2.1c0-0.3,0.1-0.6,0.2-0.8l0.1-0.1h0.1C12.8,4.1,12.8,4,13,4.2c0,0,0.1-0.1,0.2-0.1
	c0.1-0.1,0.1-0.1,0.2,0c0.1,0.1,0.2,0.1,0.2,0s0.1-0.1,0.2,0c0.2,0.1,0.3,0.3,0.5,0.3c0.1,0,0.1,0.1,0.2,0.2c0.1,0.1,0.3,0,0.3,0.3
	c0.4-0.1,0.3,0.3,0.6,0.4v0.1c0,0.1-0.1,0.2,0,0.3v0.1c-0.1,0.1-0.2,0.2-0.2,0.4c0,0,0,0.1-0.1,0.1c-0.5,0.4-1,0.8-1.6,1.1
	c-0.1,0.1-0.3,0.1-0.4,0.1c-0.2,0.1-0.3,0.3-0.2,0.5c0.3,0.4,0.6,0.7,0.8,1c0.9,1.2,2,2.3,2.9,3.6c0.6,0.7,1,1.4,1.6,2.1
	c0.1,0.1,0.2,0.3,0.3,0.4s0.2,0.3,0.3,0.5c0.1,0.1,0.2,0.3,0.3,0.4c0.1,0.2,0.2,0.3,0.3,0.5c0.2,0.4,0.5,0.7,0.7,1
	c0.1,0.1,0.1,0.1,0.2,0.1c0,0.1-0.1,0.1,0,0.3c0.1,0.1,0.2,0.3,0.3,0.4c0,0.1,0.1,0.1,0.2,0.2c-0.1,0.1,0,0.2,0.1,0.2
	c0.1,0.3,0.3,0.4,0.4,0.7c0,0.1,0.1,0.2,0.2,0.3c0-0.1,0-0.2-0.1-0.4c0-0.2-0.1-0.3,0.1-0.4c0,0,0,0,0.1-0.1c0-0.2,0.2-0.3,0.4-0.4
	c0.1-0.1,0.2-0.2,0.4-0.2c0.1,0,0.2-0.1,0.3-0.2c0.1-0.1,0.1-0.1,0.2-0.1H23c0.3-0.1,0.5,0,0.7,0s0.3,0,0.4,0.1s0.3,0.3,0.5,0.3
	l0.1,0.1c0.1,0.1,0.1,0.1,0.2,0.2c0.2,0.1,0.3,0.3,0.3,0.5c0,0.3,0.1,0.7,0.2,0.9v0.1c-0.1,0.1,0,0.2,0,0.3c0.1,0.1,0.1,0.2,0,0.3
	c-0.1,0.1-0.2,0.1-0.1,0.3c0,0.1-0.2,0.2-0.3,0.1c-0.2,0-0.4-0.1-0.6-0.1s-0.4,0-0.5,0c-0.3,0.1-0.5,0-0.7-0.1c-0.1,0-0.1,0-0.2-0.1
	c0,0.1,0,0.2,0,0.3c0.1,0.4,0.3,0.7,0.5,1c0.6,0.9,1.2,1.9,1.9,2.7c0.2,0.2,0.3,0.4,0.5,0.6c0.1,0.1,0.2,0.2,0.3,0.3
	c0.1,0.1,0.2,0.2,0.3,0.3s0.2,0.2,0.3,0.4c0.2,0.3,0.6,0.4,0.8,0.6c-0.1-0.2,0.1,0.2,0.3,0.3c0,0,0,0,0.1,0.1v-0.1
	c0-0.2-0.1-0.3-0.1-0.5c0,0,0,0,0.1,0c0.1,0.2,0.2,0.5,0.2,0.7c0.1,0.2,0.1,0.3,0.2,0.5c0,0,0,0,0,0.1c0,0,0,0,0.1-0.1
	c0.1-0.2,0.1-0.4,0-0.6c-0.1-0.6-0.3-1.1-0.4-1.6c-0.1-0.3-0.2-0.7-0.2-0.9c0-0.4,0.2-0.6,0.5-0.7s0.7-0.1,0.8,0.2
	c0.1,0.1,0.1,0.3,0.2,0.4c0,0.1,0,0.3,0,0.5v0.1c0.1,0.6-0.2,1-0.3,1.6v0.1c-0.3,0.7-0.1,1.1,0.2,1.7c0.3,0.5,0.7,0.8,1,1.1
	c-0.4-0.3-0.1,0.2-0.7-0.3c-0.4-0.3-0.7-0.7-1-0.9C28,28.3,27.5,28,26.8,28c-0.1,0-0.2,0-0.3,0.2c-0.2,0.4-0.4,0.7-0.7,0.9
	c-0.2,0.1-0.4,0.2-0.5,0.4c0,0-0.3-0.1-0.2-0.1l0,0c0-0.1,0-0.3,0-0.4c0.2-0.3,0.4-0.7,0.7-0.9c0.3-0.3,0.6-0.4,0.9-0.3
	c0.2,0,0.4,0.1,0.6,0.1c-0.2-0.2-0.4-0.3-0.7-0.4c-0.2-0.1-0.3-0.1-0.5-0.2c0,0,0,0,0-0.1c0,0,0,0,0.1,0c0.2,0.1,0.4,0.2,0.6,0.2
	c-0.2-0.1-0.3-0.2-0.5-0.3c-0.3-0.2-0.6-0.3-0.9-0.3c0,0,0,0-0.1,0v-0.1h0.1c0,0,0.1,0,0.1-0.1c0,0,0-0.1-0.1-0.1
	c-0.2-0.1-0.4-0.1-0.5-0.2c-0.1,0-0.3-0.1-0.4-0.2c-0.7-0.2-1.2-0.5-1.9-0.7c-0.5-0.2-1-0.4-1.5-0.5c-0.2,0-0.4-0.1-0.6-0.1
	S20.4,25,20.2,25c-0.3-0.1-0.6-0.1-0.8-0.2c-0.2-0.1-0.5-0.1-0.7-0.2c-0.1,0-0.1,0-0.2,0c-0.3-0.1-0.7-0.1-0.9-0.2
	c-0.1,0-0.3-0.1-0.4-0.1c-0.2,0-0.3,0-0.5-0.1c-0.2,0-0.3,0-0.5-0.1c-0.2,0-0.3,0-0.5,0c-1.1-0.1-2.3-0.1-3.5-0.2
	c-0.7,0-1.3,0-2,0.1c-0.7,0-1.3,0.1-2,0.1c-0.4,0-0.8,0-1.2,0.1c-0.1,0-0.3,0.3-0.2,0.4c0.4,0.6,0.5,1.2,0.7,1.9l0,0
	c-0.1,0.2-0.1,0.4-0.2,0.6l0,0c-0.2,0-0.2,0.1-0.3,0.3c0,0.1-0.1,0.1-0.1,0c-0.1-0.1-0.3,0-0.3,0.1c-0.1,0.1-0.1,0.1-0.2,0
	s-0.3-0.1-0.5-0.2c0,0,0,0.1,0,0c0,0.1-0.2,0-0.3,0c-0.1,0-0.1,0-0.2-0.1c0-0.1-0.1-0.3-0.3-0.3L5,26.8c0-0.1,0.1-0.3-0.1-0.3v-0.1
	c0-0.1,0.2-0.2,0-0.3V26c0.5-0.6,0.8-1,1.4-1.5c0.2,0,0.3-0.1,0.4-0.2c-0.3,0-0.7,0.1-0.9,0.1c-0.2,0-0.3,0.1-0.5,0.2
	C4.9,25,4.4,25.3,4,25.8C3.9,25.9,3.8,26,3.7,26c-0.1,0.1-0.2,0.2-0.4,0.1l0,0c-0.1,0-0.3,0.2-0.3,0.1c-0.1-0.1-0.2-0.1-0.3-0.1l0,0
	c0-0.2-0.2-0.2-0.3-0.3c0,0,0,0,0-0.1c0.1-0.2-0.1-0.2-0.1-0.3c-0.1-0.1-0.1-0.3-0.2-0.3V25c0-0.2,0.2-0.4-0.1-0.5l0,0
	c0.2-0.1,0.1-0.3,0.1-0.4c0-0.2-0.1-0.3,0.1-0.4c0,0,0-0.2,0-0.3c0-0.1,0.1-0.1,0.1-0.2s0-0.1,0.1-0.2c0.1,0,0.1-0.1,0.2-0.1
	c0.1-0.2,0.2-0.2,0.4-0.2l0,0c0.1-0.2,0.3-0.1,0.4,0c0.7,0.3,1.4,0.7,2.1,1.1C5.7,24,5.9,24,6.2,24c0.3,0,0.7-0.1,0.9-0.1
	c-0.5,0-0.7-0.4-1-0.6L6,23.2c-0.4-0.2-0.7-0.6-0.9-0.8c-0.1,0-0.1-0.1,0-0.2c0,0-0.2-0.2,0-0.2c0.1,0,0.1-0.1,0.1-0.2
	c-0.1-0.2,0-0.2,0.2-0.3c0.1,0,0.1-0.1,0.2-0.1s0.2,0,0.2-0.2l0.1-0.1c0.1,0.1,0.2,0.1,0.3,0c0.1-0.1,0.3,0,0.4-0.2l0,0.1
	c0.1,0,0.2,0.1,0.3,0C7,20.9,7,21,7,21c0.1,0.1,0.1,0.2,0.3,0.1c0,0,0.1,0,0.1,0.1c-0.1,0.2-0.1,0.4,0.1,0.4v0.1
	c0.1,0.7,0,1.2-0.2,1.8c0,0.1-0.3,0.2-0.4,0.4C6.8,24,7.2,24,7.3,24c0.3,0,0.5,0,0.7,0c1.2-0.1,2.4-0.1,3.6-0.2c0.5,0,1,0.1,1.5,0.1
	c0.2,0,0.4,0,0.5,0.1c0.1,0,0.7,0,0.9,0c0.4,0,0.7,0.1,1,0.1s0.7,0.1,1,0.1s0.8,0.1,1.2,0.1c0.4,0.1,0.8,0.2,1.2,0.3
	c0.4,0.1,0.7,0.1,1,0.2c0.1,0,0.2,0.1,0.3,0.1c0.1,0,0.2,0.1,0.3,0.1s0.2,0,0.2,0c0.1,0.1,0.2,0,0.3,0.1c0.1,0,0.2,0.1,0.3,0.2
	c0.5,0.2,0.9,0.3,1.4,0.5c0.2,0.1,0.5,0.1,0.7,0.2c0.3,0.2,0.7,0.2,0.9,0.4c0.1,0,0.2,0.1,0.3,0L24.5,26c-0.3-0.2-0.5-0.4-0.7-0.7
	c-0.2-0.2-0.4-0.4-0.4-0.4c-0.1-0.1-0.1-0.2-0.3-0.2c-0.1,0-0.2-0.1-0.3-0.2c-0.1-0.1-0.2-0.2-0.3-0.1c-0.1,0-0.1-0.1-0.2-0.2
	S22.1,24,22,24c-0.1,0.1-0.1-0.2-0.2-0.1c-0.1-0.3-0.3-0.3-0.5-0.4c-0.2-0.2-0.5-0.3-0.7-0.4c-0.1-0.1-0.4-0.2-0.4-0.2
	c-0.1,0.1-0.1,0-0.2-0.1c-0.3-0.2-0.6-0.4-0.8-0.5h-0.1c-0.1,0-0.1,0-0.1-0.1c0,0,0-0.1-0.1-0.1c-0.3-0.1-0.6-0.3-0.8-0.4
	c-0.2-0.1-0.3-0.2-0.4-0.2c-0.2-0.1-0.4-0.1-0.5-0.2c-0.1,0-0.2,0-0.2,0c-0.1,0-0.1-0.1-0.2-0.1c-0.2-0.1-0.5-0.2-0.7-0.3
	C16.2,21,16,21,15.8,21c-0.1,0-0.2-0.1-0.4-0.2c-0.1-0.1-0.3-0.1-0.4-0.2c-0.7-0.3-1.5-0.6-2.2-0.8c-0.4-0.1-0.7-0.3-1.1-0.4
	c-0.2-0.1-0.3-0.1-0.5-0.2c-0.1,0-0.1-0.1-0.1-0.1H11c0,0,0,0-0.1,0s-0.1-0.1-0.3-0.2c-0.2,0-0.4-0.1-0.6-0.2
	c-0.2-0.1-0.4,0-0.5-0.3c-0.2,0-0.3-0.2-0.6-0.2c-0.1,0-0.4-0.1-0.4-0.3c-0.3-0.1-0.5-0.4-0.8-0.4c-0.1,0-0.2,0.1-0.2,0.2
	c-0.1,0.4-0.4,0.7-0.6,1c-0.1,0.2-0.2,0.4-0.4,0.6c-0.1,0.1-0.2,0.2-0.3,0.3c-0.1,0.1-0.1,0.1-0.3,0.1c-0.1,0-0.3,0.1-0.4,0.2
	c-0.1,0-0.1,0.1-0.2,0c0,0-0.1,0-0.2,0s0,0.1-0.1-0.1c0.2,0,0.2-0.1,0.1-0.1l0,0c-0.2,0-0.3,0-0.3-0.3l0,0c-0.3,0.1-0.2-0.2-0.2-0.3
	c0-0.1-0.1-0.2-0.3-0.2H4.2v-0.1c0.1-0.1,0.1-0.3,0-0.4c0,0,0-0.2-0.1-0.2c0,0,0-0.1,0.1-0.1c0.1-0.1,0.2-0.2,0-0.3
	c-0.1-0.1,0-0.1,0-0.2c0.2-0.1,0.1-0.2,0.1-0.3v-0.1c0.3,0,0.4-0.3,0.7-0.3C5.4,17,5.6,17,6,17c0.3,0,0.5,0,0.7,0h0.1
	c0-0.1,0-0.2-0.1-0.2c-0.2,0-0.3-0.2-0.4-0.1c-0.1,0-0.2,0-0.3-0.1c-0.2-0.1-0.4-0.2-0.6-0.2c0,0,0-0.1-0.1-0.1
	c-0.2-0.1-0.5-0.2-0.7-0.3c-0.3-0.1-0.6-0.2-0.7-0.3c0-0.3-0.5-0.2-0.4-0.5c0,0,0-0.1-0.1-0.1c-0.1-0.1-0.1-0.1,0-0.2l0,0
	c0-0.1,0-0.3,0-0.4c0.2-0.1,0.2-0.2,0.2-0.4c0-0.1,0-0.1,0.1-0.2L4,14c-0.1-0.3,0.2-0.3,0.3-0.4c0.1-0.1,0.1-0.1,0.1-0.2
	s-0.1-0.2,0.1-0.1c0.2,0.1,0.2,0,0.3-0.2C4.8,13,4.9,12.9,5,13l0,0c0,0.1,0.1,0,0.2,0s0.2,0.1,0.2,0c0.1-0.1,0.1-0.1,0.2,0
	c0.1,0,0.2,0.1,0.2,0c0.1-0.2,0.2-0.1,0.3,0l0.1,0.1c0.2-0.1,0.2,0.1,0.3,0.1c0.2-0.2,0.2,0,0.2,0.2v0.1c0.2,0.2,0.1,0.5,0.2,0.7
	C7,14.7,7,15.1,7.1,15.5s0,0.7,0,1c0,0.1,0,0.1,0.1,0.2c0.2,0.1,0.4,0.2,0.6,0.3c0,0,0.1,0,0.2,0v-0.1c-0.1-0.2-0.2-0.4-0.2-0.6
	c0-0.1,0-0.2,0-0.2c0-0.1,0-0.1,0-0.2c0-0.2-0.1-0.4-0.1-0.6c0-0.1,0-0.2,0-0.3c0-0.2-0.1-0.3-0.1-0.5c0-0.1-0.1-0.2,0-0.3
	c0,0,0-0.2,0-0.3s0-0.2,0-0.2c0.2,0,0.2-0.1,0.2-0.3l0.1-0.1c0.1,0.1,0.2,0,0.2-0.1s0.1-0.1,0.2-0.1c0.1,0.1,0.2,0,0.2-0.1
	s0.1-0.1,0.2,0c0.2,0,0.3,0,0.5,0.1H9c0.1-0.1,0.2-0.2,0.2,0.1c0,0,0.1,0.1,0.2,0.1s0.2,0,0.3,0c0,0,0.1,0,0.1,0.1
	c0,0.2,0.1,0.2,0.2,0.2s0.1,0,0.1,0.1c0,0.2,0.1,0.3,0.3,0.3l0.1,0.1c0,0.1,0,0.3,0.1,0.4v0.1c-0.2,0.2-0.1,0.5-0.3,0.7
	c-0.2,0.4-0.6,0.7-0.8,0.9c-0.3,0.4-0.7,0.6-0.9,0.7c0,0-0.1,0.1,0,0.1c0.1,0.1,0.1,0.3,0.3,0.4c0.1,0,0.2,0.1,0.2,0.1
	c0.5,0.4,1.1,0.6,1.6,0.9c0.1,0.1,0.2-0.1,0.3,0c0,0.2,0.2,0.1,0.3,0.1c0.2,0.1,0.4,0.2,0.7,0.3c0.5,0.2,0.9,0.4,1.5,0.6
	c0.1,0.1,0.3,0,0.4,0.2c0.1,0.1,0.3,0.1,0.4,0.1L14.8,19.9z M23.8,23.9c-0.2-0.4-0.5-0.7-0.7-0.9c-0.3-0.5-0.6-0.9-0.8-1.4h-0.1v0.1
	c0,0,0.1,0,0.1,0.1c0.1,0.2,0.3,0.3,0.2,0.5c0,0.3,0.2,0.5,0.3,0.7c0.1,0.3,0.4,0.6,0.6,0.7C23.5,23.8,23.6,23.9,23.8,23.9z
	 M21.7,22.3c0,0.1,0,0.1,0,0.2c0.1,0.1,0.1,0.2,0.2,0.3c0.1,0.1,0.4,0.2,0.4,0.2v-0.1c-0.1-0.2-0.1-0.3-0.2-0.5c0-0.2,0-0.2-0.2-0.1
	H21.7L21.7,22.3z M22.4,21.3C22.4,21.3,22.5,21.2,22.4,21.3c0-0.2-0.1-0.4-0.1-0.6c-0.1-0.3-0.3-0.5-0.5-0.7h-0.1v0.1l0.1,0.1
	C22,20.6,22.2,21,22.4,21.3z M24.5,24.5C24.5,24.5,24.4,24.5,24.5,24.5c0.1,0.2,0.2,0.3,0.2,0.5c0,0.1,0.1,0.2,0.2,0.2
	c0,0,0.1,0.1,0.1,0v-0.1C24.8,24.8,24.6,24.6,24.5,24.5z M24.5,25.5C24.5,25.4,24.5,25.4,24.5,25.5c-0.2-0.2-0.4-0.3-0.4-0.3
	c-0.1,0-0.1-0.1-0.1-0.1v0.1C24.1,25.3,24.3,25.4,24.5,25.5C24.4,25.6,24.4,25.5,24.5,25.5z"/>
</svg>
