<?xml version="1.0" encoding="utf-8"?>
<!-- Generator: Adobe Illustrator 27.6.1, SVG Export Plug-In . SVG Version: 6.00 Build 0)  -->
<svg version="1.1" id="tomato" xmlns="http://www.w3.org/2000/svg" xmlns:xlink="http://www.w3.org/1999/xlink" x="0px" y="0px"
	 viewBox="0 0 32 32" style="enable-background:new 0 0 32 32;" xml:space="preserve">
<g>
	<path d="M12.975,10.711c0.302,0.181,0.605,0.363,0.907,0.605c1.391,0.06,2.903,0.181,3.629-0.726
		c0.423-0.302,0.726-0.544,1.089-0.847h0.06c0.968-0.06,1.573,0.121,2.54,0.484c4.839,2.359,4.597,10.585-1.452,13.065
		c-0.484,0.181-1.028,0.423-1.452,0.484c-1.512,0.181-3.266,0.181-4.779-0.121c-4.839-1.028-7.561-7.319-4.234-11.009
		C10.011,11.739,11.281,11.074,12.975,10.711L12.975,10.711z"/>
	<path d="M18.66,8.715c-0.302,0.302-0.786,0.484-1.391,0.665c0.06-0.121,0.121-0.302,0.121-0.423l0,0
		c0.181-0.121,0.423-0.242,0.605-0.302c-0.06,0-0.121,0-0.121,0c-0.181,0-0.302,0.06-0.423,0.06
		c0.121-0.423,0.242-0.907,0.363-1.331c0.181,1.21,0.423,1.21,0.665,0.847C17.935,8.533,18.177,6.9,17.874,6.9l0,0l0,0
		c-0.423,0.907-0.968,2.057-1.875,3.085l0,0l0,0c-0.181-0.726-0.363-1.391-0.786-2.238c-0.121-0.121-0.726-0.181-0.786,0.121
		c0.181,0.363,0.242,0.968,0.242,1.815c-0.544-0.242-1.573-0.484-1.452,0.06c-0.121,0-0.302-0.06-0.423-0.06
		c-1.331-0.302-2.661-0.665-3.629,1.028c-0.06,0-0.181,0.06-0.242,0.121c0.06-0.06,0.121-0.06,0.242-0.06
		c-0.121,0.242-0.302,0.605-0.423,0.968c0.242-0.423,0.484-0.786,0.726-1.089c2.964-1.149,3.508-0.484,4.416,0.181
		c1.331,0.06,2.722,0.181,3.508-0.665c0.605-0.363,0.907-0.786,1.391-1.149C18.781,8.836,18.721,8.775,18.66,8.715z"/>
</g>
</svg>
