<?xml version="1.0" encoding="utf-8"?>
<!-- Generator: Adobe Illustrator 27.6.1, SVG Export Plug-In . SVG Version: 6.00 Build 0)  -->
<svg version="1.1" id="barley" xmlns="http://www.w3.org/2000/svg" xmlns:xlink="http://www.w3.org/1999/xlink" x="0px" y="0px"
	 viewBox="0 0 32 32" style="enable-background:new 0 0 32 32;" xml:space="preserve">
<path d="M21.661,24.564c0.097,0.584,0.973,1.654,0.973,1.654s0-0.779,0.292-1.46c0.195-0.487,0.389-0.876,0.097-1.654
	c-0.292-0.779-1.071-1.752-1.071-1.752s0.195,0.584,0,1.168C21.661,23.202,21.563,23.883,21.661,24.564z M21.953,26.024
	l-0.389-0.292c0,0-0.779-1.168-1.946-1.265c-1.071-0.195-0.973,0-2.238,0.195c-0.779,0.097-1.654-0.097-1.654-0.097
	s1.946,1.946,2.628,1.946c0.681,0,1.168-0.487,2.141-0.389C21.077,26.024,21.953,26.024,21.953,26.024z M19.325,22.229
	c0.292,0.973,1.752,2.238,1.752,2.238s-0.097-0.779,0-1.557c0.097-0.779,0.292-1.265,0.195-2.044
	c-0.195-0.779-1.946-3.309-1.654-2.628c0.292,0.584,0.097,0.779,0,1.849C19.422,21.061,19.033,21.256,19.325,22.229z M19.325,23.591
	c0,0-0.779-1.265-2.044-1.752c-1.168-0.487-1.46-0.195-2.044,0c-1.362,0.292-2.53-0.292-2.53-0.292s1.849,1.946,2.628,2.238
	c0.779,0.292,2.141,0.195,2.725,0.097C18.644,23.689,19.325,23.591,19.325,23.591z M12.902,21.061
	c0.973,0.389,2.336-0.097,2.725-0.195c0.389-0.097,0.584-0.195,0.584-0.195s-0.779-1.168-1.752-1.46
	c-1.071-0.292-1.265,0.097-2.336,0.195c-0.389,0-0.876-0.097-1.362-0.195c-2.433-1.557-4.379-4.477-4.379-4.477
	c-0.097-0.097-0.195-0.097-0.292,0c-0.097,0.097-0.097,0.195,0,0.292s2.725,3.795,5.45,5.255
	C12.026,20.574,12.61,20.964,12.902,21.061z M10.858,18.336c0.876,0.389,2.53,0.097,2.53,0.097l0.681-0.097
	c0,0-0.292-1.362-1.557-1.752s-1.557-0.195-2.433-0.389c-0.487,0-0.973-0.292-1.265-0.389c-2.433-2.238-4.282-5.352-4.282-5.45
	c-0.097-0.097-0.195-0.097-0.292,0c-0.097,0-0.195,0.097-0.097,0.195c0.195,0.292,3.211,5.061,6.228,7.299
	C10.566,18.141,10.761,18.239,10.858,18.336z M9.496,15.416c0.681,0.389,2.628,0.389,2.628,0.389s-0.292-1.265-1.362-2.044
	c-0.876-0.681-2.725-0.876-3.211-0.876c-2.044-2.238-4.185-6.228-4.282-6.326c0-0.097-0.097-0.097-0.195-0.097
	c0,0.097-0.097,0.195,0,0.292c0.097,0.195,2.725,5.061,5.061,7.104C8.523,14.443,9.107,15.222,9.496,15.416z M8.62,12.205
	c0,0,0.681-0.973,0.292-1.752c-0.195-0.487-1.46-1.362-2.141-1.752c-1.946-2.53-3.698-7.007-3.795-7.104
	C3.073,1.5,2.976,1.5,2.878,1.5C2.781,1.597,2.684,1.695,2.781,1.792c0,0.097,1.849,4.087,3.698,6.812
	c0.097,0.584,0.292,1.946,0.487,2.336C7.16,11.329,7.452,11.913,8.62,12.205z M27.111,29.333c-0.779-0.389-2.725-1.849-2.822-2.141
	c-0.195-0.292,0.389-1.168,0.389-1.849s-0.779-2.141-0.779-2.141s-0.195,0.681-0.292,0.973c-0.097,0.389-0.292,1.168-0.292,1.557
	s0.292,1.07,0.292,1.07s-1.168-0.292-1.557-0.389c-0.779-0.097-2.92,0.195-2.92,0.195c1.654,1.46,2.92,1.265,3.503,1.168
	c0.584,0,1.168-0.584,1.362-0.487s1.362,1.46,2.044,2.044c0.681,0.584,2.628,1.46,3.017,1.07s0.097-1.07,0.097-1.07
	S27.792,29.722,27.111,29.333z M9.788,9.675c0,0.292,0,0.779-0.097,0.973c0,0.681-0.681,1.849-0.195,1.946
	c0.779,0.195,1.654,0.876,1.654,0.876s0.584-1.071,0.389-1.849c-0.097-0.487-0.876-1.362-1.362-1.849
	C8.62,6.171,5.798,3.641,5.798,3.641c-0.097-0.097-0.195-0.097-0.292,0c-0.097,0.097-0.097,0.195,0,0.292
	C5.603,3.933,8.425,6.561,9.788,9.675z M12.707,11.718c-0.097,0.681-0.779,1.557-0.681,2.336c0,0.876,1.265,2.141,1.265,2.141
	s0.389-0.487,0.487-0.973c0.195-0.584,0.097-1.168-0.097-1.849c-0.195-0.584-0.487-1.071-0.681-1.46
	c-0.876-2.628-3.114-5.644-3.211-5.839c-0.097-0.097-0.195-0.097-0.292,0C9.4,6.074,9.4,6.171,9.4,6.269
	C9.593,6.366,11.734,9.285,12.707,11.718z M14.946,13.47c0,0.292-0.097,0.779-0.195,1.265c-0.195,0.584-0.584,1.168-0.487,2.044
	c0.097,0.876,1.362,2.044,1.362,2.044s0.487-0.779,0.779-1.557c0.389-0.876-0.195-1.557-0.584-2.336
	c-0.195-0.292-0.292-0.584-0.389-0.779c-0.779-2.822-2.141-4.866-2.141-4.963c-0.097-0.097-0.195-0.097-0.292-0.097
	c-0.097,0.097-0.097,0.195-0.097,0.292C12.999,9.383,14.167,10.745,14.946,13.47z M17.573,16.098c0,0.389,0,0.779-0.097,0.973
	c-0.195,0.779-0.779,1.362-0.779,2.433c0,1.071,1.46,1.849,1.557,1.946l0.195,0.097c0,0,0-0.389,0.097-0.876
	c0.195-0.779,0.584-1.557,0.487-2.433c-0.097-0.876-1.265-2.822-1.362-3.017c-0.681-1.46-1.46-2.822-1.46-2.92
	c-0.097-0.097-0.195-0.097-0.292-0.097c-0.097,0.097-0.097,0.195-0.097,0.292C15.724,12.497,16.892,14.346,17.573,16.098z"/>
</svg>
