<?xml version="1.0" encoding="utf-8"?>
<!-- Generator: Adobe Illustrator 25.4.1, SVG Export Plug-In . SVG Version: 6.00 Build 0)  -->
<svg version="1.1" id="hordeum_x5F_vulgare" xmlns="http://www.w3.org/2000/svg" xmlns:xlink="http://www.w3.org/1999/xlink"
	 x="0px" y="0px" viewBox="0 0 32 32" style="enable-background:new 0 0 32 32;" xml:space="preserve">
<path d="M1.8,3.6C2,3.8,2.1,4,2.3,4.2C2.6,4.4,2.9,4.7,3.2,5C3.6,5.3,4,5.7,4.3,6c0.4,0.4,0.9,0.7,1.3,1c0.6,0.4,1.1,0.8,1.7,1.2
	c0.1,0,0.1,0,0.2,0.1C7.4,8,7.2,7.8,7,7.7C6.5,7.4,6.1,7.1,5.6,6.8C5.1,6.4,4.6,6,4.1,5.6C4,5.5,3.8,5.4,3.7,5.3c0,0,0,0,0,0
	c0.3,0.2,0.5,0.4,0.8,0.6c1,0.7,1.9,1.3,2.9,2c0.1,0.1,0.2,0.1,0.3,0.1c0.3,0,0.6,0,0.9-0.1c0,0,0,0,0-0.1C6.3,6.6,4.1,5.2,2,3.7
	c1.3,0.8,2.5,1.6,3.8,2.4c1.3,0.8,2.6,1.5,3.9,2.2c0-0.1-0.1-0.2-0.1-0.2C9.4,7.7,9.3,7.4,9.1,7.1C8.7,6.5,8.3,5.9,7.8,5.2
	C7,4.1,6.2,3,5.3,1.9C5.2,1.8,5.1,1.6,5,1.5c0,0,0,0,0,0c1.1,1.4,2.2,2.7,3.2,4.1c0.6,0.8,1.1,1.6,1.5,2.5c0,0,0.1,0.1,0.1,0.1
	c0.3,0,0.6,0.1,0.9,0.2c0.2,0.1,0.4,0.2,0.6,0.3C10.9,7.8,10,7,9.3,6.2c0.5,0.4,1.1,0.9,1.5,1.5c0.7,0.9,1.2,1.8,1.6,2.9
	c0,0.1,0.1,0.2,0.2,0.2c-0.1-0.2-0.2-0.4-0.2-0.7c0-0.3-0.1-0.6,0.2-0.8c-0.4-0.5-0.7-1-1.1-1.6c0.2,0.2,0.3,0.4,0.5,0.6
	c0.2,0.3,0.4,0.6,0.6,0.9c0,0.1,0.1,0.1,0.2,0.1c0.2,0,0.3,0,0.4,0.1c0.1,0,0.1,0.1,0.2,0.1c0,0,0,0,0,0c-0.2-0.3-0.4-0.6-0.7-0.9
	c-0.7-1-1.5-2-2.2-3.1C9.7,4.1,8.8,2.8,7.9,1.5C7.8,1.4,7.7,1.2,7.5,1c0,0,0.1,0,0.1,0C8.3,2,9.1,3,9.8,4c0.7,0.9,1.3,1.9,2,2.9
	c0.6,0.9,1.2,1.7,1.9,2.6c0.2,0.2,0.4,0.3,0.6,0.5c0,0,0,0,0.1-0.1c-0.9-1.8-2.1-3.3-3.3-4.9c0.9,1,1.6,2.1,2.3,3.1
	c0.7,1.1,1.3,2.2,1.8,3.4c0.1-0.2,0.2-0.4,0.3-0.5c0.2-0.1,0.4,0,0.6-0.1c-0.7-1.4-1.7-2.6-2.6-3.9c0.1,0.1,0.2,0.2,0.2,0.2
	c0.3,0.4,0.6,0.8,0.9,1.2c0.4,0.6,0.8,1.2,1.2,1.8c0.1,0.2,0.2,0.4,0.4,0.4c0,0,0.1,0,0.1,0c0.3,0.2,0.5,0.4,0.8,0.6
	c0.1,0,0.1,0.1,0.2,0.2c0,0,0,0,0.1,0c-0.2-0.4-0.5-0.9-0.7-1.3c-0.3-0.4-0.6-0.9-0.8-1.3c-0.3-0.4-0.6-0.8-0.9-1.2
	c0.1,0,0.1,0.1,0.1,0.1c0.4,0.5,0.8,1.1,1.2,1.6c0.7,1,1.3,2,1.6,3.1c0,0.1,0.1,0.2,0.1,0.3c0,0,0-0.1,0.1-0.1
	c0.2-0.3,0.3-0.3,0.6-0.2c0.2,0.1,0.5,0.3,0.7,0.5c0.1,0.1,0.2,0.2,0.3,0.2c0,0,0,0,0,0c-0.3-0.7-0.7-1.4-1.1-2.1
	c-0.4-0.7-0.8-1.3-1.3-2c-0.4-0.7-0.9-1.3-1.4-1.9c-0.5-0.6-1-1.2-1.5-1.8c0,0,0,0,0,0c0.8,0.8,1.5,1.5,2.1,2.4
	c0.4,0.6,0.8,1.1,1.2,1.7c0.6,0.9,1.2,1.9,1.8,2.8c0.1,0.2,0.3,0.4,0.4,0.7c0,0,0,0,0.1,0c-0.1-0.3-0.1-0.6-0.2-0.9
	c-0.5-1.3-1.3-2.3-2.2-3.3c-0.2-0.2-0.4-0.5-0.6-0.7c0,0,0,0,0,0C16.8,7.9,16.9,8,17,8.1c0.4,0.5,0.8,0.9,1.2,1.4
	c0.4,0.5,0.7,0.9,1,1.4c0.3,0.6,0.6,1.2,0.6,1.8c0,0.4,0.1,0.9,0.2,1.3c0,0.1,0.1,0.1,0.1,0.2c0.1,0.1,0.3,0.2,0.4,0.4
	c0.1,0.1,0.2,0.2,0.3,0.4c0-0.2,0.1-0.3,0.1-0.5c0.1-0.2,0-0.3-0.1-0.5c-0.1-0.2-0.2-0.4-0.4-0.6c0.1,0,0.1,0.1,0.1,0.1
	c0.1,0.2,0.2,0.4,0.4,0.6c0,0,0.1,0.1,0.1,0.1c0.1,0,0.2-0.1,0.4-0.1c-0.6-1-1.3-2-2-2.9c0.1,0,0.1,0.1,0.1,0.1
	c0.4,0.6,0.9,1.1,1.3,1.7c0.4,0.6,0.8,1.2,1.2,1.7c0,0,0,0.1,0,0.1c0,0,0.1,0,0.1-0.1c-0.5-1.7-1.5-3.1-2.4-4.6c0,0,0,0,0.1,0
	c0,0.1,0.1,0.1,0.1,0.2c0.5,0.6,0.9,1.3,1.3,2c0.5,0.9,0.9,1.8,1.1,2.7c0.1,0.4,0.2,0.8,0.2,1.2c0,0.1,0,0.2,0.1,0.2
	c0.4,0.4,0.7,0.9,0.9,1.4c0,0,0,0.1,0.1,0.1c0.1-0.2,0.2-0.5,0.3-0.7c0.1-0.1,0.1-0.2,0-0.3c-0.4-1.1-1-2.1-1.6-3.1
	c-0.2-0.3-0.3-0.5-0.5-0.8c0,0,0,0,0,0c0.8,1.3,1.7,2.6,2.2,4c0.1,0,0.2-0.1,0.3-0.1c0.1,0,0.1-0.1,0.1-0.2
	c-0.2-0.7-0.3-1.4-0.6-2.1c-0.3-0.6-0.6-1.2-0.9-1.8c-0.1-0.3-0.3-0.6-0.5-0.8c0.2,0.2,0.3,0.4,0.4,0.6c0.3,0.5,0.5,1,0.8,1.4
	c0.2,0.4,0.4,0.8,0.6,1.2c0.1,0.2,0.2,0.5,0.3,0.7c0.2,0.4,0.4,0.9,0.4,1.4c0,0.3,0.1,0.5,0.1,0.8c0,0.3,0.1,0.6,0.1,0.9
	c-0.1,0.8-0.3,1.5-1.1,1.9c0,0-0.1,0.1,0,0.1c0.1,0.2,0.2,0.4,0.3,0.6c0.4,0.5,0.8,0.9,1.1,1.4c0.8,1,1.5,2.1,2.2,3.1
	c0.5,0.7,1,1.5,1.4,2.2c0.5,0.8,0.9,1.6,1.3,2.3c-0.3,0-0.6,0-0.9,0c-0.9-1.7-1.9-3.4-3.1-5c-0.9-1.3-1.8-2.5-2.8-3.6
	c-0.2-0.3-0.2-0.3-0.5-0.1c-0.5,0.3-1,0.5-1.5,0.4c-0.5-0.1-1-0.3-1.4-0.6c-0.3-0.2-0.5-0.5-0.7-0.9c-0.1-0.1,0-0.2,0.1-0.3
	c0.1-0.1,0.1-0.1,0.2-0.2c-0.1,0-0.1,0-0.2,0c-0.3-0.1-0.6-0.1-0.9-0.2c-0.6-0.2-1.1-0.5-1.3-1.2c-0.4-0.1-0.8-0.2-1.1-0.3
	c0,0,0.1,0,0.1,0c0.3,0.1,0.6,0.1,0.9,0.2c0.1,0,0.2,0,0.2,0c0.1-0.1,0.2-0.2,0.3-0.3c-0.2,0-0.4,0-0.6,0c-0.7-0.1-1.3-0.4-1.8-1
	c0,0-0.1-0.1-0.2-0.1c-0.3-0.1-0.7-0.2-1-0.4c-0.4-0.2-0.8-0.3-1.2-0.5c0,0,0,0,0,0c0.2,0.1,0.3,0.1,0.5,0.2
	c0.5,0.2,1.1,0.4,1.6,0.6c0.2,0.1,0.2,0.1,0.3-0.1c0-0.1,0.1-0.2,0.1-0.2c0,0,0.1-0.1,0.1-0.2c-0.2,0-0.3,0-0.4,0
	c-0.5-0.1-0.9-0.1-1.4-0.2c-0.6-0.1-1.1-0.3-1.6-0.5c-0.5-0.2-0.9-0.4-1.4-0.6c-0.5-0.3-1.1-0.5-1.6-0.8c-0.6-0.3-1.2-0.6-1.8-0.9
	c-0.2-0.1-0.4-0.2-0.5-0.3c0.6,0.2,1.1,0.5,1.7,0.8c1,0.5,2.1,1.1,3.2,1.4c0.4,0.1,0.9,0.2,1.3,0.3c0.1,0,0.3,0.1,0.4,0.1
	c0,0,0,0,0,0.1c-0.6-0.2-1.2-0.3-1.8-0.5c0.3,0.2,0.6,0.3,1,0.4c0.5,0.1,1,0.3,1.5,0.4c0.5,0.1,1,0.1,1.5,0.2c0.2,0,0.3-0.1,0.5-0.2
	c-0.1,0-0.1,0-0.1,0c-0.8,0-1.5-0.2-2.1-0.7c-0.1-0.1-0.3-0.2-0.4-0.2c-0.2-0.1-0.4-0.1-0.7-0.2c-0.3-0.1-0.5-0.2-0.8-0.2
	c0,0,0,0,0-0.1c0.5,0.1,0.9,0.3,1.4,0.4c0-0.1-0.1-0.1-0.1-0.1c-0.1-0.2-0.2-0.3-0.2-0.5c0-0.1-0.1-0.1-0.2-0.1c-0.3,0-0.7,0-1-0.1
	c-1-0.1-1.9-0.3-2.9-0.7c-0.9-0.3-1.8-0.6-2.7-1c-1-0.4-2.1-0.9-3.1-1.4c-0.3-0.2-0.7-0.3-1-0.5c0.8,0.3,1.6,0.7,2.4,1
	C6,12.6,6.9,13,7.9,13.4c0.9,0.3,1.7,0.6,2.6,0.9c1,0.3,2,0.4,3,0.4c0,0,0.1,0,0.1,0c0.2-0.1,0.4-0.3,0.6-0.4c-0.1,0-0.2,0-0.3,0
	c-0.5,0-0.9,0-1.4,0c-0.8,0-1.6-0.3-2.4-0.6c-1-0.4-1.9-0.7-2.9-1.1c-0.2-0.1-0.3-0.2-0.5-0.2c0,0,0,0,0,0c0.1,0,0.1,0,0.2,0.1
	c1.1,0.4,2.2,0.8,3.4,1.3c0.7,0.3,1.5,0.5,2.3,0.5c0.5,0,1.1,0,1.6,0c0,0,0,0,0-0.1c-0.1,0-0.1,0-0.2-0.1c-0.3-0.1-0.6-0.2-1-0.2
	c-0.1,0-0.3-0.1-0.4-0.1l0,0c0,0-0.1-0.1-0.1-0.1c-0.5-0.3-1-0.6-1.4-1.1c0-0.1-0.1-0.1-0.2-0.1c-0.5,0-0.9,0-1.4-0.1
	c-0.7-0.1-1.4-0.3-2-0.6c-1.1-0.5-2.2-1.1-3.2-1.6C3.8,9.7,3.1,9.3,2.3,8.9c-0.1,0-0.2-0.1-0.2-0.1c0.2,0.1,0.3,0.1,0.5,0.2
	C3.3,9.3,4,9.7,4.8,10.1c0.7,0.4,1.4,0.7,2.2,1.1c1,0.5,2,0.9,3.1,1c0.4,0,0.7,0,1.1,0c0-0.1-0.1-0.2-0.1-0.3c0-0.1-0.1-0.1-0.2-0.1
	c-0.6,0-1.2-0.2-1.9-0.4c-1.1-0.4-2.3-0.7-3.4-1.2C5.4,10.1,5.2,10,5,9.9c0.1,0,0.2,0,0.2,0c0.5,0.2,1.1,0.4,1.6,0.7
	c1,0.4,2,0.7,3,0.6c0.1,0,0.1,0,0.2,0c-0.2-0.1-0.4-0.2-0.5-0.3c-0.1-0.1-0.2-0.1-0.3-0.1c-0.4-0.1-0.7-0.2-1-0.4
	C7.8,9.9,7.3,9.7,7,9.2c0,0-0.1-0.1-0.1-0.1C6.8,9,6.6,8.9,6.5,8.8c0.1,0,0.2,0.1,0.3,0.1C6.9,9,6.9,9,7,9c0,0-0.1-0.1-0.1-0.1
	C6.5,8.5,6.1,8.2,5.8,7.9c0,0,0,0,0,0C5.9,8,6,8.1,6.1,8.1C6.4,8.3,6.7,8.5,7,8.7c0.1,0,0.3,0.1,0.3,0c0.1-0.1-0.1-0.2-0.1-0.2
	C6.4,7.9,5.6,7.4,4.9,6.8C4.5,6.5,4.2,6.1,3.8,5.7C3.4,5.4,3,5,2.6,4.6C2.4,4.4,2.1,4.2,1.9,3.9C1.7,3.7,1.5,3.5,1.3,3.2
	C1.5,3.3,1.7,3.5,1.8,3.6z M25,17.5C25,17.5,25.1,17.5,25,17.5c0-0.3-0.1-0.6-0.2-0.9c0,0,0,0-0.1,0C24.8,16.9,24.8,17.2,25,17.5z
	 M22,20.2c0,0,0.1,0.1,0.1,0c0.2,0,0.3,0,0.4,0.1c0.4,0.2,0.7,0.5,1,0.9c0,0.1,0.1,0.1,0.2,0.1c0,0,0,0,0,0c0-0.1-0.1-0.2-0.1-0.2
	c-0.1-0.5-0.4-0.8-0.8-0.9c-0.2,0-0.3-0.2-0.5-0.3c0,0-0.1-0.1-0.1-0.1C22.1,20,22.1,20,22,20.1C22,20.1,22,20.2,22,20.2z M20.1,18
	c0.1,0.1,0.1,0.1,0.1,0.2c0,0,0,0.1,0.1,0.1c0.4,0.1,0.8,0.3,1.1,0.6c0,0,0,0,0.1,0c0,0,0,0,0.1,0c0-0.1,0-0.1,0-0.2
	c-0.1-0.2-0.1-0.4-0.2-0.7c0-0.1-0.1-0.2-0.2-0.2c-0.2,0-0.3,0-0.5-0.1c-0.1,0-0.1,0-0.2-0.1c-0.1-0.1-0.2-0.1-0.3-0.2
	c-0.1,0-0.2-0.1-0.3-0.1C19.9,17.7,19.9,17.8,20.1,18z M19.1,16.7c-0.1-0.1-0.1-0.2-0.1-0.2c-0.1-0.1-0.1-0.3-0.3-0.4
	c-0.1-0.2-0.3-0.3-0.4-0.4c-0.1-0.1-0.1,0-0.1,0.1c0,0.2-0.1,0.2-0.2,0.3c-0.1,0-0.1,0.1-0.2,0.1C18.2,16.4,18.6,16.5,19.1,16.7z
	 M17.5,14.9C17.5,14.9,17.6,14.9,17.5,14.9c0-0.2-0.1-0.4-0.2-0.6c-0.1-0.3-0.3-0.3-0.5-0.4c-0.2,0-0.5-0.1-0.7-0.2c0,0,0,0-0.1,0
	c0,0,0,0,0,0C16.5,14.3,17,14.5,17.5,14.9z M9.1,11.3C9.1,11.3,9.1,11.3,9.1,11.3c0.2,0.1,0.4,0.2,0.6,0.2c0.4,0.1,0.8,0.1,1.2,0.2
	c0.1,0,0.2,0,0.2-0.1c0.3-0.2,0.6-0.4,1-0.4c0,0,0,0,0-0.1c-0.1,0-0.2,0-0.3,0c-0.5,0.1-1,0.2-1.6,0.1C9.9,11.2,9.5,11.3,9.1,11.3z
	 M7.5,8.7C7.5,8.6,7.5,8.6,7.5,8.7C6.9,8.1,6.2,7.5,5.5,7C6.1,7.6,6.8,8.2,7.5,8.7z"/>
</svg>
