<?xml version="1.0" encoding="utf-8"?>
<!-- Generator: Adobe Illustrator 25.4.1, SVG Export Plug-In . SVG Version: 6.00 Build 0)  -->
<svg version="1.1" id="oryza_x5F_sativa" xmlns="http://www.w3.org/2000/svg" xmlns:xlink="http://www.w3.org/1999/xlink" x="0px"
	 y="0px" viewBox="0 0 32 32" style="enable-background:new 0 0 32 32;" xml:space="preserve">
<path d="M29.9,14l-0.7-1.2c-0.1-0.3-0.4-0.3-0.6-0.2c-0.2-0.3-0.3-0.6-0.6-0.8c0.1-0.2,0-0.4-0.1-0.6L27,10.1
	c-0.1-0.2-0.3-0.2-0.5-0.2c-0.1-0.2-0.3-0.3-0.4-0.5c0.1-0.2,0.1-0.6-0.1-0.7l-0.9-0.9c-0.1-0.1-0.2-0.1-0.3-0.2
	c0.1-0.2,0-0.5-0.2-0.6l-0.9-0.8c0-0.1-0.4-0.1-0.6,0.2c0,0.1-0.1,0.1-0.1,0.2c-0.1-0.1-0.3-0.2-0.5-0.3V5.8
	c-0.1-0.1-0.2-0.1-0.2-0.1c0.1-0.3,0-0.6-0.3-0.6l-1.1-0.6c-0.3-0.2-0.6,0-0.6,0.3c-0.3-0.1-0.6-0.2-0.8-0.3l0,0
	c0.1-0.3,0-0.6-0.3-0.7l-1.2-0.4c-0.3-0.1-0.5,0.1-0.6,0.4c0-0.3-0.2-0.5-0.5-0.5L15.9,3h-0.2c-0.1-0.2-0.3-0.4-0.5-0.4L14,2.6
	c-0.3,0-0.5,0.3-0.6,0.6c0,0.1,0,0.3,0.1,0.4h-0.1V3.4c0-0.3-0.3-0.6-0.6-0.6h-0.6V2.8c0-0.3-0.2-0.5-0.5-0.5l-1.3,0.4
	c-0.3,0-0.4,0.4-0.4,0.6c0,0.1,0,0.1,0.1,0.2H9.9V3.3C9.8,3,9.5,2.8,9.2,2.9L8,3.1c-0.3,0-0.5,0.3-0.4,0.6c0.2,0.6,0.7,0.6,0.8,0.6
	c0,0-3.7,1.1-5.2,4.5C-1.3,20,8,29.8,8,29.8s2,1,4.1-0.7c0.5-0.4-10.7-7.4-8.4-18.1C5,5.3,9.5,4.8,9.5,4.8C9.6,5,9.8,5.2,10,5.2h1.2
	c0.3,0,0.5-0.3,0.5-0.6c0.3,0.1,0.6,0.1,0.8,0.2c0.2,0.1,0.3,0.1,0.5,0.1h0.3c0.2,0.1,0.5,0.2,0.7,0.3v0.1c-0.1,0.3,0.1,0.6,0.4,0.6
	l1.2,0.4c0.2,0,0.3,0,0.4-0.1c0.2,0.1,0.3,0.2,0.5,0.3C16,6.6,16,6.9,16.2,7.1L17.1,8c0.2,0.2,0.6,0.2,0.7-0.1
	c0.1-0.1,0.1-0.1,0.1-0.2c0.1,0.1,0.2,0.1,0.2,0.1s0,0.3,0.1,0.4l0.6,1.2c0.1,0.3,0.5,0.4,0.6,0.2c0.1-0.1,0.2-0.2,0.2-0.3
	c0.1,0.1,0.1,0.2,0.1,0.3c0,0.2,0,0.5,0,0.6l0.7,1.2c0.1,0.2,0.3,0.3,0.5,0.2V12l0.6,1.3c0.1,0.3,0.4,0.4,0.6,0.3
	c0.1,0.2,0.1,0.3,0.2,0.5c-0.3,0.1-0.4,0.4-0.3,0.7l0.5,1.4c0.1,0.2,0.2,0.3,0.4,0.4c-0.1,0.1-0.2,0.3-0.1,0.6l0.4,1.4
	c0.1,0.3,0.4,0.5,0.6,0.4c0.3-0.1,0.5-0.4,0.4-0.7l-0.4-1.4c0-0.2-0.2-0.3-0.3-0.4v-0.2c0.1-0.2,0.1-0.3,0.1-0.5l-0.7-1.4
	c-0.1-0.2-0.3-0.4-0.5-0.4l-0.3-0.6c0.1-0.2,0.2-0.4,0.1-0.6l-0.6-1.2c-0.1-0.2-0.3-0.4-0.5-0.3c0-0.2,0-0.3-0.1-0.5l-0.7-1.2
	c-0.2-0.3-0.5-0.3-0.6-0.2c0,0-0.1-0.2-0.1-0.3c0-0.1,0-0.2-0.1-0.2L19,7.8c-0.1-0.3-0.5-0.4-0.6-0.2c-0.1,0-0.1,0.1-0.2,0.2
	c-0.1-0.1-0.2-0.2-0.4-0.3c0-0.1-0.1-0.2-0.1-0.2l-0.9-0.9c-0.2-0.2-0.4-0.2-0.6-0.1C16,6.2,15.8,6.1,15.7,6V5.9
	c0.1-0.3-0.1-0.6-0.4-0.6l-1-0.4c0,0,0-0.1,0.1-0.1l1,0.2c0.1,0,0.2,0.1,0.4,0.1c0,0.2,0.1,0.5,0.3,0.6l1.1,0.6
	c0.3,0.1,0.6,0,0.6-0.2c0.2,0.1,0.4,0.3,0.6,0.4c0.3,0.2,0.6,0.5,0.8,0.7l0.3,0.4c-0.1,0.2-0.1,0.5,0.1,0.6l0.8,1
	c0.1,0.2,0.4,0.2,0.6,0c0.2,0.2,0.3,0.5,0.5,0.6c-0.1,0.2-0.1,0.4,0.1,0.6l0.8,1.1c0.1,0.1,0.2,0.2,0.4,0.2c0.1,0.2,0.2,0.4,0.3,0.6
	c-0.2,0.2-0.2,0.5-0.1,0.6l0.6,1.3c0.1,0.2,0.3,0.4,0.5,0.4l0.6,1.2V16l0.3,0.8c-0.1,0-0.1,0-0.2,0.1c-0.3,0.2-0.4,0.5-0.2,0.7
	l0.6,1.3c0.1,0.1,0.1,0.2,0.2,0.2v0.4l0.4,1.1c-0.1,0-0.2-0.1-0.3,0c-0.3,0.1-0.5,0.4-0.4,0.6l0.3,1.4c0.1,0.3,0.4,0.5,0.6,0.5
	c0.3-0.1,0.5-0.4,0.4-0.6l-0.3-1.2c0.1,0.1,0.3,0.1,0.4,0c0.3-0.1,0.4-0.4,0.4-0.7l-0.4-1.4c0-0.2-0.1-0.3-0.3-0.4V18l-0.6-1.3
	c0-0.1-0.1-0.2-0.2-0.2c-0.1-0.2-0.1-0.5-0.2-0.7h0.3c0.3-0.2,0.4-0.5,0.2-0.7l-0.6-1.3c-0.1-0.2-0.3-0.3-0.5-0.3L24,12.3
	c-0.1-0.3-0.4-0.4-0.6-0.3l-0.5-0.5c0,0,0.1,0,0.1-0.1c0.2-0.2,0.3-0.6,0.1-0.8l-0.6-0.8c0.2-0.2,0.2-0.6,0-0.8L21.6,8
	c-0.2-0.2-0.5-0.2-0.6,0l-0.6-0.6c0.1-0.2,0.1-0.6-0.1-0.7l-0.8-0.8c0-0.1-0.1-0.2-0.2-0.3l-1-0.8c-0.2-0.2-0.6-0.1-0.6,0.1
	c-0.1,0.1-0.1,0.2-0.1,0.3l-1.1-0.6c-0.1-0.1-0.2-0.1-0.4,0c0.1-0.4-0.1-0.6-0.4-0.6l1.3,0.4c0.2,0,0.3-0.1,0.4-0.2h0.2l0.3,0.3
	L19,4.7c0.2,0.1,0.3,0,0.5-0.1c0.4,0.1,0.6,0.2,0.9,0.4c0,0.2,0.1,0.4,0.3,0.5L21.7,6c0.1,0,0.1,0.1,0.2,0.1c-0.1,0.2,0,0.5,0.2,0.6
	l1,0.8c0.2,0.2,0.6,0.1,0.7-0.1V7.2l0.6,0.6c0.1,0,0.2,0,0.3,0c-0.1,0.2,0,0.5,0.1,0.6l0.9,0.9c0.2,0.2,0.4,0.2,0.6,0.1
	c0.1,0.1,0.2,0.3,0.3,0.4c-0.2,0.2-0.3,0.6-0.1,0.8l0.8,1.1c0.2,0.3,0.5,0.3,0.7,0.1c0.2,0.3,0.4,0.6,0.5,0.8
	c-0.1,0.2-0.2,0.5,0,0.6l0.6,1.2c0.2,0.3,0.5,0.4,0.6,0.2C30,14.5,30.1,14.2,29.9,14z M12.4,4.6c-0.3-0.1-0.5-0.1-0.7-0.2V4.3
	c0.3,0,0.5,0,0.7,0.1V4.6z M11.4,4V3.8C11.5,3.9,11.6,4,11.8,4l0.8-0.1c0,0.1-0.1,0.2-0.2,0.3C12.1,4.1,11.8,4,11.4,4z M15.7,4
	l-1.1-0.3c-0.2,0-0.4,0.1-0.5,0.3l-1-0.1c0.2,0,0.3-0.1,0.4-0.3c0.6,0,1.3,0,1.9,0.1C15.4,3.9,15.5,4,15.7,4z"/>
</svg>
