<?xml version="1.0" encoding="utf-8"?>
<!-- Generator: Adobe Illustrator 27.6.1, SVG Export Plug-In . SVG Version: 6.00 Build 0)  -->
<svg version="1.1" id="sorghum" xmlns="http://www.w3.org/2000/svg" xmlns:xlink="http://www.w3.org/1999/xlink" x="0px" y="0px"
	 viewBox="0 0 32 32" style="enable-background:new 0 0 32 32;" xml:space="preserve">
<path d="M18.564,30.5c0-0.582,0.097-1.163,0.097-1.163c0.097,0,0.097,0.582,0.097,1.163H18.564z M11.487,27.107
	c0-1.357,0-1.648,0.097-1.357c0.097,0.194,0.097,1.26,0,1.357C11.487,27.107,11.487,27.107,11.487,27.107L11.487,27.107z
	 M14.88,30.5L14.88,30.5h-0.388c0-0.097,0-0.194,0.097-0.388c0.097-0.291,0.097-0.679,0.097-0.776s0.097-0.291,0.097-0.485
	s0.097-0.388,0.097-0.485s0.097-0.388,0.097-0.582c0.097-0.485,0.097-0.872,0.194-1.163c0-0.097,0.097-0.582,0.097-0.969
	c0-0.485,0.097-0.872,0.097-0.969s0.097-0.291,0.097-0.388s0.097-0.291,0.194-0.388c0.485-0.679,0.388-0.776-0.291-0.097
	c-0.194,0.194-0.485,0.582-0.485,0.679c0,0-0.097,0.097-0.194,0.291c-0.097,0.097-0.194,0.291-0.194,0.291
	c0,0.097-0.194,0.388-0.582,0.872c-0.194,0.194-0.388,0.485-0.485,0.776c-0.097,0.194-0.194,0.388-0.194,0.388
	s-0.097,0.097-0.097,0.291s-0.097,0.388-0.194,0.485s-0.097,0.291-0.194,0.291c0,0.097-0.097,0.097-0.097,0.194
	c0,0-0.097,0.097-0.097,0.291s0.097,0.194,0.097,0.291c-0.291,0.679-0.291,1.26-0.097,1.163c0,0,0.097,0,0.097,0.097
	c0.097,0.291,0.194,0.097,0.291-0.679c0-0.291,0.097-0.679,0.194-0.872c0.097-0.291,0.097-0.582,0.194-0.776
	c0-0.194,0.097-0.291,0.097-0.291c0.097,0,0.097,0.388,0,0.582c0,0.097-0.097,0.291-0.097,0.388c0,0.194-0.097,0.388-0.097,0.485
	c-0.097,0.776-0.194,1.163-0.097,1.357h-0.969V30.21c0-0.388,0.097-0.969,0.097-1.454c0-0.388,0-1.066,0-1.454
	c0-0.969,0-0.969-0.097-0.969c-0.194,0-0.291-0.872-0.097-0.872c0.097,0,0.097,0,0.097,0.097s0,0.097,0.097,0
	c0,0,0.097-0.194,0-0.291c0-0.194,0-0.291,0.097-0.485s0.097-0.194,0-0.291c0-0.097-0.097-0.194-0.097-0.291s0-0.097-0.097-0.194
	c-0.097,0-0.097,0.291,0,0.388c0.097,0.291-0.679,0.679-0.969,0.485c-0.194-0.097-0.291-0.097-0.291,0.097s0.097,0.194,0.194,0.097
	c0.194-0.194,0.388,1.357,0.194,2.133c-0.097,0.291-0.097,0.485,0,1.163c0,0.388,0,1.26,0,1.842h-0.291
	c0-2.036,0.097-2.52-0.194-3.684c0-0.194-0.097-0.388-0.097-0.485c0-0.194-0.097-0.582-0.194-0.872
	c-0.097-0.194-0.097-0.388,0-0.582l0.097-0.194l-0.097-0.097c-0.097-0.097-0.097-0.194-0.097-0.291
	c-0.194-0.776-0.485-1.454-0.776-1.648c-0.388-0.194-0.776-0.872-1.163-1.842c-0.679-1.648-1.066-1.939-1.26-0.872
	c0,0.097-0.097,0.194-0.097,0.291c-0.194,0.291-0.291,0.485-0.291,0.582c-0.097,0.291-0.388,0.679-0.776,1.163
	c-0.097,0.097-0.291,0.388-0.388,0.485c-0.097,0.291-0.194,0.388-0.388,1.066c-0.194,0.679-0.388,0.194-0.194-0.485
	c0.196-0.68,0.39-1.164,1.069-1.746c0.097-0.194,0.291-0.388,0.388-0.582s0.194-0.485,0.194-0.582
	c0.291-0.582,0.485-1.842,0.388-1.842s-0.582,0.097-0.679,0.194c-0.097,0.097-0.194,0.097-0.291,0.194
	c-0.097,0-0.097,0.097-0.194,0.194L5.865,18.77c0,0.097-0.097,0.388-0.097,0.776c0,0.485-0.097,0.679-0.194,1.066
	c-0.194,0.582-0.291,0.872-0.388,1.163c0,0.194-0.097,0.388-0.097,0.582c0,0.097-0.097,0.388-0.097,0.485
	c0,0.194,0,0.291-0.097,0.291s-0.194-0.291-0.097-0.485c0-0.097,0-0.388,0.097-0.582c0-0.388,0.194-1.066,0.485-1.842
	c0.097-0.097,0.097-0.291,0-0.679c0-0.582,0.097-0.872,0.291-1.163c0.097-0.097,0.097-0.194,0.097-0.194s0.097-0.097,0.194-0.194
	C6.059,17.897,6.156,17.8,6.253,17.8c0.097,0,0.291-0.097,0.388-0.097c0.194,0,0.388-0.097,0.485-0.097s0.194-0.097,0.291-0.097
	s0.291-0.097,0.485-0.194c0.776-0.388,1.454-0.194,1.842,0.388c0,0.194,0.097,0.291,0.097,0.291s0.097,0.097,0.097,0.194
	s0.194,0.291,0.194,0.388c0.097,0.097,0.097,0.291,0.194,0.388c0,0.194,0.097,0.388,0.776,1.066
	c0.291,0.388,0.388,0.291,0.388-0.485c0.097-1.357,0.194-2.327,0.388-2.617c0,0,0.097-0.291,0.097-0.582s0-0.582,0.097-0.679
	c0-0.097,0.097-0.291,0.097-0.485c0-0.194,0.097-0.291,0.097-0.388s0.097-0.194,0.097-0.194c0-0.097,0-0.194,0.097-0.194
	c0,0,0-0.097-0.097-0.097s-0.097-0.097-0.097-0.194s-0.097-0.291-0.097-0.485c-0.291-0.582,0-0.776,0.388-0.291
	c0.097,0.097,0.194,0.291,0.291,0.388c0.097,0.194,0.097,0.194,0.291,0s0.194-0.388,0-0.388c-0.097,0-0.388-0.582-0.388-0.679
	c0.097-0.194,0.485,0.291,0.485,0.582c0,0.097,0,0.097,0.097,0s0.097-0.291-0.097-0.582c-0.097-0.097-0.097-0.194-0.097-0.291
	s-0.097-0.097-0.194-0.097s-0.194,0-0.194-0.097s-0.097-0.194-0.194-0.194c-0.097-0.097-0.194-0.291-0.388-0.582
	c0-0.097-0.097-0.097-0.097-0.097s0,0.097,0.097,0.194c0,0.097,0.097,0.291,0.097,0.485c0,0.194,0.097,0.485,0.194,0.582
	s0.097,0.291,0.097,0.388c0,0.194-0.097,0.097-0.291-0.194c-0.194-0.388-0.194-0.388-0.291-0.291
	c-0.194,0.194-0.485-0.194-0.582-0.679c-0.097-0.291,0.194-0.291,0.388,0.097c0.097,0.194,0.194,0.291,0.291,0.097
	c0-0.194-0.097-0.582-0.291-0.776c-0.194-0.097-0.194-0.291-0.097-0.291c0.194,0,0.097-0.097-0.194-0.388
	c-0.485-0.388-0.582-0.582-0.388-0.776c0.097-0.194,0.194-0.194,0.388,0.097c0.388,0.485,0.388,0.194,0.097-0.388
	c-0.194-0.291-0.194-0.388-0.194-0.679c0-0.485,0.194-0.582,0.291-0.097c0.097,0.291,0.291,0.485,0.388,0.388
	s0.194-0.097,0.291,0.194s0.194,0.388,0.194,0.097s-0.194-0.582-0.388-1.163c-0.194-0.485-0.291-0.679-0.097-0.776
	c0.097-0.097,0.194,0,0.291,0.194c0.194,0.679,0.485,1.26,0.388,0.679c0-0.097,0-0.291-0.097-0.388c0-0.097-0.097-0.291-0.097-0.291
	S12.46,7.423,12.46,7.326c0-0.097-0.097-0.291-0.194-0.291c-0.097-0.097-0.097-0.194-0.097-0.388c0-0.097-0.097-0.291-0.194-0.485
	c-0.194-0.388-0.097-0.582,0.194-0.388c0.097,0.097,0.194,0.097,0.291,0.097s0.194,0,0.291,0c0.194,0.194,0.194-0.097-0.194-1.066
	c-0.194-0.679-0.194-0.872-0.097-0.872c0.097-0.097,0.194,0,0.291,0.388c0.097,0.194,0.097,0.388,0.097,0.388
	c0,0.097,0.097,0.194,0.194,0.388c0,0.194,0.097,0.194,0.194,0.291c0.194,0,0.097,0,0.097-0.582c-0.097-0.291-0.097-0.485,0-0.679
	c0-0.097,0-0.194,0-0.291c0-0.097,0-0.194,0.097-0.291c0-0.097,0.097-0.291,0.097-0.388c0-0.194,0.097-0.388,0.194-0.291
	c0.097,0,0.194,0.388,0.194,0.582c0,0.097,0.194,0.194,0.291,0.097S14.4,3.351,14.303,3.06c-0.097-0.582-0.097-0.776,0-0.872
	C14.396,2,14.493,2.097,14.59,2.581c0,0.485,0.194,0.388,0.388-0.291c0-0.097,0.097-0.291,0.194-0.388s0.194-0.194,0.194-0.291
	c0.097-0.097,0.194-0.194,0.194,0c0,0,0,0.194,0,0.291c0,0.388,0.097,0.485,0.291,0.291c0.193-0.193,0.29-0.096,0.096,0.194
	c-0.097,0.291-0.194,0.388-0.097,0.485s0.097,0.097-0.097,0.388c-0.097,0.291-0.097,0.291,0,0.388
	c0.194,0.097,0.194,0.097,0.388-0.194c0.194-0.291,0.291-0.291,0.388-0.194s-0.097,0.388-0.485,0.679s-0.582,0.679-0.485,0.872
	c0.097,0.097,0.485-0.291,0.679-0.582c0.097-0.097,0.194-0.097,0.194,0s-0.097,0.485-0.291,0.582c-0.097,0.097-0.097,0.194,0,0.291
	c0.194,0-0.194,1.163-0.485,1.163c-0.097,0-0.291,0.194-0.291,0.291s0.388,0.097,0.485-0.097c0.194-0.194,0.291-0.194,0.291-0.097
	s-0.291,0.582-0.388,0.679s-0.194,0.194-0.194,0.291s-0.097,0.388-0.194,0.485c-0.097,0.194-0.194,0.388-0.194,0.388
	s-0.097,0.194-0.194,0.388c-0.194,0.388-0.194,0.582,0,0.679s0.388-0.582,0.291-0.776c0-0.194,0.582-1.26,0.776-1.26
	c0.097,0,0.097,0.097,0,0.291c-0.097,0.097-0.097,0.097-0.097,0.194c0,0-0.097,0.194-0.194,0.291
	c-0.097,0.194-0.194,0.291-0.097,0.388c0,0.097,0,0.291,0,0.388c-0.097,0.194-0.097,0.291,0,0.388s0.097,0.097,0.097,0.194
	c-0.097,0.194,0,0.194,0.291,0c0.194-0.194,0.194-0.194,0.291-0.194s0.097,0.194-0.097,0.388c-0.097,0.097-0.194,0.388-0.194,0.776
	c0,0.291,0,0.194-0.582,0.776c-0.388,0.291-0.582,0.679-0.194,0.388c0.291-0.194,0.485-0.097,0.291,0.097
	c-0.388,0.388-0.582,0.582-0.582,0.679s0,0.194-0.097,0.291s-0.097,0.194-0.097,0.194c0,0.097,0.485,0.582,0.679,0.776
	c0,0,0.194,0.097,0.291,0.291c0.291,0.291,0.291,0.291,0.291,0.097s0.194-0.194,0.291,0c0.097,0.097,0.097,0.194,0.194,0.194
	s0.097-0.097-0.097-0.194c-0.097-0.097-0.194-0.194-0.291-0.582c-0.194-0.872-0.679-1.454-0.679-0.969
	c0,0.097-0.097,0.194-0.194,0.291c-0.194,0.194-0.388,0.194-0.194-0.097c0-0.097,0.097-0.194,0.097-0.291
	c0-0.485,0.582-0.582,0.872-0.097c0.194,0.388,0.485,0.776,0.582,0.776s0.097-0.097,0-0.194s-0.388-0.582-0.388-0.776
	c0-0.097,0.097-0.097,0.194,0c0,0.097,0.097,0.194,0.097,0.194c0.097,0,0-0.194-0.097-0.485c-0.097-0.097-0.097-0.291-0.097-0.388
	s-0.097-0.194-0.097-0.388c-0.194-0.291-0.097-0.485,0.097-0.194c0.194,0.291,0.291-0.388,0.097-0.872
	c-0.097-0.388-0.097-0.485,0.097-0.388c0.097,0.097,0.097,0,0.097-0.097s0-0.194,0.097-0.291s0.097-0.097,0-0.291
	c-0.194-0.291-0.194-0.582-0.194-0.582c0.097-0.097,0.194,0,0.194,0.097c0,0.194,0.097,0.194,0.097-0.097
	c0-0.388,0.097-0.388,0.194,0.097c0.097,0.194,0.097,0.388,0.194,0.388c0,0,0.097,0.194,0.097,0.291
	c0.097,0.679,0.194,0.872,0.291,0.776c0.097-0.097,0.097-0.194,0-0.582c-0.097-0.194-0.097-0.388-0.097-0.485
	c0-0.097,0-0.194-0.097-0.291c0-0.097-0.097-0.194-0.097-0.194s-0.097-0.291-0.194-0.485c-0.097-0.194-0.194-0.485-0.194-0.485
	c0-0.097,0-0.194-0.097-0.194c-0.194-0.291,0-0.388,0.194-0.194c0.097,0.194,0.097,0.097,0-0.194c0-0.291,0.097-0.388,0.388-0.388
	h0.194V6.071c0-0.097-0.097-0.291-0.097-0.485c-0.097-0.291-0.194-0.485-0.097-0.485s0.291,0.485,0.388,0.872
	c0,0.291,0.194,0.679,0.194,0.582c0.097,0,0-0.388-0.097-0.776c-0.194-0.485,0-0.679,0.194-0.194c0,0.097,0.097,0.194,0.097,0.194
	c0.097,0,0.097-0.194,0.097-0.872c0-0.872,0-1.066,0.194-0.872c0.194,0.291,0.194,0.291,0.291,1.066c0,0.776,0,0.776,0.097,0.776
	c0,0,0.194-0.582,0.194-0.776c0-0.291,0.388-0.776,0.485-0.582c0,0.097-0.097,0.485-0.097,0.679c0,0.097-0.097,0.097-0.097,0.194
	c0,0,0,0.097-0.097,0.194s-0.097,0.291-0.194,0.679v0.097c0,0,0.097,0,0.097-0.097c0-0.194,0.194-0.679,0.388-0.969
	c0.097-0.097,0.097-0.291,0.097-0.291c0-0.097,0-0.097,0.097-0.097s0.097,0.291,0,0.485s-0.194,0.582-0.194,0.679
	s0,0.097,0.097-0.097c0.194-0.291,0.388-0.097,0.194,0.194c0,0.097,0,0.097,0.097,0.097c0.194,0,0.194,0.291-0.097,0.582
	c-0.097,0.097-0.194,0.291-0.194,0.291s-0.097,0.097-0.097,0.194s-0.097,0.194-0.097,0.291c-0.194,0.388-0.485,0.194-0.582-0.485
	c0-0.194,0-0.485-0.097-0.485c0-0.097,0-0.097,0-0.194c0-0.194-0.291,0.291-0.291,0.485c0,0.097,0,0.097,0.097,0.194
	c0.291,0.291,0.194,0.969-0.194,1.163c-0.194,0.097-0.194,0.097-0.194,0.291c0,0.097,0,0.194-0.097,0.291s-0.097,0.194,0,0.388
	c0,0.194,0,0.291,0,0.388c-0.097,0.194,0,0.485,0.194,0.388c0.097-0.097,0.194,0,0.194,0.194c0,0.291,0.097,0.291,0.194,0.097
	c0.097-0.291,0.097-0.097,0.097,0.291c0,0.291,0,0.388,0.097,0.388s0.291-0.194,0.291-0.388s0.097-0.291,0.194-0.194
	c0,0,0,0.194,0,0.291c0,0.291,0,0.291,0.097,0.388c0.194,0.097,0.194,0.097,0.194-0.388c0-0.485,0-0.582,0.194-0.485
	c0.097,0,0.194,0.097,0.194,0c0.194,0,0.194,0.097,0.097,0.291s-0.097,0.388,0,0.388s0.291-0.388,0.388-0.582
	c0-0.194,0.194-0.291,0.291-0.291s0.097,0.388,0,0.485c0,0-0.097,0.097-0.097,0.194c0,0,0,0.097-0.097,0.194
	c0,0.097-0.097,0.194-0.097,0.291s0,0.291-0.097,0.291c0,0.097-0.194,0.291-0.194,0.485c-0.097,0.194-0.194,0.388-0.291,0.485
	s-0.194,0.291-0.291,0.388s-0.194,0.291-0.194,0.388c-0.097,0.194-0.776,2.036-0.679,2.036s0.194-0.097,0.194-0.194
	c0-0.194,0.291-0.485,0.388-0.582c0.194,0,0.194-0.388,0.097-0.388s-0.097-0.097,0.291-0.872c0.194-0.388,0.485-0.872,0.582-1.163
	C20.6,11.597,20.6,11.5,20.697,11.5s0.097,0.194-0.097,0.388c-0.097,0.291-0.097,0.388,0,0.194c0.194-0.194,0.194-0.097,0.097,0.194
	C20.6,12.47,20.6,12.47,20.406,12.47c-0.291,0.097-0.291,0.097-0.485,0.485c-0.194,0.291-0.194,0.582-0.097,0.582
	s0.194-0.291,0.291-0.485c0-0.097,0.097-0.097,0.097-0.097c0.097,0,0.097,0.388,0,0.485c0,0.097-0.097,0.194-0.097,0.194
	l-0.097,0.194c-0.097,0.097-0.097,0.194-0.097,0.388c0,0.097,0,0.291-0.097,0.291c0,0-0.097,0.194-0.097,0.291
	c-0.097,0.291-0.194,0.388-0.291,0.388s-0.097,0,0-0.194s0.097-0.291,0-0.291c0,0-0.097,0.194-0.291,0.388
	c-0.097,0.194-0.291,0.388-0.388,0.485c-0.291,0.582-0.291,0.679-0.291,0.872l0.097,0.097l0.097-0.194
	c0.097-0.097,0.097-0.194,0.194-0.291c0.097-0.291,0.097-0.388,0.194-0.388s0.097,0.097,0,0.388
	c-0.097,0.388,0.097,0.291,0.388-0.194c0.097-0.194,0.194-0.291,0.194-0.291c0.194,0,0,0.679-0.194,0.776s-0.388,0.388-0.291,0.582
	c0.097,0.291-0.485,0.872-0.679,0.679c-0.097-0.097-0.194,0.097-0.194,0.291c0.291,0.679,0.291,0.969,0.291,1.066
	c0,0.194,0,0.679,0.097,0.776c0,0,0,0.872,0,2.036v1.939l0.194,0.097c0.291,0.194,0.291,0.485,0,0.291
	c-0.194-0.097-0.194-0.097-0.194,0.291c0,0.194,0,0.388,0,0.388c0.097,0,1.163-1.357,1.26-1.648c0-0.097,0.097-0.194,0.097-0.194
	c0.097-0.097,0.194-0.291,0.291-0.485s0.291-0.388,0.291-0.485c0.097-0.097,0.194-0.291,0.291-0.388
	c0.194-0.291,0.969-1.066,1.066-1.066c0,0,0.097-0.097,0.194-0.194c0.291-0.291,0.872-0.485,1.26-0.485
	c0.194,0,1.066,0.194,1.163,0.194c0,0,0.194,0,0.291,0s0.291,0,0.388,0.097c0.097,0,0.291,0.097,0.388,0.097
	c0.291,0,0.776,0.291,0.776,0.388s0.097,0.194,0.097,0.194c0.097,0.097,0.194,0.291,0.194,0.582
	c0.097,0.194,0.097,0.485,0.097,0.582c0.097,0.194,0.388,0.776,0.679,1.163c0.485,0.582,0.679,1.357,0.485,1.842
	c0,0.097-0.097,0.291-0.097,0.291c0,0.097-0.291,0.388-0.388,0.388s-0.194-0.097-0.194-0.388c-0.194-0.485-0.582-1.066-1.163-1.357
	c-0.194-0.097-0.679-0.582-0.776-0.776c0-0.097-0.097-0.194-0.097-0.194c-0.097-0.097-0.291-0.582-0.291-0.872
	c0.291-0.291-0.194-0.485-0.388-0.291c0,0-0.097,0.097-0.291,0.097c-0.194,0.097-0.291,0.194-0.485,0.388s-0.291,0.291-0.388,0.291
	s-0.097,0.097-0.194,0.194c0,0.097-0.194,0.291-0.388,0.485c-0.291,0.291-0.582,0.776-0.582,0.872c0,0-0.097,0.097-0.097,0.194
	c-0.097,0.097-0.194,0.194-0.194,0.388c-0.097,0.291-0.291,0.485-0.485,0.679c-0.097,0.097-0.194,0.194-0.194,0.291
	s-0.194,0.582-0.485,0.776c-0.097,0.097-0.194,0.291-0.194,0.388s-0.194,0.194-0.194,0.291c-0.097,0.097-0.194,0.291-0.388,0.485
	c-0.097,0.194-0.291,0.291-0.388,0.388c-0.388,0.194-0.388,0.291-0.388,0.776c0.097,0.582,0.097,1.26,0,1.745h-0.388
	c0-0.097,0-0.291,0-0.388c0-1.551,0-1.551-0.291-1.357c-0.097,0.097-0.194,0.194-0.194,0.194c-0.097,0-0.194,0.097-0.097,0.291
	c0,0.097,0.097,0.679,0.097,1.26h-0.485c0-0.097,0-0.097,0-0.194c0-0.194-0.097-0.485-0.194-0.776
	c-0.194-0.485-0.291-1.26-0.097-1.551c0.097-0.097,0.097-0.194,0-0.485c-0.097-0.388,0-0.872,0.194-1.357c0-0.097,0-0.194,0-0.485
	c0-0.194,0-0.388,0-0.388c0.097-0.485-0.097-1.163-0.388-1.163c-0.194,0-0.291,0-0.485-0.097c-0.679-0.291-1.163-0.097-1.26,0.388
	c0,0.194-0.097,0.388-0.097,0.485s-0.097,0.485-0.097,0.872s0,0.776-0.097,0.872c0,0.194-0.097,0.388-0.097,0.582
	c0,0.097-0.097,0.388-0.097,0.582s-0.097,0.388-0.097,0.485s0,0.291-0.097,0.388c0,0.097-0.097,0.388-0.097,0.485
	s-0.097,0.388-0.097,0.582C14.977,30.112,14.88,30.306,14.88,30.5 M13.717,30.5c0-0.097,0.097-0.291,0.097-0.485
	c0.194-1.163,0.388-1.745,0.485-1.745s0.097,0,0,0.097c-0.097,0.388-0.097,0.679,0,0.679c0.194-0.194,0.194,0,0.097,0.679
	s-0.097,0.582-0.194,0.582s-0.194,0.097-0.194,0.194L13.717,30.5z M13.232,30.306c0,0,0-0.194,0-0.291s0.097-0.388,0.097-0.485
	c0-0.194,0-0.388,0.097-0.485c0-0.097,0.097-0.291,0.097-0.388c0-0.194,0.097-0.388,0.194-0.485s0.097-0.194,0.097-0.194
	c0.194-0.776,0.194-0.872,0.097-0.969s-0.097-0.194,0.097-0.291c0.097,0,0.194-0.194,0.388-0.582
	c0.291-0.582,0.485-0.776,0.582-0.776s0.097,0.194,0,0.291c-0.388,0.776-0.679,1.26-0.679,1.648c0,0.291-0.097,0.582-0.291,1.163
	c-0.097,0.194-0.097,0.485-0.194,0.679C13.62,30.015,13.329,30.597,13.232,30.306L13.232,30.306z M14.105,29.918
	c0.097-0.291,0-0.388,0-0.194c-0.097,0.194-0.097,0.388,0,0.388C14.008,30.015,14.008,30.015,14.105,29.918z M14.202,29.337
	c0.097-0.194,0-0.291,0-0.194C14.105,29.24,14.105,29.434,14.202,29.337C14.105,29.434,14.105,29.434,14.202,29.337L14.202,29.337z
	 M18.079,29.046c0-0.291,0-0.194,0.291-0.485c0.194-0.097,0.194-0.194,0.097-0.291c-0.194-0.194-0.097-0.291,0.194-0.291
	c0.388,0,0.776-0.291,1.066-0.776c0.097-0.097,0.194-0.291,0.291-0.388c0.194-0.194,0.291-0.291,0.582-0.679
	c0.194-0.194,0.291-0.485,0.969-1.551c0.194-0.291,0.388-0.679,0.485-0.776c0.097-0.097,0.194-0.291,0.291-0.388
	c0-0.097,0.097-0.194,0.194-0.194c0.097-0.097,0.097-0.097,0.097-0.194s0.097-0.194,0.679-0.872
	c0.679-0.679,0.776-0.776,0.582-0.776c-0.097,0-1.066,0.776-1.648,1.357c-0.291,0.291-0.485,0.291-0.194-0.097
	c0.097-0.194,0.097-0.194-0.097,0c-0.291,0.194-1.066,1.066-1.066,1.163c0,0-0.291,0.388-0.485,0.582
	c-0.097,0.097-0.194,0.194-0.194,0.291s-0.097,0.291-0.291,0.485c-0.097,0.194-0.194,0.485-0.291,0.582
	c0,0.097-0.097,0.194-0.097,0.291c-0.097,0.097-0.194,0.388-0.388,0.679c-0.291,0.485-0.388,0.679-0.776,1.066
	c-0.097,0.097-0.194,0.194-0.194,0.291s-0.097,0.194-0.194,0.194l-0.097,0.097v0.388c0,0.388,0.097,0.582,0.194,0.582
	C18.079,29.24,18.079,29.24,18.079,29.046L18.079,29.046z M12.651,27.689c0.097-0.194,0.194-0.485,0.194-0.582
	c0.097-0.485,0.679-1.357,1.26-2.036c0.097-0.097,0.194-0.291,0.291-0.388s0.097-0.291,0.194-0.388s0.194-0.194,0.194-0.291
	s0.679-0.776,0.679-0.776s0.097-0.097,0.291-0.194c0.291-0.194,0.776-0.194,1.357,0c0.194,0.097,0.485,0.194,0.485,0.194h0.194
	v-0.776c0-0.388,0-0.776,0-0.776s-0.097-0.872-0.097-2.036c0-0.291,0-0.291-0.097-0.388s-0.291-0.291-0.582-0.582
	c-0.097-0.194-0.485-0.872-0.582-1.163c0-0.097-0.097-0.291-0.194-0.388s-0.097-0.097-0.097-0.194c0,0,0-0.097-0.097-0.097
	s-0.194-0.291-0.388-0.485c-0.679-0.969-1.454-1.939-1.454-1.939s-0.194,0.776-0.194,0.872c0,0.291-0.194,0.776-0.291,0.872
	c-0.097,0.097-0.097,0.097-0.097,0.194c0,0-0.097,0.194-0.194,0.291c-0.194,0.291-0.485,0.969-0.485,1.26
	c0,0.097,0,0.194-0.097,0.291c0,0.097-0.097,0.388-0.097,0.776s0,0.679-0.097,0.872c0,0.194-0.097,1.26-0.097,1.745
	c0,0.097,0,0.291,0.097,0.388c0.097,0.194,0.194,0.582,0.291,0.969c0,0.194,0,0.388,0.097,0.485c0,0.097,0,0.194,0,0.291
	s0,0.194,0,0.194s-0.097,0.194-0.097,0.291c-0.291,0.097-0.291,0.194-0.291,0.291c0,0.194-0.097,0.582-0.194,0.679
	c0,0.097-0.097,0.291-0.097,1.066c0,0.582,0,1.163,0,1.357c0,0.291,0,0.388,0,0.388C12.457,27.98,12.554,27.883,12.651,27.689
	L12.651,27.689z M18.176,27.495c0.097-0.097,0.097-0.194,0.194-0.291s0.194-0.194,0.291-0.388c0.388-0.679,0.679-1.26,0.679-1.357
	c0-0.291,1.551-2.52,1.939-2.714c0.097,0,0.194-0.097,0.194-0.194s0.097-0.097,0.194-0.194s0.194-0.194,0-0.194
	c-0.097-0.097-0.194,0-0.776,0.679c-0.194,0.291-0.485,0.582-0.582,0.679s-0.291,0.291-0.291,0.388
	c-0.097,0.194-0.291,0.485-0.582,0.776c-0.388,0.388-0.582,0.582-0.776,0.872c-0.097,0.194-0.291,0.388-0.388,0.485
	c-0.485,0.582-0.582,1.066-0.485,1.551C17.982,27.689,18.079,27.689,18.176,27.495L18.176,27.495z M18.37,25.459l0.097-0.097v-1.066
	c0-4.653,0-4.556-0.485-4.556c-0.097,0-0.097,0.097,0,0.194c0.097,0,0.194,0.194,0.194,0.969c0,0.388,0.097,0.872,0.097,0.969
	c0,0.194,0,0.194-0.097,0.291s-0.097,0.097-0.097,0.485c0,0.194,0,0.388,0,0.485c0,0.679,0,2.327,0,2.423
	C18.176,25.556,18.176,25.556,18.37,25.459L18.37,25.459z M27.967,24.877c0-0.097,0-0.194,0-0.291s0-0.194,0-0.291
	s0-0.194-0.097-0.291c0,0-0.097-0.194-0.194-0.291c-0.194-0.388-0.291-0.582-0.388-0.679c-0.194-0.194-0.485-0.776-0.582-1.066
	c-0.097-0.679-0.291-1.066-0.485-1.26c-0.291-0.194-0.582-0.097-0.388,0.097s0.194,0.485,0.097,0.485c0,0-0.485-0.582-0.679-0.776
	c-0.097-0.097-0.291-0.194-0.291-0.097s0,0.097,0.388,0.679c0.097,0.097,0.194,0.291,0.194,0.291c0,0.097,0,0.194,0.097,0.388
	c0,0.194,0.097,0.388,0.097,0.485c0.097,0.582,0.388,0.969,1.066,1.454C27.192,24.005,27.773,24.587,27.967,24.877
	C27.87,25.071,27.967,25.071,27.967,24.877L27.967,24.877z M26.707,23.326c-0.388-0.388-0.388-0.388-0.485-0.872
	c-0.097-0.388-0.097-0.582,0-0.582s0.194,0.194,0.291,0.485c0.097,0.388,0.291,0.776,0.485,0.872
	c0.194,0.194,0.194,0.194,0.194,0.388C27.095,23.714,26.998,23.617,26.707,23.326L26.707,23.326z M11.681,24.781
	c0.097-0.097,0.097-0.097,0-0.194s-0.194-0.097-0.194,0C11.391,24.877,11.487,24.877,11.681,24.781z M11.1,24.296
	c0,0-0.097-0.291-0.097-0.582c-0.194-0.582-0.194-0.679-0.097-0.776c0.097-0.097,0-0.485-0.194-0.679
	c0-0.097-0.097-0.194-0.194-0.291c-0.097-0.291-0.485-0.872-0.582-0.969c0,0-0.097-0.194-0.194-0.388s-0.194-0.291-0.194-0.388
	c-0.097-0.097-0.194-0.291-0.388-0.582c-0.291-0.582-0.872-0.872-0.679-0.291c0,0.097-0.097,0.097-0.194,0
	c0-0.097-0.194-0.291-0.291-0.388c-0.388-0.388-0.291-0.582,0.097-0.194c0.097,0.097,0.194,0.194,0.194,0.097
	c0,0-0.097-0.291-0.194-0.388c-0.194-0.097,0-0.291,0.194-0.194c0.097,0,0.872,0.872,1.066,1.26c0,0.097,0.097,0.194,0.194,0.291
	s0.194,0.291,0.194,0.291c0,0.097,0.194,0.291,0.291,0.485c0.388,0.582,0.679,1.163,0.872,1.454
	c0.097,0.194,0.194,0.388,0.291,0.582c0.097,0.097,0.097,0.194,0.097,0.291s0.194,0.388,0.291,0.388c0,0,0-0.097,0-0.194
	c0-0.194,0-0.194,0.097-0.291s0.097-0.194,0-0.388s-0.097-0.388,0-0.388c0.194,0,0.388,0.776,0.485,1.551
	c0,0.291,0,0.291,0.194,0.291c0.388,0,0.097-1.454-0.485-2.133c-0.097-0.097-0.194-0.291-0.291-0.388s-0.388-0.485-0.582-0.679
	c-0.582-0.679-0.872-1.163-1.163-1.842c0-0.097-0.194-0.291-0.194-0.485S9.45,18.088,9.45,17.991
	c-0.194-0.388-0.872-0.582-1.454-0.388c-0.679,0.291-0.872,0.872-0.291,1.26c0.097,0.097,0.194,0.194,0.291,0.291
	c0.194,0.291,0.679,1.357,0.679,1.454c0,0.291,0.582,1.163,0.872,1.454c0.485,0.291,0.679,0.679,0.872,1.454
	C10.712,24.199,11.003,24.684,11.1,24.296L11.1,24.296z M11.391,23.908c0-0.194-0.291-0.872-0.291-0.776
	c0,0,0.194,0.679,0.194,0.776C11.294,24.005,11.391,24.005,11.391,23.908L11.391,23.908z M17.595,23.811
	c0.097-0.097-0.582-0.388-0.872-0.388c-0.388,0-0.291,0.194,0.097,0.291c0.194,0,0.291,0.097,0.291,0.097
	C17.207,23.908,17.498,23.908,17.595,23.811L17.595,23.811z M22.442,21.775c0.291-0.291,0.776-0.485,1.26-0.679
	c0.194-0.097,0.776-0.388,0.776-0.388c0.097-0.194-0.291-0.291-0.582-0.097c-0.097,0.097-0.291,0.194-0.485,0.291
	c-0.388,0.194-0.485,0.291-0.969,0.679c-0.291,0.291-0.388,0.388-0.291,0.388C22.151,21.969,22.248,21.872,22.442,21.775
	L22.442,21.775z M21.666,21.678c0.388-0.388,0.485-0.582,0.388-0.582s-0.582,0.582-0.679,0.776
	C21.278,21.969,21.472,21.872,21.666,21.678L21.666,21.678z M22.442,21.291c0.194-0.194,0.872-0.679,1.163-0.776
	c0.194-0.097,0.291-0.194,0.194-0.291s-0.582,0.097-0.872,0.388c-0.194,0.097-0.291,0.194-0.291,0.194s-0.097,0.097-0.194,0.291
	s-0.194,0.291-0.194,0.291l-0.097,0.097C22.151,21.582,22.248,21.582,22.442,21.291L22.442,21.291z M24.671,21.388
	c0.097,0,0.194-0.097,0.194-0.097c0.097,0,0.097-0.194,0-0.291s-0.291,0-0.388,0.194c0,0.097-0.097,0.194-0.097,0.194
	C24.38,21.485,24.38,21.485,24.671,21.388L24.671,21.388z M12.263,21.291c0-0.097,0.097-0.388,0.097-0.679s0.097-0.872,0.097-1.26
	s0.097-0.776,0.097-0.872v-0.194H12.36c-0.291,0-0.291,0.097-0.388,0.776c0,0.679-0.097,0.872-0.194,1.26
	C11.584,20.709,12.069,21.582,12.263,21.291L12.263,21.291z M18.273,19.158c0-0.097,0-0.194-0.097-0.194s-0.097,0.097-0.097,0.194
	C18.176,19.255,18.273,19.255,18.273,19.158L18.273,19.158z M17.982,18.867c0,0-0.097-0.194-0.194-0.388
	c-0.291-0.291-0.485-0.582-0.776-1.163c-0.097-0.291-0.291-0.485-0.291-0.485s-0.097-0.097-0.097-0.194
	c-0.097-0.194-0.291-0.582-0.969-1.26c-0.291-0.291-0.679-0.679-0.776-0.872c-0.097-0.097-0.194-0.291-0.291-0.291
	c-0.097-0.097-0.388-0.582-0.679-1.066c-0.291-0.485-0.485-0.872-0.679-1.066c-0.097-0.097-0.097-0.194-0.097-0.388
	c0-0.291-0.097-0.485-0.291-0.485c-0.097,0-0.097,0.194,0.097,0.582c0.097,0.097,0.194,0.388,0.194,0.485
	c0.097,0.388,0.291,0.679,0.485,0.969c0.097,0.194,0.291,0.485,0.388,0.582c0.194,0.291,0.388,0.582,0.872,1.066
	c0.388,0.388,0.776,0.969,1.163,1.551c0.291,0.485,0.388,0.679,0.485,1.066c0.097,0.194,0.194,0.388,0.582,0.969
	c0.194,0.194,0.194,0.291,0.388,0.291C17.885,18.964,17.982,18.964,17.982,18.867L17.982,18.867z M18.176,18.383
	c0-0.097-0.291-0.485-0.485-0.679c-0.097-0.097-0.194-0.194-0.194-0.291s0-0.194-0.097-0.194c-0.097-0.097-0.194-0.291-0.388-0.679
	c-0.388-0.969-0.582-1.26-1.745-2.423c-0.969-0.969-1.066-1.066-1.066-0.872s0.388,0.679,1.454,1.842
	c0.679,0.776,0.872,0.872,1.26,1.745c0,0.097,0.097,0.194,0.097,0.291s0.097,0.291,0.194,0.388s0.194,0.291,0.291,0.485
	C17.789,18.189,18.176,18.479,18.176,18.383L18.176,18.383z M12.36,17.801c0-0.097,0-0.097,0-0.194
	c-0.194-0.097-0.097-0.291,0.097-0.388c0.097-0.097,0.291-0.194,0.291-0.291c0.097-0.097,0.194-0.291,0.291-0.388
	c0.291-0.291,0.388-0.582,0.485-0.969c0-0.194,0.097-0.388,0.097-0.485s0-0.194,0.097-0.291c0.097-0.388-0.194-0.097-0.485,0.582
	c-0.388,0.776-0.388,0.872-0.485,1.163s-0.194,0.388-0.194,0.194s0.194-0.872,0.388-1.163c0.097-0.097,0.194-0.291,0.291-0.582
	c0.291-0.485,0.388-0.679,0.582-0.872c0.194-0.194,0.194-0.194,0.097-0.388s-0.291-0.194-0.388,0c0,0.097-0.194,0.291-0.291,0.388
	s-0.194,0.291-0.194,0.291s-0.097,0.097-0.097,0.194c-0.097,0.097-0.097,0.291-0.194,0.388c0,0.097-0.097,0.291-0.097,0.291
	c-0.097,0.097-0.097,0.679-0.097,0.969c0,0.194,0,0.291-0.097,0.485c-0.097,0.097-0.097,0.291-0.097,0.291s0,0.194,0,0.388
	C11.972,17.898,12.166,18.092,12.36,17.801L12.36,17.801z M17.595,16.25c0-0.097,0-0.194-0.097-0.291v-0.194
	c0-0.097,0-0.194-0.097-0.194c-0.097-0.097-0.194-0.194-0.291-0.582c0-0.097-0.097-0.194-0.097-0.291
	c0-0.194-0.097-0.291-0.291-0.291c-0.388-0.097-0.291,0.388,0.097,0.679c0.097,0,0.097,0.097,0.097,0.097s0.097,0.097,0.097,0.194
	c0.097,0.097,0.097,0.194,0.097,0.291s0,0.194,0.097,0.194c0,0.097,0.097,0.194,0.097,0.291s0.097,0.194,0.097,0.194
	C17.595,16.444,17.595,16.444,17.595,16.25L17.595,16.25z M17.789,15.959c0,0,0-0.097,0.097-0.194c0.097-0.194,0.097-0.291,0-0.388
	c-0.291-0.388-0.291-1.163,0-0.872c0.097,0.097,0.097,0.097,0.097,0.097c0.097-0.097,0-0.485,0-0.485s-0.097-0.097-0.097-0.194
	s0-0.097-0.097-0.097v0.097c0.097,0.097,0,0.291-0.097,0.291s-0.097-0.097-0.097-0.291c0-0.388-0.291-0.776-0.485-0.679
	c-0.097,0-0.097,0.194,0,0.291c0,0,0.097,0.097,0.097,0.194s0.097,0.291,0.097,0.485c0.194,0.388,0.097,0.582-0.097,0.582
	c-0.097,0-0.097,0-0.097,0c0,0.097,0.194,0.388,0.291,0.485c0.194,0.194,0.291,0.388,0.194,0.582c0,0.097,0,0.194,0,0.291
	C17.789,16.056,17.789,16.056,17.789,15.959L17.789,15.959z M18.467,15.28c0.097-0.194,0.194-0.679,0.194-0.679
	c-0.097,0-0.291,0.485-0.388,0.679C18.273,15.571,18.37,15.571,18.467,15.28L18.467,15.28z M17.304,14.505
	c0.097-0.097,0.097-0.291,0-0.291c0,0-0.194,0.291-0.194,0.388C17.11,14.602,17.207,14.602,17.304,14.505L17.304,14.505z
	 M18.661,13.729c0-0.194,0.097-0.388,0.194-0.582c0.097-0.291,0.097-0.291,0-0.485c-0.097-0.194-0.097-0.194,0-0.291
	c0.194-0.194,0.291-0.485,0.194-0.679c0-0.097-0.097-0.194-0.097-0.194c0-0.194-0.097-0.097-0.194,0
	c0,0.097-0.097,0.194-0.194,0.291c-0.194,0.194-0.291,2.327-0.097,2.23C18.564,14.02,18.661,13.923,18.661,13.729L18.661,13.729z
	 M16.722,13.632c0-0.097-0.097-0.291-0.194-0.291s-0.097,0,0,0.194S16.722,13.826,16.722,13.632L16.722,13.632z M19.437,12.857
	c0.097-0.194,0.194-0.388,0.291-0.388c0.097-0.097,0.097-0.097,0-0.291c-0.097-0.097-0.097-0.097-0.097-0.194s-0.097,0-0.194,0.097
	c-0.194,0.388-0.291,0.679-0.194,0.776C19.243,13.148,19.243,13.148,19.437,12.857L19.437,12.857z M17.11,12.76
	c0-0.194,0-0.194,0.097-0.291c0.194-0.194-0.097-0.969-0.291-0.872c-0.097,0-0.097,0.194,0,0.388s0.097,0.194,0.097,0.291
	c-0.097,0.194,0,0.485,0,0.582C17.11,12.954,17.207,12.954,17.11,12.76L17.11,12.76z M17.789,12.469
	c0-0.388-0.097-0.485-0.194-0.388c0,0-0.097,0.097-0.097,0.194s0,0.194-0.097,0.194c-0.097,0.194-0.097,0.194,0.097,0.291
	C17.789,12.857,17.789,12.857,17.789,12.469z M18.273,12.275c0-0.291,0.097-0.582,0.097-0.679c0.097-0.194,0-0.388-0.097-0.388
	s-0.194-0.097-0.194-0.485c0-0.291,0-0.388-0.097-0.388s-0.194-0.097-0.291-0.291c-0.097-0.291-0.194-0.194-0.194,0.194
	c0,0.194,0,0.485,0,0.582c0,0.194,0.194,0.679,0.194,0.679s0-0.194,0-0.388c0-0.291,0-0.485,0.097-0.388
	c0.097,0.097,0.194,0.872,0.291,1.551C18.176,13.051,18.273,13.051,18.273,12.275L18.273,12.275z M14.59,12.469
	c0-0.097,0.097-0.291,0.097-0.485c0-0.194,0.097-0.485,0.097-0.679c0.097-0.485-0.097-0.872-0.194-0.485
	c0,0.097-0.097,0.194-0.097,0.388c-0.291,0.872-0.291,0.969-0.194,1.066c0.097,0,0.097,0.097,0.097,0.194
	C14.396,12.663,14.493,12.663,14.59,12.469L14.59,12.469z M12.748,11.694c-0.097-0.194-0.194-0.485-0.291-0.679l-0.194-0.388h-0.194
	c-0.194,0-0.194,0.097-0.097,0.194c0,0.097,0.097,0.194,0.097,0.291s0.194,0.194,0.291,0.388c0.097,0.097,0.194,0.291,0.194,0.291
	c0,0.097,0.194,0.291,0.194,0.291C12.845,11.984,12.748,11.791,12.748,11.694L12.748,11.694z M13.911,11.5
	c0-0.097,0-0.194-0.097-0.194s-0.097-0.097-0.097-0.194s0-0.194-0.097-0.194c0,0-0.097-0.194-0.097-0.485
	c0-0.194,0-0.485-0.097-0.582c0-0.097-0.097-0.194-0.097-0.291s-0.097-0.194-0.097-0.291c-0.097-0.097-0.097-0.194-0.097-0.388
	s-0.097-0.291-0.097-0.388c-0.097-0.097-0.194,0-0.194,0.097c0.097,0.485,0.097,0.582,0.291,0.776s0.194,0.194,0.194,0.485
	c0,0.194,0,0.388,0,0.388c0,0.097,0,0.194-0.097,0.291c-0.097,0.194-0.097,0.194,0.097,0.485c0.097,0.194,0.291,0.291,0.291,0.388
	C13.814,11.791,13.911,11.694,13.911,11.5L13.911,11.5z M14.299,10.627c0.097-0.388,0.097-0.485,0-0.388
	c-0.194,0.097-0.291,0.582-0.194,0.679C14.105,11.112,14.202,10.918,14.299,10.627L14.299,10.627z M15.559,10.24
	c0.097-0.097,0-0.194-0.097-0.097s-0.194,0.097-0.097-0.097s-0.194-0.097-0.291,0.194C14.88,10.821,15.268,10.821,15.559,10.24
	L15.559,10.24z M13.039,10.53c0-0.097-0.097-0.291-0.097-0.388c-0.097-0.291-0.097-0.291-0.194-0.097
	c-0.097,0.097-0.097,0.097,0,0.291C12.942,10.627,13.039,10.724,13.039,10.53z M12.166,10.046c0-0.097,0-0.194,0-0.194
	c0-0.097-0.194,0-0.194,0c0,0.097,0.097,0.388,0.194,0.388C12.166,10.24,12.166,10.143,12.166,10.046L12.166,10.046z M14.008,9.949
	c0-0.097,0.097-0.291,0.097-0.291c0.097-0.097,0.291-0.776,0.291-0.872c0-0.194-0.388,0.388-0.485,0.679v0.097l-0.097-0.097
	c-0.194-0.194-0.291,0.097-0.097,0.388c0,0.097,0.097,0.097,0.097,0.194C13.814,10.24,13.911,10.24,14.008,9.949L14.008,9.949z
	 M18.079,8.107c0-0.097,0-0.291-0.097-0.485c-0.097-0.291,0-0.388,0.097-0.388s0.194-0.194,0.097-0.291
	c-0.097-0.194-0.097-0.194-0.194-0.097c-0.097,0.194-0.291,0.097-0.291-0.194c0-0.097-0.097-0.097-0.097-0.097s0,0,0,0.097
	c0,0,0,0.097,0.097,0.194c0,0.097,0.097,0.194,0.097,0.291c0.097,0.194-0.097,0.291-0.194,0.097
	C17.4,6.943,17.303,7.04,17.303,7.331c0,0.388,0.291,0.679,0.291,0.485c0.097-0.194,0.291,0,0.291,0.291
	c0,0.097,0,0.194,0.097,0.194C18.079,8.301,18.079,8.204,18.079,8.107L18.079,8.107z M14.299,8.01c0,0,0.097-0.194,0.097-0.388
	c0.194-0.388,0.194-0.582,0-0.582s-0.194-0.097,0-0.485c0.291-0.582,0.291-0.679,0.194-0.872c-0.194-0.291-0.291-0.097-0.388,0.485
	c0,0.194-0.097,0.485-0.097,0.679c-0.097,0.194-0.097,0.291,0,0.679c0,0.291,0,0.485,0,0.485C14.105,8.107,14.299,8.107,14.299,8.01
	L14.299,8.01z M14.977,7.816c0.097-0.194,0.097-0.388,0-0.388s-0.291,0.291-0.291,0.388C14.783,8.107,14.88,8.107,14.977,7.816
	L14.977,7.816z M13.814,7.622c0-0.291,0-0.388-0.194-0.194c-0.097,0.097-0.194,0.485-0.097,0.582
	C13.717,8.107,13.814,7.913,13.814,7.622L13.814,7.622z M12.845,7.525c0-0.291-0.097-0.485-0.194-0.485s-0.097,0.194,0.097,0.679
	C12.845,8.01,12.845,7.816,12.845,7.525L12.845,7.525z M13.329,7.525c0-0.291-0.097-0.388-0.291-0.194
	c-0.097,0.097-0.097,0.097,0,0.194C13.232,7.913,13.329,7.913,13.329,7.525L13.329,7.525z M18.467,7.622
	c0-0.194,0-0.194-0.097-0.194s-0.097,0.194,0,0.291C18.37,7.816,18.467,7.816,18.467,7.622L18.467,7.622z M19.243,6.944
	L19.243,6.944c-0.097,0-0.097,0.097-0.097,0.194C19.243,7.138,19.243,7.041,19.243,6.944L19.243,6.944z M13.814,6.75
	c0-0.679-0.097-0.776-0.291-0.485c-0.097,0.097-0.194,0.194-0.291,0.194c-0.097,0.097-0.194,0.194-0.097,0.291
	c0,0.097,0,0,0.097-0.097c0.097-0.291,0.388-0.097,0.388,0.194c0,0.097,0.097,0.194,0.194,0.194
	C13.814,7.138,13.911,7.138,13.814,6.75L13.814,6.75z M15.171,6.459c0.097-0.097,0.097-0.194,0-0.194
	c-0.097-0.097-0.194,0-0.291,0.097C14.88,6.556,15.074,6.653,15.171,6.459L15.171,6.459z M15.171,5.78c0,0,0.097-0.194,0-0.291
	c0-0.097,0-0.291,0-0.291c0-0.097,0-0.097,0-0.097c-0.097,0-0.194,0.582-0.194,0.679C15.074,5.877,15.171,5.877,15.171,5.78
	L15.171,5.78z M13.717,5.586c0-0.097-0.097-0.194-0.097-0.291l-0.097-0.097v0.194c0,0.194,0.097,0.485,0.097,0.485
	C13.717,5.78,13.717,5.78,13.717,5.586L13.717,5.586z M14.008,5.586c0-0.097,0-0.291-0.097-0.291s-0.097,0.194,0,0.291
	C13.911,5.683,14.008,5.683,14.008,5.586L14.008,5.586z M14.396,4.908c0.194-0.388,0.291-0.776,0.388-0.872
	c0-0.097,0.097-0.388,0.097-0.582c0.097-0.291,0.097-0.582,0.194-0.679c0.097-0.194,0.097-0.485,0-0.485S14.88,2.484,14.88,2.872
	c-0.097,0.388-0.291,1.066-0.388,1.163c-0.097,0.097-0.097,0.097-0.097,0.291c0,0.291-0.097,0.388-0.291,0.388
	c-0.097,0-0.097,0,0,0.097c0,0.097,0.097,0.194,0.097,0.194C14.202,5.296,14.299,5.199,14.396,4.908L14.396,4.908z M15.171,4.423
	C15.171,4.423,15.171,4.326,15.171,4.423c-0.097,0-0.097,0.194-0.097,0.291C15.074,4.714,15.171,4.52,15.171,4.423L15.171,4.423z
	 M13.717,4.132c0-0.194-0.097-0.388-0.194-0.388s-0.097,0.194,0,0.388C13.62,4.326,13.717,4.326,13.717,4.132L13.717,4.132z
	 M15.462,3.066c0-0.194-0.194-0.097-0.194,0.097v0.194l0.097-0.097C15.462,3.163,15.462,3.066,15.462,3.066L15.462,3.066z
	 M6.059,20.03c0,0,0-0.194,0.097-0.388S6.35,19.254,6.35,19.06c0-0.582,0.194-0.872,0.291-0.485
	C6.64,19.061,6.156,20.418,6.059,20.03L6.059,20.03z M19.921,10.143c-0.291-0.097-0.291-0.097-0.194-0.485c0-0.194,0-0.291,0-0.388
	c-0.097-0.097-0.097-0.194,0-0.679c0-0.291,0-0.582,0-0.582c0-0.097,0-0.194,0-0.291c0.388-0.969,0.485-1.163,0.679-1.163
	c0.097,0,0.097,0.097-0.097,0.291c-0.097,0.194-0.097,0.291,0,0.388s0.097,0.097,0.097,0.291s0,0.194,0.097,0.291
	c0.097,0.097,0.194,0.194,0,0.291c0,0-0.097,0.097-0.194,0.291c-0.097,0.097-0.194,0.291-0.194,0.388
	c-0.097,0.097-0.097,0.582-0.097,0.679c0,0,0.097-0.097,0.291-0.194C20.406,8.979,20.6,8.979,20.6,9.173c0,0.097,0,0.097,0,0.097
	c0.097,0.097,0,0.388-0.291,0.679c-0.097,0.097-0.097,0.097-0.194,0.194C20.115,10.143,20.115,10.143,19.921,10.143L19.921,10.143z
	 M20.018,7.816c0.097-0.194,0-0.291-0.097-0.194C19.824,7.719,19.824,7.913,20.018,7.816C19.921,7.913,19.921,7.816,20.018,7.816
	L20.018,7.816z M18.952,9.949c0-0.097,0-0.194,0-0.485c0.097-0.485,0.097-0.485,0-0.582c0,0-0.097,0.097-0.291,0.388
	c-0.097,0.194-0.194,0.194-0.194,0.097c0,0,0-0.097,0-0.194s0.097-0.194,0.097-0.291s0.097-0.291,0.097-0.291
	c0.097-0.097,0.097-0.194,0.194-0.388c0.097-0.872,0.388-0.097,0.291,0.872c0,0.291,0,0.485,0,0.582
	C19.34,9.949,19.146,10.143,18.952,9.949L18.952,9.949z M18.952,4.035l-0.097-0.097c0,0,0-0.097,0.097-0.194
	c0.097-0.291,0.194-0.194,0.194,0.097S19.049,4.132,18.952,4.035z"/>
</svg>
