<?xml version="1.0" encoding="utf-8"?>
<!-- Generator: Adobe Illustrator 25.4.1, SVG Export Plug-In . SVG Version: 6.00 Build 0)  -->
<svg version="1.1" id="triticum_x5F_aestivum" xmlns="http://www.w3.org/2000/svg" xmlns:xlink="http://www.w3.org/1999/xlink"
	 x="0px" y="0px" viewBox="0 0 32 32" style="enable-background:new 0 0 32 32;" xml:space="preserve">
<path d="M7.5,13.4c-0.1,0.1-0.1,0.2-0.2,0.4c-0.1-0.1-0.3-0.2-0.5-0.4c0.2,0.3,0.6,0.4,0.5,0.8c-0.4-0.4-0.7-0.7-1-1
	c0,0,0,0.1,0,0.1c0.3,0.3,0.6,0.6,0.9,0.9c0.1,0.1,0.2,0.2,0.2,0.3c0.2,0.3,0.4,0.6,0.5,0.9c0.1,0.2,0.2,0.4,0.4,0.5
	c0.3,0.3,0.6,0.5,0.9,0.8c0.1,0.1,0.2,0.5,0.2,0.6c-0.1-0.1-0.2-0.3-0.3-0.4c-0.3-0.4-0.6-0.7-1.1-0.8c-0.2,0-0.3-0.1-0.5-0.2
	c-0.3-0.2-0.5-0.3-0.8-0.5c0,0.1,0.1,0.1,0.1,0.2c0.2,0.2,0.5,0.4,0.7,0.5c0.1,0.1,0.1,0.1,0.1,0.2c0,0-0.1,0-0.2,0
	c-0.1-0.1-0.3-0.2-0.4-0.3c-0.3-0.3-0.5-0.6-0.8-0.9c-0.2-0.2-0.4-0.4-0.5-0.6c0.5,0.7,1,1.4,1.7,1.9c0.1,0.1,0.1,0.2,0.2,0.3
	c0.2,0.7,0.6,1.2,1.2,1.6c0.2,0.1,0.4,0.2,0.6,0.2c0.1,0,0.2,0,0.2,0.2c0,0.6,0.1,1.2,0.1,1.9c0,0.1,0,0.1,0,0.2
	c-0.1,0.2-0.2,0.3-0.4,0.5c-0.5,0.8-1.1,1.7-1.6,2.5c-1.2,2-2.1,4-2.6,6.3C5,30.4,4.9,30.7,4.9,31c0.2,0,0.3,0,0.5,0
	c0.1,0,0.1,0,0.2-0.1c0.2-1.1,0.5-2.1,0.8-3.1c0.8-2.1,1.9-4.1,3.1-5.9c0.1-0.1,0.1-0.2,0.2-0.3c0,0,0,0,0.1,0
	c0.1,3.2,0.1,6.3-0.2,9.5c0.2,0,0.4,0,0.6,0c0-0.3,0-0.5,0-0.7c0.1-2.9,0-5.8-0.1-8.7c0-0.5,0-0.9,0.4-1.2c0,0,0,0,0-0.1
	c0.6-0.9,1.3-1.8,1.9-2.6c0.8-1.1,1.6-2.2,2.4-3.3c0.1-0.1,0.2-0.2,0.3-0.1c0.2,0.1,0.5,0.2,0.8,0.1c0.7-0.2,1.3-0.6,1.7-1.3
	c0.1-0.1,0.1-0.2,0.2-0.2c0.5-0.3,1-0.6,1.4-1c0,0,0,0,0.1-0.1c-0.1,0-0.2,0-0.3,0.1c-0.4,0.3-0.9,0.6-1.3,0.8c-0.1,0-0.1,0-0.2,0
	c-0.2,0-0.3-0.1-0.5-0.1c-0.5,0-0.9,0.2-1.3,0.4c-0.1,0.1-0.3,0.2-0.4,0.3c0.1-0.2,0.3-0.4,0.4-0.5c0.1-0.2,0.3-0.3,0.6-0.3
	c0.3,0,0.6-0.1,0.9-0.1c0.7,0,1.2-0.3,1.6-0.8c0,0,0.1-0.1,0.1-0.1c0.8-0.4,1.5-0.8,2.3-1.4c0.2-0.1,0.3-0.2,0.5-0.4
	c-0.2,0.1-0.4,0.2-0.5,0.3c-0.7,0.5-1.4,0.9-2.1,1.2c0,0-0.1,0-0.1,0c-0.1-0.1-0.2-0.2-0.3-0.3c0.5-0.1,0.8-0.4,1.1-0.7
	c0,0,0.1-0.1,0.1-0.1c0.2,0,0.4-0.1,0.6-0.1c0.1,0,0.2-0.1,0.3-0.1c0,0,0,0,0,0c-0.3,0-0.6,0.1-0.9,0.1c0,0,0-0.1,0-0.1
	c0.3-0.1,0.6-0.1,1-0.2c0,0,0,0,0,0c-0.2,0-0.3,0-0.5,0c0,0,0,0,0,0c0.4-0.2,0.8-0.4,1.2-0.6c0,0-0.1,0-0.1,0
	c-0.5,0.2-1.1,0.4-1.6,0.7c-0.1,0-0.2,0.1-0.2,0c-0.6-0.2-1.1-0.2-1.6,0.1c-0.1,0.1-0.2,0.1-0.3,0.2c0-0.1,0.1-0.1,0.1-0.1
	c0.3-0.4,0.8-0.5,1.3-0.5C19.5,9.7,20,9.5,20.5,9c0,0,0.1-0.1,0.1-0.1c0.6-0.3,1.1-0.7,1.7-1c0.1,0,0.1-0.1,0.2-0.2
	C22.3,7.8,22.1,7.9,22,8c-0.4,0.2-0.8,0.5-1.3,0.7c-0.1,0.1-0.2,0-0.2,0c-0.1-0.2-0.3-0.2-0.5-0.2c-0.5,0-0.9,0.2-1.3,0.4
	c0,0-0.1,0.1-0.1,0.1c0,0,0,0,0,0c0.2-0.2,0.4-0.4,0.7-0.5c0.3,0,0.7,0,1,0c0.6,0,1.1-0.4,1.5-0.9c-0.6-0.4-1.2-0.3-1.8-0.1
	c0.1-0.2,0.3-0.3,0.4-0.3c0.3,0,0.6,0,0.9-0.1c0.2,0,0.3,0,0.5,0c0.5-0.2,1-0.6,1.4-1c0.2-0.2,0.3-0.3,0.6-0.3c0.7,0,1.4-0.3,2-0.7
	c0.5-0.3,0.9-0.7,0.3-0.3c-0.5,0.3-0.9,0.5-1.4,0.7c-0.1,0-0.2,0-0.3,0c0,0,0,0,0,0c0.3-0.2,0.5-0.3,0.8-0.5c0.3-0.2,0.1-0.1,0,0
	c-0.1,0-0.6,0.3-0.8,0.4c0,0-0.1,0-0.1,0.1c0,0,0,0,0,0c0.1-0.1,0.2-0.2,0.3-0.3c-0.1,0-0.1,0-0.2,0c-0.2,0.1-0.5,0.2-0.7,0.3
	c0,0-0.1,0-0.2,0c-0.1-0.1-0.2-0.2-0.4-0.2c-0.4,0-0.8,0.1-1.2,0.2c-0.1,0-0.1,0.1-0.2,0.1c0,0,0-0.1,0-0.1c0.3-0.3,0.7-0.5,1.1-0.5
	c0.7,0,1.2-0.3,1.6-0.8c0.2-0.3,0.4-0.6,0.5-1C24.8,3.2,25,3,25.2,2.9c0.3-0.2,0.7-0.5,1-0.8c0,0,0.1-0.1,0.1-0.1c0,0,0,0,0,0
	c-0.4,0.3-0.7,0.5-1.1,0.8c0,0,0,0-0.1-0.1c0.7-0.5,1.4-1.1,2-1.6c0,0,0,0,0,0C27,1,27,1.1,26.9,1.1c-0.5,0.4-1,0.8-1.6,1.2
	c0,0-0.4,0.3-0.5,0.3c0,0-0.1,0-0.1-0.1c-0.1,0.1-0.3,0.1-0.4,0c0,0-0.1,0-0.1,0c-0.6,0-1,0.3-1.3,0.8c-0.1,0.2-0.2,0.5-0.3,0.7
	c-0.1,0.2-0.1,0.3-0.2,0.5c0,0,0,0-0.1,0c0,0,0-0.1,0-0.1c0.1-0.3,0.1-0.5,0.2-0.8c0,0,0-0.1-0.1-0.1c-0.1,0-0.2,0-0.2,0
	C22.2,3.7,22,4,21.8,4.3c-0.2,0.3-0.2,0.7-0.4,1.1c-0.1,0.2-0.1,0.4-0.3,0.6c0,0,0,0,0-0.1c0,0,0-0.1,0-0.1c0.1-0.3,0.1-0.6,0.2-0.9
	c0-0.2,0-0.4-0.2-0.5c0.3-0.5,0.4-1,0.8-1.5C22.3,2.3,22.4,2,22,2.6c-0.3,0.5-0.7,1-0.9,1.6c0,0.1-0.1,0.1-0.1,0.2c0,0,0,0-0.1,0
	c0-0.2,0.1-0.3,0.1-0.5C21,3.9,21,3.9,21,4c-0.1,0.2-0.2,0.5-0.3,0.7c-0.3,0.5-0.6,1.1-0.7,1.7c0,0.3-0.1,0.6-0.2,0.8
	c-0.1,0.2-0.2,0.3-0.3,0.5c0,0,0,0-0.1,0c0,0,0-0.1,0-0.1c0.2-0.5,0.2-0.9,0.2-1.4c0-0.2,0-0.3-0.2-0.4c0,0,0-0.1,0-0.1
	C19.7,5.3,19.8,5,20,4.8c0.3-0.5,0.1-0.2-0.5,0.8c0,0-0.1,0.1-0.1,0.1C19.1,5.8,19,6,18.9,6.3c-0.3,0.7-0.4,1.4-0.4,2.1
	c0,0.3-0.1,0.6-0.4,0.9c0-0.1,0-0.1,0-0.1c0-0.3,0.1-0.6,0.1-0.9c0-0.3,0-0.6-0.2-0.9c0,0,0-0.1,0-0.1c0.3-0.8,0.7-1.5,1.1-2.3
	c0.1-0.2,0.2-0.3,0.3-0.5c0,0,0,0,0,0c-0.6,0.9-1.1,1.8-1.4,2.8c0,0,0,0-0.1,0c0-0.1,0-0.1,0-0.2c-0.1,0-0.1,0.1-0.1,0.2
	c0,0.1,0,0.1-0.1,0.2c-0.3,0.2-0.4,0.6-0.5,0.9C17,9,17,9.6,16.9,10.2c0,0.2,0,0.5-0.1,0.7c0,0.1-0.1,0.2-0.2,0.4c0-0.5,0-0.9,0-1.3
	c0-0.3-0.1-0.6-0.4-0.8C16.5,8.5,16.7,7.7,17,7c-0.2,0.6-0.4,1.2-0.6,1.7c-0.1,0.2-0.1,0.5-0.2,0.6c-0.4,0.7-0.7,1.4-0.6,2.2
	c0,0.3,0,0.6,0,0.9c0,0.3-0.2,0.5-0.4,0.8c0-0.1,0-0.2,0-0.4c0.1-0.6,0.1-1.1-0.1-1.7c0-0.1-0.1-0.2-0.3-0.2
	c0.1-0.5,0.2-0.9,0.3-1.4c0,0,0,0,0,0c-0.1,0.4-0.2,0.9-0.3,1.3c0,0.1-0.1,0.2-0.1,0.3c-0.4,0.6-0.6,1.3-0.5,2
	c0,0.3,0.1,0.5,0.3,0.7c0.1,0.2,0.1,0.2,0,0.4c-0.5,0.6-0.9,1.2-1.4,1.8c-1,1.3-1.9,2.6-2.8,3.9c0,0.1-0.1,0.1-0.2,0.2
	c0-0.6-0.1-1.1-0.1-1.6c0,0,0.1-0.1,0.1-0.1c0.3-0.1,0.5-0.3,0.6-0.5c0.4-0.6,0.4-1.3,0.3-2.1c0-0.1,0-0.1,0-0.2
	c0.2-0.7,0.4-1.5,0.5-2.2c0-0.2,0.1-0.4,0.1-0.5c0,0-0.1,0.1-0.1,0.1c-0.2,0.8-0.4,1.6-0.6,2.4c0,0.2-0.1,0.2-0.2,0.1
	c-0.1,0-0.2,0-0.2,0.1C10.1,16,9.9,16.5,9.9,17c0,0.2-0.1,0.5-0.1,0.7c0-0.1-0.1-0.1-0.1-0.2c0-0.3-0.1-0.5-0.1-0.8
	c0-0.1,0-0.2,0.1-0.3c0.1-0.2,0.2-0.4,0.3-0.6c0.3-0.5,0.6-1,0.5-1.6c0-0.4-0.1-0.7-0.1-1.1c0,0.1,0,0.2-0.1,0.3c0,0,0,0-0.1,0
	c0.1-0.5,0.1-0.9,0.2-1.4c0,0,0,0-0.1,0c0,0.2-0.1,0.4-0.1,0.5c-0.1,0.4,0,0.8-0.4,1c0,0-0.1,0.1-0.1,0.1c-0.1,0.3-0.3,0.7-0.4,1
	c-0.1,0.2-0.1,0.4-0.1,0.6c-0.1-0.4-0.1-0.8,0.1-1.1c0.2-0.5,0.5-0.9,0.6-1.4c0-0.2,0-0.4,0.1-0.6c0.2-0.6,0.4-1.1,0.5-1.7
	c0-0.1-0.1,0.4-0.6,1.6c0-0.2-0.1-0.3,0-0.5c0.1-0.4,0.2-0.8,0.3-1.2c0.1-0.4,0-0.2,0,0c0,0.1-0.1,0.1-0.1,0.2
	c-0.1,0.2-0.1,0.5-0.2,0.7c0,0.1-0.1,0.2-0.1,0.3c0,0-0.1,0-0.1,0c0-0.7,0.2-1.4,0.2-2.1c0,0,0,0.1,0,0.1c-0.1,0.5-0.2,1.1-0.2,1.6
	c0,0.1-0.1,0.3-0.2,0.4c-0.4,0.4-0.6,1-0.6,1.6c0,0.1,0,0.1,0,0.2c-0.1-0.6-0.1-1.1,0.2-1.6c0.3-0.5,0.5-1,0.5-1.6
	c0-0.4,0-0.7,0.1-1.1c0.3-1,0.4-1.9,0.4-2.9c0,0,0,0,0,0C9.9,8.8,9.8,9.5,9.6,9.6c0.1-1.1,0.2-2.2,0.2-3.3C9.7,6.8,9.7,7.4,9.6,7.9
	c0,0.4-0.1,0.8-0.1,1.2c0,0.2-0.1,0.3-0.2,0.4C9.1,9.7,9,9.9,8.9,10.1c-0.2,0.4-0.3,0.8-0.3,1.2c0-0.1,0-0.1,0-0.1
	c-0.1-0.5,0-0.9,0.3-1.3C9,9.4,9.2,8.9,9.3,8.4c0-0.1,0-0.3,0.1-0.4c0.1-0.5,0.2-1,0.2-1.5c0.1-0.6,0.2-1.2,0.2-1.9
	c0-0.3,0.1-0.6,0.1-0.8c0-0.3,0-0.6,0-0.8c0,0,0,0,0,0C9.7,4.6,9.5,6.2,9.3,7.9c-0.1,0-0.1,0-0.1-0.1c0-0.2-0.1-0.2-0.2-0.2
	c-0.1,0-0.2,0-0.2,0.1C8.6,7.9,8.5,8.2,8.4,8.4c-0.1,0.3-0.1,0.7-0.2,1c0-0.5,0-0.9,0.2-1.4c0.1-0.2,0.2-0.4,0.2-0.5
	c0-0.3,0-0.7,0-1c0-0.2,0-0.3,0-0.5c0-0.6,0.1-1.2,0.1-1.8c0,0,0,0,0,0c0,0.7-0.1,1.3-0.2,2c-0.2-0.1-0.3,0-0.3,0.2
	C8.1,6.8,8,7.1,7.9,7.5c0,0.1,0,0.2-0.1,0.4C7.8,7.8,7.8,7.7,7.7,7.7c0,0,0.1-0.1,0.1-0.1C7.9,7.2,7.9,6.9,8,6.6
	C8.2,6,8,5.5,7.6,5.1C7.5,5,7.4,4.9,7.4,4.7C7.3,3.9,7.3,3.1,7.2,2.3c0,0,0,0-0.1,0C7.2,3,7.3,3.7,7.3,4.4c0,0-0.1,0-0.1,0
	c-0.2-1-0.4-2-0.6-3c0,0.1,0,0.3,0,0.4c0.2,1,0.3,2,0.5,3c0,0.1,0,0.2,0,0.3C7,5.5,6.8,5.8,6.9,6.2C7,6.6,7.2,6.9,7.4,7.1
	c0.1,0.2,0.3,0.3,0.3,0.6c0-0.1-0.1-0.1-0.1-0.2C7.4,7.3,7.2,7,6.9,6.8C6.7,6.6,6.5,6.7,6.5,7c0,0,0,0.1,0,0.1c0,0,0-0.1,0-0.1
	C6.2,6.4,6,5.8,5.8,5.2c0-0.1-0.1-0.1-0.1-0.2c0-0.2-0.1-0.3-0.1-0.5C5.5,4.4,5.5,4.2,5.4,4c0,0,0,0-0.1,0c0.1,0.3,0.2,0.7,0.3,1
	c0,0.1,0,0.1,0.1,0.2C6,6,6.2,6.7,6.5,7.4C6.6,8.1,7,8.6,7.5,9C7.8,9.3,8.1,9.6,8.2,10C8,9.8,7.9,9.7,7.8,9.5C7.5,9.2,7.3,9,6.8,9
	C6.8,9,6.7,8.9,6.7,8.9C6.4,8.3,6.1,7.8,5.8,7.2c-0.3-0.7-1-2.3-0.9-2C5,5.5,5.2,5.9,5.3,6.3c0.4,0.9,0.8,1.9,1.3,2.8
	c0.1,0.1,0,0.4,0.1,0.6c0,0,0,0-0.1,0C6.2,8.9,5.8,8.2,5.3,7.5C5.4,7.6,5.5,7.8,5.6,8c0.4,0.6,0.8,1.2,1.1,1.8C7,10.4,7.4,11,8,11.3
	c0.4,0.3,0.6,0.6,0.6,1.1c-0.1-0.1-0.1-0.1-0.1-0.2C8.3,12,8.2,11.8,8,11.6c-0.2-0.2-0.5-0.4-0.8-0.4c0,0-0.1,0-0.1,0
	C7,11,6.9,10.9,6.8,10.8C6.5,10.4,6.2,10,5.9,9.6C5.9,9.5,5.8,9.4,5.7,9.3c0.1,0.2,0.2,0.4,0.3,0.6c0.3,0.4,0.5,0.9,0.9,1.2
	c0,0,0.1,0.1,0,0.1c0,0.1-0.1,0.2-0.1,0.3c-0.3-0.3-0.5-0.6-0.8-0.9c0,0,0,0,0,0c0.1,0.2,0.2,0.3,0.3,0.5c0,0,0,0,0,0
	c-0.1,0-0.1-0.1-0.2-0.1c0,0,0,0,0,0c0.2,0.2,0.4,0.4,0.6,0.6C6.8,11.8,6.9,11.9,7,12c0.1,0.1,0.1,0.3,0.2,0.5
	C7.6,13,8,13.3,8.5,13.6c0.1,0,0.2,0.1,0.2,0.2C8.9,14,9,14.3,9.1,14.6c0,0,0,0,0,0C8.7,14.1,8.3,13.5,7.5,13.4"/>
</svg>
