<?xml version="1.0" encoding="utf-8"?>
<!-- Generator: Adobe Illustrator 25.4.1, SVG Export Plug-In . SVG Version: 6.00 Build 0)  -->
<svg version="1.1" id="triticum_x5F_turgidum" xmlns="http://www.w3.org/2000/svg" xmlns:xlink="http://www.w3.org/1999/xlink"
	 x="0px" y="0px" viewBox="0 0 32 32" style="enable-background:new 0 0 32 32;" xml:space="preserve">
<path d="M24.5,13.4c0.1,0.1,0.1,0.2,0.2,0.4c0.1-0.1,0.3-0.2,0.5-0.4c-0.2,0.3-0.6,0.4-0.5,0.8c0.4-0.4,0.7-0.7,1-1v0.1
	c-0.3,0.3-0.6,0.6-0.9,0.9c-0.1,0.1-0.2,0.2-0.2,0.3c-0.2,0.3-0.4,0.6-0.5,0.9c-0.1,0.2-0.2,0.4-0.4,0.5c-0.3,0.3-0.6,0.5-0.9,0.8
	c-0.1,0.1-0.2,0.5-0.2,0.6c0.1-0.1,0.2-0.3,0.3-0.4c0.3-0.4,0.6-0.7,1.1-0.8c0.2,0,0.3-0.1,0.5-0.2c0.3-0.2,0.5-0.3,0.8-0.5
	c0,0.1-0.1,0.1-0.1,0.2c-0.2,0.2-0.5,0.4-0.7,0.5c-0.1,0.1-0.1,0.1-0.1,0.2c0,0,0.1,0,0.2,0c0.1-0.1,0.3-0.2,0.4-0.3
	c0.3-0.3,0.5-0.6,0.8-0.9c0.2-0.2,0.4-0.4,0.5-0.6c-0.5,0.7-1,1.4-1.7,1.9c-0.1,0.1-0.1,0.2-0.2,0.3c-0.2,0.7-0.6,1.2-1.2,1.6
	c-0.2,0.1-0.4,0.2-0.6,0.2c-0.1,0-0.2,0-0.2,0.2c0,0.6-0.1,1.2-0.1,1.9c0,0.1,0,0.1,0,0.2c0.1,0.2,0.2,0.3,0.4,0.5
	c0.5,0.8,1.1,1.7,1.6,2.5c1.2,2,2.1,4,2.6,6.3c0.1,0.3,0.2,0.6,0.2,0.9c-0.2,0-0.3,0-0.5,0c-0.1,0-0.1,0-0.2-0.1
	c-0.2-1.1-0.5-2.1-0.8-3.1c-0.8-2.1-1.9-4.1-3.1-5.9c-0.1-0.1-0.1-0.2-0.2-0.3c0,0,0,0-0.1,0c-0.1,3.2-0.1,6.3,0.2,9.5
	c-0.2,0-0.4,0-0.6,0c0-0.3,0-0.5,0-0.7c-0.1-2.9,0-5.8,0.1-8.7c0-0.5,0-0.9-0.4-1.2c0,0,0,0,0-0.1c-0.6-0.9-1.3-1.8-1.9-2.6
	c-0.8-1.1-1.6-2.2-2.4-3.3c-0.1-0.1-0.2-0.2-0.3-0.1c-0.2,0.1-0.5,0.2-0.8,0.1c-0.7-0.2-1.3-0.6-1.7-1.3c-0.1-0.1-0.1-0.2-0.2-0.2
	c-0.5-0.3-1-0.6-1.4-1c0,0,0,0-0.1-0.1c0.1,0,0.2,0,0.3,0.1c0.4,0.3,0.9,0.6,1.3,0.8c0.1,0,0.1,0,0.2,0c0.2,0,0.3-0.1,0.5-0.1
	c0.5,0,0.9,0.2,1.3,0.4c0.1,0.1,0.3,0.2,0.4,0.3c-0.1-0.2-0.3-0.4-0.4-0.5c-0.1-0.2-0.3-0.3-0.6-0.3s-0.6-0.1-0.9-0.1
	c-0.7,0-1.2-0.3-1.6-0.8l-0.1-0.1c-0.8-0.4-1.5-0.8-2.3-1.4c-0.2-0.1-0.3-0.2-0.5-0.4c0.2,0.1,0.4,0.2,0.5,0.3
	c0.7,0.5,1.4,0.9,2.1,1.2H13c0.1-0.1,0.2-0.2,0.3-0.3c-0.5-0.1-0.8-0.4-1.1-0.7l-0.1-0.1c-0.2,0-0.4-0.1-0.6-0.1
	c-0.1,0-0.2-0.1-0.3-0.1l0,0c0.3,0,0.6,0.1,0.9,0.1V10c-0.3-0.1-0.6-0.1-1-0.2l0,0c0.2,0,0.3,0,0.5,0l0,0c-0.4-0.2-0.8-0.4-1.2-0.6
	h0.1c0.5,0.2,1.1,0.4,1.6,0.7c0.1,0,0.2,0.1,0.2,0c0.6-0.2,1.1-0.2,1.6,0.1c0.1,0.1,0.2,0.1,0.3,0.2c0-0.1-0.1-0.1-0.1-0.1
	c-0.3-0.4-0.8-0.5-1.3-0.5C12.5,9.7,12,9.5,11.5,9l-0.1-0.1c-0.6-0.3-1.1-0.7-1.7-1c-0.1,0-0.1-0.1-0.2-0.2C9.7,7.8,9.9,7.9,10,8
	c0.4,0.2,0.8,0.5,1.3,0.7c0.1,0.1,0.2,0,0.2,0c0.1-0.2,0.3-0.2,0.5-0.2c0.5,0,0.9,0.2,1.3,0.4L13.4,9l0,0c-0.2-0.2-0.4-0.4-0.7-0.5
	c-0.3,0-0.7,0-1,0c-0.6,0-1.1-0.4-1.5-0.9c0.6-0.4,1.2-0.3,1.8-0.1c-0.1-0.2-0.3-0.3-0.4-0.3c-0.3,0-0.6,0-0.9-0.1
	c-0.2,0-0.3,0-0.5,0c-0.5-0.2-1-0.6-1.4-1C8.6,5.9,8.5,5.8,8.2,5.8c-0.7,0-1.4-0.3-2-0.7C5.7,4.8,5.3,4.4,5.9,4.8
	c0.5,0.3,0.9,0.5,1.4,0.7c0.1,0,0.2,0,0.3,0l0,0C7.3,5.3,7.1,5.2,6.8,5s-0.1-0.1,0,0c0.1,0,0.6,0.3,0.8,0.4c0,0,0.1,0,0.1,0.1l0,0
	C7.6,5.4,7.5,5.3,7.4,5.2c0.1,0,0.1,0,0.2,0c0.2,0.1,0.5,0.2,0.7,0.3c0,0,0.1,0,0.2,0c0.1-0.1,0.2-0.2,0.4-0.2
	c0.4,0,0.8,0.1,1.2,0.2c0.1,0,0.1,0.1,0.2,0.1V5.5C10,5.2,9.6,5,9.2,5C8.5,5,8,4.7,7.6,4.2c-0.2-0.3-0.4-0.6-0.5-1
	C7.2,3.2,7,3,6.8,2.9c-0.3-0.2-0.7-0.5-1-0.8L5.7,2l0,0c0.4,0.3,0.7,0.5,1.1,0.8c0,0,0,0,0.1-0.1c-0.7-0.5-1.4-1.1-2-1.6l0,0
	C5,1,5,1.1,5.1,1.1c0.5,0.4,1,0.8,1.6,1.2c0,0,0.4,0.3,0.5,0.3c0,0,0.1,0,0.1-0.1c0.1,0.1,0.3,0.1,0.4,0h0.1c0.6,0,1,0.3,1.3,0.8
	C9.2,3.5,9.3,3.8,9.4,4c0.1,0.2,0.1,0.3,0.2,0.5c0,0,0,0,0.1,0V4.4C9.6,4.1,9.6,3.9,9.5,3.6c0,0,0-0.1,0.1-0.1s0.2,0,0.2,0
	c0,0.2,0.2,0.5,0.4,0.8s0.2,0.7,0.4,1.1c0.1,0.2,0.1,0.4,0.3,0.6c0,0,0,0,0-0.1V5.8c-0.1-0.3-0.1-0.6-0.2-0.9c0-0.2,0-0.4,0.2-0.5
	c-0.3-0.5-0.4-1-0.8-1.5C9.7,2.3,9.6,2,10,2.6c0.3,0.5,0.7,1,0.9,1.6c0,0.1,0.1,0.1,0.1,0.2c0,0,0,0,0.1,0c0-0.2-0.1-0.3-0.1-0.5
	c0,0,0,0,0,0.1c0.1,0.2,0.2,0.5,0.3,0.7c0.3,0.5,0.6,1.1,0.7,1.7c0,0.3,0.1,0.6,0.2,0.8c0.1,0.2,0.2,0.3,0.3,0.5c0,0,0,0,0.1,0V7.6
	c-0.2-0.5-0.2-0.9-0.2-1.4c0-0.2,0-0.3,0.2-0.4V5.7C12.3,5.3,12.2,5,12,4.8c-0.3-0.5-0.1-0.2,0.5,0.8l0.1,0.1
	C12.9,5.8,13,6,13.1,6.3c0.3,0.7,0.4,1.4,0.4,2.1c0,0.3,0.1,0.6,0.4,0.9c0-0.1,0-0.1,0-0.1c0-0.3-0.1-0.6-0.1-0.9
	c0-0.3,0-0.6,0.2-0.9V7.3c-0.3-0.8-0.7-1.5-1.1-2.3c-0.1-0.2-0.2-0.3-0.3-0.5l0,0c0.6,0.9,1.1,1.8,1.4,2.8c0,0,0,0,0.1,0
	c0-0.1,0-0.1,0-0.2c0.1,0,0.1,0.1,0.1,0.2s0,0.1,0.1,0.2c0.3,0.2,0.4,0.6,0.5,0.9C15,9,15,9.6,15.1,10.2c0,0.2,0,0.5,0.1,0.7
	c0,0.1,0.1,0.2,0.2,0.4c0-0.5,0-0.9,0-1.3c0-0.3,0.1-0.6,0.4-0.8C15.5,8.5,15.3,7.7,15,7c0.2,0.6,0.4,1.2,0.6,1.7
	c0.1,0.2,0.1,0.5,0.2,0.6c0.4,0.7,0.7,1.4,0.6,2.2c0,0.3,0,0.6,0,0.9c0,0.3,0.2,0.5,0.4,0.8c0-0.1,0-0.2,0-0.4
	c-0.1-0.6-0.1-1.1,0.1-1.7c0-0.1,0.1-0.2,0.3-0.2c-0.1-0.5-0.2-0.9-0.3-1.4l0,0c0.1,0.4,0.2,0.9,0.3,1.3c0,0.1,0.1,0.2,0.1,0.3
	c0.4,0.6,0.6,1.3,0.5,2c0,0.3-0.1,0.5-0.3,0.7c-0.1,0.2-0.1,0.2,0,0.4c0.5,0.6,0.9,1.2,1.4,1.8c1,1.3,1.9,2.6,2.8,3.9
	c0,0.1,0.1,0.1,0.2,0.2c0-0.6,0.1-1.1,0.1-1.6l-0.1-0.1c-0.3-0.1-0.5-0.3-0.6-0.5c-0.4-0.6-0.4-1.3-0.3-2.1c0-0.1,0-0.1,0-0.2
	c-0.2-0.7-0.4-1.5-0.5-2.2c0-0.2-0.1-0.4-0.1-0.5l0.1,0.1c0.2,0.8,0.4,1.6,0.6,2.4c0,0.2,0.1,0.2,0.2,0.1c0.1,0,0.2,0,0.2,0.1
	c0.4,0.4,0.6,0.9,0.6,1.4c0,0.2,0.1,0.5,0.1,0.7c0-0.1,0.1-0.1,0.1-0.2c0-0.3,0.1-0.5,0.1-0.8c0-0.1,0-0.2-0.1-0.3
	c-0.1-0.2-0.2-0.4-0.3-0.6c-0.3-0.5-0.6-1-0.5-1.6c0-0.4,0.1-0.7,0.1-1.1c0,0.1,0,0.2,0.1,0.3c0,0,0,0,0.1,0
	c-0.1-0.5-0.1-0.9-0.2-1.4c0,0,0,0,0.1,0c0,0.2,0.1,0.4,0.1,0.5c0.1,0.4,0,0.8,0.4,1l0.1,0.1c0.1,0.3,0.3,0.7,0.4,1
	c0.1,0.2,0.1,0.4,0.1,0.6c0.1-0.4,0.1-0.8-0.1-1.1c-0.2-0.5-0.5-0.9-0.6-1.4c0-0.2,0-0.4-0.1-0.6c-0.2-0.6-0.4-1.1-0.5-1.7
	c0-0.1,0.1,0.4,0.6,1.6c0-0.2,0.1-0.3,0-0.5c-0.1-0.4-0.2-0.8-0.3-1.2s0-0.2,0,0c0,0.1,0.1,0.1,0.1,0.2c0.1,0.2,0.1,0.5,0.2,0.7
	c0,0.1,0.1,0.2,0.1,0.3h0.1c0-0.7-0.2-1.4-0.2-2.1v0.1c0.1,0.5,0.2,1.1,0.2,1.6c0,0.1,0.1,0.3,0.2,0.4c0.4,0.4,0.6,1,0.6,1.6
	c0,0.1,0,0.1,0,0.2c0.1-0.6,0.1-1.1-0.2-1.6c-0.3-0.5-0.5-1-0.5-1.6c0-0.4,0-0.7-0.1-1.1c-0.3-1-0.4-1.9-0.4-2.9l0,0
	c0.2,2.7,0.3,3.4,0.5,3.5c-0.1-1.1-0.2-2.2-0.2-3.3c0.1,0.5,0.1,1.1,0.2,1.6c0,0.4,0.1,0.8,0.1,1.2c0,0.2,0.1,0.3,0.2,0.4
	c0.2,0.2,0.3,0.4,0.4,0.6c0.2,0.4,0.3,0.8,0.3,1.2c0-0.1,0-0.1,0-0.1c0.1-0.5,0-0.9-0.3-1.3c-0.1-0.5-0.3-1-0.4-1.5
	c0-0.1,0-0.3-0.1-0.4c-0.1-0.5-0.2-1-0.2-1.5c-0.1-0.6-0.2-1.2-0.2-1.9c0-0.3-0.1-0.6-0.1-0.8c0-0.3,0-0.6,0-0.8l0,0
	c0.2,1.6,0.4,3.2,0.6,4.9c0.1,0,0.1,0,0.1-0.1c0-0.2,0.1-0.2,0.2-0.2s0.2,0,0.2,0.1c0.2,0.2,0.3,0.5,0.4,0.7c0.1,0.3,0.1,0.7,0.2,1
	c0-0.5,0-0.9-0.2-1.4c-0.1-0.2-0.2-0.4-0.2-0.5c0-0.3,0-0.7,0-1c0-0.2,0-0.3,0-0.5c0-0.6-0.1-1.2-0.1-1.8l0,0c0,0.7,0.1,1.3,0.2,2
	c0.2-0.1,0.3,0,0.3,0.2c0.1,0.4,0.2,0.7,0.3,1.1c0,0.1,0,0.2,0.1,0.4c0-0.1,0-0.2,0.1-0.2l-0.1-0.1c-0.1-0.4-0.1-0.7-0.2-1
	c-0.2-0.6,0-1.1,0.4-1.5c0.1-0.1,0.2-0.2,0.2-0.4c0.1-0.8,0.1-1.6,0.2-2.4c0,0,0,0,0.1,0c-0.1,0.7-0.2,1.4-0.2,2.1h0.1
	c0.2-1,0.4-2,0.6-3c0,0.1,0,0.3,0,0.4c-0.2,1-0.3,2-0.5,3c0,0.1,0,0.2,0,0.3c0.1,0.4,0.3,0.7,0.2,1.1c-0.1,0.4-0.3,0.7-0.5,0.9
	c-0.1,0.2-0.3,0.3-0.3,0.6c0-0.1,0.1-0.1,0.1-0.2c0.2-0.2,0.4-0.5,0.7-0.7c0.2-0.2,0.4-0.1,0.4,0.2v0.1V7c0.3-0.6,0.5-1.2,0.7-1.8
	c0-0.1,0.1-0.1,0.1-0.2c0-0.2,0.1-0.3,0.1-0.5c0.1-0.1,0.1-0.3,0.2-0.5c0,0,0,0,0.1,0c-0.1,0.3-0.2,0.7-0.3,1c0,0.1,0,0.1-0.1,0.2
	C26,6,25.8,6.7,25.5,7.4c-0.1,0.7-0.5,1.2-1,1.6c-0.3,0.3-0.6,0.6-0.7,1c0.2-0.2,0.3-0.3,0.4-0.5c0.3-0.3,0.5-0.5,1-0.5l0.1-0.1
	c0.3-0.6,0.6-1.1,0.9-1.7c0.3-0.7,1-2.3,0.9-2c-0.1,0.3-0.3,0.7-0.4,1.1c-0.4,0.9-0.8,1.9-1.3,2.8c-0.1,0.1,0,0.4-0.1,0.6
	c0,0,0,0,0.1,0c0.4-0.8,0.8-1.5,1.3-2.2c-0.1,0.1-0.2,0.3-0.3,0.5c-0.4,0.6-0.8,1.2-1.1,1.8C25,10.4,24.6,11,24,11.3
	c-0.4,0.3-0.6,0.6-0.6,1.1c0.1-0.1,0.1-0.1,0.1-0.2c0.2-0.2,0.3-0.4,0.5-0.6c0.2-0.2,0.5-0.4,0.8-0.4h0.1c0.1-0.2,0.2-0.3,0.3-0.4
	c0.3-0.4,0.6-0.8,0.9-1.2c0-0.1,0.1-0.2,0.2-0.3c-0.1,0.2-0.2,0.4-0.3,0.6c-0.3,0.4-0.5,0.9-0.9,1.2c0,0-0.1,0.1,0,0.1
	c0,0.1,0.1,0.2,0.1,0.3c0.3-0.3,0.5-0.6,0.8-0.9l0,0c-0.1,0.2-0.2,0.3-0.3,0.5l0,0c0.1,0,0.1-0.1,0.2-0.1l0,0
	c-0.2,0.2-0.4,0.4-0.6,0.6c-0.1,0.2-0.2,0.3-0.3,0.4c-0.1,0.1-0.1,0.3-0.2,0.5c-0.4,0.5-0.8,0.8-1.3,1.1c-0.1,0-0.2,0.1-0.2,0.2
	c-0.2,0.2-0.3,0.5-0.4,0.8l0,0C23.3,14.1,23.7,13.5,24.5,13.4"/>
</svg>
