<?xml version="1.0" encoding="utf-8"?>
<!-- Generator: Adobe Illustrator 25.4.1, SVG Export Plug-In . SVG Version: 6.00 Build 0)  -->
<svg version="1.1" id="saccharomyces_x5F_cerevisiae"
	 xmlns="http://www.w3.org/2000/svg" xmlns:xlink="http://www.w3.org/1999/xlink" x="0px" y="0px" viewBox="0 0 32 32"
	 style="enable-background:new 0 0 32 32;" xml:space="preserve">
<g>
	<path id="path3" d="M4,5.9000001c0.3956523,0.7484274,1.4851317,1.2916451,2.2999997,1.5
		c-1.5400386,1.705502-0.4428296,4.793324,1.2000666,5.8000693c4.4049869,3.6205959,9.6068954-1.8149366,6.1998687-5.2005816
		c-1.7185326-1.2911067-3.6974068-2.8231773-5.6998348-2.0996523C8.5025759,1.9576265,1.8541175,0.9146121,4,5.9000001L4,5.9000001z
		"/>
	<path id="path3_1_" d="M26.8999996,15.3999996c-0.7000008-0.3000002-1.7999992-0.5-2.5,0
		c-0.2283497,0.0597668-0.162817-0.5273314-0.2000008-0.8000002c-0.0840721-0.6165028-0.4019527-1.0138531-0.6000004-1.3000002
		c-2.3258171-3.3604279-8.4511156-1.9452639-8.6999598,1.4000635C14.0169039,19.6457176,20.7632065,20.317812,23,18.0999985
		c1.2972622-1.3967419-0.1423206,0.3099556,2.5999889,1.1000538C28.3811588,20.1638203,29.7801781,16.3737621,26.8999996,15.3999996
		L26.8999996,15.3999996z"/>
	<path id="path3_2_" d="M18.7999992,19.7999992c-0.7922783,0.389534-1.4868431,1.0276623-1.8999996,1.8999996
		c-0.6132603-0.4425545-0.9694862-1.0012836-1.9000006-1C3.4779658,20.7158928,10.60602,35.360939,17.917263,26.0232086
		c0.5242424-0.669548,0.1314049-1.6845055-0.0172729-2.3232403C21.8801441,24.849781,23.9794483,18.4112492,18.7999992,19.7999992
		L18.7999992,19.7999992z"/>
</g>
</svg>
