<?xml version="1.0" encoding="utf-8"?>
<!-- Generator: Adobe Illustrator 25.4.1, SVG Export Plug-In . SVG Version: 6.00 Build 0)  -->
<svg version="1.1" id="escherichia_coli" xmlns="http://www.w3.org/2000/svg" xmlns:xlink="http://www.w3.org/1999/xlink" x="0px"
	 y="0px" viewBox="0 0 32 32" style="enable-background:new 0 0 32 32;" xml:space="preserve">
<style type="text/css">
	.st0{fill:#020203;}
</style>
<g transform="translate(0.000000,1536.000000) scale(0.100000,-0.100000)">
	<path class="st0" d="M167.9,15349.8c-2.6-0.4-6.8-2.8-9.3-5.2c-1.4-1.3-1.9-2.6-1.9-4.5c0-2.2,0.6-3.2,3.2-5.8
		c1.3-1.2,2.9-2.7,3.7-3.2c2.8-1.8,6.5-3.5,12.2-5.5c10.5-3.7,18.1-7.4,24.9-12.4c2.5-1.8,4.2-2.7,6.4-3.4c5.5-1.8,11.4-2.6,21-2.9
		c3.2-0.1,6.1-0.3,6.5-0.4c1.5-0.4,0.9,0.8,9.1-19.3c2.6-6.5,5.2-13,5.6-14.6c1-3,1.5-4,4.4-8c1.7-2.3,2.5-3.4,6.6-8.6
		c3.9-5,6.9-10.6,8.5-15.9c0.3-0.9,1-4.3,1.7-7.4c1.3-6.3,1.5-7,2.5-8.6c0.8-1.3,1.9-2.2,3.7-3c1.3-0.6,1.5-0.6,3.5-0.6
		c2.7,0,4.4,0.5,6.4,1.9c4.2,2.8,6,7.1,6.3,14.7c0.2,4.9,0,5.6-3.8,16.4c-3.5,9.9-5.6,15-13.4,32.2c-4.4,9.7-10.6,24-10.7,24.6
		c0,0.1,1.3,0.5,2.8,0.9c1.6,0.4,3.3,0.9,3.8,1.2c1.9,1,3.5,3.2,4.2,6.1c1.8,7.1-1.8,12-9.1,12.3c-1.9,0.1-3,0-7.9-0.7
		c-7-1-7.7-1-9.4-0.2c-4.3,2-7.8,1.4-13-2.2l-1.8-1.3l-0.9,0.2c-0.5,0.1-2.2,0.3-3.8,0.4c-5.2,0.4-10.2,1.5-14.9,3.5
		c-1.2,0.5-4.6,2.2-7.7,3.8c-6.9,3.6-21.6,10.9-24.5,12.2c-2.5,1.1-7.1,2.5-9.6,3.1C171.4,15350.1,169.6,15350.1,167.9,15349.8z"/>
	<path class="st0" d="M56.4,15344.7c-5.2-1.1-10.2-5.5-11.9-10.5c-0.5-1.3-0.9-4.7-0.9-7.4c0-5.6,0.9-11,3.3-19.3
		c1.5-5.4,1.8-7.1,1.7-10c-0.1-1.2-0.1-2.5-0.1-2.7c0-0.3,0.1-1.9,0.3-3.6c0.2-1.7,0.4-4.3,0.5-5.7c0.2-3,0.2-10.1,0.7-13
		c0.4-2.3,1-3.4,2.9-5.3c1.7-1.7,3.7-2.8,6.3-3.5c2.3-0.6,6.3-0.6,8.8,0c2.2,0.5,4.6,1.7,6,2.9c3.8,3.1,6.1,9.1,5.4,14.4
		c-0.2,1.4-0.6,3-2,7c-2.5,7.4-2.7,8.3-3.3,14.5c-0.5,5.4-0.8,9.7-1,17.6c-0.2,7.4-0.3,8.4-1.3,11.5c-1.4,4.2-4,8-7.7,11.4
		c-1.2,1.1-1.9,1.5-2.6,1.8C60.4,15345,58,15345,56.4,15344.7z"/>
	<path class="st0" d="M171.6,15307c-5.4-1-10.1-3.8-13.1-7.8c-1.2-1.6-2.5-4-2.9-5.6c-0.2-0.6-0.8-4.6-1.4-8.9
		c-1.7-12.4-2.7-17.5-4.9-25.5c-5.4-19.5-5.1-18.2-5.5-24.2c-0.4-6.5-0.8-9-2.2-13.4c-0.4-1.2-1-2.8-1.3-3.6c-1-2.3-1.3-3.6-1.3-5.6
		s0.4-3.5,1.4-5.4c1.9-3.7,5.7-6.7,9.6-7.5c2.7-0.6,6-0.2,8.6,1.2c4.2,2.1,6.8,5.9,10,14.3c3.2,8.5,4.9,16.3,6.6,29.3
		c2.4,18.5,3.7,25.2,7.1,35.2c1.9,5.6,2.1,6.7,3.1,12.4c0.5,3,0.6,4.2,0.5,4.4c-0.1,0.1-0.2,0.9-0.2,1.7c0,1.5,0,1.6-1.2,3.9
		c-0.9,1.7-1.5,2.7-2.3,3.5c-1,1-1.2,1.1-2.5,1.4C177.4,15307.2,173.5,15307.3,171.6,15307z"/>
	<path class="st0" d="M95,15303.3c-3.7-0.5-6.7-1.5-10.2-3.2c-3.2-1.6-5.8-3.6-6.4-4.7c-0.7-1.4-0.7-1.8,1.7-9.6
		c0.6-2,1.1-4,1.2-5.2c0.7-5.6-1.7-11.6-6.1-15.3c-1.7-1.4-4.7-2.9-7.1-3.5c-1.7-0.4-2.3-0.5-5-0.5c-3.3,0-4.5,0.2-6.8,1.2
		c-2.6,1.2-5.1,3.3-6.7,5.9c-0.8,1.2-1,1.6-2.5,4.9c-0.4,0.9-0.8,1.7-0.9,1.8c-0.1,0.2-9.9-5.7-16.6-9.9c-5.5-3.5-7.3-6.1-8.3-12
		c-0.6-3.6-0.2-6.3,1.4-9.6c1.7-3.4,5-6.2,8.2-6.9c1.9-0.4,3.8-0.1,7,1c7.6,2.5,14.2,5.9,28.9,14.8c12.5,7.5,15.6,9.3,26.2,14.6
		c14.9,7.5,20.1,11.4,22.3,16.9c2,4.9,0.3,11-4.5,16c-2.1,2.3-3.4,2.8-7.1,3.3C101.1,15303.6,97.6,15303.6,95,15303.3z"/>
	<path class="st0" d="M286.3,15296.5c-0.4-0.1-1.4-0.4-2.1-0.8c-2.1-0.9-7-3.8-7.6-4.5c-1-1-0.9-1.6,1.8-7.4
		c1.3-2.9,4.2-9.3,6.4-14.4c2.2-5,4.1-9.2,4.1-9.2s0.3-0.1,0.6-0.1c0.6-0.1,0.6,0,1.9,3.4c0.7,1.9,1.6,4.5,1.9,5.8
		c0.4,1.8,0.8,2.9,1.6,4.4c1.9,3.7,2.4,6.9,1.8,11.6c-0.2,1.4-0.5,3.1-0.6,3.7c-1,3.8-3.9,6.8-7.3,7.5
		C287.6,15296.7,287.5,15296.7,286.3,15296.5z"/>
	<path class="st0" d="M250.3,15264.2c-0.9-1.7-3.1-4.9-4.7-6.9c-1.9-2.4-4.3-4.9-8-8.4c-1.1-1-2.3-2.2-3.7-3.4
		c-2.9-2.7-11.6-10.6-13.4-12.2c-2.1-1.9-5.3-5.1-9-9c-10-10.7-16.2-16.8-22.1-21.7c-2.7-2.2-3.1-2.7-4-4.1c-1.5-2.4-1.6-5.6-0.5-9
		c1.9-5.6,5.1-7.6,11.2-7.2c5.9,0.4,9.8,1.6,12.3,3.9c1.8,1.7,2.6,3.3,3.1,6.9c1.1,7,2.9,15.4,4.1,19.1c2.7,8.3,7.5,13.4,14.2,15.4
		c2.1,0.6,5.8,0.7,8,0.3c3.6-0.7,6.4-2.3,9.1-4.9c0.8-0.8,1.5-1.5,1.6-1.5s10.4,8.4,15,12.3c1.2,1,2.4,2.2,2.7,2.6
		c0.9,1.3,0.9,1.8-0.1,5c-1.5,4.6-4,9.4-7.7,14.3c-1.3,1.8-7.4,9.6-7.5,9.6C250.8,15265.1,250.6,15264.7,250.3,15264.2z"/>
	<path class="st0" d="M233.7,15226.4c-5.4-0.8-10.4-3.8-13.1-7.8c-3.1-4.6-5.7-14.2-8.2-30c-0.8-4.9-1-7.3-0.7-10.2
		c0.3-4.2-0.3-6.8-2.6-11.3c-0.9-1.8-1.3-2.7-1.6-4.5c-1.6-7.2-4-12.5-11.2-24.3c-6.7-11.1-8.6-14.7-12-23.1
		c-2.1-5.3-3.3-7.6-5.2-10.4c-2.5-3.6-3.2-5.5-3.2-8.3c0-2.9,0.8-5,2.9-7.6c1.9-2.4,4.2-4.3,6.7-5.5c3.3-1.5,7-1.6,10.3-0.1
		c5,2.3,12.5,10.7,18.6,20.9c2,3.4,5.6,10.7,7.3,15.1c1.3,3.4,2.2,5.8,5.3,15.7c1.3,3.9,2.6,7,5.4,11.9c3.6,6.4,5.6,11,7.5,16.8
		c1.9,6,2.9,11.6,3.5,19.3c0.6,8.3,1.2,12.3,3.1,18.9c1,3.3,2.2,9.5,2.4,11.6c0.1,1.1,0,1.7-0.3,2.8c-1.2,3.8-4.1,7.8-6.9,9.2
		C240,15226.3,236.2,15226.7,233.7,15226.4z"/>
	<path class="st0" d="M93.9,15203.7c-1.8-0.3-4.2-1.1-5.5-1.9c-1.6-0.9-4.5-3.7-6-5.8c-2.9-3.9-4.6-7.6-6.7-14.9
		c-0.5-1.8-1.7-5.2-2.7-7.7c-2.8-7.4-3-8.1-3-9.4c0-2.5,0.5-3.8,2.7-7.1c3.4-5,7.9-9.4,16.1-15.7c1.8-1.4,3.2-2.5,3.3-2.5
		c0.1,0,3.2,6.1,6.9,13.5c7.3,14.5,8,16.1,8.8,20.5c1.5,7.5,1,15.1-1.6,23.7c-0.8,2.7-1.6,4.3-2.6,5.1
		C101.6,15203.4,97.7,15204.3,93.9,15203.7z"/>
	<path class="st0" d="M32.6,15201.7c-5.5-1.3-10.1-6.1-11.7-12.3c-1-3.7,0-10.4,2.2-15.8c1.6-3.8,2.6-5.4,7.9-13.3
		c2.1-3.1,6-8.8,8.6-12.7c7-10.5,8.5-12.2,14.3-16.5c4.4-3.2,6.8-5.4,9.8-8.5c4.2-4.4,4.9-5.3,15.2-20.9c5-7.5,10.1-14.7,13.2-18.4
		c6.6-7.9,17.5-14.6,39.8-24.1c9.4-4.1,21-8.3,24.2-8.9c5.3-1,9.5,0.6,12.7,4.8c1.4,1.9,3.6,6.2,4,8c0.9,3.5-0.3,6.7-3.1,8.9
		c-1.8,1.4-7.6,4.4-13.9,7.2c-11.3,5-18.7,9.4-25.3,15.3c-2.2,2-3.6,3.5-8.1,8.9c-5.6,6.8-13.5,15.3-22.5,24.5
		c-5.6,5.7-9,8.8-13.5,12.6c-5.8,4.8-11.6,10.8-17.2,17.9c-2.4,3.1-2.9,3.8-5.3,8.2c-2.6,4.8-12.1,20.2-17,27.6
		c-3,4.5-4.9,6.3-8,7.3C37.1,15201.9,34.3,15202.1,32.6,15201.7z"/>
	<path class="st0" d="M244.7,15147.5c-2.9-1-6.2-4.3-7.7-7.5c-1-2.2-1.1-3-1.1-7.5c0-3.5,0.1-4.4,0.4-6c1.3-5.7,3.8-10.4,7.9-15
		c2-2.1,2.7-3.2,6-8.6c4.6-7.7,6-10.1,8.5-15c3.3-6.6,5.4-9.9,8.9-14c3.2-3.8,8.5-8.9,12.6-12c3.2-2.4,4.5-2.9,7.6-2.6
		c4.5,0.5,7,1.3,8.9,3.2c1.8,1.7,2.8,3.9,2.8,6.4c0,2.9-2,7.2-5.6,12.4c-3.8,5.4-5.1,6.9-8.6,10.5c-5.9,5.9-6.7,7.1-13.7,19.9
		c-9.8,18.1-14.4,26.5-15.6,28.1c-1.3,1.9-6.2,6.7-7.3,7.2C247.4,15147.9,245.9,15148,244.7,15147.5z"/>
	<path class="st0" d="M51.4,15128.4c-1.6-3.1-8.3-19.2-9.4-22.6c-0.4-1.1-1-3.5-1.3-5.5c-0.8-4-1.5-6-6.2-17.6
		c-3.4-8.4-3.7-9.6-3.4-11.9c0.4-2.5,1.4-4.5,3.7-6.8c2-2.1,4.2-3.6,6-4.3c1.7-0.7,4.9-0.7,6.9,0c3.5,1.2,7.2,4.6,11.3,10.8
		c2.6,3.9,4.4,7.3,6.9,13.2c0.6,1.4,2.4,5.5,4,9.2c5,11.2,4.7,10.2,2.7,14.1c-3.1,6-7.1,11.2-12.5,16.6c-2.7,2.7-7.1,6.5-7.5,6.5
		C52.4,15130.1,51.9,15129.3,51.4,15128.4z"/>
</g>
</svg>
