<?xml version="1.0" encoding="utf-8"?>
<!-- Generator: Adobe Illustrator 27.6.1, SVG Export Plug-In . SVG Version: 6.00 Build 0)  -->
<svg version="1.1" id="plasmodium" xmlns="http://www.w3.org/2000/svg" xmlns:xlink="http://www.w3.org/1999/xlink" x="0px" y="0px"
	 viewBox="0 0 32 32" style="enable-background:new 0 0 32 32;" xml:space="preserve">
<g>
	<g>
		<path d="M9.939,8.651c0.582,1.163,1.661,1.994,3.074,1.994c0.665,0,1.246-0.083,1.661-0.332c1.578-0.831,1.911-3.157,0.997-4.901
			C15.089,4.331,14.009,3.5,12.597,3.5l0,0c-0.665,0-1.246,0.166-1.661,0.332C9.274,4.746,9.025,6.989,9.939,8.651z M13.179,6.574
			c0.415,0.748-0.415,1.828-1.163,1.163S12.514,5.577,13.179,6.574z"/>
		<path d="M8.526,20.613L8.526,20.613c-0.748-0.498-1.578-0.498-2.243-0.166c-0.997,0.498-1.495,1.661-0.997,2.658
			c0.166,0.249,0.332,0.498,0.665,0.748c0.914,0.748,1.745,0.748,2.326,0.415c0.997-0.498,1.495-1.828,0.914-2.825
			C9.108,21.112,8.859,20.862,8.526,20.613z M6.782,22.69c-0.498-0.498,0.415-1.578,0.831-0.831
			C7.945,22.441,7.363,23.272,6.782,22.69z"/>
		<path d="M26.886,18.703c0-0.415-0.166-0.831-0.332-1.163c-0.748-1.495-2.741-1.994-4.154-1.329
			c-0.831,0.415-1.412,1.246-1.412,2.658c0,0.665,0.166,1.246,0.415,1.661c0.748,1.495,2.575,1.828,3.904,1.08
			C26.304,21.195,27.052,20.198,26.886,18.703L26.886,18.703L26.886,18.703z M24.726,18.869c-0.332,0.831-1.745,0.914-1.661-0.166
			C23.147,17.706,25.141,17.706,24.726,18.869z"/>
		<path d="M25.723,10.644L25.723,10.644c1.163-0.582,1.329-1.828,0.831-2.741c-0.415-0.748-1.163-1.246-2.409-0.748
			c-0.083,0-0.166,0.083-0.166,0.083c-1.246,0.665-1.329,1.661-0.914,2.575C23.563,10.644,24.56,11.226,25.723,10.644z
			 M24.726,8.318c0.665-0.249,1.163,1.08,0.332,1.08C24.477,9.398,24.061,8.568,24.726,8.318z"/>
		<path d="M15.754,15.546c-0.498-0.997-1.828-1.329-2.658-0.831c-0.498,0.249-0.914,0.748-0.914,1.745
			c0,0.498,0.083,0.831,0.249,1.163c0.498,0.914,1.661,1.163,2.575,0.748c0.582-0.332,1.08-0.914,0.997-1.911
			C15.92,16.044,15.837,15.795,15.754,15.546z M14.591,16.46c-0.249,0.582-1.246,0.582-1.163-0.083
			C13.511,15.629,14.84,15.629,14.591,16.46z"/>
		<path d="M16.502,23.189c-0.582,0.332-1.246,0.997-1.495,1.745c-0.332,0.748-0.332,1.578,0,2.243
			c0.083,0.166,0.249,0.415,0.415,0.582c0.914,0.831,1.661,0.914,2.409,0.498c1.163-0.582,1.911-2.492,1.163-3.988
			c0-0.083-0.083-0.083-0.083-0.166l0,0C18.08,22.856,17.332,22.856,16.502,23.189z M16.585,26.013
			c-0.332-0.332,0.249-1.163,0.582-0.582C17.332,25.847,16.917,26.428,16.585,26.013z"/>
	</g>
</g>
</svg>
