<?xml version="1.0" encoding="utf-8"?>
<!-- Generator: Adobe Illustrator 27.6.1, SVG Export Plug-In . SVG Version: 6.00 Build 0)  -->
<svg version="1.1" id="c_x5F_elegans" xmlns="http://www.w3.org/2000/svg" xmlns:xlink="http://www.w3.org/1999/xlink" x="0px"
	 y="0px" viewBox="0 0 32 32" style="enable-background:new 0 0 32 32;" xml:space="preserve">
<path d="M27.206,6.075c0,0-4.797-2.958-8.875-1.039c-3.198,1.839-4.397,5.517-3.278,8.955c0.64,2.399,3.038,7.835-0.32,9.754
	s-5.916-0.8-6.556-1.519C5.699,19.347,3.78,11.032,4.02,11.831c0,0.08-0.24,3.038,1.919,10.794c1.439,4.797,5.916,5.117,7.595,4.957
	c4.237-0.48,5.837-3.118,6.316-4.957c0.879-3.118-0.8-7.675-1.359-9.754c-0.4-2.079-0.24-5.597,2.718-6.076
	c2.718-0.48,4.797,0.48,5.437,0.72C27.926,8.074,28.646,6.954,27.206,6.075z"/>
</svg>
