<?xml version="1.0" encoding="utf-8"?>
<!-- Generator: Adobe Illustrator 25.4.1, SVG Export Plug-In . SVG Version: 6.00 Build 0)  -->
<svg version="1.1" id="drosophila_x5F_melanogaster"
	 xmlns="http://www.w3.org/2000/svg" xmlns:xlink="http://www.w3.org/1999/xlink" x="0px" y="0px" viewBox="0 0 32 32"
	 style="enable-background:new 0 0 32 32;" xml:space="preserve">
<style type="text/css">
	.st0{fill:#020203;}
</style>
<g transform="translate(0.000000,664.000000) scale(0.100000,-0.100000)">
	<path class="st0" d="M142.2,6577.6c0-0.2,1.2-1,2.6-1.9c2.2-1.4,4.8-3.7,6.6-6c0.5-0.6,0.5-0.6-0.1-1.7c-0.3-0.6-0.6-1.5-0.6-1.9
		c0-0.7,0.7-2.3,1.4-3.1c0.3-0.4,0.4-0.6,0.1-0.9c-0.2-0.2-1.6-0.8-2.1-0.8c-0.3,0-0.6-0.2-0.7-0.4c-0.2-0.5-1.3-0.6-2.4-0.1
		c-0.6,0.2-0.9,0.2-1.1-0.1c-0.1-0.2-0.6-0.4-1.1-0.3c-0.5,0.1-0.8,0-0.8-0.2c0-0.2-0.2-0.3-0.4-0.3c-0.3,0-0.8-0.3-1.2-0.7
		c-0.4-0.4-0.9-0.7-1-0.7c-0.5,0-3.5-3.3-3.7-4.1c-0.1-0.5-0.4-0.9-0.6-1s-0.4-0.4-0.4-0.7c0-0.3-0.2-0.7-0.5-0.9s-0.5-0.6-0.5-1
		c0-0.4-0.1-0.8-0.3-0.8c-0.1,0-0.2-0.3-0.2-0.6c0-0.3-0.1-0.6-0.3-0.8c-0.2-0.1-0.4-0.8-0.5-1.6c-0.1-0.8-0.3-1.5-0.4-1.7
		c-0.5-0.7-0.6-2.6-0.1-3.1c0.2-0.3,0.5-0.9,0.5-1.5c0.1-1.6,1-3.5,1.5-3.5c0.4,0,1.7-1.4,1.8-1.9c0.2-1.2,0.4-1.3,1.8-1.1
		c0.8,0.1,2,0.5,2.7,0.9c0.7,0.4,1.3,0.7,1.4,0.6c0.1,0-0.4-0.6-1-1.2c-0.8-0.8-1.2-1.1-1.7-0.9c-0.4,0.1-0.8,0-1-0.2
		c-0.3-0.3-0.3-0.4,0.3-0.9l0.7-0.5l-1.2-0.5c-0.7-0.3-1.3-0.7-1.3-0.9c0-0.3,0.2-0.3,0.5-0.2c0.3,0.1,0-0.4-0.7-1.2
		c-0.6-0.8-1.5-1.8-1.9-2.3c-0.7-0.9-0.8-0.9-1.6-0.4c-0.6,0.3-0.9,0.4-1.1,0.1c-0.3-0.5-1.4,0.8-1.4,1.6c0,0.4-0.2,1.6-0.4,2.7
		c-0.2,1.1-0.5,3.1-0.6,4.2c-0.1,1.2-0.3,2.8-0.4,3.6c-0.6,3.1-2.2,6.5-3.1,6.5c-0.2,0-0.8,0.5-1.2,1.1c-0.4,0.6-1.3,1.6-1.9,2.2
		c-0.6,0.6-1.6,1.9-2.4,2.9c-0.7,1-1.5,1.8-1.7,1.8c-0.2,0-0.5,0.4-0.7,0.9c-0.4,0.9-0.7,1.1-1,0.5c-0.1-0.3-0.3-0.1-0.8,0.4
		c-1.9,2.2-4,4.4-4.3,4.4c-0.4,0-2.3,1.9-2.6,2.5c-0.1,0.2-0.5,0.4-0.9,0.4c-0.4,0-0.9,0.2-1.1,0.5c-0.5,0.6-2.1,1.7-4.4,2.8
		c-1.5,0.8-1.9,0.9-2.5,0.6c-0.4-0.2-0.8-0.5-0.8-0.6c0-0.5,2.1-2.3,3.3-2.8c0.7-0.3,1.6-0.9,1.9-1.4c0.4-0.4,1-0.9,1.5-1
		c0.5-0.1,0.9-0.4,1.1-1c0.2-0.5,0.8-1.1,1.8-1.5c0.8-0.4,1.4-0.9,1.4-1.1c0-0.5,2.5-3,4-4c0.7-0.4,1.2-0.8,0.9-0.8
		c-0.3,0-0.3-0.1,0.1-0.5c0.3-0.3,0.5-0.6,0.5-0.8c0-0.1,1-1.2,2.2-2.4c1.2-1.2,2.3-2.4,2.4-2.7c0.1-0.3,0.7-0.9,1.4-1.4
		c1-0.7,1.2-1,1-1.7c-0.1-0.4,0-0.9,0.2-1.2c0.3-0.3,0.3-0.3,0-0.2c-0.6,0.4-0.1-2.8,1-5.9c0.2-0.7,0.3-1.4,0.2-1.6
		c-0.1-0.2,0-0.6,0.3-0.9c0.3-0.3,0.4-0.8,0.4-1c-0.1-0.4,0.3-1.6,1.6-4.1c0.1-0.3,0.2-0.7,0.1-1c-0.1-0.2,0-0.4,0.1-0.4
		s0.6-0.4,0.9-0.9c0.7-1.1,0.8-1.6,0.2-1.2c-0.2,0.2-0.8,0.5-1.2,0.6c-0.8,0.3-0.7,0.1,0.8-1.4c0.9-0.9,1.7-1.9,1.7-2
		c0-0.2,0.2-0.6,0.5-0.9c0.3-0.3,0.8-0.9,1.1-1.4c0.3-0.4,0.7-0.8,0.8-0.8s0.6-0.3,1-0.6c0.5-0.4,0.6-0.6,0.4-0.8
		c-0.2-0.1-0.1-0.4,0.4-0.6c0.9-0.5,1-0.8,0.2-1.3c-0.3-0.2-0.8-0.8-1-1.3c-0.6-1.1-0.7-1.2-1.6-0.5c-0.6,0.5-0.7,0.5-0.4-0.1
		c0.2-0.3,0.5-0.6,0.6-0.7c0.2-0.1,0.2-0.4,0.1-0.9c-0.1-0.5-0.6-1-1.5-1.4l-1.4-0.6l-1.3,1.2c-1.3,1.3-2.2,1.8-5.7,3.5
		c-2,1-2.7,1-1.2,0c0.5-0.3,0.9-0.6,0.8-0.6c-0.4,0-3.4,1.2-4.6,1.7c-2.4,1.2-3.2-0.5-1.1-2.4c1.7-1.5,1.1-3.1-0.9-2.3
		c-1.3,0.5-4,1.2-4.6,1.2c-0.4,0-0.7-0.2-0.8-0.6c-0.2-0.8-0.8-0.7-2.1,0.1c-0.6,0.4-1.4,0.9-1.8,1.1c-2.9,1.6-5.9,4.3-5.9,5.3
		c0,0.2,0.5,0.5,1,0.8c0.9,0.4,1.2,0.4,2.9-0.2c1-0.4,3.2-1.3,4.7-2.1c3.6-1.8,4.6-1.9,4.2-0.3c-0.1,0.4-0.4,0.7-0.8,0.8
		c-0.3,0.1-1,0.5-1.5,0.9s-1,0.6-1.1,0.5c-0.2-0.1-3.4,1.5-4.1,2.1c-0.3,0.2-0.5,0.4-0.6,0.3c-0.3-0.3-3.2,0.8-3.7,1.4
		c-0.3,0.4-0.7,0.6-0.9,0.6s-0.5,0.1-0.7,0.4c-0.5,0.6-0.9,0.6-0.7-0.1c0.1-0.4-0.1-0.5-0.9-0.5c-0.6,0-1.1,0.1-1.1,0.2
		c0,0.2-2.3,1.9-4.3,3.1c-2.3,1.4-6.1,3.3-8.3,4.2c-1.1,0.4-2.9,1.1-3.9,1.5c-1.1,0.4-3.2,1.2-4.7,1.6c-1.5,0.5-3.1,1-3.4,1.1
		c-1.4,0.6-9.6,2.4-14.1,3.1c-1.4,0.2-2.7,0.5-2.9,0.6c-0.6,0.4-8.6,1-14.1,1.1c-5.9,0.2-11.4-0.4-16.1-1.6
		c-0.5-0.1-1.3-0.3-1.7-0.4c-0.4-0.1-0.8-0.3-0.6-0.4c0.1-0.1-0.1-0.3-0.5-0.5c-2.4-1.3-5.8-3.7-6.9-4.7c-0.7-0.7-1.4-1.3-1.5-1.3
		c-0.1,0-0.5-0.6-0.9-1.2c-0.8-1.4-1-1.6-2.2-2.9c-0.4-0.5-1-1.6-1.3-2.6c-0.3-0.9-0.6-1.9-0.8-2.2c-0.1-0.3-0.1-0.6,0.1-0.8
		c0.2-0.2,0.4-0.9,0.4-1.6c0.1-2.7,2.8-7.6,6.5-12c3.7-4.3,10.6-10.2,15-12.8c0.3-0.2,0.7-0.5,0.9-0.6c0.7-0.6,7.3-3.9,7.4-3.7
		c0.2,0.3,2.3-0.7,2.3-1.1c0-0.2,0.2-0.3,0.4-0.2c0.2,0.1,0.5,0.1,0.6-0.1c0.1-0.1,0.4-0.2,0.7-0.1c0.3,0.1,0.6,0,0.6-0.2
		c0-0.2,0.1-0.3,0.3-0.3c0.2,0,0.2,0.1,0,0.4c-0.2,0.2-0.6,0.4-0.9,0.4c-0.3,0-1.9,0.7-3.5,1.5c-1.7,0.8-3.1,1.5-3.3,1.5
		c-0.1,0-0.3,0.1-0.3,0.3c0,0.2-0.2,0.3-0.4,0.3c-0.6,0-2,0.9-2.3,1.4c-0.1,0.2-0.5,0.4-0.8,0.4c-0.3,0-1,0.3-1.6,0.7
		c-0.5,0.4-1.1,0.7-1.3,0.7c-0.2,0-0.4,0.1-0.4,0.3c0,0.2-0.1,0.3-0.3,0.3c-0.2,0-0.6,0.2-0.8,0.5s-0.9,0.8-1.3,1.1
		c-1.2,0.8-7,6.3-7,6.7c0,0.2-0.4,0.6-0.9,0.8c-0.5,0.3-1,0.9-1.2,1.3c-0.1,0.4-0.4,0.7-0.6,0.7c-0.1,0-0.3,0.1-0.3,0.3
		c0,0.2-0.2,0.5-0.5,0.8c-0.4,0.3-0.4,0.4-0.1,0.2c0.2-0.1,0.1,0.1-0.4,0.5c-0.4,0.4-0.7,0.8-0.6,0.9c0.1,0.1,0,0.2-0.2,0.2
		s-0.3,0.1-0.2,0.2c0.1,0.1,0.1,0.4-0.1,0.6c-0.5,0.6,0.7,0.6,8.9,0.6c14.6-0.1,20.5-0.7,27.3-2.7c1.3-0.4,3.4-1,4.7-1.4
		c1.3-0.4,2.4-0.8,2.5-1.1c0.2-0.6-0.2-2.4-0.6-2.8c-0.3-0.2-0.4-0.8-0.3-1.9c0.1-1.1,0.1-1.6-0.2-1.6c-0.2,0-0.3-0.3-0.3-0.6
		c0-0.3-0.2-0.6-0.4-0.6c-0.2,0-0.2-0.2,0.1-0.4c0.3-0.2,0.5-0.8,0.5-1.4c0-1-0.1-1.1-2.3-2.2c-3-1.5-4.8-2.9-8.6-6.5
		c-1.1-1-1.2-1.3-0.7-1.3c0.3,0,0.8-0.2,1-0.4c0.2-0.2,0.5-0.4,0.7-0.4s1.1-0.5,1.9-1c0.9-0.6,1.7-0.9,1.8-0.9
		c0.1,0.1,0.3,0,0.3-0.2c0-0.2,0.1-0.3,0.2-0.2c0.1,0.1,0.4,0,0.6-0.3c0.3-0.2,0.5-0.4,0.6-0.3c0.3,0.3-1.1,1.3-1.7,1.3
		c-0.7,0-3.9,2.3-3.9,2.8c0,0.2,0.4,0.7,0.9,1c0.5,0.4,0.9,0.8,0.9,1.1c0,0.2,0.1,0.4,0.3,0.4c0.2,0,0.3,0.2,0.3,0.4
		c0,0.2,0.1,0.4,0.2,0.4c0.6-0.1,1.5,0.4,1.5,0.8c0,0.2,0.7,0.8,1.6,1.1c0.8,0.4,1.9,0.9,2.3,1.2c0.4,0.2,1,0.4,1.2,0.4
		c0.3,0,0.6,0.1,0.7,0.3c0.1,0.2,0.5,0.2,0.9,0.1c0.6-0.1,0.7-0.1,0.5,0.1c-0.1,0.2-0.1,0.3,0.2,0.3c0.2-0.1,1.1,0,2,0.1
		c1.1,0.2,1.5,0.3,1.2,0.5c-0.3,0.2-0.1,0.2,0.5,0.1c0.5-0.1,1-0.1,1,0.1c0,0.1,0.4,0.3,0.8,0.3c0.4,0,1.3,0.2,2,0.4
		c0.6,0.1,2.9,0.5,5,0.8c2.1,0.3,4.3,0.5,4.9,0.6c0.6,0.1,1.6,0.2,2.3,0.3c0.7,0.1,1.4,0.2,1.5,0.3c0.2,0.1,1.9,0.3,7.6,0.6
		c1.6,0.1,3.8,0.3,4.8,0.4c1.1,0.1,2,0.2,2.1,0.1c0.1-0.1,2,0.1,4.1,0.3c2.2,0.2,4.2,0.4,4.5,0.3c0.6-0.2,0.6-0.7,0.1-2.4
		c-0.2-0.6-0.1-0.7,0.6-0.7c1,0,1-0.4-0.1-1.8c-0.5-0.6-0.9-1.4-0.9-1.6c0-0.6-0.9-2.2-1.2-2.2c-0.1,0-0.5-0.6-0.9-1.2
		c-0.3-0.7-0.9-1.7-1.2-2.3s-0.5-1.1-0.4-1.2c0.1-0.1,0.2,0,0.3,0.3c0.1,0.2,0.4,0.6,0.7,0.9c0.3,0.3,0.6,0.6,0.6,0.7
		c0,0.1,0.3,0.4,0.7,0.8c0.4,0.3,1,1,1.2,1.5c0.5,1,1.2,2,2.6,3.7c0.5,0.6,1,1.3,1.1,1.6c0.2,0.6-1.2,1.9-1.4,1.4
		c-0.1-0.2-0.1-0.2-0.1,0c0,0.2,0.2,0.5,0.4,0.7c0.3,0.3,0.4,0.5,0.1,0.9c-0.6,1-0.1,1.2,4.1,1.6c1.8,0.2,2.2,0.1,2.5-0.3
		c0.8-0.9,0-1.5-2.1-1.5c-1,0-2.3-0.1-2.8-0.3c-0.9-0.3-0.9-0.3,0.6-0.6c2.9-0.8,5.4-0.8,7.9-0.1c1.3,0.4,2.7,0.6,3.2,0.6
		c0.4,0,1.6,0.3,2.7,0.6c1,0.3,2.8,0.6,3.8,0.7c1.1,0.1,2.1,0.2,2.3,0.3c0.5,0.3,0.4,1.2-0.1,1.7c-0.8,0.6-0.5,0.9,1,0.9
		c0.9,0,1.6-0.2,1.9-0.4c0.2-0.2,0.6-0.4,0.7-0.4c0.2,0,0.3-0.3,0.3-0.7c0-0.4-0.2-0.7-0.4-0.7c-0.4,0-0.4-0.1-0.1-0.7
		c0.2-0.5,0.2-0.9,0-1.4c-0.3-0.6-0.5-0.6-2.5-0.5c-1.2,0.1-2.4,0.3-2.6,0.5c-0.8,0.6-3.2,0.4-4.5-0.4c-0.6-0.4-1.4-0.8-1.7-0.9
		c-0.4-0.2-0.5-0.3-0.2-0.6c0.2-0.2,0.7-0.4,1.1-0.4c0.4,0,0.7-0.1,0.7-0.3c0-0.1-0.1-0.3-0.3-0.3c-0.1,0-0.3-0.2-0.3-0.4
		c0-0.4-0.8-0.9-3-2.3c-0.6-0.4-1.1-0.8-1.1-0.9c0-0.1-0.4-0.2-0.8-0.3c-0.4,0-1-0.2-1.2-0.4c-0.2-0.2-1.3-0.4-2.4-0.4l-2-0.1
		l0.1,2.8c0.1,3.1,0,3.3-1.3,2.1c-0.6-0.5-0.7-0.7-0.3-0.7c0.4,0,0.4-0.2,0.2-0.9c-0.1-0.5-0.5-1.2-0.7-1.4
		c-0.4-0.4-0.5-0.6-0.5-1.2c0-0.1-0.2-0.5-0.4-0.7c-0.2-0.2-0.6-1.5-0.9-2.7c-0.6-2.6-1-3.5-2.2-4c-0.5-0.2-0.8-0.5-0.7-0.6
		c0.1-0.2-0.4-0.5-1.8-0.9c-0.3-0.1-0.5-0.3-0.4-0.4c0.3-0.2,1.9,0.5,2.8,1.2c1.5,1.2,2.2,2.1,2.3,2.8c0.1,0.4,0.4,1.5,0.6,2.4
		l0.5,1.7l0.9-0.4c0.7-0.3,0.9-0.5,0.8-1.2c-0.1-0.6,0-0.8,0.2-0.6c0.2,0.1,0.3,0.5,0.3,0.8c0,0.4,0.1,0.5,0.3,0.4
		c0.2-0.1,0.4,0,0.6,0.2c0.2,0.4,0.3,0.4,0.5,0c0.2-0.3,0.4-0.3,0.6,0.2c0.2,0.3,0.7,0.6,1,0.6c0.6,0,0.6,0,0-0.4
		c-0.3-0.2-0.4-0.4-0.2-0.4c0.2,0,0.4,0.1,0.5,0.3c0.2,0.4,2.5,1.6,2.5,1.3c0-0.1,0.4,0.1,0.8,0.3c0.6,0.4,0.8,0.4,0.9,0.2
		c0.1-0.2,0.4-0.1,0.9,0.3c0.6,0.6,0.7,0.6,0.5,0.1c-0.1-0.5-0.1-0.5,0.2,0.1c0.2,0.4,0.7,0.9,1.1,1.1c0.6,0.4,0.6,0.4,0.5-0.1
		c-0.1-0.4-0.1-0.3,0.3,0.1c0.3,0.4,0.6,0.6,0.8,0.5s0.3,0.1,0.4,0.4c0.2,0.6,0.7,0.8,0.7,0.3c0-0.2,0.4,0.1,0.9,0.5
		c0.9,0.8,1,0.9,2.6,0.6c1-0.1,1.8-0.4,2-0.7c0.2-0.3,0.6-0.5,1-0.5c0.6,0,0.6-0.1,0.3-0.3c-0.3-0.2-0.2-0.3,0.6-0.1
		c0.7,0.1,0.9,0.1,0.6-0.1c-0.6-0.4-0.2-0.7,0.7-0.4c0.6,0.2,0.8,0.2,0.8-0.1c0-0.2,0.4-0.5,1-0.6c0.8-0.2,1.1-0.1,1.8,0.6
		c0.9,0.8,2.6,1.1,2.9,0.4c0.1-0.2,0.3-1.1,0.4-2.1c0.1-1.5,0.1-2-0.5-3.2c-0.7-1.4-0.7-1.4-2.5-1.6c-3.2-0.3-5.8-2.9-5.8-5.8
		c0-2.7,1.3-4.1,3.1-3.5c1.4,0.4,3.8,2.9,4.7,4.7c0.8,1.6,6.1,4,6.8,3.4c0.3-0.3-0.4-1.7-1.4-2.6c-0.9-0.8-2.8-4.4-2.8-5.2
		c0-0.6-0.7-1.8-1.2-1.9c-0.3-0.1-1.2-1-1.9-2c-1.7-2.3-2.1-2.6-3.7-3.1c-0.9-0.3-1.2-0.5-1.1-0.8c0.5-1.4,0.5-1.8-0.1-2.2
		c-0.5-0.3-0.6-0.4-0.3-0.7c0.2-0.3,0-0.7-0.8-1.8c-0.6-0.8-1.6-2.2-2.1-3.1c-0.6-0.9-1.4-1.9-1.7-2.2c-0.6-0.5-0.6-0.7-0.4-1.2
		c0.4-0.6,0.4-0.6-0.9-3.6c-0.4-1-2.6-7-2.9-8.1c-0.1-0.5-0.6-1.9-1.1-3.1c-0.4-1.2-0.9-2.6-0.9-3.1c-0.3-3-0.4-5.6-0.5-10.4
		c-0.1-4.2,0-5.3,0.3-5.2c0.5,0.2,0.4-0.1-0.2-1.8c-0.3-0.8-0.9-2.2-1.2-3.2c-0.4-1-1.4-3.4-2.4-5.4c-1.8-3.7-1.9-4.2-1.4-4.2
		c0.2,0,0.1-0.4-0.1-0.8c-0.3-0.5-1-1.7-1.6-2.9c-0.6-1.1-1.2-2.3-1.2-2.7c0-0.4-0.2-0.8-0.4-1c-0.3-0.3-0.3-0.4,0.1-0.6
		c0.3-0.2,0.3-0.3,0.1-0.3c-0.5,0-2.2-3.3-2.2-4.2c0-0.4-0.3-1.2-0.7-1.8c-0.4-0.6-0.8-1.4-0.9-1.9c-0.1-0.4-0.3-1.4-0.5-2.2
		c-0.4-1.9-0.4-4.8,0-5.2c0.5-0.5,1.3,0.1,1.6,1.3c0.9,4.5,2.1,8.4,2.5,8.3c0.2-0.1,0.4,0.1,0.4,0.4c0,0.3,0.4,1.4,0.7,2.6
		c0.4,1.2,0.7,2.1,0.7,2.2c0,0.1,0.1,0,0.3-0.3c0.3-0.5,0.9-0.1,0.9,0.6c0,0.3,0.1,0.8,0.3,1.1c0.1,0.3,0.6,1.2,1,2.1
		c0.4,0.9,0.9,2.2,1,3c0.1,1.1,0.2,1.4,0.4,1c0.4-0.7,0.8-0.6,1,0.4c0.1,0.5,0.3,0.9,0.5,0.9c0.1,0,0.3,0.3,0.3,0.6
		c0,0.3,0.2,0.8,0.4,1c0.2,0.2,0.4,0.6,0.4,0.9c0,0.3,0.1,0.5,0.3,0.5c0.2,0,0.3,0.4,0.3,0.8s0.1,0.9,0.3,1.1
		c0.7,0.7,2.9,5.5,3.1,6.7c0.1,0.7,0.4,1.5,0.7,1.8c0.4,0.4,0.5,1.4,0.5,6.3c0,4.8,0.1,6.3,0.7,8.9c0.7,3.2,0.8,3.7,1.6,8.4
		c1.2,7,1.7,8.4,3,8.4c0.7,0,0.7,0,0.6-2.1c-0.1-1.2,2.7-24.5,3.2-25c0.3-0.3,1.2-7.9,4-11.7c2.8-3.8,4.7-5.3,7.1-7.6
		c2.5-2.3,6-4.2,6.3-4.4c2.8-0.7,8.3-0.3,8.3-0.3s6.2,1.8,8.9,3.1c0.3-0.4,4.5,3.4,6.4,5.4c1.9,2.1,4.6,5.1,4.8,6.3
		c2,2.9,2.2,3.9,2.4,5.4c0.3,0.9,0.7,3.8,0.9,5.7c0.7,2.4,2,5.6,1.8,8.2c-0.1,1.7,0.1,5.2,0.3,5.8s0.3,1.1,0.4,0.9
		c0.4-0.4,1.2-8.9,1.4-13.8c0.2-6,0.2-5.9,0-8.6c-0.2-1.8-0.1-2.6,0.2-3.1c0.2-0.4,0.4-1.4,0.4-2.1c0-0.8,0.2-1.6,0.4-1.8
		c0.2-0.2,0.3-0.6,0.3-1s0.1-0.7,0.3-0.7c0.2,0,0.4-0.3,0.6-0.7c0.1-0.4,0.4-0.7,0.6-0.7c0.1,0,0.3-0.2,0.3-0.4s0.1-0.4,0.3-0.4
		c0.2,0,0.3-0.2,0.3-0.5s0.4-1.3,0.9-2.3c0.5-1,0.9-1.9,0.9-2.1s0.2-0.5,0.4-0.6s0.4-0.5,0.5-0.8c0.1-0.3,0.5-0.8,0.9-1
		c0.4-0.2,0.8-0.6,0.8-0.9c0-0.6,0.6-2.1,1-2.1c0.1,0,0.2-0.2,0.2-0.4s0.2-0.5,0.5-0.6c0.3-0.1,0.4-0.4,0.3-0.8
		c-0.1-0.4,0-0.6,0.3-0.8c0.2-0.1,0.4-0.4,0.4-0.8c0-0.4,0.3-0.9,0.6-1.2c0.5-0.4,0.6-0.9,0.6-2.6c0-1.4,0.1-2.2,0.4-2.5
		c0.3-0.3,0.4-1.1,0.4-2.5c0-1.6,0.1-2,0.4-2c0.3,0,0.5-0.4,0.6-1.2c0.3-2,1.1-3.3,1.9-3.3c0.4,0.1,0.7-0.1,0.8-0.4
		c0.1-0.2,0.3-0.4,0.4-0.4c0.4,0,0.3,0.8-0.1,1.6c-0.2,0.4-0.4,1.1-0.4,1.5c-0.1,0.5-0.3,1.5-0.6,2.2c-0.3,0.7-0.5,1.7-0.5,2.2
		c0,0.5-0.2,1.6-0.5,2.4c-0.4,1.2-0.5,1.5-0.2,1.5c0.3,0,0.3,0.4-0.1,2c-0.2,1.1-0.6,2.1-0.7,2.3c-0.1,0.1-0.3,0.5-0.3,0.8
		c0,0.6-2.5,5.4-3.3,6.3c-0.3,0.3-0.6,1.1-0.6,1.8s-0.9,2.7-1.8,4.7c-0.9,1.9-1.7,3.6-1.7,3.8c0,0.2-0.2,0.7-0.4,1.1
		c-0.2,0.4-0.6,1.4-0.9,2.1c-0.3,0.7-0.6,1.5-0.7,1.8c-0.1,0.4-0.1,0.4,0.3,0.1c0.4-0.3,0.5,0.1,0.7,3.7c0.1,2.2,0.3,4.6,0.3,5.2
		c0.2,2.3,0.1,6.3,0,6.6c-0.1,0.2-0.3,0.9-0.4,1.7c-0.1,0.8-0.3,1.6-0.4,1.9c-0.1,0.3-0.2,0.5-0.1,0.6c0.1,0.1-0.2,1.1-0.6,2.3
		c-0.4,1.2-0.8,2.9-0.9,3.7s-0.3,1.8-0.5,2.3c-0.2,0.5-0.3,0.9-0.2,1c0.1,0.1-0.2,0.8-0.6,1.7c-0.5,0.9-0.8,2-0.8,2.8
		c0,1.2-0.5,2.5-2.7,8.1c-0.3,0.6-0.4,1.4-0.3,1.8c0.1,0.6,0,1-0.8,1.8c-0.8,0.9-0.9,1-0.3,0.7c0.6-0.4,0.7-0.3,0.5,0.3
		c-0.1,0.4-0.5,0.9-0.8,1.2c-0.6,0.5-0.6,0.5,0.1,0.7l0.7,0.2l-0.6,0.6c-0.3,0.4-1.1,0.8-1.7,1.1c-1.2,0.5-1.9,1-3.8,3.1
		c-1.2,1.2-1.4,1.7-1.6,3c-0.3,2.7-2.3,6.2-3.8,6.7c-0.4,0.1-0.5,0.5-0.5,1.1c0,0.8,0.1,0.9,1.3,1c0.8,0.1,1.6-0.1,2.3-0.5l1.1-0.6
		c0,0,1.2-0.3,2.2-2.4c1.3-2.6,4.2-5.2,5.7-5.2c0.8,0,2.1,1.4,2.3,2.6c0.6,3.4-2.1,6.8-5.9,7.3c-1.3,0.2-1.6,0.4-2.3,1.4
		c-0.5,0.7-0.8,1.5-0.8,2.2c0,1.4,0.9,1.8,3.2,1.3c0.9-0.1,2-0.3,2.4-0.2c0.4,0,1.7-0.1,2.8-0.3c1.2-0.2,3.7-0.4,5.6-0.4
		c2.7-0.1,3.6-0.1,3.9-0.5c0.2-0.3,0.4-0.3,0.4-0.1c0,0.6-0.4,1.3-0.7,1.3c-0.2,0-0.5,0.2-0.6,0.5c-0.3,0.7-0.2,0.8,0.3,0.6
		c0.3-0.1,0.9-0.1,1.4,0.1c0.5,0.1,1.6,0.5,2.5,0.8c1.3,0.4,1.7,0.6,1.9,1.3c0.3,0.9,0.3,0.9,2.2,0.7c1.4-0.1,2-0.1,2.6,0.3
		c0.4,0.2,1,0.4,1.5,0.3c0.5-0.1,0.8,0,0.8,0.2c0,0.2-0.2,0.3-0.4,0.3c-0.4,0-1.9,1.2-1.9,1.6c0,0.1,0.7,0.3,1.7,0.4
		c2,0.2,3.2-0.2,2.9-1.2c-0.1-0.4-0.1-0.4,0-0.2c0.4,0.7,0.7,0.3,0.7-0.8c0-0.7-0.1-1.2-0.4-1.2s-0.6-0.4-0.9-0.9
		c-0.5-0.8-0.4-0.9,0.2-1.7c0.8-1,1.6-2.3,2.7-4.3c0.7-1.3,1.3-2,1.3-1.5c0,0.2-1.4,3-2,4.2c-0.4,0.6-0.9,2.5-0.9,3
		c0,0.3,0.2,0.5,0.7,0.5c0.6,0,0.7,0.1,0.5,1.5l-0.1,1.5l2.7-0.2c1.5-0.1,5-0.6,7.8-1.2c2.8-0.5,5.6-1.1,6.4-1.2
		c2.5-0.4,14.2-3.1,18.9-4.5c1.4-0.4,3.2-0.9,4-1.1c4.9-1.4,8-2.9,11.7-5.7c1.8-1.4,2-1.5,1.5-0.7c-0.4,0.5-1.9,1.7-3.4,2.7
		c-4.7,3-4.4,2.7-4.4,5.3c0,1.2-0.1,3.1-0.3,4.2c-0.5,3-0.3,4.1,0.9,4.1c0.3,0,1.8,0.2,3.3,0.5c2.7,0.4,8.5,0.5,7.9,0.1
		c-0.2-0.1,0.1-0.2,0.7-0.2c0.8,0,0.9,0.1,0.6,0.3c-0.3,0.2-0.2,0.3,0.5,0.3c0.5,0,0.9-0.1,0.9-0.4c0-0.2,0.1-0.2,0.3-0.1
		c0.2,0.1,1.7,0.2,3.6,0.1c1.9-0.1,3.5,0,3.8,0.1c0.3,0.2,2.4,0.3,4.9,0.3c2.4,0,4.3,0.1,4.3,0.2c0,0.4,3,0.2,4-0.2
		c0.9-0.4,0.9-0.4-0.6-0.3c-0.8,0.1-1.7,0.2-2.1,0.3c-0.4,0.1-0.4,0,0.1-0.3c0.4-0.2,1.9-0.5,3.2-0.6c1.4-0.1,2.6-0.3,2.8-0.4
		c0.4-0.3,2.2-0.9,3.5-1.1c0.6-0.1,1.1-0.3,1.1-0.5c0-0.2,0.2-0.1,0.4,0.1c0.2,0.2,0.4,0.2,0.4,0.1c0-0.3-1-1.4-3.3-3.5
		c-0.9-0.9-1.8-1.8-2.1-2.1c-0.3-0.3-0.7-0.7-1.1-1c-0.3-0.2-0.5-0.6-0.4-0.7c0.1-0.2,0-0.2-0.1-0.1s-1-0.2-1.7-0.8
		c-0.8-0.5-1.9-1.2-2.5-1.6c-0.6-0.3-1.8-1.2-2.6-2c-0.8-0.8-1.6-1.4-1.7-1.4s-0.6-0.3-0.9-0.6c-0.4-0.3-0.5-0.6-0.4-0.6
		c0.2,0,0.5,0.2,0.7,0.4c0.2,0.2,0.5,0.4,0.7,0.4c0.1,0,0.7,0.3,1.3,0.7c0.5,0.4,1.1,0.7,1.2,0.7c0.1,0,0.4,0.2,0.6,0.4
		c0.2,0.2,0.6,0.4,0.9,0.4c0.6,0-0.5-0.9-1.9-1.6c-0.5-0.2-1.1-0.6-1.3-0.9c-0.4-0.5-1.5-1.1-2.7-1.5c-0.6-0.2-0.7-0.2-0.3,0.3
		c0.3,0.4,0.3,0.5,0,0.5s-1.7-0.8-2-1.2c-0.1-0.1-0.6-0.4-1.1-0.6c-0.5-0.2-1-0.5-1-0.7c0-0.2-0.5-0.2-1.2-0.1
		c-0.6,0.1-1.7,0.2-2.2,0.2c-0.6,0-1.1,0.2-1.2,0.4c-0.2,0.5-2,0.2-2.3-0.4c-0.1-0.2-0.5-0.4-0.9-0.4c-0.3,0-0.8-0.2-0.9-0.5
		c-0.2-0.2-0.5-0.5-0.8-0.5c-2.3-0.4-2.9-0.6-3.2-0.8c-0.5-0.4-4.2-1.4-5.1-1.4c-0.6,0-0.9-0.2-1.1-0.9s-0.6-0.9-1.7-1.2
		c-1.1-0.3-1.5-0.3-1.8,0c-0.4,0.3-0.4,0.3-0.2-0.1c0.1-0.3,0.1-0.5-0.1-0.4c-0.1,0-0.5,0-0.7-0.1c-1.6-0.7-4.1-1.4-5.1-1.4
		c-0.6,0-1.1-0.1-1.1-0.3c0-0.4,1.7-0.4,2.8,0c0.5,0.1,2.7,0.7,5,1.2c3.9,0.9,6.3,1.7,6.3,2.1c0,0.1,0.4,0.3,1,0.4
		c0.6,0.1,1.1,0.3,1.1,0.5c0.1,0.2,0.7,0.4,1.4,0.5c0.7,0.1,1.7,0.4,2,0.6c0.4,0.3,1.1,0.4,1.4,0.4c0.4,0,1.4,0.2,2.1,0.5
		c2.2,0.9,3.4,1.2,4.7,1.2c0.7,0,1.6,0.2,2,0.4c0.4,0.2,1.4,0.5,2.1,0.6c0.7,0.1,1.2,0.3,1.1,0.4c-0.1,0.1,0.4,0.3,1.1,0.4
		c0.7,0.1,1.4,0.4,1.7,0.8c0.2,0.3,0.5,0.5,0.7,0.4c0.1-0.1,0.3,0,0.3,0.1c0,0.2,0.1,0.3,0.3,0.3c0.2,0,0.6,0.3,1,0.7
		c0.4,0.4,1.2,0.9,1.8,1.2c0.6,0.3,1.2,0.7,1.4,0.9c0.1,0.2,0.2,0.2,0.2,0c0-0.3,1.2,1,1.7,1.7c0.5,0.8,5.3,4.9,5.5,4.7
		c0.1-0.1,0.1,0,0.1,0.2s0.2,0.6,0.6,0.7c0.4,0.1,0.6,0.4,0.6,0.6c0,0.2,0.3,0.4,0.6,0.5c0.3,0.1,0.6,0.4,0.6,0.6
		c0,0.3,0.3,0.8,0.7,1.3s0.7,0.6,0.7,0.5s0.5,0.4,1,1.2c0.8,1.2,1.1,1.9,1.2,3.3c0,0.9,0.2,2,0.4,2.3c0.3,0.5,0.4,0.4,0.2-0.6
		c-0.1-0.6-0.1-1,0.1-0.9c0.4,0.4,0.5,2.7,0.2,2.9c-0.1,0.1-0.2,0.3-0.1,0.5c0.2,0.3,0.3,0.3,0.5,0c0.2-0.3,0.3-0.2,0.4,0.3
		c0.1,0.3,0.3,0.6,0.5,0.6c0.4,0,0,1.8-0.5,2.2c-0.2,0.2-0.3,0.4-0.2,0.5c0.2,0.2-1.6,3.7-2.6,5c-0.4,0.6-0.8,1.2-0.8,1.3
		c0,0.5-3.8,4.5-4.8,5.1c-0.6,0.4-1.2,0.9-1.3,1.1c-0.1,0.2-0.4,0.4-0.6,0.4c-0.2,0-1,0.4-1.7,1c-0.9,0.7-2.3,1.3-5,2.2
		c-2.1,0.6-4.2,1.2-4.6,1.2c-0.4,0-0.9,0.1-1,0.3c-0.7,0.6-5.5,1.5-10.9,1.9c-2.2,0.2-14.2,0.2-15.1,0c-0.5-0.1-2.2-0.3-4-0.5
		c-1.7-0.2-3.5-0.4-4-0.4c-0.8-0.1-9.1-1.8-9.7-2c-3.2-1-4.6-1.4-5.6-1.6c-0.6-0.1-1.3-0.3-1.5-0.4c-0.1-0.1-0.8-0.4-1.5-0.6
		c-2.7-0.8-8.4-3.4-10.3-4.7c-0.8-0.5-1.6-1-1.7-1c-0.2,0-0.1,0.8,0.3,1.9c0.1,0.4-0.2,0.2-0.9-0.5c-0.9-0.9-1.3-1.1-1.9-1
		c-0.4,0.1-1,0-1.3-0.3c-0.3-0.2-1-0.5-1.6-0.5c-0.6-0.1-1.6-0.3-2.1-0.6c-0.5-0.3-1.2-0.4-1.4-0.4c-0.2,0.1-0.6,0-0.9-0.3
		c-0.3-0.2-0.8-0.5-1.2-0.6c-0.4-0.1-1.2-0.3-1.7-0.6c-0.5-0.2-1.4-0.6-2-0.8c-1-0.4-2-1.5-1.6-1.9c0.4-0.4,2.4-0.1,5.8,1.1
		c4.2,1.4,5.2,1.6,6.5,1.1c1.3-0.4,1.5-1,0.5-1.4c-0.4-0.1-0.9-0.5-1-0.8c-0.1-0.3-1.1-0.9-2.3-1.4c-1.2-0.5-2.6-1.3-3.1-1.7
		c-0.9-0.6-1.3-0.7-3.5-0.6c-1.4,0-2.8,0.1-3.2,0.2c-0.4,0.1-1.2-0.1-1.9-0.3c-0.8-0.3-1.3-0.4-1.5-0.2c-0.5,0.5,0.1,1.8,1.1,2.4
		c0.6,0.3,1,0.8,1,1.1c0,0.2,0.1,0.4,0.3,0.4c0.2,0,0.3,0.2,0.3,0.4c0,0.6-2.3,0.9-3.6,0.4c-0.6-0.3-1.7-0.6-2.5-0.8
		c-3.2-0.7-3-0.7-1.9,0c0.5,0.4,0.9,0.7,0.8,0.8c-0.2,0.2-1.9-0.5-3.3-1.4c-0.6-0.4-1.7-1.1-2.4-1.4c-0.6-0.3-1.5-0.9-1.9-1.2
		l-0.8-0.6l-1.4,1c-0.8,0.5-1.6,1.1-1.8,1.4c-0.2,0.2-0.5,0.3-0.7,0.2c-0.1-0.1-0.3-0.1-0.3,0.1c0,0.6,0.1,2.6-0.4,3
		c-0.8,0.8-0.8,0.9-0.3,1.4c0.3,0.3,0.4,0.7,0.3,0.9c-0.3,0.4,0.4,1.2,1,1.2c0.5,0,1.2,2.2,2.4,3.5c1.2,1.3,1.7,2.8,0.8,2.6
		c-0.4-0.1-0.5-0.1-0.4,0.4c0.1,0.3,0.4,0.7,0.6,0.9c0.2,0.2,0.4,0.5,0.2,0.7c-0.1,0.2,0,0.5,0.2,0.8c0.4,0.5,1.1,3,1.3,5.1
		c0.2,1.9,0.7,4.7,1.1,5.5c0.1,0.4,0.1,0.6,0,0.6c-0.1,0-0.1,0.6,0,1.3c0.1,0.8,0.1,1.4-0.1,1.4c-0.4,0.1,0.3,1.1,1.4,2
		c0.5,0.4,1,0.9,1,1c0,0.4,2.7,4,3.3,4.4c0.3,0.2,0.6,0.6,0.6,0.9c0,0.3,0.1,0.5,0.3,0.5s0.3,0.2,0.2,0.5c-0.1,0.3,0.1,0.6,0.4,0.8
		c0.9,0.6,3.9,3.4,3.7,3.6c-0.1,0.1,0.1,0.4,0.4,0.6c0.3,0.2,0.6,0.6,0.6,0.8c0,0.2,0.4,0.6,0.9,0.9c0.5,0.3,1.2,1.1,1.7,1.7
		c0.4,0.6,1.1,1.2,1.4,1.4c0.4,0.2,0.7,0.5,0.7,0.6c0,0.1,0.2,0.2,0.4,0.2s0.4,0.2,0.4,0.4c0,0.2,0.7,0.8,1.6,1.2
		c0.9,0.4,1.6,0.9,1.6,1c0,0.1,0.4,0.5,0.9,0.7l0.9,0.5l-0.7,0.7c-0.9,0.9-1.4,0.9-3.3-0.3c-0.9-0.6-1.7-1-1.9-1
		c-0.1,0-0.9-0.6-1.7-1.4c-0.9-0.9-1.6-1.4-1.9-1.3s-0.6-0.1-0.7-0.6c-0.1-0.4-0.4-0.8-0.7-0.9c-0.3-0.1-0.7-0.6-0.9-1.1
		c-0.3-0.7-0.6-0.9-1.1-0.9s-0.7-0.1-0.7-0.5c0-0.3-0.2-0.7-0.4-0.8c-0.5-0.3-2.3-2.6-2.3-3c0-0.6-0.9-1.1-1.2-0.7
		c-0.2,0.2-0.4,0.1-0.7-0.4c-0.2-0.4-0.6-1.1-0.8-1.5c-0.2-0.4-0.5-0.6-0.6-0.6c-0.1,0.1-0.4-0.2-0.6-0.7c-0.3-0.4-0.9-1.3-1.4-1.8
		c-0.5-0.6-1-1.3-1.1-1.6c-0.1-0.3-0.4-0.5-0.6-0.5s-0.4-0.2-0.4-0.4c0-0.2-0.2-0.6-0.5-0.8c-0.3-0.2-0.6-0.7-0.8-1.2l-0.3-0.7
		l-0.4,0.9c-0.2,0.5-0.5,1.6-0.7,2.5c-0.2,0.9-0.4,1.9-0.6,2.2c-0.1,0.3-0.5,1.2-0.8,2c-0.3,0.8-0.8,1.8-1.2,2.4
		c-0.4,0.5-0.7,1.1-0.7,1.2c0,0.1-0.2,0.4-0.4,0.6c-0.2,0.2-1,1.1-1.9,2c-0.8,0.9-1.6,1.7-1.8,1.7c-0.2,0-0.4,0.2-0.5,0.4
		c-0.2,0.5-2.5,1.7-2.9,1.5c-0.2-0.1-0.5,0.1-0.7,0.4c-0.3,0.5-0.5,0.5-1.1,0.2c-0.4-0.2-0.9-0.3-1.4-0.1c-0.7,0.3-2.7,0.7-3.9,1.1
		c-0.6,0.2-0.6,0.2-0.1,1.1c0.2,0.5,0.6,1.9,0.7,3.2c0.1,1.3,0.4,2.6,0.7,3c1.2,1.7,4.2,4.4,5.9,5.3c3.8,2,4.8,2.8,2.3,1.9
		c-1.3-0.5-5.7-2.4-7.6-4.8c-1.8-2.3-6-2.6-6.1-2.6c-0.1,0.1-3.5-4.8-4.5-4.7c-0.9,0.1-4.3,4.5-4.3,4.5l-0.9,0.9
		c-0.7,0.7-1.3,0.2-2.3,0.9c-4.9,3.5-8.1,5.8-8.7,6.3c-0.4,0.3-1.4,0.7-2.1,1.1C142.8,6577.6,142.2,6577.8,142.2,6577.6z
		 M48.9,6536.3c1.3-0.1,3.6-0.4,5-0.6c2.6-0.3,5.2-0.8,8.8-1.6c1-0.2,2.2-0.5,2.8-0.6c2.8-0.5,10.5-3,16.2-5.3
		c7-2.8,8.7-3.6,11.1-5.2c2.3-1.5,6.5-5.5,6.5-6.2c0-0.2,0.2-0.6,0.4-0.7c0.7-0.4,1.4-1.8,1.3-2.3c-0.1-0.3-0.4-0.4-0.9-0.3
		c-0.4,0.1-1.2,0.2-1.8,0.3c-1.9,0.1-3.5,0.5-3.8,0.9c-0.1,0.2-0.9,0.4-1.6,0.5c-0.7,0.1-1.7,0.4-2.2,0.6c-0.4,0.2-1.4,0.5-2.2,0.6
		c-1.6,0.2-3.5,1.1-3.7,1.7c-0.1,0.2-0.7,0.5-1.4,0.8c-0.7,0.2-1.6,0.6-1.9,0.8c-0.5,0.3-1.8,0.9-6.5,2.7c-0.6,0.3-1.4,0.6-1.6,0.8
		c-0.2,0.2-1.4,0.6-2.5,0.9c-1.2,0.3-2.5,0.8-3,1.1c-0.5,0.3-1,0.4-1.1,0.3s-0.8,0.1-1.7,0.4c-2.1,0.7-3,1-7.6,2.2
		c-2.2,0.6-4.9,1.3-6,1.7c-1.1,0.3-2.4,0.6-2.7,0.6c-0.4,0-1.1,0.2-1.6,0.4c-0.9,0.4-3.9,1.5-8.5,3c-2.5,0.9-3.5,1.4-3.5,2
		c0,0.4,0.3,0.5,1.9,0.8C38.1,6536.8,46.4,6536.6,48.9,6536.3z M33.9,6534.4c1.9-1,9.8-3.9,11.9-4.3c2.6-0.6,3.9-1,4-1.4
		c0.1-0.2,0.4-0.4,0.6-0.2c0.7,0.3,3.9-0.5,4.5-1c0.3-0.3,0.7-0.4,1-0.4c0.7,0.1,5.2-1,7.1-1.9c0.5-0.2,1.7-0.6,2.7-0.7
		c2-0.4,2.2-0.5,2.7-1.3c0.3-0.5,0.3-0.5,0.4-0.1c0,0.3,0.1,0.5,0.3,0.5c0.3,0,4.6-1.7,7-2.8c0.8-0.4,2.1-0.9,2.9-1.2
		c0.8-0.3,1.7-0.6,2.1-0.9c0.4-0.2,1.4-0.6,2.3-0.9c0.9-0.3,2.2-0.8,2.8-1.1c1.4-0.7,1.8-0.9,2.8-1.3c0.4-0.2,1.5-0.7,2.5-1.1
		c1-0.4,2.6-1.1,3.7-1.5c1.1-0.4,2.1-0.9,2.4-1c0.2-0.1,1.3-0.5,2.4-0.8c2.1-0.6,2.9-1.3,1.4-1.3c-0.5,0-1.2,0.1-1.6,0.3
		c-0.4,0.2-1.9,0.4-3.2,0.4c-1.3,0.1-4.1,0.4-6.3,0.8c-2.1,0.4-4.3,0.7-4.9,0.7c-0.6,0-1.1,0.1-1.2,0.2s-1.7,0.9-3.5,1.8
		c-4.1,2-8,3.4-11.4,4c-1.4,0.3-2.8,0.6-3.2,0.7c-0.6,0.2-2.5,0.6-6.9,1.2c-1.2,0.1-3.8,0.4-5.8,0.4c-1.9,0.1-4.9,0.4-6.6,0.6
		c-1.7,0.2-4.1,0.5-5.3,0.6c-1.2,0.1-2.5,0.2-2.9,0.3c-3.5,0.7-15.8,1.2-21.1,0.7c-3.1-0.2-3.6-0.2-3.9,0.2
		c-0.3,0.4-0.2,0.7,0.3,1.7c0.6,1.3,3,4.2,4.3,5.4c0.4,0.4,1,0.9,1.4,1.2c2,1.8,5,3.4,8.1,4.2C30.3,6535.8,31.4,6535.7,33.9,6534.4z
		 M180.2,6534.6c0.6-0.4,3.8-0.3,4.8,0.3c1,0.6,1.3,0.7,1.4,0.4c0.3-0.7-0.4-9.4-0.8-9.8c-0.2-0.2-0.5-0.3-0.7-0.2
		c-0.6,0.4-2.6,3.7-2.2,3.8c0.9,0.3-0.2,1.7-1.4,1.9l-0.7,0.1l0.9,0.5l0.9,0.5l-0.8,0.2c-0.5,0.1-1.1,0.1-1.5,0
		c-0.4-0.1-1,0.1-1.8,0.6c-0.6,0.4-1.2,0.7-1.2,0.7c-0.4,0-1.4,1.2-1.2,1.4C176.6,6535.9,178.5,6535.7,180.2,6534.6z M280.7,6526.5
		c5.2-1,6.6-1.4,6.6-2.1c0-0.5-6.3-2.1-10.4-2.6c-1.2-0.1-3.2-0.5-4.5-0.7c-2.2-0.4-5-0.8-8.6-1.1c-0.8-0.1-2.4-0.4-3.5-0.6
		c-1.1-0.3-3.2-0.7-4.7-1c-1.4-0.3-3.5-0.7-4.4-0.9c-1-0.2-1.9-0.5-2.2-0.7c-0.2-0.2-0.8-0.3-1.3-0.4c-1.3-0.1-6.2-1.7-5.9-1.9
		c0.4-0.3,3.1,0.2,3.3,0.6c0.1,0.1,0.6,0.3,1.1,0.4c0.5,0.1,1,0.2,1.2,0.3c0.4,0.3,1.8,0.6,3.7,0.7c0.9,0.1,2.5,0.3,3.6,0.6
		c1.1,0.3,2.1,0.4,2.2,0.3c0.1-0.1,0.8,0.1,1.5,0.3c0.7,0.2,1.7,0.4,2.3,0.4s1.7,0.2,2.5,0.4c0.8,0.2,2.1,0.5,2.9,0.6
		c0.8,0.1,2,0.3,2.7,0.4c0.6,0.1,1.3,0.2,1.4,0.1c0.1-0.1,1.4,0.1,2.8,0.3c1.4,0.2,3.4,0.5,4.2,0.6c2.2,0.2,6.8,1.3,10.1,2.5l2.8,1
		l2-0.5c2.6-0.7,4.7-1.7,6.5-3.2c0.8-0.6,1.9-1.5,2.4-1.9c2.2-1.8,5.4-6.5,5.8-8.5l0.2-1.1l-1.2,0.2c-0.6,0.1-2.2,0.3-3.4,0.4
		s-2.8,0.4-3.5,0.6c-3.4,0.8-14.7,1.3-28.8,1.3c-16.4,0-23.9-0.4-25.2-1.3c-0.4-0.3-1.5-0.7-2.5-0.9s-2.5-0.7-3.5-1.2
		c-1.4-0.7-2.3-0.9-4.3-1.1c-1.7-0.1-2.7,0-2.9,0.2c-0.5,0.5-8.7,0.5-9.5,0c-0.7-0.4-2.5-0.4-2.3-0.1c0.2,0.2,2.3,0.9,3.7,1.1
		c0.4,0.1,1.9,0.5,3.4,0.9c1.5,0.4,3.5,1,4.6,1.3c1.1,0.3,2.8,0.9,3.8,1.5c1.5,0.8,1.8,1,1.4,1.2c-0.7,0.3-2.2,0.1-2.2-0.3
		c0-0.3-1.3-0.9-2.4-1c-0.5-0.1-0.8,0-0.6,0.2c0.1,0.2-0.1,0.1-0.6-0.1c-0.4-0.3-0.9-0.5-1-0.4c-0.1,0.1-0.8-0.1-1.5-0.3
		c-0.7-0.2-1.4-0.3-1.6-0.1c-0.2,0.1-0.2,0.1-0.1-0.1c0.1-0.2-0.3-0.3-1.2-0.3c-0.7,0-1.5-0.1-1.7-0.3c-0.2-0.1-0.8-0.4-1.4-0.4
		c-0.9-0.1-1.1-0.1-1.1,0.3c0,0.4-0.2,0.4-1.3,0.3c-1.1-0.2-1.3-0.1-1.3,0.2c0,0.3,0.2,0.5,0.4,0.5s0.4,0.1,0.4,0.2
		c0,0.4,2.4,2.8,3.4,3.4c0.5,0.3,1.1,0.9,1.4,1.3s1.2,1.1,1.9,1.6c0.8,0.5,1.7,1.2,2,1.6c0.4,0.4,1,0.7,1.7,0.7
		c0.6,0,2.2,0.4,3.6,0.9c5.6,1.9,12.3,3.7,15.2,4.3c1.1,0.2,2.1,0.5,2.2,0.5c0.3,0.2,8.8,1.3,10.8,1.5
		C265.6,6527.2,279,6526.9,280.7,6526.5z M29,6521.2c2.2,0,5.3-0.1,6.8-0.3c5-0.5,5.4-0.6,9.4-0.9c7.8-0.6,14.9-1.4,15.7-1.7
		c0.5-0.2,1.3-0.3,1.8-0.3c1.3,0,6.4-1,8.8-1.8c1.1-0.3,2.7-0.8,3.5-1.1c3.9-1.2,7.7-3,7.7-3.8c0-0.9-1.2-2.8-1.8-2.8
		c-0.3,0-0.6-0.1-0.8-0.3c-0.1-0.2-0.9-0.3-2-0.2c-1.5,0.1-1.8,0.1-1.9-0.4c-0.2-0.7-3.3-0.9-10.6-0.8c-4.7,0.1-5.9,0.2-7.6,0.8
		c-1.1,0.4-2.3,0.9-2.6,1.1c-0.9,0.8-2.5,1.1-10.6,1.9c-7,0.7-13.7,1-21.1,0.9c-4.4,0-8.1,0.1-8.3,0.2c-0.2,0.1-0.4,0.4-0.4,0.6
		c-0.1,0.2-0.2,0.6-0.4,0.9c-0.1,0.2-0.3,0.7-0.4,1c-0.1,0.3-0.3,0.8-0.4,1c-0.3,0.4-0.9,1.9-1.6,4c-0.1,0.2,0.1,0.8,0.4,1.2
		c0.6,0.7,0.8,0.7,3.4,0.7c1.5,0,2.9,0.1,3,0.2c0.1,0.1,1.5,0.1,3,0.1C23.7,6521.3,26.8,6521.2,29,6521.2z M105.2,6512.1
		c0.5-0.3,2.2-1.1,3.7-1.6c4.5-1.7,4.9-3,1-3.3c-1.6-0.1-1.9-0.3-1.9-0.7c0-0.3-0.1-0.6-0.4-0.7c-0.6-0.4-3.3-0.2-5.2,0.3
		c-2.2,0.6-3.2,0.6-3.8,0c-0.5-0.5-0.4-0.5-7.9,0.2c-3.7,0.4-6.1,1-7,1.8c-0.6,0.5-0.6,0.5,0,1.9l0.6,1.4h2.2
		c2.3,0,3.7-0.2,11.3-1.9c2.4-0.6,4.7-1,5.1-1c0.4,0,1.1-0.2,1.7-0.4c1.2-0.5,2.1-0.4,2.1,0.3c0,0.3-0.4,0.5-1,0.6
		c-1.1,0.2-1.5,0.6-1,1c0.3,0.2,0.1,0.4-0.7,0.7c-0.9,0.4-1.1,0.6-1.1,1.3s0.1,0.9,0.6,0.9C104,6512.7,104.7,6512.4,105.2,6512.1z
		 M123.4,6511.8c1.2-0.3,2-0.8,2-1.4c0-0.2,0.6-0.9,1.3-1.6c0.7-0.7,1.3-1.3,1.3-1.4c0-0.3-0.8-0.1-3.7,0.8c-1.6,0.5-3.3,1-3.7,1.1
		c-0.5,0.1-0.8,0.4-0.8,1c-0.1,1.1,0.9,2.1,1.8,1.9C122,6512.1,122.8,6511.9,123.4,6511.8z M290.3,6510.2c2.4-0.2,5.8-0.6,7.5-0.8
		c1.8-0.2,3.9-0.5,4.7-0.7c0.8-0.2,1.8-0.4,2.2-0.4c2,0,3.9-1.5,3-2.4c-0.2-0.2-0.4-0.5-0.4-0.8c0-0.2-0.3-1.1-0.7-1.9
		c-0.4-0.9-0.7-1.7-0.8-1.8c-0.4-0.9-1.6-2.5-1.8-2.5c-0.2,0-0.6-0.1-0.9-0.1c-0.3-0.1-1,0-1.6,0.1c-0.6,0.2-1.2,0.1-1.7-0.1
		c-0.5-0.2-0.8-0.2-1.4,0.2c-0.4,0.3-1,0.5-1.4,0.5s-0.9,0.1-1,0.3c-0.9,0.8-2.8,1-10.7,0.9c-16.2-0.1-25.1-0.4-25.4-1.1
		c-0.2-0.4-0.8-0.4-8.3,0.3c-4.7,0.5-5,0.5-8.3,1.2c-4,0.8-5,1.2-5.2,2.1c-0.1,0.4-0.3,1.1-0.4,1.6c-0.2,0.7-0.1,0.9,0.7,1.5
		c0.5,0.4,1.2,0.7,1.4,0.7c0.3,0,1,0.2,1.6,0.5c1.9,0.8,4.2,1.3,5.8,1.3c0.9,0,1.8,0.2,2.1,0.4s1.2,0.4,1.9,0.4
		c0.7,0,1.5,0.1,1.8,0.3c0.3,0.1,2.1,0.4,4,0.5c1.9,0.1,3.6,0.3,3.7,0.3C261.1,6511.1,286.3,6510.6,290.3,6510.2z M200.7,6510
		c0.4-0.5,0.1-2.1-0.4-2.4c-0.2-0.1-0.9-0.2-1.4-0.2s-2-0.2-3.1-0.5c-1.1-0.2-2.4-0.4-2.9-0.4l-0.9,0.1l1.5,1
		c0.8,0.6,1.6,1.3,1.7,1.6c0.1,0.3,0.6,0.8,1,1C197.2,6510.8,200.3,6510.6,200.7,6510z M217.5,6508.7c0-0.6-1.8-1.9-2.8-2
		c-1-0.1-1.3-0.9-0.7-2c0.4-0.6,0.5-0.6,2.9-0.4c4.8,0.4,5.5,0.5,6.4,0.8c2.2,0.7,10.8,1.2,12.1,0.7c0.3-0.1,0.5-0.4,0.5-0.7
		c0-0.3,0.1-0.6,0.3-0.7c0.3-0.2,0.3-1.4-0.1-1.8c-0.9-0.9-8.3-1.3-14.7-0.7c-2,0.2-5.5,0.4-7.8,0.5l-4.1,0.2v0.7
		c0,0.6,0.2,0.8,1.2,0.9l1.2,0.1l-1.2,0.5c-0.6,0.3-1.5,0.7-1.9,0.8l-0.7,0.3l0.7,0.6c0.4,0.3,1.1,0.6,1.5,0.8
		c0.4,0.1,1,0.4,1.4,0.6c0.3,0.2,1.6,0.5,2.7,0.6c1.2,0.1,2.2,0.4,2.3,0.4C216.8,6509.3,217.5,6509.1,217.5,6508.7z M118.8,6507.8
		c0.8-0.5,1.8-0.9,3.2-1.1c2-0.3,3.5-1,4.9-2.4c0.5-0.5,0.5-0.6-0.8-1.8c-1.9-1.8-2.4-2-3.1-1.2c-0.7,0.9-1,0.8-1.8-0.2
		c-0.9-1.2-1.7-1.6-2.2-1.1c-0.5,0.5-0.6,1.3-0.2,1.6c1,0.6-0.4,3.4-1.7,3.4c-0.3,0-0.7,0.1-0.8,0.3c-0.1,0.2-0.5,0.3-0.9,0.3
		c-0.5,0-0.7,0.1-0.7,0.6c0,0.6,0.6,1.4,1.1,1.4c0.2,0,0.4,0.2,0.5,0.4C116.6,6508.8,117.5,6508.6,118.8,6507.8z M84.1,6506.8
		c0.8-0.2,1.6-0.4,1.9-0.6c0.3-0.1,1.2-0.3,2-0.3s2.4-0.2,3.7-0.4c1.2-0.2,3.6-0.5,5.3-0.6s4-0.4,5.3-0.6c4-0.8,4.2-0.8,4-0.1
		c-0.2,0.7,0.3,1,0.8,0.5c0.4-0.4,4.6-1.1,6.9-1.1c0.6,0,1.3-0.1,1.4-0.3c0.1-0.2,0.3-0.2,0.5-0.1c0.6,0.4,0.2-0.3-0.4-0.8
		c-1.2-0.8-9.3-1.3-10.4-0.6c-0.4,0.3-1,0.4-1.9,0.2c-0.6-0.1-2.5-0.2-4-0.2c-1.8,0-3.1-0.1-3.6-0.4c-0.4-0.2-1.3-0.4-2-0.4
		c-1.2,0-4.2-0.4-8.4-0.9c-3.5-0.5-7.2-1-12.1-1.7c-2.5-0.4-5.9-0.9-7.6-1.2c-3.2-0.6-4.7-0.7-4.9-0.4c-0.1,0.2,0.3,4.1,0.9,7.9
		c0.1,0.5,0.4,1.1,0.6,1.2c0.3,0.1,4.1,0.3,8.5,0.4c4.8,0.1,8.2,0.3,8.6,0.5C79.7,6507.2,82.3,6507.2,84.1,6506.8z M205.4,6505
		c0.8-0.8,0.8-0.9,0.4-1.2c-0.4-0.3-0.5-0.3-0.6,0c-0.2,0.5-0.6,0.4-1.3-0.1c-0.3-0.3-0.8-0.5-1-0.6c-0.9-0.1-1.7-0.5-2-1.2
		c-0.2-0.4-0.5-1-0.6-1.3c-0.2-0.4-0.1-0.6,0.4-0.8c0.9-0.4,1.2-1.1,0.6-1.7c-0.6-0.6-1.6-0.3-3.1,1.1c-1,0.9-1.5,1.2-2.4,1.2
		c-0.7,0-1.3,0.2-1.6,0.5c-0.6,0.7-0.8,2.7-0.2,3c1.1,0.5,2.7,1,5,1.3c1.3,0.2,2.5,0.5,2.6,0.6c0.1,0.1,0.7,0.2,1.4,0.2
		C204.3,6505.9,204.7,6505.7,205.4,6505z M191,6501.4c0-0.2-0.1-0.7-0.2-1.2c-0.2-0.6-0.1-0.8,0.8-1.1c0.5-0.2,1.9-0.4,3-0.5
		c1.4-0.1,2-0.3,2-0.6s0.4-0.4,1.5-0.4c1.2,0,1.7-0.1,2.2-0.6c0.4-0.4,0.7-0.7,0.7-0.9c0-0.1-0.6-0.3-1.3-0.4
		c-0.7-0.1-1.4-0.3-1.5-0.4c-0.2-0.3-1.6-0.4-2.3-0.1c-0.3,0.1-0.5,0.5-0.5,0.9c0,0.9-0.7,1.1-2,0.5c-0.7-0.3-1.8-0.6-3-0.6
		c-1.8,0-2,0-2.4,0.6c-0.2,0.4-0.5,1.5-0.6,2.5c-0.1,1.5-0.1,1.8,0.3,1.8c0.2,0,0.8,0.3,1.2,0.6
		C189.6,6502.1,191.1,6502.1,191,6501.4z M306.7,6500c-0.3-0.3-0.5-0.6-0.5-0.8c0-0.4-1.8-2.2-2-2c-0.1,0.1,1.4,2.9,1.7,3.1
		c0.1,0.1,0.4,0.6,0.6,1l0.4,0.9l0.1-0.8C307.1,6500.9,307,6500.3,306.7,6500z M214,6501.3c0.1-0.4,1.2-0.4,9.9-0.3
		c5.3,0.1,10.5,0.2,11.6,0.4c1.3,0.1,2.7,0,4.3-0.3c4-0.8,8.6-1.6,12.8-2c2.3-0.3,4.2-0.6,4.6-0.9c0.8-0.5,1.2-2.2,0.8-3.8
		c-0.2-0.8-0.2-1.5,0.1-2.8c0.7-2.7,0.4-3-1.9-2.3c-3.2,1-27.2,6.7-29.7,7c-0.3,0-0.7,0.1-0.9,0.2c-0.4,0.2-2.3,0.6-2.6,0.6
		c-0.1-0.1-0.4,0.1-0.6,0.2c-0.2,0.1-1.1,0.4-2.1,0.5c-1,0.1-2.5,0.4-3.3,0.6c-0.9,0.2-2.3,0.4-3.2,0.4c-0.9,0-2.1,0.1-2.5,0.2
		c-0.6,0.1-0.8,0.1-0.6-0.2c0.1-0.2,0.1-0.3-0.3-0.2c-0.3,0.1-1.4,0.4-2.3,0.7c-1,0.3-2.2,0.7-2.7,0.9c-0.9,0.4-0.9,0.4,0.8,0.3
		c1,0,1.8,0.1,2,0.3s1.3,0.4,2.7,0.4c1.3,0,2.3,0.1,2.3,0.3C213,6501.9,213.8,6501.8,214,6501.3z M281.8,6500.2
		c0-0.1-0.1-0.2-0.3-0.3c-0.1-0.1-0.3,0-0.3,0.1c0,0.2,0.1,0.3,0.3,0.3C281.6,6500.3,281.8,6500.2,281.8,6500.2z M283.3,6500.1
		c-0.2-0.1-0.6-0.1-0.9,0c-0.3,0.1-0.1,0.1,0.4,0.1C283.3,6500.2,283.5,6500.2,283.3,6500.1z M289.8,6500.1c-0.2-0.1-0.6-0.1-0.9,0
		c-0.3,0.1-0.1,0.1,0.4,0.1C289.8,6500.2,290,6500.2,289.8,6500.1z M280.1,6499.8c-0.5-0.1-1.4-0.1-1.9,0c-0.5,0.1-0.1,0.1,0.9,0.1
		S280.6,6499.9,280.1,6499.8z M301.4,6498.1c-0.1-0.1-0.4-0.1-0.6,0c-0.2,0.1-0.1,0.2,0.2,0.2
		C301.4,6498.2,301.6,6498.1,301.4,6498.1z M109.5,6490.8c-0.1-0.4-0.3-0.6-0.3-0.4c0,0.4,0.3,1.3,0.4,1.2
		C109.8,6491.6,109.7,6491.2,109.5,6490.8z M294.4,6487.2c-0.1-0.1-0.4-0.3-0.7-0.2c-0.3,0.1-0.7-0.1-0.8-0.2
		c-0.1-0.2,0-0.2,0.4-0.1c0.4,0.1,0.4,0.1,0.2-0.2c-0.2-0.2-0.5-0.3-0.8-0.1c-0.5,0.2-0.5,0.3,0.1,0.7
		C293.4,6487.6,294.5,6487.7,294.4,6487.2z M285.2,6481.7c-0.1-0.1-0.4-0.3-0.5-0.3c-0.2,0-0.2,0.1,0.1,0.3
		C285.3,6482.1,285.4,6482.1,285.2,6481.7z"/>
	<path class="st0" d="M240.8,6514.2c-0.4-0.2-0.4-0.3,0.1-0.3c0.3,0,0.5,0.1,0.5,0.3C241.4,6514.5,241.3,6514.5,240.8,6514.2z"/>
	<path class="st0" d="M238.4,6513.3c-0.6-0.2-0.6-0.2-0.1-0.2c0.3,0,0.9,0.1,1.2,0.2C240.2,6513.6,239.4,6513.6,238.4,6513.3z"/>
	<path class="st0" d="M307.9,6501.8c0.1-0.1,0.2-0.3,0.3-0.3c0.1,0,0.1,0.1,0.1,0.3c0,0.2-0.1,0.3-0.3,0.3
		C307.8,6502.1,307.8,6501.9,307.9,6501.8z"/>
	<path class="st0" d="M207.3,6491.5c-0.1-0.1-0.2-1.2-0.2-2.2c-0.1-1.1-0.2-1.9-0.3-1.9c-0.1,0,0.1-0.6,0.4-1.2l0.6-1.3l0.2,1.2
		c0.3,1.4,0.3,2.9,0.1,4.1c-0.1,0.6-0.1,0.8,0.1,0.6c0.4-0.4,0.9-2.2,0.9-3c0-0.4,0.1-0.7,0.3-0.8c0.1,0,0.7-1,1.2-2.2
		c1.2-2.7,1.3-2.9,1.8-3c0.3-0.1,0.3,0-0.1,0.4c-0.3,0.3-0.4,0.7-0.3,0.8c0.1,0.1,0,0.2-0.1,0.2c-0.2,0-0.4,0.3-0.4,0.6
		c0,0.3-0.2,0.8-0.4,1c-0.3,0.2-0.4,0.6-0.4,0.7c0.1,0.6-0.4,2.4-0.6,2.4c-0.1,0-0.2,0.3-0.1,0.7c0.1,0.4,0,0.7-0.2,0.7
		s-0.3,0.1-0.2,0.3c0.2,0.3-0.9,1.6-1.7,1.9C207.7,6491.6,207.4,6491.6,207.3,6491.5z"/>
	<path class="st0" d="M199.5,6489.3c0-0.1,0.2-0.3,0.5-0.5c0.4-0.4,0.5-0.4,0.1,0.1C199.7,6489.4,199.5,6489.5,199.5,6489.3z"/>
	<path class="st0" d="M200.9,6488.9c0.2-0.3,0.2-0.7,0.1-0.8c-0.1-0.1-0.1-0.1,0.1-0.1c0.4,0.3,0.3,1.2-0.2,1.3
		C200.7,6489.4,200.7,6489.3,200.9,6488.9z"/>
	<path class="st0" d="M202.3,6488.5c0.1-0.1,0.2-0.3,0.3-0.3c0.1,0,0.1,0.1,0.1,0.3c0,0.2-0.1,0.3-0.3,0.3
		C202.2,6488.8,202.2,6488.7,202.3,6488.5z"/>
	<path class="st0" d="M203.6,6487.9c0-0.2,0.2-0.3,0.4-0.3s0.4,0.1,0.4,0.1c0,0.1-0.2,0.2-0.4,0.3
		C203.8,6488.1,203.6,6488.1,203.6,6487.9z"/>
	<path class="st0" d="M204.8,6487.4c0-0.1,0.3-0.3,0.7-0.3c0.4,0,0.7,0.1,0.7,0.2s-0.3,0.3-0.7,0.3
		C205.1,6487.6,204.8,6487.5,204.8,6487.4z"/>
	<path class="st0" d="M216.6,6485.5c0-0.2,0.2-0.7,0.4-1c0.6-0.7,0.6-0.3,0,0.7C216.8,6485.7,216.6,6485.8,216.6,6485.5z"/>
	<path class="st0" d="M54.4,6483c0-0.1,0.7-0.5,1.6-0.8c0.8-0.3,1.9-0.7,2.5-0.9c0.5-0.2,1.1-0.4,1.2-0.4c0.2,0,0.6-0.1,0.9-0.3
		c0.6-0.3,5-1.7,6.5-1.9c0.6-0.1,1.2-0.3,1.3-0.4c0.4-0.3,2.2-0.3,2.2-0.1c0,0.1-1.3,0.5-2.9,0.9c-2.8,0.6-6.6,1.9-6.9,2.4
		c-0.1,0.1-1.3,0.4-2.8,0.7c-1.4,0.3-2.8,0.6-2.9,0.8C54.8,6483.2,54.4,6483.3,54.4,6483z"/>
	<path class="st0" d="M100.4,6481c-0.2-0.2-0.8-0.5-1.3-0.6c-0.5-0.1-1.2-0.4-1.4-0.7s-0.7-0.5-0.9-0.5c-0.4-0.1-1-0.3-5.7-1.7
		c-4.1-1.3-7.9-1.8-11.4-1.5c-1.7,0.1-3.4,0.4-3.8,0.6c-0.4,0.2-1.2,0.3-1.8,0.1c-1-0.2-1-0.2,0.3-0.2c0.8,0,1.5-0.2,1.7-0.4
		c0.2-0.2,1.9-0.4,4.9-0.4c3.7,0,5,0.1,7.3,0.6c1.5,0.4,3.6,0.8,4.6,1c1,0.2,1.9,0.5,1.9,0.6c0.1,0.1,0.3,0.2,0.5,0.1
		c0.2-0.1,0.4-0.1,0.5,0.1c0.1,0.1,0.4,0.3,0.8,0.3c0.7,0,5.3,2.3,5.3,2.7C101.8,6481.6,100.8,6481.4,100.4,6481z"/>
	<path class="st0" d="M213.7,6479.8c0.9-0.9,1.8-1.6,1.9-1.5c0.2,0.2-2.7,3.1-3.2,3.1C212.2,6481.4,212.8,6480.7,213.7,6479.8z"/>
	<path class="st0" d="M71,6477.9c0.1-0.1,0.3-0.3,0.5-0.3c0.1,0,0.3,0.1,0.3,0.3c0,0.2-0.2,0.3-0.5,0.3
		C71,6478.2,70.9,6478.1,71,6477.9z"/>
	<path class="st0" d="M216,6477.7c0-0.2,0.2-0.4,0.4-0.4c0.2,0,0.7-0.3,1.2-0.7c1.3-1.2,1.3-0.8-0.1,0.4
		C216.2,6478.3,216,6478.4,216,6477.7z"/>
	<path class="st0" d="M72.3,6477.6c0.2-0.1,0.9-0.3,1.3-0.4c0.8-0.2,0.8-0.1,0.3,0.2c-0.3,0.2-0.9,0.4-1.3,0.4
		C72.1,6477.8,72,6477.8,72.3,6477.6z"/>
	<path class="st0" d="M220.1,6475.4c0-0.2,4.6-2.2,6-2.5c0.6-0.1,1.5-0.4,1.9-0.5c0.4-0.1,0.2,0.1-0.4,0.4c-0.6,0.3-1.4,0.6-1.7,0.6
		c-0.5,0-1.5,0.4-4.3,1.5C220.8,6475.3,220.1,6475.5,220.1,6475.4z"/>
	<path class="st0" d="M230.1,6472.7c0.2-0.1,0.4-0.3,0.4-0.6c0-0.3,0.1-0.4,0.3-0.3c0.1,0.1,0.9,0,1.6-0.3c0.9-0.3,3.1-0.5,6.7-0.6
		c4.7-0.1,6-0.1,9.1,0.4c2,0.4,3.7,0.7,3.8,0.8c0.2,0.2-0.9,0.1-5-0.6c-2.3-0.4-3.9-0.5-8.3-0.3c-3,0.1-5.6,0.3-5.7,0.5
		c-0.2,0.1-0.6,0.3-0.9,0.3s-0.9,0.2-1.2,0.4c-0.3,0.2-0.7,0.4-0.9,0.4C229.9,6472.8,229.9,6472.7,230.1,6472.7z"/>
</g>
</svg>
