<?xml version="1.0" encoding="utf-8"?>
<!-- Generator: Adobe Illustrator 27.6.1, SVG Export Plug-In . SVG Version: 6.00 Build 0)  -->
<svg version="1.1" id="fruitfly" xmlns="http://www.w3.org/2000/svg" xmlns:xlink="http://www.w3.org/1999/xlink" x="0px" y="0px"
	 viewBox="0 0 32 32" style="enable-background:new 0 0 32 32;" xml:space="preserve">
<g>
	<path d="M15.005,7.535c-0.087-0.433-0.519-0.692-0.519-0.692h-0.087c-0.866,0.26-1.212,0.692-1.385,0.952
		c-0.173,0.346-0.173,0.692-0.087,0.952c1.125-0.087,1.818-0.346,1.904-0.433C15.005,8.141,15.091,7.968,15.005,7.535z"/>
	<path d="M16.822,7.535c-0.087,0.433-0.087,0.606,0.173,0.779C17.082,8.4,17.774,8.746,18.9,8.746
		c0.173-0.346,0.087-0.692-0.087-0.952c-0.173-0.346-0.606-0.692-1.471-0.952l0,0C17.428,6.929,16.995,7.102,16.822,7.535z"/>
	<path d="M15.437,7.881c0,0.26-0.087,0.519-0.26,0.692c-0.433,0.433-1.558,0.519-1.991,0.606c0.173,0.26,0.519,0.346,0.779,0.346
		h1.991l0,0h1.991c0.26,0,0.606-0.173,0.779-0.346c-0.519-0.087-1.558-0.173-1.991-0.606c-0.173-0.173-0.26-0.346-0.26-0.692
		c0-0.433,0.26-0.779,0.346-0.952c0.087-0.087,0.087-0.087,0.173-0.087l0,0l0,0l0,0l0,0c0-0.087,0.087-0.433-0.173-0.866
		c0.173-0.26,0.433-0.519,0.779-0.866c0,0-0.433,0.346-0.779,0.692c-0.173-0.173-0.433-0.346-0.866-0.606
		c0,0,0.433,0.346,0.606,0.779c-0.26,0.26-0.433,0.433-0.519,0.692c-0.087,0-0.173,0-0.26,0c0,0,0,0-0.087,0
		c-0.173-0.26-0.26-0.433-0.519-0.692c0.26-0.433,0.692-0.866,0.692-0.866c-0.346,0.346-0.606,0.519-0.779,0.779
		c-0.433-0.433-0.866-0.779-0.866-0.779c0.346,0.346,0.606,0.692,0.779,0.866c-0.26,0.433-0.173,0.692-0.173,0.779l0,0
		c0.087,0,0.087,0.087,0.173,0.173C15.178,7.102,15.351,7.535,15.437,7.881z M16.649,6.15c0.087,0.26,0.087,0.433-0.087,0.606
		c-0.087,0-0.26,0-0.346,0C16.303,6.583,16.389,6.41,16.649,6.15z M15.178,6.236c0.173,0.26,0.26,0.433,0.346,0.519
		c-0.087,0-0.26,0-0.346,0C15.091,6.583,15.091,6.41,15.178,6.236z"/>
	<path d="M19.679,12.988l-0.692-0.866c0-0.433,0-0.866,0-1.212c0-0.606-0.433-1.039-1.039-1.039l0,0c-0.087,0-0.26,0-0.346,0
		c0,0-2.337,0-3.462,0c-0.173,0-0.26,0-0.346,0h-0.087c-0.519,0.087-0.952,0.519-0.952,1.039c0,0.433,0,0.952,0.087,1.385l0,0
		c-1.125,1.558-4.587,7.357-5.02,9.867c-0.346,2.077-0.26,5.02,0.606,6.232c0.26,0.346,0.519,0.519,0.866,0.519h0.087
		c1.558,0,4.241-3.549,4.587-3.895l1.991-2.683c0.087-0.087,0.087-0.26-0.087-0.26c-0.087-0.087-0.26-0.087-0.26,0.087l-1.991,2.51
		c-0.779,1.125-3.202,3.895-4.328,3.722c-0.26,0-0.433-0.173-0.606-0.346c-0.779-1.039-0.866-3.895-0.519-5.886
		c0.433-2.25,3.462-7.444,4.76-9.348c0.087,0.519,0.26,1.039,0.433,1.558c0,0,0,0.087,0,0.173c0,0.087,0.346,3.116,0.779,3.981l0,0
		l2.25,3.895l1.731,2.51C18.467,25.365,21.323,29,22.881,29h0.087c0.346,0,0.692-0.26,0.866-0.606
		c0.866-1.125,0.866-3.895,0.519-5.886C23.92,20.085,20.89,14.546,19.679,12.988z M23.573,28.221
		c-0.173,0.26-0.346,0.346-0.606,0.433c-1.125,0.087-3.635-2.856-4.501-3.895l-1.645-2.51l-2.25-3.895
		c-0.26-0.519-0.519-2.077-0.606-3.029c0.087,0.087,0.087,0.173,0.173,0.26c0,0,0.779,0.952,0.952,1.385
		c0.173,0.433,0.519,0.779,0.952,0.779s0.866-0.866,0.866-0.866l1.039-1.298c0.087-0.087,0.173-0.26,0.26-0.346
		c-0.087,1.212-0.173,2.683-0.346,3.029c-0.26,0.606-1.471,2.51-1.471,2.597c-0.087,0.087,0,0.26,0.087,0.26h0.087
		c0.087,0,0.173,0,0.173-0.087c0.087-0.087,1.212-1.991,1.558-2.683c0.26-0.606,0.346-3.029,0.433-3.981
		c0.26-0.519,0.346-1.125,0.433-1.645l0.346,0.519c1.125,1.471,4.155,7.011,4.587,9.434C24.352,24.586,24.266,27.182,23.573,28.221z
		"/>
	<path d="M14.832,24.413c0,0,0.779,1.645,1.471,1.645c0.779,0,1.298-1.385,1.298-1.385l-1.471-2.164L14.832,24.413z"/>
	<path d="M9.725,14.719c0.346,0.346,0.779,0.779,0.779,0.779l0.346-0.519c-0.346-0.433-0.779-0.779-0.952-0.866
		c-0.087-0.087-0.173-0.087-0.26-0.173c-0.692-0.26-1.558-0.433-1.904-0.606c-0.087,0-0.26-0.087-0.346,0L5.397,13.68
		c-0.087,0-0.173,0.087-0.173,0.26s0.173,0.26,0.26,0.26c0.606-0.087,1.904-0.26,2.164-0.346c0.26,0,1.125,0.346,1.645,0.519
		C9.465,14.372,9.638,14.546,9.725,14.719z"/>
	<path d="M26.603,13.247l-1.991-0.346c-0.173,0-0.26,0-0.433,0c-0.346,0.087-1.212,0.26-1.904,0.606
		c-0.087,0-0.173,0.087-0.26,0.173c-0.26,0.173-0.606,0.433-0.952,0.866l0.346,0.519c0,0,0.433-0.346,0.779-0.779
		c0.173-0.173,0.346-0.26,0.519-0.346c0.519-0.173,1.471-0.606,1.645-0.519c0.26,0,1.558,0.26,2.164,0.346
		c0.173,0,0.26-0.087,0.26-0.26C26.776,13.334,26.689,13.247,26.603,13.247z"/>
	<path d="M12.841,26.75c0,0-0.173,0.952-0.173,1.645c0,0.087,0.087,0.26,0.26,0.26s0.26-0.087,0.26-0.26
		c0-0.346-0.087-0.952,0.087-2.077L12.841,26.75z"/>
	<path d="M18.9,26.23c0.173,1.125,0.173,1.818,0.087,2.077c0,0.173,0.087,0.26,0.26,0.26c0.087,0,0.26-0.087,0.26-0.26
		c0-0.692-0.173-1.645-0.173-1.645L18.9,26.23z"/>
	<path d="M10.85,9.699c0.173,0.606,1.645,1.731,1.645,1.731v-0.866L11.37,9.525l0.173-2.856l-0.346-3.462
		c0-0.173-0.173-0.26-0.26-0.173c-0.173,0-0.26,0.087-0.26,0.26l0.346,3.376C11.023,6.669,10.764,9.093,10.85,9.699z"/>
	<path d="M21.063,9.612c0.087-0.519-0.26-2.943-0.26-2.943l0.346-3.376c0-0.173,0-0.26-0.173-0.26c-0.087,0-0.26,0.087-0.26,0.173
		L20.37,6.668l0.173,2.856l-1.125,0.952v0.866C19.419,11.343,20.89,10.218,21.063,9.612z"/>
	<path d="M15.351,21.383c0,0-1.039-1.645-1.558-2.77c-0.346-0.779-0.606-2.25-0.692-3.202c0,0-0.606,2.423-0.519,3.808
		s1.471,3.981,1.471,3.981L15.351,21.383z"/>
	<path d="M18.813,15.411c0,0,0.087,2.423-0.346,3.376s-1.558,2.683-1.558,2.683l1.212,2.077c0,0,1.385-2.25,1.385-4.674
		S18.813,15.411,18.813,15.411z"/>
	<path d="M17.515,16.623c0,0-0.173,0.173-0.433,0.692s-0.692,0.866-1.385,0.866s-1.212-1.385-1.212-1.385
		c0.173,1.385,1.645,3.289,1.645,3.289s0.866-1.298,1.039-1.731C17.428,18.008,17.515,16.623,17.515,16.623z"/>
	<path d="M10.677,20.085l2.077,3.376v1.645l0.433-0.606l0.087-1.125l-1.904-3.029c-0.087-0.087,0-0.26,0-0.26l0.866-0.779V18.44
		l-1.558,1.558C10.59,19.912,10.59,19.998,10.677,20.085z"/>
	<path d="M19.852,18.527v0.866l0.866,0.779c0.087,0.087,0.087,0.173,0,0.26L18.9,23.547l0.087,1.125l0.433,0.606v-1.645l2.077-3.376
		c0.087-0.087,0-0.26,0-0.26L19.852,18.527z"/>
	<polygon points="12.408,16.536 11.716,15.757 11.369,16.277 12.321,17.315 	"/>
	<polygon points="20.544,15.93 20.284,15.325 19.679,16.363 19.852,17.142 	"/>
</g>
</svg>
