<?xml version="1.0" encoding="utf-8"?>
<!-- Generator: Adobe Illustrator 25.4.1, SVG Export Plug-In . SVG Version: 6.00 Build 0)  -->
<svg version="1.1" id="denio-rerio" xmlns="http://www.w3.org/2000/svg" xmlns:xlink="http://www.w3.org/1999/xlink" x="0px"
	 y="0px" viewBox="0 0 32 32" style="enable-background:new 0 0 32 32;" xml:space="preserve">
<path d="M19.9,11.5c-0.2,0-1,0.3-1.3,0.3c-0.1,0.1-1.8,0.7-2,0.8c-0.4,0.2-1.4,0.3-2.2,0.1c-1.8-0.2-4.8,0-6.5,0.3
	c-0.3,0.1-1.4,0.3-1.5,0.3c-0.5,0.1-1.5,0.4-1.9,0.5c-0.6,0.1-1.5,0.4-1.6,0.5S1.8,14.9,1.8,15c-0.2,0.2-0.2,0.6-0.1,0.6
	c0,0,0.1,0.1,0.2,0.3c0.1,0.3,0.3,0.6,0.6,0.9s1.4,0.8,1.9,1c1.6,0.4,3.6,0.9,3.9,1c1,0.3,2.5,0.5,4,0.5h1c0,0,1.3,0.7,1.6,0.8
	s0.6-0.1,0.7-0.4c0-0.3,0.1-0.7,0-0.8v-0.1c0.1-0.1,0.8-0.2,0.9-0.2c0.2-0.1,0.2-0.1,0.3,0.1c0.1,0.1,1.3,1.4,1.4,1.5
	c0.7,0.7,1.2,0.4,1.3,0.4s0.2-0.1,0.4-0.2s0.5-0.3,0.6-0.3s1.7-1.5,1.8-1.5c0.2-0.1,0.5-0.5,0.5-0.7c0-0.1,0-0.1,0.1-0.2
	s0.1-0.3,0-0.4c0,0,0.2,0,0.4,0s1,0.1,1.9,0.5c0.1,0.1,0.6,0.3,1.1,0.6c0.2,0.1,0.6,0.3,1,0.6c0.4,0.2,0.8,0.5,0.9,0.5
	c0.7,0.4,1,0.6,1.5,0.4s0.9-1.4-0.1-2.1c-1.4-1.1-0.7-1.5-0.6-1.6c0.3-0.3,1-1,1.2-1.2c0.4-0.4,0.6-1,0.5-1.3
	c-0.1-0.4-0.9-1-2.7-0.3c-0.1,0-0.5,0.2-0.8,0.4s-0.8,0.4-1,0.4s-1.1,0.4-1.8,0.3c-1.2-0.2-2.3-0.3-3.6-0.5c-0.1,0-0.2-0.2-0.1-0.3
	c0,0,0.1-0.2,0.2-0.4c0.2-0.7,0-1.7-0.4-1.9C20.1,11.4,20,11.5,19.9,11.5z M12.3,14.7c0.9,0,1.7,0,2.4,0c2,0,2.9,0.1,4.3,0.2
	c0.2,0,0.5,0.1,0.6,0.1c0.3,0,1.5,0.1,2,0.2c0.3,0,0.7,0.1,0.8,0.1c0.2,0,0.5,0.1,0.7,0.1s0.5,0.1,0.6,0.1s0.3,0,0.3,0.1
	c0,0,0.2,0,0.3,0c0.2,0,0.5,0,0.7,0.1c0,0,0.1,0.1,0,0.1c-0.1,0.1-0.1,0.1-0.3,0c-0.1,0-0.5-0.1-0.9-0.1S23,15.6,23,15.6
	s-0.4-0.1-0.8-0.1c-0.3,0-0.6-0.1-0.9-0.1c-0.2-0.1-1.5-0.2-2.4-0.2c-0.6,0-1.2,0-1.2-0.1c-0.1,0-0.5,0-1-0.1
	c-0.5,0-1.1-0.1-1.3-0.1c-0.3-0.1-0.5-0.1-0.8,0c-0.2,0-0.5,0-0.5,0s-1,0-2.1-0.1c-1.5,0-2.2,0-2.5,0c-0.4,0.3-1.1,0.1-0.2,0
	C9.7,14.8,10.9,14.7,12.3,14.7z M8.4,16h0.5c1.2,0,3.1,0.1,3.7,0.2c0.2,0,1.1,0,2,0c5-0.1,5.6,0,6.6,0.2c0.2,0,0.7,0.1,1.1,0.1
	s0.9,0.1,1,0.1s0.5,0.1,0.8,0.1c0.5,0.1,0.7,0.1,0.5,0.2c-0.1,0.1-0.2,0.1-0.9,0c-0.3,0-0.8-0.1-1.2-0.1s-0.8-0.1-1-0.1
	c-0.3-0.1-0.5-0.1-1-0.2c-1.5-0.2-4.4-0.3-4.6-0.1c-0.1,0.1-2.9,0-3.8-0.1c-0.2,0-0.7-0.1-0.9-0.1c-0.4,0-0.7,0-1.1-0.1
	c-0.6,0-2.2,0-2.3,0S7.7,16,7.7,15.9C7.8,16,7.9,16,8.4,16z M21.4,17c0.3,0,0.5,0,0.4,0.1c0,0-0.2,0.1-0.4,0.1l-1.2,0.1
	c-0.4,0-0.8,0.1-1.1,0.1c-0.2,0-0.7,0.1-1.1,0.1s-0.8,0.1-1,0.1c-0.3,0-0.6,0.1-0.8,0.1c-0.1,0-0.3,0.1-0.5,0.1s-1.2,0-2.1,0.1
	c-1.4,0-1.7,0-1.9-0.1c-0.1,0-0.3-0.1-0.4-0.1s-0.1,0-0.1-0.1l0.1-0.1c0.1-0.1,0.1-0.1,0.4,0c0.2,0,0.5,0.1,0.8,0.1s0.7,0,1,0
	c0.4,0,0.9,0,2.3-0.1c0.3,0,0.5-0.1,0.6-0.1c0.1-0.1,1.1-0.2,3.1-0.3c0.5,0,1-0.1,1.5-0.1C21.2,17.1,21.3,17.1,21.4,17L21.4,17
	L21.4,17z"/>
</svg>
