<?xml version="1.0" encoding="utf-8"?>
<!-- Generator: Adobe Illustrator 25.4.1, SVG Export Plug-In . SVG Version: 6.00 Build 0)  -->
<svg version="1.1" id="astyanax_x5F_mexicanus" xmlns="http://www.w3.org/2000/svg" xmlns:xlink="http://www.w3.org/1999/xlink"
	 x="0px" y="0px" viewBox="0 0 32 32" style="enable-background:new 0 0 32 32;" xml:space="preserve">
<style type="text/css">
	.st0{fill:#020203;}
</style>
<path class="st0" d="M15.1,9.4c0.2,0,0.3,0.1,0.9,0.5c0.6,0.4,0.8,0.5,1,0.5c0,0,0.1,0,0.2,0c0.1,0,1.3,0.7,1.4,0.8
	c0,0,0.1,0.1,0.2,0.2c0.1,0.1,0.1,0.1,0.2,0.2l0.1,0c0,0,0,0,0,0l1.7,0l1.7,0c0,0,0,0,0,0l0.7,0.1c0.4,0.1,0.8,0.1,0.9,0.1
	c0.2,0.1,1.5,0.4,1.6,0.5c0.2,0.1,1.3,0.8,1.9,1.1c0.2,0.2,0.7,0.4,0.9,0.6c0.6,0.4,0.6,0.4,1.4,0.9c0.3,0.2,0.6,0.4,0.7,0.5
	c0.2,0.2,0.3,0.4,0.3,0.7c0,0.1,0,0.2,0.1,0.3c0,0.1,0.1,0.1,0.1,0.2c0,0.2-0.1,0.5-0.4,0.9c-0.3,0.4-0.3,0.5-0.7,0.8
	c-0.4,0.3-0.4,0.4-1,0.6c-0.2,0.1-0.6,0.2-0.9,0.4c-0.3,0.1-0.8,0.3-1.2,0.4s-1,0.4-1.3,0.5c-1.6,0.7-1.9,0.8-2.7,1
	c-0.4,0.1-0.9,0.3-1,0.3c-0.1,0-0.5,0.1-0.8,0.1c-0.6,0.1-0.7,0.1-1.3,0.1c-0.8,0-0.7,0-1.3,0.2c-0.5,0.2-0.6,0.2-1.2,0.3
	c-0.3,0-0.6,0.1-0.8,0.1c-0.4,0.1-0.5,0.1-0.5,0c0,0,0-0.1,0-0.3c0-0.3-0.1-1.4-0.1-1.4c0-0.1-0.1-0.1-0.4-0.1
	c-0.4-0.1-0.5-0.1-0.8-0.3c-0.2-0.1-0.3-0.1-0.4-0.1c0,0-0.2,0.1-0.3,0.2c-0.3,0.2-0.5,0.3-1,0.5c-0.7,0.3-1.5,0.4-1.7,0.4
	c-0.1,0-0.2-0.1-0.2-0.2c0,0,0-0.2,0-0.4c0-0.5-0.1-0.5-0.4-0.9c-0.2-0.3-0.9-1.2-1.2-1.6C9,18.3,9,18.1,9,17.9c0,0,0-0.1,0-0.1
	c-0.1-0.1-0.1-0.1-0.5-0.1l-0.3,0c0,0,0,0,0,0l-0.5,0.1C7.4,17.9,7.1,18,7.1,18C7,18,6.9,18.1,6.7,18.4c-0.1,0.1-0.3,0.3-0.9,0.8
	c-0.6,0.5-0.9,0.7-1.4,1.1c-0.7,0.6-0.8,0.7-1.2,1c-0.3,0.2-0.5,0.3-0.6,0.3c-0.1,0-0.3-0.1-0.4-0.1C2.1,21.3,2,21.1,2,20.9
	c0-0.3-0.1-0.9,0-1.1c0-0.2,0.3-1,0.5-1.2c0-0.1,0.3-0.4,0.5-0.7s0.4-0.6,0.5-0.6c0,0,0-0.1,0-0.2c0-0.2-0.1-0.4-0.6-0.8
	c-0.4-0.3-1-0.8-1.1-0.9c0,0-0.1-0.1-0.1-0.2c-0.1-0.1-0.3-0.7-0.3-1c0-0.2-0.1-0.4-0.2-0.6c-0.1-0.2,0-0.5,0.3-0.5c0.1,0,0.8,0,1,0
	c0.2,0,0.3,0.1,1,0.4c0.8,0.3,0.8,0.3,1.5,0.7c0.3,0.2,0.6,0.3,0.7,0.4c0.2,0.1,1,0.3,1.2,0.3c0.1,0,0.3,0,0.6,0
	c0.5,0,0.6-0.1,1-0.2c0.3-0.1,0.4-0.2,0.3-0.4c-0.1-0.1-0.1-0.3-0.1-0.4c0-0.1,0.1-0.2,0.2-0.2c0,0,0.2,0,0.4,0c0.3,0,0.4,0,1.1,0.2
	c0.2,0.1,0.3,0.1,0.5,0.1c0.2,0,0.2,0,1.1-0.3c1.1-0.3,1.1-0.3,2.1-0.6c0.5-0.1,0.9-0.2,0.9-0.2c0,0,0,0,0,0c0,0,0.1-0.1,0-0.1
	c0,0-0.1-0.1-0.2-0.2c-0.3-0.3-0.4-0.4-0.5-0.7c-0.1-0.3-0.1-0.5-0.1-1c0-0.4,0-0.5,0.1-0.8c0.1-0.5,0.2-0.6,0.5-0.7
	C14.6,9.3,14.9,9.3,15.1,9.4z"/>
</svg>
