<?xml version="1.0" encoding="utf-8"?>
<!-- Generator: Adobe Illustrator 25.4.1, SVG Export Plug-In . SVG Version: 6.00 Build 0)  -->
<svg version="1.1" id="salmo_x5F_salar" xmlns="http://www.w3.org/2000/svg" xmlns:xlink="http://www.w3.org/1999/xlink" x="0px"
	 y="0px" viewBox="0 0 32 32" style="enable-background:new 0 0 32 32;" xml:space="preserve">
<path d="M12.6000004,15.6000004"/>
<path d="M12.3000002,15.8000002"/>
<path d="M2.0257397,5.6987453c0.1406403-0.1118507,0.362582-0.2706947,0.402317-0.4693699
	c0.0196116-0.0980577-0.0280566-1.4293759,0.1719434-1.7293758C2.8,3.0999999,3.2,3,3.5999999,3C4.8000002,2.8,6,2.7,7.1999998,2.5
	C8.5,2.3,9.7999992,2.2,11.1000004,2.3c0.3000002,0,1.5,0.0999999,1.6000004,0.0999999
	c1,0.0999999,2.1000004,0.2,3.1000004,0.4000001C16.6000004,2.8999999,16.9000015,3,17.6000004,3.2
	C17.7000008,3.2,18,3.1000001,17.8999996,3.1000001V3C18,3,18,2.9000001,18.1000004,2.9000001
	c0.2999992-0.2,0.5-0.4000001,0.7999992-0.5999999c0.7000008-0.6,1.5-0.9,2.2999992-1.2c0.1000004,0,0.1000004,0,0.2000008,0
	c0,0.1,0.2999992,0.4,0.3999996,0.5c0.1000004,0.2,0.2000008,0.3,0.2999992,0.6000001
	c0.1000004,0.2,0.2999992,0.5999999,0.3999996,0.7c0,0,0.2999992,0.5,0.2999992,0.6000001c0,0,0.2999992,0.5,0.3999996,0.5999999
	c0.1000004,0.1999998,0.2000008,0.5,0.2999992,0.5999999c0,0,0.2999992,0.5,0.3999996,0.5999999
	c0,0,0.2000008,0.4000001,0.2999992,0.4000001c0,0.0999999,0.2999992,0.4000001,0.5,0.5999999V6.5
	c-0.1000004,0-0.2000008,0.0999999-0.2999992,0.0999999v0.0999999c0.1000004,0,0.1000004,0.0999999,0.2000008,0.0999999
	c0.2999992,0.3000002,0.7000008,0.5,1,0.8000002c0.7000008,0.7000003,1.3999996,1.4000001,2,2.0999999
	C28.6999969,10.8999996,29.4999962,12.3999996,29.9999962,14c0.6000004,2,0.6000004,4,0.2000008,6.1000004
	c-0.3999996,1.8999996-1.2000008,3.6000004-2.5,5.1000004c-0.5,0.5-0.6000004,0.7000008-0.8999996,0.8999996
	c0,0.1000004-0.2999992,0.6000004-0.2000008,0.6000004c0,0.1000004,0,0.1000004-0.1000004,0.2000008
	c-0.6000004,1.1000004-1.3999996,2.1000004-2.3999996,3c-0.6000004,0.5-1.2000008,1-1.7999992,1.2999992
	C22,31,21.8999996,31,21.8999996,30.7999992c0-0.2999992-0.1000004-0.6000004-0.2000008-0.8999996
	c-0.1000004-0.7000008-0.2999992-1.2999992-0.3999996-2C21.1999989,27.2999992,21,26.7999992,20.6999989,26.2999992
	C20.2999992,25.6999989,19.8999996,25.0999985,19.4999981,24.5c-0.1000004-0.2000008-0.1000004-0.2000008,0.1000004-0.2999992
	c0.2000008,0,0.3999996-0.1000004,0.6000004-0.1000004C21.2999992,24,22.3999996,24.2000008,23.4999981,24.3000011
	c0.3999996,0,0.7999992,0,1.2000008,0c0.2000008,0,1.2000008-0.1000004,1.3999996-0.6000004
	c0-0.1000004,0.7999992-1.2000008,0.2000008-2.2000008c-0.5-0.7000008-1.1000004-1.2999992-1.7999992-1.7999992
	C24.3999996,19.6000004,24.2999992,19.5,24.2000008,19.5c0,0-0.2000008-0.1000004-0.5-0.2999992
	c-0.1000004,0.5,0,0.7000008-0.1000004,0.7000008C23,20.5000019,22.3000011,21.0000019,21.5,21.4000015
	c-0.1000004,0.1000004-0.2000008,0-0.2000008-0.1000004s0-0.2000008-0.1000004-0.3999996
	c-0.2999992-0.7999992-0.5-1.5-0.7999992-2.2999992c-0.1000004-0.2000008-0.1000004-0.2999992-0.2000008-0.5
	c0,0-0.2000008-1-0.3999996-1.1000004C18.5999985,16.4000015,18.0999985,16.2000027,17,15.6000023
	c-0.8999996-0.3999996-1.6999998-0.8999996-2.5-1.3999996c-0.5-0.3000002-1-0.6999998-1.5-1l-0.5-0.3000002
	c0.1000004,0.1999998-0.1000004,0.6000004-0.3000002,1c-0.1999998,0.5-0.3999996,0.8000002-0.8999996,1
	C10.6999998,15.2000027,10.1000004,15.5000029,9.5,15.8000021c-0.1999998,0.1000004-0.3999996,0.3000002-0.3999996,0.500001
	c0,0,0,0.1000004-0.1000004,0.1000004H8.8999996c0-0.1000004-0.1000004-0.1000004-0.1000004-0.2000008
	c-0.5-1.3999996-0.5-2.8000002,0-4.1000004c0-0.1000004,0.6000004-0.3999996,0.8999996-0.5
	c-1.6999998-1-5-3.3999996-5.8000002-3.8000002c-0.7-0.1999998-1.4000001-0.5-2-1.0999999
	C1.8,6.5999999,1.6925008,6.3999062,1.7,6.0999999C1.705376,5.8850036,1.8692075,5.823235,2.0257397,5.6987453z"/>
</svg>
