<?xml version="1.0" encoding="utf-8"?>
<!-- Generator: Adobe Illustrator 27.6.1, SVG Export Plug-In . SVG Version: 6.00 Build 0)  -->
<svg version="1.1" id="tilapia" xmlns="http://www.w3.org/2000/svg" xmlns:xlink="http://www.w3.org/1999/xlink" x="0px" y="0px"
	 viewBox="0 0 32 32" style="enable-background:new 0 0 32 32;" xml:space="preserve">
<g>
	<path d="M4.872,14.499c-0.045-0.042-0.067-0.061-0.067-0.057c-0.061-0.016-0.102-0.025-0.125-0.027
		c-0.033-0.004-0.088,0.011-0.165,0.044c-0.014,0.006-0.057,0.037-0.128,0.092c-0.027,0.027-0.048,0.055-0.063,0.086
		c-0.029,0.068-0.042,0.111-0.04,0.129c0.009,0.109,0.06,0.211,0.155,0.305c0.061,0.058,0.138,0.09,0.232,0.095
		c0.083-0.031,0.146-0.075,0.189-0.133c0.043-0.064,0.069-0.113,0.078-0.146c0.015-0.04,0.023-0.08,0.025-0.119
		c0.001-0.071-0.002-0.117-0.008-0.136C4.927,14.575,4.899,14.53,4.872,14.499z"/>
	<polygon points="4.14,17.715 4.142,17.713 4.141,17.713 	"/>
	<polygon points="4.199,17.674 4.198,17.674 4.197,17.674 4.199,17.675 4.2,17.676 4.202,17.676 4.201,17.675 	"/>
	<path d="M5.3,19.633c0.353,0.038,1.057-0.071,1.384-0.206c0.924-0.617,1.498-0.977,1.906-2.541
		c0.255-1.025-0.004-2.289-0.532-3.311c0.132,0.054,0.412,0.662,0.839,1.824c0.106,1.327,0.044,2.187-0.188,2.581
		c-0.713,1.362-1.742,2.051-3.087,2.065c0.77,0.556,1.995,1.19,3.675,1.901c0.346,0.088,0.67,0.167,0.971,0.237
		c0.047,0.055,0.094,0.111,0.143,0.165c0.418,0.436,0.683,0.694,0.796,0.773c0.39,0.333,0.83,0.652,1.317,0.957
		c0.162,0.098,0.331,0.187,0.507,0.267c0.449,0.184,0.726,0.283,0.831,0.298c0.376,0.104,0.803,0.173,1.281,0.206
		c0.109-0.003,0.14-0.024,0.093-0.061l-0.525-0.276l0.079-0.144l-0.172-0.137l0.052-0.218c-0.001-0.01-0.044-0.05-0.129-0.118
		c0.022-0.148,0.013-0.218-0.028-0.209l0.064-0.141c-0.001-0.021-0.066-0.062-0.195-0.124l-0.021-0.261
		c0.045-0.085,0.103-0.131,0.174-0.139c-0.004-0.018,0.222,0.012,0.68,0.089c0.07,0.007,0.148,0.011,0.236,0.011
		c0.315-0.014,0.503-0.047,0.565-0.102c0.164-0.093,0.246-0.188,0.246-0.285c-0.006-0.018-0.022-0.035-0.048-0.052
		c-0.171-0.059-0.261-0.095-0.27-0.109l-0.087-0.218l0.047-0.006l-3.128-0.215c-0.152-0.024-0.303-0.05-0.451-0.078L10.98,21.71
		c0.636,0.055,1.18,0.1,1.632,0.135l0.042,0.004l0.136,0.01c0.751,0.056,1.218,0.082,1.4,0.075l0,0c0.002,0,0.004,0,0.005,0.001
		c0.568,0.061,1.271,0.172,2.108,0.332l0.685-0.169l0.396-0.023c0.268-0.032,0.66-0.095,1.178-0.19
		c0.15-0.018,0.279-0.025,0.385-0.022c0.098,0.008,0.202,0.025,0.31,0.053c0.642,0.244,1.14,0.421,1.494,0.533
		c0.184,0.056,0.535,0.134,1.054,0.235c0.645,0.135,1.366,0.188,2.162,0.16c0.343-0.011,0.809-0.094,1.396-0.248
		c0.236-0.069,0.376-0.161,0.418-0.277l-0.025-0.04c-0.365-0.14-0.574-0.242-0.625-0.307c-0.042-0.055-0.09-0.182-0.145-0.381
		l-0.227-0.253c-0.013-0.186-0.027-0.292-0.041-0.317c-0.259-0.155-0.389-0.249-0.392-0.28c-0.094-0.106-0.15-0.217-0.167-0.332
		c-0.051,0.021-0.138-0.079-0.26-0.3l-0.152-0.084l-0.049-0.134c-0.011-0.012-0.104-0.021-0.278-0.027
		c-0.043-0.114-0.106-0.165-0.19-0.154c0.049-0.088,0.021-0.213-0.083-0.375c-0.072-0.055-0.141-0.085-0.207-0.09
		c-0.025-0.1-0.07-0.159-0.133-0.176l-0.081,0.004c-0.33,0.013-0.519,0.018-0.567,0.016c-0.036,0.012-0.07,0.027-0.101,0.044
		c-0.083,0.016-0.595,0.393-1.533,1.13c-0.054,0.038-0.107,0.075-0.16,0.113l-0.322,0.184c0.005-0.009,0.013-0.021,0.026-0.035
		c0.04-0.042,0.08-0.083,0.119-0.124c0.232-0.225,0.734-0.662,1.504-1.31c0.008-0.005,0.016-0.011,0.023-0.017h-0.003
		c0.009-0.008,0.018-0.015,0.027-0.022c0.503-0.249,1.159-0.518,1.968-0.805c0.503-0.03,0.849-0.011,1.039,0.058l2.484,1.686
		c0.244,0.109,1.05,0.352,2.418,0.729L30,18.992c-0.022,0.045-0.05-0.144-0.083-0.566l-0.03-2.158
		c-0.54-0.455-0.878-0.708-1.013-0.76c0.187,0.022,0.488,0.007,0.9-0.043l0.015,0.036c0-0.013,0-0.025,0-0.038
		c0.006-0.001,0.011-0.001,0.016-0.002l-0.017-0.113c-0.001-0.246-0.012-0.479-0.034-0.699c-0.015-0.15-0.092-0.587-0.23-1.311
		c-0.014-0.101-0.032-0.288-0.052-0.563c-0.011-0.203-0.012-0.324-0.002-0.362c0.015-0.14,0.046-0.305,0.093-0.497
		c0.001-0.01,0.001-0.018,0-0.025l0.004-0.005c-0.061-0.248-0.9-0.16-2.516,0.264c-0.399,0.183-1.418,0.778-3.057,1.784
		c-0.205,0.077-0.435,0.109-0.689,0.096l-0.769-0.214l-0.041-0.033c0.045-0.004,0.088-0.009,0.127-0.016
		c0.159-0.052,0.466-0.232,0.919-0.539l0.418-1.057c0.243-0.189,0.644-0.818,1.205-1.889c-0.078-0.174-0.142-0.284-0.193-0.329
		L24.26,9.811l-1.158-0.067l-0.893-0.368l-0.148-0.187c-0.114,0.059-0.225-0.003-0.334-0.188c-0.24,0.008-0.412-0.042-0.517-0.151
		l-0.319,0.022L20.673,8.74l-0.429,0.05l-0.261-0.121c-0.066-0.004-0.166,0.006-0.3,0.03c0.039-0.083-0.157-0.114-0.586-0.092
		l-0.201-0.151C18.809,8.449,18.65,8.47,18.42,8.518c-0.04-0.135-0.23-0.183-0.571-0.143l-0.242-0.186
		c-0.098-0.013-0.21-0.01-0.337,0.008c-0.034-0.138-0.2-0.186-0.497-0.145c-0.151-0.146-0.294-0.212-0.428-0.198L16.244,7.72
		c-0.09-0.01-0.185-0.011-0.285-0.005c0.048-0.041-0.076-0.088-0.372-0.14L15.446,7.45L15.19,7.402l-0.136-0.113
		c-0.222,0.008-0.38-0.038-0.474-0.137L14.5,7.167c-0.352,0.029-0.515,0.023-0.489-0.017l-0.347,0.125
		c0.083-0.039-0.027-0.033-0.328,0.018L12.609,7.52c-0.831,0.431-1.699,0.934-2.604,1.51C9.57,9.361,9.183,9.682,8.842,9.994
		c-0.336,0.132-0.69,0.283-1.065,0.454l-3.981,3.896L2.435,15.39c-0.011,0.246,0.024,0.606,0.105,1.081L2,16.596l0.907,1.355
		l2.056,1.546 M5.192,14.871c-0.026,0.097-0.05,0.172-0.072,0.225c-0.083,0.103-0.136,0.166-0.159,0.188
		c-0.121,0.109-0.264,0.155-0.429,0.141c-0.085-0.022-0.139-0.041-0.163-0.057c-0.038-0.026-0.104-0.087-0.198-0.183L4.13,15.104
		c-0.013-0.046-0.023-0.084-0.028-0.116l-0.014-0.03l-0.038-0.12l0.005-0.19c0.024-0.076,0.058-0.158,0.104-0.246
		c0.031-0.039,0.08-0.095,0.148-0.169c0.074-0.039,0.156-0.078,0.247-0.116C4.657,14.105,4.726,14.1,4.763,14.1l0.046,0.004
		c0.038-0.006,0.105,0.022,0.202,0.086c0.067,0.088,0.103,0.14,0.108,0.156c0.027,0.07,0.053,0.151,0.079,0.243
		C5.204,14.636,5.202,14.73,5.192,14.871z M21.089,12c0.368,0.262,0.715,0.596,1.039,1.003c-0.59-0.411-1.055-0.715-1.396-0.911
		l-0.68-0.295l-0.021-0.017c-0.139-0.058-0.274-0.113-0.407-0.169l-1.672-0.725c-0.224-0.077-0.453-0.152-0.685-0.225
		c-0.368-0.143-0.699-0.269-0.995-0.378c-0.322-0.065-0.64-0.123-0.954-0.174c-0.145-0.037-0.29-0.073-0.437-0.108
		c-0.668-0.13-1.579-0.197-2.734-0.201c-0.215,0.011-0.443,0.026-0.683,0.044C10.66,9.873,9.888,9.96,9.149,10.106
		c0.064-0.03,0.129-0.06,0.195-0.088c0.077-0.021,0.17-0.046,0.278-0.074c0.161-0.047,0.854-0.212,2.08-0.496
		c0.466-0.05,0.966-0.075,1.498-0.076l0.266,0.009c0.285-0.012,0.713,0.035,1.281,0.139c0.173,0.038,0.35,0.079,0.532,0.126
		c-0.059-0.02-0.129-0.041-0.209-0.063c0.154,0.031,0.316,0.066,0.488,0.104c0.332,0.097,0.643,0.19,0.933,0.278
		c-0.373-0.104-0.774-0.21-1.205-0.317l0.154,0.04c0.351,0.091,0.747,0.198,1.187,0.318c0.913,0.279,1.608,0.512,2.083,0.698
		C18.995,10.804,19.788,11.236,21.089,12z M14.078,20.349l-1.39,0.531c-0.291,0.025-0.811,0.003-1.561-0.067
		c-0.333-0.067-0.569-0.118-0.707-0.151c-0.49-0.182-0.814-0.309-0.972-0.382c0.371,0.088,1.048,0.125,2.03,0.112
		c0.577-0.075,0.946-0.136,1.107-0.183c0.114-0.037,0.383-0.148,0.808-0.335l0.394-0.357c0.037-0.02,0.018-0.234-0.056-0.643
		c-0.052-0.047-0.312-0.163-0.782-0.348l-0.288-0.046l-0.298-0.016l-2.227-0.258c0.428,0.043,1.031,0.069,1.812,0.076l0.647-0.031
		l1.11-0.147l0.032,0.004c0.039-0.004,0.377,0.134,0.427,0.174l0.233,0.48l0.342,0.736C14.795,20.055,14.078,20.349,14.078,20.349z
		 M22.864,19.633l0.002-0.001h0.001h0.002c0.001,0,0.002,0,0.003,0l0,0l-0.004,0.001h-0.002H22.864l-0.002,0.001L22.864,19.633z
		 M20.454,20.318c-0.009,0.007-0.017,0.013-0.026,0.021l-0.018,0.01C20.425,20.338,20.439,20.328,20.454,20.318z"/>
</g>
</svg>
