<?xml version="1.0" encoding="utf-8"?>
<!-- Generator: Adobe Illustrator 25.4.1, SVG Export Plug-In . SVG Version: 6.00 Build 0)  -->
<svg version="1.1" id="oreochromis_x5F_niloticus" xmlns="http://www.w3.org/2000/svg" xmlns:xlink="http://www.w3.org/1999/xlink"
	 x="0px" y="0px" viewBox="0 0 32 32" style="enable-background:new 0 0 32 32;" xml:space="preserve">
<path d="M13.5,7.9c-1.8,0.1-3.7,0.9-5.2,2c-2.1,1.2-4.3,2.7-6,4.6c-0.4,0.9-1.4,0.6-1.2,1.6c0.1,2.1,2.5,2.2,4,3.3
	c1.2,1.1,3.3,1.3,4.6,2c1.3,1.3,3.5,2.4,5.3,2.7c0.7,0-0.2-0.3-0.2-1c-0.2-0.5-0.4-1.4-0.8-1.7c-0.3-0.3-0.5-0.4,0-0.4
	c0.2,0.1,3.6,0,3.3-0.1c0.4-0.1,1,0.3,1.4,0.4c1.8,0.4,3.5-0.2,5.4,0c0.7-0.1,1.2,0,0.7-0.7c-0.5-0.7-0.2-1.3-1.1-1.7
	c-0.7-0.3-1-0.9-1.7-1.1c-0.4-0.1,0.4-0.3,0.6-0.4c1.8-0.5,3.9,1.6,5.1,2.1c0.9,0.8,1.6-0.3,2.2-0.9c0.4-0.5,0.5-1.4,0.4-2
	c0.2-0.4,0.6-0.5,0.5-1.1c0.3-0.7,0.3-1.8,0.1-2.5c-0.2-0.5,0.2-0.8-0.3-1.3c-2.2-1.1-5,2-7.5,1.5c-0.4-0.2-0.5-0.3,0.2-0.2
	c1,0,1.3,0,1.5-0.1c0.2-0.2,0.3-0.4,0.5-0.5c0.5-0.4,0.6-1.5,1-2.1c0.2-0.2,0.8-0.7,0.4-0.9c-1.1-0.9-2.4-1.1-3.7-1.1
	c-1.1-0.3-1.5,0.4-2.5,0.3C18,8.6,15.8,7.9,13.5,7.9z"/>
</svg>
