<?xml version="1.0" encoding="utf-8"?>
<!-- Generator: Adobe Illustrator 25.4.1, SVG Export Plug-In . SVG Version: 6.00 Build 0)  -->
<svg version="1.1" id="xenopus_x5F_tropicalis" xmlns="http://www.w3.org/2000/svg" xmlns:xlink="http://www.w3.org/1999/xlink"
	 x="0px" y="0px" viewBox="0 0 32 32" style="enable-background:new 0 0 32 32;" xml:space="preserve">
<path d="M13,5.5c0.1,0.1,0.2,0.2,0.2,0.3c0,0.2,0,0.4,0.1,0.5c0,0.1,0,0.3,0,0.4C13.2,7,13.1,7.3,13,7.6c0,0.1-0.1,0.2-0.2,0.3
	c-0.3,0.4-0.5,0.8-0.8,1.2c0,0.1-0.1,0.1-0.1,0.2c0.6-0.4,1.2-0.6,1.6-1.2c0.2-0.2,0.2-0.3,0.3-0.4C14,7.6,13.9,7.4,14,7.3
	c0,0,0-0.1,0-0.1c0,0,0,0,0,0c0,0.1,0.1,0.2,0.1,0.2c0,0.2,0,0.8,0,0.8c-0.1,0.1-0.2,0.2-0.2,0.3c0,0,0,0,0,0
	c0.1-0.1,0.2-0.1,0.4-0.2c0,0.1,0,0.2,0,0.2c-0.2,0.4-0.4,0.7-0.8,1c-0.2,0.1-0.3,0.3-0.4,0.4c0,0-0.1,0.1-0.1,0.1
	c0,0-0.1,0.1-0.2,0.1c-0.1,0-0.1,0-0.2,0.1c-0.1,0.1-0.2,0.2-0.3,0.2c-0.1,0-0.2,0.1-0.4,0.2c-0.2,0.1-0.3,0.1-0.5,0.2
	c0,0-0.1,0-0.1,0.1c0,0.1,0,0.2-0.1,0.3c0,0,0,0,0.1,0c0.8-0.1,1.6,0,2.4,0.2c0.4,0.1,0.8,0.1,1.1,0.3c0.2,0.1,0.4,0.2,0.6,0.4
	c0.1,0.1,0.3,0.1,0.4,0.2c0.3,0.2,0.6,0.4,0.8,0.7c0.1,0.2,0.2,0.3,0.3,0.5c0.1,0.1,0.2,0.2,0.2,0.3c0.1,0.1,0.1,0.1,0.2,0.1
	c0.6,0,1.2,0.1,1.8,0.4c0.6,0.3,1.1,0.6,1.7,1c0.3,0.2,0.5,0.3,0.8,0.5c0.1,0.1,0.1,0.1,0.2,0.2c0.1,0.1,0.3,0.2,0.4,0.3
	c0.1,0.1,0.1,0.1,0.2,0.2c0,0,0,0.1,0.1,0.1c0.3,0.2,0.5,0.4,0.7,0.7c0.1,0.1,0.2,0.1,0.3,0.2c0,0,0.1,0,0.1,0
	c0.4-0.4,0.9-0.5,1.4-0.7c0.2-0.1,0.3-0.2,0.5-0.2c0.2,0,0.4,0,0.7,0.1c0.5,0.1,1.1,0.3,1.5,0.6c0.3,0.2,0.6,0.3,0.9,0.5
	c0,0,0,0,0,0c0.2,0.3,0.5,0.3,0.8,0.4c0.4,0.2,0.7,0.4,1,0.6c0.1,0.1,0.3,0.2,0.4,0.3c0,0,0.1,0,0.1,0.1c0,0,0,0,0,0
	c-0.1,0-0.1,0-0.2,0c-0.2-0.1-0.4-0.2-0.6-0.2c0,0-0.1,0-0.2,0c0,0.1,0,0.2,0,0.2c0.2,0.2,0.2,0.5,0.3,0.7c0,0,0,0,0,0
	c-0.1,0-0.1,0-0.1-0.1c-0.1-0.2-0.3-0.4-0.4-0.5c-0.2-0.2-0.4-0.4-0.7-0.5c0,0,0,0-0.1,0c0.4,0.5,0.2,1.1,0.1,1.6c0,0,0,0,0,0
	c0-0.1-0.1-0.2-0.1-0.2c-0.1-0.3-0.2-0.6-0.3-0.8c-0.2-0.3-0.4-0.6-0.6-0.8c0-0.1-0.2-0.1-0.2-0.1c-0.4,0-0.9-0.1-1.3-0.1
	c-0.2,0-0.4,0-0.6-0.1c-0.2,0-0.3,0-0.5,0.1c-0.1,0.1-0.2,0.2-0.3,0.3c-0.1,0.1-0.1,0.1,0,0.2c0.2,0.2,0.3,0.4,0.5,0.7
	c0,0,0.1,0.1,0.1,0.1c0,0.2,0.2,0.3,0.3,0.4c0.1,0.1,0.1,0.2,0.2,0.3c0,0.1,0,0.3,0.1,0.2c0.1,0.1,0.1,0.2,0.2,0.4
	c0.1,0.2,0.1,0.4,0.1,0.6c0,0.2,0,0.3-0.1,0.5c-0.1,0.3-0.3,0.5-0.5,0.6c-0.4,0.2-0.7,0.3-1.1,0.4c-0.3,0-0.6,0.1-0.8,0.1
	c-0.1,0-0.2,0.1-0.3,0.1c-0.4,0.1-0.8,0.1-1.2,0c0,0-0.1,0-0.1,0c-0.3,0-0.5-0.1-0.7-0.2c-0.1-0.1-0.2,0-0.3,0
	c-0.2,0.1-0.3,0.2-0.5,0.3c0,0-0.1,0-0.1,0c0,0-0.1,0-0.1,0c0,0,0,0.1,0,0.1c0.1,0.1,0.1,0.1,0.2,0.2c0.2,0.4,0.6,0.8,0.9,1.2
	c0.1,0.2,0.3,0.3,0.5,0.3c0.4,0.1,0.9,0.2,1.3,0.3c0.2,0,0.3,0,0.5,0.1c0,0,0,0,0,0c-0.1,0-0.1,0-0.2,0c-0.2,0-0.5,0-0.7,0
	c-0.2,0-0.4,0-0.6,0c0,0-0.1,0-0.1,0.1c0,0,0,0.1,0.1,0.1c0.3,0.1,0.5,0.2,0.8,0.3c0.3,0.1,0.6,0.2,0.9,0.3c0.1,0,0.1,0.1,0.1,0.1
	c0,0,0,0,0,0c0,0-0.1,0-0.1,0c0,0-0.1,0-0.1,0c-0.1,0-0.1,0-0.2,0c0,0,0.1,0.1,0.1,0.1c0.1,0.1,0.2,0.1,0.2,0.1c0,0,0,0,0,0.1
	c0,0-0.1,0-0.1,0c-0.1,0-0.2-0.1-0.3-0.1c0,0-0.1,0-0.1,0c-0.2,0.2-0.4,0-0.5,0c-0.5-0.1-1-0.4-1.5-0.6c-0.2-0.1-0.4-0.1-0.5-0.2
	c-0.9-0.3-1.7-0.8-2.4-1.5c-0.2-0.2-0.2-0.5-0.2-0.7c0.1-0.3,0.2-0.6,0.3-0.8c0-0.1,0-0.1,0-0.1c-0.2-0.1-0.4-0.2-0.6-0.3
	C18.2,22,18,22,17.9,22c-0.1,0-0.3-0.1-0.4-0.1c-0.1,0-0.1,0-0.2-0.1c-0.3-0.1-0.6-0.1-0.8-0.2c-0.2,0-0.3,0-0.5-0.1
	c-0.1,0-0.1-0.1-0.2-0.1c-0.2,0-0.3-0.1-0.5-0.1c0,0,0,0-0.1,0c-0.2-0.2-0.5-0.1-0.7-0.2c-0.3-0.1-0.7-0.1-1-0.4
	c-0.1-0.1-0.1-0.2-0.2-0.2c-0.1,0-0.1,0.1-0.2,0.2c-0.5,0.4-1.1,0.7-1.7,0.8c-0.4,0.1-0.8,0.2-1.3,0.2c-0.1,0-0.3,0-0.4,0
	c-0.3-0.1-0.5-0.1-0.8-0.2c-0.7-0.3-1.3-0.7-1.7-1.4c-0.1-0.2-0.3-0.4-0.5-0.6c-0.1-0.1-0.1-0.1-0.2,0c-0.2,0.1-0.4,0.3-0.6,0.4
	c-0.2,0.1-0.3,0.3-0.4,0.5c-0.2,0.5-0.4,1.1-0.7,1.6c0,0-0.1,0.1-0.1,0.2c-0.2,0.4-0.5,0.7-0.8,1.1c0,0.1-0.1,0.1-0.1,0.2
	c-0.3,0.3-0.6,0.5-1,0.6c-0.1,0-0.1,0-0.2,0c-0.1,0.2-0.2,0.2-0.4,0.1C2.2,24,2,23.9,2,23.9c0.1-0.1-0.4-0.2-0.5-0.2
	c-0.2,0-0.3,0-0.5,0c0.2-0.2,0.4-0.3,0.6-0.3c0.1,0,0.2,0,0.3-0.2c0,0,0.1-0.1,0.1,0c0.1,0.1,0.2,0,0.3-0.1C2.4,23,2.9,22.7,3,22.6
	c0.1-0.1,0.4-0.3,0.4-0.3C3.6,22,3.8,21.7,4,21.4c0.1-0.2,0.2-0.5,0.3-0.8c0,0,0,0,0,0c-0.1,0.1-0.3,0.2-0.4,0.3
	c-0.1,0-0.2,0.1-0.2,0.1c-0.2,0.1-0.3,0.1-0.5,0.2c-0.2,0.1-0.5,0.1-0.7,0.1c-0.1,0-0.2,0-0.3-0.1c-0.1,0-0.1-0.1,0-0.1
	C2.1,21.1,2.1,21,2.2,21c0.3-0.2,0.6-0.3,0.9-0.5c0.1-0.1,0.2-0.1,0.2-0.2c0.1-0.1,0.2-0.2,0.3-0.2c0,0,0.1-0.1,0.1-0.2
	c-0.1-0.3,0.1-0.6,0.3-0.8c0.3-0.2,0.5-0.5,0.7-0.7c0.5-0.5,1-1.1,1.7-1.3c0.3-0.1,0.5-0.2,0.8-0.3c0.2,0,0.3,0,0.5,0
	c0.4,0,0.8,0.1,1.2,0.2c0.5,0.1,0.9,0.4,1.3,0.8c0.2,0.3,0.2,0.3,0.4,0c0.3-0.3,0.6-0.6,0.8-0.9c0,0,0,0,0.1-0.1
	c0.2-0.1,0.3-0.2,0.3-0.3c0,0,0,0,0,0c0.2-0.1,0.2-0.2,0.2-0.4c0.1-0.4,0.2-0.7,0.5-0.9c0.3-0.2,0.5-0.5,0.7-0.8
	c0.1-0.1,0.1-0.1,0.2-0.2c0,0,0,0,0,0c-0.1,0-0.2,0-0.3,0c-0.6,0-1.3,0.1-1.9,0c-0.3-0.1-0.6-0.2-0.9-0.3c-0.1,0-0.2-0.2-0.3-0.3
	C10,13.3,9.9,13.1,9.7,13c-0.4-0.4-0.5-0.8-0.4-1.3c0.1-0.5,0.3-1,0.7-1.3c0.2-0.2,0.3-0.4,0.4-0.6c0.1-0.3,0.3-0.6,0.5-0.8
	c0.3-0.4,0.5-0.7,0.9-1c0.2-0.2,0.4-0.4,0.5-0.7c0.1-0.2,0.2-0.3,0.2-0.5c0.1-0.2,0.1-0.4,0.2-0.6c0-0.2,0.1-0.4,0.1-0.6
	C12.9,5.6,12.9,5.6,13,5.5C13,5.5,13,5.5,13,5.5z"/>
</svg>
