<?xml version="1.0" encoding="utf-8"?>
<!-- Generator: Adobe Illustrator 25.4.1, SVG Export Plug-In . SVG Version: 6.00 Build 0)  -->
<svg version="1.1" id="gallus_x5F_gallus" xmlns="http://www.w3.org/2000/svg" xmlns:xlink="http://www.w3.org/1999/xlink" x="0px"
	 y="0px" viewBox="0 0 32 32" style="enable-background:new 0 0 32 32;" xml:space="preserve">
<path d="M24.1,8c0.1-0.5,0.5-1.3,0.5-1.3s0.9-0.1,0.9-0.3c0-0.3-0.7-0.5-0.7-0.5l-0.6-0.5c0,0,0.4-0.2,0.3-0.6
	C24.3,4.2,24.1,4.1,24,4c-0.1-0.1-0.2,0.3-0.2,0.3s-0.2-0.7-0.3-0.3c-0.1,0.1-0.1,0.2-0.2,0.3c0,0-0.2-0.3-0.3-0.3
	c-0.2,0.1-0.5,0.5-0.3,1c0.1,0.1,0.2,0.3,0.2,0.3s-0.3,0-0.4,0.3s-0.5,0.7-0.5,0.7s-1,1-1.6,2.2c-0.3,0.7-1.1,3.3-1.9,3.5
	s-1.6,0.8-2.2,0.8c-0.6-0.1-1.6,0.2-1.6,0.2s-1.5-0.4-2.3-0.3c-0.9,0.1-3.1-0.1-3.5-0.3c-0.5-0.2-1.4-1-1.7-1.1
	c-0.3,0-0.4,0.3-0.4,0.3l-1-0.5c0,0-1-0.2-1,0.1s0,0.4,0,0.4s-0.4,0-0.5,0.2c0,0.3,0.2,0.5,0.2,0.5s-0.3,0.2-0.2,0.6
	c0.2,0.4,0.4,1,0.7,1.5c0.2,0.3,1,0.8,1,0.8S5,15,5,15.1c0,0.2,0.1,0.7,0.3,0.9c0.3,0.2,1,1.1,1,1.1S5.7,17.3,6,17.7
	c0.2,0.3,0.6,0.8,1,0.9c0.3,0.2,1.4,0.9,1.4,0.9S7.8,20,7.9,20.5c0.2,0.5,1.5,2.1,1.7,2.4c0.3,0.3,2.6,1.5,2.8,1.7
	c0.1,0.3,1.1,2.7,1.3,3.7c0,0.1-0.1,0.2-0.2,0.3c-0.2,0.1-0.3,0.3-0.4,0.3s-0.7,0.1-0.8,0.1c-0.1,0-0.5,0.1-0.5,0.3
	c0,0.1,0.1,0,0.3,0c0.2,0,0.7-0.1,0.8,0c0.1,0,0.6,0,0.7,0.1c0.1,0,0.3,0,0.6,0c0.1,0,0.2,0.1,0.2,0.1c0.2,0,0.5,0.2,0.5,0.2
	s0.9,0.1,1.1,0.1c0.1,0,0.3,0.1,0.3,0c0.2,0,0.3-0.1,0.4-0.1c0.1,0,0.3,0,0.3,0s-0.2-0.2-0.3-0.2s-0.3-0.1-0.3,0c-0.1,0-0.2,0-0.3,0
	L16,29.4c0.2,0,0.3,0,0.3,0c0.1,0,0.3,0,0.3,0h0.2c0,0,0,0,0-0.1l0,0c0,0,0,0,0.1,0c0.1,0.1,0.4,0.2,0.8,0.3l0,0l0,0
	c0.3,0.1,0.4,0.1,0.6,0.1c0.3,0,1,0,1,0l0,0c0.1,0,0.1,0,0.1,0s0.1,0,0.2,0c0,0-0.1-0.2-0.2-0.2s-0.3,0-0.3,0s-0.4-0.1-0.4-0.1v-0.1
	h0.1h0.8c0.1,0,0.1,0,0.2,0h0.2c0,0,0-0.2-0.2-0.2c-0.1,0-0.1,0-0.2,0c-0.1-0.1-0.1-0.1-0.2-0.1c-0.1,0-0.6,0.1-1,0.1
	c-0.1,0-0.1,0-0.2-0.1c-0.1,0-0.6-0.1-0.7-0.1c0,0-0.4-0.2-0.7-0.3c-0.3-0.4-0.7-1.2-0.7-1.4l0.2-2.2c0,0,0.3-0.2,0.4-0.4
	s1-1.5,1.1-1.5c0.1,0,1.8-1,1.9-1c0.2-0.1,1.7-1.6,1.7-1.6s2.2-1.1,2.4-1.5c0.3-0.3,2-2.4,0.8-6c-1.1-3.2-0.9-3.4-0.9-3.5
	C23.8,9.5,24,8.6,24.1,8L24.1,8z M16,28.1c-0.1,0.6-0.3,0.5-0.5,0.6c-0.3,0.1-0.5-0.1-0.5-0.2c0-0.1-0.8-1.5-0.9-1.6
	c-0.1-0.2-0.3-1.6-0.3-1.8c0.1-0.3,1.2-0.6,1.2-0.6c0,0.3,0.6,1.9,0.6,1.9C15.7,26.5,16.1,27.5,16,28.1L16,28.1z"/>
</svg>
