<?xml version="1.0" encoding="utf-8"?>
<!-- Generator: Adobe Illustrator 25.4.1, SVG Export Plug-In . SVG Version: 6.00 Build 0)  -->
<svg version="1.1" id="macaca_x5F_mulatta" xmlns="http://www.w3.org/2000/svg" xmlns:xlink="http://www.w3.org/1999/xlink" x="0px"
	 y="0px" viewBox="0 0 32 32" style="enable-background:new 0 0 32 32;" xml:space="preserve">
<path d="M26.6,6.2c0,0-0.3-0.9-0.5-1c-0.2-0.1-1.1-0.7-1.4-0.7C24.3,4.4,24,4,23.3,4.1c-0.7,0.1-1.4,0.2-1.7,0.5
	c-0.2,0.3-1.1,1.2-1.1,1.2S20.3,7,20.2,7.2c-0.2,0.2-0.8,0.9-1.1,1.1c-0.2,0.2-2.4,0.7-4.3,2.3s-3.2,4.3-3.7,5.7
	c-0.3,1.4-0.9,4.3-0.9,4.3s-0.3,3.2-0.1,3.9c0.2,0.7,0.2,1.3-0.1,1.8c-0.2,0.5-2.2,1.2-3.2,0.5c-0.8-0.7-1.7-1.7-0.8-5.7
	s0.7-5.1-0.1-5.9s-2.4-1.1-2.8-0.9c-0.3,0.2-0.5,0.7,1,0.9c1.2,0.2,1.4,1.2,1.4,2.1c-0.1,3.8-1.1,5-0.9,7.3c0.2,2.3,1.7,3.6,3.1,3.8
	S11,28,11.2,28s1.1,0.2,1.1,0.2s0.4,0.2,0.9,0.2s0.8,0.2,0.9,0.2c0.2,0-0.1,0.5,0.7,0.3c0.8-0.2,2.1-0.2,2.1-0.2s0.7-0.2,1.2-0.1
	c0.5,0.1,1.5,0.4,1.5,0.4s1-0.1,1.4,0s0.7,0,0.7-0.4c-0.1-0.4-0.3-1.1-0.3-1.1s0.3-0.4,0.2-0.9c-0.2-0.5-0.9-1.2-0.9-1.2L20.5,25
	c0,0,0.2-0.5,0.1-1.2c-0.2-0.7-0.1-2-0.1-2l0.3-0.9c0,0,0.5,0.4,0.6,0.4s0.2,0.7,0.3,0.8c0.1,0.2-0.3,0.2-0.2,0.5
	c0.1,0.3,0.2,0.7,0.2,0.7s-0.3-0.5-0.7-0.5c-0.2,0.1-0.4,0.4-0.2,0.7c0.2,0.2,0.7,0.7,1,0.7s1-0.9,1.1-1.1c0.1-0.2-0.2-1.1-0.1-1.5
	s0.4-0.9,0.1-1.6s-0.8-0.6-1.1-1.2c0,0-0.4-0.7,0.1-1.1c0.5-0.5,1.1-2,1.4-2.4c0.2-0.5,0.5-1,0.6-1.5c0.1-0.5,0-1.2,0-1.2l0.2-0.3
	l0.7-0.2c0,0,0.5-0.1,0.7-0.2c0.2-0.2,0.3-0.5,0.3-0.5s0.5-0.2,0.6-0.7c0.1-0.3,0-0.7,0-0.7s-0.2-0.7-0.1-0.9l0.2-1.1
	c0,0,0.5-0.1,0.5-0.5C26.9,6.9,26.6,6.2,26.6,6.2L26.6,6.2z"/>
</svg>
