<?xml version="1.0" encoding="utf-8"?>
<!-- Generator: Adobe Illustrator 27.6.1, SVG Export Plug-In . SVG Version: 6.00 Build 0)  -->
<svg version="1.1" id="chimp" xmlns="http://www.w3.org/2000/svg" xmlns:xlink="http://www.w3.org/1999/xlink" x="0px" y="0px"
	 viewBox="0 0 32 32" style="enable-background:new 0 0 32 32;" xml:space="preserve">
<path d="M25.598,28.573c-0.273-0.182-0.364-1.273-0.364-1.545s0.182-2.545,0.455-3.273c0.273-0.727,0.455-4.455,0.182-5
	c-0.182-0.455-3.091-5.364-3.182-5.909s-1.273-2.273-1.364-3c-0.182-0.727-1-1.273-1.455-1.636
	c-0.455-0.364-1.091-0.636-1.091-0.636s0.364-1.545,0.182-2.273s-0.545-1.091-0.818-1.273C17.87,3.755,16.961,4.21,16.961,4.21
	s-1-0.909-2.636-0.909s-2.273,1.091-2.273,1.091s-0.818-0.455-1.364-0.273c-0.455,0.182-1,0.545-0.727,1.091
	c0.273,0.455,0.909,1,1,1.636s0,2,0,2s-1.636,3.091-1.727,3.636c-0.091,0.545-2.091,3.545-2.091,3.545s-1.091,1.364-1.182,2
	s0.273,2.636,0.273,3.455c0,0.818,0.091,4.091,0,4.364c-0.091,0.364,0.091,2,0.364,2.545c0.273,0.545,1.091,0.545,1.636,0.818
	c0.636,0.273,1.455,0.364,1.818,0s0.727-0.636,0.636-0.909c-0.091-0.273-0.364-0.455-0.545-0.455s-0.727-0.182-0.727-0.455
	s0.545-0.818,0.545-0.818s0.727-0.273,1.091-0.273s1.182,0.455,1.182,0.455s0.273,0.727,0.636,0.727s-0.636,0.818-0.455,1.273
	s0.182,0.545,0.636,0.545c0.455,0,0.727-0.455,1.091-0.364c0.364,0.182,0.182,0.455,0.545,0.455c0.455,0.091,1-0.182,1-0.182
	s0.636,0.182,1.091,0.091c0.455-0.182,1.364-0.364,1.364-0.364s1.091,0.364,1.455,0s0.455-0.545,0.727-0.636
	c0.182-0.091,0.818,0.182,1.091,0.182c0.182,0.091,0.727,0.636,0.727,0.636s-0.364,0.909,0.182,1
	c0.455,0.091,0.909,0.182,1.545,0.182s1.182-0.091,1.545-0.364c0.364-0.273,0.545-0.455,0.636-0.818
	C25.962,28.936,25.871,28.755,25.598,28.573L25.598,28.573z M11.689,19.027c-0.182,1-0.182,2.545-0.636,2.273
	c-0.455-0.182-1.818-0.818-1.909-1.182c-0.091-0.364,0.455-1.636,0.727-1.818c0.182-0.182,1.455-2.545,1.455-2.545
	C12.235,17.118,11.871,18.027,11.689,19.027z"/>
</svg>
