<?xml version="1.0" encoding="utf-8"?>
<!-- Generator: Adobe Illustrator 25.4.1, SVG Export Plug-In . SVG Version: 6.00 Build 0)  -->
<svg version="1.1" id="homo" xmlns="http://www.w3.org/2000/svg" xmlns:xlink="http://www.w3.org/1999/xlink" x="0px" y="0px"
	 viewBox="0 0 32 32" style="enable-background:new 0 0 32 32;" xml:space="preserve">
<style type="text/css">
	.st0{fill-rule:evenodd;clip-rule:evenodd;}
</style>
<path d="M6,20.8c-0.4,0.8-1.8,0.4-2.5-0.7s-1.4-2-1.8-2.3c-0.5-0.3-0.4-1.8,0.9-1.7c1.3,0.1,2.7,0.8,3.2,1.3
	C6.1,17.9,6.8,19.4,6,20.8z"/>
<path d="M16.2,11.6c-0.1-1.2,0.5-2.3,0.6-2.9c0.1-0.6-0.4-2.1-0.6-3.4c-0.2-1.2,0-4.1,1-4.3c1-0.2,1.5,0.8,1.5,1.4s0.1,3.3,0.2,3.9
	s0,1.4-0.4,2.1c-0.4,0.5-0.1,1,0.2,1.4s0.7,1.7,0.4,2.5c-0.4,0.8-1.3,0.9-1.9,0.8C16.7,13.2,16.2,12.1,16.2,11.6z"/>
<path d="M30.3,9.4c0.5,0.5,0.2,1.1,0,1.7c-0.1,0.5-0.4,0.8-0.5,1.1c-0.2,0.3-0.3,0.7-0.6,1.3c-0.4,0.5-1.3,1.3-1.5,0.7
	c-0.2-0.5,0.2-1.1,0.4-1.6s0.5-0.5,0.4-0.8s-0.1-1.4,0.2-1.7C28.9,9.4,29.4,8.5,30.3,9.4z"/>
<path d="M26.4,15.9c-0.2,0.3-0.7,1.3,0.1,0.8s0.7-0.8,0.8-1.3C27.6,14.8,26.7,15.3,26.4,15.9z"/>
<path class="st0" d="M20.6,15.5c-1.9,0.3-1.4-0.6-3.2-0.6c-1.8,0.1-4.1,1-4.6,1.8c-0.7,1.1-0.8,3.3-1.3,3.8
	c-0.4,0.4-2.6,1.3-2.9,2.6c-0.2,0.6-0.7,1.3,0,2.4c0.5,1.1,1,2.7,1.3,3.1s1.8,1.6,3.3,1.6s3.2-0.6,4.3,0c1.2,0.6,2.5,1.2,3.8,0.3
	c1.2-0.9,1.7-2.3,2.5-4.6c0.6-2.4,1.7-4.2,1.5-5.6s-0.3-1.3-0.9-2L24,17.4c0,0-0.4-1.5-0.5-3.1c1.5-3.1,4.7-10.2,2.1-11
	c-2.2,0.1-1.4,1.9-2,3.6c-0.4,1.3-1,1.9-1.5,3.9c0,1.2,0.2,2.4,0.3,3c0.1,0.3-0.6,0.3-0.4,0.9C21.8,14.7,20.9,15,20.6,15.5z"/>
<path d="M12.1,7.3c-0.3-1-0.5-1.2-0.7-2.1c-0.2-0.8,0-2.2-1-2.5c-1-0.2-1.5,0.2-1.8,0.7C8.2,4,8.4,5.8,8.7,6.4C8.9,7,9.1,8.3,9.4,9
	c0.4,0.7,0.1,1.1,0.7,2.2l0.4,0.9c1.4,1.4,1.5,2.9,2.8,1.8c1.8-1.5-0.6-3.3-1.1-4.4L12.1,7.3z"/>
</svg>
