<?xml version="1.0" encoding="utf-8"?>
<!-- Generator: Adobe Illustrator 27.6.1, SVG Export Plug-In . SVG Version: 6.00 Build 0)  -->
<svg version="1.1" id="dog" xmlns="http://www.w3.org/2000/svg" xmlns:xlink="http://www.w3.org/1999/xlink" x="0px" y="0px"
	 viewBox="0 0 32 32" style="enable-background:new 0 0 32 32;" xml:space="preserve">
<path d="M6.554,6.637c0,0-0.691,0.346-0.95,0.605C5.344,7.501,4.653,7.847,4.48,8.106C4.308,8.365,4.74,9.229,4.74,9.229
	s0.086,0.864,0.346,1.123c0.259,0.173,0.778,0.259,0.778,0.259s1.296,0.518,1.469,0.605c0.173,0.086,1.037,0.518,1.037,0.518
	l0.259,1.037c0,0-0.346,1.642-0.259,1.987c0,0.346,0.173,1.814,0.173,1.814s0.173,2.16,0.173,2.506s0.691,2.074,0.605,2.592
	c-0.086,0.518,0,1.728,0.086,1.987c0.086,0.259-0.173,1.901-0.259,1.987c-0.086,0.173-0.778,1.21-0.778,1.21s-0.691,0-0.778,0.259
	c-0.086,0.259-0.518,0.518-0.173,0.778s1.814,0.432,1.987,0.259c0.259-0.086,0.778-0.691,0.778-0.691l0.518-1.642
	c0,0,0.518-1.469,0.605-2.246c0.086-0.95,0.518-2.678,0.518-2.678l1.469,0.691c0,0,0.691,1.901,0.605,2.506
	c-0.086,0.691-0.259,1.642-0.173,1.987c0.086,0.259,0,1.382-0.432,1.901c-0.346,0.518-0.95,0.864-1.037,1.296
	c-0.173,0.346,1.037,0.864,1.814,0.691c0.864-0.173,0.95-0.432,0.95-0.691c0-0.173,0.346-1.642,0.432-1.901
	c0.173-0.259,0.086-1.382,0.173-1.555c0.086-0.173,0.259-2.333,0.346-2.851c0.086-0.518,0.086-1.987,0.086-1.987
	s2.16-0.518,2.851-0.95c0.778-0.346,1.642-0.691,1.642-0.691s0.778,0.95,1.296,1.296c1.123,0.691,1.21,0.95,1.382,1.296
	c0.173,0.259,0.346,0.864,0.346,0.95s-0.086,0.864-0.346,1.037c-0.259,0.259-0.346,0.605-0.259,0.691
	c0.346,0.259,0.864,0.432,1.296,0.173c0.432-0.259,0.691-0.346,0.605-0.864c0-0.432-0.346-1.382-0.259-1.728
	c0.173-0.778-0.086-1.296-0.086-1.296s1.382,1.123,1.901,1.296s1.21,1.123,1.21,1.642c0,0.518-0.259,1.037-0.259,1.037
	s-0.432,0.518-0.259,0.691c0.173,0.173,0.95,0.691,1.642,0.346c0.605-0.346,0.346-0.864,0.346-0.864s-0.086-1.296-0.173-1.555
	s-0.518-1.382-0.518-1.642c0-0.346-0.173-0.778-0.346-0.95s-1.037-1.814-1.037-1.814s-0.173-0.346-0.259-1.037s0-1.21-0.346-2.16
	c-0.346-0.95-1.382-1.555-1.382-1.987c0-0.432-0.346-1.296-0.173-1.555c0.173-0.259,0.691-2.506,0.432-3.802
	c-0.518-2.419-1.382-3.37-1.814-3.802c-0.518-0.518-1.382-0.864-1.642-0.691c-0.086,0.605,0.259,1.037,0.864,1.814
	c0.691,0.864,1.296,1.987,1.123,3.888s-0.691,2.506-0.95,2.592c-0.259,0.173-2.678,0.086-3.024,0.086s-1.987,0-2.333-0.259
	c-0.259-0.259-0.691-0.518-1.21-0.691c-0.519-0.173-1.123-0.518-1.123-0.518s0-0.346-0.346-0.605
	c-0.259-0.173-0.432-0.605-0.432-0.605s0.691-0.518,0.518-1.469c-0.086-0.864-0.691-1.987-1.21-2.419
	c-0.518-0.346-1.382-1.21-1.642-1.296c-0.259-0.173-0.605-0.173-0.605-0.173s-0.173-0.173-0.691-0.173
	c-0.519-0.088-1.642-0.088-1.642-0.088s-0.864,0-1.037,0.173c-0.173,0.173-0.864,0.864-0.95,1.037
	C6.9,5.427,6.554,5.859,6.554,5.946C6.468,6.119,6.641,6.637,6.554,6.637L6.554,6.637z"/>
</svg>
