<?xml version="1.0" encoding="utf-8"?>
<!-- Generator: Adobe Illustrator 25.4.1, SVG Export Plug-In . SVG Version: 6.00 Build 0)  -->
<svg version="1.1" id="canis-lupus" xmlns="http://www.w3.org/2000/svg" xmlns:xlink="http://www.w3.org/1999/xlink" x="0px"
	 y="0px" viewBox="0 0 32 32" style="enable-background:new 0 0 32 32;" xml:space="preserve">
<path d="M6.6,6.6c0,0-0.7,0.3-0.9,0.6c-0.3,0.3-1,0.6-1.1,0.9C4.3,8.4,4.7,9.2,4.7,9.2s0.1,0.9,0.3,1.1c0.3,0.2,0.8,0.3,0.8,0.3
	s1.3,0.5,1.5,0.6c0.2,0.1,1,0.5,1,0.5l0.3,1c0,0-0.3,1.6-0.3,2c0,0.3,0.2,1.8,0.2,1.8s0.2,2.2,0.2,2.5s0.7,2.1,0.6,2.6
	c-0.1,0.5,0,1.7,0.1,2c0.1,0.3-0.2,1.9-0.3,2c-0.1,0.2-0.8,1.2-0.8,1.2s-0.7,0-0.8,0.3c-0.1,0.3-0.5,0.5-0.2,0.8s1.8,0.4,2,0.3
	c0.3-0.1,0.8-0.7,0.8-0.7l0.5-1.6c0,0,0.5-1.5,0.6-2.2c0.1-1,0.5-2.7,0.5-2.7l1.5,0.7c0,0,0.7,1.9,0.6,2.5c-0.1,0.7-0.3,1.6-0.2,2
	c0.1,0.3,0,1.4-0.4,1.9c-0.3,0.5-0.9,0.9-1,1.3c-0.2,0.3,1,0.9,1.8,0.7c0.9-0.2,0.9-0.4,0.9-0.7c0-0.2,0.3-1.6,0.4-1.9
	c0.2-0.3,0.1-1.4,0.2-1.6c0.1-0.2,0.3-2.3,0.3-2.9c0.1-0.5,0.1-2,0.1-2s2.2-0.5,2.9-1c0.8-0.3,1.6-0.7,1.6-0.7s0.8,1,1.3,1.3
	c1.1,0.7,1.2,1,1.4,1.3c0.2,0.3,0.3,0.9,0.3,1s-0.1,0.9-0.3,1c-0.3,0.3-0.3,0.6-0.3,0.7c0.3,0.3,0.9,0.4,1.3,0.2
	c0.4-0.3,0.7-0.3,0.6-0.9c0-0.4-0.3-1.4-0.3-1.7c0.2-0.8-0.1-1.3-0.1-1.3s1.4,1.1,1.9,1.3s1.2,1.1,1.2,1.6c0,0.5-0.3,1-0.3,1
	s-0.4,0.5-0.3,0.7c0.2,0.2,1,0.7,1.6,0.3c0.6-0.3,0.3-0.9,0.3-0.9s-0.1-1.3-0.2-1.6s-0.5-1.4-0.5-1.6c0-0.3-0.2-0.8-0.3-1
	s-1-1.8-1-1.8s-0.2-0.3-0.3-1s0-1.2-0.3-2.2c-0.3-0.9-1.4-1.6-1.4-2c0-0.4-0.3-1.3-0.2-1.6c0.2-0.3,0.7-2.5,0.4-3.8
	c-0.5-2.4-1.4-3.4-1.8-3.8C23,4.2,22.1,3.9,21.8,4c-0.1,0.6,0.3,1,0.9,1.8c0.7,0.9,1.3,2,1.1,3.9s-0.7,2.5-1,2.6
	c-0.3,0.2-2.7,0.1-3,0.1s-2,0-2.3-0.3c-0.3-0.3-0.7-0.5-1.2-0.7c-0.5-0.2-1.1-0.5-1.1-0.5s0-0.3-0.3-0.6c-0.3-0.2-0.4-0.6-0.4-0.6
	s0.7-0.5,0.5-1.5c-0.1-0.9-0.7-2-1.2-2.4c-0.5-0.3-1.4-1.2-1.6-1.3c-0.3-0.2-0.6-0.2-0.6-0.2s-0.2-0.2-0.7-0.2
	c-0.5-0.1-1.6-0.1-1.6-0.1s-0.9,0-1,0.2c-0.2,0.2-0.9,0.9-0.9,1C6.9,5.4,6.6,5.9,6.6,5.9C6.5,6.1,6.6,6.6,6.6,6.6L6.6,6.6z"/>
</svg>
