<?xml version="1.0" encoding="utf-8"?>
<!-- Generator: Adobe Illustrator 25.4.1, SVG Export Plug-In . SVG Version: 6.00 Build 0)  -->
<svg version="1.1" id="felis_x5F_catus" xmlns="http://www.w3.org/2000/svg" xmlns:xlink="http://www.w3.org/1999/xlink" x="0px"
	 y="0px" viewBox="0 0 32 32" style="enable-background:new 0 0 32 32;" xml:space="preserve">
<path d="M19.7,3C19.7,3.1,19.7,3.1,19.7,3c-0.1,0.1-0.2,0.2-0.3,0.2c-1,0.5-1.7,1.3-2.2,2.3c-0.2,0.6-0.5,1.1-0.7,1.7
	c-0.2,0.5-0.6,1-1.2,1.2c-0.4,0.2-0.8,0.4-1.1,0.8c-0.4,0.5-0.8,1.1-0.9,1.8c0,0.2-0.1,0.2-0.2,0.3c-0.3,0.1-0.5,0.1-0.8,0.2
	c-1.5,0.4-2.8,1.2-3.7,2.5c-0.7,1-1.2,2.2-1.6,3.4c-0.4,1.4-0.6,2.8-0.6,4.3c0,1.1,0,2.2,0.3,3.3c0.1,0.4,0.2,0.9,0.3,1.3
	c0.2,0.7,0,1.3-0.2,2c-0.4,0.9,0.1,1.9,1.1,2.2c0.6,0.1,1.1,0.3,1.7,0.3C11,31,12.4,31,13.8,31c1.9,0,3.8-0.3,5.6-0.8
	c0.8-0.2,1.5-0.4,2.3-0.6c0.6-0.1,0.8-0.7,0.4-1.2c-0.1-0.1-0.3-0.2-0.4-0.3c-0.4-0.2-0.8-0.2-0.8-0.2c-0.3-0.6-0.3-1.3-0.4-1.9
	c-0.1-1-0.1-1.9-0.2-2.9c0-0.5,0-0.9,0.1-1.4c0.1-1.2,0.6-2.3,1.1-3.3s1-2,1.2-3.2c0.2-0.9,0.2-1.8,0-2.7c-0.1-0.5-0.3-1-0.4-1.6
	c-0.2-0.7-0.2-1.5,0.4-2l0.1-0.1c0.1,0,0.1,0,0.2,0s0.3,0,0.4,0c0.2,0,0.3,0,0.5,0c0.1,0,0.1,0,0.3,0c0.3-0.1,0.5-0.1,0.7-0.3
	s0,0,0.2-0.1l0.1-0.1c0.1-0.1,0.2-0.2,0.3-0.4c0.1-0.3,0.2-0.5,0.3-0.8c0.1-0.1,0-0.3-0.1-0.4s-0.1-0.2-0.2-0.2
	c-0.3-0.4-0.6-0.8-0.7-1.3c0-0.3-0.2-0.6-0.5-0.8c-0.4-0.3-0.9-0.6-1.4-0.8c-0.1-0.1-0.2-0.1-0.3-0.2c-0.3-0.3-0.3-0.7-0.1-1
	c0.1-0.4,0.3-0.7,0.4-1.1c0-0.1,0-0.2,0-0.3c-0.1,0-0.2,0.1-0.3,0.1c-0.4,0.3-0.8,0.6-1.1,1c-0.1,0.1-0.3,0.2-0.4,0.4
	c0-0.1-0.1-0.2-0.1-0.3c-0.1-0.3-0.2-0.7-0.3-1C20.4,1,20.3,1,20.2,1.1l-0.1,0.1c-0.5,0.6-0.9,1.2-1.1,1.9c0,0.1,0,0.1,0,0.2
	C19.2,3.2,19.5,3.1,19.7,3z"/>
</svg>
