<?xml version="1.0" encoding="utf-8"?>
<!-- Generator: Adobe Illustrator 25.4.1, SVG Export Plug-In . SVG Version: 6.00 Build 0)  -->
<svg version="1.1" id="equus_x5F_caballus" xmlns="http://www.w3.org/2000/svg" xmlns:xlink="http://www.w3.org/1999/xlink" x="0px"
	 y="0px" viewBox="0 0 32 32" style="enable-background:new 0 0 32 32;" xml:space="preserve">
<path d="M26.2,2.4c-0.2-0.1-0.4-0.1-0.6-0.2c-0.2,0-0.3,0-0.5,0c-0.1,0-0.1,0-0.2-0.1c-0.1-0.3-0.1-0.6-0.2-1c0-0.1,0-0.1-0.1-0.2
	c-0.1,0-0.1,0.1-0.2,0.1C24.1,1.5,23.9,2,24,2.6c0,0.1,0,0.2-0.2,0.3c-0.3,0.2-0.6,0.4-0.8,0.7c-0.2,0.2-0.4,0.3-0.6,0.4
	c-0.1,0-0.2,0-0.3,0c0.3,0.2-0.1,0.2-0.1,0.4c0.1,0,0.2-0.1,0.4-0.1c0,0,0,0,0,0.1C22,4.6,21.7,4.8,21.5,5c0,0.1,0,0.2,0,0.2
	c-0.2,0.2-0.4,0.5-0.6,0.7c0,0,0,0.1-0.1,0.1c0.1,0,0.2,0,0.3,0c-0.5,0.6-1.1,1.2-2,1.2c0,0,0,0.1,0,0.1c0.4,0.1,0.7,0.3,1.1,0.4
	c-0.2,0.3-0.4,0.6-0.7,0.9c-0.3,0.2-0.6,0.4-0.9,0.6c0.4,0,0.7,0,1.1,0c-0.4,0.3-0.7,0.6-1,0.9c0,0,0,0,0,0c0.2-0.1,0.4-0.2,0.7-0.2
	c0,0,0,0.1,0,0.1c-0.3,0.3-0.7,0.6-1,0.9c-0.5,0.4-1.1,0.5-1.7,0.2c-0.7-0.3-1.4-0.5-2.1-0.6c-1.9-0.2-3.5,0.4-4.7,1.8
	c-0.2,0.2-0.4,0.5-0.6,0.6c-0.5,0.4-0.9,0.9-1.2,1.4c-0.3,0.6-0.6,1.1-0.9,1.7c-0.2,0.4-0.4,0.9-0.8,1.2c-0.4,0.4-0.8,0.7-1.4,0.5
	c0.6,0.3,1-0.1,1.4-0.4C6,17.8,5.6,17.9,5.2,18c-0.6,0.1-1-0.1-1.3-0.6c0,0.2,0.1,0.4,0.3,0.6c0.4,0.4,0.8,0.5,1.4,0.3
	c-0.1,0.2-0.3,0.3-0.4,0.4c-0.3,0.2-0.6,0.1-1,0C4.3,19,4.6,19,4.8,19c-0.1,0.2-0.3,0.2-0.4,0.2c-0.5,0-0.8-0.3-1.1-0.6
	c0.1,0.3,0.2,0.5,0.5,0.6c0.2,0.2,0.4,0.3,0.7,0.4c0,0,0,0,0,0.1c-0.2,0-0.5,0-0.7,0c0,0,0,0,0,0.1c0.2,0.1,0.3,0.1,0.5,0.2
	c-0.1,0-0.1,0-0.2,0.1c0,0,0,0,0,0c0.2,0,0.4,0,0.7,0c0,0,0,0,0,0c-0.2,0.1-0.5,0.3-0.7,0.4c0,0,0,0,0,0.1c0.6-0.2,1.1-0.4,1.7-0.6
	c0,0,0,0,0,0c-0.5,0.3-0.9,0.6-1.4,0.9c0,0,0,0,0,0.1c0.1,0,0.2,0,0.2,0c0.2-0.1,0.5-0.2,0.7-0.3c0.3-0.1,0.5-0.3,0.8-0.4
	c0,0,0,0,0,0.1c-0.2,0.2-0.5,0.5-0.7,0.7c0,0,0,0,0,0c0.2-0.1,0.3-0.2,0.5-0.3c0,0,0,0,0,0.1c-0.2,0.1-0.4,0.3-0.5,0.4
	c0.1,0,0.3,0,0.3-0.1c0.4-0.3,0.7-0.7,1.1-1C6.9,20,7,19.9,7,19.8c0,0.3,0,0.5,0,0.7c0,0.2,0,0.4,0,0.7c0,0,0,0,0.1,0
	c0-0.7,0.3-1.3,0.5-2c0,0.5,0,0.9,0,1.4c0,0.5,0.1,1.2,0.3,1.4c-0.1-0.6-0.1-1.2,0-1.8c0.1,0.6,0.2,1.2,0.5,1.7c-0.1-1,0-1.9,0-2.9
	c0,0,0,0,0,0c0,0.3,0.1,0.6,0.1,0.9c0,0,0,0,0.1,0c0.1-0.7,0-1.4,0.2-2.1c0.1,0.3,0.1,0.6,0.1,0.9c0,0.5,0,1,0,1.5
	c0,0.7-0.1,1.4-0.4,2c-0.1,0.1-0.1,0.3-0.1,0.4c0.1,1.1,0.2,2.2,0.1,3.3c-0.1,0.5-0.1,1-0.2,1.5c-0.1,0.4-0.1,0.7,0.1,1.1
	c0,0,0,0.1,0,0.1c0.1,0.2,0.1,0.5,0,0.7c-0.1,0.1-0.1,0.2-0.1,0.3c0,0.4,0,0.4,0.3,0.5c0.4,0.1,0.8,0.1,1.1,0.1c0,0,0.1-0.1,0.1-0.1
	c-0.1-0.3-0.1-0.7-0.4-1c-0.3-0.3-0.3-0.6-0.2-1c0-0.2,0-0.4,0-0.6c0-0.4-0.1-0.8-0.1-1.1c0-0.9,0.1-1.7,0.6-2.5
	c0.2-0.3,0.3-0.6,0.3-1c0-0.5,0-0.9,0.2-1.3c0.3-0.8,0.6-1.7,1.1-2.4c0.3-0.4,0.5-0.8,0.8-1.2c0.1-0.1,0.1-0.1,0.2,0
	c0.2,0.3,0.4,0.6,0.5,0.9c0.1,0.6-0.1,1.2-0.2,1.7c-0.1,0.5-0.4,1-0.7,1.4c-0.1,0.2-0.2,0.4-0.2,0.7c0.1,0.4,0.2,0.8,0.3,1.1
	c0.4,1.3,0.8,2.6,0.8,4c0,0.5,0.2,0.8,0.7,0.9c0.2,0,0.3,0.2,0.3,0.4c0,0.1,0,0.2,0,0.3c-0.1,0.3,0,0.5,0.3,0.5c0.4,0,0.8,0,1.2,0
	c0.1,0,0.2-0.1,0.1-0.2c-0.1-0.2-0.2-0.4-0.3-0.6c-0.1-0.1-0.2-0.2-0.3-0.3c-0.3-0.2-0.5-0.4-0.6-0.8c-0.1-0.3-0.2-0.6-0.3-0.9
	c-0.4-1.3-0.8-2.5-0.5-3.9c0.1-0.5,0.2-1,0.6-1.4c0.6-0.7,1-1.5,1.3-2.3c0-0.1,0.1-0.1,0.2-0.1c0.9,0.3,1.8,0.4,2.8,0.4
	c0.2,0,0.2,0,0.2,0.2c0,0.8,0.1,1.6,0.2,2.4c0,0.5,0,1.1-0.1,1.6c-0.1,0.4-0.1,0.8,0,1.3c0.1,0.2,0.1,0.4,0.1,0.6
	c-0.1,0.7-0.1,1.4-0.3,2.1c-0.1,0.6-0.2,1.1,0.3,1.5c0.2,0.2,0.1,0.4,0,0.6c0,0.1-0.1,0.1-0.1,0.2c-0.1,0.3,0,0.6,0.3,0.6
	c0.4,0.1,0.9,0.1,1.3,0.1c0.1,0,0.2-0.1,0.1-0.2c-0.1-0.2-0.2-0.5-0.3-0.7c0-0.1-0.1-0.2-0.2-0.2c-0.3-0.2-0.5-0.6-0.4-1
	c0-0.1,0-0.2,0-0.3c-0.1-0.8-0.1-1.6,0.1-2.5c0-0.2,0.1-0.4,0.2-0.5c0.4-0.6,0.4-1.1,0.3-1.8c0-0.2-0.1-0.5,0-0.8
	c0.1-0.9,0.3-1.7,0.5-2.6c0-0.2,0.1-0.3,0.2-0.4c0.2-0.2,0.5-0.3,0.7-0.4c0.2-0.1,0.4,0,0.4,0.2c0,0.2,0,0.4,0.1,0.6
	c0,0.5,0.1,1.1,0.1,1.6c0,0.5,0.1,1.1,0,1.6c-0.1,0.5-0.1,1.1,0.1,1.6c0,0.1,0.1,0.3,0.1,0.4c0,0.8,0,1.7,0,2.5c0,0.6,0.1,1,0.6,1.3
	c0.2,0.1,0.2,0.3,0.2,0.5c0,0.1-0.1,0.2-0.1,0.3c0,0.3,0.1,0.4,0.4,0.5c0.5,0,0.9,0,1.4,0c0,0,0,0,0.1,0c-0.2-0.4-0.3-0.8-0.6-1.1
	c-0.3-0.2-0.5-0.4-0.6-0.8c0-0.2,0-0.3-0.1-0.5c-0.3-0.8-0.3-1.7-0.3-2.5c0-0.2,0-0.4,0.1-0.5c0.2-0.6,0.2-1.2,0.1-1.8
	c0-0.3,0-0.7,0-1c0.2-0.7,0.4-1.3,0.6-2c0.2-0.7,0.6-1.4,0.5-2.2c0-0.2,0.1-0.3,0.2-0.5c0.1-0.2,0.3-0.5,0.4-0.8
	c0.1-0.4,0.2-0.8,0.3-1.2c0-0.3,0.1-0.6,0-0.9c-0.1-0.4-0.2-0.7-0.4-1c-0.2-0.6-0.4-1.2-0.3-1.9c0.1-0.9,0.3-1.7,0.4-2.6
	c0,0,0-0.1,0-0.1c0,0,0.1,0,0.1,0c0.6,0.5,1.2,1,1.4,1.8c0,0.1,0.1,0.2,0.1,0.3c0.1,0.1,0.1,0.2,0.2,0.2c0.5,0.2,1.2-0.1,1.4-0.6
	c0.1-0.4,0.2-0.8,0.3-1.1c0-0.1,0-0.3-0.1-0.4c-0.1-0.1-0.2-0.3-0.3-0.4C28.1,8.7,28,8.3,27.9,8c-0.2-0.7-0.4-1.3-0.4-2
	c0-0.1,0-0.3,0.1-0.4c0.1-0.3,0.1-0.6-0.1-0.8c-0.1-0.1-0.2-0.3-0.3-0.4c0,0,0,0,0.1-0.1c0.2,0.1,0.4,0.2,0.6,0.4
	c-0.1-0.2-0.2-0.3-0.2-0.4c-0.2-0.3-0.4-0.7-0.6-1C27,3.1,27,3,27.1,2.9c0.5-0.6,0.5-1.3,0.2-1.8c-0.1-0.2-0.1-0.2-0.2,0
	c0,0-0.1,0.1-0.1,0.1C26.7,1.6,26.5,2,26.2,2.4z"/>
</svg>
