<?xml version="1.0" encoding="utf-8"?>
<!-- Generator: Adobe Illustrator 27.6.1, SVG Export Plug-In . SVG Version: 6.00 Build 0)  -->
<svg version="1.1" id="horse" xmlns="http://www.w3.org/2000/svg" xmlns:xlink="http://www.w3.org/1999/xlink" x="0px" y="0px"
	 viewBox="0 0 32 32" style="enable-background:new 0 0 32 32;" xml:space="preserve">
<path d="M29.477,8.763c0-0.09-0.09-0.18-0.18-0.27c-0.719-0.809-1.619-1.619-1.888-2.698c-0.09-0.36-0.54-0.54-0.54-0.9
	c0-0.27,0.18-0.63,0.18-0.989c0-0.09,0.09-0.18,0-0.27c-0.09,0-0.09,0.09-0.18,0.18c-0.18,0.27-0.449,0.54-0.719,0.719
	c0-0.27,0.09-0.54,0.09-0.809c0-0.09,0.09-0.18,0-0.18c-0.09,0-0.09,0.09-0.18,0.09c-0.449,0.63-0.989,0.989-1.709,1.259
	c-0.54,0.18-0.989,0.36-1.528,0.63c-0.63,0.449-1.439,0.809-2.068,1.349c-0.63,0.54-1.259,0.989-1.888,1.619
	c-0.27,0.27-0.63,0.719-0.989,0.809c-0.719,0.27-1.528,0.449-2.338,0.63l0,0c0,0,0,0-0.09,0.09c0,0,0,0-0.09,0h-0.09h-0.09
	l-0.09,0.09l0,0c-0.18,0.09-0.27,0.09-0.449,0.18c-0.27,0-0.449,0.09-0.719,0.09c-1.169,0.18-2.338,0.18-3.507,0
	c-1.349-0.359-2.697-0.448-4.046-0.179c-0.449,0.09-0.9,0.449-1.349,0.54c-0.809,0.27-1.259,0.809-1.619,1.528
	c-0.359,0.9-0.449,1.798-0.629,2.698c-0.09,0.719-0.09,1.528-0.27,2.248c0.09,0,0.09,0,0.09,0.09v0.09l0,0c0,0.18,0,0.449,0,0.63
	c0,0.09,0,0.18,0,0.36c0,0,0,0,0,0.09c0.09,0.18,0.09,0.27,0.09,0.449c0.09,0.09,0.09,0.18,0.09,0.18v0.09l0,0v0.09l0,0
	c0,0.09,0,0.18,0,0.27l0,0l0,0l0,0c0.09,0.18,0.09,0.27,0.18,0.449c0,0,0,0,0,0.09s0,0.09,0,0.18c0.09,0.09,0,0.27,0.09,0.36l0,0
	l0,0l0,0c0,0.09,0,0.18,0,0.27c0.09,0.09,0.09,0.18,0.09,0.18s0,0,0,0.09c0,0,0,0.09,0.09,0.09c0,0.18,0.18,0.36,0.18,0.54
	c0.09,0.63,0.27,1.259,0.18,1.888c-0.09,0.449-0.09,0.9-0.18,1.349c-0.09,0.54-0.18,0.989,0.09,1.528
	c0.18,0.36,0.18,0.719,0.09,1.079c0,0.09,0,0.27,0,0.36c0,0.27,0.18,0.54,0.449,0.63c0.36,0.18,0.719,0.27,1.079,0.18
	c0.36-0.09,0.449-0.27,0.27-0.54c-0.09-0.09-0.09-0.18-0.18-0.27c-0.36-0.27-0.449-0.63-0.63-0.989c-0.18-0.63,0-1.259-0.09-1.888
	c-0.09-0.9,0.09-1.798,0.449-2.698c0.18-0.54,0.54-0.9,0.9-1.349c0,0.27,0,0.54,0.09,0.809c0.27,0.809,0.36,1.709,0.449,2.518
	c0.09,0.63,0,1.259,0.36,1.798c0.27,0.449,0.449,0.9,0.54,1.439c0,0.36,0.27,0.54,0.54,0.63c0.18,0.09,0.449,0.09,0.63,0.09
	c0.18,0,0.54,0.09,0.63-0.09c0.09-0.27-0.18-0.449-0.36-0.63l-0.09-0.09c-0.27-0.09-0.36-0.27-0.54-0.54
	c-0.27-0.36-0.36-0.809-0.449-1.259c-0.09-0.719-0.36-1.349-0.36-2.068l0,0v-0.09c0,0,0,0,0-0.09c0-0.54,0-1.079,0.18-1.528
	c0.449-1.528,1.259-2.967,1.979-4.406c0.09-0.09,0.09-0.18,0.27-0.09c1.259,0.18,2.518,0.449,3.777,0.63
	c1.349,0.18,2.698,0.36,4.046,0.36c0.18,0,0.27,0.09,0.27,0.27c0.09,0.449,0.09,0.9,0,1.439c-0.09,0.9-0.09,1.709-0.18,2.607
	c0,0.36,0.09,0.63,0.09,0.989c-0.09,0.63-0.09,1.169-0.27,1.798c-0.09,0.27-0.18,0.63,0.09,0.9c0.27,0.27,0.27,0.449,0.27,0.809
	s0.09,0.54,0.54,0.719c0.18,0.09,0.36,0.09,0.54,0.09s0.449,0,0.449-0.18c0.09-0.27-0.09-0.36-0.27-0.449
	c-0.27-0.09-0.36-0.36-0.449-0.54c-0.18-0.36-0.09-0.809-0.18-1.169c-0.09-0.809-0.09-1.709,0.27-2.518l0,0l0,0
	c0.18,0.449,0.27,0.809,0.18,1.259c0,0.54,0,1.169-0.09,1.709c0,0.18,0,0.449,0.18,0.63c0.36,0.27,0.36,0.63,0.449,0.989
	c0.09,0.54,0.27,0.719,0.809,0.719c0.18,0,0.36,0,0.54-0.09c0.27-0.09,0.36-0.27,0.18-0.54c-0.09-0.09-0.18-0.18-0.27-0.27
	c-0.63-0.36-0.809-0.809-0.809-1.439c0,0,0-0.09-0.09-0.09c0-0.09,0-0.09,0-0.18l0,0c-0.18-0.719-0.27-1.439-0.09-2.158
	c0.09-0.449,0.18-0.809,0.18-1.259c0-0.54,0-1.169,0.09-1.709c0.09-0.989,0.54-1.979,0.63-3.058c0-0.09,0-0.18,0.09-0.27
	c0.449-0.449,0.719-0.989,0.9-1.528v-0.09c0-0.09,0-0.18,0.09-0.27c0,0,0-0.09,0.09-0.09c0.09-0.36,0.09-0.809,0.18-1.169
	c0-0.09,0-0.09,0.09-0.18c0.809-0.989,1.259-2.158,1.709-3.327c0.18-0.54,0.449-0.989,0.809-1.439c0.18-0.36,0.36-0.63,0.719-0.36
	c0.09,0,0.27,0,0.449,0.09c0.809,0.09,1.528,0.449,2.158,0.989c0.27,0.27,0.9,0.36,1.259,0.09
	C29.386,9.933,29.566,9.123,29.477,8.763z M4.748,18.655c-0.09,0.18-0.18,0.36-0.18,0.63c-0.18-0.09,0-0.27-0.09-0.449
	c-0.09-0.719,0.09-1.349,0.09-2.068c0.09-0.18-0.09-0.36,0.09-0.449c0.09,0.36,0.18,0.809,0.18,1.169c0,0.18,0,0.36,0,0.54v0.09
	C4.748,18.385,4.748,18.565,4.748,18.655z"/>
</svg>
