<?xml version="1.0" encoding="utf-8"?>
<!-- Generator: Adobe Illustrator 27.6.1, SVG Export Plug-In . SVG Version: 6.00 Build 0)  -->
<svg version="1.1" id="pig" xmlns="http://www.w3.org/2000/svg" xmlns:xlink="http://www.w3.org/1999/xlink" x="0px" y="0px"
	 viewBox="0 0 32 32" style="enable-background:new 0 0 32 32;" xml:space="preserve">
<path d="M28.548,12.335c0.09,0,0.18,0,0.27,0c1.259,0,1.259-0.719,0.809-0.539c-0.18,0.09-0.539,0.09-0.899,0
	c0-0.27-0.09-0.629-0.36-1.079c-0.809-0.989-1.259,0.09-1.169,0.539c0,0-1.888-2.158-4.226-2.068s-3.866,0-5.665,0.629
	c-1.798,0.629-4.136,0.539-4.046,0.36c0,0,0.719-0.18,0.899-1.439c0,0,0.27-0.989,0.18-1.169c-0.09-0.27-0.809,0.09-1.349,0.18
	c-0.45,0.18-1.978,0.18-2.697,1.349c0,0-2.428-0.809-3.597,0.45c0,0-1.169-1.259-1.978-1.618C4.001,7.66,3.462,7.121,3.102,6.851
	c-0.27-0.18-0.27,0.18,0,0.899s-0.09,1.259-0.09,2.158c0,0.539,0.539,1.169,0.899,1.798c0.27,0.45,0.809,0.36,1.349,0.18
	c0,0-0.18,0.45-0.18,0.989c-0.36,0.09-0.719,0.18-0.989,0.27c-0.629,0.09-0.18,0.629-0.09,1.079c0.09,0.36,0.18,1.169,0.629,1.439
	c0.36,0.18,0.899,0.27,1.349,0.27c0.27,0.27,0.539,0.45,0.989,0.539c1.618,0.539,1.529,0.989,1.978,1.798
	c0.45,0.809,1.079,1.888,0.989,3.327s-0.18,3.866-0.539,4.496c-0.45,0.629-0.18,0.539,0.27,0.539s0.629-0.09,0.899-0.09
	s0.18-0.45,0.18-0.809s0.27,0.18,0.36,0.09c0.09-0.09,0.18-0.45,0.27-0.899c0-0.45-0.18-0.809,0-1.439
	c0.18-0.629,0.719-3.507,0.45-4.316c0,0,0.629,0,0.629,0.719s-0.45,2.338-0.45,2.697c0,0.36-0.09,2.248-0.18,2.787
	c-0.09,0.539-0.539,1.439-0.629,1.529c-0.09,0.18,0.36,0.36,0.809,0.27c0.539-0.09,0.27-0.27,0.539-0.45c0.18-0.18,0.18,0.09,0.36,0
	c0.18-0.09,0.18-0.45,0.36-0.629c0.18-0.18,0-0.899,0.36-1.708c0.36-0.719,0.539-2.338,0.809-3.147
	c0.27-0.719,0.719-1.618,0.899-1.888c0,0,4.855,1.349,7.193-0.719c0,0,0.629,1.169,0.899,1.529c0.27,0.27,0.539,2.338,0.45,3.327
	c-0.18,1.079-0.719,2.338-1.079,2.787c-0.36,0.45,0.18,0.45,0.629,0.45c0.539,0,0.809-0.27,0.899-0.719c0,0,0.27,0.36,0.36,0.18
	c0.09-0.09,0.27-0.809,0.36-1.079s0.18-0.36,0.18-1.169s0.09-2.518,0.27-2.967c0.18-0.45-0.989-2.697-0.539-3.507
	c0,0,1.529,2.338,1.618,3.597c0.09,1.349,0.45,1.259,0.719,2.158s0.45,2.877,0.27,3.327c-0.09,0.45,0.719,0.27,0.899,0.09
	c0.539-0.45,0.629-0.719,0.539-1.079c0,0,0.36-0.09,0.27-0.539c-0.09-0.45-0.45-1.349-0.629-1.708c-0.18-0.36-0.18-2.338-0.18-2.877
	s-0.539-0.719-0.539-0.989c0-0.36,0.27-3.507-0.18-6.833C28.008,12.695,28.278,12.605,28.548,12.335z M27.738,11.436
	c-0.09-0.27-0.09-0.629,0.09-0.629s0.27,0.36,0.27,0.629C28.098,11.616,27.828,11.616,27.738,11.436z"/>
</svg>
