<?xml version="1.0" encoding="utf-8"?>
<!-- Generator: Adobe Illustrator 27.6.1, SVG Export Plug-In . SVG Version: 6.00 Build 0)  -->
<svg version="1.1" id="cow" xmlns="http://www.w3.org/2000/svg" xmlns:xlink="http://www.w3.org/1999/xlink" x="0px" y="0px"
	 viewBox="0 0 32 32" style="enable-background:new 0 0 32 32;" xml:space="preserve">
<path d="M27.1,12.2c-0.1-0.2-0.4,0-0.6-0.1C26.4,12,26.2,12,26.2,12s-0.2,0-0.3,0.1c-0.2,0.1-0.5-0.1-0.6,0.1
	c-0.1,0.2,0,0.7,0.3,0.8s0.3,0.2,0.6,0.2l0,0l0,0l0,0l0,0c0.3,0,0.3-0.1,0.6-0.2C27.2,12.9,27.2,12.4,27.1,12.2z"/>
<path d="M1.8,15.5c0,0-0.1,1.8-0.4,2.5C1.4,18,0.2,17.4,1.8,15.5z"/>
<path d="M30.802,8.835c-0.196-0.098-0.392-0.294-0.784-0.392s-0.98,0.196-1.274,0.294c-0.098,0-0.196,0-0.196-0.098
	c-0.098-0.196-0.49-0.686-0.98-0.98c0,1.274-0.588,2.743-0.882,3.233c-0.294,0.588-0.098,1.372,0.196,1.568
	c0.294,0.196,0.392,0.392,0.392,0.392c0.098,0.196,0.098,0.882-0.392,0.98c-0.392,0.098-0.392,0.196-0.784,0.196l0,0l0,0l0,0l0,0
	c-0.392,0-0.392-0.098-0.784-0.196s-0.392-0.784-0.392-0.98c0,0,0-0.196,0.392-0.392c0.294-0.196,0.49-0.98,0.196-1.568
	s-0.88-1.959-0.88-3.232l0,0c-0.196,0.098-0.392,0.294-0.49,0.49l0,0c-0.588,0.882-0.49,1.764-0.49,1.764s-0.098-0.294-0.294-0.196
	c-0.294,0.196-1.176,0.196-1.764-0.588c-0.098-0.098-0.098-0.294,0-0.294c0.196-0.098,0.392-0.294,0.784-0.392
	c0.294-0.098,0.686,0,0.98,0.196c0.196,0.098,0.392,0.098,0.588-0.098l-2.449-0.784c-0.49-0.196-1.078-0.294-1.666-0.294H9.836
	c-0.196,0-0.294,0-0.49-0.098L8.562,7.17C8.17,6.974,7.68,7.072,7.289,7.268c-0.294,0.196-0.686,0.196-0.98,0.098L4.937,7.072
	c-0.294-0.098-0.588,0-0.882,0.098L3.174,7.758C2.88,7.954,2.782,8.346,2.782,8.64v7.152c0,0-0.098,3.135-0.784,3.821
	C1.9,19.71,1.9,19.808,1.9,20.004l0.392,6.27c0,0.196,0.098,0.294,0.294,0.294h0.98c0.196,0,0.392-0.196,0.294-0.392
	c-0.49-1.47-0.686-3.135-0.294-4.703c0.196-0.98,0.588-1.959,1.372-2.645l0.392-0.392l-0.196,0.49
	c0.294,0.392,0.784,0.588,1.176,0.784l-0.098,0.294c0,0.098,0,0.294,0.098,0.294h0.098c0.098,0,0.196-0.098,0.294-0.196L6.8,19.808
	c0.196,0,0.392,0.098,0.588,0.098v0.588c0,0.098,0.098,0.294,0.294,0.294l0,0c0.196,0,0.294-0.098,0.294-0.294v-0.49
	c0.196,0,0.392-0.098,0.588-0.098l0.098,0.392c0,0.098,0.098,0.196,0.294,0.196h0.098c0.098-0.098,0.196-0.196,0.098-0.392
	l-0.098-0.294c0.392-0.196,0.686-0.392,0.882-0.588c-0.098-0.098-0.196-0.196-0.392-0.196c-0.098-0.294-0.196-0.392-0.294-0.49
	s-0.196-0.196-0.294-0.196C8.858,18.24,8.76,18.142,8.76,18.142c-0.098-0.098-0.098-0.098-0.196-0.196c0-0.196,0-0.196,0-0.196
	s0.196,0.196,0.588,0.49c0.098,0.098,0.196,0.098,0.294,0.196s0.196,0.098,0.294,0.196c0.098,0,0.098,0.098,0.196,0.098h0.098
	c0.098,0.098,0.294,0.098,0.392,0.196c0.098,0.098,0.294,0.098,0.392,0.196c0.294,0.098,0.686,0.196,0.98,0.294
	c2.645,0.588,6.27-0.196,7.152-0.294l0.196-1.176v1.078v2.449c0,0.392,0.098,0.882,0.196,1.274l0,0
	c0.098,0.196,0.098,0.392,0.098,0.588v1.861c0,0.098,0,0.196,0,0.392c0,0.098,0,0.098,0.098,0.196l0,0
	c0.098,0,0.196,0.098,0.196,0.196l0.098,0.294c0,0.098,0.098,0.196,0.294,0.196h0.686c0.196,0,0.294-0.196,0.196-0.294
	c-0.196-0.294-0.196-0.686-0.196-0.98V24.02c0-0.294,0.098-0.588,0.294-0.882c0.294-0.392,0.49-0.882,0.588-1.372l0.392-2.743v1.078
	c0.588,0.196,1.274-0.098,1.568-0.686l2.547-4.801c0.098,0,1.274,0,1.372-0.98c0.098-1.078-0.196-1.176,0.294-1.959
	c0.49-0.686,0.784-1.176,0.784-1.666c0-0.098,0.098-0.098,0.196-0.098c0.392,0,1.372,0,2.057-0.686
	C30.9,9.031,30.9,8.933,30.802,8.835z"/>
</svg>
