<?xml version="1.0" encoding="utf-8"?>
<!-- Generator: Adobe Illustrator 25.4.1, SVG Export Plug-In . SVG Version: 6.00 Build 0)  -->
<svg version="1.1" id="bos_x5F_taurus" xmlns="http://www.w3.org/2000/svg" xmlns:xlink="http://www.w3.org/1999/xlink" x="0px"
	 y="0px" viewBox="0 0 32 32" style="enable-background:new 0 0 32 32;" xml:space="preserve">
<g>
	<path d="M13.1999998,16C12.8999996,15.8999996,12.5,15.6999998,12.3000002,15.5s-0.1000004-0.1999998-0.5-0.6999998
		C11.5,14.5,11.4000006,14.4000006,11.3000002,14.4000006c-0.1999998-0.1000004-0.3999996-0.1000004-0.6000004,0
		C10.3000002,14.500001,10,14.6000004,9.8999996,14.7000008c-1.3000002,0.8000002-2.5000005-0.0999985-2.5000005-0.1999989
		s0-0.1999998,0-0.3999996s-0.0999999-0.1999998-0.0999999-0.3000002s0-0.1999998,0-0.3000002
		c0-0.1999998,0.0999999-0.3000002,0.1999998-0.3000002c0-0.1000004,0.0999999-0.1000004,0.1999998-0.1999998
		c0.1999998-0.1000004,0.3000002-0.1000004,0.5-0.1999998c0.5-0.1999998,0.6000004-0.5,0.8000002-0.3999996
		c0.1000004,0,0.1000004,0,0.1000004,0.1000004c0.1999998,0.1000004,0.3999996,0.3000002,0.6999998,0.1999998
		c0.3999996,0,0.8000002-0.6000004,0.6999998-1.1000004c0-0.1000004-0.1000004-0.1999998-0.1000004-0.3999996
		s0-0.3000002,0-0.3999996c0.1000004-0.1000004,0.1999998-0.1999998,0.3000002-0.3000002s0.1999998-0.1999998,0.3000002-0.1999998
		c0.3000002-0.1999998,0.6000004-0.5,0.8000002-0.8999996c0.1999998-0.5,0.1999998-0.8999996,0.1000004-1.1999998
		c-0.1000004-0.4000001-0.2509346-0.8423209-0.4794111-1.3390088c-0.128418-0.2979493-0.1761503-0.4085436-0.2980127-0.5960255
		c-0.1291389-0.1986752-0.4172182-0.4370852-0.5066214-0.4668865c0,0-1.8159542-0.1980829-2.1159544-0.2980828
		c-0.3999996-0.0999999-0.6999998-0.0999999-1-0.0999999c-0.1999998,0-0.0999999,0-0.5,0.0999999
		c-0.1999998,0-0.5999999,0.0999999-1,0.1999998c-0.4000001,0-0.4000001,0-0.8000002,0c-0.3000002,0-0.6999998,0-1,0.0999999
		C4,5.9000001,3.5,6,3.0999999,6.4000001C3,6.5,2.7,7,2.5,7.9000001c-0.0999999,0.7999997,0,1.4000001,0.0999999,1.9999995
		c0.0999999,0.6999998,0.0999999,1.3999996,0.2,2.8999996C2.8999999,14.5999994,3,15.5999994,2.7,16.5999985
		c0,0.1000004-0.4000001,1.3999996-0.8,1.8999996c0,0-0.2,0.2999992-0.3,0.6000004c0,0.1000004-0.1,0.2999992-0.1,0.2999992
		c-0.1,0.2999992,0,0.2999992-0.1,0.5c-0.1,0.2999992-0.3,0.5-0.2,0.5l0,0c0.1,0,0.4-0.3999996,0.4-0.3999996
		S1.4,20.3999977,1.3,20.6999989C1.1,20.7999992,1,21.2000008,1,21.2000008S1.1,21,1.3,20.8000011
		c0.2-0.2000008,0.4-0.3999996,0.4-0.3999996s-0.3000001,0.2999992-0.5,0.7999992s-0.1,0.8999996-0.1,0.8999996s0-0.2000008,0.2-0.5
		c0.1-0.2000008,0.2-0.3999996,0.3-0.3999996c0.1,0-0.2,0.8999996-0.1,0.8999996l0,0c0.1,0,0.1-0.2000008,0.1-0.2000008
		c0.1,0,0.1,0.3999996,0.2,0.3999996l0,0c0.1-0.1000004-0.1-0.2999992-0.1-0.6000004c0-0.2999992,0.2-0.5,0.2-0.5l-0.1,0.3999996
		l0,0c0.1,0,0.2-0.7000008,0.3-0.7000008l0,0c0.0999999,0.1000004-0.1,0.5-0.1,0.5s0.1-0.2000008,0.5000001-0.8999996
		c0.2-0.3999996,0.3-0.7000008,0.3-0.7999992C3,19.3999996,3,19.1000004,3,18.5c0-0.3999996,0-0.8999996,0-1.2999992
		c0-1,0.0999999-1.5,0.2-2.3999996c0-0.3000002,0.3-2.6000004,0-4.5c0-0.3000002-0.2-1,0-1.8000002
		c0.0999999-0.3000002,0.2-0.9000001,0.2-0.9000001v0.0999999c0,0,0,0.3999996,0.0999999,1.1999998
		c0,0.6999998,0.4000001,1.1999998,0.5999999,2.5c0.0999999,0.6999998,0.3000002,1.3999996,0.0999999,2.1999998
		C4.1999998,14,4.0999999,14,4,14.6999998c0,0-0.2,1.1999998,0,2.000001c0,0.2000008,0.0999999,0.3999996,0.1999998,0.5
		c0.0999999,0.2000008,0.0999999,0.2000008,0.0999999,0.2000008c0.0999999,0-0.4999995,0.6999989-0.6999996,0.9999981
		c0,0-0.0999999,0.1000004-0.0999999,0.2999992c0,0.1000004,0,0.2000008,0,0.2999992
		c0.0999999,0.5,0.6000001,2.3999996,0.7,2.7000008c0.1999998,0.8999996,0.4000001,1.7000008,0.1999998,2.2999992
		c0,0.1000004,0,0.7000008-0.0999999,1.1000004v0.1000004c0,0,0,0,0.0999999,0S4.5,25.0999985,4.5999999,25.0999985
		C4.7999997,25.0999985,5,25.3999977,5,25.4999981c0,0,0,0,0,0.1000004c0.0999999,0.2999992-0.0999999,0.5,0,0.6000004
		c0.0999999,0.2000008,0.5,0.2000008,1,0.2000008c0.1999998,0,0.5999999,0,0.6999998,0
		c0.0999999-0.1000004,0.1999998,0,0.1999998-0.2000008c0-0.1000004-0.3000002-0.3999996-0.3000002-0.5
		c-0.0999999-0.1000004-0.3000002-0.2999992-0.5999999-0.7999992c-0.1999998-0.2999992-0.3000002-0.6000004-0.4000001-1.1000004
		C5.3999996,23.1999989,5.3999996,22.6999989,5.3999996,22.5c0-0.2999992,0-0.5,0-0.7000008s0-0.3999996,0.0999999-0.7999992
		c0-0.1000004,0-0.2999992,0.0999999-0.2999992c0,0,0.0999999,0.1000004,0.0999999,0.2000008
		s0.0999999,0.1000004,0.0999999,0.2000008c0.3000002,0.6000004,0.6999998,1.2000008,1.0999999,2s0.5,1.2999992,0.5,1.3999996
		s0,0.1000004,0,0.1000004c0,0.1000004,0,0.1000004,0.0999999,0.1000004s0.0999999,0,0.1999998,0
		c0,0,0,0.1000004,0.0999999,0.1000004c0,0,0.0999999,0,0.1999998,0.1000004c0.0999999,0,0.0999999,0,0.0999999,0
		s0.1000004,0.1000004,0.1999998,0.2999992c0.1000004,0.2000008,0.1000004,0.2999992,0.1000004,0.5
		c0.1000004,0.2000008,0.1999998,0.2999992,0.1999998,0.3999996c0.1000004,0.1000004,1,0.1000004,1.1000004,0.1000004
		c0.3000002,0,0.8000002-0.1000004,0.8000002-0.2000008c0,0,0-0.1000004-0.3999996-0.5
		c-0.1999998-0.2000008-0.3999996-0.2999992-0.5-0.3999996s-0.3000002-0.2000008-0.5-0.3999996
		c-0.3000002-0.3999996-0.5-0.7000008-0.6000004-1c-0.3999996-0.6000004-0.6999998-1.1000004-1-1.7000008
		c-0.1999998-0.6000004-0.4000001-1.1000004-0.5-1.7999992c0-0.3999996,0-0.7999992,0.0999999-1.2000008
		c0.1999998,0,0.4066901,0.1224022,0.627336,0.1672783c0,0-0.0373974,0.3871441-0.0373974,0.5871449
		c0.0448771,0.1682892,0.1954408,0.2393436,0.2954412,0.2393436c0.1000009,0,0.2543044-0.1121922,0.2804828-0.2206459
		C8.2893257,19.6759148,8.3000002,19.5,8.3000002,19.3999996c0,0,0-0.1000004,0.1000004-0.1000004l0,0
		c0.3000002-0.1000004,0.2718725-0.1009979,0.3333321,0.1926422c0.0336571,0.1608086,0.0635757,0.2169056,0.1308918,0.3365784
		c0.1999989,0.2000008,0.2104006,0.1308918,0.3104,0.1308918c0.1000004,0,0.1645498-0.1842232,0.1645498-0.2842216
		c0-0.2000008-0.1159325-0.2712116-0.1159325-0.4712124c0-0.1000004,0.0767574-0.1046772,0.1767578-0.1046772
		C9.3999996,19.2000008,9.5,19.3000011,9.5,19.3999996c0.1000004,0.2000008,0.1999998,0.2000008,0.3000002,0.2000008
		S10,19.3999996,10,19.3000011c0-0.1000004-0.0736818-0.2149944-0.1000004-0.3999996c0-0.1000004,0-0.1000004,0.1000004-0.1000004
		s0.1000004,0,0.1000004,0c0.1000004,0.1000004,0.1000004,0.2000008,0.1999998,0.2999992
		c0.1000004,0.1000004,0.1999998,0.2000008,0.3000002,0.1000004C10.8000002,19.1000004,10.8000002,19,10.7000008,18.8000011
		c-0.1000004-0.1000004-0.1999998-0.2999992-0.1999998-0.3999996s0-0.1000004,0-0.1000004
		c0.3999996-0.3999996,0.6000004-0.7999992,0.8000002-1.2999992c0-0.1000004,0.1000004-0.1000004,0.1999998-0.1000004
		c0.1999998,0,0.3999996,0.1000004,0.6000004,0.2000008c0.5,0.2000008,1,0.3999996,1.6000004,0.6000004
		c0.6000004,0.1000004,1.3000002,0.1000004,1.8999996,0c0.4000006-0.1000004,0.9000006-0.2000008,1.3000002-0.2000008
		c0.2999992,0,0.6000004,0,0.7999992,0.1000004c0.1000004,0,0.1000004,0,0.1000004,0.1000004
		c0,0.7000008,0.1000004,1.2999992,0.1000004,2c0,0.5,0,0.8999996,0,1.3999996c0,0.1000004,0,0.2999992,0.1000004,0.3999996
		c0.1000004,0.3999996,0.2000008,0.7000008,0.2000008,1.1000004c-0.1000004,0.6000004-0.1000004,1.1000004-0.2000008,1.7000008
		c0,0.2999992,0,0.5-0.1000004,0.7999992c0.1000004,0,0.2000008,0.1000004,0.2999992,0
		c0.2000008,0.2000008,0.2999992,0.3999996,0.2000008,0.7000008c0,0.1000004-0.1000004,0.3999996,0,0.3999996
		c0.5,0.2000008,0.7999992,0.2000008,1,0.2000008c0.2999992,0,0.3999996,0,0.6000004-0.1000004
		c0.2000008,0,0.2999992,0,0.2999992-0.2000008c0-0.1000004-0.2000008-0.2999992-0.6000004-0.7000008
		C19.6000004,25.3000011,19.5,25.2000008,19.4000015,25.1000023c-0.1000004-0.2000008-0.1000004-0.2999992-0.1000004-0.2999992
		c-0.2999992-1.2000008-0.2999992-1.2000008-0.2999992-1.6000004c0-0.2000008,0.1000004-0.6000004,0.2999992-1.5
		c0.2000008-0.8999996,0.2000008-0.7999992,0.2000008-0.8999996c0.1000004-0.7999992,0.1000004-1.7000008,0.1000004-1.8999996
		v-0.1000004c0-0.1000004,0-0.1000004,0-0.2000008s-0.6000004-1.1000004-0.7999992-1.7000008
		c0,0-0.2000008-0.6000004-0.2000008-0.8999996c0-0.1000004,0-0.1999998,0.1000004-0.3000002v-0.1000004
		c0,0-1.1000004,0.6999998-2.1000004,0.9000006C15.3000002,16.6000004,13.1999998,16,13.1999998,16z"/>
	<path d="M19.7000008,15.1000004c-0.1000004,0.3000002-0.2000008,0.6999998-0.2999992,1
		c-0.1000004,0.2999992-0.2000008,0.5-0.1000004,0.7999992c0.2000008,0.7000008,0.5,1.2999992,0.7000008,2
		c0.3999996,1,0.7000008,1.8999996,0.8999996,2.8999996c0.1000004,0.2999992,0.2000008,0.7000008,0.5,0.8999996
		c0.1000004,0.1000004,0.2000008,0.2000008,0.2000008,0.2999992c0.2000008,0.5,0.3999996,0.8999996,0.3999996,1.3999996
		c0.1000004,0.2999992,0.1000004,0.7000008,0.1000004,1.1000004c0,0.1000004,0,0.3999996,0.1000004,0.7000008
		c0.2000008,0.2999992,0.5,0.2999992,0.8999996,0.3999996c0.2999992,0.1000004,1,0.1000004,1.2000008-0.1000004
		c-0.1000004-0.2999992-0.6000004-0.7000008-0.7999992-1c-0.1000004-0.2000008-0.2000008-0.3999996-0.3999996-0.7999992
		c-0.2000008-0.3999996-0.2999992-0.7999992-0.5-1.2000008c-0.1000004-0.2999992-0.1000004-0.7000008-0.1000004-1
		c0-0.3999996,0-0.7999992-0.2000008-1.2000008c-0.2000008-0.3999996-0.2999992-0.7999992-0.2999992-1.2999992
		c0-0.1000004,0-0.1000004,0.1000004-0.1000004c0.5-0.1000004,1.1000004-0.2999992,1.6000004-0.3999996
		c0.3999996-0.1000004,0.7999992,0,1.2000008,0.2000008c0.2999992,0.2000008,0.3999996,0.3999996,0.5,0.7999992
		c0,0.2000008,0,0.3999996,0,0.6000004c-0.1000004,0.6000004,0,1.1000004,0.2999992,1.6000004
		c0.2999992,0.6000004,0.7000008,1.2999992,1,1.8999996c0.1000004,0.2999992,0.2999992,0.5,0.6000004,0.7000008
		c0.1000004,0.1000004,0.2000008,0.2000008,0.2000008,0.3999996c0.1000004,0.5,0.3999996,0.7000008,0.8999996,0.7000008l0,0
		L28.7000046,26.5c0.1000004,0,0.2000008,0,0.3999996,0c0.2000008,0,0.3999996-0.2000008,0.6000004-0.2999992
		c0.1000004-0.1000004,0.2000008-0.2999992,0.1000004-0.5c-0.1000004-0.2999992-0.1000004-0.6000004,0-0.8999996
		c0.1000004-0.7000008,0.2000008-1.3999996,0.2000008-2.1000004c0-0.2000008,0.1000004-0.5,0.2000008-0.7000008
		c0.1000004-0.1000004,0.1000004-0.2000008,0.2000008-0.2999992C30.600008,21.4000015,30.7000065,21,30.5000076,20.6000004
		c0-0.1000004-0.1000004-0.2000008-0.1000004-0.2999992c-0.1000004-0.2000008-0.1106606-0.3268776-0.1106606-0.5268784
		c0-0.1000004-0.0214653-0.1393452,0.0785351-0.2393456c0.1000004,0,0.1336575-0.0560951,0.2336578,0.0439053
		c0.0520973,0.0786552,0.1984692,0.2223186,0.2984695,0.322319c0.1410313,0.0414104,0.0849342,0.0526295,0.2000008,0
		c0.0909386-0.0415955,0.1000004-0.1000004,0-0.2000008c0,0-0.3000011-0.3999996-0.3999996-0.6000004
		C30.6000099,19,30.5000095,18.8999996,30.3000107,18.8000011c0.1000004-0.2000008,0.2000008-0.2999992,0.2999992-0.5
		c0.1000004-0.2000008,0.2000008-0.3999996,0.2000008-0.7000008c0-0.2000008-0.1000004-0.3999996-0.3999996-0.2999992
		c-0.2000008,0-0.3999996,0.1000004-0.6000004,0.2000008s-0.3999996,0.2000008-0.5,0.3999996
		c-0.1000004,0-0.2000008-0.1000004-0.2999992-0.1000004l-0.1000004-0.1000004
		c-0.2000008-0.3999996-0.2999992-0.7000008-0.5-1.1000004C27.9000111,15.5,27.5000114,14.5,27.0000114,13.4000006
		c-0.2999992-0.6000004-0.5-1.3000002-0.7000008-1.8999996c-0.1000004-0.5-0.2000008-0.8999996-0.2999992-1.3999996
		c-0.1000004-0.6000004-0.5-1.1000004-0.8999996-1.6000004l-0.2999992-0.3000002
		c-0.6000004-0.5999999-1.2999992-1-2.1000004-1.3000002c-0.7999992-0.3000002-1.5-0.5-2.2999992-0.5999999
		c-1.1000004-0.1999998-2.2000008-0.4000001-3.2999992-0.5c-1.3999996-0.0999999-2.6999998-0.0999999-4.1000004,0
		c-0.6000004,0-1.3000002,0.0999999-1.8999996,0h-0.1000004l0,0L11.1999998,6
		C11.3999996,6.1999998,11.5,6.4000001,11.5999994,6.5999999c0.1999998,0.5,0.3999996,1,0.6000004,1.5000005
		c0.1000004,0.3000002,0.1000004,0.6999998-0.1000004,1c0,0.1000004-0.1000004,0.1999998-0.1000004,0.3000002
		c-0.1999998,0.5-0.1999998,0.8999996,0.1000004,1.3000002c0.1000004,0.1000004,0.1999998,0.1999998,0.3999996,0.1999998
		c0.1000004,0,0.1000004,0,0.1999998,0c-0.1000004,0.1000004-0.1000004,0.1999998-0.1999998,0.1999998
		C12.2999992,11.4000006,12.0999994,11.7000008,12.1999989,12c0,0.3999996,0.3000002,0.6000004,0.6999998,0.5
		c0.1000004,0,0.1999998,0,0.3000002-0.1000004c0,0.1999998-0.1000004,0.5-0.3000002,0.6000004
		c-0.1000004,0.1000004-0.1000004,0.1000004-0.1999998,0.1999998c-0.1000004,0.1000004-0.1999998,0.3000002-0.1000004,0.5
		C12.6999989,13.8999996,12.7999983,14,12.9999981,14s0.3000002,0,0.5,0h0.1000004c0,0-0.1000004,0-0.1000004,0.1000004
		c-0.3000002,0.3000002-0.3999996,0.6000004-0.1999998,1c0.1999998,0.3000002,0.5,0.5,0.8000002,0.6999998
		C14.4999981,16,14.8999987,15.9000006,15.2999983,15.6000004c0,0,0.1000004,0,0.1000004-0.1000004v0.1000004
		c0.1000004,0.1999998,0.3000002,0.3000002,0.5,0.3999996c0.4000006,0.1000004,0.8000002,0,1.1999998-0.1000004
		c0.2999992-0.1000004,0.5-0.3000002,0.7000008-0.3999996c0.1000004-0.1000004,0.2999992-0.1999998,0.5-0.1999998
		c0.2999992,0.1000004,0.5,0,0.7000008-0.1999998C19.1000004,15,19.2000008,14.9000006,19.2999992,14.8000002
		C19.3999996,14.6999998,19.5,14.5,19.5999985,14.4000006l0,0C19.6000004,14.3000002,19.7999992,14.8000002,19.7000008,15.1000004z"
		/>
</g>
</svg>
