<?xml version="1.0" encoding="utf-8"?>
<!-- Generator: Adobe Illustrator 25.4.1, SVG Export Plug-In . SVG Version: 6.00 Build 0)  -->
<svg version="1.1" id="capra_x5F_hircus" xmlns="http://www.w3.org/2000/svg" xmlns:xlink="http://www.w3.org/1999/xlink" x="0px"
	 y="0px" viewBox="0 0 32 32" style="enable-background:new 0 0 32 32;" xml:space="preserve">
<path d="M28.4,30.8c0.7-0.1,0.9-0.6,0.7-1.1c0-0.1-0.2-0.9-0.2-0.9c-0.1-0.5-0.2-1.1-0.2-1.6c0-1,0-2.1,0-3.1c0-0.6,0-1.1-0.3-1.6
	c0-0.1-0.1-0.1-0.1-0.2c-0.3-0.5-0.3-1-0.2-1.5c0.1-0.4,0.1-0.8,0-1.2c-0.1-0.5-0.1-0.9-0.1-1.4c0-0.1,0-0.2,0-0.3
	c0-0.1,0-0.3,0-0.4c0-0.3,0-0.6,0-0.9c0.1-0.6,0.2-1.2,0.3-1.8l-0.3-2.6c0,0,0,0-0.1,0c0.1-0.1,0.2-0.2,0.1-0.3
	c0.1,0,0.1-0.1,0.2-0.1c-0.1-0.1-0.1-0.1-0.1-0.1c0.1-0.1,0.2-0.2,0.2-0.3c0.1-0.2,0-0.4,0.1-0.6c0.1-0.3-0.1-0.5-0.1-0.8
	c0-0.2-0.1-0.4-0.3-0.5c-0.1-0.1-0.3-0.3-0.5-0.4c-0.1,0-0.2,0-0.2-0.1c-0.1-0.1-0.2,0-0.2,0.1c0,0.1-0.1,0.2,0,0.3
	c0,0.2,0.1,0.4,0.1,0.6c0,0.2,0,0.4-0.2,0.6c-0.1,0.2-0.7,0.2-0.8,0c-0.8-0.9-1.8-1.3-3-1.3c-1.1,0-2.1,0.1-3.2,0.3
	c-1,0.2-2,0.2-3-0.3c-0.5-0.2-1-0.4-1.5-0.7c-0.3-0.1-0.6-0.2-0.9-0.4c0,0-0.1,0-0.1,0c-0.2,0.1-0.3,0.1-0.4-0.2
	c-0.2,0.1-0.3,0.1-0.3-0.2c-0.1,0-0.2,0.1-0.2,0.1c-0.1,0.1-0.3,0.2-0.4,0.3c-0.1,0.1-0.2,0.1-0.3-0.1c-0.2,0.1-0.3,0.2-0.5,0.4
	c0,0-0.1,0.1-0.2,0.1c-0.4,0-0.9,0-1.3-0.2c-0.4-0.2-0.6-0.6-0.8-1C10.2,7.1,10.1,6.6,9.9,6c-0.1-0.1,0-0.2,0.1-0.3
	c0.4-0.3,0.7-0.7,0.9-1.2c0,0,0-0.1,0-0.2c-0.1,0-0.1,0-0.1,0c-0.3,0.1-0.6,0.2-0.9,0.2c-0.3,0-0.6,0.1-0.9-0.2
	C8.7,4.2,8.7,4.2,8.9,3.9c0.5-0.7,1-1.2,1.8-1.5c0.8-0.3,1.6-0.5,2.4-0.1c0.6,0.3,1.1,0.7,1.2,1.4c0,0,0,0,0,0.1c0,0,0,0,0.1,0
	c0-0.1,0.1-0.2,0-0.3c0-0.2-0.1-0.3-0.1-0.5c-0.3-0.6-0.7-1.1-1.4-1.4C11.9,1.1,10.8,1,9.7,1.4C8.7,1.8,8,2.5,7.4,3.3
	C7.2,3.5,7,3.6,6.7,3.7c-0.1,0-0.2,0-0.1-0.1C6.6,3,6.7,2.5,6.9,2c0.2-0.5,0.5-0.7,1-0.6c0,0,0,0,0,0c0-0.2-0.1-0.2-0.2-0.3
	C7.4,0.9,7,1,6.7,1.3C6,1.9,5.6,2.8,5.5,3.8c0,0.3-0.3,0.6-0.6,0.6C4.2,4.3,3.6,4.2,3,4.1c-0.1,0-0.1,0-0.2,0c0,0.1,0,0.1,0,0.2
	c0.3,0.7,0.8,1.2,1.6,1.4c0.1,0,0.2,0.1,0.2,0.2c0.1,0.4,0,0.9-0.2,1.3c-0.2,0.5-0.6,1-0.8,1.5C3.6,8.7,3.6,8.8,3.6,9
	c0,0.2,0,0.5,0.1,0.7c0,0.1,0,0.2,0.1,0.2c0.2,0.2,0.5,0.3,0.7,0.5c0.1,0,0.1,0.1,0.1,0.2c0.2,0.6,0.4,1.2,0.3,1.9
	c0,0.3-0.1,0.5-0.1,0.8C4.9,13.2,5,13.1,5.1,13c0.1-0.1,0.2-0.3,0.4-0.2c0.1-0.3,0.2-0.6,0.4-1C6,11.4,6.2,11,6.1,10.5
	c0-0.3,0.1-0.5,0.4-0.7c0.1,0,0.2-0.1,0.3-0.1c0.1,0,0.2,0,0.3,0c0.3,0.2,0.5,0.6,0.6,0.9c0.2,0.8,0.5,1.6,0.9,2.3
	c0.4,0.8,0.7,1.6,0.7,2.4c0,0.6,0.2,1.2,0.5,1.8c0.1,0.1,0.1,0.3,0.2,0.4c0.2,0.6,0.6,1.1,1.1,1.6c0.1,0.1,0.3,0.3,0.3,0.5
	c0.2,0.6,0.3,1.2,0.5,1.8c0.2,0.7,0.3,1.3,0.1,2c-0.1,0.3-0.1,0.7-0.1,1c0,0.3,0.1,0.5,0.1,0.8c0.2,1.5,0,2.9-0.6,4.3
	c-0.1,0.1-0.6,0.9-0.3,1c0,0,0.4,0.1,0.3,0.1c1.1-0.1,1.4-0.2,1.4-0.3c0-0.1,0-0.2,0-0.3c0,0,0,0,0.1-0.1c0.1-0.1,0.1-0.1,0.1-0.1
	c0.1-0.1,0-0.2,0-0.3c0-0.2-0.3-2,0-3.3c0.1-0.4,0.2-0.5,0.3-1.1c0-0.3,0.1-0.5,0.1-0.9c0.1-1.2,0.2-1.7,0.2-2
	c0-0.5,0.2-0.9,0.2-1.4c0,0,0-0.2,0.1-0.2c0.1,0,0.1,0,0.2,0c0.5,0.1,0.5,0.1,0.5,0.1c0.1,0.1,0.1,0.2,0.1,0.5
	c0,0.5,0.1,0.3,0.1,0.9c0,0.4,0,0.9-0.1,1.6c-0.1,0.5-0.1,0.4-0.1,0.6c0,0.2,0,0.5,0.2,1.6c0.1,0.4,0.1,0.4,0.1,0.6
	c0.1,0.5,0.3,1.4,0,2.4c-0.1,0.1-0.1,0.3-0.4,0.8c0,0-0.3,0.8-0.2,0.9c0.2,0.2,0.3,0.2,0.6,0.3c0.4,0,0.8,0,1.1-0.1
	c0.3-0.1,0.2-0.3,0.2-0.6c0-0.4-0.1-1.1-0.2-1.3c-0.2-0.8-0.2-1.8-0.1-2.6c0-0.3,0.1-0.5,0.1-0.8c0-0.3,0.1-0.7,0.1-1
	c0-0.5,0-1.1,0.2-1.6c0.2-0.6,0.3-1.3,0.5-1.9c0.1-0.3,0.1-0.3,0.4-0.3c0.3,0.1,0.6,0.1,0.9,0.2c0.4,0.1,0.8,0.2,1.1,0.2
	c0.1,0,0.3,0,0.2,0.2c0.2,0,0.3-0.1,0.5-0.1c0.2,0,0.2,0,0.2,0.2c0,0,0,0,0,0.1c0,0,0.1,0,0.1,0c0.2-0.2,0.5-0.3,0.7-0.4
	c0.1,0,0.2,0,0.2,0.1c0.2,0.3,0.4,0.5,0.6,0.8c0.8,0.9,0.9,1.9,0.6,3c-0.4,1.2-0.9,2.4-1.5,3.5c-0.1,0.1-0.1,0.2-0.2,0.3
	c-0.2,0.3-1,1.1-0.6,1.4s1.1,0.2,1.1,0.2c0.6,0,0.7,0,0.9-0.2c0.2-0.2,0-0.6,0.2-0.6c0.2-0.1,0.1-0.8,0.1-1c0.1-0.5,0.2-0.7,0.4-1.2
	c0.4-0.8,0.8-1.5,1.2-2.2c0.2-0.4,0.4-0.7,0.6-1.1c0.2-0.4,0.2-0.7,0-1.1c-0.3-0.5-0.5-1-0.7-1.5c-0.3-0.7,0-1.4,0.6-1.8
	c0.1-0.1,0.2-0.1,0.3,0c0.5,0.8,1.1,1.4,1.5,2.2c0.2,0.5,0.4,0.9,0.5,1.4c0.1,0.6,0.3,1.1,0.4,1.7c0.2,0.8,0.2,1.7,0.2,2.6
	c0,0.5,0,0.9-0.2,1.4c-0.1,0.1-0.1,0.3-0.2,0.4C27.1,30,27,30.2,27,30.5c0.1,0.2,0.7,0.3,1.1,0.3L28.4,30.8z"/>
</svg>
