<?xml version="1.0" encoding="utf-8"?>
<!-- Generator: Adobe Illustrator 25.4.1, SVG Export Plug-In . SVG Version: 6.00 Build 0)  -->
<svg version="1.1" id="ovis_x5F_aries" xmlns="http://www.w3.org/2000/svg" xmlns:xlink="http://www.w3.org/1999/xlink" x="0px"
	 y="0px" viewBox="0 0 32 32" style="enable-background:new 0 0 32 32;" xml:space="preserve">
<path d="M20.9,29.4c0,0,0.6,0,0.6-0.3s-0.1-0.7-0.1-0.7s-0.3-0.6-0.3-1s0-2.7,0-2.7s0.3-0.6,0.3-1c0-0.4,0.1-2,0.1-2
	s0.3-0.3,0.7-0.3s0.9-0.2,1.3-0.4c0.3-0.3,1.4-1.8,1.5-2.2c0.1-0.4,0.6-0.8,0.6-1.3s0-2.2-0.3-2.8s-0.8-3.8-0.9-4.3S24.4,9.1,24.4,9
	s0-1.1-0.3-1.7C23.8,6.7,23.7,6,23.7,6s0.3,0,1,0c0.7-0.1,0.8-0.3,0.9-0.7s0.2-0.7-0.1-0.7c-0.3,0-1-0.2-1.3-0.1S23.3,5,23.3,5
	s-0.9-0.1-1.1-0.2c-0.2-0.1-0.3-0.3-0.7-0.3c-0.3,0-0.6,0.3-0.9,0.3s-0.9,0-0.9,0s-0.3-0.2-0.6-0.4s-0.9-0.3-1.3-0.3
	c-0.3,0.1-0.7,0-0.7,0.2s0,0.3,0.1,0.6c0.2,0.3,0.5,0.5,0.8,0.6C18.4,5.7,19,5.8,19,5.9s-0.3,0.7-0.6,0.9c-0.2,0.4-0.7,1.7-0.7,1.7
	s-2.3-0.3-3-0.4c-0.7-0.1-2.6,0-2.9,0.1c-0.3,0.1-2.5,0.7-3,1.3s-1.6,2.1-1.8,3.6s-0.8,4.5-0.7,5.2s0.2,2.4,0.5,2.8
	c0.3,0.5,0.5,0.8,0.6,0.9s0.2,0.6,0.2,0.6s0.3,0.9,0.3,1.5c0,0.5,0.1,1.6-0.1,2.2s-0.3,0.9-0.3,1.3s0,0.7,0.2,0.9
	C7.9,29,8.8,29.2,9.1,29s0-1.1,0-1.1s0-0.4-0.1-0.8c-0.2-0.3-0.3-1.7-0.1-2.1c0.2-0.3,0.4-1.4,0.4-1.9s0.1-1.2,0.1-1.2
	s0.3-0.5,0.3-0.9s0.3-0.8,0.3-0.8s0.5,0.9,1,1.3c0.5,0.3,1,0.5,1.3,0.7c0.3,0.2,0.7,0.3,0.7,0.3s0.3,0.8,0.4,1.4
	c0.1,0.6,0.1,2.8-0.1,3.2c-0.2,0.3-0.4,1-0.4,1.3s0,0.6,0.3,0.7s0.9,0.2,1.3,0c0.2-0.1,0.1-0.3,0-0.7s-0.1-0.3-0.1-0.8s0-3,0.1-3.4
	c0.1-0.3,0.3-1.6,0.3-1.6h2c0,0,0.3,1,0.3,1.5c0,0.4,0.1,0.7,0.2,1.1c0.1,0.3,0,2.1,0,2.8s0.1,0.6,0,0.8c-0.1,0.3-0.3,0.6-0.1,1.1
	c0.1,0.2,0.4,0.4,0.9,0.3c0.3-0.1,0.6-0.3,0.6-0.7s-0.3-0.9-0.3-0.9s0.1-0.3,0-0.6s-0.4-2.2-0.3-2.6s0.4-1.3,0.3-1.9s0-1.3,0-1.3
	l1.4-0.3c0,0,0.1,0.6,0.1,1c0,0.3,0.1,1.3,0.2,1.6c0,0.3,0.2,0.9,0.1,1.3c0,0.3-0.1,2.4-0.1,2.4s-0.3,0.8-0.2,1
	C20.2,29.4,20.9,29.4,20.9,29.4L20.9,29.4z"/>
</svg>
