<?xml version="1.0" encoding="utf-8"?>
<!-- Generator: Adobe Illustrator 25.4.1, SVG Export Plug-In . SVG Version: 6.00 Build 0)  -->
<svg version="1.1" id="oryctolagus_x5F_cuniculus" xmlns="http://www.w3.org/2000/svg" xmlns:xlink="http://www.w3.org/1999/xlink"
	 x="0px" y="0px" viewBox="0 0 32 32" style="enable-background:new 0 0 32 32;" xml:space="preserve">
<style type="text/css">
	.st0{fill-rule:evenodd;clip-rule:evenodd;}
</style>
<path class="st0" d="M28.1306057,4.2628322l-0.4078903,0.2729034l-0.3567085,0.2057033
	c-2.143961,0.5608487-4.9058151,3.1533337-5.8927212,5.1793051c-0.4889603,1.004097-0.7403755,1.733923-0.8890362,1.6659412
	c-0.0437584-0.0201206-0.4309406,0.0308657-0.5460014-0.0300837c-0.3897228-0.2060938-0.7032604-0.8825893-0.7255287-2.1912365
	c-0.0337963-1.9923711-0.9202919-4.0243983-2.7983837-4.967546c-0.2477036-0.2291451-0.7714348-0.5243185-0.9910088-0.7634265
	c-0.3252563-0.2283638-0.9441242-0.2678244-1.186554,0.0337956c-0.2525864,0.3145127-0.2478981,0.9574084-0.2514153,1.3736987
	l-0.0005856,0.1996469c-0.246336,0.6278539,0.0154324,2.4473405,0.247118,3.1261802
	c0.235981,0.6915379,0.6034336,1.4051504,0.8536777,1.733923l0.2668476,0.3051367
	c0.3717499,0.5317411,0.7802258,0.6145697,0.9603386,1.1125164c0.0671997,0.1863632,0.128149,0.3807364,0.1605759,0.5575275
	c0.1640949,0.895092,0.2295361,0.5762815,0.1738625,0.9066172c-0.0756016,0.4477415-0.3045502,0.5514727-0.5319366,0.4518442
	c-2.355135-1.032814-4.1789188-1.6901655-6.3515987-1.2912607c-0.7401791,0.1357679-2.3701763,0.5721788-3.0076027,0.9044685
	C6.0887222,13.4485626,5.371006,14.0967321,4.722641,15.090867c-0.9814358,1.5043879-0.8478165,1.7429094-1.1343956,3.4862089
	c-0.1088085,1.1724892-0.2990799,3.2037334,0.7354927,4.4098225l0.0111351,0.0117207
	c-0.3065052,0.3350258-0.1301041,1.0142555-0.1138897,1.4498863C4.246769,25.1466846,4.0043411,26.13867,4.8099632,26.522728
	l0.1076374,0.0468826l0.7862816,0.2723179c0.3127556,0.0476646,0.3852291,0.0496178,0.6696587,0.1967163
	c0.1900749,0.0984573,0.3643265,0.1976948,0.5676861,0.3037701c0.2572765,0.1345959,0.5747185,0.2840385,0.6907558,0.3246708
	c0.3496761,0.1222878,0.8646183,0.1470985,1.1722946,0.1142788c0.3522148-0.0373116,0.4110146-0.0841961,0.7722168-0.0459061
	c0.3223267,0.03438,0.4469585,0.0795059,0.6985703-0.0918159c0.2498512-0.0461025,0.5038071-0.2238693,0.6356678-0.4158993
	c0.4403172-0.7552204-0.9718647-1.3461533-1.0330086-1.9003601c0.0320358,0.0181675,0.4536018,0.0783348,0.5649509,0.0937672
	c0.7808113,0.1082249,3.2441711,0.1433868,3.5575104,0.0552845c0.0728664-0.0205116,0.1793327,0.0695438,0.218401,0.127758
	c0.3223286,0.5532303,1.0953255,1.6944637,1.1674099,2.2986794c0.0228558,0.1924191,0.0035172,0.3727264,0.1371365,0.4606342
	c0.0556736,0.036726,0.2045307,0.0875168,0.2746601,0.118187c0.2842331,0.0615349,0.4174633,0.0709114,0.703455,0.0636845
	l0.7306061-0.0037117l1.3176346-0.0541115l0.1969128-0.0736485l0.3065033-0.2055073
	c0.0476646-0.0433674,0.1892929-0.0566521,0.1054878-0.4940395c-0.0148468-0.0773582-0.1144753-0.3318977-0.1517868-0.4157028
	c-0.1984749-0.3270168-0.2193775-0.4280109-0.4973602-0.5758915c-0.3418617-0.2482891-0.4702053-0.4407082-0.5256844-0.6028481
	c-0.1365509-0.3992958-0.2920494-0.8444977-0.3967552-1.251997c0.2746601,0.0873222,0.649147,0.0580196,0.7595196,0.0408287
	l0.3481121,0.5112305c0.0668087,0.0767727,0.2480946,0.4061317,0.3121681,0.6026535
	c0.0326233,0.1004086,0.0335999,0.118185,0.0632935,0.1922226c0.0418053,0.1039276,0.0179729,0.0904484,0.0673962,0.2641144
	c0.0875168,0.3074799,0.2178154,0.3608093,0.5256863,0.419611c0.1861668,0.0701294,1.5204048,0.244381,1.5815506,0.0240269
	l0.5338898,0.0216846c0.3869877,0.0095711,0.7036495,0.0152359,1.0627022-0.1357689
	c0.3483086-0.3276005-0.0711079-1.1726837-0.4614162-1.36022c-0.1545219-0.2848186-0.4307461-0.3025951-0.6848946-0.4203911
	l-0.5450268-0.1941776c-0.2537594-0.1058807-0.244772-0.1252193-0.3045502-0.3676491l-0.0345764-0.5948391l0.0042973-0.3707733
	c0.0107441-0.3764381-0.0912285-0.2582531,0.0531349-0.556942c0.0875168-0.1808929,0.1492481-0.2561035,0.2949791-0.3651085
	c0.1672192-0.1252193,0.3020096-0.2672386,0.3975353-0.4516487c0.1564751-0.302206,0.4596577-0.8437138,0.5387745-1.2303104
	c0.0220757-0.1086159,0.0423908-0.2121506,0.0269585-0.3242817c-0.0078144-0.0566502-0.0205116-0.1179905-0.035944-0.1822605
	c0.0484467,0.0484467,0.1556931,0.0736465,0.3572941,0.0629025c0.3639374-0.0197296,0.7542458-0.2117596,1.1072426-0.2813034
	c0.8341427,0.136158,1.0914173-0.6389885,1.1894836-1.2938004c0.0939636-0.6280499-0.6307831-2.7450542-0.7110729-3.4358101
	c-0.091814-0.7901888-0.1705399-1.5897551-0.6915379-2.1248178c-0.1314697-0.1349859-0.1545219-0.1764002-0.2637215-0.3133402
	c-0.1156464-0.1447544-0.2336388-0.1646805-0.2895088-0.429965c0.275444-0.2123451,0.410429-0.4889603,0.4975567-0.8394175
	c0.1390877-0.2465305,0.0300827-0.3223267,0.328577-0.6499281c0.1926155-0.2115631,0.2920475-0.2730989,0.5073242-0.4598532
	c0.9050541-0.6446533,1.505558-1.3736982,1.9099331-2.1574411c0.5733509-1.1113439,1.1818638-2.2492557,1.7130203-3.3746648
	l0.3858147-0.3318992c0.265871-0.1326423,0.4549694-0.373899,0.3295555-0.6542258
	C28.1499462,4.1594925,28.3761597,4.1471853,28.1306057,4.2628322z"/>
</svg>
