<?xml version="1.0" encoding="utf-8"?>
<!-- Generator: Adobe Illustrator 27.6.1, SVG Export Plug-In . SVG Version: 6.00 Build 0)  -->
<svg version="1.1" id="cavefish" xmlns="http://www.w3.org/2000/svg" xmlns:xlink="http://www.w3.org/1999/xlink" x="0px" y="0px"
	 viewBox="0 0 32 32" style="enable-background:new 0 0 32 32;" xml:space="preserve">
<path d="M11.272,12.13c0.096,0.096,1.64,0.386,1.832,0.482c0.386,0.193,3.954,0,4.726-0.193c1.832-0.193,4.822,0,6.462,0.289
	c0.289,0.096,1.35,0.289,1.543,0.289c0.482,0.096,1.543,0.386,1.929,0.482c0.675,0.193,2.893,1.35,2.893,1.35
	c0.193,0.193-0.289,0.675-1.061,1.254c-0.868,0.579-3.183,1.64-3.761,1.929c-2.025,1.061-1.929,0.964-3.858,1.447
	c-1.64,0.482-2.797,0.579-4.147,0.579l-2.7-0.579c0,0-1.254,0.675-1.64,0.772c-0.386,0.096-0.579-0.096-0.675-0.386
	c0-0.289-0.096-0.675,0-0.772l-0.096-0.579c-1.736-0.868-3.472-1.543-3.665-1.543c0,0-0.482,0-0.675,0s-0.289,0.096-1.254,0.482
	c-0.096,0.096-0.579,0.289-1.061,0.579c-0.193,0.096-0.579,0.289-0.964,0.579c-0.386,0.193-0.772,0.482-0.868,0.482
	c-0.675,0.386-0.964,0.579-1.543,0.386s-0.868-1.35,0.096-2.122c1.35-1.061,0.675-1.447,0.579-1.64
	C3.075,15.408,2.4,14.733,2.207,14.54c-0.386-0.386-0.579-0.964-0.482-1.254c0.096-0.386,0.868-0.964,2.7-0.289
	c0.096,0,0.482,0.193,0.772,0.386c0.289,0.193,2.025,1.157,2.797,1.061c0.386,0.096,0.386,0.096,1.64-0.386
	c0.386-0.193,0.868-0.386,0.772-0.482c0,0,0.096-0.386,0-0.579c-0.193-0.675-1.929-1.061-1.543-1.254
	C9.536,11.744,11.08,12.13,11.272,12.13z M28.054,14.251c0,0-0.096,0-0.096,0.096c-0.096,0-0.096,0.096-0.193,0.193
	c0,0.096,0,0.289,0,0.289c0.096,0,0.096,0,0.096,0s0.193,0.386,0.096,0.289c0,0,0.096-0.675,0.386-0.579
	c0.096,0-0.096-0.096-0.096-0.096S28.15,14.348,28.054,14.251C28.054,14.348,28.054,14.251,28.054,14.251z M28.825,14.444
	L28.825,14.444c-0.096,0-0.193,0-0.193,0l0,0h0.096c0.096,0,0.096,0.096,0.193,0.096c0.096,0.096,0.096,0.096,0.096,0.193v0.096l0,0
	c0,0,0-0.096,0.096-0.096v-0.096c0-0.096,0-0.096-0.096-0.193C29.018,14.444,28.921,14.444,28.825,14.444
	C28.921,14.444,28.921,14.444,28.825,14.444z M5.004,14.637c-0.096,0-0.096,0-0.193,0c-0.096,0-0.289,0-0.482,0
	c-0.096,0-0.193,0-0.193,0.096s0.675,0.096,0.772,0C5.197,14.734,5.197,14.637,5.004,14.637z M27.764,15.023
	c0,0.096-0.193,0.193-0.096,0.289c0,0.096,0.096,0.096,0.096,0.096c0.096,0.096,0.482,0.289,0.482,0
	c-0.096,0-0.289-0.193-0.289-0.386C27.861,15.119,27.861,15.023,27.764,15.023z M28.729,15.312c-0.096,0-0.289,0.096-0.289,0.096
	v0.096c0,0.096,0.289,0.193,0.289,0.096C28.729,15.505,28.729,15.409,28.729,15.312L28.729,15.312z M5.1,15.409
	c-0.579,0-0.772,0-0.868,0.096s-0.096,0.096,0,0.096s0.096,0,0.193,0c0.096,0,0.289-0.096,0.579-0.096
	C5.968,15.505,5.968,15.409,5.1,15.409z M23.714,14.637h-0.482c-1.157,0-3.086,0.096-3.665,0.193c-0.193,0-1.061,0-2.025,0
	c-5.015-0.096-5.594,0-6.558,0.193c-0.193,0-0.675,0.096-1.061,0.096s-0.868,0.096-0.964,0.096s-0.482,0.096-0.772,0.096
	c-0.482,0.096-0.675,0.096-0.482,0.193c0.096,0.096,0.193,0.096,0.868,0c0.289,0,0.772-0.096,1.157-0.096
	c0.386,0,0.772-0.096,0.964-0.096c0.289-0.096,0.482-0.096,0.964-0.193c1.543-0.193,4.34-0.289,4.629-0.096
	c0.096,0.096,2.893,0,3.761-0.096c0.193,0,0.675-0.096,0.868-0.096c0.386,0,0.675,0,1.061-0.096c0.579,0,2.218,0,2.315,0
	s0.193-0.096,0.193-0.193C24.292,14.637,24.196,14.637,23.714,14.637z M6.354,16.18c-0.096,0-0.096,0-0.289,0
	c-0.386,0-1.061,0.289-1.35,0.386l-0.193,0.096h0.193c0.096,0,0.289,0,0.386-0.096c0.193-0.096,0.386-0.096,0.675-0.096
	C6.45,16.373,6.45,16.373,6.354,16.18C6.45,16.18,6.45,16.18,6.354,16.18z M6.161,17.241c-0.096,0-0.193,0-0.482,0.096
	S5.39,17.433,5.39,17.53c0.096,0.096,0.096,0.096,0.482,0c0.289-0.096,0.386-0.096,0.386-0.193S6.257,17.241,6.161,17.241z
	 M14.262,18.881L14.262,18.881c-0.096,0-0.675,0.386-0.675,0.386c0,0.096,0.289,0.096,0.579-0.096
	C14.359,19.074,14.359,18.881,14.262,18.881z"/>
</svg>
