<?xml version="1.0" encoding="utf-8"?>
<!-- Generator: Adobe Illustrator 27.6.1, SVG Export Plug-In . SVG Version: 6.00 Build 0)  -->
<svg version="1.1" id="rapeseed" xmlns="http://www.w3.org/2000/svg" xmlns:xlink="http://www.w3.org/1999/xlink" x="0px" y="0px"
	 viewBox="0 0 32 32" style="enable-background:new 0 0 32 32;" xml:space="preserve">
<path d="M20.501,10.439c-0.006,0.009-0.017,0.027-0.022,0.036c-0.059-0.39-0.348-0.898-0.097-1.229
	c0.006,0.031,0.018,0.06,0.031,0.088c0.005,0.014,0.014,0.043,0.019,0.057c0.004,0.015,0.013,0.044,0.017,0.058
	c0.006,0.013,0.017,0.04,0.022,0.053c0.038,0.275-0.084,0.566,0.03,0.832C20.501,10.369,20.501,10.404,20.501,10.439z M16.627,4.797
	l0.004-0.021c0.004-0.014,0.014-0.042,0.019-0.056c0.043-0.018,0.088-0.027,0.135-0.024c-0.02,0.024-0.04,0.049-0.058,0.074
	c-0.035,0.09-0.06,0.183-0.087,0.275c-0.007-0.029-0.014-0.058-0.021-0.087C16.62,4.919,16.624,4.838,16.627,4.797z M16.599,5.203
	l0.018-0.014c0.016,0.048,0.037,0.094,0.06,0.14c-0.023,0.091-0.051,0.18-0.075,0.271c-0.007-0.007-0.022-0.021-0.029-0.028
	c-0.001-0.011-0.001-0.032-0.002-0.042C16.582,5.421,16.595,5.312,16.599,5.203z M16.234,4.896c0.046-0.047,0.1-0.084,0.158-0.113
	c0.047,0.001,0.094,0.005,0.137,0.023c-0.001,0.01-0.001,0.031-0.002,0.041c-0.002,0.039-0.002,0.078-0.002,0.117
	c-0.001,0.018-0.003,0.056-0.003,0.074c-0.007,0.105-0.013,0.21-0.018,0.315l-0.001,0.023c-0.035,0.016-0.044,0.057-0.028,0.09
	c-0.008,0.129-0.03,0.258-0.038,0.387c-0.002,0.01-0.005,0.029-0.007,0.039c-0.085-0.241-0.127-0.498-0.206-0.742
	c-0.006-0.009-0.017-0.025-0.022-0.034c-0.012-0.033-0.021-0.067-0.028-0.102C16.193,4.975,16.214,4.936,16.234,4.896z M16.37,6.727
	c-0.03-0.055-0.062-0.109-0.093-0.163c-0.013-0.04-0.028-0.08-0.046-0.118c-0.016-0.035-0.035-0.068-0.052-0.102
	c-0.007-0.024-0.015-0.049-0.023-0.073c-0.021-0.07-0.05-0.138-0.079-0.205c-0.009-0.049-0.019-0.097-0.029-0.145
	c0.02-0.032,0.012-0.074-0.017-0.097c-0.004-0.01-0.011-0.029-0.014-0.039c0.02-0.09,0.147-0.112,0.134-0.215
	c0.001-0.015,0.002-0.046,0.003-0.061c0.011-0.038,0.027-0.073,0.044-0.108c0.011,0.058,0.02,0.116,0.03,0.173
	c-0.017,0.035-0.009,0.076,0.024,0.098c0.016,0.07,0.032,0.14,0.048,0.21c-0.004,0.042-0.009,0.084-0.014,0.125
	c-0.157-0.145-0.117,0.072-0.003,0.141c0.014,0.033,0.027,0.068,0.046,0.099c0.015,0.02,0.03,0.04,0.046,0.059
	c0.051,0.148,0.071,0.305,0.133,0.449c0.012,0.058,0.01,0.117,0.003,0.175C16.463,6.862,16.416,6.795,16.37,6.727z M16.925,10.146
	l0.004-0.02c0.003-0.094,0.064-0.21,0.001-0.296c0.005-0.162,0.012-0.324,0-0.486c0.025-0.054,0.078-0.138-0.006-0.157
	c0.029-0.21-0.008-0.423,0-0.634c0.005-0.032,0.004-0.064-0.001-0.096c-0.004-0.129,0.026-0.263-0.018-0.388l-0.003-0.023
	c0.029-0.025,0.035-0.067,0.012-0.099c0.004-0.016,0.013-0.049,0.017-0.065c0.038-0.28,0.121-0.552,0.246-0.807
	c0.003,0.053,0.011,0.105,0.02,0.158c-0.011,0.045-0.007,0.093,0.007,0.137c0.011,0.055,0.023,0.11,0.035,0.165
	c-0.003,0.03,0.002,0.059,0.016,0.087c0.011,0.062,0.02,0.123,0.033,0.186c0.011,0.056,0.023,0.111,0.036,0.167
	c0.006,0.015,0.017,0.045,0.023,0.06c0.006,0.041,0.011,0.083,0.018,0.125c0.015,0.08,0.042,0.158,0.066,0.236
	c-0.108-0.053-0.17,0.04-0.046,0.085c0.006,0.023,0.011,0.045,0.018,0.067c0.016,0.05,0.032,0.1,0.05,0.15
	c0.002,0.118,0.005,0.237,0.003,0.355c-0.032,0.364-0.185,0.7-0.362,1.014c-0.053,0.047-0.106,0.096-0.144,0.158
	C16.941,10.196,16.933,10.171,16.925,10.146z M14.768,10.015c-0.012-0.04-0.024-0.081-0.034-0.121
	c0.005-0.072,0.01-0.143,0.015-0.215c0.028-0.027,0.03-0.069,0.008-0.1c0-0.058,0.001-0.117,0.002-0.176
	c0.022,0.032,0.043,0.065,0.06,0.1c0.003,0.015,0.01,0.045,0.013,0.06c0.003,0.104,0.133,0.105,0.166,0.191
	c-0.002,0.01-0.006,0.031-0.008,0.041c-0.026,0.028-0.027,0.07-0.002,0.099c-0.002,0.049-0.005,0.098-0.006,0.148
	c-0.018,0.071-0.037,0.142-0.046,0.215c-0.004,0.025-0.008,0.05-0.011,0.075c-0.012,0.036-0.025,0.072-0.035,0.109
	c-0.012,0.04-0.02,0.082-0.027,0.124c-0.023,0.058-0.046,0.116-0.067,0.175c-0.035,0.074-0.071,0.148-0.105,0.223
	c-0.016-0.056-0.026-0.114-0.024-0.174c0.039-0.152,0.035-0.311,0.061-0.465c0.013-0.022,0.024-0.043,0.036-0.065
	c0.014-0.034,0.022-0.07,0.03-0.105C14.896,10.068,14.901,9.847,14.768,10.015z M14.138,8.864C14.116,8.841,14.093,8.821,14.07,8.8
	c0.045-0.011,0.092-0.009,0.137,0.002c0.007,0.013,0.021,0.039,0.027,0.052l0.007,0.02c0.009,0.04,0.025,0.119,0.034,0.159
	c-0.003,0.029-0.005,0.059-0.007,0.089C14.225,9.035,14.186,8.946,14.138,8.864z M14.39,9.663c-0.038-0.086-0.08-0.17-0.117-0.256
	c0.016-0.048,0.029-0.098,0.037-0.147l0.02,0.011c0.022,0.107,0.051,0.212,0.079,0.318c0.001,0.011,0.004,0.032,0.005,0.042
	C14.408,9.639,14.396,9.655,14.39,9.663z M14.593,9.888c-0.029-0.127-0.071-0.249-0.099-0.376c0.01-0.035-0.005-0.074-0.042-0.084
	l-0.005-0.022C14.425,9.303,14.403,9.2,14.38,9.098c-0.004-0.018-0.011-0.055-0.015-0.073c-0.006-0.038-0.013-0.077-0.02-0.116
	c-0.002-0.01-0.006-0.03-0.008-0.04c0.04-0.024,0.086-0.036,0.132-0.044c0.062,0.02,0.122,0.047,0.174,0.086
	c0.026,0.036,0.053,0.072,0.079,0.108c-0.001,0.035-0.006,0.07-0.012,0.105c-0.004,0.01-0.013,0.028-0.017,0.037
	c-0.04,0.253-0.042,0.514-0.088,0.765C14.603,9.916,14.596,9.897,14.593,9.888z M14.768,14.282
	c-0.047-0.055-0.107-0.095-0.167-0.133c-0.224-0.283-0.427-0.591-0.516-0.945c-0.021-0.116-0.036-0.234-0.053-0.351
	c0.009-0.052,0.018-0.104,0.026-0.156c0.003-0.023,0.005-0.046,0.007-0.069c0.115-0.064,0.04-0.146-0.058-0.077
	c0.012-0.081,0.026-0.162,0.029-0.243c0-0.042-0.001-0.084-0.001-0.126c0.003-0.016,0.01-0.047,0.013-0.063
	c0.003-0.057,0.007-0.113,0.009-0.17c0.003-0.063,0.002-0.126,0.004-0.189c0.009-0.029,0.01-0.059,0.002-0.088
	c0.002-0.056,0.006-0.113,0.008-0.169c0.007-0.046,0.003-0.093-0.015-0.136c0.001-0.053,0.001-0.106-0.004-0.159
	c0.163,0.232,0.287,0.487,0.369,0.758c0.007,0.016,0.02,0.047,0.027,0.062c-0.017,0.035-0.006,0.076,0.028,0.096v0.023
	c-0.024,0.13,0.027,0.258,0.043,0.386c0,0.032,0.005,0.064,0.014,0.095c0.041,0.207,0.038,0.424,0.099,0.626
	c-0.079,0.032-0.014,0.107,0.019,0.156c0.014,0.162,0.046,0.321,0.076,0.48c-0.049,0.094,0.03,0.199,0.048,0.292l0.007,0.02
	C14.778,14.23,14.774,14.256,14.768,14.282z M15.232,19.616c0.02-0.036,0-0.075-0.033-0.093c-0.014-0.146-0.048-0.29-0.075-0.434
	c-0.026-0.177-0.053-0.355-0.087-0.531c0.015-0.03,0.031-0.059,0.045-0.09c0.028-0.062,0.048-0.128,0.066-0.194
	c0.065-0.097-0.003-0.145-0.03-0.025c-0.02,0.039-0.041,0.077-0.061,0.116c-0.012-0.034-0.026-0.067-0.04-0.1
	C15,18.14,14.98,18.014,14.961,17.89c0.152-0.239,0.296-0.485,0.421-0.739c0.035-0.096,0.067-0.193,0.099-0.29
	c0.018-0.054,0.035-0.109,0.049-0.164c0.007,0.007,0.021,0.022,0.028,0.029c0.004,0.01,0.011,0.029,0.015,0.039
	c0.003,0.03,0.005,0.06,0.007,0.09c-0.023,0.033-0.024,0.076-0.002,0.11c-0.023,0.283,0.032,0.565,0.027,0.849
	c-0.002,0.015-0.005,0.046-0.007,0.061c-0.013,0.037-0.027,0.073-0.039,0.111c-0.053-0.103-0.095-0.212-0.143-0.317
	c-0.021-0.146-0.237-0.06-0.141,0.057c0.14,0.151,0.315,0.376,0.22,0.587c0,0.015-0.001,0.045-0.001,0.06
	c-0.002,0.075-0.007,0.15-0.015,0.225c-0.045,0.155-0.051,0.317-0.074,0.475L15.4,19.092c-0.048,0.176-0.062,0.365-0.147,0.529
	L15.232,19.616z M15.757,22.017l-0.003-0.02c0.015-0.043,0.001-0.09-0.034-0.119c-0.009-0.071-0.015-0.145-0.027-0.215
	c-0.017-0.06-0.043-0.118-0.067-0.175c0.014-0.038-0.004-0.077-0.036-0.098c-0.018-0.107-0.036-0.214-0.053-0.32
	c-0.003-0.046-0.016-0.09-0.034-0.132c-0.027-0.084-0.039-0.174-0.055-0.26c-0.002-0.012-0.006-0.034-0.008-0.046
	c-0.008-0.035-0.024-0.106-0.032-0.141c-0.011-0.064-0.026-0.127-0.043-0.19c-0.02-0.191-0.052-0.381-0.067-0.572
	c0.02-0.046,0.042-0.092,0.062-0.138c0.013-0.03,0.025-0.06,0.034-0.091c0.03-0.105,0.046-0.213,0.067-0.319
	c0.002-0.01,0.005-0.029,0.006-0.038c0.017-0.158,0.059-0.313,0.076-0.471c0.008-0.046,0.017-0.092,0.022-0.138
	c0.017-0.077,0.002-0.162,0.038-0.232c0.198,0.583,0.536,1.103,0.773,1.668c0.004,0.464-0.185,1.051-0.336,1.553
	c-0.057,0.113-0.099,0.234-0.154,0.348C15.846,21.912,15.809,22.145,15.757,22.017z M11.192,14.067
	c0.002-0.015,0.006-0.045,0.008-0.06c0.003-0.015,0.007-0.044,0.01-0.059c0.009-0.03,0.016-0.061,0.017-0.092
	c0.299,0.287,0.093,0.835,0.096,1.229c-0.007-0.008-0.02-0.024-0.027-0.032c-0.006-0.035-0.011-0.069-0.016-0.103
	c0.071-0.28-0.096-0.549-0.101-0.826C11.182,14.109,11.189,14.081,11.192,14.067z M11.05,14.165
	c0.025,0.061,0.046,0.125,0.066,0.188c-0.013,0.038,0.001,0.081,0.034,0.104c0.009,0.029,0.018,0.058,0.026,0.088
	c0.003,0.049,0.006,0.105-0.036,0.14c-0.007-0.008-0.021-0.023-0.027-0.031c-0.03-0.08-0.059-0.161-0.085-0.242
	c-0.007-0.03-0.015-0.06-0.022-0.09c0.037-0.024,0.023-0.071-0.003-0.097C11.009,14.199,11.026,14.179,11.05,14.165z M10.672,13.568
	c0.013,0.006,0.04,0.019,0.053,0.026c0.004,0.009,0.012,0.028,0.017,0.038c-0.012,0.036,0.004,0.075,0.038,0.092
	c0.003,0.017,0.008,0.05,0.011,0.066c0.012,0.037,0.035,0.11,0.047,0.146c0.019,0.089,0.032,0.177,0.045,0.267
	c0.004,0.039,0.01,0.077,0.016,0.116c0.012,0.055,0.027,0.108,0.043,0.162c0.018,0.081,0.027,0.163,0.033,0.246
	c-0.035-0.053-0.064-0.11-0.095-0.165c-0.06-0.112-0.122-0.224-0.174-0.341c0.045-0.105,0.118-0.226,0.056-0.338
	c0.005-0.085-0.032-0.165-0.069-0.239C10.69,13.62,10.634,13.583,10.672,13.568z M10.761,15.323
	c-0.053-0.005-0.088-0.043-0.113-0.087c-0.066-0.133-0.122-0.271-0.199-0.399c-0.05-0.231-0.244-0.457-0.16-0.702
	c0.013-0.03,0.026-0.06,0.038-0.09c0.129,0.22,0.385,0.305,0.457,0.58c0.02,0.034,0.039,0.068,0.058,0.102
	c-0.008,0.035,0.017,0.068,0.053,0.071c0.032,0.048,0.066,0.095,0.101,0.141c-0.008,0.035,0.021,0.066,0.057,0.056
	c0.024,0.032,0.048,0.066,0.066,0.102c0.025,0.085,0.052,0.171,0.079,0.256c0.005,0.015,0.01,0.029,0.015,0.044
	c0.014,0.081-0.061,0.123-0.122,0.167c-0.026,0.038-0.039,0.083-0.054,0.126c-0.119-0.017-0.044-0.164-0.126-0.224
	c0.003-0.035-0.024-0.063-0.06-0.059C10.833,15.367,10.811,15.326,10.761,15.323z M11.275,17.6c-0.047-0.09-0.1-0.176-0.151-0.264
	c0.001-0.01,0.003-0.029,0.003-0.039c0.057-0.034,0.134-0.059,0.141-0.136c0.042-0.019,0.05-0.067,0.029-0.104
	c0.015-0.032,0.03-0.069,0.017-0.104l-0.004-0.022c-0.024-0.156-0.038-0.312-0.06-0.468c-0.004-0.033-0.013-0.1-0.017-0.134
	l-0.01-0.017c-0.032-0.3-0.175-0.139-0.132,0.046c-0.022,0.04-0.02,0.087,0.005,0.125c0.002,0.03,0.004,0.061,0.007,0.091
	c-0.001,0.046-0.003,0.093-0.006,0.139c-0.019,0.041-0.025,0.094,0.008,0.13c-0.009-0.006-0.027-0.018-0.035-0.024
	c-0.098-0.171-0.145-0.362-0.166-0.557c0.004-0.016,0.011-0.048,0.014-0.064c0.027-0.041,0.055-0.082,0.068-0.13
	c0.015-0.003,0.046-0.009,0.062-0.012c0.029,0.002,0.058,0,0.087-0.006c0.01,0.003,0.03,0.008,0.04,0.011
	c0.054,0.062,0.096,0.132,0.128,0.208c0.007,0.118,0.034,0.233,0.062,0.348c0.005,0.031,0.014,0.092,0.019,0.122
	c0.033,0.197,0.067,0.394,0.099,0.592c-0.01,0.048,0.007,0.095,0.041,0.129c0.009,0.046,0.017,0.093,0.026,0.139
	c-0.012,0.044,0.004,0.09,0.042,0.115c0.039,0.234,0.18,0.45,0.155,0.693C11.569,18.156,11.359,17.908,11.275,17.6z M13.941,28.415
	l-0.017-0.004c0.004-0.036,0.022-0.066,0.047-0.091c0.04,0.02,0.081,0.04,0.122,0.058c0.024,0.04,0.068,0.081,0.049,0.132
	C14.085,28.462,14.018,28.423,13.941,28.415z M16.618,30.421c0.207-0.074,0.296-0.163,0.36-0.302
	c0.004-0.012,0.006-0.025,0.009-0.037c0.093-0.086,0.107-0.132,0.164-0.297c0,0-0.006-0.198-0.025-0.265
	c0.004-0.009,0.009-0.018,0.013-0.027c0.003-0.036,0.008-0.107,0.011-0.143c-0.015-0.08-0.03-0.16-0.045-0.239
	c0.005-0.046,0.002-0.093-0.005-0.139c0.034-0.022,0.045-0.067,0.025-0.101c-0.007-0.084-0.015-0.165-0.021-0.248
	c0.008-0.037-0.02-0.069-0.057-0.07c-0.014-0.028-0.028-0.056-0.042-0.084c-0.009-0.031-0.019-0.062-0.032-0.091
	c0.009-0.024,0.017-0.047,0.026-0.07c0.042-0.058,0.08-0.119,0.108-0.184c0.285-0.579,0.537-1.177,0.871-1.73
	c0.348-0.122,0.465-0.517,0.697-0.772c0.066-0.091,0.109-0.196,0.131-0.305c0.028-0.021,0.039-0.056,0.025-0.089
	c0.032-0.258,0.373-0.489,0.616-0.558c0.075-0.017,0.134-0.067,0.194-0.113c0.033-0.024,0.058-0.056,0.084-0.087
	c0.047-0.036,0.09-0.077,0.129-0.122c0.061-0.075,0.138-0.141,0.177-0.231c0.083,0.027,0.166,0.051,0.25,0.077
	c0.006,0.049,0.049,0.075,0.095,0.079c0.216,0.261,0.219-0.197,0.355-0.286c0.011-0.009,0.033-0.026,0.044-0.035
	c0.115-0.138,0.001-0.322-0.121-0.41c-0.008-0.005-0.023-0.016-0.031-0.021c-0.024-0.011-0.048-0.021-0.073-0.031
	c-0.025-0.028-0.066-0.031-0.096-0.008c-0.01,0.004-0.03,0.011-0.04,0.015c-0.239,0.108-0.071-0.105-0.188-0.14l-0.017-0.008
	c-0.026-0.013-0.054-0.031-0.076-0.002c-0.033,0.025-0.071,0.041-0.113,0.038c-0.016-0.03-0.045-0.053-0.081-0.049l-0.014-0.014
	c-0.03-0.048-0.083-0.012-0.116,0.01c-0.006-0.008-0.018-0.022-0.024-0.03c-0.038-0.049-0.084-0.092-0.132-0.131
	c-0.122-0.116-0.269-0.205-0.431-0.252c-0.014-0.04-0.084-0.055-0.082,0.002c-0.021,0.052-0.027,0.104-0.018,0.158
	c-0.029,0.131,0.311,0.193,0.085,0.209c-0.028,0.005-0.054,0.014-0.079,0.028c-0.063,0.007-0.057,0.073-0.002,0.089
	c0.02,0.039,0.063,0.061,0.107,0.048c0.105,0.017,0.222,0.009,0.313,0.073c0.021,0.017,0.041,0.034,0.061,0.052
	c0,0.016,0,0.048,0,0.064c-0.045-0.013-0.093-0.019-0.137-0.001c-0.044-0.005-0.078,0.035-0.067,0.078
	c-0.063,0.043-0.104,0.107-0.128,0.178c-0.12,0.119-0.109,0.299-0.151,0.451c-0.049,0.057-0.077,0.169,0.009,0.205
	c0.147,0.022-0.039,0.141-0.063,0.217c-0.069,0.061-0.128,0.146-0.221,0.169c0.025-0.029,0.009-0.068-0.018-0.088
	c-0.001-0.017-0.003-0.049-0.004-0.066c0-0.056-0.01-0.113-0.043-0.16c-0.021-0.06-0.069-0.081-0.129-0.065
	c-0.034-0.014-0.068,0.005-0.081,0.038c-0.035,0.006-0.055,0.039-0.05,0.073c-0.015,0.045-0.029,0.091-0.04,0.137
	c-0.001,0.005-0.003,0.01-0.004,0.016c-0.012,0.047-0.021,0.095-0.026,0.144c-0.017,0.159-0.035,0.318-0.043,0.477
	c-0.047,0.011-0.08,0.048-0.088,0.095c-0.064,0.081-0.123,0.166-0.169,0.258c-0.023,0.041-0.044,0.083-0.058,0.129
	c-0.004,0.015-0.011,0.044-0.015,0.059c-0.084,0.023-0.094,0.12-0.125,0.188c-0.018,0.02-0.029,0.044-0.032,0.072
	c-0.005,0.014-0.014,0.042-0.018,0.055c-0.194,0.252-0.292,0.568-0.462,0.838c-0.039,0.07-0.073,0.143-0.11,0.214
	c-0.054,0.092-0.094,0.192-0.134,0.291c-0.036,0.063-0.07,0.126-0.096,0.194l-0.009,0.019c-0.003-0.01-0.009-0.029-0.012-0.039
	c0-0.052,0.001-0.103,0.002-0.154c0.032-0.029,0.038-0.074,0.019-0.111c0.012-0.117,0.02-0.235,0.028-0.351
	c0.029-0.028,0.035-0.07,0.019-0.106c0.002-0.031,0.003-0.061,0.005-0.092c0.029-0.038,0.037-0.088,0.02-0.133
	c0-0.049,0.001-0.099,0.003-0.147c0.047-0.027,0.038-0.084,0.026-0.128c0.005-0.032,0.004-0.064-0.002-0.096
	c0.001-0.012,0.003-0.035,0.004-0.046c0.004-0.037,0.014-0.112,0.018-0.149c0.024-0.153,0.04-0.308,0.032-0.463
	c0.04-0.016,0.039-0.065,0.013-0.093c0.021-0.046,0.023-0.099,0.004-0.146c0.004-0.017,0.01-0.052,0.014-0.069
	c0.007-0.063,0.013-0.126,0.017-0.188c0.042-0.016,0.042-0.067,0.015-0.097c0.006-0.032,0.01-0.065,0.014-0.097
	c0.043-0.065,0.047-0.125,0.012-0.181c0.002-0.012,0.006-0.035,0.008-0.046c0.042-0.03,0.04-0.084,0.017-0.125
	c0.001-0.011,0.004-0.034,0.005-0.046l0.003-0.023c0.03-0.026,0.041-0.068,0.025-0.104c0.01-0.067,0.018-0.137,0.028-0.203
	c0.032-0.021,0.039-0.062,0.023-0.096c0.041-0.103,0.065-0.212,0.075-0.321c0.075-0.137,0.135-0.283,0.23-0.409
	c0.091-0.144,0.212-0.278,0.244-0.45c0.053-0.031,0.107-0.061,0.157-0.096c0.193-0.135,0.209-0.393,0.369-0.555
	c0.023-0.031,0.031-0.068,0.041-0.104c0.28-0.356,0.549-0.745,0.951-0.978c0.14-0.093,0.332-0.126,0.416-0.286
	c0.093-0.102,0.017-0.212-0.111-0.202c-0.803-0.1-1.21,0.782-1.716,1.231c-0.048,0.043-0.076,0.103-0.108,0.158
	c-0.03,0.024-0.061,0.047-0.094,0.066c0.233-1.077,0.694-2.115,1.072-3.158c0.294-0.799,0.517-1.624,0.75-2.441
	c0.218-0.571,0.38-1.162,0.535-1.752c0.079-0.282,0.136-0.569,0.19-0.856c0.045-0.006,0.067-0.052,0.052-0.092
	c0.174-0.163,0.298-0.37,0.376-0.594c0.144-0.24,0.164-0.533,0.274-0.788c0.021-0.009,0.043-0.017,0.064-0.026
	c0.175,0.11,0.39,0.056,0.46-0.17c0.005-0.013,0.015-0.04,0.021-0.053c0.02-0.026,0.04-0.052,0.059-0.078
	c0.026-0.006,0.044-0.021,0.054-0.046c0.059-0.11,0.127-0.214,0.177-0.328c0.063-0.279-0.143-0.084-0.188,0.044
	c-0.046,0.074-0.092,0.148-0.129,0.227c-0.017,0.033-0.03,0.067-0.044,0.101c-0.041,0.045-0.085,0.087-0.129,0.128
	c0.041-0.122,0.064-0.248,0.095-0.372c0.021-0.033,0.043-0.065,0.062-0.099c0.048-0.086,0.064-0.198,0.154-0.254l0.021,0.001
	c0.029,0.004,0.058,0.003,0.086-0.003c0.181,0.05,0.366,0.164,0.558,0.1c0.032-0.004,0.063-0.009,0.096-0.012
	c0.186,0.021,0.342-0.134,0.404-0.296V11.54c-0.086-0.015-0.173-0.047-0.259-0.021c-0.193,0.023,0.042-0.127,0.059-0.208
	l0.009-0.017c0.043-0.016,0.044-0.078-0.006-0.082c-0.015-0.029-0.032-0.058-0.05-0.085c-0.05-0.059-0.11-0.109-0.178-0.147
	c-0.036-0.032-0.067-0.017-0.084,0.024c-0.057,0.006-0.114,0.009-0.171,0.006c-0.092-0.042-0.182,0.065-0.254,0.113
	c-0.01-0.04-0.021-0.08-0.035-0.119c-0.002-0.008-0.004-0.016-0.008-0.023c-0.009-0.046-0.057-0.053-0.094-0.063
	c-0.013,0.008-0.04,0.022-0.053,0.03c-0.006-0.014-0.02-0.042-0.026-0.056c-0.041-0.053-0.115,0.002-0.149,0.04
	c-0.021-0.043-0.058-0.059-0.104-0.05c-0.006-0.009-0.017-0.026-0.022-0.035l-0.007-0.018c-0.001-0.04-0.023-0.086-0.069-0.084
	c-0.084-0.02-0.17-0.021-0.253-0.046c0.045-0.123,0.102-0.243,0.133-0.371l0.005-0.02c0.107-0.266,0.072-0.578,0.22-0.825
	c0.118-0.009,0.138-0.129,0.149-0.224c0.022-0.02,0.03-0.046,0.025-0.075c0.008-0.026,0.015-0.052,0.022-0.077
	c0.02-0.049,0.037-0.099,0.051-0.149c0.029-0.061,0.049-0.128,0.05-0.196c0.014-0.056,0.014-0.111,0.001-0.165
	c-0.008-0.026-0.016-0.052-0.026-0.078c-0.009-0.025-0.017-0.049-0.026-0.074c-0.004-0.013-0.011-0.04-0.015-0.053
	c-0.101-0.08-0.201,0.044-0.246,0.128c-0.07,0.113-0.11,0.24-0.167,0.358c0.002-0.066,0.002-0.132,0.002-0.198
	c0.003-0.114-0.045-0.225-0.119-0.311c-0.086-0.062-0.151,0.034-0.191,0.1c-0.01,0.001-0.03,0.003-0.04,0.003
	c-0.009-0.091-0.012-0.182-0.023-0.273c-0.006-0.038-0.017-0.115-0.023-0.153c0-0.017,0.001-0.053,0.001-0.07
	c-0.04-0.038,0.076-0.311-0.037-0.241c-0.012-0.024-0.025-0.048-0.039-0.072C20.9,7.574,20.818,7.666,20.803,7.72
	c-0.019,0.026-0.038,0.051-0.056,0.077C20.705,7.84,20.704,7.9,20.705,7.956c-0.011,0.08-0.02,0.159-0.034,0.239
	c-0.004,0.014-0.013,0.044-0.017,0.058c-0.033,0.11-0.039,0.225-0.053,0.338c-0.026,0.017-0.052,0.034-0.077,0.052
	c-0.006,0.014-0.018,0.041-0.024,0.054c-0.01,0.026-0.02,0.052-0.03,0.078c-0.024,0.028-0.037,0.069-0.014,0.102
	c-0.011-0.002-0.034-0.006-0.045-0.008c-0.018-0.248-0.122-0.506-0.331-0.653c-0.05-0.028-0.128-0.065-0.162,0.004
	c-0.038,0.031-0.043,0.082-0.042,0.128c-0.019,0.134-0.038,0.269-0.006,0.403l0.003,0.022c0.01,0.087,0.033,0.171,0.061,0.253
	c0.002,0.01,0.006,0.028,0.009,0.038c0.009,0.038,0.018,0.076,0.029,0.114c-0.007,0.035,0.015,0.068,0.05,0.074
	c0.009,0.012,0.026,0.035,0.035,0.047c0.151,0.052,0.121,0.231,0.147,0.358c-0.018,0.036-0.016,0.079,0.004,0.114
	c0.042,0.325,0.136,0.638,0.22,0.954l-0.001,0.02c-0.023-0.01-0.047-0.02-0.071-0.028c-0.027-0.017-0.056-0.008-0.083,0.005
	c-0.094,0.035-0.075,0.157-0.115,0.233c-0.052,0.024-0.067,0.074-0.032,0.12c0.053,0.129,0.203,0.124,0.32,0.136
	c0.016,0.003,0.049,0.008,0.064,0.01l0.001,0.023c-0.001,0.128-0.007,0.257-0.004,0.385l-0.003,0.023
	c-0.021,0.042-0.012,0.091,0.018,0.125c0.002,0.112,0.002,0.226,0.009,0.339c0,0.113,0.003,0.227,0.001,0.341
	c-0.006,0.109-0.01,0.22-0.015,0.33c-0.003,0.027-0.006,0.055-0.008,0.083c-0.046,0.043-0.026,0.106,0,0.154
	c-0.012,0.05-0.023,0.101-0.029,0.153c-0.013,0.102-0.022,0.205-0.028,0.308c-0.042,0.014-0.038,0.062-0.022,0.094
	c-0.008,0.028-0.014,0.056-0.017,0.085c-0.003,0.028-0.005,0.056-0.007,0.084c-0.014,0.057-0.027,0.115-0.035,0.173
	c-0.014,0.067-0.026,0.136-0.044,0.202c-0.006,0.006-0.02,0.019-0.026,0.025c-0.054-0.089-0.104-0.181-0.151-0.274
	c-0.056-0.151-0.093-0.309-0.104-0.47c0.019-0.034,0.017-0.08-0.02-0.101c0-0.185-0.026-0.369-0.016-0.554
	c0.067-0.012,0.127-0.048,0.172-0.1c0.023-0.021,0.03-0.046,0.021-0.078c0.036-0.019,0.043-0.064,0.02-0.096
	c-0.001-0.129,0.019-0.262-0.021-0.387c-0.014-0.115-0.025-0.234-0.072-0.342c-0.01-0.01-0.029-0.03-0.038-0.04l-0.016-0.01
	c-0.007-0.006-0.02-0.018-0.028-0.024c-0.038-0.035-0.077-0.069-0.119-0.098c-0.02-0.023-0.04-0.022-0.058,0.002
	c-0.037,0.021-0.065,0.055-0.064,0.099l-0.008,0.019c-0.02,0.044-0.04,0.088-0.052,0.135c-0.017,0.07-0.027,0.141-0.034,0.214
	c0.004,0.135,0.01,0.271,0.014,0.406c-0.02,0.035-0.011,0.078,0.017,0.106c0.002,0.011,0.007,0.031,0.009,0.042
	c0.005,0.068,0.041,0.128,0.116,0.127c0.005,0.009,0.014,0.027,0.018,0.036c0.003,0.016,0.01,0.049,0.013,0.064
	c0.006,0.133,0.016,0.266,0.027,0.399c-0.027,0.066-0.021,0.126,0.015,0.179c0.012,0.177,0.031,0.36,0.102,0.525
	c0.065,0.142,0.164,0.269,0.208,0.421c-0.006,0.014-0.017,0.042-0.023,0.057c-0.005,0.014-0.016,0.043-0.021,0.058
	c-0.011,0.067-0.02,0.137-0.03,0.204c-0.027,0.082-0.049,0.165-0.06,0.251c-0.033,0.108-0.066,0.217-0.09,0.328
	c-0.05,0.131-0.085,0.266-0.106,0.405l-0.004,0.021c-0.024,0.085-0.045,0.171-0.07,0.256c-0.031,0.032-0.059,0.07-0.064,0.116
	c-0.01,0.043-0.02,0.086-0.031,0.129c-0.017,0.028-0.039,0.055-0.04,0.09c-0.002,0.015-0.005,0.044-0.006,0.059
	c-0.029,0.089-0.059,0.178-0.087,0.267c-0.003,0.009-0.008,0.027-0.011,0.035c-0.038,0.107-0.075,0.214-0.113,0.322
	c-0.017,0.037-0.024,0.077-0.024,0.117c-0.148,0.455-0.294,0.912-0.404,1.377c-0.009,0.042-0.014,0.084-0.018,0.127
	c-0.138,0.286-0.232,0.596-0.326,0.9c-0.035,0.05-0.065,0.103-0.076,0.164c-0.024,0.017-0.046,0.039-0.05,0.07
	c-0.016,0.055-0.033,0.109-0.052,0.163c-0.045,0.051-0.066,0.116-0.067,0.184c-0.03,0.009-0.066,0.027-0.066,0.064
	c-0.003,0.014-0.009,0.041-0.011,0.055c-0.034,0.074-0.061,0.151-0.075,0.232c-0.073,0.14-0.116,0.294-0.153,0.447
	c-0.009,0.032-0.017,0.064-0.025,0.097c-0.057,0.073-0.069,0.164-0.071,0.254c-0.114,0.16-0.146,0.364-0.197,0.55
	c-0.032,0.03-0.039,0.075-0.03,0.117c-0.023,0.035-0.037,0.074-0.045,0.115c-0.023,0.032-0.036,0.071-0.029,0.111
	c-0.014,0.036-0.029,0.071-0.044,0.107c-0.03,0.061-0.058,0.124-0.078,0.19c-0.109-0.163-0.246,0.243-0.277,0.343
	c-0.017-0.023-0.034-0.044-0.053-0.064c0.011-0.159-0.029-0.313-0.059-0.467c0.002-0.067,0.005-0.134,0.008-0.2
	c0.005-0.041,0.006-0.081,0.003-0.121c0.002-0.082,0.004-0.16-0.018-0.238c-0.004-0.065-0.007-0.129-0.011-0.193
	c-0.004-0.038-0.013-0.115-0.017-0.154c-0.003-0.011-0.008-0.033-0.011-0.045c0.014-0.048,0.023-0.099,0.004-0.147
	c0-0.111,0-0.222,0-0.332c0.019-0.049,0.009-0.101-0.007-0.148c0.013-0.079,0.027-0.154,0.04-0.232
	c0.006-0.03,0.003-0.059-0.007-0.088c0.003-0.055,0.01-0.112,0.056-0.148c0.092-0.064,0.011-0.172-0.004-0.255
	c0.117-0.147,0.341-0.173,0.433-0.348c0.118-0.152-0.071-0.171-0.166-0.082c-0.039-0.011,0.001-0.061-0.004-0.088
	c0.062-0.106-0.093-0.229-0.139-0.088c-0.01,0.009-0.031,0.027-0.041,0.037c-0.052,0.07-0.076-0.005-0.071-0.059
	c0.01-0.046,0.016-0.093,0.021-0.14c0.005-0.041,0.014-0.122,0.018-0.163c-0.001-0.067-0.003-0.133-0.003-0.198
	c0.006-0.041,0.003-0.083,0-0.124c0.002-0.09,0.003-0.178,0.007-0.268c0.038-0.063,0.042-0.124,0.014-0.183
	c0.004-0.039,0.009-0.078,0.013-0.117c0.037-0.063,0.041-0.123,0.012-0.18l0.006-0.022c0.027-0.028,0.043-0.07,0.02-0.106
	c-0.001-0.067-0.001-0.133,0-0.199c0.001-0.043,0.003-0.128,0.004-0.171c0.045-0.03,0.038-0.086,0.02-0.128
	c0.008-0.041,0.011-0.083,0.006-0.124c0.001-0.017,0.002-0.052,0.003-0.07c0.03-0.025,0.036-0.068,0.017-0.102
	c-0.032-0.141,0.117-0.188,0.146-0.304c0.062-0.042,0.169-0.074,0.159-0.166c-0.1,0.001-0.142,0.108-0.197,0.175l-0.018,0.006
	c-0.006-0.28,0.176-0.568,0.227-0.854c0.135-0.476,0.143-0.976,0.26-1.455c0.007-0.085,0.194-0.116,0.075-0.186
	c0.003-0.009,0.009-0.027,0.012-0.036c0.019-0.06,0.034-0.122,0.043-0.184c0.001-0.016,0.003-0.049,0.004-0.065
	c0.029-0.025,0.039-0.065,0.023-0.1c0.008-0.061,0.015-0.121,0.023-0.181c0.039-0.02,0.041-0.068,0.019-0.101
	c0.007-0.032,0.009-0.065,0.005-0.098c0-0.041,0-0.082,0-0.122c0.038-0.022,0.04-0.07,0.016-0.103c0.02-0.047,0.023-0.1,0.001-0.146
	c0.012-0.087,0.023-0.173,0.015-0.26c0.029-0.034,0.034-0.081,0.014-0.122c0.001-0.081,0.003-0.161,0.005-0.241
	c0.031-0.036,0.038-0.084,0.02-0.128c0.002-0.016,0.006-0.048,0.008-0.064c0.078-0.32,0.146-0.644,0.191-0.97
	c0.004-0.015,0.012-0.047,0.015-0.063c0.012-0.052,0.025-0.103,0.04-0.154c0.2-0.214-0.156-0.328-0.096-0.001
	c-0.052,0.128-0.096,0.26-0.131,0.394c-0.03,0.063-0.044,0.131-0.056,0.199c-0.012,0.038-0.029,0.073-0.042,0.111
	c-0.018,0.056-0.019,0.115-0.024,0.173l-0.003,0.021c-0.06,0.163-0.101,0.333-0.12,0.505c-0.001,0.018-0.003,0.053-0.004,0.071
	c-0.037,0.023-0.04,0.069-0.023,0.105c-0.006,0.032-0.007,0.064-0.004,0.097l-0.003,0.023c-0.051,0.071-0.049,0.121,0.005,0.149
	c-0.013,0.119-0.013,0.238,0.001,0.357c-0.042,0.015-0.04,0.064-0.022,0.096c-0.006,0.049-0.009,0.099-0.005,0.149
	c0,0.031,0,0.062,0.002,0.094c0.001,0.032,0.003,0.065,0.006,0.098l-0.003,0.024c-0.01,0.072-0.018,0.143-0.025,0.216
	c-0.002,0.017-0.004,0.052-0.006,0.069c-0.031,0.023-0.036,0.065-0.02,0.099c-0.002,0.01-0.007,0.03-0.009,0.041
	c-0.128,0.017-0.178,0.076-0.046,0.143c-0.018,0.191-0.075,0.375-0.106,0.564c-0.009,0.05-0.017,0.101-0.023,0.152
	c-0.007,0.057-0.012,0.115-0.017,0.173c-0.008,0.075-0.022,0.148-0.033,0.223c-0.011,0.027-0.016,0.055-0.016,0.084
	c-0.013,0.108-0.059,0.208-0.079,0.315c-0.051,0.182-0.11,0.362-0.148,0.548c-0.009-0.006-0.026-0.018-0.035-0.025
	c0.003-0.041,0.008-0.124,0.01-0.165c0.04-0.033,0.04-0.087,0.019-0.129c0.007-0.033,0.01-0.066,0.007-0.099
	c0-0.091,0.001-0.18,0.001-0.271c0.005-0.039,0.014-0.118,0.019-0.157c0.003-0.073,0.006-0.143,0.009-0.215
	c0.021-0.191,0.028-0.384,0.02-0.576c-0.003-0.072,0.002-0.143-0.017-0.212c-0.001-0.012-0.004-0.035-0.005-0.048
	c0.002-0.032-0.001-0.064-0.009-0.096c0.007-0.04,0.013-0.08,0.007-0.12c0-0.082,0.001-0.162-0.015-0.242
	c-0.004-0.04-0.012-0.121-0.016-0.162c0.062-0.04,0.122-0.082,0.181-0.127c0.167-0.094,0.039-0.173-0.05-0.027
	c-0.04,0.021-0.077,0.046-0.113,0.074l-0.017-0.011c-0.006-0.035-0.018-0.104-0.024-0.138c0.008-0.046,0.018-0.092,0.028-0.138
	c0.041-0.061,0.16-0.118,0.161-0.171c-0.073-0.119-0.186,0.113-0.209-0.019c-0.01-0.245-0.075-0.483-0.131-0.721
	c0.023-0.028,0.018-0.068-0.011-0.088c0-0.072-0.023-0.142-0.018-0.214c0.106-0.088,0.201-0.189,0.288-0.296
	c0.18-0.194,0.362-0.389,0.495-0.619c0.042-0.064,0.076-0.134,0.107-0.204c0.006-0.014,0.019-0.042,0.025-0.056
	c0.031-0.019,0.037-0.058,0.016-0.086c0.078-0.103,0.116-0.229,0.132-0.356c0.011-0.081,0.022-0.162,0.025-0.244
	c0.084,0.005-0.027-0.152-0.005-0.233c0.054-0.065,0.055-0.115,0.003-0.148V9.975c0.024-0.031,0.04-0.071,0.023-0.109
	c-0.002-0.084-0.005-0.165-0.005-0.248c0.036-0.213,0.085-0.424,0.083-0.642c0.03-0.036,0.038-0.086,0.02-0.13
	c0.001-0.115,0.006-0.23,0.003-0.345c-0.001-0.032-0.003-0.064-0.005-0.096c-0.001-0.089-0.002-0.176,0.001-0.264
	c0.003-0.032,0.006-0.064,0.009-0.095c0.003-0.037,0.007-0.074,0.008-0.112c0.117-0.166-0.118-0.259-0.116-0.081l-0.003,0.021
	c-0.026,0.026-0.042,0.067-0.02,0.101c0.001,0.106,0.003,0.213,0.005,0.319c-0.001,0.017,0,0.06,0.002,0.106
	c-0.004,0.183-0.051,0.361-0.092,0.539c-0.035,0.212-0.083,0.423-0.111,0.636c-0.033,0.267-0.018,0.538-0.003,0.806
	c0,0.012,0.001,0.034,0.001,0.046c-0.001,0.039-0.003,0.078-0.005,0.118c-0.029,0.039-0.036,0.09-0.019,0.136
	c-0.001,0.069,0,0.14-0.003,0.21c-0.125,0.083-0.076,0.232-0.118,0.355c-0.066,0.089-0.134,0.176-0.183,0.276
	c-0.045,0.038-0.087,0.08-0.125,0.125c-0.017,0.017-0.034,0.034-0.05,0.052c-0.082,0.075-0.155,0.159-0.221,0.249
	c-0.016,0.02-0.032,0.039-0.047,0.059c-0.052,0.044-0.106,0.087-0.159,0.132c-0.112-0.213-0.078-0.467-0.001-0.686
	c-0.003-0.057-0.092-0.113-0.121-0.052c-0.019,0.176-0.071,0.084-0.105-0.036c-0.011-0.311-0.048-0.622-0.094-0.93
	c0.032-0.041,0.059-0.086,0.078-0.134c0.026-0.005,0.045-0.019,0.057-0.043c0.015-0.024,0.03-0.048,0.044-0.072
	c0.248-0.353,0.439-0.765,0.424-1.206c0.006-0.079,0.015-0.156,0.017-0.235c-0.113-0.106,0.212-0.443-0.027-0.371
	C17.542,8.36,17.53,8.333,17.523,8.32c-0.004-0.065-0.005-0.13-0.009-0.195c-0.04-0.421-0.119-0.836-0.212-1.248
	c0.014-0.03,0.023-0.061,0.027-0.093c0.124-0.137,0.237-0.287,0.331-0.446c0.005-0.012,0.015-0.037,0.02-0.049
	c0.05-0.097,0.106-0.192,0.148-0.293c0.025-0.027,0.052-0.053,0.077-0.08c0.021,0.015,0.045,0.027,0.07,0.035
	c0.024,0.01,0.048,0.02,0.072,0.029c0.113-0.026,0.19-0.123,0.267-0.204c0.104-0.157,0.238-0.312,0.272-0.502
	c0.015-0.103-0.08-0.111-0.136-0.046c-0.039-0.047,0.028-0.091,0.051-0.13c0.199-0.066,0.332-0.28,0.355-0.48
	c0.03-0.019,0.037-0.058,0.018-0.088l0.006-0.02c0.134-0.264,0.108-0.598,0.075-0.881c0.008-0.038-0.008-0.056-0.046-0.054
	c-0.007-0.008-0.021-0.023-0.028-0.03c-0.034-0.036-0.082-0.096-0.13-0.045c-0.026,0.015-0.051,0.032-0.074,0.052
	c-0.018,0.018-0.035,0.036-0.052,0.055c-0.01-0.002-0.029-0.006-0.039-0.008c-0.035-0.041-0.079-0.071-0.134-0.078
	c-0.015-0.004-0.046-0.012-0.061-0.015c-0.001-0.053-0.065-0.055-0.084-0.012L18.285,3.5c-0.136,0.035-0.172,0.161-0.155,0.286
	c-0.014,0.006-0.043,0.018-0.057,0.024c-0.013,0.008-0.038,0.024-0.051,0.032c-0.244,0.061-0.153,0.389-0.173,0.576
	c0.005,0.111,0.023,0.221,0.06,0.325c-0.099,0.019-0.143,0.109-0.167,0.197c-0.052,0.076-0.09,0.161-0.083,0.255
	c-0.02,0.147-0.087,0.285-0.085,0.436c-0.02,0.108,0.043,0.222,0.164,0.187c-0.142,0.277-0.258,0.674-0.516,0.805
	c0.03-0.091-0.059-0.269-0.099-0.112c-0.016,0.049-0.024,0.105,0.007,0.15c0.011,0.01,0.032,0.031,0.042,0.042
	c-0.002,0.036-0.006,0.109-0.009,0.145c-0.022,0.033-0.044,0.067-0.066,0.101C16.98,7.165,16.945,7.414,16.83,7.63
	c-0.008-0.053-0.017-0.106-0.027-0.159c0.002-0.032-0.001-0.064-0.008-0.095c0.02-0.042,0.022-0.096-0.019-0.127
	c-0.002-0.042-0.004-0.126-0.006-0.168c0-0.066,0-0.131,0.001-0.197c0.042-0.164,0.117-0.317,0.165-0.479
	c0.03-0.109,0.053-0.219,0.07-0.33c0.029-0.025,0.034-0.068,0.016-0.101l0.001-0.022c0.033-0.02,0.046-0.061,0.031-0.096
	c0.009-0.035,0.017-0.071,0.026-0.106c0.03-0.035,0.036-0.084,0.016-0.125l0.007-0.021c0.004-0.038,0.012-0.113,0.016-0.151
	c0.031-0.132,0.051-0.267,0.06-0.402c0.029-0.035,0.036-0.083,0.017-0.125c0.025-0.25,0.054-0.5,0.054-0.751
	c0.037-0.02,0.035-0.066,0.015-0.098c0.014-0.032,0.027-0.065,0.036-0.099c0.05-0.013,0.105-0.023,0.132-0.073
	c0.075-0.093,0.121-0.205,0.148-0.32c0.009-0.034,0.016-0.068,0.023-0.102c0.023-0.051,0.052-0.101,0.061-0.158
	c0.008-0.075,0.023-0.155-0.006-0.228c-0.014-0.006-0.042-0.017-0.056-0.022c-0.031,0.013-0.056,0.036-0.081,0.058
	c-0.028-0.049-0.083-0.031-0.099,0.016c-0.008-0.012-0.025-0.034-0.033-0.046c0.028-0.051,0.037-0.135,0.106-0.145
	c0.04,0.011,0.081,0.024,0.122,0.012c0.034-0.006,0.068-0.012,0.102-0.022c0.451-0.101,0.551-0.578,0.44-0.977
	c-0.028-0.06-0.134-0.094-0.182-0.054c-0.029,0.045-0.054,0.091-0.079,0.138c-0.041-0.002-0.075,0.014-0.098,0.047
	c-0.031-0.054-0.088-0.011-0.082,0.039c-0.027,0.069-0.032,0.143-0.039,0.217c-0.044,0.008-0.063,0.05-0.062,0.091
	c-0.028-0.004-0.057-0.005-0.085-0.003c0-0.016-0.001-0.048-0.001-0.064c0.171-0.183,0.219-0.541-0.027-0.689
	c-0.029-0.076-0.074-0.149-0.157-0.174c-0.009-0.005-0.029-0.014-0.039-0.019h-0.022h-0.1l-0.003,0.023
	c-0.015,0.006-0.046,0.016-0.062,0.021c-0.035-0.007-0.071,0.014-0.07,0.052c-0.007,0.007-0.022,0.021-0.029,0.029
	c-0.036-0.014-0.071,0.014-0.067,0.052c-0.101,0.171-0.047,0.364-0.035,0.55c0.001,0.053,0.007,0.123-0.065,0.124
	c-0.007-0.007-0.021-0.021-0.028-0.028C16.82,2.288,16.784,2.266,16.75,2.28c-0.033-0.027-0.067-0.053-0.098-0.083
	c-0.036-0.129-0.124-0.258-0.267-0.276c-0.069-0.016-0.141-0.021-0.21-0.003c-0.03,0.01-0.063,0.02-0.081,0.048
	c-0.019,0.087-0.035,0.174-0.048,0.262L16.044,2.25c0.006,0.059-0.001,0.14,0.074,0.152c0.045,0.058,0.115,0.079,0.183,0.098
	c0.065,0.068,0.149,0.119,0.245,0.124c0.008,0.013,0.023,0.038,0.031,0.051c-0.065,0.071-0.058,0.166,0.012,0.231
	c0.03,0.049,0.07,0.094,0.132,0.098c0.025,0.006,0.051,0.012,0.076,0.019c-0.008,0.047-0.011,0.095-0.004,0.142
	c0.007,0.096,0.02,0.191,0.041,0.284c0.008,0.067,0.017,0.133,0.025,0.2c0.002,0.028,0.005,0.056,0.009,0.084
	c0.005,0.049,0.001,0.12,0.058,0.14C16.95,3.884,16.975,3.895,17,3.904c0.035,0.009,0.07,0.013,0.105,0.018
	c0.01,0.052,0.02,0.104,0.029,0.156c-0.022,0.046-0.019,0.098,0,0.144c-0.013,0.386-0.055,0.769-0.112,1.151
	c-0.03,0.025-0.036,0.067-0.018,0.101c-0.036,0.329-0.121,0.649-0.208,0.967c-0.032,0.083-0.074,0.163-0.132,0.232
	c-0.009,0.001-0.028,0.002-0.037,0.003c-0.061-0.151-0.102-0.307-0.143-0.464c-0.003-0.035-0.006-0.07-0.008-0.105
	c0.021-0.157,0.106-0.294,0.179-0.432c0.052-0.101,0.086-0.21,0.129-0.315c0.007-0.012,0.02-0.036,0.027-0.048
	c0.046-0.057,0.102-0.109,0.128-0.18c0.008-0.035,0.013-0.069,0.018-0.104c0.027-0.028,0.035-0.07,0.018-0.105
	c-0.004-0.084,0.001-0.169-0.019-0.251c-0.027-0.07-0.104-0.039-0.155-0.02c-0.036-0.109,0.069-0.354-0.131-0.327
	c-0.011,0-0.032,0.001-0.042,0.001l-0.004-0.02c0.057-0.145,0.1-0.293,0.073-0.452c-0.012-0.139-0.065-0.275-0.151-0.385
	c-0.027-0.038-0.059-0.072-0.094-0.103c-0.067-0.063-0.284,0.07-0.249,0.175c0.003,0.01,0.011,0.029,0.014,0.038
	c0.023,0.127,0.038,0.257,0.079,0.38c0.002,0.052,0.034,0.094,0.077,0.121c0.017,0.018,0.034,0.036,0.052,0.054
	c0.017,0.017,0.036,0.032,0.058,0.044c0.011,0.009,0.032,0.026,0.043,0.034c0.009,0.097-0.107,0.097-0.161,0.152
	c-0.011,0.009-0.034,0.027-0.045,0.037c-0.033,0.009-0.057,0.044-0.039,0.078c-0.087,0.021-0.067-0.062-0.054-0.128
	c0.164-0.183-0.129-0.479-0.332-0.399l-0.02-0.006c0.003-0.01,0.009-0.029,0.012-0.039c0.007-0.027,0.013-0.055,0.017-0.082
	c0.002-0.038,0.002-0.075,0-0.112c-0.009-0.175-0.061-0.344-0.102-0.514C15.77,3.112,15.734,3.02,15.66,2.965
	c-0.009-0.005-0.025-0.014-0.034-0.019c-0.133-0.056-0.307-0.003-0.311,0.158c0.001,0.031,0.005,0.092,0.006,0.123
	c0.009,0.102,0.022,0.205,0.051,0.304c0.008,0.035,0.016,0.07,0.023,0.104c0.002,0.01,0.005,0.031,0.007,0.041
	c-0.019,0.032-0.011,0.072,0.019,0.094c0.021,0.183,0.165,0.257,0.288,0.356c-0.032,0.033-0.064,0.066-0.096,0.1
	c-0.01,0-0.029,0-0.039-0.001c-0.023-0.088-0.072-0.179-0.173-0.186c-0.073,0.023-0.134,0.071-0.2,0.108
	c-0.007,0.015-0.02,0.044-0.027,0.058l-0.023,0.006v0.101l0.022,0.009c0.004,0.065,0.007,0.135,0.053,0.186
	c0.046,0.053,0.099,0.1,0.149,0.149c0.029,0.043,0.076,0.07,0.128,0.065c0.027,0.038,0.072,0.06,0.118,0.05
	c-0.002,0.029,0.007,0.053,0.028,0.073l-0.001,0.022c-0.023,0.151-0.028,0.305-0.022,0.457c0.001,0.042,0.002,0.125,0.003,0.167
	c-0.011,0.137,0.051,0.264,0.22,0.209c-0.013,0.042,0.013,0.083,0.053,0.097c0.101,0.43,0.278,0.859,0.547,1.212
	c0.164,0.248,0.181,0.551,0.233,0.836c0.005,0.028,0.012,0.056,0.019,0.083c0.001,0.106,0.002,0.212,0.003,0.318
	c-0.021,0.044-0.006,0.093,0.02,0.131c0.001,0.031,0.003,0.062,0.004,0.094c-0.001,0.032,0,0.064,0.003,0.097
	c-0.002,0.067-0.003,0.134-0.004,0.201c-0.001,0.068-0.001,0.136-0.001,0.205c-0.001,0.066-0.001,0.132,0,0.199
	c0.011,0.08-0.025,0.174,0.02,0.248c-0.005,0.141,0.005,0.283,0.006,0.424v0.023c-0.001,0.118-0.002,0.237-0.002,0.356
	c0.002,0.125-0.01,0.255,0.024,0.377c0.007,0.035,0.012,0.071,0.017,0.107c0.011,0.08,0.025,0.16,0.042,0.24
	c0.006,0.073,0.015,0.146,0.023,0.22c0.002,0.016,0.006,0.049,0.007,0.065c0.018,0.114,0.045,0.227,0.067,0.341
	c0.02,0.137,0.049,0.274,0.089,0.408c0.032,0.114,0.066,0.227,0.091,0.343c0.002,0.015,0.007,0.046,0.009,0.061
	c-0.003,0.028-0.001,0.055,0.007,0.082c0.013,0.055,0.026,0.109,0.039,0.164c-0.003,0.031,0.003,0.06,0.016,0.088
	c0.003,0.016,0.008,0.048,0.011,0.064c0.004,0.029,0.008,0.059,0.012,0.089c-0.017,0.035-0.011,0.078,0.02,0.102
	c0.001,0.011,0.004,0.033,0.006,0.045c0.009,0.097,0.019,0.195,0.038,0.291c0.007,0.078,0.022,0.158,0.018,0.238
	c-0.06-0.052-0.123-0.1-0.185-0.15c-0.064-0.092-0.129-0.184-0.193-0.276c-0.075-0.128-0.148-0.257-0.226-0.383
	c-0.041-0.094-0.083-0.187-0.125-0.28c0-0.016,0.001-0.048,0.001-0.064c0.033-0.021,0.036-0.065,0.012-0.095
	c0.02-0.31,0.053-0.619,0.079-0.928c0.019-0.142,0.014-0.286-0.021-0.426c-0.002-0.077-0.002-0.153-0.019-0.228
	c-0.011-0.176-0.028-0.351-0.063-0.524c0.011-0.029,0.015-0.059,0.013-0.089c0.015-0.052-0.001-0.26-0.085-0.199
	c-0.03,0.063-0.064,0.134-0.035,0.205c0.003,0.01,0.009,0.031,0.011,0.041c0.006,0.037,0.017,0.11,0.023,0.146l0.005,0.022
	c-0.025,0.069-0.018,0.129,0.023,0.18l0.008,0.022c-0.021,0.048-0.019,0.101,0.001,0.149c-0.023,0.032-0.023,0.08,0.017,0.099
	c-0.003,0.04-0.009,0.119-0.012,0.159c-0.032,0.136-0.036,0.276-0.044,0.415c-0.031,0.024-0.04,0.066-0.023,0.101
	c-0.002,0.108-0.007,0.217-0.012,0.325c-0.035,0.069,0.025,0.405-0.118,0.248c-0.098-0.186-0.125-0.397-0.171-0.599
	c0.02-0.032,0.014-0.074-0.017-0.097c-0.042-0.191-0.086-0.383-0.109-0.577c0.019-0.035,0.012-0.078-0.018-0.103
	C16.001,10.611,16,10.58,15.998,10.55c0.016-0.037,0.009-0.08-0.02-0.108c-0.001-0.039-0.003-0.078-0.004-0.117
	c0.004-0.041,0.007-0.082,0.001-0.123c0.001-0.068,0.002-0.137,0.002-0.205c0.001-0.108,0-0.216,0-0.324
	c0.017-0.046-0.001-0.093-0.023-0.133c-0.001-0.064-0.002-0.128-0.003-0.191c-0.013-0.265-0.108-0.526-0.062-0.794
	c0.035-0.089-0.037-0.056-0.091-0.036c-0.044,0.003-0.055,0.05-0.056,0.087c-0.015,0.039,0.012,0.072,0.028,0.106
	c0,0.105,0.001,0.21-0.005,0.315c-0.002,0.037-0.007,0.11-0.01,0.146c-0.001,0.11,0.021,0.218,0.027,0.327
	c0,0.012-0.001,0.036-0.002,0.048c-0.005,0.126-0.023,0.257,0.013,0.381l0.006,0.023c-0.001,0.03-0.002,0.089-0.003,0.119
	c0.001,0.012,0.003,0.034,0.004,0.046c0.003,0.138,0.004,0.276,0.015,0.414c0.007,0.038,0.021,0.116,0.028,0.154
	c0.005,0.015,0.014,0.046,0.018,0.062c-0.02,0.029-0.028,0.074,0.011,0.092c0.002,0.033,0.006,0.066,0.011,0.099
	c-0.009,0.034-0.003,0.065,0.017,0.093c-0.006,0.037-0.011,0.075,0.002,0.111c0.021,0.088,0.049,0.175,0.073,0.263
	c0.011,0.084,0.024,0.169,0.046,0.251c0.001,0.028,0.003,0.056,0.008,0.084l0.003,0.02c0.006,0.039,0.012,0.081,0.044,0.109
	c0.113,0.116,0.194,0.26,0.277,0.399c0.002,0.115-0.001,0.231-0.001,0.346c0.003,0.068-0.011,0.142,0.023,0.205
	c-0.027,0.118-0.004,0.238,0.023,0.354c0.004,0.015,0.013,0.045,0.017,0.06c0.033,0.105,0.06,0.212,0.107,0.312l0.007,0.017
	c-0.029,0.021-0.014,0.057,0.013,0.071l0.007,0.017c0.003,0.026,0.014,0.049,0.035,0.066c0.016,0.136,0.063,0.266,0.125,0.388
	c-0.039,0.126-0.077,0.254-0.121,0.379c-0.055,0.137-0.111,0.274-0.159,0.414c-0.022,0.056-0.043,0.112-0.062,0.169
	c-0.031,0.093-0.059,0.186-0.088,0.28c-0.039,0.123-0.068,0.25-0.098,0.376c-0.015,0.055-0.031,0.11-0.041,0.166
	c-0.006,0.036-0.009,0.072-0.011,0.108c0.029,0.137-0.052,0.248-0.073,0.365c0.274,0.131,0.258,0.468,0.412,0.692
	c0.011,0.023,0.024,0.044,0.038,0.065c0.09,0.169,0.145,0.36,0.271,0.508c0.047,0.104,0.104,0.203,0.163,0.3
	c0.04,0.064,0.083,0.126,0.12,0.193c0.035,0.068,0.064,0.138,0.088,0.211c0,0.011,0.001,0.032,0.002,0.042
	c-0.032,0.033-0.037,0.082-0.017,0.123c-0.002,0.095-0.03,0.194-0.004,0.289c0,0.011-0.001,0.032-0.001,0.043
	c-0.035,0.019-0.04,0.062-0.024,0.096c-0.001,0.039-0.002,0.078-0.002,0.117c-0.002,0.065-0.003,0.131-0.005,0.197
	c-0.026,0.04-0.035,0.09-0.021,0.136c0.001,0.017,0.005,0.052,0.006,0.069c0.001,0.029,0.002,0.058,0.001,0.087
	c-0.125,0.027-0.212,0.04-0.19,0.205c-0.03-0.005-0.06-0.009-0.09-0.014c-0.04,0.009-0.119,0.026-0.158,0.035
	c-0.032,0.044-0.041,0.096-0.028,0.156c-0.027,0.125,0.045,0.266,0.16,0.319c0.073,0.04,0.213,0.009,0.212,0.121
	c-0.005,0.048-0.007,0.097-0.01,0.145c-0.016,0.046-0.008,0.096,0.007,0.142c0.007,0.258,0.018,0.515,0.02,0.774
	c0,0.047,0.006,0.095,0.011,0.142c0.004,0.048,0.01,0.096,0.015,0.145c-0.003,0.043-0.011,0.128-0.014,0.17
	c0.003,0.042,0.009,0.127,0.012,0.169c-0.016,0.037-0.01,0.08,0.019,0.109c0.007,0.107,0.012,0.216,0.036,0.321
	c0.004,0.01,0.014,0.03,0.018,0.041c0.003,0.114-0.004,0.231,0.021,0.344c0.01,0.063,0.017,0.131,0.029,0.195
	c0.005,0.025,0.014,0.05,0.026,0.073c-0.004,0.009-0.011,0.025-0.014,0.033c-0.047,0.057-0.093,0.115-0.14,0.172
	c-0.021,0.023-0.042,0.047-0.061,0.072c-0.043,0.045,0.027,0.093,0.07,0.099c0.016,0.046,0.079,0.042,0.095-0.002
	c0.017-0.002,0.051-0.006,0.068-0.007L17.2,23.51c-0.014,0.128-0.009,0.256-0.007,0.385c-0.008,0.026-0.013,0.052-0.014,0.08
	c-0.003,0.067-0.003,0.138-0.003,0.207c-0.007,0.03-0.014,0.06-0.02,0.09c-0.009,0.031-0.012,0.062-0.008,0.095
	c-0.015,0.028-0.022,0.058-0.02,0.09c-0.005,0.044-0.005,0.089-0.003,0.134c-0.014,0.026-0.022,0.053-0.024,0.083
	c-0.006,0.088-0.01,0.179-0.021,0.268c-0.011,0.044-0.022,0.087-0.026,0.132c-0.002,0.03-0.004,0.061-0.005,0.092
	c-0.027,0.028-0.035,0.07-0.018,0.107c-0.002,0.061-0.003,0.124-0.004,0.187c-0.014,0.128-0.031,0.258-0.041,0.388
	c-0.014,0.064-0.029,0.129-0.03,0.196c-0.002,0.04-0.006,0.121-0.008,0.161c-0.006,0.038-0.013,0.077-0.016,0.116
	c-0.007,0.109-0.01,0.22-0.027,0.329c-0.003,0.011-0.009,0.032-0.012,0.042c-0.018,0.031-0.024,0.07-0.007,0.103
	c-0.008,0.029-0.014,0.057-0.02,0.087c-0.004,0.045-0.005,0.091-0.005,0.136c-0.002,0.093-0.032,0.136-0.055,0.022L16.8,27.018
	c0.023-0.033,0.014-0.077-0.017-0.101c-0.001-0.017-0.002-0.051-0.002-0.068c-0.004-0.143,0.014-0.289-0.023-0.428
	c-0.009-0.036-0.023-0.069-0.034-0.104c-0.014-0.043-0.029-0.086-0.043-0.128c0.006-0.035-0.017-0.07-0.054-0.07
	c0.016-0.047-0.005-0.096-0.048-0.119c0.004-0.057-0.015-0.111-0.029-0.165c0-0.064,0.006-0.126-0.016-0.185
	c-0.006-0.016-0.017-0.047-0.023-0.063c-0.005-0.074-0.008-0.144-0.009-0.216c0.001-0.012,0.003-0.037,0.005-0.049
	c-0.002-0.107,0.062-0.224,0.006-0.324c-0.008-0.012-0.025-0.036-0.033-0.048c-0.01-0.031-0.042-0.041-0.07-0.054
	c-0.012-0.097-0.026-0.193-0.038-0.29c0.011-0.032,0.022-0.063,0.034-0.095c0.036-0.052,0.076-0.133-0.001-0.156
	c-0.019-0.044-0.034-0.092-0.051-0.138c0.043-0.032,0.115-0.042,0.158-0.075c0.105-0.07,0.155-0.22,0.108-0.34
	c0.004-0.061-0.014-0.111-0.052-0.149c-0.04-0.003-0.121-0.007-0.162-0.01c-0.029,0.009-0.058,0.018-0.087,0.028
	c-0.004-0.166-0.092-0.166-0.219-0.173c-0.005-0.029-0.009-0.058-0.013-0.087c-0.001-0.017-0.003-0.052-0.005-0.069
	c0.006-0.048-0.01-0.096-0.043-0.131c-0.012-0.065-0.023-0.13-0.035-0.194c-0.006-0.039-0.014-0.077-0.02-0.115
	c0.01-0.036-0.001-0.078-0.039-0.091c-0.002-0.011-0.006-0.032-0.008-0.042c0.011-0.098-0.032-0.191-0.049-0.285
	c0.014-0.044,0.001-0.091-0.036-0.119c-0.001-0.01-0.003-0.031-0.005-0.042c0.013-0.075,0.031-0.149,0.054-0.222
	c0.025-0.072,0.058-0.14,0.088-0.21c0.043-0.105,0.084-0.212,0.115-0.322c0.101-0.166,0.126-0.363,0.188-0.544
	c0.01-0.023,0.019-0.046,0.027-0.071c0.117-0.246,0.048-0.577,0.298-0.748c-0.038-0.112-0.136-0.21-0.129-0.349
	c-0.007-0.035-0.016-0.071-0.028-0.105c-0.019-0.054-0.043-0.106-0.067-0.158c-0.05-0.12-0.098-0.24-0.156-0.356
	c-0.043-0.087-0.086-0.176-0.13-0.263c-0.027-0.053-0.058-0.106-0.088-0.157c-0.069-0.131-0.146-0.257-0.222-0.384
	c-0.062-0.117-0.12-0.237-0.178-0.355c0.042-0.13,0.068-0.265,0.062-0.403c0.017-0.02,0.026-0.044,0.024-0.071l0.004-0.017
	c0.024-0.019,0.034-0.056,0.002-0.072l0.004-0.018c0.031-0.106,0.041-0.217,0.056-0.325c0.002-0.015,0.005-0.046,0.007-0.062
	c0.008-0.119,0.012-0.242-0.033-0.354c0.024-0.067-0.002-0.138-0.009-0.206c-0.018-0.114-0.039-0.228-0.055-0.342
	c0.06-0.15,0.117-0.304,0.211-0.437c0.027-0.032,0.026-0.075,0.026-0.114v-0.02c0-0.028-0.002-0.056-0.005-0.084
	c0.009-0.085,0.008-0.17,0.006-0.255c0.01-0.091,0.024-0.18,0.031-0.271c0.007-0.038-0.004-0.075-0.015-0.11
	c0.016-0.031,0.017-0.063,0.003-0.095c0-0.033-0.001-0.067-0.004-0.1c0.036-0.023,0.021-0.067-0.003-0.092
	c0.002-0.016,0.006-0.048,0.008-0.064c0.001-0.039,0.003-0.118,0.004-0.157c-0.011-0.138-0.032-0.275-0.05-0.411
	c-0.001-0.011-0.003-0.034-0.003-0.046c-0.005-0.029-0.016-0.088-0.022-0.117l0.001-0.023c0.016-0.128-0.022-0.254-0.047-0.378
	c-0.002-0.012-0.007-0.035-0.009-0.047c-0.011-0.109-0.006-0.219-0.024-0.327c-0.008-0.036-0.024-0.107-0.032-0.143
	c-0.022-0.102-0.038-0.207-0.054-0.31c0.01-0.036,0.031-0.073,0.011-0.109c-0.007-0.036-0.025-0.08-0.069-0.077
	c-0.056-0.011-0.133-0.033-0.084,0.049c0.087,0.257,0.034,0.53,0.062,0.794c0.009,0.063,0.018,0.126,0.027,0.189
	c-0.015,0.043-0.025,0.092-0.001,0.135c0.017,0.107,0.033,0.213,0.051,0.32c0.011,0.067,0.022,0.135,0.034,0.202
	c0,0.041,0.01,0.081,0.02,0.121c0.005,0.039,0.009,0.077,0.014,0.116c-0.025,0.032-0.025,0.075-0.003,0.11
	c0.003,0.03,0.007,0.061,0.01,0.092c-0.025,0.03-0.026,0.073-0.002,0.105c0.007,0.196-0.006,0.391-0.017,0.587
	c-0.027,0.027-0.026,0.07-0.001,0.098c-0.014,0.207-0.008,0.42-0.075,0.619c-0.117,0.177-0.11-0.164-0.155-0.227
	c-0.022-0.106-0.044-0.213-0.063-0.319c0.012-0.038-0.004-0.077-0.038-0.096c-0.029-0.136-0.056-0.274-0.108-0.403
	c-0.009-0.039-0.027-0.116-0.036-0.155c0.036-0.025,0.029-0.073,0.001-0.101c0.013-0.05,0.007-0.104-0.022-0.148l0.004-0.023
	c0.032-0.057,0.03-0.118-0.006-0.182l0.001-0.023c0-0.037,0-0.111,0-0.148c0.001-0.011,0.004-0.032,0.005-0.043
	c0.017-0.074-0.027-0.139-0.067-0.197c-0.093-0.046-0.076,0.161-0.053,0.21c0.003,0.03,0.011,0.059,0.027,0.086
	c-0.008,0.176,0.003,0.352,0.019,0.527c-0.005,0.077,0.007,0.152,0.017,0.228c-0.012,0.143,0.005,0.287,0.046,0.424
	c0.074,0.302,0.155,0.602,0.223,0.905c-0.018,0.033-0.009,0.076,0.027,0.092c0.003,0.015,0.009,0.047,0.011,0.062
	c-0.028,0.098-0.055,0.197-0.08,0.296c-0.058,0.136-0.109,0.276-0.164,0.414c-0.049,0.101-0.098,0.202-0.147,0.303
	c-0.053,0.059-0.107,0.116-0.159,0.177c-0.016-0.078-0.014-0.16-0.02-0.238c0.004-0.098-0.003-0.196-0.008-0.294
	c0-0.011-0.001-0.034-0.001-0.045c0.027-0.03,0.026-0.073,0.004-0.104c-0.001-0.03-0.002-0.06-0.003-0.09
	c0-0.016,0.001-0.049,0.001-0.065c0.009-0.03,0.009-0.059,0.002-0.089c0.004-0.056,0.009-0.112,0.013-0.168
	c0.004-0.028,0.002-0.055-0.006-0.082c0-0.015,0-0.046,0-0.062c0.007-0.118,0.023-0.235,0.037-0.353
	c0.018-0.138,0.026-0.278,0.024-0.417c0.004-0.116,0.013-0.232,0.013-0.347c-0.001-0.016-0.002-0.049-0.003-0.065
	c-0.004-0.074-0.006-0.147-0.011-0.221c0.004-0.081,0.005-0.162,0.003-0.243c0-0.036-0.001-0.072,0-0.108
	c0.015-0.126-0.017-0.252-0.035-0.377c-0.019-0.117-0.038-0.235-0.058-0.351l-0.004-0.023c-0.021-0.14-0.033-0.281-0.061-0.42
	c0.033-0.08-0.018-0.168-0.019-0.248c-0.01-0.066-0.02-0.131-0.032-0.196c-0.01-0.068-0.022-0.135-0.033-0.202
	c-0.011-0.066-0.023-0.132-0.035-0.198c-0.003-0.032-0.007-0.064-0.012-0.096c-0.004-0.031-0.007-0.062-0.011-0.093
	c0.02-0.042,0.028-0.092,0-0.133c-0.016-0.105-0.031-0.21-0.047-0.314c0.003-0.028,0.005-0.057,0.006-0.085
	c0.008-0.289-0.023-0.591,0.1-0.862c0.21-0.391,0.318-0.842,0.35-1.283c0.037-0.02,0.057-0.064,0.037-0.104
	c0.175,0.028,0.216-0.107,0.184-0.241c-0.006-0.041-0.018-0.124-0.024-0.165c-0.018-0.152-0.047-0.303-0.093-0.448l-0.005-0.022
	c0.018-0.023,0.023-0.048,0.017-0.076c0.047,0.002,0.088-0.027,0.109-0.068c0.053-0.003,0.095-0.037,0.117-0.084
	c0.041-0.057,0.086-0.111,0.124-0.171c0.038-0.058,0.03-0.128,0.023-0.192l0.021-0.012l-0.016-0.099l-0.023-0.002
	c-0.009-0.013-0.027-0.04-0.036-0.053c-0.071-0.027-0.139-0.065-0.214-0.076c-0.099,0.023-0.133,0.121-0.142,0.211
	c-0.01,0.002-0.029,0.005-0.038,0.007c-0.036-0.028-0.073-0.056-0.11-0.084c0.106-0.118,0.237-0.213,0.228-0.397
	c0.026-0.026,0.028-0.068,0.004-0.096c0-0.01,0-0.032,0-0.042c0.001-0.036,0.004-0.071,0.007-0.107
	c0.013-0.102,0.01-0.206,0.003-0.308c-0.003-0.031-0.01-0.092-0.013-0.123c-0.029-0.158-0.209-0.184-0.332-0.107
	c-0.008,0.006-0.023,0.018-0.03,0.024c-0.065,0.065-0.086,0.162-0.104,0.25c-0.015,0.174-0.039,0.349-0.021,0.523
	c0.004,0.037,0.009,0.074,0.017,0.111c0.008,0.027,0.018,0.053,0.03,0.079c0.005,0.009,0.014,0.027,0.018,0.037l-0.025,0.01
	c-0.213-0.048-0.456,0.291-0.265,0.446c0.023,0.064,0.056,0.143-0.034,0.135c0.013-0.036-0.016-0.067-0.05-0.07
	c-0.013-0.007-0.038-0.022-0.05-0.029c-0.061-0.045-0.176-0.027-0.183-0.125c0.01-0.01,0.028-0.03,0.038-0.04
	c0.019-0.015,0.036-0.032,0.05-0.052c0.015-0.02,0.029-0.041,0.043-0.061c0.038-0.033,0.064-0.079,0.057-0.131
	c0.022-0.128,0.015-0.258,0.019-0.388c0.002-0.01,0.006-0.03,0.008-0.04c0.018-0.109-0.217-0.206-0.274-0.134
	c-0.029,0.036-0.056,0.075-0.077,0.117c-0.068,0.122-0.098,0.264-0.089,0.403c-0.002,0.162,0.064,0.301,0.143,0.435l-0.001,0.02
	c-0.01,0.002-0.031,0.004-0.042,0.006c-0.202,0.005-0.06,0.23-0.079,0.344c-0.053-0.011-0.134-0.029-0.15,0.044
	c-0.007,0.084,0.011,0.167,0.021,0.251c-0.012,0.038,0.003,0.077,0.035,0.1c0.011,0.033,0.021,0.067,0.034,0.1
	c0.036,0.066,0.1,0.108,0.154,0.157c0.009,0.011,0.025,0.032,0.034,0.043c0.059,0.097,0.109,0.2,0.177,0.291
	c0.093,0.125,0.199,0.247,0.244,0.399c0.003,0.035,0.006,0.07,0.009,0.105c-0.016,0.161-0.033,0.323-0.069,0.481
	c-0.009,0-0.028,0.002-0.037,0.003c-0.068-0.059-0.122-0.131-0.167-0.208c-0.136-0.3-0.27-0.603-0.357-0.922
	c0.013-0.036,0-0.077-0.033-0.097c-0.116-0.368-0.218-0.74-0.291-1.119c0.011-0.049,0.006-0.101-0.023-0.143
	c0.001-0.053,0.003-0.106,0.005-0.159c0.034-0.01,0.068-0.02,0.101-0.034c0.023-0.013,0.046-0.027,0.068-0.042
	c0.053-0.028,0.039-0.098,0.036-0.148c-0.001-0.028-0.003-0.056-0.005-0.084c-0.002-0.067-0.004-0.134-0.007-0.201
	c0.007-0.096,0.005-0.191-0.004-0.287c-0.001-0.048-0.011-0.095-0.026-0.14c0.024-0.011,0.048-0.021,0.072-0.031
	c0.06-0.013,0.093-0.064,0.115-0.117c0.059-0.075,0.051-0.17-0.025-0.23c0.006-0.014,0.017-0.042,0.023-0.056
	c0.095-0.02,0.169-0.083,0.223-0.16c0.064-0.029,0.13-0.062,0.165-0.126c0.073-0.024,0.054-0.102,0.05-0.162L14.41,6.244
	c-0.026-0.085-0.056-0.168-0.089-0.251c-0.022-0.025-0.057-0.029-0.088-0.034c-0.071-0.008-0.142,0.009-0.207,0.035
	c-0.138,0.04-0.204,0.181-0.22,0.314c-0.026,0.034-0.055,0.066-0.084,0.098c-0.036-0.009-0.068,0.018-0.07,0.054
	c-0.006,0.008-0.017,0.024-0.023,0.032c-0.072,0.011-0.076-0.059-0.084-0.112c-0.017-0.185,0.007-0.385-0.12-0.538
	c-0.002-0.038-0.041-0.06-0.074-0.04c-0.008-0.006-0.025-0.018-0.034-0.024c-0.005-0.038-0.044-0.053-0.077-0.041
	c-0.016-0.003-0.048-0.009-0.065-0.012l-0.007-0.022l-0.099,0.016L13.05,5.724c-0.009,0.006-0.027,0.019-0.036,0.025
	c-0.078,0.038-0.111,0.117-0.128,0.197c-0.22,0.184-0.117,0.53,0.081,0.685c0.002,0.016,0.007,0.047,0.009,0.063
	c-0.028,0.003-0.056,0.008-0.084,0.017c-0.005-0.04-0.031-0.08-0.075-0.08c-0.018-0.071-0.035-0.144-0.073-0.208
	c-0.002-0.05-0.066-0.084-0.087-0.026c-0.028-0.029-0.064-0.039-0.104-0.031c-0.032-0.042-0.064-0.084-0.099-0.124
	c-0.053-0.032-0.153,0.019-0.171,0.082c-0.048,0.411,0.126,0.867,0.587,0.896c0.034,0.005,0.069,0.006,0.104,0.006
	c0.042,0.005,0.081-0.014,0.119-0.031c0.07-0.001,0.092,0.08,0.128,0.127c-0.009,0.01-0.021,0.036-0.028,0.048
	c-0.023-0.044-0.08-0.054-0.1,0c-0.028-0.018-0.057-0.037-0.09-0.045c-0.013,0.008-0.039,0.023-0.052,0.031
	c-0.017,0.077,0.011,0.153,0.03,0.226c0.017,0.055,0.054,0.099,0.085,0.146c0.012,0.032,0.025,0.065,0.039,0.097
	c0.044,0.11,0.108,0.213,0.196,0.293c0.035,0.044,0.091,0.046,0.142,0.051c0.015,0.032,0.032,0.063,0.051,0.093
	c-0.015,0.034-0.01,0.08,0.03,0.094c0.04,0.248,0.107,0.491,0.171,0.733c-0.012,0.044,0.002,0.09,0.037,0.121
	c0.03,0.132,0.071,0.262,0.122,0.388c0.01,0.036,0.029,0.11,0.039,0.146l0.01,0.02c-0.013,0.044,0,0.091,0.036,0.121
	c0.014,0.034,0.028,0.067,0.042,0.101c-0.008,0.037,0.01,0.076,0.046,0.09l0.005,0.021c-0.013,0.036-0.001,0.077,0.031,0.098
	c0.034,0.107,0.074,0.212,0.121,0.315c0.073,0.152,0.172,0.292,0.238,0.448c0.011,0.064,0.022,0.129,0.032,0.194
	c0.005,0.042,0.015,0.125,0.021,0.167c-0.035,0.037-0.025,0.09,0.001,0.128c-0.003,0.032,0,0.064,0.007,0.095
	c-0.001,0.054-0.002,0.107-0.002,0.161c-0.147-0.195-0.221-0.436-0.372-0.628c-0.027-0.03-0.054-0.059-0.081-0.089
	c-0.008-0.036-0.023-0.107-0.031-0.142c0.009-0.012,0.026-0.036,0.035-0.048c0.023-0.049,0.006-0.104-0.017-0.149
	c-0.064-0.149-0.124,0.041-0.08,0.126c-0.275-0.089-0.452-0.463-0.636-0.715c0.126,0.015,0.17-0.107,0.133-0.211
	c-0.022-0.149-0.11-0.275-0.152-0.417c-0.008-0.094-0.059-0.172-0.122-0.239c-0.037-0.084-0.094-0.165-0.195-0.169
	c0.021-0.109,0.021-0.221,0.008-0.331c-0.049-0.181-0.01-0.519-0.261-0.542c-0.014-0.006-0.042-0.018-0.055-0.024
	c-0.015-0.004-0.045-0.011-0.06-0.015c-0.003-0.126-0.057-0.245-0.197-0.258L12.38,7.846c-0.026-0.039-0.089-0.027-0.081,0.025
	c-0.015,0.006-0.044,0.019-0.058,0.025c-0.053,0.015-0.092,0.052-0.12,0.098c-0.009,0.003-0.027,0.011-0.037,0.014
	c-0.02-0.016-0.04-0.031-0.061-0.046c-0.025-0.016-0.053-0.028-0.081-0.039c-0.055-0.043-0.094,0.024-0.121,0.065
	c-0.006,0.009-0.017,0.026-0.023,0.034c-0.039,0.004-0.051,0.024-0.038,0.06c0.012,0.285,0.039,0.619,0.212,0.859L11.98,8.96
	c-0.015,0.032-0.002,0.07,0.031,0.084c0.054,0.194,0.218,0.385,0.425,0.419c0.029,0.035,0.101,0.068,0.07,0.12
	c-0.066-0.056-0.158-0.033-0.127,0.066c0.064,0.182,0.22,0.315,0.347,0.453c0.088,0.068,0.18,0.152,0.295,0.16
	c0.023-0.013,0.045-0.027,0.067-0.04c0.024-0.012,0.045-0.027,0.064-0.046c0.029,0.022,0.059,0.044,0.088,0.067
	c0.058,0.093,0.128,0.178,0.192,0.266c0.007,0.011,0.02,0.033,0.027,0.045c0.118,0.142,0.253,0.273,0.397,0.389
	c0.009,0.031,0.023,0.061,0.042,0.088c-0.028,0.422-0.041,0.844-0.014,1.266c0.006,0.065,0.016,0.129,0.022,0.194
	c-0.004,0.014-0.012,0.043-0.016,0.057c-0.248-0.033,0.126,0.248,0.031,0.371c0.015,0.077,0.036,0.152,0.054,0.229
	c0.054,0.438,0.307,0.815,0.607,1.125c0.018,0.021,0.036,0.043,0.055,0.064c0.015,0.021,0.036,0.032,0.063,0.033
	c0.026,0.045,0.06,0.085,0.098,0.12c0.003,0.312,0.015,0.624,0.052,0.933c-0.015,0.124-0.052,0.223-0.098,0.052
	c-0.038-0.055-0.117,0.014-0.111,0.071c0.111,0.204,0.184,0.45,0.107,0.678c-0.059-0.036-0.118-0.07-0.177-0.105
	c-0.018-0.017-0.037-0.034-0.056-0.051c-0.079-0.078-0.164-0.15-0.257-0.211c-0.019-0.015-0.038-0.03-0.058-0.044
	c-0.045-0.038-0.093-0.073-0.143-0.103c-0.064-0.091-0.145-0.166-0.224-0.244c-0.06-0.115-0.036-0.27-0.172-0.333
	c-0.014-0.069-0.024-0.139-0.036-0.207c0.01-0.048-0.005-0.097-0.04-0.131c-0.008-0.039-0.016-0.077-0.023-0.116
	c-0.002-0.011-0.005-0.034-0.006-0.045c-0.028-0.267-0.055-0.537-0.129-0.795c-0.061-0.207-0.141-0.407-0.209-0.611
	c-0.068-0.169-0.142-0.337-0.175-0.517c-0.004-0.046-0.011-0.088-0.014-0.105c-0.015-0.105-0.03-0.211-0.045-0.316
	c0.017-0.037-0.006-0.075-0.036-0.097l-0.006-0.02c-0.026-0.176-0.243-0.047-0.102,0.099c0.008,0.037,0.017,0.073,0.026,0.109
	c0.008,0.031,0.016,0.062,0.024,0.093c0.017,0.087,0.03,0.173,0.042,0.261c0.003,0.032,0.006,0.064,0.01,0.096
	c0.015,0.114,0.038,0.226,0.057,0.34c-0.011,0.046,0.004,0.094,0.04,0.125c0.032,0.215,0.114,0.416,0.182,0.621
	c0.013,0.082,0.023,0.163,0.034,0.246c-0.011,0.04,0.011,0.078,0.04,0.104l0.004,0.023c-0.046,0.041-0.038,0.09,0.026,0.146
	c0.035,0.076-0.05,0.249,0.032,0.231c0.016,0.081,0.039,0.158,0.063,0.237c0.036,0.123,0.093,0.241,0.186,0.331
	c-0.016,0.031-0.004,0.069,0.029,0.082c0.008,0.013,0.025,0.039,0.034,0.052c0.042,0.064,0.086,0.127,0.138,0.184
	c0.167,0.207,0.378,0.371,0.586,0.534c0.103,0.092,0.212,0.177,0.331,0.247c0.016,0.07,0.005,0.143,0.016,0.215
	c-0.026,0.025-0.025,0.065,0.003,0.089c-0.018,0.244-0.045,0.489-0.016,0.733c-0.002,0.134-0.15-0.077-0.203,0.051
	c0.009,0.053,0.136,0.09,0.186,0.144c0.017,0.044,0.034,0.087,0.049,0.132c-0.001,0.035-0.001,0.105-0.002,0.14l-0.015,0.014
	c-0.04-0.022-0.08-0.041-0.123-0.056c-0.111-0.13-0.225-0.032-0.045,0.035c0.065,0.035,0.131,0.068,0.199,0.097
	c0.002,0.041,0.007,0.122,0.01,0.162c-0.003,0.081,0.01,0.16,0.023,0.241c0,0.04,0.013,0.079,0.026,0.118
	c-0.003,0.032,0,0.064,0.006,0.096c0.001,0.012,0.002,0.036,0.002,0.048c-0.008,0.072,0.008,0.141,0.017,0.212
	c0.022,0.191,0.059,0.38,0.109,0.566c0.014,0.071,0.028,0.14,0.042,0.211c0.011,0.038,0.032,0.114,0.043,0.152
	c0.015,0.09,0.029,0.178,0.044,0.268c0.003,0.033,0.01,0.065,0.022,0.096c-0.014,0.046-0.005,0.099,0.039,0.125
	c0.009,0.04,0.027,0.121,0.036,0.162c-0.008,0.008-0.023,0.022-0.03,0.03c-0.066-0.178-0.153-0.346-0.232-0.518
	c-0.036-0.102-0.098-0.194-0.128-0.299c-0.005-0.029-0.014-0.056-0.029-0.081c-0.023-0.073-0.048-0.142-0.068-0.215
	c-0.015-0.056-0.028-0.113-0.044-0.168c-0.014-0.049-0.03-0.098-0.046-0.146c-0.06-0.182-0.145-0.355-0.193-0.54
	c0.121-0.087,0.062-0.138-0.068-0.135c-0.004-0.01-0.012-0.029-0.015-0.039c0.011-0.036,0-0.076-0.035-0.094
	c-0.004-0.017-0.012-0.051-0.017-0.067c-0.018-0.071-0.037-0.14-0.058-0.209l-0.007-0.023c-0.003-0.033-0.006-0.065-0.01-0.098
	c-0.003-0.031-0.008-0.062-0.013-0.093c-0.004-0.05-0.014-0.098-0.028-0.146c0.013-0.035,0.007-0.084-0.037-0.091
	c-0.005-0.119-0.023-0.238-0.055-0.353c0.049-0.037,0.043-0.086-0.018-0.148l-0.007-0.023c-0.002-0.033-0.008-0.064-0.019-0.095
	c0.012-0.038,0.001-0.083-0.039-0.1c-0.003-0.017-0.011-0.052-0.015-0.069c-0.046-0.167-0.113-0.329-0.198-0.48l-0.007-0.02
	c-0.014-0.056-0.024-0.115-0.051-0.167c-0.018-0.035-0.041-0.068-0.059-0.103c-0.023-0.065-0.048-0.13-0.087-0.188
	c-0.057-0.127-0.12-0.25-0.191-0.369c0.007-0.332-0.326-0.163-0.095,0.016c0.023,0.048,0.044,0.096,0.064,0.146
	c0.006,0.015,0.019,0.045,0.025,0.06c0.096,0.316,0.213,0.624,0.341,0.928c0.005,0.016,0.014,0.047,0.018,0.062
	c-0.011,0.045,0.004,0.092,0.04,0.123c0.014,0.08,0.029,0.158,0.043,0.238c-0.013,0.043-0.001,0.089,0.033,0.118
	c0.006,0.087,0.03,0.171,0.056,0.255c-0.014,0.049-0.003,0.101,0.024,0.144c-0.018,0.036-0.009,0.084,0.032,0.099
	c0.007,0.04,0.013,0.08,0.019,0.121c0.002,0.033,0.009,0.065,0.021,0.096c-0.016,0.036-0.007,0.083,0.034,0.096
	c0.017,0.058,0.034,0.117,0.051,0.176c-0.011,0.037,0.006,0.075,0.038,0.095c0.004,0.016,0.011,0.048,0.015,0.064
	c0.018,0.06,0.042,0.119,0.071,0.175c0.005,0.008,0.013,0.025,0.018,0.034c-0.107,0.088,0.082,0.089,0.103,0.172
	c0.191,0.455,0.277,0.947,0.485,1.396c0.095,0.275,0.319,0.531,0.358,0.808l-0.019-0.003c-0.064-0.058-0.122-0.157-0.222-0.142
	c0.005,0.093,0.115,0.108,0.183,0.14c0.047,0.11,0.201,0.133,0.191,0.278c-0.014,0.036-0.001,0.077,0.032,0.098
	c0.003,0.017,0.01,0.052,0.014,0.069c0.002,0.042,0.012,0.082,0.026,0.122c-0.011,0.045-0.009,0.101,0.039,0.124
	c0.008,0.042,0.023,0.126,0.031,0.168c0.011,0.065,0.021,0.131,0.031,0.197c-0.017,0.039,0.006,0.078,0.037,0.101l0.01,0.02
	c-0.02,0.061-0.007,0.12,0.04,0.176c0.011,0.038,0.021,0.075,0.031,0.113c-0.02,0.063-0.006,0.122,0.042,0.179
	c0.018,0.088,0.033,0.175,0.049,0.264c0.003,0.041,0.007,0.082,0.019,0.122c0.01,0.065,0.019,0.13,0.028,0.197
	c0.011,0.04,0.033,0.119,0.044,0.158c0.013,0.045,0.026,0.09,0.043,0.135c0.014,0.053,0.001,0.131-0.061,0.07
	c-0.011-0.008-0.034-0.023-0.046-0.03c-0.067-0.132-0.201,0.013-0.124,0.108c-0.001,0.028,0.047,0.07,0.01,0.087
	c-0.109-0.073-0.292-0.024-0.152,0.107c0.118,0.158,0.344,0.15,0.482,0.276c-0.002,0.084-0.065,0.203,0.036,0.253
	c0.041,0.023,0.051,0.067,0.063,0.11c-0.035,0.129-0.047,0.286-0.107,0.368c-0.002,0.017-0.007,0.05-0.009,0.067
	c-0.01,0.11-0.018,0.223-0.018,0.334c-0.001,0.067-0.001,0.138,0,0.207c-0.024,0.081-0.059,0.162-0.074,0.245
	c-0.003,0.084-0.001,0.172,0.001,0.257c-0.02,0.031-0.032,0.067-0.028,0.105c-0.031-0.011-0.057-0.004-0.076,0.021
	c-0.01,0.016-0.017,0.034-0.028,0.05c-0.001-0.039-0.011-0.078-0.043-0.1c-0.079-0.177-0.143-0.373-0.281-0.513
	c-0.016-0.088-0.042-0.177-0.11-0.24c-0.013-0.031-0.026-0.062-0.04-0.092c-0.06-0.145-0.126-0.29-0.22-0.417
	c-0.026-0.078-0.065-0.15-0.111-0.217c-0.005-0.013-0.015-0.039-0.02-0.052c-0.006-0.036-0.044-0.049-0.075-0.053
	c-0.012-0.067-0.043-0.128-0.095-0.171c-0.027-0.05-0.053-0.101-0.077-0.153c-0.008-0.031-0.034-0.049-0.06-0.062
	c-0.021-0.058-0.059-0.106-0.101-0.15c-0.14-0.285-0.282-0.576-0.462-0.838c-0.011-0.042-0.023-0.083-0.037-0.123
	c-0.182-0.442-0.398-0.871-0.615-1.297c-0.006-0.04-0.019-0.079-0.042-0.112c-0.054-0.1-0.108-0.2-0.162-0.3
	c-0.004-0.008-0.013-0.025-0.017-0.033c-0.041-0.084-0.085-0.167-0.128-0.251c-0.004-0.014-0.012-0.043-0.016-0.057
	c-0.006-0.034-0.033-0.057-0.053-0.082c-0.018-0.041-0.034-0.082-0.051-0.122c-0.012-0.045-0.046-0.078-0.082-0.105
	c-0.038-0.08-0.073-0.162-0.11-0.242l-0.007-0.02c-0.042-0.133-0.099-0.262-0.168-0.383c-0.041-0.106-0.09-0.209-0.14-0.31
	c-0.024-0.083-0.059-0.162-0.099-0.239c-0.021-0.065-0.041-0.132-0.062-0.197c-0.007-0.014-0.023-0.041-0.03-0.054
	c-0.008-0.013-0.023-0.039-0.031-0.052c0.02-0.157,0.097-0.298,0.14-0.448c0.045-0.174,0.035-0.358,0.019-0.535
	c0.028-0.058,0.024-0.118-0.013-0.179c-0.01-0.133-0.021-0.266-0.036-0.398c0.001-0.016,0.002-0.049,0.003-0.066
	c0.003-0.01,0.01-0.029,0.013-0.039c0.075-0.011,0.1-0.076,0.094-0.144c0.001-0.011,0.002-0.032,0.003-0.042
	c0.023-0.032,0.025-0.076,0-0.108c-0.017-0.134-0.032-0.27-0.049-0.403c-0.018-0.071-0.039-0.139-0.067-0.206
	c-0.019-0.045-0.045-0.085-0.072-0.125l-0.011-0.017c-0.006-0.044-0.039-0.073-0.079-0.088c-0.022-0.022-0.041-0.019-0.058,0.007
	c-0.037,0.036-0.071,0.075-0.103,0.116c-0.006,0.007-0.017,0.021-0.023,0.029l-0.014,0.013c-0.008,0.011-0.023,0.034-0.032,0.046
	c-0.03,0.114-0.021,0.233-0.018,0.349c-0.02,0.13,0.021,0.258,0.04,0.385c-0.018,0.035-0.004,0.079,0.035,0.092
	c-0.004,0.032,0.007,0.056,0.033,0.073c0.052,0.044,0.117,0.07,0.185,0.072c0.039,0.181,0.042,0.367,0.071,0.55
	c-0.033,0.026-0.028,0.072-0.004,0.103c0.015,0.16,0.003,0.322-0.029,0.48c-0.032,0.099-0.067,0.198-0.106,0.294
	c-0.007-0.005-0.023-0.016-0.03-0.021c-0.027-0.063-0.05-0.129-0.075-0.193c-0.017-0.057-0.039-0.112-0.061-0.166
	c-0.006-0.027-0.013-0.055-0.02-0.082c-0.007-0.028-0.017-0.055-0.03-0.081c0.011-0.034,0.007-0.082-0.036-0.089
	c-0.021-0.101-0.046-0.201-0.075-0.3c-0.014-0.05-0.033-0.099-0.052-0.147c0.018-0.051,0.029-0.117-0.023-0.152
	c-0.007-0.027-0.014-0.054-0.021-0.081c-0.022-0.108-0.044-0.216-0.066-0.324c-0.02-0.112-0.034-0.225-0.052-0.337
	c-0.011-0.113-0.029-0.225-0.045-0.336c0.025-0.039,0.026-0.089-0.001-0.127l-0.007-0.023c-0.017-0.128-0.043-0.254-0.064-0.38
	l-0.002-0.022c0.015-0.005,0.047-0.015,0.062-0.02c0.114-0.031,0.263-0.049,0.295-0.185c0.027-0.052,0.004-0.098-0.05-0.114
	c-0.051-0.069-0.051-0.192-0.15-0.212c-0.028-0.009-0.059-0.013-0.083,0.008c-0.022,0.012-0.044,0.025-0.066,0.039l-0.004-0.019
	c0.034-0.324,0.078-0.649,0.068-0.976c0.015-0.038,0.01-0.08-0.014-0.113c0.006-0.13-0.052-0.301,0.089-0.376
	c0.007-0.013,0.021-0.039,0.028-0.052c0.034-0.012,0.051-0.047,0.038-0.081c0.004-0.039,0.008-0.078,0.01-0.117
	c0.001-0.01,0.002-0.029,0.002-0.039c0.015-0.086,0.025-0.172,0.021-0.259v-0.022c0.011-0.137-0.029-0.268-0.069-0.397
	c-0.006-0.045-0.019-0.094-0.061-0.119c-0.044-0.063-0.116-0.014-0.161,0.022c-0.184,0.178-0.245,0.448-0.225,0.697
	c-0.011,0.004-0.033,0.011-0.043,0.015c0.017-0.036-0.002-0.075-0.03-0.099c-0.014-0.024-0.027-0.049-0.042-0.073
	c-0.008-0.013-0.024-0.037-0.032-0.05c-0.027-0.014-0.056-0.026-0.084-0.039c-0.031-0.11-0.055-0.223-0.105-0.326
	c-0.006-0.014-0.019-0.041-0.026-0.055c-0.027-0.077-0.048-0.154-0.071-0.231c-0.007-0.056-0.018-0.115-0.066-0.151
	c-0.022-0.023-0.045-0.045-0.067-0.068c-0.023-0.051-0.119-0.129-0.137-0.036c-0.01,0.025-0.019,0.051-0.027,0.077
	c-0.123-0.051,0.035,0.2,0.001,0.244c0.003,0.017,0.009,0.052,0.012,0.069c0,0.039,0,0.116,0.001,0.155
	c0.003,0.091,0.014,0.181,0.019,0.273c-0.01,0.001-0.03,0.002-0.04,0.003c-0.049-0.058-0.128-0.143-0.204-0.069
	c-0.06,0.096-0.09,0.213-0.069,0.326c0.01,0.065,0.021,0.13,0.033,0.195c-0.076-0.108-0.135-0.227-0.221-0.328
	c-0.057-0.076-0.175-0.184-0.263-0.088c-0.002,0.014-0.005,0.042-0.006,0.055c-0.005,0.026-0.009,0.051-0.014,0.077
	c-0.006,0.027-0.01,0.054-0.014,0.081c-0.004,0.055,0.004,0.109,0.026,0.163c0.011,0.067,0.041,0.129,0.08,0.186
	c0.021,0.048,0.047,0.094,0.074,0.14c0.011,0.024,0.023,0.048,0.034,0.073c-0.001,0.03,0.011,0.054,0.036,0.071
	c0.026,0.093,0.065,0.208,0.183,0.198c0.185,0.221,0.199,0.535,0.346,0.781l0.008,0.019c0.051,0.122,0.126,0.23,0.19,0.345
	c-0.077,0.037-0.163,0.052-0.242,0.085c-0.045,0.006-0.06,0.054-0.055,0.094l-0.004,0.019c-0.004,0.009-0.012,0.029-0.016,0.038
	c-0.047-0.001-0.081,0.02-0.095,0.066c-0.04-0.033-0.121-0.076-0.154-0.016c-0.004,0.015-0.013,0.045-0.017,0.059
	c-0.014-0.005-0.043-0.016-0.057-0.021c-0.035,0.016-0.081,0.031-0.083,0.077c-0.002,0.008-0.003,0.016-0.004,0.024
	c-0.007,0.041-0.012,0.082-0.015,0.123c-0.078-0.037-0.184-0.128-0.268-0.072c-0.056,0.012-0.113,0.017-0.17,0.021
	c-0.025-0.038-0.058-0.047-0.088-0.01c-0.06,0.048-0.112,0.107-0.153,0.173c-0.014,0.029-0.025,0.061-0.036,0.092
	c-0.049,0.012-0.038,0.073,0.007,0.082l0.012,0.016c0.03,0.077,0.285,0.189,0.091,0.196c-0.089-0.012-0.17,0.033-0.253,0.062
	l0.004,0.023c0.087,0.15,0.266,0.279,0.446,0.229c0.032-0.001,0.064-0.002,0.096-0.003c0.199,0.033,0.364-0.108,0.536-0.186
	c0.029,0.001,0.058-0.002,0.086-0.011l0.02-0.004c0.098,0.041,0.131,0.149,0.192,0.226c0.024,0.031,0.051,0.059,0.077,0.088
	c0.05,0.117,0.093,0.239,0.152,0.353c-0.05-0.035-0.1-0.069-0.147-0.107c-0.019-0.032-0.038-0.064-0.06-0.093
	c-0.05-0.072-0.106-0.138-0.163-0.204c-0.064-0.119-0.298-0.28-0.192-0.014c0.068,0.104,0.151,0.197,0.227,0.296
	c0.014,0.022,0.034,0.035,0.061,0.036c0.023,0.023,0.047,0.045,0.071,0.067c0.007,0.013,0.022,0.037,0.029,0.049
	c0.105,0.212,0.325,0.232,0.481,0.096c0.023,0.005,0.045,0.01,0.067,0.016c0.148,0.235,0.214,0.521,0.394,0.736
	c0.113,0.209,0.267,0.394,0.465,0.528c-0.008,0.042,0.021,0.084,0.066,0.083c0.099,0.275,0.199,0.55,0.322,0.816
	c0.245,0.559,0.497,1.117,0.802,1.647c0.358,0.77,0.707,1.551,1.123,2.293c0.529,0.958,1.135,1.9,1.534,2.911
	c-0.003,0.009-0.006,0.019-0.008,0.028c-0.026-0.012-0.052-0.024-0.077-0.038c-0.04-0.05-0.077-0.104-0.131-0.139
	c-0.571-0.365-1.111-1.172-1.888-0.948c-0.127,0.01-0.186,0.131-0.078,0.217c0.108,0.145,0.303,0.147,0.456,0.217
	c0.433,0.167,0.76,0.509,1.092,0.817c0.015,0.034,0.029,0.07,0.056,0.096c0.183,0.136,0.239,0.388,0.451,0.491
	c0.027,0.013,0.055,0.023,0.083,0.034c-0.014,0.075-0.031,0.151,0.006,0.221c0.017,0.047,0.034,0.095,0.05,0.143
	c0,0.075-0.001,0.154-0.001,0.231c-0.008,0.063-0.023,0.131-0.023,0.198c0.017,0.127,0.175,0.177,0.183,0.311
	c-0.007,0.035-0.017,0.072-0.008,0.109c0.007,0.058,0.021,0.115,0.043,0.169c0.005,0.01,0.015,0.029,0.02,0.04
	c0.018,0.178-0.065,0.332-0.162,0.473c-0.08,0.146-0.027,0.323-0.051,0.487c-0.007-0.002-0.008-0.012-0.016-0.012
	c-0.033-0.157-0.076-0.311-0.117-0.465c-0.012-0.047-0.029-0.094-0.048-0.138c-0.002-0.006-0.005-0.011-0.007-0.015
	c-0.019-0.044-0.039-0.087-0.061-0.129c0-0.035-0.026-0.064-0.061-0.065c-0.018-0.03-0.055-0.044-0.086-0.025
	c-0.061-0.006-0.105,0.022-0.117,0.084c-0.025,0.051-0.026,0.109-0.017,0.165c0.001,0.017,0.004,0.049,0.006,0.066
	c-0.024,0.024-0.033,0.065-0.004,0.09c-0.096-0.009-0.168-0.083-0.245-0.132c-0.036-0.071-0.238-0.16-0.096-0.204
	c0.079-0.048,0.034-0.155-0.023-0.204c-0.065-0.144-0.082-0.323-0.219-0.422c-0.036-0.066-0.086-0.124-0.155-0.156
	c0.005-0.044-0.035-0.078-0.078-0.066c-0.047-0.011-0.093,0.003-0.136,0.022c-0.003-0.016-0.008-0.047-0.01-0.063
	c0.017-0.021,0.034-0.041,0.052-0.061c0.08-0.078,0.197-0.088,0.298-0.121c0.045,0.006,0.084-0.023,0.098-0.064
	c0.052-0.024,0.047-0.09-0.016-0.087c-0.027-0.009-0.054-0.014-0.082-0.015c-0.225,0.02,0.1-0.095,0.052-0.22
	c0-0.054-0.014-0.105-0.043-0.153c-0.007-0.057-0.074-0.031-0.082,0.011c-0.153,0.072-0.284,0.182-0.387,0.317
	c-0.042,0.046-0.08,0.096-0.11,0.15c-0.005,0.008-0.014,0.025-0.019,0.033c-0.037-0.016-0.094-0.044-0.116,0.009L13.869,27.7
	c-0.036,0.001-0.061,0.028-0.072,0.061c-0.041,0.01-0.081,0-0.118-0.02c-0.026-0.025-0.051-0.003-0.075,0.014l-0.015,0.01
	c-0.11,0.054,0.089,0.238-0.164,0.168c-0.011-0.002-0.031-0.006-0.042-0.009c-0.033-0.019-0.073-0.009-0.093,0.023
	c-0.022,0.013-0.045,0.027-0.067,0.042c-0.007,0.007-0.02,0.02-0.027,0.026c-0.106,0.106-0.19,0.305-0.055,0.424
	c0.012,0.007,0.037,0.021,0.049,0.028c0.148,0.067,0.223,0.519,0.395,0.227c0.045-0.011,0.083-0.044,0.081-0.093
	c0.078-0.038,0.157-0.075,0.235-0.115c0.053,0.083,0.139,0.136,0.211,0.201c0.045,0.038,0.094,0.072,0.146,0.1
	c0.03,0.027,0.06,0.054,0.096,0.073c0.065,0.036,0.133,0.076,0.209,0.081c0.25,0.03,0.623,0.205,0.695,0.455
	c-0.009,0.034,0.008,0.067,0.039,0.084c0.039,0.104,0.097,0.202,0.177,0.281c0.176,0.141,0.316,0.342,0.491,0.487
	c0.073,0.095,0.165,0.174,0.265,0.248C16.23,30.498,16.452,30.521,16.618,30.421z M19.822,24.038
	c0.038-0.024,0.075-0.05,0.112-0.076c0.029,0.02,0.051,0.048,0.061,0.083l-0.017,0.006c-0.074,0.02-0.135,0.069-0.184,0.125
	C19.768,24.129,19.805,24.082,19.822,24.038z M18.101,26.125c0.104-0.174,0.189-0.359,0.308-0.525
	c0.095,0.039-0.014,0.201-0.028,0.292c-0.056,0.056-0.108,0.116-0.157,0.179c-0.043,0.046-0.087,0.093-0.131,0.139l-0.016,0.009
	C18.086,26.188,18.094,26.156,18.101,26.125z M16.695,13.898c-0.004-0.015-0.012-0.045-0.016-0.06
	c-0.05-0.279-0.04-0.566-0.107-0.842c0.017-0.037,0.009-0.079-0.019-0.108c-0.003-0.03-0.005-0.06-0.008-0.09
	c0.002-0.01,0.007-0.03,0.009-0.041c0.006-0.008,0.017-0.025,0.023-0.033c0.023,0.052,0.048,0.104,0.075,0.154
	c0.047,0.09,0.094,0.181,0.143,0.271c0.163,0.232,0.343,0.452,0.531,0.665c0,0.126,0,0.253,0.003,0.38
	c-0.009,0.035-0.017,0.07-0.024,0.105c-0.026-0.035-0.053-0.07-0.079-0.105c-0.046-0.114-0.105-0.056-0.026,0.029
	c0.028,0.062,0.058,0.124,0.096,0.181c0.018,0.028,0.039,0.055,0.058,0.082c-0.006,0.179-0.005,0.358-0.003,0.538
	c-0.005,0.146-0.016,0.293-0.006,0.44c-0.031,0.023-0.044,0.065-0.018,0.097l-0.018,0.006c-0.109-0.149-0.153-0.333-0.227-0.499
	l-0.008-0.018c-0.047-0.153-0.079-0.312-0.147-0.458c-0.02-0.072-0.037-0.146-0.05-0.22c-0.003-0.015-0.008-0.044-0.011-0.059
	c-0.127-0.194,0.011-0.444,0.125-0.615c0.076-0.131-0.15-0.182-0.148-0.034c-0.031,0.112-0.055,0.225-0.092,0.336
	C16.733,13.966,16.714,13.932,16.695,13.898z M17.192,17.656c-0.001,0.071,0.005,0.145,0.007,0.217
	c-0.03,0.034-0.037,0.082-0.015,0.123v0.02c-0.031,0.134-0.104-0.09-0.153-0.124c-0.071-0.105-0.132-0.217-0.206-0.32
	c-0.228-0.473-0.506-1.022-0.575-1.481c0.146-0.596,0.398-1.162,0.503-1.769c0.047,0.064,0.046,0.151,0.074,0.223
	c0.012,0.045,0.028,0.089,0.044,0.133c0.042,0.154,0.107,0.3,0.149,0.454c0.003,0.009,0.009,0.028,0.012,0.037
	c0.038,0.102,0.07,0.206,0.116,0.304c0.014,0.029,0.031,0.057,0.048,0.084c0.027,0.043,0.055,0.084,0.083,0.127
	c0.015,0.192,0.014,0.384,0.024,0.576c-0.008,0.064-0.012,0.129-0.013,0.194c-0.002,0.036-0.007,0.108-0.009,0.144
	c0,0.012-0.001,0.035-0.001,0.046c-0.001,0.087,0.001,0.177-0.013,0.265c-0.012,0.044-0.017,0.09-0.013,0.136
	c0,0.107-0.002,0.216-0.002,0.324c-0.028,0.026-0.041,0.067-0.02,0.103C17.215,17.533,17.199,17.594,17.192,17.656z M20.777,9.536
	c-0.002-0.091-0.003-0.181,0.002-0.271c0.006-0.038,0.017-0.114,0.023-0.152c0-0.017,0-0.051,0-0.067
	c0.031-0.023,0.041-0.064,0.023-0.097c0.003-0.01,0.008-0.03,0.011-0.04c0.012-0.009,0.036-0.025,0.049-0.034
	c0.039,0.009-0.011,0.054-0.009,0.079c-0.024,0.079-0.049,0.164-0.03,0.247c-0.043,0.121,0.047,0.229,0.108,0.325
	c-0.034,0.123-0.077,0.243-0.119,0.364c-0.022,0.059-0.042,0.12-0.068,0.178c-0.007-0.083-0.011-0.165-0.006-0.248
	c0.008-0.055,0.014-0.111,0.017-0.167C20.78,9.614,20.779,9.575,20.777,9.536z M20.553,9.829C20.582,9.8,20.588,9.756,20.57,9.72
	c0.009-0.066,0.02-0.132,0.035-0.197c0.026,0.01,0.045,0.027,0.058,0.052c-0.022,0.029-0.028,0.078,0.012,0.096
	c-0.003,0.03-0.005,0.061-0.008,0.092c-0.014,0.084-0.029,0.169-0.046,0.253c-0.006,0.009-0.017,0.026-0.022,0.034
	c-0.047-0.028-0.052-0.083-0.057-0.132C20.545,9.889,20.549,9.858,20.553,9.829z M20.957,12.05c-0.01-0.046-0.02-0.091-0.028-0.137
	c-0.003-0.03-0.005-0.061-0.008-0.091c0.02-0.041,0.014-0.089-0.014-0.125c0.013-0.189-0.153-0.327-0.138-0.025l-0.007,0.019
	c0.001,0.034,0.003,0.101,0.004,0.135c0.003,0.157,0.013,0.314,0.014,0.471v0.022c-0.007,0.037,0.013,0.07,0.033,0.1
	c-0.015,0.04,0,0.086,0.045,0.099c0.019,0.074,0.099,0.087,0.16,0.112c0.002,0.01,0.007,0.028,0.01,0.038
	c-0.037,0.094-0.075,0.188-0.108,0.284c-0.035,0.318-0.203,0.595-0.339,0.873c-0.063-0.236,0.043-0.471,0.044-0.709
	c0.034-0.031,0.042-0.079,0.023-0.12c0.001-0.047,0.003-0.094,0.004-0.141c0.029-0.039,0.038-0.088,0.021-0.134
	c0.001-0.2,0.003-0.4,0.006-0.6c0-0.031-0.001-0.093-0.001-0.124c0.009-0.118,0.018-0.235,0.007-0.353
	c0.02-0.08,0.05-0.156,0.094-0.225c0.009-0.004,0.028-0.013,0.038-0.017c0.029,0.002,0.058,0,0.087-0.007
	c0.016,0,0.047,0.001,0.063,0.002c0.02,0.045,0.055,0.082,0.087,0.118c0.006,0.015,0.018,0.046,0.024,0.061
	c0.011,0.196-0.006,0.391-0.076,0.576c-0.008,0.007-0.023,0.022-0.031,0.029C20.997,12.138,20.983,12.087,20.957,12.05z
	 M21.169,10.519c-0.017,0.048-0.046,0.09-0.097,0.104c-0.048,0.011-0.064,0.054-0.075,0.097c-0.035,0.002-0.058,0.034-0.049,0.068
	c-0.072,0.073,0.025,0.206-0.09,0.241c-0.021-0.041-0.042-0.083-0.073-0.116c-0.068-0.034-0.148-0.064-0.147-0.146
	c0.003-0.015,0.005-0.031,0.008-0.046c0.013-0.088,0.026-0.177,0.038-0.265c0.013-0.039,0.03-0.076,0.049-0.111
	c0.037,0.004,0.061-0.03,0.048-0.064c0.027-0.051,0.053-0.103,0.077-0.155c0.035-0.008,0.055-0.045,0.042-0.078
	c0.013-0.037,0.027-0.074,0.041-0.11c0.028-0.282,0.268-0.406,0.361-0.644c0.017,0.028,0.034,0.055,0.052,0.083
	c0.121,0.229-0.035,0.483-0.048,0.719C21.246,10.232,21.213,10.377,21.169,10.519z"/>
</svg>
