<?xml version="1.0" encoding="utf-8"?>
<!-- Generator: Adobe Illustrator 27.6.1, SVG Export Plug-In . SVG Version: 6.00 Build 0)  -->
<svg version="1.1" id="rapeseed" xmlns="http://www.w3.org/2000/svg" xmlns:xlink="http://www.w3.org/1999/xlink" x="0px" y="0px"
	 viewBox="0 0 32 32" style="enable-background:new 0 0 32 32;" xml:space="preserve">
<path d="M16.661,30.339c-1.119,0.452-0.98-0.082-1.081-1.175c0.007-0.064,0.029-1.115,0.03-1.154
	c0.017-0.571,0.033-1.143,0.05-1.714c0.004-0.127,0.007-0.255,0.014-0.382c0.004-0.064-0.018-0.107-0.07-0.146
	c-0.121-0.092-0.236-0.192-0.356-0.285c-0.104-0.08-0.183-0.18-0.23-0.3c-0.142-0.36-0.384-0.649-0.642-0.927
	c-0.028-0.03-0.073-0.049-0.114-0.063c-0.046-0.016-0.1-0.013-0.144-0.032c-0.038-0.017-0.081-0.047-0.097-0.082
	c-0.064-0.134-0.147-0.226-0.313-0.201c-0.069,0.01-0.119-0.034-0.15-0.089c-0.05-0.089-0.12-0.127-0.223-0.116
	c-0.035,0.004-0.08-0.001-0.106-0.021c-0.061-0.046-0.121-0.058-0.195-0.038c-0.079,0.021-0.136-0.021-0.175-0.085
	c-0.028-0.045-0.047-0.096-0.073-0.143c-0.037-0.066-0.07-0.084-0.129-0.048c-0.145,0.087-0.305,0.088-0.465,0.095
	c-0.086,0.004-0.172,0.012-0.257,0.028c-0.152,0.028-0.276-0.021-0.381-0.125c-0.052-0.052-0.098-0.111-0.14-0.171
	c-0.086-0.122-0.201-0.204-0.341-0.252c-0.094-0.033-0.171-0.012-0.25,0.053c-0.19,0.157-0.388,0.304-0.617,0.402
	c-0.083,0.036-0.148,0.085-0.184,0.171c-0.016,0.037-0.042,0.071-0.067,0.103c-0.069,0.09-0.16,0.125-0.272,0.104
	c-0.06-0.012-0.121-0.025-0.18-0.043c-0.177-0.052-0.353-0.11-0.531-0.16c-0.154-0.044-0.273-0.129-0.352-0.27
	C8.61,23.25,8.595,23.23,8.581,23.21c-0.029-0.044-0.066-0.06-0.115-0.034c-0.112,0.059-0.227,0.114-0.336,0.179
	c-0.079,0.048-0.163,0.065-0.248,0.051c-0.171-0.027-0.334-0.009-0.497,0.046c-0.106,0.036-0.203,0.003-0.303-0.054
	c-0.254-0.144-0.517-0.276-0.822-0.256c-0.092,0.006-0.183,0.039-0.272,0.066c-0.051,0.015-0.097,0.044-0.146,0.066
	c-0.133,0.06-0.266,0.071-0.406,0.015c-0.121-0.049-0.251-0.048-0.377-0.019c-0.202,0.047-0.398,0.04-0.595-0.024
	c-0.07-0.023-0.144-0.035-0.217-0.045c-0.202-0.028-0.352-0.129-0.448-0.309c-0.051-0.094-0.104-0.187-0.151-0.283
	c-0.047-0.095-0.033-0.147,0.047-0.217c0.006-0.005,0.012-0.011,0.02-0.015c0.182-0.092,0.29-0.249,0.375-0.427
	c0.043-0.091,0.11-0.162,0.198-0.214c0.103-0.061,0.201-0.128,0.304-0.189c0.169-0.102,0.351-0.154,0.552-0.146
	c0.139,0.005,0.279-0.006,0.418-0.015c0.129-0.009,0.253-0.041,0.361-0.113c0.176-0.117,0.372-0.172,0.577-0.202
	c0.164-0.024,0.322-0.064,0.47-0.14c0.107-0.055,0.225-0.073,0.345-0.085c0.147-0.015,0.293-0.038,0.437-0.069
	c0.131-0.028,0.244-0.093,0.337-0.194c0.09-0.097,0.2-0.134,0.334-0.119c0.063,0.007,0.13-0.008,0.194-0.018
	c0.063-0.01,0.107-0.046,0.109-0.114c0.003-0.086,0.06-0.11,0.13-0.119c0.037-0.004,0.074-0.006,0.111-0.005
	c0.176,0.007,0.352,0.018,0.528,0.023c0.052,0.001,0.106-0.009,0.156-0.025c0.077-0.025,0.15-0.033,0.228-0.002
	c0.124,0.049,0.23,0.03,0.32-0.079c0.035-0.042,0.088-0.075,0.138-0.1c0.088-0.044,0.18-0.081,0.271-0.118
	c0.07-0.028,0.097-0.017,0.125,0.051c0.017,0.041,0.025,0.087,0.034,0.131c0.023,0.113,0.047,0.225,0.066,0.339
	c0.021,0.118,0.073,0.216,0.163,0.296c0.055,0.049,0.103,0.106,0.156,0.158c0.152,0.149,0.274,0.319,0.357,0.513
	c0.101,0.236,0.274,0.392,0.505,0.497c0.427,0.194,0.851,0.392,1.273,0.596c0.124,0.06,0.243,0.138,0.352,0.223
	c0.241,0.186,0.474,0.382,0.711,0.572c0.11,0.088,0.232,0.152,0.363,0.206c0.121,0.05,0.232,0.124,0.347,0.186
	c0.086,0.046,0.172,0.093,0.26,0.137c0.095,0.047,0.149,0.13,0.182,0.224c0.033,0.093,0.052,0.19,0.077,0.285
	c0.019,0.071,0.031,0.144,0.1,0.212c0.01-0.038,0.02-0.061,0.021-0.086c0.003-0.136,0.001-0.271,0.005-0.407
	c0.016-0.563,0.019-1.127,0.054-1.689c0.056-0.916,0.086-1.832,0.099-2.749c0.006-0.448,0.023-0.896,0.035-1.344
	c0.004-0.138,0.004-0.139-0.121-0.193c-0.51-0.219-1.032-0.405-1.565-0.563c-0.702-0.207-1.398-0.43-2.097-0.646
	c-0.051-0.016-0.104-0.025-0.154-0.044c-0.037-0.014-0.084-0.031-0.103-0.061c-0.038-0.064-0.092-0.068-0.155-0.076
	c-0.13-0.017-0.26-0.036-0.386-0.069c-0.103-0.027-0.167-0.092-0.151-0.218c0.007-0.053-0.016-0.114-0.038-0.165
	c-0.036-0.085-0.071-0.164-0.031-0.259c0.05-0.119,0.103-0.236,0.227-0.296c0.063-0.03,0.128-0.058,0.195-0.075
	c0.302-0.077,0.58-0.204,0.84-0.377c0.085-0.057,0.19-0.086,0.267-0.151c0.082-0.069,0.143-0.164,0.211-0.25
	c0.008-0.01,0.005-0.034-0.002-0.047c-0.041-0.08-0.001-0.141,0.039-0.206c0.049-0.08,0.091-0.166,0.141-0.245
	c0.035-0.054,0.079-0.102,0.119-0.153c0.023-0.029,0.045-0.058,0.068-0.086c0.02-0.026,0.038-0.055,0.063-0.075
	c0.058-0.049,0.104-0.047,0.142,0.018c0.041,0.069,0.094,0.07,0.158,0.056c0.012-0.003,0.024-0.006,0.035-0.012
	c0.13-0.077,0.266-0.121,0.421-0.115c0.046,0.002,0.098-0.038,0.139-0.07c0.048-0.038,0.09-0.085,0.129-0.132
	c0.145-0.176,0.331-0.292,0.541-0.374c0.083-0.032,0.166-0.037,0.254-0.03c0.085,0.007,0.172-0.002,0.257,0.003
	c0.106,0.006,0.211,0.018,0.317,0.03c0.083,0.01,0.131,0.062,0.153,0.14c0.013,0.047,0.03,0.094,0.038,0.142
	c0.022,0.138,0.021,0.139,0.176,0.163c0.007-0.056,0.018-0.112,0.019-0.168c0.004-0.181,0.002-0.362,0.007-0.543
	c0.002-0.064-0.026-0.105-0.067-0.15c-0.093-0.103-0.184-0.21-0.266-0.322c-0.185-0.252-0.357-0.514-0.548-0.761
	c-0.08-0.103-0.139-0.22-0.228-0.315c-0.092-0.098-0.186-0.197-0.29-0.282c-0.09-0.073-0.12-0.061-0.22,0.004
	c-0.149,0.099-0.308,0.126-0.479,0.058c-0.038-0.015-0.083-0.011-0.123-0.016c-0.011,0.027-0.019,0.038-0.019,0.049
	c0.008,0.227-0.196,0.316-0.369,0.296c-0.073-0.008-0.146-0.024-0.217-0.044c-0.176-0.05-0.202-0.092-0.179-0.278
	c-0.073,0-0.146-0.002-0.218,0.001c-0.021,0.001-0.05,0.015-0.062,0.032c-0.11,0.157-0.277,0.201-0.451,0.221
	c-0.28,0.031-0.558,0.021-0.832-0.053c-0.163-0.043-0.186-0.126-0.069-0.252c0.112-0.122,0.254-0.194,0.415-0.227
	c0.076-0.016,0.151-0.03,0.213-0.042c0.02-0.092,0.037-0.169,0.057-0.258c-0.055-0.074-0.12-0.162-0.196-0.263
	c-0.014,0.001-0.046,0.001-0.077,0.007c-0.134,0.023-0.267,0.046-0.4,0.072c-0.1,0.019-0.126,0.045-0.136,0.144
	c-0.005,0.052,0.002,0.107,0.012,0.159c0.022,0.12,0.024,0.238-0.02,0.353c-0.066,0.173-0.134,0.345-0.206,0.516
	c-0.06,0.142-0.169,0.241-0.304,0.312c-0.081,0.042-0.14,0.03-0.187-0.03c-0.047-0.059-0.049-0.112,0.009-0.162
	c0.264-0.228,0.357-0.544,0.448-0.861c0.016-0.054,0.023-0.111,0.034-0.168c-0.074,0.003-0.31,0.087-0.347,0.122
	c-0.011,0.011-0.025,0.026-0.026,0.04c-0.006,0.097-0.029,0.197,0.029,0.288c0.092,0.146,0.044,0.346-0.118,0.395
	c-0.135,0.041-0.158,0.127-0.165,0.237c-0.009,0.135-0.013,0.271-0.019,0.406c-0.011,0.222-0.105,0.319-0.328,0.334
	c-0.18,0.012-0.345-0.016-0.469-0.164c-0.073-0.088-0.115-0.187-0.124-0.302c-0.02-0.261,0.04-0.489,0.248-0.665
	c0.073-0.061,0.092-0.135,0.071-0.232c-0.019-0.087-0.013-0.18-0.016-0.27c-0.004-0.119-0.004-0.119-0.113-0.154
	c-0.02-0.006-0.04-0.012-0.058-0.02c-0.073-0.032-0.087-0.076-0.028-0.13c0.053-0.049,0.119-0.085,0.181-0.123
	c0.023-0.015,0.053-0.02,0.105-0.039c-0.044-0.012-0.063-0.022-0.082-0.022c-0.082,0-0.165,0.006-0.247,0.004
	c-0.091-0.003-0.123-0.048-0.083-0.128c0.032-0.065,0.082-0.122,0.131-0.176c0.06-0.066,0.136-0.038,0.209-0.024
	c0.008,0.001,0.016-0.002,0.035-0.005c0.012-0.119,0.016-0.241-0.026-0.358C9.77,9.698,9.704,9.535,9.64,9.37
	C9.634,9.356,9.625,9.335,9.613,9.331c-0.079-0.022-0.158-0.05-0.239-0.056C9.332,9.272,9.283,9.303,9.242,9.328
	C9.183,9.365,9.129,9.41,9.073,9.451c-0.049,0.036-0.1,0.053-0.162,0.02C8.896,9.337,9.012,9.27,9.063,9.166
	C9.044,9.14,9.024,9.115,9.007,9.088c-0.058-0.09-0.042-0.162,0.06-0.195c0.104-0.034,0.215-0.057,0.324-0.064
	c0.092-0.006,0.181,0.007,0.237-0.09C9.638,8.723,9.67,8.72,9.683,8.715C9.674,8.599,9.665,8.489,9.658,8.38
	C9.651,8.269,9.609,8.175,9.532,8.093C9.471,8.027,9.415,7.956,9.366,7.881c-0.055-0.082-0.052-0.172-0.01-0.259
	C9.38,7.574,9.408,7.528,9.439,7.485c0.1-0.138,0.236-0.188,0.401-0.145c0.139,0.037,0.275,0.082,0.413,0.123
	c0.045,0.013,0.091,0.024,0.164,0.042c-0.03-0.064-0.047-0.099-0.064-0.135c-0.078-0.163-0.159-0.325-0.232-0.49
	c-0.095-0.217-0.099-0.448-0.083-0.679c0.005-0.07,0.028-0.137,0.086-0.185c0.087-0.072,0.194-0.06,0.256,0.033
	c0.025,0.037,0.043,0.08,0.056,0.123c0.031,0.102,0.063,0.205,0.085,0.309c0.055,0.254,0.177,0.476,0.318,0.69
	c0.011,0.017,0.022,0.036,0.038,0.049c0.317,0.27,0.466,0.626,0.523,1.028c0.011,0.078,0.04,0.121,0.123,0.126
	c0.005-0.011,0.013-0.021,0.013-0.032c0.001-0.405,0.154-0.742,0.451-1.016c0.081-0.074,0.172-0.115,0.281-0.094
	c0.141,0.027,0.268-0.012,0.395-0.064c0.049-0.02,0.103-0.042,0.153-0.038c0.2,0.017,0.36-0.067,0.507-0.187
	c0.07-0.057,0.133-0.122,0.195-0.188c0.042-0.045,0.024-0.081-0.038-0.089c-0.127-0.017-0.138-0.027-0.168-0.152
	C13.306,6.49,13.3,6.466,13.289,6.445c-0.045-0.086-0.091-0.171-0.142-0.266c-0.076,0.02-0.145-0.021-0.193-0.094
	c-0.017-0.027-0.026-0.071-0.017-0.101c0.026-0.088,0.178-0.161,0.263-0.126c0.09,0.037,0.162,0.03,0.238-0.034
	c0.09-0.075,0.201-0.086,0.315-0.081c0.145,0.006,0.158-0.007,0.175-0.154c0.007-0.059,0.014-0.119,0.021-0.185
	c-0.08,0.006-0.144,0.014-0.208,0.013c-0.059-0.001-0.118-0.011-0.179-0.018c-0.029,0.113,0.023,0.22-0.035,0.321
	c-0.023-0.012-0.043-0.017-0.057-0.03c-0.044-0.04-0.092-0.045-0.149-0.033c-0.205,0.043-0.413,0.071-0.607,0.156
	c-0.122,0.053-0.242,0.028-0.354-0.036c-0.064-0.037-0.098-0.094-0.117-0.166c-0.02-0.075-0.044-0.151-0.079-0.219
	c-0.025-0.049-0.067-0.093-0.109-0.131c-0.093-0.082-0.199-0.111-0.319-0.055C11.667,5.238,11.6,5.268,11.53,5.293
	c-0.028,0.01-0.061,0.007-0.092,0.009c-0.002-0.035-0.012-0.072-0.004-0.104c0.026-0.099,0.103-0.144,0.197-0.165
	c0.039-0.009,0.079-0.013,0.124-0.021c0.005-0.047,0.005-0.088,0.013-0.128c0.012-0.055-0.018-0.079-0.058-0.108
	c-0.112-0.082-0.23-0.161-0.328-0.258c-0.183-0.184-0.112-0.504,0.131-0.601c0.217-0.086,0.441-0.158,0.661-0.237
	c0.118-0.042,0.235-0.027,0.352-0.001c0.1,0.023,0.199,0.052,0.298,0.077c0.039,0.01,0.078,0.017,0.127,0.028
	c0.006-0.042,0.012-0.073,0.015-0.105c0.027-0.283,0.096-0.549,0.275-0.78c0.091-0.117,0.168-0.244,0.257-0.362
	c0.129-0.172,0.289-0.199,0.475-0.088c0.127,0.076,0.211,0.184,0.277,0.36c0.214,0.02,0.433,0.04,0.661,0.061
	c0.023-0.07,0.046-0.141,0.074-0.224c-0.029-0.002-0.055-0.007-0.081-0.003c-0.065,0.009-0.13,0.021-0.194,0.035
	c-0.309,0.067-0.631-0.141-0.697-0.45c-0.004-0.02-0.007-0.041-0.008-0.061c-0.007-0.143,0.057-0.214,0.201-0.222
	c0.179-0.01,0.352,0.025,0.524,0.064c0.104,0.023,0.208,0.049,0.311,0.078c0.16,0.045,0.323,0.057,0.488,0.054
	c0.057-0.001,0.104-0.005,0.118-0.078c0.006-0.032,0.038-0.058,0.065-0.097c-0.1-0.025-0.217,0.008-0.256-0.124
	c0.017-0.013,0.034-0.029,0.055-0.041c0.048-0.026,0.069-0.067,0.072-0.121c0.001-0.028,0.005-0.058,0.014-0.085
	c0.02-0.06,0.054-0.079,0.114-0.056c0.041,0.015,0.075,0.048,0.114,0.069c0.031,0.017,0.064,0.037,0.097,0.04
	c0.162,0.013,0.162,0.011,0.272-0.151c0.031,0.027,0.062,0.052,0.092,0.079c0.099,0.089,0.094,0.119-0.026,0.167
	c-0.023,0.009-0.047,0.016-0.067,0.03c-0.015,0.01-0.023,0.03-0.036,0.049c0.067,0.065,0.133,0.029,0.183-0.001
	c0.06-0.036,0.11-0.06,0.182-0.038c0.029,0.009,0.069-0.018,0.104-0.027c0.079-0.019,0.158-0.047,0.239-0.054
	c0.116-0.011,0.138,0.009,0.184,0.12c0.077,0.014,0.141-0.031,0.207-0.058c0.132-0.054,0.267-0.088,0.409-0.067
	c0.064,0.01,0.129,0.029,0.185,0.06c0.137,0.077,0.145,0.159,0.038,0.263c0.076,0.194,0.151,0.387,0.231,0.591
	c0.026-0.04,0.054-0.084,0.083-0.126c0.095-0.14,0.162-0.139,0.255,0.003c0.004,0.007,0.011,0.012,0.022,0.026
	c0.089-0.082,0.175-0.157,0.168-0.294c-0.004-0.077,0.009-0.156,0.016-0.233c0.01-0.114,0.064-0.203,0.157-0.268
	c0.067-0.046,0.136-0.094,0.209-0.129c0.075-0.037,0.138,0.011,0.185,0.062c0.083,0.092,0.152,0.195,0.181,0.318
	c0.015,0.064,0.022,0.13,0.033,0.194c0.007,0.039,0.016,0.077,0.028,0.137c0.026-0.034,0.04-0.049,0.048-0.066
	c0.085-0.164,0.231-0.252,0.394-0.317c0.041-0.016,0.087-0.024,0.132-0.027c0.184-0.011,0.227,0.026,0.262,0.21
	c0.042,0.221,0.036,0.442-0.006,0.662c-0.025,0.133-0.074,0.251-0.188,0.336c-0.032,0.023-0.047,0.069-0.079,0.118
	c0.068,0.016,0.114,0.031,0.162,0.036c0.157,0.017,0.292,0.08,0.407,0.187c0.09,0.084,0.182,0.166,0.273,0.25
	c0.059,0.054,0.102,0.117,0.115,0.199c0.022,0.135,0.028,0.139,0.198,0.151c0.002-0.044,0.007-0.087,0.006-0.131
	c-0.007-0.218-0.017-0.435-0.024-0.653c-0.001-0.046,0.01-0.093,0.016-0.142c0.079-0.001,0.11,0.043,0.132,0.091
	c0.02,0.044,0.03,0.093,0.041,0.141c0.034,0.16,0.058,0.324,0.102,0.481c0.054,0.191,0.086,0.385,0.103,0.581
	c-0.063-0.029-0.124-0.065-0.189-0.086c-0.028-0.009-0.076,0.004-0.098,0.025c-0.056,0.053-0.102,0.115-0.151,0.174
	c-0.056,0.067-0.09,0.143-0.105,0.223c0.139,0,0.271,0,0.408,0c0.093-0.097,0.125-0.176,0.133-0.339
	c0.004,0,0.009,0.001,0.012-0.001c0.261-0.157,0.54-0.109,0.813-0.059c0.169,0.031,0.295,0.129,0.338,0.318
	c0.018,0.08,0.072,0.156,0.123,0.224c0.207,0.281,0.137,0.631-0.167,0.811c-0.007,0.004-0.013,0.009-0.023,0.016
	c0.075,0.107-0.053,0.136-0.085,0.216c0.226,0.149,0.49,0.212,0.737,0.327c0.077-0.076,0.12-0.169,0.164-0.26
	c0.041-0.085,0.073-0.174,0.114-0.26c0.059-0.126,0.148-0.226,0.27-0.295c0.131-0.074,0.261-0.078,0.38,0.018
	c0.089,0.072,0.178,0.149,0.248,0.238c0.045,0.058,0.067,0.14,0.081,0.214c0.027,0.137,0.034,0.278,0.062,0.414
	c0.029,0.138,0.002,0.251-0.099,0.349c-0.127,0.123-0.25,0.25-0.377,0.373C24.1,7.09,24.075,7.123,24.077,7.18
	c0.002,0.043-0.019,0.087-0.032,0.129c-0.017,0.053-0.037,0.106-0.058,0.167c0.067,0.017,0.109-0.014,0.146-0.04
	c0.133-0.096,0.263-0.196,0.395-0.294c0.072-0.054,0.141-0.114,0.22-0.158c0.114-0.064,0.188-0.027,0.218,0.101
	c0.029,0.122,0.022,0.232-0.083,0.327c-0.069,0.062-0.124,0.142-0.179,0.218c-0.039,0.054-0.064,0.116-0.041,0.186
	c0.016,0.049-0.009,0.076-0.046,0.102c-0.124,0.087-0.248,0.175-0.371,0.265c-0.154,0.112-0.333,0.135-0.514,0.148
	c-0.159,0.012-0.319,0.02-0.5,0.031c0.03,0.036,0.048,0.06,0.068,0.081c0.068,0.071,0.14,0.139,0.203,0.214
	c0.044,0.053,0.091,0.114,0.107,0.178c0.049,0.203,0.112,0.409,0.116,0.615c0.004,0.211-0.088,0.4-0.318,0.48
	c-0.093,0.033-0.183,0.04-0.277,0.011c-0.237-0.072-0.461-0.173-0.671-0.306c-0.127-0.081-0.23-0.188-0.313-0.311
	c-0.109-0.162-0.259-0.238-0.449-0.262c-0.06-0.008-0.117-0.053-0.171-0.087c-0.03-0.019-0.051-0.051-0.082-0.084
	c-0.354,0.189-0.666,0.422-0.956,0.732c0.063-0.007,0.101-0.009,0.139-0.015c0.216-0.034,0.415-0.001,0.596,0.133
	c0.136,0.101,0.268,0.204,0.374,0.337c0.077,0.096,0.126,0.202,0.124,0.327c-0.002,0.099-0.001,0.197-0.004,0.296
	c-0.002,0.098-0.035,0.186-0.093,0.264c-0.216,0.293-0.509,0.449-0.87,0.469c-0.194,0.011-0.371-0.061-0.537-0.156
	c-0.06-0.034-0.119-0.07-0.192-0.114c-0.005,0.04-0.013,0.066-0.01,0.091c0.024,0.273-0.049,0.528-0.189,0.753
	c-0.133,0.214-0.323,0.385-0.554,0.495c-0.225,0.108-0.495-0.004-0.594-0.233c-0.058-0.136-0.076-0.273-0.046-0.421
	c0.023-0.112,0.033-0.228,0.035-0.342c0.002-0.21,0.015-0.419,0.061-0.624c0.003-0.015,0-0.032,0-0.047
	c-0.109-0.014-0.137,0.003-0.159,0.096c-0.006,0.024-0.014,0.052-0.007,0.073c0.06,0.158-0.036,0.235-0.156,0.286
	c-0.139,0.058-0.286,0.1-0.43,0.146c-0.058,0.018-0.119,0.027-0.194,0.043c0.054,0.063,0.116,0.079,0.175,0.099
	c0.054,0.018,0.112,0.031,0.161,0.059c0.041,0.023,0.078,0.061,0.103,0.101c0.028,0.044,0.016,0.095-0.04,0.107
	c-0.149,0.031-0.226,0.139-0.298,0.257c-0.077,0.127-0.184,0.208-0.333,0.229c-0.045,0.006-0.088,0.019-0.132,0.03
	c-0.105,0.028-0.203,0.023-0.29-0.051c-0.02-0.017-0.05-0.022-0.088-0.037c-0.01,0.04-0.023,0.069-0.025,0.099
	c-0.01,0.238-0.018,0.476-0.025,0.715c-0.001,0.023,0.008,0.047,0.012,0.071c0.081,0.032,0.147,0.007,0.215-0.029
	c0.047-0.024,0.096-0.05,0.147-0.059c0.08-0.013,0.128,0.028,0.125,0.107c-0.002,0.067,0.027,0.109,0.074,0.146
	c0.026,0.02,0.053,0.039,0.08,0.057c0.105,0.069,0.161,0.168,0.153,0.291c-0.01,0.151-0.022,0.304-0.055,0.451
	c-0.021,0.093-0.021,0.167,0.038,0.241c0.019,0.024,0.032,0.054,0.063,0.106c-0.072-0.015-0.119-0.02-0.163-0.035
	c-0.058-0.019-0.113-0.051-0.172-0.067c-0.054-0.015-0.113-0.027-0.168-0.022c-0.113,0.01-0.224,0.033-0.348,0.052
	c-0.001,0.008-0.008,0.031-0.009,0.054c-0.007,0.666-0.02,1.332-0.019,1.998c0.002,0.785,0.017,1.57,0.026,2.356
	c0.001,0.127,0,0.254,0.013,0.387c0.064-0.09,0.154-0.12,0.248-0.141c0.108-0.025,0.197-0.084,0.277-0.155
	c0.231-0.203,0.501-0.25,0.795-0.212c0.037,0.005,0.073,0.008,0.11,0.011c0.092,0.008,0.166-0.028,0.202-0.112
	c0.066-0.156,0.191-0.207,0.347-0.237c0.181-0.035,0.358-0.091,0.535-0.145c0.102-0.031,0.197-0.078,0.257-0.179
	c0.021-0.035,0.068-0.056,0.106-0.08c0.017-0.01,0.039-0.014,0.059-0.016c0.268-0.031,0.476-0.165,0.645-0.37
	c0.111-0.134,0.254-0.162,0.423-0.131c0.173,0.031,0.35,0.043,0.525,0.06c0.036,0.004,0.075,0.002,0.11-0.008
	c0.136-0.038,0.273-0.054,0.414-0.037c0.038,0.004,0.088-0.02,0.119-0.047c0.049-0.043,0.09-0.096,0.126-0.151
	c0.045-0.07,0.105-0.101,0.186-0.096c0.057,0.003,0.115,0.005,0.172,0.011c0.087,0.008,0.103,0.006,0.122-0.081
	c0.045-0.204,0.178-0.327,0.355-0.416c0.049-0.025,0.092-0.039,0.151-0.02c0.091,0.029,0.121,0.007,0.157-0.086
	c0.045-0.115,0.072-0.134,0.181-0.08c0.149,0.075,0.301,0.127,0.469,0.135c0.031,0.001,0.065,0.017,0.091,0.036
	c0.091,0.067,0.19,0.094,0.3,0.07c0.02,0.144,0.171,0.256,0.309,0.244c0.143-0.012,0.287-0.021,0.429-0.017
	c0.118,0.003,0.141,0.031,0.153,0.15c0.006,0.061,0.034,0.089,0.085,0.104c0.122,0.035,0.244,0.071,0.368,0.102
	c0.093,0.024,0.182,0.005,0.255-0.058c0.119-0.103,0.235-0.087,0.363-0.016c0.066,0.036,0.145,0.061,0.22,0.066
	c0.147,0.009,0.296,0.003,0.443-0.003c0.125-0.005,0.245,0.008,0.365,0.045c0.073,0.023,0.153,0.032,0.229,0.032
	c0.074,0,0.126,0.024,0.165,0.085c0.073,0.115,0.142,0.232,0.138,0.376c-0.002,0.077,0.039,0.132,0.096,0.178
	c0.092,0.075,0.184,0.151,0.276,0.226c0,0.016,0,0.033,0,0.049c-0.181,0-0.362,0.005-0.542-0.004
	c-0.084-0.004-0.175-0.021-0.249-0.059c-0.344-0.176-0.716-0.235-1.091-0.285c-0.155-0.021-0.31-0.031-0.466-0.044
	c-0.045-0.004-0.092-0.009-0.135,0.001c-0.15,0.033-0.294,0.005-0.438-0.034c-0.095-0.026-0.189-0.056-0.284-0.082
	c-0.067-0.019-0.136-0.05-0.203-0.048c-0.3,0.006-0.608-0.045-0.885,0.131c-0.142,0.091-0.292,0.166-0.459,0.205
	c-0.066,0.016-0.126,0.058-0.188,0.091c-0.065,0.035-0.129,0.073-0.192,0.112c-0.126,0.078-0.252,0.083-0.387,0.018
	c-0.089-0.043-0.182-0.076-0.275-0.108c-0.097-0.033-0.101-0.028-0.159,0.059c-0.018,0.027-0.038,0.054-0.057,0.08
	c-0.09,0.124-0.198,0.189-0.359,0.142c-0.21-0.06-0.388,0.03-0.549,0.151c-0.119,0.09-0.242,0.106-0.382,0.075
	c-0.079-0.018-0.161-0.034-0.241-0.033c-0.135,0.001-0.173,0.04-0.2,0.17c-0.013,0.06-0.023,0.122-0.041,0.18
	c-0.05,0.162-0.11,0.204-0.278,0.201c-0.062-0.001-0.123-0.003-0.185-0.008c-0.137-0.013-0.241,0.042-0.316,0.153
	c-0.09,0.133-0.177,0.267-0.263,0.402c-0.057,0.09-0.109,0.184-0.166,0.274c-0.052,0.082-0.12,0.143-0.219,0.169
	c-0.107,0.029-0.186,0.105-0.259,0.182c-0.062,0.066-0.131,0.089-0.22,0.085c-0.073-0.003-0.149,0.001-0.22,0.016
	c-0.144,0.03-0.286,0.032-0.428-0.004c-0.109-0.028-0.211-0.016-0.313,0.026c-0.091,0.037-0.186,0.066-0.278,0.102
	c-0.107,0.041-0.213,0.057-0.322,0.005c-0.028-0.013-0.062-0.016-0.109-0.027c-0.005,0.051-0.011,0.094-0.012,0.137
	c-0.002,0.185-0.005,0.37-0.001,0.555c0.01,0.49-0.046,0.977-0.084,1.465c-0.028,0.365-0.059,0.729-0.088,1.094
	c-0.031,0.389-0.06,0.779-0.09,1.168c-0.005,0.07-0.006,0.14-0.013,0.209c-0.008,0.076,0.008,0.146,0.042,0.214
	c0.045,0.091,0.088,0.183,0.138,0.285c0.06-0.064,0.075-0.128,0.07-0.192c-0.021-0.245,0.042-0.473,0.124-0.699
	c0.022-0.062,0.04-0.126,0.051-0.19c0.042-0.253,0.116-0.496,0.205-0.736c0.038-0.102,0.061-0.203,0.026-0.313
	c-0.01-0.032-0.006-0.077,0.01-0.106c0.081-0.147,0.069-0.3,0.042-0.457c-0.01-0.056-0.015-0.114-0.017-0.171
	c-0.003-0.092,0.041-0.157,0.124-0.195c0.022-0.01,0.045-0.02,0.068-0.03c0.1-0.045,0.151-0.123,0.157-0.231
	c0.001-0.016,0.004-0.033,0.001-0.049c-0.033-0.196,0.066-0.333,0.208-0.446c0.083-0.066,0.174-0.124,0.268-0.173
	c0.099-0.052,0.128-0.039,0.2,0.047c0.018,0.022,0.036,0.046,0.057,0.064c0.062,0.054,0.102,0.044,0.128-0.032
	c0.013-0.039,0.021-0.08,0.027-0.12c0.012-0.084,0.058-0.129,0.142-0.148c0.08-0.018,0.159-0.043,0.236-0.069
	c0.084-0.028,0.165-0.025,0.237,0.023c0.078,0.052,0.152,0.111,0.222,0.174c0.062,0.056,0.066,0.126,0.029,0.203
	c-0.036,0.076-0.062,0.157-0.103,0.264c-0.246,0.101-0.447,0.313-0.653,0.52c-0.104,0.104-0.184,0.222-0.221,0.365
	c-0.024,0.091-0.067,0.139-0.171,0.137c-0.109-0.002-0.195,0.063-0.262,0.143c-0.068,0.08-0.048,0.237,0.046,0.326
	c0.078,0.075,0.108,0.16,0.106,0.264c-0.002,0.085-0.037,0.141-0.117,0.169c-0.116,0.041-0.232,0.084-0.349,0.122
	c-0.068,0.022-0.114,0.063-0.133,0.133c-0.085,0.302-0.222,0.584-0.329,0.876c-0.126,0.343-0.225,0.696-0.33,1.047
	c-0.107,0.358-0.206,0.719-0.307,1.079c-0.011,0.039-0.016,0.081-0.014,0.121c0.038,0.921,0.029,1.842,0.02,2.763L16.661,30.339z
	 M15.604,5.325c-0.025,0-0.049,0-0.074,0c-0.118,0.003-0.223,0.104-0.233,0.222c-0.001,0.012-0.003,0.03,0.004,0.035
	c0.064,0.055,0.092,0.132,0.128,0.204c0.007,0.014,0.043,0.02,0.064,0.017c0.012-0.002,0.032-0.033,0.028-0.045
	c-0.035-0.106,0.019-0.233-0.072-0.315c0.054-0.042,0.104-0.082,0.154-0.121c0.037-0.03,0.074-0.06,0.114-0.094
	c0.034,0.02,0.065,0.039,0.116,0.07c-0.021-0.067-0.03-0.111-0.049-0.15c-0.023-0.049-0.056-0.054-0.097-0.019
	C15.627,5.181,15.601,5.247,15.604,5.325z M15.904,17.624c0.036-1.065,0.091-2.099,0.105-3.149c-0.058,0.009-0.098,0.015-0.138,0.02
	c-0.108,0.014-0.126-0.002-0.153-0.106c-0.033-0.127-0.064-0.255-0.109-0.378c-0.067-0.18-0.146-0.213-0.339-0.156
	c-0.004,0.025-0.01,0.053-0.012,0.081c-0.009,0.1-0.039,0.193-0.096,0.276c-0.079,0.114-0.126,0.24-0.133,0.379
	c-0.005,0.104-0.059,0.166-0.154,0.2c-0.062,0.022-0.131,0.035-0.183,0.072c-0.091,0.065-0.157,0.089-0.265,0.011
	c-0.102-0.073-0.228-0.039-0.331,0.043c-0.077,0.062-0.153,0.125-0.237,0.176c-0.228,0.137-0.41,0.324-0.579,0.526
	c-0.021,0.025-0.041,0.052-0.056,0.081c-0.111,0.205-0.265,0.375-0.427,0.539c-0.049,0.049-0.089,0.107-0.133,0.161
	c-0.042,0.052-0.083,0.105-0.131,0.166c0.056,0.014,0.096,0.023,0.135,0.035c0.2,0.061,0.401,0.12,0.599,0.186
	c0.144,0.048,0.281,0.117,0.427,0.157c0.44,0.119,0.88,0.238,1.325,0.336c0.252,0.055,0.489,0.137,0.715,0.258
	C15.78,17.565,15.828,17.587,15.904,17.624z M15.346,7.843c0.019-0.052,0.029-0.102,0.055-0.143
	c0.041-0.065,0.084-0.132,0.141-0.181c0.086-0.073,0.173-0.044,0.212,0.063c0.018,0.049,0.02,0.104,0.024,0.157
	c0.008,0.111,0.006,0.114,0.112,0.135c0.107,0.021,0.188,0.077,0.25,0.165c0.076,0.105,0.129,0.219,0.148,0.348
	C16.296,8.435,16.3,8.486,16.37,8.5c0.091-0.114,0.191-0.223,0.271-0.346c0.035-0.053,0.044-0.134,0.038-0.2
	c-0.003-0.032-0.068-0.06-0.108-0.085c-0.186-0.12-0.235-0.285-0.145-0.495c0.005-0.011,0.004-0.024,0.007-0.041
	c-0.017-0.015-0.034-0.033-0.054-0.046c-0.153-0.102-0.307-0.203-0.469-0.309c-0.029,0.035-0.053,0.062-0.075,0.09
	c-0.024,0.032-0.045,0.065-0.084,0.12c-0.065-0.081-0.118-0.148-0.178-0.223c-0.138,0.111-0.285,0.151-0.435,0.173
	c-0.121,0.018-0.245,0.027-0.368,0.029c-0.074,0.001-0.121,0.026-0.16,0.089c-0.052,0.083-0.114,0.16-0.174,0.239
	c-0.031,0.042-0.066,0.081-0.107,0.131c0.085,0.037,0.159,0.071,0.233,0.102c0.128,0.054,0.186,0.152,0.195,0.287
	c0.013,0.206,0.031,0.412,0.047,0.635c0.026-0.033,0.052-0.06,0.072-0.091c0.093-0.15,0.142-0.305,0.095-0.487
	c-0.019-0.074,0.003-0.164,0.023-0.242c0.025-0.098,0.083-0.123,0.177-0.084C15.229,7.77,15.28,7.806,15.346,7.843z M21.045,7.345
	c-0.025,0.035-0.04,0.054-0.052,0.074c-0.08,0.136-0.092,0.138-0.247,0.104c-0.063-0.014-0.13-0.021-0.194-0.014
	c-0.112,0.012-0.115,0.019-0.116,0.131c0,0.102-0.021,0.195-0.09,0.274c-0.019,0.022-0.028,0.054-0.042,0.082
	c0.065,0.023,0.128,0.03,0.171,0.063c0.113,0.086,0.209,0.052,0.315-0.013c0.064-0.039,0.142-0.065,0.217-0.074
	c0.08-0.01,0.163,0.005,0.244,0.014c0.093,0.01,0.185,0.026,0.282-0.017C21.371,7.76,21.212,7.557,21.045,7.345z M10.054,8.996
	c-0.002,0.012-0.004,0.017-0.003,0.02c0.122,0.256,0.263,0.5,0.453,0.713c0.023,0.026,0.06,0.041,0.091,0.058
	c0.101,0.054,0.202,0.106,0.303,0.159c0.034,0.018,0.066,0.037,0.123,0.069c-0.01-0.065-0.01-0.102-0.022-0.135
	c-0.072-0.209-0.144-0.419-0.222-0.626c-0.032-0.084-0.079-0.162-0.125-0.24c-0.014-0.024-0.048-0.047-0.075-0.049
	c-0.114-0.009-0.229-0.011-0.343-0.013C10.168,8.95,10.103,8.954,10.054,8.996z M11.122,9.623c0.053-0.18,0.1-0.341,0.147-0.502
	c0.033-0.115,0.081-0.223,0.156-0.319c0.031-0.04,0.051-0.089,0.073-0.13c-0.014-0.018-0.018-0.026-0.025-0.03
	c-0.01-0.007-0.022-0.011-0.033-0.016c-0.102-0.038-0.107-0.035-0.18,0.052c-0.023,0.027-0.054,0.051-0.087,0.067
	c-0.081,0.04-0.164,0.075-0.247,0.11c-0.052,0.022-0.104,0.042-0.157,0.064C10.887,9.156,11,9.381,11.122,9.623z M14.588,3.848
	c0.107,0.076,0.185,0.146,0.221,0.253c0.008,0.025,0.047,0.042,0.074,0.058c0.101,0.061,0.204,0.121,0.306,0.181
	c0.035,0.021,0.068,0.045,0.105,0.063c0.195,0.096,0.391,0.189,0.587,0.284c0.132,0.064,0.155,0.056,0.224-0.09
	c-0.107-0.065-0.218-0.125-0.321-0.198c-0.124-0.088-0.255-0.135-0.41-0.14c-0.201-0.006-0.361-0.1-0.465-0.277
	c-0.031-0.053-0.059-0.108-0.09-0.161c-0.016-0.027-0.034-0.053-0.058-0.09C14.703,3.77,14.654,3.803,14.588,3.848z M19.387,6.727
	c0.035,0.017,0.045,0.026,0.056,0.026c0.211,0.003,0.415,0.036,0.606,0.13c0.02,0.01,0.061,0.006,0.077-0.008
	c0.039-0.035,0.075-0.076,0.102-0.121c0.032-0.055,0.001-0.163-0.049-0.168c-0.145-0.013-0.295-0.038-0.437-0.017
	C19.626,6.587,19.52,6.665,19.387,6.727z M21.68,6.162c-0.022,0.053-0.021,0.091,0.032,0.118c0.062,0.031,0.119,0.073,0.18,0.108
	c0.137,0.079,0.28,0.053,0.446,0.039c-0.093-0.141-0.194-0.241-0.302-0.334c-0.017-0.014-0.046-0.021-0.069-0.019
	c-0.11,0.01-0.22,0.023-0.33,0.039c-0.027,0.004-0.053,0.021-0.079,0.032c0.002,0.006,0.004,0.012,0.006,0.018
	C21.6,6.162,21.636,6.162,21.68,6.162z M17.057,9.948c0.168-0.084,0.218-0.156,0.21-0.312c-0.005-0.099,0.02-0.186,0.066-0.27
	c0.047-0.086,0.099-0.17,0.147-0.256c0.013-0.023,0.021-0.048,0.041-0.097c-0.067,0.022-0.123,0.025-0.155,0.054
	c-0.084,0.075-0.158,0.161-0.237,0.242C17.106,9.517,17.083,9.723,17.057,9.948z M13.213,7.883c0.039-0.027,0.07-0.046,0.098-0.069
	c0.031-0.026,0.068-0.052,0.084-0.087c0.015-0.032,0.022-0.09,0.003-0.11c-0.019-0.021-0.076-0.02-0.111-0.01
	c-0.059,0.016-0.092,0.06-0.102,0.125c-0.008,0.055-0.033,0.108-0.045,0.163c-0.018,0.082-0.091,0.115-0.15,0.166
	c0.132,0.063,0.142,0.088,0.093,0.221c-0.114-0.038-0.236-0.1-0.313,0.054c-0.086-0.016-0.086-0.016-0.129,0.023
	c0.111,0.06,0.227,0.082,0.352,0.075c0.127-0.007,0.137-0.013,0.142-0.144c0.004-0.117,0.037-0.223,0.126-0.309
	C13.249,7.953,13.235,7.925,13.213,7.883z M19.201,4.34c-0.003,0.111,0.065,0.18,0.153,0.154c0.067-0.019,0.141-0.053,0.167-0.13
	c0.023-0.065,0.038-0.134,0.048-0.203c0.009-0.063,0.001-0.128-0.064-0.159c-0.064-0.03-0.121-0.001-0.167,0.045
	C19.255,4.132,19.21,4.236,19.201,4.34z M21.962,6.964c0.007,0.058,0.007,0.085,0.014,0.111c0.043,0.164,0.041,0.324-0.037,0.478
	c-0.025,0.049-0.024,0.095,0.02,0.134C22,7.724,22.067,7.726,22.118,7.686c0.069-0.052,0.102-0.127,0.117-0.21
	c0.015-0.081-0.061-0.097-0.101-0.139c-0.003-0.003-0.003-0.007-0.007-0.02c0.03-0.04,0.064-0.085,0.107-0.142
	C22.149,7.109,22.067,7.046,21.962,6.964z M16.776,11.056c-0.009,0.019-0.015,0.026-0.014,0.033
	c0.001,0.012,0.002,0.027,0.009,0.035c0.08,0.088,0.114,0.194,0.141,0.307c0.015,0.064,0.057,0.065,0.108,0.014
	c0.06-0.061,0.122-0.12,0.183-0.18c0.015-0.014,0.038-0.026,0.043-0.043c0.01-0.032,0.02-0.073,0.009-0.1
	c-0.008-0.019-0.053-0.028-0.082-0.031c-0.03-0.003-0.061,0.006-0.089,0.01c-0.031-0.057,0.003-0.085,0.03-0.115
	c0.043-0.046,0.049-0.09,0.004-0.14c-0.019-0.021-0.03-0.05-0.061-0.102c-0.01,0.081-0.016,0.132-0.023,0.183
	c-0.008,0.052-0.01,0.107-0.027,0.156c-0.027,0.084-0.065,0.094-0.136,0.044C16.838,11.105,16.808,11.081,16.776,11.056z
	 M22.226,7.781c0.043,0.085,0.097,0.166,0.074,0.273c-0.009,0.043,0.082,0.131,0.121,0.121c0.102-0.026,0.18,0.023,0.257,0.073
	c0.086-0.119,0.056-0.21-0.073-0.237c-0.036-0.008-0.072-0.015-0.108-0.02c-0.05-0.008-0.067-0.039-0.064-0.091
	c0.01-0.009,0.02-0.022,0.033-0.03c0.041-0.026,0.059-0.066,0.035-0.104c-0.019-0.03-0.058-0.06-0.093-0.067
	C22.335,7.684,22.271,7.709,22.226,7.781z M20.186,5.362c0.056,0.024,0.09,0.038,0.124,0.052c0.127,0.054,0.224,0.133,0.251,0.28
	c0.007,0.04,0.033,0.077,0.053,0.124c0.166-0.207,0.134-0.297-0.025-0.548C20.461,5.298,20.335,5.328,20.186,5.362z M21.665,6.521
	c0.073,0.098,0.124,0.13,0.247,0.136c0.143,0.007,0.287,0.006,0.431,0.001c0.15-0.005,0.265,0.041,0.33,0.185
	c0.003,0.006,0.013,0.009,0.03,0.018c0.069-0.035,0.143-0.072,0.236-0.119c-0.178-0.109-0.388-0.073-0.523-0.22
	C22.164,6.698,21.924,6.549,21.665,6.521z M19.985,9.812c-0.009-0.074-0.058-0.102-0.115-0.114c-0.059-0.013-0.117,0-0.155,0.05
	c-0.034,0.045-0.022,0.094,0.013,0.135c0.028,0.033,0.023,0.066,0.01,0.102c-0.013,0.034-0.021,0.07-0.028,0.106
	c-0.017,0.088,0.004,0.118,0.118,0.16c0.047-0.087,0.057-0.204,0.17-0.239c-0.018-0.117-0.138-0.038-0.183-0.121
	C19.868,9.865,19.921,9.841,19.985,9.812z M19.355,10.236c-0.097-0.07-0.182-0.067-0.212,0.011c-0.035,0.09-0.056,0.186-0.027,0.266
	c0.09,0.009,0.165,0.017,0.241,0.025c0.02,0.002,0.04,0.011,0.06,0.011c0.038,0.001,0.11-0.061,0.114-0.098
	c0.005-0.05-0.03-0.069-0.069-0.089c-0.066-0.033-0.131-0.041-0.202-0.015c-0.03,0.011-0.063,0.015-0.117,0.027
	C19.218,10.292,19.218,10.292,19.355,10.236z M12.707,7.969c-0.026-0.044-0.054-0.093-0.083-0.141
	c-0.076-0.125-0.175-0.143-0.28-0.042c-0.029,0.028-0.063,0.083-0.053,0.11c0.014,0.037,0.064,0.072,0.106,0.085
	c0.077,0.023,0.158,0.029,0.238,0.042C12.672,8.03,12.698,8.017,12.707,7.969z M15.773,6.383c0.049-0.097,0.078-0.209,0.086-0.328
	c0.004-0.056-0.02-0.079-0.066-0.08c-0.048-0.001-0.096,0.009-0.136,0.014c-0.035,0.059-0.066,0.112-0.096,0.164
	c-0.023,0.041-0.022,0.074,0.024,0.103C15.649,6.295,15.709,6.34,15.773,6.383z M21.188,8.74c-0.108-0.065-0.196-0.118-0.295-0.178
	c-0.019,0.098-0.034,0.178-0.051,0.257c-0.017,0.076-0.036,0.152-0.054,0.228c0.009,0.005,0.018,0.01,0.027,0.015
	C20.934,8.959,21.053,8.857,21.188,8.74z M18.11,7.397c0.046-0.101,0.092-0.198,0.136-0.293c0.078-0.009,0.166-0.019,0.261-0.03
	c0.013,0.018,0.03,0.042,0.064,0.087c0.013-0.075,0.021-0.123,0.028-0.168c-0.106-0.041-0.157,0.043-0.228,0.066
	c-0.032-0.014-0.061-0.03-0.093-0.039c-0.083-0.023-0.217,0.066-0.223,0.145c-0.003,0.052-0.009,0.105-0.015,0.157
	C18.036,7.364,18.042,7.396,18.11,7.397z M15.091,9.798c-0.019,0.012-0.054,0.022-0.067,0.045c-0.035,0.06-0.062,0.124-0.088,0.188
	c-0.023,0.056,0.003,0.104,0.064,0.122c0.056,0.017,0.113,0.03,0.188,0.05c0-0.061,0.01-0.115-0.002-0.163
	C15.166,9.965,15.13,9.894,15.091,9.798z M21.87,8.605c0.049,0.06,0.091,0.12,0.141,0.171c0.034,0.034,0.083,0.037,0.125,0.009
	c0.052-0.034,0.066-0.15,0.029-0.216c-0.037-0.064-0.108-0.08-0.181-0.038C21.953,8.548,21.924,8.57,21.87,8.605z M16.104,5.754
	c0.012-0.084,0.021-0.156,0.032-0.227c0.01-0.063-0.03-0.132-0.086-0.144c-0.041-0.009-0.102,0.035-0.117,0.091
	c-0.016,0.058-0.026,0.117-0.037,0.171C15.964,5.681,16.028,5.714,16.104,5.754z M19.625,5.011c-0.078-0.08-0.139-0.151-0.21-0.21
	c-0.024-0.02-0.072-0.011-0.114-0.015c0.038,0.229,0.052,0.253,0.173,0.325C19.516,5.085,19.559,5.056,19.625,5.011z M12.76,10.484
	c-0.004,0.007-0.008,0.014-0.012,0.02c0.026,0.024,0.055,0.046,0.078,0.074c0.09,0.109,0.207,0.099,0.325,0.071
	c0.058-0.014,0.07-0.056,0.029-0.099c-0.02-0.022-0.052-0.044-0.081-0.047C12.987,10.492,12.873,10.489,12.76,10.484z M14.681,9.425
	c-0.083,0.003-0.129,0.03-0.136,0.09c-0.007,0.062-0.042,0.132,0.015,0.187c0.046,0.045,0.098,0.085,0.151,0.123
	c0.016,0.012,0.043,0.008,0.065,0.011c0.002-0.022,0.013-0.048,0.004-0.064c-0.045-0.082-0.094-0.162-0.14-0.241
	C14.653,9.499,14.664,9.469,14.681,9.425z M19.063,9.322c-0.011,0.001-0.024-0.001-0.035,0.003
	c-0.043,0.015-0.086,0.029-0.126,0.048c-0.064,0.03-0.08,0.093-0.042,0.154c0.039,0.063,0.101,0.079,0.157,0.041
	C19.101,9.511,19.117,9.427,19.063,9.322z M18.155,7.625c-0.091,0.026-0.169,0.049-0.25,0.072c0.031,0.077,0.058,0.146,0.089,0.223
	C18.084,7.842,18.202,7.794,18.155,7.625z M17.804,8.427c-0.168,0.031-0.214,0.09-0.197,0.248c0.086-0.02,0.17-0.039,0.268-0.062
	C17.848,8.542,17.827,8.487,17.804,8.427z M18.427,7.442c0.029,0.056,0.058,0.114,0.092,0.178c0.054-0.063,0.11-0.117,0.15-0.181
	c0.017-0.027,0.011-0.083-0.007-0.111c-0.028-0.044-0.076-0.021-0.108,0.003C18.507,7.364,18.468,7.405,18.427,7.442z
	 M13.087,10.861c0.04,0.057,0.069,0.096,0.096,0.136c0.064,0.096,0.099,0.104,0.212,0.04c-0.041-0.07-0.082-0.139-0.126-0.213
	C13.211,10.836,13.16,10.847,13.087,10.861z M15.203,9.578c-0.019-0.077-0.034-0.139-0.05-0.2c-0.013-0.05-0.047-0.08-0.098-0.074
	c-0.056,0.007-0.068,0.056-0.064,0.103c0.005,0.052,0.019,0.103,0.031,0.157C15.079,9.569,15.131,9.573,15.203,9.578z M19.787,4.106
	c-0.006,0.012-0.011,0.025-0.017,0.037c0.034,0.053,0.064,0.11,0.105,0.157c0.016,0.018,0.065,0.028,0.085,0.017
	c0.05-0.029,0.061-0.084,0.053-0.139c-0.008-0.049-0.038-0.085-0.088-0.088C19.879,4.089,19.833,4.1,19.787,4.106z M18.97,5.76
	c0.068-0.004,0.123-0.008,0.179-0.012c0.116-0.007,0.137-0.039,0.112-0.174c-0.042,0.006-0.085,0.012-0.128,0.017
	C19.015,5.607,19.003,5.617,18.97,5.76z M18.793,4.822c0.052-0.019,0.096-0.031,0.135-0.051c0.064-0.032,0.065-0.093,0.006-0.135
	c-0.052-0.036-0.14-0.043-0.173-0.009c-0.045,0.047-0.025,0.099-0.004,0.148C18.764,4.791,18.777,4.802,18.793,4.822z
	 M16.684,25.869c-0.009,0.186-0.016,0.342-0.023,0.499c0.008,0.001,0.016,0.002,0.023,0.003c0.04-0.14,0.079-0.28,0.121-0.428
	C16.774,25.924,16.744,25.906,16.684,25.869z M19.84,5.088c0.116-0.074,0.15-0.13,0.124-0.212c-0.008-0.026-0.036-0.055-0.062-0.063
	c-0.039-0.012-0.07,0.014-0.081,0.055C19.802,4.939,19.802,5.009,19.84,5.088z M11.51,10.316c-0.103-0.115-0.194-0.215-0.288-0.319
	c-0.053,0.171,0.095,0.238,0.172,0.35C11.434,10.336,11.471,10.326,11.51,10.316z M12.527,8.073
	c-0.077-0.001-0.137,0.02-0.188,0.065c-0.032,0.028-0.035,0.063-0.011,0.099c0.023,0.036,0.054,0.046,0.095,0.032
	C12.493,8.244,12.525,8.189,12.527,8.073z M16.931,2.5c0.011,0.004,0.022,0.009,0.033,0.013c0.053-0.104,0.148-0.104,0.247-0.101
	c0.014-0.046,0.027-0.086,0.044-0.14c-0.121,0.019-0.205,0.077-0.29,0.129C16.942,2.415,16.942,2.466,16.931,2.5z M21.81,8.499
	c-0.006-0.085-0.005-0.148-0.016-0.208c-0.005-0.026-0.03-0.062-0.052-0.067c-0.021-0.004-0.064,0.021-0.071,0.043
	c-0.01,0.03-0.009,0.076,0.009,0.1C21.714,8.414,21.762,8.452,21.81,8.499z M16.057,1.86c-0.004-0.011-0.007-0.022-0.011-0.033
	c-0.084,0.006-0.167,0.011-0.25,0.021c-0.012,0.002-0.033,0.035-0.029,0.045c0.008,0.018,0.032,0.041,0.048,0.04
	c0.065-0.004,0.13-0.014,0.194-0.028C16.027,1.9,16.041,1.875,16.057,1.86z M12.078,10.116c-0.078,0.054-0.144,0.1-0.21,0.146
	c0.072,0.015,0.137,0.013,0.202,0.008c0.023-0.002,0.046-0.012,0.085-0.022C12.127,10.201,12.104,10.163,12.078,10.116z
	 M13.508,5.252c-0.001,0.093,0.038,0.12,0.1,0.117c0.057-0.002,0.103-0.02,0.104-0.107C13.645,5.259,13.583,5.256,13.508,5.252z
	 M19.82,10.613c-0.068,0.06-0.077,0.075-0.075,0.116c0.003,0.051,0.031,0.073,0.081,0.07c0.048-0.003,0.073-0.036,0.055-0.086
	C19.869,10.678,19.842,10.648,19.82,10.613z M18.136,5.643c0.07,0.045,0.122,0.078,0.193,0.123c-0.01-0.098-0.023-0.164-0.097-0.211
	C18.203,5.581,18.177,5.605,18.136,5.643z M14.86,9.324c-0.021-0.037-0.026-0.055-0.037-0.064c-0.032-0.027-0.07-0.076-0.099-0.072
	c-0.055,0.009-0.056,0.071-0.055,0.12c0,0.018,0.009,0.036,0.019,0.071c0.018-0.025,0.026-0.036,0.034-0.047
	c0.011-0.015,0.022-0.031,0.035-0.049C14.787,9.295,14.812,9.305,14.86,9.324z M16.015,4.348c0.077,0.101,0.13,0.135,0.212,0.138
	C16.174,4.371,16.128,4.339,16.015,4.348z M19.339,6.485c0.006,0.006,0.011,0.013,0.017,0.02c0.05-0.019,0.101-0.038,0.167-0.064
	c-0.048-0.047-0.068-0.094-0.128-0.093C19.375,6.397,19.357,6.441,19.339,6.485z M12.334,8.354c-0.021,0.006-0.042,0.006-0.05,0.016
	c-0.018,0.023-0.03,0.051-0.045,0.076c0.017,0.009,0.043,0.03,0.048,0.026c0.023-0.019,0.042-0.043,0.056-0.069
	C12.349,8.393,12.338,8.375,12.334,8.354z M15.95,12.252c0.05,0.055,0.087,0.095,0.136,0.149
	C16.089,12.273,16.089,12.273,15.95,12.252z M19.333,9.921c0.003,0.009,0.005,0.017,0.008,0.026
	c0.066,0.007,0.066,0.007,0.089-0.056C19.39,9.903,19.361,9.912,19.333,9.921z M22.345,8.474c0.002-0.01,0.005-0.019,0.007-0.029
	c-0.022-0.003-0.044-0.006-0.066-0.009c-0.001,0.009-0.002,0.018-0.003,0.027C22.304,8.467,22.325,8.47,22.345,8.474z M19.769,4.447
	c-0.004-0.008-0.008-0.016-0.012-0.024c-0.019,0.01-0.039,0.02-0.058,0.03c0.004,0.008,0.008,0.015,0.012,0.023
	C19.731,4.467,19.75,4.457,19.769,4.447z M22.021,8.39c-0.01-0.003-0.02-0.008-0.031-0.009c-0.002,0-0.009,0.018-0.008,0.019
	C21.99,8.406,22,8.41,22.01,8.415C22.014,8.408,22.017,8.401,22.021,8.39z M19.027,5.157c0.01-0.013,0.021-0.02,0.021-0.029
	c0-0.008-0.011-0.016-0.017-0.024c-0.008,0.007-0.02,0.014-0.022,0.022C19.008,5.134,19.019,5.143,19.027,5.157z"/>
</svg>
