<?xml version="1.0" encoding="utf-8"?>
<!-- Generator: Adobe Illustrator 27.6.1, SVG Export Plug-In . SVG Version: 6.00 Build 0)  -->
<svg version="1.1" id="wild_x5F_cabbage" xmlns="http://www.w3.org/2000/svg" xmlns:xlink="http://www.w3.org/1999/xlink" x="0px"
	 y="0px" viewBox="0 0 32 32" style="enable-background:new 0 0 32 32;" xml:space="preserve">
<g>
	<path d="M20.173,24.002c0-0.18,0.18-0.45,0.54-0.63c0.36-0.27,0.54-0.72,0.63-1.17c0-0.09,0-0.27,0-0.36
		c0-0.36,0.18-0.81,0.63-1.08c0.45-0.18,0.54-0.81,0.54-0.81s0-0.63,0-0.99s0.45-0.72,0.9-1.349c0.45-0.63-0.36-0.54-0.36-0.54
		s0-0.54,0-0.81c0-0.36,0.9-0.18,0.9-0.18v-1.529c0.54-0.81-0.18-1.17-0.18-1.17c-0.36,0-0.09-0.99-0.09-0.99
		c-0.27-0.36-0.63-0.81-1.17-0.63c-0.18-0.27-0.27-0.54-0.45-0.72c-0.18-0.27-0.63-0.36-0.81-0.72c-0.18-0.36,0-0.45,0.27-0.63
		c0.09-0.09,0.63-0.72,0.63-0.63c-0.36-0.18-0.54-0.45-0.9-0.63c-0.09-0.09-0.9-0.09-0.9,0l-0.18-0.81
		c-0.54,0.54-0.63-1.17-0.63-1.17c-0.27,0.72-0.99,0.18-1.439,0.18c-0.36,0-0.63,0.54-0.81,0.81c-0.45-0.63-0.63,0.27-0.63,0.36
		c-0.09,0.36,0.18,1.08-0.54,0.99c-0.45-0.09-0.63-0.54-0.63-0.99c-0.18-0.99-1.08-0.54-1.259-0.36
		c-0.45,0.45-1.349,0.27-1.889,0.18c-0.27-0.09-0.54-0.09-0.81-0.18c-0.45-0.09-0.36-0.18-0.63,0.09s-1.709,0.54-1.709,0.9
		c0,0.54-0.36,0.9-0.36,0.9c-0.45,0.18-0.45,1.709-0.45,1.709h0.36l0.27-0.27c0,0,0,0.09,0,0.27c0.18,0.63,0.45,1.439,1.259,1.349
		c0.36,0.36,1.17,1.17,1.709,0.99c0.09,1.259,0.72,2.339,1.979,2.609c-0.27,0.09-0.54,0.27-0.81,0.45c0.18,0.45,0.27,0.9,0.45,1.259
		c0.09,0.18,0.36,0.36,0.36,0.54s-0.18,0.54-0.27,0.72c0.18,0,0.36,0.09,0.54,0.09c-0.18,0.72-0.36,1.17,0.18,1.709
		c0.27,0.27,0.72,0.36,0.99,0.54c0.36,0.27,0.63,0.72,0.81,1.08c0.36,0.63,0.63,1.259,0.99,1.799c-1.529,0-1.619-1.619-2.429-2.519
		c-0.45-0.54-1.619-0.63-1.709-1.529c0-0.27,0.09-0.81,0.18-1.08c-0.18,0-0.36-0.09-0.54-0.09c0.09-0.18,0.27-0.54,0.27-0.72
		s-0.18-0.36-0.36-0.54c-0.27-0.36-0.36-0.81-0.45-1.259c0.27-0.18,0.54-0.27,0.81-0.45c-1.259-0.27-1.889-1.439-1.979-2.609
		c-0.36,0.18-0.72-0.09-0.99-0.27c-0.09-0.09-0.63-0.72-0.63-0.72c-1.08,0.18-1.08-1.529-1.08-1.529l-0.72,0.54l-1.259,0.09
		l-0.72-0.54c-0.72,1.08-1.259,0.63-1.259,0.63l-0.9,0.72l-0.54,0.54v1.08l0.81,0.54l-0.18,2.249l-0.54,0.54l0.54,2.069
		c1.889-1.979,5.218-0.99,5.218-0.99c0.63-0.18,2.789,3.059,2.789,3.059c0.63,1.799,1.889,1.439,1.889,1.439
		c0.63,0.9,1.889,1.259,2.609,1.439l0.99,0.81l0.54,1.17l0.63,0.09l0.54-0.63l0.09-0.36l0.09-0.18c0,0,0.18-0.63,0.99-0.72
		C20.623,24.272,20.173,24.182,20.173,24.002z M14.235,23.102c-0.36-0.18-0.63-0.45-0.9-0.72c-0.54-0.45-1.08-1.08-1.529-1.619
		c-0.9-1.17-1.709-2.429-3.059-3.149c-1.259-0.63-2.969-0.72-4.318-0.27c1.259-0.36,2.429-0.72,3.689-0.63
		c-1.259-2.249-3.509-2.249-3.509-2.249c2.429-0.27,3.599,1.349,4.138,2.339c0.63,0.09,1.259,0.36,1.889,0.72
		c-0.18-0.54-0.63-1.439-1.799-2.969c0,0,2.789,2.519,2.879,4.048c0.9,1.08,1.439,2.429,2.609,3.239c0,0,0.54,0.27,0.54,0.18
		l0.27,1.439C14.955,23.462,14.235,23.102,14.235,23.102z M17.924,20.134c0.09,0.45,0.9,2.789,0.81,3.599
		c0,0.27-0.09,0.45-0.18,0.63l-0.09,0.09c-0.09,0.09-0.99,0.18-0.99,0c-0.27-2.159-0.63-4.408-1.17-6.567
		c-0.72,0-2.159-1.17-2.159-1.17c0.45,0.27,1.439,0.45,1.979,0.54c-0.45-1.979-0.99-3.868-1.709-5.758
		c0.54,1.349,1.17,2.699,1.799,3.958c0.27-0.27,1.08-1.17,1.08-3.149c0,0,0,2.789-0.81,3.599c0.09,0.18,0.72,1.799,0.99,2.429
		c0.45-0.27,2.249-1.619,3.059-5.398C20.533,13.026,19.543,19.324,17.924,20.134z"/>
	<path d="M29.799,12.577c0.36-0.27-0.36-0.99-0.36-0.99c-0.54,0.09-0.81-0.99-0.81-0.99c-0.63-0.9-1.709,0.09-1.709,0.09
		c-0.18,0-0.54-0.45-0.54-0.45c0-0.45-0.99,0-0.99,0c-0.36-0.36-0.9,0.63-0.9,0.63c-0.18-0.81-0.9-0.63-0.9-0.63
		c-0.72-0.45-1.08,0.36-1.08,0.36s0.27,0.63,0.54,0.63c0,0,0.9,0.45,1.529,1.439c0,0-0.18,0.9,0.09,0.99c0,0,0.63,0.36,0.18,1.17
		l-0.09,1.439c0,0-1.08-0.18-1.08,0.18s0,0.81,0,0.81s0.81-0.09,0.36,0.54c-0.45,0.63-0.9,0.99-0.9,1.349s0,0.99,0,0.99
		s-0.18,0.63-0.63,0.81c-0.45,0.18-0.63,0.72-0.63,0.99c0,0.45-0.09,0.9-0.45,1.259c-0.09,0.09-0.18,0.18-0.27,0.27
		c-0.36,0.18-0.54,0.36-0.54,0.63v0.09c0.63-0.45,1.979-1.529,3.239-3.149c0.54-0.99,1.529-3.059,1.619-5.668c0-0.45,0-0.81,0-0.99
		c0-0.09,0-0.09,0-0.18c0,0,0,0.09,0,0.18c0,0.36,0,0.72,0,0.99c0,0.99-0.09,2.519-0.45,3.778c0.36-0.63,0.63-1.259,0.81-1.979
		c0.18-0.54,0.27-0.9,0.27-1.259c0-0.09,0.09-0.27,0.09-0.36v-0.09c0,0,0,0,0,0.09s0,0.18-0.09,0.36
		c-0.09,0.45-0.18,0.81-0.27,1.259c-0.63,2.249-2.159,6.118-5.218,7.197c0.09,0.09,0.09,0.18-0.45,0.18c-0.36,0-0.54,0.18-0.72,0.27
		c5.308-0.72,6.927-8.187,6.927-8.187c0.36-2.069,1.709-1.529,1.709-1.529c1.979-0.27,0.72-1.349,1.349-1.619
		C30.159,13.296,29.799,12.577,29.799,12.577z"/>
</g>
</svg>
