<?xml version="1.0" encoding="utf-8"?>
<!-- Generator: Adobe Illustrator 27.6.1, SVG Export Plug-In . SVG Version: 6.00 Build 0)  -->
<svg version="1.1" id="goat" xmlns="http://www.w3.org/2000/svg" xmlns:xlink="http://www.w3.org/1999/xlink" x="0px" y="0px"
	 viewBox="0 0 32 32" style="enable-background:new 0 0 32 32;" xml:space="preserve">
<style type="text/css">
	.st0{fill-rule:evenodd;clip-rule:evenodd;}
</style>
<path class="st0" d="M7.552,11.142C5.831,9.24,5.831,10.237,5.107,9.331C4.835,8.968,5.741,8.425,6.556,8.787
	C7.552,9.33,7.462,9.693,8.549,9.602c1.449-0.181,1.902-4.257,8.514-0.181c2.627,1.63,2.174,0.181,2.717,1.449
	c0.181,0.362,0.453,1.178,0.453,1.087s-0.181-0.634-0.272-0.906c-0.362-0.815-0.725-2.264-0.453-2.264c0.725,0,0.453-0.634,0-0.634
	c-0.091,0-0.181,0.362-0.272,0.362c0,0-0.091-0.272-0.181-0.362c0-0.272,0-0.725-0.091-0.725c-0.272-0.543,0.272,0.543-0.272,0.815
	c-0.272,0.091-0.815,0-1.63-0.453c-0.906-0.543-1.63-2.899,0.272-1.902c0.906,0.453,2.627,0.996,2.536,0.091
	c-0.091-0.815-1.087-5.797,0.543-2.174c0.815,1.812,0.362,2.627,0.996,2.446c0.996-0.272,0.272,0.543,1.268-1.902
	c0-0.091,1.268-2.808,1.087-1.087c-0.272,2.627-0.272,3.08-0.453,3.08c0,0,0,0.091,0.453,0.091c3.714,0.091,3.17,1.449,1.449,1.812
	c-0.906,0.181-1.178,0.181-1.359,0.091s-0.179-0.636-0.27-0.817s0.181,1.087-0.181,1.087c-0.091,0,0-0.272-0.091-0.453
	c-0.272-0.543-1.087,0.362-0.181,0.634l0.181-0.091c0.272,0.091,0.453,1.087,0,1.902c-0.091,0.181-0.091,0.362-0.453,0.906
	c-0.362,0.362-0.362,0.634-0.634,0.815l0.543-0.453c0,0,0,0.272,0.181,2.536c0.272,1.449,0.634,2.174-1.178,4.71l-0.634,4.438
	c-0.091,0.453-0.362,1.812-0.362,3.08c0.091,0.362,0.181,0.815,0.272,1.178c0.181,0.362,0.181,1.087,0,1.178
	c-0.181,0.181-0.362,0.453-0.453,0.272c-0.091-0.362-0.181-0.815-0.181-0.453c0,0.543,0.091,0.543-0.091,0.543
	c-0.181,0-0.362,0-0.453-0.543c0-0.181,0-0.815,0-1.087c0-1.721-0.181-2.627-0.181-4.348c0.181-2.536,0-2.717-0.362-2.446
	c-0.091,1.359,0.091,2.536,0.272,6.522c0,0.181,0.181,0.725,0.181,0.815c0,0,0.362,1.087-0.362,1.178
	c-0.453,0.091-0.181-0.272-0.272-0.543c-0.091-0.181-0.091,0.543-0.181,0.543c-0.272,0.181-0.634-0.091-0.634-0.181
	c0-0.181,0.091-0.453,0.091-0.543c-0.091-0.362,0.272-0.815,0.272-1.178c-0.091-0.815-0.362-1.449-0.543-2.264
	c-0.543-2.174,0-1.63-0.634-3.08l-1.087-4.801v0.272l0.181,0.906c0.091,0.815,0.272,0.906,0.272,1.178
	c-0.181,0.181-0.996-0.181-1.359-0.362c-0.453-0.362-0.634-0.725-1.087-0.634l-0.634,0.091c0.181,0.634-1.359,1.812-0.181,4.257
	c0.725,1.359,1.087,0.906,1.359,1.902c0.181,0.543-0.906-0.996-0.543-0.272c0.091,0.181,0.272,0.272,0.272,0.362
	c-0.181,0.453-1.902,0-1.902,0c-0.272-0.272,0.362-0.543-0.091-0.725c0,0.091-0.091,0.725-0.272,0
	c-0.272-0.181-0.272-1.087-0.543-2.264s-1.268-1.993-0.815-3.261c0.634-2.174-0.543-0.815-0.634-2.899l-0.091,1.54
	c-0.091,0.725-0.543,2.083-1.993,2.264c-0.634,1.178-0.725,1.63-0.725,2.174c-0.091,0.362,0,1.359,0,1.721
	c0,0.453-0.091,0.634,0,1.087c0.091,0.543,0.272,1.087,0.725,1.449c0.181,0.181,0.634,0.181,0.634,0.543
	c0.091,0.543-0.634,0-0.634,0.091c1.178,0.634-1.268,0.453-1.63-0.091c0,0,0.091-0.181,0-0.272c0,0-0.181,0.362-0.181,0.272
	s-0.181-0.181-0.181-0.453s0.181-0.725,0.181-0.815c-0.362-1.268-0.725,0.272-0.181-2.083c0.272-1.178-0.362-2.717,0.181-3.804
	c0.906-1.902,0.725-0.725,0.906-3.714L7.552,11.142z"/>
</svg>
