<?xml version="1.0" encoding="utf-8"?>
<!-- Generator: Adobe Illustrator 27.6.1, SVG Export Plug-In . SVG Version: 6.00 Build 0)  -->
<svg version="1.1" id="hamster" xmlns="http://www.w3.org/2000/svg" xmlns:xlink="http://www.w3.org/1999/xlink" x="0px" y="0px"
	 viewBox="0 0 32 32" style="enable-background:new 0 0 32 32;" xml:space="preserve">
<path d="M25.306,19.938c0.065,0.8,0.081,1.603,0.048,2.405c-0.01,0.701-0.297,1.444-0.552,2.089
	c-0.169,0.515-0.368,1.019-0.596,1.511c-0.561,1.027-1.247,2.378-2.633,2.252c-0.95-0.085-2.146,0.307-2.892-0.396
	c-0.09,0.03-0.167,0.089-0.217,0.169c-0.057,0.095-0.148,0.165-0.256,0.194c-0.087,0.029-0.183,0.015-0.257-0.038
	c-0.085,0.256,0.069,0.394,0.085,0.651c0.014,0.156-0.003,0.314-0.048,0.464c-0.097,0.312-0.478,0.373-0.696,0.573
	c-0.371,0.344-1.152,0.704-1.618,0.326c-0.072,0.012-0.149,0.019-0.226,0.024c-0.24,0.037-0.485,0.022-0.718-0.043
	c-0.119-0.047-0.2-0.23-0.309-0.249c-0.017-0.002-0.033-0.006-0.048-0.014c-0.179,0.024-0.36,0.014-0.535-0.029
	c-0.067-0.019-0.119-0.071-0.138-0.138c-0.145-0.596,0.356-0.833,0.836-1.019c0.393-0.152,0.811-0.01,1.174-0.29
	c0.281-0.218,0.597-0.342,0.582-0.68c-0.029-0.004-0.058-0.014-0.083-0.029c-0.984-0.596-1.217-2.081-1.254-3.147
	c-0.025-0.437,0.016-0.876,0.119-1.302c-0.097-0.058-0.171-0.148-0.211-0.254c-0.037-0.075-0.06-0.156-0.071-0.238
	c-0.012-0.185,0.066-0.162-0.102-0.207c-0.257-0.069-0.399-0.378-0.495-0.592c-0.133-0.288-0.272-0.573-0.417-0.855
	c-0.253-0.008-0.493-0.118-0.665-0.304c-0.216-0.223-0.19-0.28-0.497-0.28c-0.166-0.018-0.317-0.102-0.42-0.232
	c-0.153-0.144-0.263-0.328-0.32-0.53c-0.007-0.055-0.014-0.11-0.019-0.166c-0.019,0-0.038-0.002-0.064-0.002
	c-0.468,0-0.554-0.318-0.642-0.694c-0.022,0.039-0.055,0.071-0.095,0.093c-0.143,0.079-0.323,0.041-0.423-0.088
	c-0.166,0.04-0.288,0.155-0.473,0.128c-0.145-0.021-0.192-0.2-0.207-0.325c-0.013,0.014-0.027,0.027-0.041,0.04
	c-0.024,0.018-0.051,0.032-0.079,0.041c-0.009,0.013-0.02,0.025-0.033,0.035c-0.331,0.29-0.739,0.463-1.086,0.107
	c-0.183-0.188-0.242-0.516-0.324-0.755c-0.1-0.244-0.153-0.503-0.161-0.766c0.008-0.313,0.17-0.603,0.433-0.774
	c0-0.002-0.002-0.002-0.002-0.003c0.001-0.167,0.07-0.327,0.192-0.442c-0.073-0.099-0.101-0.223-0.077-0.344
	c0.028-0.132,0.088-0.254,0.174-0.357c-0.221-0.342-0.128-0.827,0.062-1.16c-0.036,0.064-0.207-0.411-0.214-0.45
	c-0.019-0.202,0.022-0.406,0.117-0.585c-0.034-0.193,0.001-0.391,0.098-0.561c0.109-0.223,0.086-0.135,0.035-0.36
	c-0.022-0.097-0.037-0.196-0.043-0.295C9,11.934,9.036,11.824,9.106,11.735c0.113-0.136,0.062-0.309,0.071-0.464
	c0.014-0.211,0.081-0.416,0.195-0.594c-0.009-0.007-0.021-0.012-0.03-0.019C9.193,10.468,9.12,10.23,9.137,9.99
	c-0.347,0.068-0.682,0.183-0.998,0.342c-0.378,0.188-0.906,0.338-1.138,0.717c-0.056,0.095-0.178,0.126-0.273,0.071
	s-0.126-0.178-0.071-0.273c0.256-0.418,0.699-0.568,1.119-0.777c0.235-0.12,0.556-0.372,0.813-0.417
	C8.774,9.621,8.962,9.6,9.149,9.574V9.55c0.003-0.079,0.007-0.154,0.01-0.226C8.898,9.208,8.415,9.25,8.144,9.284
	C7.754,9.344,7.369,9.429,6.99,9.54C6.884,9.57,6.775,9.508,6.745,9.402c-0.03-0.106,0.032-0.215,0.138-0.245
	c0.679-0.18,1.599-0.465,2.318-0.238c0.007-0.038,0.016-0.076,0.024-0.113C8.634,8.54,8.047,8.171,7.38,8.266
	C7.13,8.3,7.02,7.919,7.273,7.883C7.639,7.82,8.016,7.851,8.366,7.975C8.687,8.101,8.998,8.263,9.314,8.41
	c0-0.007,0-0.014,0.002-0.021c0.078-0.416,0.278-1.05,0.641-1.302c0.211-0.145,0.321-0.39,0.551-0.527
	c0.035-0.02,0.071-0.036,0.109-0.048c0.002-0.229,0.124-0.44,0.321-0.556c-0.057-0.442,0.131-0.746,0.437-1.064
	c-0.029-0.554,0.27-1.423,0.82-1.563c0.028-0.007,0.058-0.009,0.086-0.005c0.051-0.022,0.107-0.03,0.162-0.024
	c0.131,0.009,0.256,0.06,0.356,0.145c0.138,0.107,0.133,0.349,0.28,0.475c0.15,0.167,0.241,0.379,0.257,0.603
	c0.088,0.013,0.172,0.047,0.243,0.1c0.113,0.085,0.248,0.014,0.378,0.014c0.162-0.01,0.324,0.031,0.463,0.116
	c0.1,0.079,0.204,0.152,0.312,0.219c0.326-0.14,0.917-0.069,1.131,0.193c0.342,0.014,0.677-0.083,1.029,0.014
	c0.242,0.068,0.435,0.221,0.675,0.287c0.062,0.016,0.121,0.046,0.171,0.086c0.286-0.103,0.581-0.182,0.881-0.236
	c0.325-0.097,0.661-0.157,1-0.178c0.718-0.01,0.687,0.437,0.806,1.05c0.218,1.119-0.055,2.457-1.162,2.935
	c0.071,0.054,0.257,0.119,0.304,0.15c0.105,0.067,0.202,0.146,0.288,0.236c0.138,0.147,0.168,0.414,0.302,0.54
	c0.194,0.178,0.489,0.203,0.67,0.409c0.141,0.181,0.263,0.375,0.364,0.581c0.35,0.127,0.639,0.381,0.81,0.711
	c0.164,0.203,0.346,0.391,0.542,0.563c0.179,0.189,0.345,0.39,0.495,0.603c0.026,0.035,0.038,0.079,0.034,0.123
	c0.185,0.399,0.414,1.129,0.668,1.348c0.279,0.223,0.497,0.513,0.634,0.843c0.366,0.894,0.808,1.911,0.827,2.927
	c0.11,0.591,0.037,1.19,0.102,1.781H25.306L25.306,19.938z M12.535,17.459c0.002-0.004,0.004-0.008,0.007-0.012
	c-0.002,0-0.003,0.002-0.005,0.002c0,0.001-0.001,0.004-0.001,0.008L12.535,17.459z M15.184,7.47
	c0.03-0.064,0.025-0.138-0.014-0.197c-0.077-0.116-0.182-0.212-0.304-0.278c-0.112-0.032-0.23-0.035-0.344-0.009
	c-0.124,0.026-0.218,0.055-0.223,0.2c-0.022,0.142,0,0.287,0.062,0.416c0.098,0.133,0.271,0.187,0.428,0.135
	C14.954,7.71,15.098,7.613,15.184,7.47z"/>
</svg>
