<?xml version="1.0" encoding="utf-8"?>
<!-- Generator: Adobe Illustrator 27.6.1, SVG Export Plug-In . SVG Version: 6.00 Build 0)  -->
<svg version="1.1" id="cat" xmlns="http://www.w3.org/2000/svg" xmlns:xlink="http://www.w3.org/1999/xlink" x="0px" y="0px"
	 viewBox="0 0 32 32" style="enable-background:new 0 0 32 32;" xml:space="preserve">
<style type="text/css">
	.st0{fill-rule:evenodd;clip-rule:evenodd;}
</style>
<g>
	<path class="st0" d="M16.899,2.99c0.811,0.18,1.622,0.541,2.433,1.081c0-0.451,0.09-0.901,0.36-1.171
		c0.721,0.27,1.262,0.631,1.622,1.262c1.352,0.36,2.163,1.712,2.613,4.055c0.901,1.352,0.991,2.884,0.721,4.596
		c0.901,2.073,0.991,4.145,0.36,6.218c1.532,1.982,1.081,4.686-0.721,5.677c0,1.982-2.523,2.253-5.046,2.073
		c-7.119,6.128-18.022,2.703-10.813-5.677c1.081-0.811,1.262-0.541,0.901,0.451c-2.073,4.055-1.712,6.037,0.811,6.398
		c2.163-0.09,4.055-0.631,5.226-2.163c-1.712-4.325-0.991-8.741,2.073-13.156c-0.27-1.352-0.27-2.253,0.27-2.793
		c-1.712-0.901-1.802-2.523,0-4.866C17.26,4.342,16.989,3.711,16.899,2.99z"/>
</g>
</svg>
