<?xml version="1.0" encoding="utf-8"?>
<!-- Generator: Adobe Illustrator 27.6.1, SVG Export Plug-In . SVG Version: 6.00 Build 0)  -->
<svg version="1.1" id="chicken" xmlns="http://www.w3.org/2000/svg" xmlns:xlink="http://www.w3.org/1999/xlink" x="0px" y="0px"
	 viewBox="0 0 32 32" style="enable-background:new 0 0 32 32;" xml:space="preserve">
<path d="M24.053,8.049c0.086-0.519,0.519-1.297,0.519-1.297s0.865-0.086,0.865-0.259c0-0.259-0.692-0.519-0.692-0.519L24.14,5.454
	c0,0,0.433-0.173,0.346-0.605c-0.173-0.605-0.433-0.778-0.519-0.865c-0.086-0.086-0.173,0.259-0.173,0.259s-0.173-0.692-0.346-0.346
	c-0.086,0.086-0.086,0.173-0.173,0.259c0,0-0.173-0.346-0.346-0.259c-0.173,0.086-0.519,0.519-0.346,1.038
	c0.086,0.086,0.173,0.259,0.173,0.259s-0.259,0-0.433,0.259s-0.519,0.692-0.519,0.692s-0.952,0.952-1.644,2.249
	c-0.346,0.692-1.125,3.287-1.903,3.546c-0.778,0.259-1.644,0.778-2.249,0.778c-0.605-0.086-1.644,0.173-1.644,0.173
	s-1.471-0.433-2.335-0.346c-0.865,0.086-3.114-0.086-3.546-0.259c-0.519-0.173-1.385-1.038-1.73-1.125
	c-0.346,0-0.433,0.346-0.433,0.346L5.368,10.99c0,0-0.952-0.173-1.038,0.086s0,0.433,0,0.433s-0.433,0-0.519,0.173
	c0,0.259,0.173,0.519,0.173,0.519s-0.345,0.174-0.173,0.606c0.173,0.433,0.433,1.038,0.692,1.471
	c0.173,0.346,1.038,0.778,1.038,0.778s-0.519-0.086-0.519,0c0,0.173,0.086,0.692,0.346,0.865c0.259,0.173,1.038,1.125,1.038,1.125
	s-0.692,0.259-0.433,0.605c0.173,0.346,0.605,0.778,0.952,0.865c0.346,0.173,1.385,0.865,1.385,0.865s-0.519,0.605-0.433,1.125
	c0.173,0.519,1.471,2.076,1.73,2.422c0.346,0.259,2.595,1.471,2.768,1.73c0.086,0.346,1.125,2.682,1.297,3.72
	c0,0.086-0.086,0.173-0.173,0.346c-0.173,0.086-0.346,0.259-0.433,0.259s-0.692,0.086-0.778,0.086c-0.086,0-0.519,0.086-0.519,0.259
	c0,0.086,0.086,0,0.346,0c0.173,0,0.692-0.086,0.778,0c0.086,0,0.605,0,0.692,0.086c0.086,0,0.346,0,0.605,0
	c0.086,0,0.173,0.086,0.173,0.086c0.173,0,0.519,0.173,0.519,0.173s0.865,0.086,1.125,0.086c0.086,0,0.259,0.086,0.346,0
	c0.173,0,0.259-0.086,0.433-0.086c0.086,0,0.259,0,0.259,0s-0.173-0.173-0.259-0.173c-0.086,0-0.259-0.086-0.346,0
	c-0.086,0-0.173,0-0.346,0l-0.086-0.086c0.173,0,0.346,0,0.346,0c0.086,0,0.346,0,0.346,0h0.173c0,0,0,0,0-0.086l0,0
	c0,0,0,0,0.086,0c0.086,0.086,0.433,0.173,0.778,0.259l0,0l0,0c0.259,0.086,0.433,0.086,0.605,0.086c0.259,0,1.038,0,1.038,0l0,0
	c0.086,0,0.086,0,0.086,0s0.086,0,0.173,0c0,0-0.086-0.173-0.173-0.173s-0.259,0-0.346,0s-0.433-0.086-0.433-0.086v-0.086h0.086
	h0.778c0.086,0,0.086,0,0.173,0h0.173c0,0,0-0.173-0.173-0.173c-0.086,0-0.086,0-0.173,0c-0.086-0.086-0.086-0.086-0.173-0.086
	c-0.086,0-0.605,0.086-0.952,0.086c-0.086,0-0.086,0-0.173-0.086c-0.086,0-0.605-0.086-0.692-0.086c0,0-0.433-0.173-0.692-0.346
	c-0.259-0.433-0.692-1.211-0.692-1.385l0.173-2.249c0,0,0.259-0.173,0.433-0.433c0.174-0.26,0.952-1.471,1.125-1.471
	c0.086,0,1.816-0.952,1.903-1.038c0.173-0.086,1.73-1.557,1.73-1.557s2.163-1.125,2.422-1.471c0.259-0.346,1.99-2.422,0.778-5.969
	c-1.125-3.201-0.865-3.374-0.865-3.46C23.794,9.52,23.967,8.568,24.053,8.049L24.053,8.049z M16.009,28.119
	c-0.086,0.605-0.259,0.519-0.519,0.605c-0.259,0.086-0.519-0.086-0.519-0.173c0-0.086-0.778-1.471-0.865-1.644
	c-0.086-0.173-0.346-1.557-0.346-1.816c0.086-0.259,1.211-0.605,1.211-0.605c0,0.259,0.605,1.903,0.605,1.903
	C15.662,26.475,16.095,27.512,16.009,28.119L16.009,28.119z"/>
</svg>
