<?xml version="1.0" encoding="utf-8"?>
<!-- Generator: Adobe Illustrator 27.6.1, SVG Export Plug-In . SVG Version: 6.00 Build 0)  -->
<svg version="1.1" id="soybean" xmlns="http://www.w3.org/2000/svg" xmlns:xlink="http://www.w3.org/1999/xlink" x="0px" y="0px"
	 viewBox="0 0 32 32" style="enable-background:new 0 0 32 32;" xml:space="preserve">
<path d="M8.702,22.29c0.097-0.097,0.29-0.097,0.387-0.097c0.773-0.29,1.16-0.773,1.16-1.643c0-0.29,0.097-0.387,0.29-0.58
	s0.29-0.29,0.387-0.58c0.097-0.29,0.097-0.677,0-0.967c0-0.193,0-0.29,0.097-0.387c0.097-0.097,0.193-0.29,0.29-0.387
	c0.29-0.483,0.29-0.967,0.193-1.547c-0.097-0.58-0.193-1.16-0.29-1.74c0-0.483,0.097-0.967,0.387-1.353
	c0.097-0.097,0.193-0.097,0.29,0c0.193,0.483,0.193,0.967,0,1.45c-0.097,0.29-0.193,0.58-0.097,0.87
	c0.097,0.193,0.097,0.387,0.193,0.677c0.097,0.193,0.097,0.29,0,0.483c-0.29,0.387-0.29,0.87-0.097,1.257
	c0.097,0.193,0.097,0.483,0,0.677c-0.193,0.387-0.193,0.677-0.193,1.063c0,0.193,0.097,0.387,0.193,0.58
	c0.387-0.29,0.677-0.483,0.87-0.967c0.097-0.29,0.097-0.483,0-0.773c-0.097-0.193,0-0.483,0.097-0.677
	c0.097-0.097,0.097-0.193,0.097-0.387c0.097-0.29,0-0.58-0.097-0.87s-0.097-0.483,0-0.773c0.097-0.193,0.097-0.387,0.097-0.483
	c0-0.387-0.097-0.773-0.29-1.063c-0.29-0.387-0.387-0.87-0.58-1.353c0-0.097,0-0.193,0.097-0.29
	c0.967-0.677,2.127-0.483,2.803,0.483c0.483,0.773,0.58,1.643,0.483,2.513c-0.097,0.967-0.483,1.837-1.063,2.513
	c-0.387,0.483-0.773,0.87-1.16,1.353c-0.58,0.677-0.967,1.353-1.257,2.223c-0.193,0.677-0.29,1.353-0.387,2.03
	c-0.097,0.967,0,1.933,0,2.9c0.097,1.16,0.29,2.223,0.483,3.287c0.097,0.29,0.193,0.58,0.193,0.967c0.097,0,0.193-0.097,0.29-0.097
	s0.097-0.097,0.097-0.193c-0.097-0.387-0.193-0.773-0.29-1.257c-0.29-1.16-0.483-2.417-0.58-3.673
	c-0.097-1.063-0.097-2.03,0.097-3.093c0.193-0.967,0.483-1.933,1.16-2.707c0.29-0.387,0.677-0.677,1.063-0.773
	c0.677-0.193,1.16,0.097,1.16,0.773c0.097,0.483,0,0.967-0.29,1.45c-0.193,0.387-0.29,0.773-0.193,1.16
	c0.097,0.29,0.097,0.58,0.193,0.773c0.097,0.193,0.097,0.387-0.097,0.483c0.097,0.097,0,0.193,0,0.387
	c-0.193,0.387-0.193,0.87,0,1.257c0.097,0.29,0.097,0.58-0.097,0.773c-0.29,0.387-0.29,0.773-0.29,1.257
	c0,0.29,0.097,0.58,0.193,0.773c0.097-0.097,0.193-0.097,0.29-0.193c0.677-0.483,1.16-1.063,0.87-2.03
	c-0.097-0.193,0-0.387,0.097-0.58c0.097-0.097,0.097-0.193,0.193-0.29c0.193-0.483,0.193-0.967,0-1.45
	c-0.097-0.29-0.097-0.483,0-0.773c0.097-0.193,0.193-0.387,0.193-0.58c0.097-0.483,0-0.967-0.193-1.353
	c-0.193-0.387-0.29-0.773-0.483-1.16c-0.097-0.193-0.097-0.387-0.193-0.58c0.097,0,0.097,0,0.097,0.097
	c0.387,0.387,0.58,0.773,0.677,1.257c0,0.387,0.193,0.773,0.387,0.967c0.193,0.193,0.387,0.29,0.58,0.483
	c0.193,0.097,0.29,0.29,0.193,0.483c0,0.097,0,0.097,0,0.193c0,0.387,0.097,0.677,0.387,0.967c0.097,0.097,0.193,0.193,0.387,0.29
	c0.097,0.097,0.193,0.193,0.193,0.29s0,0.193,0.097,0.29c0.097,0.677,0.483,1.16,1.063,1.547c0.193-0.29,0.29-0.677,0.29-0.967
	c0-0.483-0.193-0.87-0.483-1.16c-0.193-0.193-0.29-0.387-0.29-0.677c0-0.193,0-0.29-0.097-0.483
	c-0.097-0.387-0.387-0.58-0.677-0.773s-0.387-0.387-0.387-0.677s-0.193-0.58-0.387-0.87c-0.193-0.29-0.483-0.483-0.773-0.58
	c-0.387-0.193-0.677-0.483-1.063-0.773s-0.773-0.387-1.257-0.387c-0.097,0-0.193,0-0.193,0.097l0,0l0.097-0.097
	c0.58-0.387,1.16-0.773,1.74-1.063c0.87-0.387,1.837-0.87,2.707-1.257c0.193-0.097,0.387-0.193,0.677-0.29
	c0.29-0.097,0.58,0,0.87,0.193c0.29,0.29,0.483,0.677,0.677,1.063c0.097,0.193,0.193,0.483,0.29,0.677
	c0.483,0.87,1.353,1.063,2.223,1.063c0.58,0,1.063-0.193,1.547-0.387c0.483-0.193,0.87-0.387,1.353-0.483
	c0.193-0.097,0.29-0.097,0.483-0.097c-0.097-0.193-0.29-0.29-0.387-0.483c-0.29-0.387-0.58-0.773-0.773-1.16
	c-0.29-0.483-0.677-0.967-1.16-1.257c-0.387-0.29-0.87-0.483-1.353-0.483s-0.967,0.193-1.45,0.483
	c-0.29,0.193-0.58,0.387-0.967,0.483c-0.29,0.097-0.58,0.097-0.967,0c0.097-0.097,0.29-0.193,0.387-0.29
	c0.483-0.387,0.87-0.773,1.45-0.967c0.387-0.193,0.773-0.29,1.257-0.193c0.29,0,0.58,0.097,0.87,0.193
	c0.967,0.193,1.837-0.097,2.417-0.773c0.483-0.483,0.677-1.063,0.87-1.74c0.097-0.387,0.193-0.87,0.29-1.257
	c0.097-0.483,0.29-0.967,0.58-1.353c0.097-0.193,0.193-0.29,0.29-0.483c-0.193,0.097-0.387,0.097-0.58,0.193
	c-0.677,0.193-1.45,0.29-2.127,0.29s-1.257,0.097-1.933,0.29c-0.967,0.387-1.643,1.063-1.74,2.127c-0.097,0.387,0,0.677,0,1.063
	c0,0.387-0.097,0.773-0.29,1.16c-0.483,0.677-1.063,1.16-1.643,1.74c0,0,0,0-0.097,0c0-0.29,0-0.58,0.097-0.773
	c0.097-0.29,0.387-0.58,0.58-0.773s0.387-0.387,0.58-0.58c0.483-0.773,0.483-1.547,0.097-2.32c-0.193-0.58-0.677-0.967-1.063-1.353
	c-0.387-0.387-0.677-0.677-0.967-1.063c-0.193-0.097-0.29-0.29-0.29-0.483c0,0.097-0.097,0.193-0.097,0.29
	c-0.193,0.483-0.483,0.87-0.773,1.353c-0.193,0.387-0.387,0.677-0.58,1.063c-0.193,0.483-0.29,0.967-0.193,1.547
	c0,0.483,0.193,0.87,0.483,1.16c0.193,0.29,0.483,0.483,0.773,0.58c0.387,0.193,0.773,0.58,0.967,0.967
	c0.097,0.193,0.097,0.483-0.097,0.677c-0.194,0.194-0.29,0.29-0.483,0.387c-0.387,0.193-0.773,0.387-1.16,0.58
	c-0.967,0.387-1.933,0.87-2.803,1.353h-0.097c0-0.097,0.097-0.097,0.097-0.097c0.58-0.967,1.063-1.933,1.16-2.997
	c0.097-0.677,0-1.45-0.193-2.127c-0.097-0.387-0.29-0.773-0.387-1.257c-0.193-0.58-0.097-1.063,0.193-1.547
	c0.097-0.097,0.097-0.193,0.193-0.29c0.097-0.29,0.193-0.29,0.483-0.193c0.097,0,0.193,0.097,0.29,0.193
	c0.29,0.193,0.677,0.097,0.967-0.193c0.097-0.193,0.193-0.387,0.29-0.58c-0.193-0.097-0.29-0.097-0.483-0.193
	c-0.097,0-0.193-0.097-0.29-0.097c-0.387-0.097-0.677,0.097-0.773,0.387c0,0.097-0.097,0.193-0.193,0.29
	c0,0.097-0.097,0.097-0.193,0.097l0,0c0.097-0.387,0.193-0.773,0.677-0.87c0.193-0.097,0.387-0.193,0.483-0.483
	c0.097-0.193,0-0.387,0-0.58c-0.097-0.29-0.193-0.58-0.193-0.87c-0.193,0.097-0.29,0.29-0.387,0.387
	c-0.097,0.097-0.193,0.193-0.29,0.29c-0.387,0.29-0.483,0.773-0.193,1.16c0.193,0.29,0.193,0.773,0,1.063
	c0-0.097-0.097-0.193-0.097-0.193c0-0.097,0-0.193,0-0.29c0.097-0.387-0.097-0.677-0.387-0.773c-0.29-0.097-0.58-0.193-0.87-0.29
	c0,0.097,0,0.29,0,0.387c0,0.193,0,0.387,0.097,0.58c0.097,0.387,0.387,0.483,0.677,0.483c0.097,0,0.193,0,0.29,0
	c0.193,0,0.29,0.193,0.193,0.387c0,0.097-0.097,0.193-0.193,0.29c-0.193,0.29-0.29,0.677-0.29,1.063v0.097l0,0
	c-0.097-0.097-0.29-0.193-0.387-0.29c-0.387-0.387-0.677-0.773-1.063-1.16c-0.387-0.387-0.677-0.87-0.87-1.45
	c-0.097-0.29,0-0.483,0.193-0.677c0.29-0.193,0.58-0.193,0.87-0.193c0.58,0,0.967-0.29,1.257-0.87
	c0.193-0.483,0.29-0.967,0.193-1.547c-0.097-0.387-0.097-0.773-0.097-1.16c-0.193,0.097-0.387,0.193-0.58,0.29
	s-0.387,0.097-0.58,0.193c-0.29,0.097-0.677,0.193-0.967,0.483c-0.58,0.483-0.773,1.063-0.483,1.74
	c0.097,0.193,0.097,0.29,0.097,0.483c0,0.29,0,0.483-0.193,0.677c-0.097-0.29-0.29-0.677-0.387-0.967
	c-0.097-0.387-0.193-0.773-0.097-1.063c0.097-0.193,0.193-0.387,0.29-0.58c0.193-0.483,0.193-0.967,0-1.45
	c-0.29-0.483-0.677-0.773-1.16-0.967c-1.063-0.387-1.643-0.677-2.03-1.16l0,0v0.097c0.097,0.483,0,0.967-0.097,1.45
	c-0.193,0.387-0.29,0.87-0.29,1.353s0.193,0.87,0.58,1.16c0.29,0.193,0.58,0.29,0.87,0.387c0.483,0.097,0.773,0.29,1.063,0.773
	c0.193,0.193,0.29,0.483,0.387,0.773c0.097,0.097,0.097,0.193,0.097,0.29c-0.29,0-0.483-0.097-0.58-0.29s-0.29-0.29-0.387-0.483
	c-0.097-0.483-0.483-0.773-1.063-0.87c-0.29,0-0.677,0.097-0.967,0.193c-0.58,0.29-0.967,0.677-1.547,0.773
	C7.638,7.403,7.735,7.5,7.735,7.597C7.928,7.79,8.122,8.08,8.412,8.273c0.29,0.29,0.58,0.58,0.967,0.677
	c0.677,0.193,1.257,0.097,1.643-0.387c0.193-0.193,0.387-0.387,0.773-0.483c0.29-0.097,0.483,0,0.58,0.29
	c0.483,0.967,1.16,1.837,1.933,2.61c0.193,0.193,0.387,0.387,0.483,0.58c0.29,0.677,0.483,1.353,0.58,2.03c0,0.097,0,0.29,0,0.387
	l0,0c0,0,0,0,0-0.097c-0.097-0.483-0.29-0.967-0.58-1.353c-0.483-0.677-1.353-0.967-2.127-0.677c-0.58,0.193-1.063,0.58-1.353,1.16
	c-0.097,0.29-0.193,0.58-0.387,0.773c-0.29,0.773-0.773,1.257-1.643,1.547c-0.387,0.097-0.773,0.387-1.063,0.677
	c-0.097,0.193-0.29,0.387-0.387,0.58c-0.097,0.483-0.29,0.58-0.58,0.58c-0.387,0-0.677,0.193-0.967,0.58
	c-0.097,0.097-0.193,0.29-0.29,0.483c-0.097,0.29-0.29,0.387-0.58,0.483c-0.387,0.097-0.773,0.29-1.063,0.58
	c-0.29,0.29-0.483,0.58-0.58,0.967c0.29,0.097,0.483,0.097,0.773,0.097c0.677,0.097,1.16-0.097,1.547-0.677
	c0-0.097,0.097-0.193,0.097-0.29c0.193-0.193,0.29-0.29,0.483-0.29c0.483-0.097,0.87-0.29,1.16-0.677
	c0.097-0.193,0.193-0.387,0.29-0.483c0.097-0.193,0.193-0.29,0.387-0.387c0.097,0,0.193-0.097,0.29-0.097
	c0.387-0.097,0.58-0.29,0.87-0.58c0.29-0.29,0.387-0.677,0.58-1.063c0.193-0.483,0.483-0.967,0.677-1.45c0,0,0,0,0.097,0
	c0,0.097,0,0.097,0,0.193c0,0.483-0.193,0.967-0.483,1.353c-0.193,0.29-0.387,0.58-0.387,0.967c0,0.29,0,0.483,0,0.773
	c0.097,0.29,0,0.483-0.193,0.677c-0.29,0.193-0.387,0.483-0.483,0.87c0,0.193,0,0.483,0,0.677s0,0.29-0.193,0.483
	c-0.097,0.097-0.193,0.193-0.29,0.29C8.702,21.13,8.605,21.613,8.702,22.29C8.702,22.193,8.702,22.193,8.702,22.29z"/>
</svg>
