<?xml version="1.0" encoding="utf-8"?>
<!-- Generator: Adobe Illustrator 27.6.1, SVG Export Plug-In . SVG Version: 6.00 Build 0)  -->
<svg version="1.1" id="macaque" xmlns="http://www.w3.org/2000/svg" xmlns:xlink="http://www.w3.org/1999/xlink" x="0px" y="0px"
	 viewBox="0 0 32 32" style="enable-background:new 0 0 32 32;" xml:space="preserve">
<path d="M26.574,6.19c0,0-0.333-0.913-0.498-0.997c-0.249-0.083-1.08-0.663-1.412-0.747c-0.332-0.083-0.664-0.415-1.329-0.333
	c-0.664,0.084-1.412,0.25-1.661,0.499c-0.249,0.333-1.08,1.162-1.08,1.162s-0.249,1.246-0.415,1.412
	c-0.166,0.249-0.831,0.913-1.08,1.08C18.85,8.432,16.69,8.93,14.78,10.591s-3.239,4.319-3.655,5.731
	c-0.333,1.412-0.913,4.319-0.913,4.319s-0.333,3.239-0.083,3.904c0.25,0.664,0.166,1.329-0.083,1.827
	c-0.249,0.498-2.242,1.162-3.156,0.498c-0.831-0.664-1.744-1.744-0.831-5.731s0.664-5.066-0.083-5.897s-2.409-1.08-2.824-0.913
	c-0.333,0.166-0.498,0.664,0.997,0.913c1.162,0.249,1.412,1.162,1.412,2.076c-0.083,3.82-1.08,4.984-0.913,7.309
	c0.166,2.326,1.662,3.571,3.073,3.82s3.239-0.415,3.488-0.415c0.249,0,1.08,0.249,1.08,0.249s0.415,0.166,0.913,0.166
	c0.498,0,0.831,0.249,0.913,0.249c0.166,0-0.083,0.498,0.747,0.333c0.831-0.166,2.076-0.249,2.076-0.249s0.747-0.166,1.246-0.083
	c0.498,0.083,1.512,0.366,1.512,0.366s1.02-0.083,1.353,0c0.333,0.083,0.707,0.049,0.707-0.366c-0.083-0.415-0.333-1.08-0.333-1.08
	s0.333-0.415,0.249-0.913c-0.166-0.498-0.913-1.246-0.913-1.246l-0.249-0.498c0,0,0.249-0.498,0.083-1.246
	c-0.166-0.664-0.083-1.993-0.083-1.993l0.333-0.913c0,0,0.498,0.415,0.582,0.415s0.249,0.664,0.333,0.831
	c0.083,0.166-0.333,0.166-0.249,0.498c0.083,0.333,0.249,0.664,0.249,0.664s-0.333-0.498-0.664-0.498
	c-0.249,0.083-0.415,0.415-0.249,0.664c0.249,0.249,0.664,0.747,0.997,0.664c0.333-0.083,0.997-0.913,1.08-1.08
	c0.083-0.249-0.166-1.08-0.083-1.495c0.083-0.415,0.415-0.913,0.083-1.578s-0.831-0.582-1.08-1.162c0,0-0.415-0.664,0.083-1.08
	c0.498-0.498,1.08-1.993,1.412-2.409c0.249-0.498,0.498-0.997,0.582-1.495c0.083-0.498,0-1.246,0-1.246l0.166-0.333l0.747-0.249
	c0,0,0.498-0.083,0.664-0.249c0.166-0.249,0.333-0.498,0.333-0.498s0.498-0.249,0.582-0.664c0.083-0.333,0-0.664,0-0.664
	s-0.166-0.664-0.083-0.913l0.247-1.08c0,0,0.498-0.083,0.498-0.498C26.907,6.854,26.574,6.19,26.574,6.19L26.574,6.19z"/>
</svg>
