<?xml version="1.0" encoding="utf-8"?>
<!-- Generator: Adobe Illustrator 27.6.1, SVG Export Plug-In . SVG Version: 6.00 Build 0)  -->
<svg version="1.1" id="barell_x5F_medic" xmlns="http://www.w3.org/2000/svg" xmlns:xlink="http://www.w3.org/1999/xlink" x="0px"
	 y="0px" viewBox="0 0 32 32" style="enable-background:new 0 0 32 32;" xml:space="preserve">
<path id="McGwXH_1_" d="M29.566,29.647c-0.374-0.28-0.654-0.654-1.028-0.935c-0.561-0.374-1.121-0.654-1.775-0.654
	c-0.094,0-0.187,0-0.28,0.187c-0.187,0.374-0.374,0.654-0.654,0.935c-0.187,0.094-0.374,0.187-0.467,0.374c0,0-0.094,0-0.187,0
	c-0.094,0-0.094-0.094,0-0.094l0,0c0-0.094,0-0.28,0-0.374c0.187-0.28,0.374-0.654,0.654-0.935c0.28-0.28,0.561-0.374,0.935-0.28
	c0.187,0,0.374,0.094,0.561,0.094c-0.187-0.187-0.374-0.28-0.654-0.374c-0.187-0.094-0.28-0.094-0.467-0.187c0,0,0,0,0-0.094
	c0,0,0,0,0.094,0c0.187,0.094,0.374,0.187,0.561,0.187c-0.187-0.094-0.28-0.187-0.467-0.28c-0.28-0.187-0.561-0.28-0.935-0.28
	c0,0,0,0-0.094,0v-0.094h0.094c0,0,0.094,0,0.094-0.094c0,0,0-0.094-0.094-0.094c-0.187-0.094-0.374-0.094-0.467-0.187
	c-0.094,0-0.28-0.094-0.374-0.187c-0.654-0.187-1.215-0.467-1.869-0.654c-0.467-0.187-1.028-0.374-1.495-0.467
	c-0.187,0-0.374-0.094-0.561-0.094s-0.28-0.094-0.467-0.094c-0.28-0.094-0.561-0.094-0.841-0.187
	c-0.187-0.094-0.467-0.094-0.654-0.187c-0.094,0-0.094,0-0.187,0c-0.28-0.094-0.654-0.094-0.935-0.187
	c-0.094,0-0.28-0.094-0.374-0.094c-0.187,0-0.28,0-0.467-0.094c-0.187,0-0.28,0-0.467-0.094c-0.187,0-0.28,0-0.467,0
	c-1.121-0.094-2.336-0.094-3.457-0.187c-0.654,0-1.308,0-1.962,0.094c-0.654,0-1.308,0.094-1.962,0.094
	c-0.374,0-0.841,0-1.215,0.094c-0.094,0-0.28,0.28-0.187,0.374C7.42,25.16,7.514,25.814,7.7,26.468l0,0
	c-0.094,0.187-0.094,0.374-0.187,0.561l0,0c-0.187,0-0.187,0.094-0.28,0.28c0,0.094-0.094,0.094-0.094,0
	c-0.094-0.094-0.28,0-0.28,0.094c-0.094,0.094-0.094,0.094-0.187,0c-0.094-0.094-0.28-0.094-0.467-0.187H6.112
	c-0.094,0.094-0.187,0.094-0.187,0c0,0.094-0.187,0-0.28,0c-0.093,0-0.094,0-0.187-0.094c0-0.094-0.094-0.28-0.28-0.28l-0.094-0.094
	c0-0.094,0.094-0.28-0.094-0.28v-0.094c0-0.094,0.187-0.187,0-0.28v-0.094c0.467-0.561,0.841-1.028,1.402-1.495
	c0.187,0,0.28-0.094,0.374-0.187c-0.28,0-0.654,0.094-0.935,0.094c-0.187,0-0.28,0.094-0.467,0.187
	c-0.467,0.374-0.935,0.747-1.402,1.215c-0.094,0.094-0.187,0.187-0.28,0.187c-0.094,0.094-0.187,0.187-0.374,0.094l0,0
	c-0.094,0-0.28,0.187-0.28,0.094c-0.094-0.094-0.187-0.094-0.28-0.094H2.654c0-0.187-0.187-0.187-0.28-0.28c0,0,0,0,0-0.094
	c0.094-0.187-0.094-0.187-0.094-0.28c-0.094-0.094-0.094-0.28-0.187-0.28v-0.094c0-0.187,0.187-0.374-0.094-0.467l0,0
	c0.187-0.094,0.094-0.28,0.094-0.374c0-0.187-0.094-0.28,0.094-0.374c0,0,0-0.187,0-0.28c0-0.094,0.094-0.094,0.094-0.187
	c0-0.094,0-0.094,0.094-0.187c0.094,0,0.094-0.094,0.187-0.094c0.094-0.187,0.187-0.187,0.374-0.187h0.094
	c0.094-0.187,0.28-0.094,0.374,0c0.747,0.28,1.402,0.747,2.055,1.121c0.187,0.187,0.374,0.187,0.654,0.187
	c0.28,0,0.654-0.094,0.935-0.094c-0.467,0-0.654-0.374-1.028-0.561l-0.094-0.094c-0.374-0.187-0.654-0.561-0.935-0.841
	c-0.094,0-0.094-0.094,0-0.187c0,0,0-0.187,0-0.28c0-0.093-0.093-0.184,0.095-0.184c0.094,0,0.094-0.094,0.094-0.187
	c-0.094-0.187,0-0.187,0.187-0.28c0.094,0,0.094-0.094,0.187-0.094c0.094,0,0.187,0,0.187-0.187l0.094-0.094
	c0.094,0.094,0.187,0.094,0.28,0c0.094-0.094,0.28,0,0.374-0.187l0.094,0.094c0.094,0,0.187,0.094,0.28,0
	c0.094-0.187,0.187,0,0.187,0c0.094,0.094,0.094,0.187,0.28,0.094c0,0,0.094,0,0.094,0.094c-0.094,0.187-0.094,0.374,0.094,0.374
	v0.094c0.094,0.654,0,1.215-0.187,1.775c0,0.094-0.094,0.187-0.187,0.374c-0.094,0.094,0,0.187,0.094,0.187c0.28,0,0.561,0,0.841,0
	c1.215-0.094,2.523-0.094,3.737-0.187c0.467,0,0.935,0,1.402,0c0.187,0,0.28,0,0.467,0c0.094,0,0.187,0,0.28-0.094c0,0,0,0,0.094,0
	c0.094,0.187,0.28,0.094,0.467,0.094c0.374,0,0.654,0.094,1.028,0.094c0.374,0,0.654,0.094,1.028,0.094
	c0.374,0,0.841,0.094,1.215,0.094c0.374,0.094,0.841,0.187,1.215,0.28c0.374,0.094,0.654,0.094,1.028,0.187
	c0.094,0,0.187,0.094,0.28,0.094c0.094,0,0.187,0.094,0.28,0.094c0.093,0,0.187,0,0.187,0c0.094,0.094,0.187,0,0.28,0.094
	c0.094,0,0.187,0.094,0.28,0.187c0.467,0.187,0.935,0.28,1.402,0.467c0.187,0.094,0.467,0.094,0.654,0.187
	c0.28,0.187,0.654,0.187,0.935,0.374c0.094,0,0.187,0.094,0.28,0l-0.094-0.094c-0.28-0.187-0.467-0.374-0.747-0.654
	c-0.187-0.187-0.374-0.28-0.654-0.28v-0.094c0.094,0,0.187,0,0.28,0c0.187,0.094,0.187-0.094,0.187-0.094s0,0-0.094,0h-0.094
	c-0.094-0.094-0.094-0.187-0.28-0.187c-0.094,0-0.187-0.094-0.28-0.187c-0.094-0.094-0.187-0.187-0.28-0.094
	c-0.094,0-0.094-0.094-0.187-0.187c-0.094-0.094-0.187-0.187-0.28-0.187c-0.094,0.094-0.094-0.187-0.187-0.094
	c-0.094-0.28-0.28-0.28-0.467-0.374c-0.187-0.187-0.467-0.28-0.654-0.374c-0.094-0.094-0.187-0.187-0.28,0l0,0
	c0-0.094-0.094-0.187-0.094-0.187c-0.094,0.094-0.094,0-0.187-0.094c-0.28-0.187-0.561-0.374-0.841-0.467h-0.094
	c-0.094,0-0.094,0-0.094-0.094c0,0,0-0.094-0.094-0.094c-0.28-0.094-0.561-0.28-0.841-0.374c-0.187-0.094-0.28-0.187-0.374-0.187
	c-0.187-0.094-0.374-0.094-0.467-0.187c-0.094,0-0.187,0-0.187,0c-0.094,0-0.094-0.094-0.187-0.094
	c-0.187-0.094-0.467-0.187-0.654-0.28c-0.187-0.094-0.374-0.094-0.561-0.187c-0.094,0-0.187-0.094-0.374-0.187
	c-0.094-0.094-0.28-0.094-0.374-0.187c-0.747-0.28-1.495-0.561-2.243-0.841c-0.374-0.094-0.747-0.28-1.121-0.374
	c-0.187-0.094-0.28-0.094-0.467-0.187c-0.094,0-0.094-0.094-0.094-0.094h-0.094c0,0,0,0-0.094,0s-0.187,0-0.187,0
	c-0.094,0,0.094-0.094-0.094-0.187c-0.187,0-0.374-0.094-0.561-0.187c-0.187-0.094-0.374,0-0.467-0.28
	c-0.187,0-0.28-0.187-0.561-0.187c-0.094,0-0.187-0.094-0.28-0.187l-0.094-0.094c-0.094,0-0.187,0.094-0.187-0.094
	c-0.28-0.094-0.467-0.374-0.841-0.374c-0.094,0-0.187,0.094-0.187,0.187c-0.094,0.374-0.374,0.654-0.561,1.028
	c-0.094,0.187-0.187,0.374-0.374,0.561c-0.094,0.094-0.187,0.187-0.28,0.28c-0.094,0.094-0.094,0.094-0.28,0.094
	c-0.094,0-0.28,0.094-0.374,0.187c-0.094,0-0.094,0.094-0.187,0c0,0-0.094,0-0.187,0s-0.187,0.187-0.28,0
	c0.187,0,0.187-0.094,0.094-0.094l0,0c-0.187,0-0.28,0-0.28-0.28l0,0c-0.28,0.094-0.187-0.187-0.187-0.28
	c0-0.094-0.094-0.187-0.28-0.187H4.244v-0.094c0.094-0.094,0.094-0.28,0-0.374c0,0,0-0.187-0.094-0.187c0,0,0-0.094,0.094-0.094
	c0.094-0.094,0.187-0.187,0-0.28c-0.094-0.094,0-0.094,0-0.187c0.187-0.094,0.094-0.187,0.094-0.28v-0.094
	c0.28,0,0.374-0.28,0.654-0.28c0.374-0.094,0.654-0.094,1.028-0.094c0.28,0,0.467,0,0.747,0H6.86c0-0.094,0-0.187-0.094-0.187
	c-0.187,0-0.28-0.187-0.374-0.094c-0.094,0-0.094,0-0.187,0.094c0.094-0.094,0-0.094-0.094-0.187
	c-0.187-0.094-0.374-0.187-0.561-0.187c0,0,0-0.094-0.094-0.094c-0.187-0.094-0.467-0.187-0.654-0.28
	c-0.28-0.094-0.561-0.187-0.747-0.28c0-0.28-0.467-0.187-0.374-0.467c0,0,0-0.094-0.094-0.094c-0.094-0.094-0.094-0.094,0-0.187l0,0
	c0-0.094,0-0.28,0-0.374c0.187-0.094,0.187-0.187,0.187-0.374c0-0.094,0-0.094,0.094-0.187l0.094-0.094
	c-0.094-0.28,0.187-0.28,0.28-0.374c0.094-0.094,0.094-0.094,0.094-0.187s-0.094-0.187,0.094-0.094c0.187,0.094,0.187,0,0.28-0.187
	c0-0.094,0.094-0.187,0.187-0.094l0,0c0.094,0,0.187-0.094,0.28-0.094c0.094,0,0.187,0.094,0.187,0c0.094-0.094,0.094-0.094,0.187,0
	c0.094,0,0.187,0.094,0.187,0c0.094-0.187,0.187-0.094,0.28,0l0.094,0.094c0.187-0.094,0.187,0.094,0.28,0.094
	c0.187-0.187,0.187,0,0.187,0.187v0.094c0.187,0.187,0.094,0.467,0.187,0.654c0.094,0.467,0.094,0.935,0.187,1.308s0,0.654,0,1.028
	c0,0.094,0,0.094,0.094,0.187c0.187,0.094,0.374,0.187,0.561,0.28c0,0,0.094,0,0.187,0v-0.094c-0.094-0.187-0.187-0.374-0.187-0.561
	c0-0.094,0-0.187-0.094-0.094l0.094-0.094c0-0.094,0-0.094,0-0.187c0-0.187-0.094-0.374-0.094-0.561c0-0.094,0-0.187,0-0.28
	c0-0.187-0.094-0.28-0.094-0.467c0-0.094-0.094-0.187,0-0.28c0,0,0-0.187,0-0.28s0-0.187,0-0.187c0.187,0,0.187-0.094,0.187-0.28
	l0.094-0.094c0.094,0.094,0.187,0,0.187-0.094s0.094-0.094,0.187-0.094c0.094,0.094,0.187,0,0.187-0.094s0.094-0.094,0.187,0
	c0.187,0,0.28,0,0.467,0.094h0.094c0.094-0.094,0.187-0.187,0.187,0.094c0,0,0.094,0.094,0.187,0.094s0.187,0,0.28,0
	c0,0,0.094,0,0.094,0.094c0,0.187,0.094,0.187,0.187,0.187s0.094,0,0.094,0.094c0,0.187,0.094,0.28,0.28,0.28l0.094,0.094
	c0,0.094,0,0.28,0.094,0.374v0.094c-0.187,0.187-0.094,0.467-0.28,0.747c-0.187,0.374-0.561,0.654-0.841,0.935
	c-0.28,0.374-0.654,0.561-0.935,0.747c0,0-0.094,0.094,0,0.094c0.094,0.094,0.094,0.28,0.28,0.374c0.094,0,0.187,0.094,0.187,0.094
	c0.467,0.374,1.121,0.561,1.588,0.935c0.094,0.094,0.187-0.094,0.28,0c0,0.187,0.187,0.094,0.28,0.094
	c0.187,0.094,0.374,0.187,0.654,0.28c0.467,0.187,0.935,0.374,1.495,0.561c0.094,0.094,0.28,0,0.374,0.187
	c0.094,0.094,0.28,0.094,0.374,0.094h0.094c0.094-0.187,0.187,0,0.28,0.094c0.094,0.094,0.187,0.094,0.28,0.187l0,0
	c0.094-0.187,0-0.374-0.094-0.374c-0.187,0-0.187-0.094-0.187-0.187c0,0,0,0,0-0.094c0-0.187-0.28-0.28-0.187-0.374
	c0.094-0.187,0.094-0.28,0-0.467c-0.094-0.094,0-0.094,0-0.187c0.094-0.094,0.187-0.094,0.094-0.187c0,0,0-0.094,0.094-0.094
	c0.094-0.094,0.187,0,0.187-0.187l0,0c0.187,0,0.28,0,0.467,0s0.374,0.187,0.654,0.094c0.28,0.187,0.654,0.28,0.935,0.374
	c-0.094-0.187-0.187-0.374-0.28-0.561l-0.094-0.094c-0.467,0.094-0.841-0.094-1.215-0.28c-0.28-0.094-0.561-0.187-0.841-0.374
	c-0.094,0-0.28-0.374-0.28-0.467l0,0c0-0.094-0.094-0.187-0.094-0.28c0-0.093,0.094-0.094,0.187-0.187
	c0.094-0.094,0.187-0.187,0.094-0.28l0.094-0.094c0.187,0,0.374-0.094,0.374-0.28l0.094-0.094c0.28,0.094,0.28-0.094,0.374-0.28
	c0-0.094,0.094-0.094,0.187-0.094c0.094,0.094,0.187,0.094,0.28-0.094c0.094-0.094,0.094-0.094,0.187,0s0.187,0.187,0.28,0.094
	h0.094c0,0.187,0.28,0.187,0.28,0.467c0,0.187,0.094,0.28,0.094,0.467c0,0.187,0,0.374,0.094,0.561c0,0.187,0,0.374,0,0.561
	c0,0.094,0,0.187-0.094,0.28c-0.094,0.187,0,0.374,0.094,0.561c0.094-0.374,0.28-0.654,0.374-1.028c0-0.094,0.094-0.094,0.094-0.187
	c0-0.28,0.28-0.467,0.374-0.654h0.094c0.094,0.094,0.187,0,0.28,0c0,0,0.094,0,0.094,0.094c0.094,0.187,0.094,0.187,0.28,0.094
	c0.094-0.094,0.094,0,0.094,0.094c0,0,0,0.094,0,0.187c0,0.187,0.28,0,0.28,0.187s0.094,0.187,0.187,0.28
	c0.094,0,0.187,0.094,0.094,0.187c0,0,0,0.094,0,0.187c0.187,0.094,0.094,0.187,0.094,0.28c0,0.28-0.187,0.28-0.374,0.467
	c-0.187,0.187-0.467,0.28-0.654,0.28c-0.28,0-0.467,0.094-0.747,0.094h-0.094c0,0.094,0,0.094,0.094,0.187
	c0.187,0.187,0.374,0.374,0.654,0.561c0.935,0.747,1.869,1.495,2.896,2.336c0.187,0.187,0.467,0.28,0.654,0.467h0.094
	c0,0,0,0,0-0.094c-0.28-0.28-0.374-0.561-0.28-0.935c0-0.187,0-0.374,0-0.561v-0.094c0.094,0,0.187,0,0.28,0
	c0.094,0.094,0.28,0.094,0.374,0.094c0.187,0,0.187-0.094,0.094-0.28c-0.094-0.186-0.28-0.467-0.374-0.654
	c-0.28-0.374-0.561-0.841-0.747-1.215c-0.28-0.374-0.467-0.841-0.747-1.215c-0.28-0.374-0.467-0.747-0.747-1.121
	c-0.187-0.187-0.187-0.467-0.374-0.654c-0.186-0.186-0.28-0.467-0.467-0.654s-0.28-0.467-0.467-0.654
	c-0.187-0.186-0.374-0.467-0.467-0.654c-0.187-0.187-0.28-0.467-0.467-0.654c-0.28-0.28-0.561-0.654-0.841-0.935
	c-0.374-0.467-0.654-0.841-1.028-1.308c-0.375-0.467-0.841-1.028-1.215-1.495c-0.094-0.187-0.28-0.28-0.374-0.467
	c-0.094-0.187-0.28-0.28-0.374-0.467c-0.094-0.094-0.094-0.094-0.187-0.187s-0.094-0.094-0.187,0.094
	c-0.187,0.374-0.374,0.747-0.561,1.121c-0.094,0.187-0.28,0.467-0.374,0.654c-0.094,0.187-0.28,0.28-0.467,0.467h-0.094h-0.094
	c-0.094,0-0.28,0.094-0.374,0.094s-0.094,0-0.187,0c-0.094,0.094-0.094,0-0.187-0.094c-0.654-0.094-0.747-0.28-0.935-0.187
	c0,0,0,0-0.094,0c0-0.094-0.094-0.187-0.094-0.187C9.103,9.931,9.195,9.744,9.103,9.651c0-0.094,0-0.187-0.187-0.187
	c-0.094,0-0.094,0-0.094-0.094c0.094-0.094,0-0.187-0.094-0.28c0-0.094-0.187-0.187,0-0.28c0.187-0.094,0.094-0.28,0.094-0.28
	c-0.094-0.094,0-0.094,0-0.187c0.094-0.094,0.094-0.187,0.094-0.28c-0.094-0.187,0-0.187,0.094-0.187s0.187-0.094,0.187-0.187
	S9.29,7.595,9.29,7.595c0.467-0.187,0.935,0,1.402-0.094c0.374,0,0.654,0,1.028,0c0.094,0,0.28,0,0.374,0.094h0.094V7.502
	C12,7.035,11.72,6.661,11.44,6.194c0,0,0,0-0.094,0c-0.561-0.187-1.028-0.467-1.588-0.654c-0.187-0.094-0.28-0.094-0.374-0.187
	c-0.187-0.094-0.467-0.094-0.654-0.28c0-0.094-0.094-0.094-0.187-0.094s-0.187-0.094-0.28-0.187C8.17,4.605,8.076,4.512,8.17,4.325
	V4.231c0-0.094,0-0.094,0-0.187c0-0.28,0.28-0.374,0.094-0.654c0,0,0-0.094,0.094-0.094c0.094,0,0.187-0.094,0.094-0.28l0.094-0.094
	c0.094-0.094,0.28-0.187,0.374-0.28c0.094-0.094,0.187-0.187,0.374-0.28c0.094,0,0.187,0,0.187,0C9.292,2.55,9.292,2.643,9.386,2.83
	l0.094,0.094c0-0.094,0-0.094,0-0.187s0-0.28,0-0.374c0.094-0.094,0.094-0.187,0.28-0.094H9.85c0.094,0,0.28-0.094,0.374-0.094
	h0.094c0.094,0,0.094,0.094,0.094,0.094c0.187-0.094,0.374,0,0.467,0.187c0,0.094,0.187,0.094,0.187,0.094
	c0.094,0.094,0,0.187,0.094,0.28c0.187,0.187,0.094,0.467,0.187,0.654c0.094,0.561,0.094,1.028,0.187,1.588
	c0,0.28,0.094,0.561,0.094,0.841c0,0.187,0.094,0.187,0.094,0.374c0.187,0.374,0.374,0.654,0.561,1.028
	c-0.094-0.654,0-1.402,0-2.055c0-0.28,0.094-0.561,0.187-0.841l0.094-0.094h0.094c0.094-0.187,0.187-0.28,0.374-0.094
	c0,0,0.094-0.094,0.187-0.094c0.094-0.094,0.094-0.094,0.187,0c0.094,0.094,0.187,0.094,0.187,0c0-0.094,0.094-0.094,0.187,0
	c0.187,0.094,0.28,0.28,0.467,0.28c0.094,0,0.094,0.094,0.187,0.187c0.094,0.094,0.28,0,0.28,0.28
	c0.374-0.094,0.28,0.28,0.561,0.374v0.094c0,0.094-0.094,0.187,0,0.28v0.094c-0.094,0.094-0.187,0.187-0.187,0.374
	c0,0,0,0.094-0.094,0.094c-0.467,0.374-1.028,0.841-1.588,1.121c-0.094,0.094-0.28,0.094-0.374,0.094
	c-0.187,0.094-0.28,0.28-0.187,0.467c0.28,0.374,0.561,0.654,0.841,1.028c0.935,1.215,1.962,2.336,2.896,3.551
	c0.561,0.654,1.028,1.402,1.588,2.055c0.094,0.094,0.187,0.28,0.28,0.374s0.187,0.28,0.28,0.467c0.094,0.094,0.187,0.28,0.28,0.374
	c0.094,0.187,0.187,0.28,0.28,0.467c0.187,0.374,0.467,0.654,0.654,1.028c0.094,0.094,0.094,0.094,0.187,0.094
	c0,0.094-0.094,0.094,0,0.28c0.094,0.094,0.187,0.28,0.28,0.374c0,0.094,0.094,0.094,0.187,0.187c-0.094,0.094,0,0.187,0.094,0.187
	c0.094,0.28,0.28,0.374,0.374,0.654c0,0.094,0.094,0.187,0.187,0.28c0-0.094,0-0.187-0.094-0.374c0-0.187-0.094-0.28,0.094-0.374
	c0,0,0,0,0.094-0.094c0-0.187,0.187-0.28,0.374-0.374c0.094-0.094,0.187-0.187,0.374-0.187c0.094,0,0.187-0.094,0.28-0.187
	c0.093-0.094,0.094-0.094,0.187-0.094h0.094c0.28-0.094,0.467,0,0.747,0c0.187,0,0.28,0,0.374,0.094
	c0.094,0.094,0.28,0.28,0.467,0.28l0.094,0.094c0.094,0.094,0.094,0.094,0.187,0.187c0.187,0.094,0.28,0.28,0.28,0.467
	c0,0.28,0.094,0.654,0.187,0.935v0.094c-0.094,0.094,0,0.187,0,0.28c0.094,0.094,0.094,0.187,0,0.28
	c-0.094,0.094-0.187,0.094-0.094,0.28c0,0.094-0.187,0.187-0.28,0.094c-0.187,0-0.374-0.094-0.561-0.094c-0.187,0-0.374,0-0.467,0
	c-0.28,0.094-0.467,0-0.654-0.094c-0.094,0-0.094,0-0.187-0.094c0,0.094,0,0.187,0,0.28c0.094,0.374,0.28,0.654,0.467,1.028
	c0.561,0.935,1.215,1.869,1.869,2.71c0.187,0.187,0.28,0.374,0.467,0.561c0.094,0.094,0.187,0.187,0.28,0.28
	c0.094,0.094,0.187,0.187,0.28,0.28c0.093,0.093,0.187,0.187,0.28,0.374c0.187,0.28,0.561,0.374,0.841,0.561
	c-0.094-0.187-0.094-0.28-0.187-0.374l0,0c0.094,0.094,0.094,0.187,0.187,0.28c0.094,0.187,0.094,0.28,0.28,0.374
	c0,0,0,0,0.094,0.094v-0.094c0-0.187-0.094-0.28-0.094-0.467c0,0,0,0,0.094,0c0.094,0.187,0.187,0.467,0.187,0.654
	c0.094,0.187,0.094,0.28,0.187,0.467c0,0,0,0,0,0.094c0,0,0,0,0.094-0.094c0.094-0.187,0.094-0.374,0-0.561
	c-0.094-0.561-0.28-1.121-0.374-1.588c-0.094-0.28-0.187-0.654-0.187-0.935c0-0.374,0.187-0.561,0.467-0.747
	c0.28-0.094,0.654-0.094,0.841,0.187c0.094,0.094,0.094,0.28,0.187,0.374c0,0.094,0,0.28,0,0.467v0.094
	c0.094,0.561-0.187,1.028-0.28,1.588v0.094c-0.28,0.654-0.094,1.121,0.187,1.682c0.28,0.467,0.654,0.841,1.028,1.121
	C29.939,29.553,30.219,30.114,29.566,29.647z M22.09,23.479h0.094v-0.094c-0.094-0.094,0-0.28-0.187-0.187
	c0-0.187-0.094-0.187-0.187-0.28c-0.654-0.467-1.308-1.028-1.962-1.495c-0.187-0.094-0.28-0.187-0.467-0.28
	c-0.187-0.094-0.28-0.28-0.467-0.467c-0.467-0.374-1.028-0.841-1.495-1.215c-0.28-0.28-0.654-0.561-0.935-0.841
	c-0.094-0.094-0.094-0.094-0.094,0c-0.187,0.467-0.467,0.747-0.841,1.028c-0.374,0.094-0.561,0.094-0.654,0.187h-0.094
	c-0.094,0-0.187,0-0.28,0v0.094c0.094,0.094,0.187,0.187,0.187,0.187c0.094,0.094,0.28,0,0.374,0.094
	c0.28,0.187,0.654,0.28,0.935,0.28h0.094c0.094,0.187,0.28,0.094,0.374,0.187c0.094,0,0.187,0,0.187,0
	c0.094,0.187,0.28,0.187,0.374,0.187s0.187,0.094,0.28,0.094c0.093,0,0.094,0.187,0.28,0.094c0.094,0.187,0.28,0.094,0.374,0.187
	c0.094,0,0.187,0.094,0.187,0.094c0.094,0,0.094,0,0.094,0l0.094,0.094c0.187,0,0.28,0.094,0.374,0.187
	c0.187,0.094,0.374,0.094,0.467,0.28c0.094,0.094,0.187,0.187,0.28,0.094c0.187-0.094,0.187,0.094,0.28,0.187h0.094
	c0.187,0.094,0.467,0.094,0.561,0.28l0,0c0.374,0.187,0.747,0.374,1.028,0.561C21.716,23.293,21.904,23.387,22.09,23.479z
	 M23.772,23.947c-0.187-0.374-0.467-0.654-0.654-0.935c-0.28-0.467-0.561-0.935-0.841-1.402h-0.094v0.094c0,0,0.094,0,0.094,0.094
	c0.094,0.187,0.28,0.28,0.187,0.467c0,0.28,0.187,0.467,0.28,0.654c0.094,0.28,0.374,0.561,0.561,0.747
	C23.492,23.76,23.586,23.947,23.772,23.947z M11.345,5.727c-0.094-0.094-0.094-0.187-0.187-0.28c-0.094-0.094-0.187-0.28-0.28-0.374
	c-0.094-0.187-0.094-0.187-0.28-0.187l0,0c0-0.094-0.094-0.187-0.094-0.187c0-0.187-0.094-0.28-0.28-0.374H10.13h-0.094v0.094
	c0,0.28,0.28,0.374,0.374,0.561c0.187,0.187,0.374,0.467,0.561,0.654c0.094,0.094,0.094,0.094,0.187,0.187
	C11.252,5.727,11.252,5.727,11.345,5.727z M4.617,24.414c0-0.094,0-0.187-0.187-0.094H4.337c-0.374-0.187-0.561,0.094-0.841,0.187
	l-0.094,0.094c0.094,0,0.094,0,0.187,0h0.094c0.187-0.094,0.374-0.094,0.561-0.187c0,0,0,0,0,0.094c0,0,0,0,0,0.094
	C4.43,24.601,4.524,24.508,4.617,24.414z M21.716,22.265c0,0.094,0,0.094,0,0.187c0.094,0.094,0.094,0.187,0.187,0.28
	c0.094,0.094,0.187,0.187,0.28,0.187h0.094v-0.094c-0.094-0.187-0.094-0.28-0.187-0.467c0-0.187,0-0.187-0.187-0.094H21.716
	L21.716,22.265z M22.371,21.33C22.371,21.33,22.465,21.238,22.371,21.33c0-0.187-0.094-0.374-0.094-0.561
	c-0.094-0.28-0.28-0.467-0.467-0.654h-0.094v0.094l0.094,0.094C21.997,20.583,22.184,20.957,22.371,21.33z M24.52,24.508
	C24.52,24.508,24.427,24.508,24.52,24.508c0.094,0.187,0.187,0.28,0.187,0.467c0,0.094,0.094,0.187,0.187,0.187
	c0,0,0.094,0.094,0.094,0v-0.094C24.8,24.788,24.614,24.601,24.52,24.508z M24.52,25.536c0-0.094,0-0.094-0.094-0.094
	c-0.094-0.094-0.187-0.094-0.28-0.187l0,0c-0.094,0-0.094,0-0.094-0.094h-0.094v0.094c0.187,0.094,0.374,0.187,0.467,0.374
	C24.427,25.629,24.427,25.536,24.52,25.536z M9.289,3.296L9.289,3.296c0-0.187,0-0.374-0.187-0.467H9.009v0.094
	C9.103,3.016,9.195,3.204,9.289,3.296z M6.579,25.536c0,0.094,0,0.094,0,0.187c0,0,0,0.094,0.094,0.094c0,0,0.094,0,0.094-0.094
	c0-0.094,0-0.187,0.094-0.28c0,0,0-0.094-0.094-0.094C6.673,25.349,6.579,25.349,6.579,25.536
	C6.579,25.442,6.579,25.536,6.579,25.536z M6.486,22.919L6.486,22.919c-0.094,0.094-0.094,0.094-0.094,0.094
	c0.094,0,0.187,0.094,0.187,0.187c0,0,0,0,0.094,0h0.094C6.673,23.106,6.579,22.919,6.486,22.919z"/>
</svg>
