<?xml version="1.0" encoding="utf-8"?>
<!-- Generator: Adobe Illustrator 27.6.1, SVG Export Plug-In . SVG Version: 6.00 Build 0)  -->
<svg version="1.1" id="rabbit" xmlns="http://www.w3.org/2000/svg" xmlns:xlink="http://www.w3.org/1999/xlink" x="0px" y="0px"
	 viewBox="0 0 32 32" style="enable-background:new 0 0 32 32;" xml:space="preserve">
<path d="M28.076,23.541c0,0,0.415-0.83,0.332-1.079s-0.332,0-0.332,0s0.083-0.415-0.166-0.747c-0.249-0.332-0.498,0-0.498,0
	s0.083-0.498-0.249-0.664s-0.581,0-0.581,0S26.166,18.809,26,18.228s-1.827-3.819-1.827-3.819s-1.744-1.91-2.989-1.993
	s-1.744-0.332-2.242-0.415c-1.827-0.083-2.989,0.581-2.989,0.581s-0.83-0.083-1.328-0.166s-1.411,0.083-1.577,0.249
	s-0.83,0.249-0.83,0.166s-0.083-0.249-0.498-0.332c-0.166,0,0.083-0.747,0.083-0.747s0.083-0.332,0.332-0.498
	s0.913-0.996,1.162-1.494s0.249-1.411,0.249-1.411s0.249-1.661,0-1.827s-0.498-0.415-0.913-0.249
	c-0.498,0.166-1.494,0.415-1.661,0.664c-0.166,0.249-0.83,0.664-0.996,1.661C9.81,9.593,9.561,9.593,9.561,9.759
	c-0.083,0.166-0.166,0.415-0.249,0.747s-0.249,0.415-0.581,0.415c0,0-0.581,0.249-0.913,0.249S6.241,11.834,5.991,12
	c-0.249,0.166-0.249,0.498-0.581,0.664c-0.332,0.166-1.079,1.245-1.245,1.411S3.5,14.824,3.5,15.488
	c0,0.664,0.332,0.498,0.332,0.498s0,0.249,0.083,0.498c0.083,0.249,0.332,0.415,0.747,0.498c0.415,0.083,0.996,0.083,0.996,0.083
	s0.498,0.083,1.328,0.249s1.328,0.166,1.328,0.166s0.355,0.131,0.521,0.38c0.068,0.321,0.186,0.71,0.186,0.71
	c0.473,0.896,1.12,1.567,1.618,1.733s1.577,0.996,1.577,0.996s1.328,0.498,1.494,0.747s0.166,0.581,0.166,0.581
	s-0.581,0.083-0.83,0.332s-0.249,0.498-0.249,0.498s-0.166,0.415-0.083,0.498c0.083,0.083,0.415,0.083,0.415,0.083
	s-0.415,0.664-0.415,0.83c0.083,0.249,0.747,0.166,0.83,0.166s0.996,0.332,1.411,0.332c0.332,0,1.328-0.083,1.577,0
	s2.408,0.415,2.657,0.332s1.245,0.083,1.245,0.083s2.159-0.083,2.74-0.166s1.827-0.249,1.827-0.249s1.827,0.083,2.325-0.083
	c0.498-0.249,0.913-0.83,1.162-1.328C28.574,23.292,28.076,23.541,28.076,23.541z M7.771,13.362c0,0.182-0.303,0.485-0.485,0.545
	c-0.182,0.061-0.485-0.061-0.485-0.061s-0.303-0.242-0.303-0.363s0.303-0.363,0.303-0.363c0.182-0.061,0.424-0.121,0.606-0.121
	C7.59,12.998,7.771,13.18,7.771,13.362L7.771,13.362z"/>
</svg>
