<?xml version="1.0" encoding="utf-8"?>
<!-- Generator: Adobe Illustrator 27.6.1, SVG Export Plug-In . SVG Version: 6.00 Build 0)  -->
<svg version="1.1" id="rice" xmlns="http://www.w3.org/2000/svg" xmlns:xlink="http://www.w3.org/1999/xlink" x="0px" y="0px"
	 viewBox="0 0 32 32" style="enable-background:new 0 0 32 32;" xml:space="preserve">
<path d="M29.893,13.967l-0.742-1.205c-0.093-0.278-0.371-0.278-0.649-0.185c-0.185-0.278-0.278-0.556-0.556-0.834
	c0.093-0.185,0-0.371-0.093-0.556l-0.834-1.112C26.926,9.89,26.741,9.89,26.556,9.89c-0.093-0.185-0.278-0.278-0.371-0.463
	c0.093-0.185,0.093-0.556-0.093-0.742l-0.927-0.927c-0.093-0.093-0.185-0.093-0.278-0.185c0.093-0.185,0-0.463-0.185-0.649
	L23.775,6.09c0-0.093-0.371-0.093-0.556,0.185c0,0.093-0.093,0.093-0.093,0.185c-0.093-0.093-0.278-0.185-0.463-0.278V5.81
	c-0.093-0.093-0.185-0.093-0.185-0.093c0.093-0.278,0-0.556-0.278-0.649l-1.112-0.649c-0.278-0.185-0.556,0-0.649,0.278
	c-0.278-0.093-0.649-0.185-0.834-0.278l0,0c0.093-0.278,0-0.649-0.278-0.742l-1.207-0.37c-0.278-0.093-0.463,0.093-0.556,0.371
	c0-0.278-0.185-0.463-0.463-0.463L15.896,3.03H15.71c-0.093-0.185-0.278-0.371-0.463-0.371l-1.205-0.093
	c-0.278,0-0.463,0.278-0.556,0.556c0,0.093,0,0.278,0.093,0.371h-0.093V3.4c0-0.278-0.278-0.556-0.556-0.556h-0.556V2.751
	c0-0.278-0.185-0.463-0.463-0.463l-1.298,0.371c-0.278,0-0.371,0.371-0.371,0.556c0,0.093,0,0.093,0.093,0.185H9.87V3.307
	C9.777,3.029,9.499,2.844,9.221,2.936L8.016,3.122c-0.278,0-0.463,0.278-0.371,0.649C7.83,4.327,8.387,4.327,8.479,4.419
	c0,0-3.708,1.112-5.191,4.542c-4.635,11.031,4.728,20.857,4.728,20.857s2.039,1.02,4.079-0.742C12.558,28.705,1.435,21.66,3.659,11
	c1.298-5.747,5.84-6.211,5.84-6.211C9.592,4.974,9.777,5.16,9.962,5.16h1.205c0.278,0,0.463-0.278,0.463-0.556
	c0.278,0.093,0.556,0.093,0.834,0.185c0.185,0.093,0.278,0.093,0.463,0.093h0.278c0.185,0.093,0.463,0.185,0.742,0.278v0.093
	c-0.093,0.278,0.093,0.649,0.371,0.649l1.205,0.371c0.185,0,0.278,0,0.371-0.093c0.185,0.093,0.278,0.185,0.463,0.278
	c-0.371,0.093-0.371,0.463-0.185,0.649L17.1,8.035c0.185,0.185,0.556,0.185,0.742-0.093c0.093-0.093,0.093-0.093,0.093-0.185
	C18.028,7.85,18.12,7.85,18.12,7.85s0,0.278,0.093,0.371l0.556,1.205c0.093,0.278,0.463,0.371,0.649,0.185
	c0.093-0.093,0.185-0.185,0.185-0.278c0.093,0.093,0.093,0.185,0.093,0.278c0,0.185,0,0.463,0,0.649l0.742,1.205
	c0.093,0.185,0.278,0.278,0.463,0.185v0.371l0.649,1.298c0.093,0.278,0.371,0.371,0.649,0.278c0.093,0.185,0.093,0.278,0.185,0.463
	c-0.278,0.093-0.371,0.371-0.278,0.742l0.463,1.39c0.093,0.185,0.185,0.278,0.371,0.371c-0.093,0.093-0.185,0.278-0.093,0.556
	l0.371,1.39c0.093,0.278,0.371,0.463,0.649,0.371c0.278-0.093,0.463-0.371,0.371-0.742l-0.371-1.39c0-0.185-0.185-0.278-0.278-0.371
	v-0.185c0.093-0.185,0.093-0.278,0.093-0.463l-0.742-1.39c-0.093-0.185-0.278-0.371-0.463-0.371l-0.278-0.556
	c0.093-0.185,0.185-0.371,0.093-0.649l-0.556-1.205c-0.093-0.185-0.278-0.371-0.463-0.278c0-0.185,0-0.278-0.093-0.463l-0.742-1.205
	c-0.185-0.278-0.463-0.278-0.649-0.185c0,0-0.093-0.185-0.093-0.278c0-0.093,0-0.185-0.093-0.185l-0.649-1.205
	c-0.093-0.278-0.463-0.371-0.649-0.185c-0.093,0-0.093,0.093-0.185,0.185c-0.093-0.093-0.185-0.185-0.371-0.278
	c0-0.093-0.093-0.185-0.093-0.185l-0.926-0.93c-0.185-0.185-0.371-0.185-0.556-0.093c-0.185-0.093-0.371-0.185-0.463-0.278V5.903
	c0.093-0.278-0.093-0.649-0.371-0.649l-1.02-0.371c0,0,0-0.093,0.093-0.093l1.02,0.185c0.093,0,0.185,0.093,0.371,0.093
	c0,0.185,0.093,0.463,0.278,0.556l1.112,0.649c0.278,0.093,0.556,0,0.649-0.185c0.185,0.093,0.371,0.278,0.556,0.371
	c0.278,0.185,0.556,0.463,0.834,0.742l0.278,0.371c-0.093,0.185-0.093,0.463,0.093,0.649l0.834,1.02
	c0.093,0.185,0.371,0.185,0.556,0c0.185,0.185,0.278,0.463,0.463,0.649c-0.093,0.185-0.093,0.371,0.093,0.556l0.834,1.112
	c0.093,0.093,0.185,0.185,0.371,0.185c0.093,0.185,0.185,0.371,0.278,0.649c-0.185,0.185-0.185,0.463-0.093,0.649l0.556,1.298
	c0.093,0.185,0.278,0.371,0.463,0.371l0.556,1.205v0.093l0.278,0.834c-0.093,0-0.093,0-0.185,0.093
	c-0.278,0.185-0.371,0.463-0.185,0.742l0.649,1.298c0.093,0.093,0.093,0.185,0.185,0.185v0.371l0.371,1.112
	c-0.093,0-0.185-0.093-0.278,0c-0.278,0.093-0.463,0.371-0.371,0.649l0.278,1.39c0.093,0.278,0.371,0.463,0.556,0.463
	c0.278-0.093,0.463-0.371,0.371-0.649l-0.278-1.205c0.093,0.093,0.278,0.093,0.371,0c0.278-0.093,0.371-0.371,0.371-0.742
	l-0.371-1.39c0-0.185-0.093-0.278-0.278-0.371v-0.742l-0.649-1.298c0-0.093-0.093-0.185-0.185-0.185
	c-0.093-0.185-0.093-0.463-0.185-0.742h0.278c0.278-0.185,0.371-0.463,0.185-0.742l-0.556-1.298
	c-0.093-0.185-0.278-0.278-0.463-0.278l-0.463-1.205c-0.093-0.278-0.371-0.371-0.556-0.278l-0.463-0.463c0,0,0.093,0,0.093-0.093
	c0.185-0.185,0.278-0.556,0.093-0.834L22.57,9.796c0.185-0.185,0.185-0.556,0-0.834l-0.927-0.927c-0.185-0.185-0.463-0.185-0.649,0
	l-0.649-0.556c0.093-0.185,0.093-0.556-0.093-0.742l-0.834-0.834c0-0.093-0.093-0.185-0.185-0.278l-1.02-0.834
	c-0.185-0.185-0.556-0.093-0.649,0.093c-0.093,0.093-0.093,0.185-0.093,0.278l-1.112-0.649c-0.093-0.093-0.185-0.093-0.371,0
	c0.093-0.371-0.093-0.649-0.371-0.649l1.298,0.371c0.185,0,0.278-0.093,0.371-0.185h0.185l0.278,0.278l1.205,0.371
	c0.185,0.093,0.278,0,0.463-0.093c0.371,0.093,0.649,0.185,0.927,0.371c0,0.185,0.093,0.371,0.278,0.463l1.112,0.556
	c0.093,0,0.093,0.093,0.185,0.093c-0.093,0.185,0,0.463,0.185,0.649l1.02,0.834c0.185,0.185,0.556,0.093,0.742-0.093V7.2
	l0.649,0.649c0.093,0,0.185,0,0.278,0c-0.093,0.185,0,0.463,0.093,0.649l0.927,0.927C26,9.611,26.185,9.611,26.37,9.518
	c0.093,0.093,0.185,0.278,0.278,0.371c-0.185,0.185-0.278,0.556-0.093,0.834l0.834,1.112c0.185,0.278,0.463,0.278,0.742,0.093
	c0.185,0.278,0.371,0.556,0.463,0.834c-0.093,0.185-0.185,0.463,0,0.649l0.649,1.205c0.185,0.278,0.463,0.371,0.649,0.185
	C29.986,14.524,30.078,14.153,29.893,13.967z M12.373,4.605c-0.278-0.093-0.463-0.093-0.742-0.185V4.327
	c0.278,0,0.463,0,0.742,0.093V4.605z M11.446,4.049V3.771c0.093,0.093,0.185,0.185,0.371,0.185l0.834-0.093
	c0,0.093-0.093,0.185-0.185,0.278C12.095,4.141,11.817,4.049,11.446,4.049z M15.71,3.956l-1.112-0.278
	c-0.185,0-0.371,0.093-0.463,0.278l-1.02-0.093c0.185,0,0.278-0.093,0.371-0.278c0.649,0,1.298,0,1.947,0.093
	C15.432,3.863,15.525,3.956,15.71,3.956z"/>
</svg>
