<?xml version="1.0" encoding="utf-8"?>
<!-- Generator: Adobe Illustrator 27.6.1, SVG Export Plug-In . SVG Version: 6.00 Build 0)  -->
<svg version="1.1" id="medaka" xmlns="http://www.w3.org/2000/svg" xmlns:xlink="http://www.w3.org/1999/xlink" x="0px" y="0px"
	 viewBox="0 0 32 32" style="enable-background:new 0 0 32 32;" xml:space="preserve">
<path d="M3.145,16.03c0.677,0.387,1.161,0.677,1.839,0.968c2.71,1.161,5.516,1.548,8.516,1.258c0.194,0,0.29,0,0.29,0.194
	c0.194,0.774,0.677,1.258,1.355,1.548c0.29,0.097,0.387,0,0.484-0.29c0-0.097,0-0.194,0-0.29c0-0.387,0.097-0.581,0.29-0.871
	c0.29-0.194,0.194-0.387-0.097-0.581c-0.097,0-0.097-0.097-0.194-0.097v-0.097c0.097,0,0.194,0,0.194,0
	c0.484-0.097,0.968-0.194,1.452-0.29c0.484,0.484,0.968,0.968,1.452,1.452c0.097,0.097,0.29,0.097,0.387,0
	c0.581-0.484,1.355-0.677,2.129-0.774c0.677-0.097,1.355-0.194,1.935-0.387c0.387-0.097,0.774-0.29,1.064-0.484
	c0.097,0,0.097-0.194,0.097-0.29c0-0.097-0.194-0.194-0.29-0.194c-0.097,0-0.29,0-0.387,0c-0.194,0-0.387-0.097-0.581-0.194v-0.097
	c0.29,0,0.484-0.097,0.774-0.097c0.484,0,0.968,0,1.452,0.097c0.097,0,0.581,0.097,1.064,0.29c0.774,0.29,1.452,0.677,2.129,1.064
	c0.387,0.194,0.774,0.581,1.161,0.774c0.29,0.194,0.484,0.097,0.581-0.194c0.194-0.387,0.194-0.774,0.097-1.161
	c-0.097-0.968-0.194-1.839,0.097-2.71c0.194-0.677-0.097-1.258-0.194-1.839c-0.097-0.194-0.194-0.194-0.387-0.097
	c-0.194,0.097-0.29,0.194-0.484,0.29c-1.355,0.581-2.71,1.258-4.258,1.161c-0.581-0.097-1.161-0.194-1.839-0.29
	c0.097,0,0.29-0.097,0.387-0.097c0.387-0.194,0.774-0.29,0.968-0.677c0.194-0.29,0.387-0.581,0.581-0.774
	c0.097-0.097,0.097-0.194,0.097-0.194c-0.097,0-0.194-0.097-0.29-0.097c-0.484,0-0.968,0-1.452,0.097
	c-1.452,0.194-2.806,0.484-4.161,0.968c-0.097,0-0.29-0.097-0.387-0.097c-1.258-0.194-2.516-0.387-3.774-0.387
	c-2.323-0.097-4.645,0-6.968,0.387c-1.452,0.29-2.71,0.387-4.161,0.677c-0.968,0.097-1.742,0.29-2.419,0.581
	c-0.194,0-0.194,0-0.194,0.194c0,0.29,0.194,0.581,0.387,0.774C2.274,15.45,3.145,16.03,3.145,16.03z M1.984,14.966
	c-0.194-0.194-0.387-0.581-0.194-0.774c0,0,0.387-0.194,0.677-0.29c0.387-0.097,0.968-0.194,0.968-0.194
	c1.161-0.194,1.935-0.29,3.097-0.29c1.064,0,2.032,0,3.387,0.097c0.968,0.097,3.097,0,5.419,0.29
	c1.645,0.194,5.613,0.484,7.161,0.677c1.839,0.097,2.71,0.097,4.258,0c0,0,0.097,0.097,0.097,0.29c0,0.097,0,0.194,0,0.29
	c0,0.29,0,0.29-0.29,0.29c-1.064-0.097-3.677-0.484-4.742-0.581c-0.581-0.097-5.419-0.387-6.484-0.484
	c-1.258,0-4.258-0.097-5.806-0.097c-1.258,0-2.129,0.194-2.613,0.387c-0.29,0.194-0.774,0.581-0.968,0.871
	c-0.097,0.194-0.387,0.871-0.581,0.968c-0.387,0.097-1.452-0.484-1.839-0.677C3.339,15.837,2.274,15.256,1.984,14.966z
	 M4.403,13.901c-0.484,0-0.774,0.387-0.774,0.774s0.29,0.774,0.774,0.774c0.387,0,0.774-0.29,0.774-0.774
	C5.177,14.288,4.887,13.901,4.403,13.901z M4.403,15.063c-0.29,0-0.387-0.194-0.387-0.387s0.194-0.387,0.387-0.387
	s0.387,0.194,0.387,0.387C4.79,14.966,4.597,15.063,4.403,15.063z"/>
</svg>
