<?xml version="1.0" encoding="utf-8"?>
<!-- Generator: Adobe Illustrator 27.6.1, SVG Export Plug-In . SVG Version: 6.00 Build 0)  -->
<svg version="1.1" id="sheep" xmlns="http://www.w3.org/2000/svg" xmlns:xlink="http://www.w3.org/1999/xlink" x="0px" y="0px"
	 viewBox="0 0 32 32" style="enable-background:new 0 0 32 32;" xml:space="preserve">
<path d="M20.928,29.41c0,0,0.602,0,0.602-0.344s-0.086-0.687-0.086-0.687s-0.258-0.602-0.258-1.031s0-2.664,0-2.664
	s0.258-0.602,0.258-1.031c0-0.43,0.086-1.976,0.086-1.976s0.344-0.344,0.687-0.344s0.945-0.172,1.289-0.43
	c0.258-0.258,1.375-1.805,1.547-2.234c0.086-0.43,0.602-0.773,0.602-1.289s0-2.234-0.258-2.836s-0.773-3.781-0.945-4.296
	s-0.086-1.117-0.086-1.203s0-1.117-0.258-1.719c-0.344-0.602-0.43-1.289-0.43-1.289s0.344,0,1.031,0
	c0.687-0.086,0.773-0.344,0.945-0.687s0.172-0.687-0.086-0.687c-0.258,0-1.031-0.172-1.289-0.086s-0.945,0.43-0.945,0.43
	s-0.859-0.086-1.117-0.172c-0.172-0.086-0.344-0.258-0.687-0.258c-0.258,0-0.602,0.344-0.859,0.344s-0.945,0-0.945,0
	s-0.344-0.172-0.602-0.43s-0.859-0.344-1.289-0.258c-0.344,0.086-0.687,0-0.687,0.172s0,0.344,0.086,0.602
	c0.172,0.258,0.516,0.516,0.773,0.602c0.344,0.086,0.945,0.172,0.945,0.258S18.608,6.552,18.35,6.81
	c-0.172,0.43-0.687,1.719-0.687,1.719s-2.32-0.344-3.008-0.43c-0.687-0.086-2.578,0-2.922,0.086
	C11.39,8.271,9.242,8.872,8.726,9.474s-1.633,2.148-1.805,3.609s-0.773,4.468-0.687,5.242s0.172,2.406,0.516,2.836
	c0.344,0.516,0.516,0.773,0.602,0.945s0.172,0.602,0.172,0.602s0.258,0.945,0.258,1.547c0,0.516,0.086,1.633-0.086,2.234
	s-0.344,0.859-0.258,1.289s0,0.687,0.172,0.859c0.258,0.344,1.203,0.516,1.461,0.344s0-1.117,0-1.117s0-0.43-0.086-0.773
	c-0.172-0.258-0.344-1.719-0.086-2.062c0.172-0.344,0.43-1.375,0.43-1.89s0.086-1.203,0.086-1.203s0.344-0.516,0.344-0.859
	s0.258-0.773,0.258-0.773s0.516,0.945,1.031,1.289c0.516,0.258,1.031,0.516,1.289,0.687c0.258,0.172,0.687,0.258,0.687,0.258
	s0.258,0.773,0.43,1.375c0.086,0.602,0.086,2.836-0.086,3.179c-0.172,0.344-0.43,1.031-0.43,1.289s0,0.602,0.258,0.687
	s0.859,0.172,1.289,0c0.172-0.086,0.086-0.344,0-0.687s-0.086-0.344-0.086-0.773s0-3.008,0.086-3.437
	c0.086-0.344,0.344-1.633,0.344-1.633h1.976c0,0,0.258,1.031,0.258,1.547c0,0.43,0.086,0.687,0.172,1.117
	c0.086,0.344,0,2.148,0,2.75s0.086,0.602,0,0.773c-0.086,0.344-0.344,0.602-0.086,1.117c0.086,0.172,0.43,0.43,0.945,0.344
	c0.344-0.086,0.602-0.344,0.602-0.687s-0.258-0.945-0.258-0.945s0.086-0.258,0-0.602s-0.43-2.234-0.344-2.578s0.43-1.289,0.258-1.89
	s0-1.289,0-1.289l1.375-0.258c0,0,0.086,0.602,0.086,1.031c0,0.258,0.086,1.289,0.172,1.633c0,0.344,0.172,0.945,0.086,1.289
	c0,0.344-0.086,2.406-0.086,2.406s-0.258,0.773-0.172,1.031C20.155,29.41,20.928,29.41,20.928,29.41L20.928,29.41z"/>
</svg>
