<?xml version="1.0" encoding="utf-8"?>
<!-- Generator: Adobe Illustrator 27.6.1, SVG Export Plug-In . SVG Version: 6.00 Build 0)  -->
<svg version="1.1" id="yeast" xmlns="http://www.w3.org/2000/svg" xmlns:xlink="http://www.w3.org/1999/xlink" x="0px" y="0px"
	 viewBox="0 0 32 32" style="enable-background:new 0 0 32 32;" xml:space="preserve">
<g>
	<path id="path3" d="M3.999,5.943c0.45,0.631,1.261,1.351,2.162,1.351c0,0,0.09,0,0.09,0.09c-0.18,0.27-0.27,0.541-0.36,0.811
		c-0.18,0.18-0.36,0.36-0.36,0.721c0,0.27,0,0.541,0.09,0.721c0,1.532,0.901,2.974,1.892,3.604c2.433,1.622,4.776,1.532,6.217,0
		c1.712-1.802,1.171-4.145,0-5.226c-1.081-0.991-2.523-1.712-3.694-2.072c-0.09-0.18-0.36-0.36-0.631-0.36s-0.631,0.09-0.811,0.18
		c-0.27,0-0.451,0.09-0.631,0.18c-0.36,0.09,0.631-0.811-0.811-2.433C6.342,2.519,5.08,2.158,4.179,2.879
		C3.368,3.6,3.188,4.771,3.999,5.943L3.999,5.943z"/>
	<path id="path3_1_" d="M26.886,15.404c-0.721-0.27-1.802-0.451-2.523,0c0,0-0.09,0.09-0.09,0c0-0.27,0-0.541-0.09-0.811
		c0.09-0.27,0.09-0.541-0.09-0.811c-0.09-0.27-0.27-0.451-0.451-0.541c-0.811-1.262-2.343-1.982-3.514-1.982
		c-2.883,0-4.866,1.262-5.226,3.424c-0.451,2.433,1.262,4.145,2.793,4.415c1.442,0.27,3.064,0.09,4.145-0.27
		c0.18,0,0.541,0,0.721-0.09c0.27-0.09,0.451-0.36,0.541-0.631c0.18-0.18,0.36-0.36,0.451-0.541c0.36-0.27-0.09,0.991,2.072,1.622
		c1.171,0.36,2.433-0.09,2.793-1.081C28.778,17.026,28.238,15.945,26.886,15.404L26.886,15.404z"/>
	<path id="path3_2_" d="M18.776,19.819c-0.721,0.36-1.532,0.901-1.802,1.802l-0.09,0.09c-0.18-0.18-0.451-0.36-0.631-0.541
		c-0.09-0.18-0.36-0.36-0.631-0.541c-0.27-0.09-0.451-0.09-0.721,0c-1.442-0.27-3.064,0.27-3.875,1.171
		c-2.072,2.072-2.523,4.325-1.262,6.037c1.442,1.982,3.785,1.982,5.136,1.081c1.171-0.811,2.253-2.163,2.703-3.154
		c0.18-0.09,0.36-0.36,0.451-0.631c0.09-0.27,0-0.631-0.09-0.811c0-0.27,0-0.451-0.09-0.721c0-0.451,0.631,0.811,2.613-0.36
		c1.081-0.541,1.712-1.802,1.171-2.793C21.299,19.639,20.218,19.189,18.776,19.819L18.776,19.819z"/>
</g>
</svg>
