<?xml version="1.0" encoding="utf-8"?>
<!-- Generator: Adobe Illustrator 27.6.1, SVG Export Plug-In . SVG Version: 6.00 Build 0)  -->
<svg version="1.1" id="salmon" xmlns="http://www.w3.org/2000/svg" xmlns:xlink="http://www.w3.org/1999/xlink" x="0px" y="0px"
	 viewBox="0 0 32 32" style="enable-background:new 0 0 32 32;" xml:space="preserve">
<path d="M25.636,11.421c-0.5-0.583-1.082-1.166-1.665-1.582h0.666c0.083,0,0.167-0.083,0.167-0.167s0-0.167-0.083-0.25
	c-1.749-0.833-1.665-3.997-1.665-4.08s0-0.167-0.083-0.167s-0.167,0-0.25,0c-0.749,0.5-4.912,1.082-6.411,1.249
	c-1.166-0.25-2.331-0.333-3.331-0.416c-4.08-0.25-7.41,0.5-7.494,0.5c-0.583,0.167-1.666,0.75-1.582,1.833l0,0l0,0l0,0
	c0,0,0,0,0,0.083l0,0l0,0l0,0l0,0c0.083,0.083,1.915,2.248,6.744,4.579c0.083,0.833,0.416,1.749,0.999,2.498
	c0,0.083,0.083,0.083,0.167,0.083c0,0,0,0,0.083,0s0.167-0.083,0.167-0.167c0.083-0.333,0.167-1.082,0.333-1.665
	c1.665,0.749,3.414,1.415,5.329,1.998c0.25,0.583,1.166,2.831,2.165,3.081l0,0h0.083c0.083,0,0.083-0.083,0.083-0.083
	c0-0.083,0.25-1.249-0.083-2.248c1.332,0.333,2.748,0.666,4.163,0.999c0.333,0.25,2.415,1.832,1.832,3.164
	c-0.749-0.5-3.414-2.082-5.912-0.749c-0.083,0-0.083,0.083-0.083,0.25c0,0.083,0.083,0.167,0.167,0.167
	c0.167,0,3.414,0.833,3.081,3.747c-0.167,0.583-0.167,1.166-0.167,1.665c-0.083,1.582-0.083,1.998-1.332,2.664
	c-0.083,0-0.083,0.083-0.083,0.25c0,0.083,0.083,0.167,0.167,0.167c0,0,0.167,0,0.416,0c0.916,0,2.914-0.416,3.913-3.747
	c0.333-0.333,2.498-2.415,2.748-5.745C29.05,16.75,27.967,14.086,25.636,11.421z M8.405,8.955c0,0.355-0.284,0.568-0.568,0.568
	c-0.355,0-0.568-0.284-0.568-0.568c0-0.284,0.213-0.568,0.568-0.568C8.192,8.387,8.405,8.671,8.405,8.955z M8.121,8.955
	c0,0.142-0.142,0.284-0.284,0.284c-0.142,0-0.284-0.142-0.284-0.284s0.071-0.284,0.284-0.284S8.121,8.813,8.121,8.955z"/>
</svg>
