<?xml version="1.0" encoding="utf-8"?>
<!-- Generator: Adobe Illustrator 27.6.1, SVG Export Plug-In . SVG Version: 6.00 Build 0)  -->
<svg version="1.1" id="potato" xmlns="http://www.w3.org/2000/svg" xmlns:xlink="http://www.w3.org/1999/xlink" x="0px" y="0px"
	 viewBox="0 0 32 32" style="enable-background:new 0 0 32 32;" xml:space="preserve">
<path d="M11.378,12.869c-0.096,0.096-0.193,0.193-0.193,0.193c-0.096,0.096-0.096,0.096-0.289,0.096
	c-0.096,0.096-0.193,0.096-0.385,0.096c-0.096,0-0.193,0-0.385,0c-0.096,0-0.193,0-0.289,0.096
	c-0.193,0.096-0.289,0.096-0.289-0.193s0-0.578,0.096-0.963s0.289-0.578,0.578-0.867c0.289-0.096,0.482-0.096,0.867-0.096
	c0.193,0,0.385,0,0.578,0.096c0.193,0,0.385,0,0.771-0.096c0.096,0,0.096-0.096,0-0.193c-0.193-0.289-0.385-0.578-0.289-1.06
	c0-0.193,0-0.289,0-0.482c0-0.096,0-0.096,0.096-0.096c0.289,0.096,0.771,0.289,1.06,0.385s0.482,0.193,0.578,0.482
	c0.096,0.193,0.193,0.385,0,0.578c0,0.096-0.096,0.096-0.193,0.193l-0.096,0.096c0,0,0,0.096,0.096,0.096
	c0.193,0.096,0.193,0.096,0.193-0.096v0.096h0.096l0.096,0.096h0.096c0,0,0,0,0-0.096c0-0.193,0.096-0.385,0.096-0.482
	s0-0.289,0-0.385V10.17h0.096c0.096,0.096,0.289,0.289,0.385,0.385c0.193,0.193,0.289,0.482,0.289,0.867
	c0,0.193-0.096,0.385-0.289,0.385c-0.096,0-0.096,0.096,0,0.096s0.096,0.096,0.193,0.096c0-0.096,0.096-0.096,0.096-0.193
	c0.096-0.096,0.096-0.289,0.193-0.482c0.096,0.096,0.193,0.193,0.193,0.289s0,0.289,0,0.385l-0.096,0.096c0,0-0.096,0.096,0,0.096
	c0.096,0.096,0.193,0.096,0.289,0.193v-0.096c0-0.289,0-0.578-0.096-0.867c0-0.193-0.096-0.385-0.096-0.578
	s-0.096-0.385-0.096-0.482c-0.096-0.289-0.193-0.482-0.193-0.867c0.096,0.289,0,0.096-0.096-0.096
	c-0.096-0.193-0.096-0.385-0.193-0.482C14.75,8.726,14.75,8.63,14.654,8.437c-0.096-0.289-0.193-0.482-0.289-0.867
	c-0.096-0.096-0.193-0.193-0.289-0.289c-0.193-0.096-0.385-0.096-0.482-0.193c-0.096,0-0.193,0-0.193,0
	c-0.193-0.096-0.193,0-0.193,0c-0.096,0.193-0.096,0.385-0.193,0.771c-0.096,0.289-0.193,0.578-0.289,0.963
	c-0.096,0.096-0.193,0.289-0.289,0.385h-0.096c0-0.193-0.096-0.289-0.193-0.482c-0.096-0.193-0.193-0.385-0.096-0.578
	c0-0.193,0.096-0.289,0.193-0.482c0,0,0,0,0-0.096c-0.096,0.096-0.096,0.096-0.193,0.193c-0.096,0-0.096,0.096-0.193,0.096H11.57
	V7.57c0-0.193,0-0.289,0-0.482c0-0.096-0.096-0.096-0.096-0.096c-0.096,0-0.193,0.096-0.193,0.096
	c-0.096,0.096-0.096,0.096-0.193,0.193c-0.289,0.096-0.385,0.193-0.578,0.385c0,0,0,0-0.096,0.096c-0.096,0-0.096,0.096,0,0.096
	c0,0,0.096,0.096,0.096,0l0.096-0.096c0,0,0,0,0.096,0c0.193-0.096,0.482-0.096,0.771,0c0.096,0.096,0.193,0.193,0.289,0.289
	c0.096,0.289,0.096,0.578,0,1.06c-0.193,0.289-0.289,0.674-0.385,1.06v0.096c0,0.096-0.096,0.096-0.193,0
	c-0.096-0.096-0.289-0.193-0.385-0.385c-0.096-0.096-0.096-0.193-0.193-0.289c0-0.096-0.096,0-0.193,0
	c-0.096,0.096-0.193,0.193-0.289,0.289c-0.193,0.193-0.289,0.289-0.482,0.385c-0.193,0-0.385,0.096-0.482,0.193H8.97
	c0,0,0,0,0-0.096c0-0.289-0.096-0.771-0.096-1.06c0-0.193,0-0.482,0-0.771c0-0.096,0.096-0.193,0.096-0.385
	c0-0.096,0-0.096-0.096-0.096c-0.193,0-0.289-0.096-0.482-0.096C8.295,7.859,8.006,7.762,7.91,7.666H7.814
	c-0.096,0-0.096-0.096-0.096-0.096c0.192-0.386,0.385-0.675,0.77-1.06C8.777,6.317,8.97,6.317,9.259,6.317
	c0.385,0,0.867,0.289,1.156,0.578c0.096,0.096,0.193,0.193,0.193,0.193h-0.096h-0.096c-0.193,0-0.289,0-0.385,0.193
	c0.096,0,0,0.096-0.096,0.193c0,0.096,0,0.096,0,0.193c0.096,0,0.096,0,0.096,0c0.096,0,0.096,0,0.193,0
	c0.096,0,0.289-0.096,0.385-0.289c0.096-0.096,0.289-0.193,0.578-0.289c0.096-0.096,0.096-0.096,0-0.193
	c-0.096,0-0.193-0.096-0.289-0.193V6.51c0,0,0.096,0,0.096-0.096c0.096,0,0.193,0,0.385,0s0.385,0,0.482,0.193c0,0,0,0,0.096,0
	s0.289,0,0.385,0c0-0.096-0.096-0.096-0.096-0.096c-0.193-0.096-0.289-0.289-0.385-0.482s-0.193-0.289-0.193-0.482
	c-0.096-0.193,0-0.385,0-0.578s0.096-0.385,0.096-0.482s0-0.096,0.096,0c0.289,0.193,0.578,0.385,0.963,0.578
	c0.193,0.096,0.385,0.193,0.482,0.385c0.096,0.193,0.193,0.482,0,0.867c-0.096,0.096-0.193,0.096-0.289,0.193
	c-0.096,0-0.096,0.096,0,0.193c0,0.096,0.193,0.096,0.385,0.193s0.385,0.096,0.578,0.193h0.096V6.992
	c-0.193-0.385-0.289-0.867-0.482-1.156c-0.096-0.289-0.193-0.578-0.385-0.867c-0.096-0.193-0.193-0.289-0.385-0.385
	c-0.193-0.096-0.578-0.193-0.771-0.385c-0.193-0.096-0.385-0.193-0.482-0.289c-0.193-0.289-0.385-0.482-0.482-0.674V3.138
	c0.096,0,0.289,0,0.385,0c0.096,0,0.193-0.096,0.193-0.096c0.193,0,0.193-0.096,0.193-0.289s0.096-0.289,0.096-0.482
	c0-0.096,0.096-0.193,0.096-0.289c0,0,0,0,0.096,0c0.289,0.193,0.482,0.385,0.867,0.578c0.193,0.193,0.385,0.385,0.289,0.771
	c0,0.096-0.096,0.193-0.096,0.289s0,0.096,0,0.096c0.096,0.096,0.096,0.193,0.096,0.385c0,0.096,0,0.193,0,0.289
	c-0.096,0.193,0,0.289,0.096,0.482V4.776c0.096-0.289,0.096-0.578,0.193-0.963c0-0.096,0.096-0.096,0.096-0.096
	c0.193,0.096,0.289,0.289,0.385,0.482l0.096,0.096c0,0,0.096-0.193,0-0.193c-0.096-0.096-0.096-0.096-0.193-0.193
	c0.096,0,0.096-0.096,0.096-0.193c-0.096-0.289-0.096-0.482,0-0.867s0.289-0.674,0.674-0.963c0.096,0,0.193-0.096,0.289-0.096
	c0.193,0,0.482,0,0.771-0.289c0,0.096,0,0.096,0,0.096c0,0.096,0,0.193,0,0.193c0,0.096,0,0.096,0.096,0.096
	c0.193-0.193,0.482-0.193,0.867-0.193c0.193,0,0.482,0,0.674,0c0.096,0,0.289,0,0.385,0c0,0,0.096,0,0.193,0
	c-0.193,0.193-0.193,0.482-0.289,0.771c-0.096,0.193-0.193,0.385-0.385,0.578c-0.193,0.193-0.385,0.289-0.771,0.385
	c0,0.096-0.096,0.096-0.096,0.193l0.096,0.096c0.289,0.096,0.578,0.289,0.963,0.482c0.096,0.096,0.096,0.096,0,0.193h-0.096
	c-0.385,0.096-0.771,0.193-1.06,0.385c-0.289,0.096-0.482,0.193-0.867,0.096c-0.193,0-0.289-0.096-0.385-0.193
	C15.04,4.583,15.04,4.487,15.04,4.39s-0.096-0.193-0.193-0.096c-0.096,0.096-0.193,0.193-0.193,0.385c0,0.096,0,0.193,0,0.289
	c0.096,0,0.289-0.096,0.385-0.096c0.193,0,0.289,0,0.482,0c0.096,0,0.096,0.096,0.096,0.193c-0.289,0.193-0.385,0.385-0.482,0.482
	c-0.193,0.096-0.385,0.193-0.578,0.096c-0.096,0-0.193-0.096-0.289,0s-0.193,0.193-0.096,0.385c0.096,0.193,0.193,0.385,0.193,0.482
	v0.096c0,0,0,0.096,0.096,0.096v0.193c0,0,0-0.096,0-0.193c0-0.193,0-0.289,0.096-0.482c0-0.096,0.096-0.096,0.193-0.096
	c0.193,0.096,0.289,0.193,0.482,0.289c0.193,0,0.289,0,0.385,0.096s0.193,0.289,0.193,0.482v0.096c0,0,0.096,0,0.096-0.096
	s0.096-0.096,0.096-0.193l0,0c-0.096-0.193-0.096-0.385,0-0.578c0.096-0.096,0.193-0.193,0.385-0.193c0.096,0,0.096,0,0.193,0
	c0,0.193-0.096,0.289-0.193,0.482h0.096c0.193-0.096,0.289-0.193,0.482-0.289c0.096-0.096,0.193-0.096,0.289-0.193
	s0.096-0.096,0-0.193c-0.193-0.193-0.289-0.482-0.096-0.867c0.096-0.193,0.289-0.289,0.482-0.482
	c0.193-0.096,0.385-0.193,0.482-0.385c0.096,0,0.096-0.096,0.193-0.096c0,0.096,0.096,0.096,0.096,0.193
	c0,0.289,0.096,0.482,0.096,0.867V5.16c0,0.096,0,0.096,0.096,0c0.385-0.193,0.482-0.289,0.771-0.385
	c0.289-0.289,0.385-0.289,0.482-0.289c0.289,0,0.482,0,0.867,0.096c0.193,0.096,0.385,0.289,0.482,0.385
	c0.193,0.193,0.289,0.385,0.385,0.578c0.096,0.096,0.096,0.096,0,0.096c-0.193,0.096-0.385,0.193-0.578,0.289
	c-0.674,0.385-1.156,0.289-1.638-0.193c-0.096-0.193-0.096-0.289-0.193-0.385s-0.289-0.096-0.385,0S18.7,5.545,18.603,5.641v0.096
	c0.289,0.193,0.578,0.482,0.963,0.867c0.096,0.096,0.193,0.193,0.385,0.289c0.096,0,0.096,0.096,0,0.096
	c-0.193,0.096-0.385,0.193-0.771,0.289c-0.193,0.096-0.482,0.096-0.771,0.096c-0.193,0-0.289-0.096-0.482-0.096
	c-0.193-0.096-0.385-0.193-0.482-0.289c-0.096-0.096-0.096-0.193,0-0.289c-0.096-0.289,0-0.385,0-0.578V6.028h-0.096
	c-0.096,0.096-0.193,0.193-0.289,0.289c0,0,0,0,0,0.096c0,0,0,0,0,0.096c0,0,0,0,0.096,0s0.193,0,0.193,0
	c-0.193,0.096-0.385,0.096-0.578,0.289c0.096,0,0.289,0.096,0.385,0.096c0.096,0.096,0.193,0.193,0.289,0.289
	c-0.096,0-0.096,0-0.096,0c-0.289,0-0.482,0-0.867,0c-0.096,0-0.193,0-0.193,0.096C16.193,7.472,16,7.664,15.904,7.953v0.096H16
	l0.096-0.096C16,7.568,16.192,7.568,16.481,7.664c0.096,0,0.289,0.096,0.385,0.193c0.096,0.096,0.193,0.193,0.193,0.289
	c0.096,0.289,0.096,0.578,0.193,0.963c0.096,0.193,0.193,0.289,0.193,0.482v0.096c-0.193,0-0.289,0-0.482,0
	c-0.482,0-0.867-0.193-1.156-0.482c-0.096-0.096-0.193-0.193-0.193-0.289c-0.096-0.193-0.096-0.289-0.193-0.385
	c0,0.096,0,0.096,0,0.096c0,0.289,0,0.771,0.096,1.06c0,0.096,0.096,0.193,0.096,0.289c0.096,0.289,0.096,0.482,0.193,0.867
	c0.096,0.193,0.096,0.385,0.193,0.674v0.096c0,0,0.096,0,0.096-0.096c0.193-0.193,0.385-0.193,0.578-0.289
	c0.385-0.096,0.771-0.193,1.156-0.289c0,0,0,0,0.096,0v0.096c0,0.096,0,0.193,0,0.289s0,0.096,0,0.193
	c0,0.289-0.096,0.578-0.289,0.867c-0.193,0.193-0.385,0.385-0.578,0.482c0,0,0,0-0.096,0.096c0.096,0,0.193,0.096,0.289,0.096
	c0,0,0.096,0,0.096-0.096c0.096-0.193,0.289-0.193,0.482-0.193s0.289,0.096,0.482,0.096c-0.096,0.193-0.289,0.193-0.482,0.289
	c0.096,0.096,0.193,0.193,0.289,0.193c0.289-0.096,0.578-0.096,0.963-0.096s0.771,0.096,0.963,0.482
	c0.096,0.096,0.193,0.289,0.193,0.385c0.096,0.289,0.096,0.578,0.096,0.963c0,0.096,0,0.096-0.096,0.096
	c-0.193,0-0.385,0-0.771-0.096H19.37v0.096c0.096,0.096,0.096,0.193,0.193,0.289c0.096,0.289,0.096,0.482,0,0.867
	c0,0.193-0.096,0.385-0.193,0.578c0,0.096-0.096,0.193-0.096,0.289s0,0.193,0,0.193c0,0.096-0.096,0.289-0.096,0.385
	c-0.193-0.096-0.289-0.289-0.482-0.385c-0.096-0.096-0.289-0.193-0.385-0.289c-0.096-0.096-0.193-0.289-0.289-0.385
	c-0.096-0.385-0.193-0.867-0.193-1.252c0-0.096,0-0.193,0.096-0.289c-0.096,0-0.096,0-0.096,0.096
	c-0.193,0.193-0.385,0.289-0.674,0.385c-0.096,0-0.193,0.096-0.193,0.096H16.87v-0.096c0-0.096,0.096-0.289,0.096-0.385
	s0-0.096-0.096-0.193c-0.096-0.193-0.193-0.385-0.289-0.578V14.41c0,0,0,0.096-0.096,0.096c-0.096,0.385-0.193,0.771-0.289,1.156
	c-0.193,0.578-0.289,0.867-0.385,1.156c-0.289,0.193-0.578,1.156-0.674,1.445c-0.096,0.193-0.289,0.963-0.289,1.252s0,0.867,0,1.156
	c0,0.096,0.193,0.867,0.193,1.252c0,0.193,0.193,0.193,0.289,0.193c0.385,0.096,0.963,0.289,1.349,0.385s0.771,0.289,1.156,0.289
	c0.289,0,0.578-0.096,0.867-0.193c0,0,0,0,0.096,0c-0.096,0-0.096-0.096-0.193-0.096c-0.193-0.193-0.289-0.482-0.193-0.674
	s0.289-0.289,0.482-0.289c0.289,0,0.578,0.096,0.867,0.289c0.096,0.096,0.096,0.193,0.096,0.289c0,0.096,0,0.096,0.096,0.096
	c0.289-0.096,0.578-0.193,0.963-0.193c0.193,0,0.289,0,0.578,0c0.193,0,0.289,0.096,0.482,0.193c0.096,0,0.096,0,0.193-0.096
	c-0.096-0.385,0.385-0.578,0.578-0.771c0.385-0.193,0.963-0.193,1.349-0.193c0.193,0,0.578,0.096,0.867,0.289
	c0.193,0.096,0.385,0.482,0.289,0.771c0,0.096,0.193,0.096,0.289,0.096c0.289,0,0.963,0.193,1.252,0.289
	c0.096,0,0.193,0,0.289,0.096c-0.193,0-0.289,0-0.482,0c-0.289,0-0.482-0.096-0.867-0.096c0,0-0.385-0.193-0.482-0.096
	c-0.193,0.193-0.289,0.578-0.578,0.771c-0.385,0.193-0.963,0.289-1.638,0.193c-0.193,0-0.771-0.385-0.867-0.578
	c0-0.096,0-0.193,0-0.289s-0.096-0.096-0.289-0.096c-0.096,0-0.289-0.096-0.385-0.096c-0.193,0-0.289,0-0.482,0
	s-0.289,0.096-0.482,0.096c0,0-0.096,0-0.096,0.096l0.096,0.096c0.289,0.193,0.482,0.385,0.867,0.771c0,0,0,0,0,0.096h-0.096
	c-0.096-0.096-0.096-0.096-0.193-0.193c-0.193-0.193-0.385-0.385-0.771-0.482c-0.096-0.096-0.193-0.096-0.289-0.096
	c-0.385,0.096-0.771,0.193-1.156,0.289c-0.578,0.193-1.156,0.193-1.734,0.096c-0.193,0-0.385-0.096-0.578-0.096
	c-0.096,0-0.193,0,0,0.193c0.385,0.289,1.156,0.482,1.542,0.578s0.578,0.096,0.867,0.193c0.385,0.096,0.867,0.193,1.156,0.193
	c0.578,0.096,1.156,0.096,1.542,0.096c0.289,0,0.578,0,0.963,0.096c0.096,0,0.193,0.096,0.289,0.096c0.193,0.096,0.289,0,0.482,0
	c0,0,0.096-0.096,0.193-0.193c0.193-0.096,0.385-0.193,0.578-0.193s0.385,0,0.578,0.096s0.289,0.193,0.385,0.385
	c0,0.096,0,0.482-0.096,0.578c-0.096,0.193-0.289,0.385-0.482,0.482c-0.096,0,0.193,0.193,0.193,0.289s0.096,0.193,0.096,0.193
	v0.096c-0.096-0.096-0.096-0.193-0.193-0.193c0,0-0.096-0.193-0.193-0.289c-0.096-0.193-0.289-0.096-0.482,0s-0.385,0-0.771,0
	c-0.096,0-0.385-0.193-0.385-0.289c-0.096-0.096-0.096-0.482,0-0.578s0.096-0.096-0.096-0.193c-0.482-0.193-0.771-0.193-1.252-0.193
	c-0.289,0-1.349-0.096-1.638-0.096c-0.193,0-0.096,0.289,0.096,0.193c0.482-0.096,1.156,0.193,1.349,0.578
	c0.096,0.193,0.289,0.578,0.096,0.867c-0.289,0.385-0.867,0.385-1.638,0.289c-0.867-0.289-1.252-0.771-1.349-0.963
	s-0.193-0.771,0.096-0.963c0.289-0.289,0.771,0,0.963,0s0.193-0.193,0.193-0.193c-0.193-0.193-1.06-0.289-1.542-0.385
	c-0.193,0-1.252-0.482-1.542-0.771c-0.289-0.096-0.096-0.482-0.385-0.578c-0.193-0.096-0.289-0.193-0.674-0.193h-0.096v0.096
	c0,0.193,0.096,0.289,0.193,0.482c0.385,0.482,0.963,0.963,1.349,1.349s0.963,0.771,1.349,1.156c0.289,0.289,0.963,1.252,1.06,1.252
	c0.193,0.096,0.385,0,0.482-0.096c0.289-0.096,0.482,0.096,0.578,0.289c0.096,0.096-0.193,0.771-0.289,0.867
	c-0.193,0.193-0.578,0.289-0.867,0.193c-0.096,0-0.289-0.289-0.289-0.385s0.193-0.289,0.193-0.385v-0.096
	c-0.289-0.482-0.771-0.963-1.156-1.349c-0.289-0.193-0.578-0.482-0.963-0.771h-0.578v0.096c0,0.193,0.096,0.289,0.096,0.482
	c0.096,0.193,0.096,0.385,0.193,0.482v0.096c-0.096-0.096-0.096-0.193-0.193-0.289c-0.096-0.289-0.193-0.578-0.289-1.06
	c0-0.193-0.096-0.289-0.193-0.385c-0.385-0.289-0.867-0.578-1.156-1.06c-0.096-0.096-0.193-0.193-0.289-0.385
	c0,0.096,0,0.096,0,0.096c0,0.578,0,1.349,0,1.831c0,0-0.193,1.252-0.096,2.023c0,0.289,0,0.578,0.096,0.867
	c0.096,0.193,0.193,0.385,0.289,0.578c0,0.096,0.096,0.096,0.193,0.096c0.289,0,0.578,0,0.963,0.096
	c0.385,0,0.771,0.193,0.963,0.578c0.096,0.193,0,0.482-0.193,0.771c-0.096,0.096-0.289,0.193-0.385,0.289
	c0,0.385-0.289,0.385-0.482,0.385c-0.096,0-0.193-0.096-0.289-0.096c-0.289-0.096-0.482-0.193-0.771-0.385s-0.385-0.482-0.385-0.771
	c0-0.193,0.096-0.385,0.289-0.482c0-0.096-0.096-0.193-0.096-0.289c-0.193-0.385-0.385-0.963-0.385-1.349
	c0-0.578-0.096-0.385-0.096-0.963l-0.096-0.193l-0.096,0.193c0,0.096-0.193,0.193-0.193,0.193c-0.193,0.096-0.289,0.193-0.482,0.193
	s-0.289,0.096-0.385,0.193c-0.193,0.096-0.385,0.385-0.578,0.578c-0.193,0.289-0.771,0.482-1.06,0.578
	c-0.096,0-0.482,0.193-0.482,0.096c0.096,0.096,0.385,0,0.578,0.096c0.289,0,0.482,0.193,0.482,0.289
	c0.096,0.193,0,0.482-0.193,0.771c-0.289,0.289-0.674,0.385-1.06,0.385s-0.771-0.096-1.06-0.385
	c-0.193-0.193-0.096-0.482,0.096-0.771l0.482-0.193v-0.096c-0.096,0-0.867,0.096-0.867,0.096c0.096,0,0.193-0.096,0.289-0.096
	c0.385-0.096,0.867-0.096,1.252-0.193c0.193,0,0.482-0.096,0.674-0.193c0.096,0,0.193-0.096,0.193-0.193c0.096,0-0.193,0-0.193,0
	c-0.096,0-0.289-0.096-0.385,0.096c-0.096,0.193-0.289,0.193-0.578,0.096c-0.096,0-0.193-0.193-0.193-0.289
	c0-0.096-0.096-0.096-0.096-0.096c-0.385,0-0.963-0.096-1.349-0.096c-0.096,0-0.096,0-0.193,0h0.096c0.385,0,0.867,0,1.252,0
	c0.096,0,0.096,0,0.193,0c0.096,0,0.193-0.096,0.289-0.193c0.193-0.193,0.482-0.193,0.578,0c0,0,0.096,0.096,0.096,0.193
	l0.096,0.096c0,0,0.096,0.096,0.193,0.096c0.193,0.096,0.289,0,0.482-0.096c0.193-0.289,0.482-0.482,0.674-0.771v-0.096
	l-0.385,0.193c-0.193,0-0.963-0.193-1.06-0.385c-0.096-0.193-0.096-0.771,0-0.867c0.096-0.193,1.06-0.193,1.252-0.289
	c0.193-0.096,0.867-0.385,1.156-0.193c0.096,0.193,0.193,0.578,0.096,0.867l-0.578,0.578c0.096,0.096,0.482-0.193,0.578-0.193
	c0.096-0.193,0.578-0.963,0.771-1.349c0-0.771-0.096-1.349-0.096-1.927c0-0.193,0.096-0.289,0.096-0.482l-0.096-0.096
	c-0.193,0.193-0.385,0.385-0.482,0.578c-0.096,0.096-0.096,0.193-0.193,0.289c0,0.096-0.096,0.193-0.096,0.385
	c0,0.096-0.096,0.193-0.096,0.289c-0.096,0.289-0.289,0.482-0.578,0.578c0,0,0,0-0.096,0c0.096-0.096,0.096-0.096,0.193-0.193
	c0.193-0.096,0.289-0.289,0.385-0.482c0.096-0.193,0.193-0.385,0.193-0.578v-0.096V22.98h-0.096
	c-0.193,0.096-0.289,0.193-0.482,0.289c-0.193,0.096-0.289,0.193-0.289,0.289c-0.096,0.193-0.193,0.385-0.385,0.578c0,0,0,0-0.096,0
	c0.096-0.193,0.289-0.289,0.289-0.482c-0.096,0-0.193,0.096-0.193,0.096c-0.193,0.096-0.385,0.193-0.578,0.096
	c-0.289,0-0.482-0.096-0.674-0.289H10.8c-0.193,0-0.289,0.096-0.385,0.193c-0.096,0.193-0.193,0.289-0.289,0.482
	c-0.096,0.096-0.096,0.193-0.096,0.289c-0.096,0.096-0.096,0.289-0.193,0.385c0,0.096,0,0.096,0.096,0.096s0.289,0.096,0.289,0.193
	c0.096,0.096,0.096,0.289,0,0.385c-0.096,0.289-0.289,0.385-0.578,0.385c-0.096,0-0.289,0.096-0.385,0.096
	c-0.193,0-0.289,0-0.385-0.193c-0.096-0.193-0.193-0.289-0.096-0.385c0-0.193,0.096-0.289,0.385-0.385
	c0.096-0.096,0.482,0,0.482-0.096c0.096-0.096,0.096-0.096,0.193-0.289l-0.096-0.096H9.644c-0.193,0.096-0.385,0.193-0.578,0.289
	H8.873c0.096,0,0.096-0.096,0.193-0.096c0.193-0.096,0.289-0.193,0.482-0.289c0.193-0.096,0.385-0.289,0.578-0.578V23.75l0,0
	c-0.193,0.096-0.482,0.096-0.674,0.193c-0.289,0.096-0.482,0.289-0.771,0.385c-0.096,0.096-0.193,0.193-0.385,0.289H8.199
	c0.193-0.193,0.385-0.385,0.674-0.578s0.578-0.385,0.963-0.482c0.193-0.193,0.482-0.193,0.674-0.289
	c0.096,0,0.096-0.096,0.096-0.096c0.096-0.385,0.482-0.771,0.867-0.578c0.096,0,0.193,0.096,0.289,0.096
	c0.193,0.096,0.289,0.096,0.482,0.193c0.096,0,0.096,0.096,0.193,0.096c0.096,0.096,0.096,0.096,0.289,0.096
	c0.385-0.096,0.771-0.385,0.963-0.771c0.193-0.193,0.385-0.385,0.482-0.578c0,0,0-1.349,0-1.445c0-0.289,0.096-1.252,0.096-1.445
	c0.096-0.578,0.482-1.445,0.771-2.312c0.096-0.193,0.771-2.023,0.771-2.023c0-0.385,0.096-0.674,0-1.156
	c0-0.096-0.096-0.193-0.193-0.289c-0.096-0.096-0.193-0.193-0.289-0.385c-0.096-0.096-0.193-0.193-0.289-0.096
	c-0.096,0-0.096,0.096,0,0.096c0.193,0.193,0.096,0.385,0,0.482c-0.193,0.289-0.482,0.482-0.867,0.578
	c-0.193,0.096-0.385,0.096-0.482,0c-0.096,0-0.193,0-0.385,0c-0.096,0-0.096,0-0.096-0.096c0.096-0.193,0.193-0.385,0.289-0.771
	c0.096-0.289,0.193-0.482,0.385-0.674c0.096-0.096,0.289-0.193,0.482-0.193c0.096,0,0.096,0,0.193,0
	c-0.096,0-0.096-0.096-0.193-0.096s-0.096,0-0.193,0c0,0.096-0.096,0.096-0.193,0.096c-0.096-0.096-0.289-0.096-0.385-0.193
	c0.096,0.289-0.096,0.385-0.193,0.578c-0.289,0.193-0.578,0.385-0.963,0.482c-0.193,0-0.385,0-0.578-0.096c-0.096,0-0.193,0-0.289,0
	C11.378,12.965,11.378,12.965,11.378,12.869c0.096-0.096,0.193-0.193,0.289-0.289c0.096-0.193,0.193-0.385,0.289-0.578
	c0-0.096,0.096-0.193,0.193-0.289c-0.096,0-0.096,0-0.096,0c-0.289,0-0.482,0.096-0.482,0.482c0,0.096,0,0.289,0,0.385
	C11.378,12.676,11.378,12.772,11.378,12.869z M15.136,8.726C15.329,8.726,15.329,8.726,15.136,8.726
	c0.096,0,0.096-0.096,0.096-0.096c0-0.096,0.096-0.193,0.096-0.385c0.193-0.289,0.193-0.482,0.193-0.578s0-0.096-0.096-0.096
	c-0.096,0.096-0.193,0.096-0.385,0c0,0-0.193-0.096-0.193-0.193l0,0C14.847,7.859,15.04,8.341,15.136,8.726z M14.654,4.005
	L14.654,4.005c0.289-0.289,0.674-0.482,0.867-0.771c0.193-0.096,0.193-0.096,0-0.289c-0.096-0.193-0.096-0.193-0.289,0
	s-0.289,0.482-0.482,0.771C14.75,3.909,14.75,3.909,14.654,4.005z M12.631,6.895L12.631,6.895c-0.193,0-0.289,0-0.482,0
	l-0.096,0.096c0,0.096,0,0.193,0,0.289v0.096h0.096C12.149,7.184,12.342,7.088,12.631,6.895C12.631,6.992,12.631,6.895,12.631,6.895
	z M16.003,3.523c0-0.096-0.096-0.193-0.096-0.289c0,0-0.096-0.096-0.096,0c-0.096,0.096-0.193,0.096-0.289,0.193
	c0,0,0,0-0.096,0.096h0.096C15.618,3.62,15.81,3.523,16.003,3.523C15.907,3.523,16.003,3.523,16.003,3.523z M18.508,14.988
	c0,0.193,0,0.193,0.193,0.096l0,0c0.096,0,0.096-0.096,0-0.193c-0.096-0.096-0.096-0.193-0.193-0.193
	C18.508,14.603,18.508,14.892,18.508,14.988z M13.594,5.354c0.096,0.096,0.096,0.289,0.193,0.385c0,0,0,0,0.096,0c0,0,0,0,0-0.096
	s0-0.096,0-0.193V5.354C13.787,5.45,13.787,5.45,13.594,5.354z M18.315,14.892L18.315,14.892c-0.193,0.096-0.193,0.193-0.289,0.385
	c0.096,0,0.193,0,0.289-0.096c0,0,0,0,0-0.096C18.315,15.085,18.315,14.988,18.315,14.892z M12.535,6.606c0.096,0,0.193,0,0.193,0
	s0.096,0,0.096-0.096s-0.096-0.096-0.096-0.193C12.727,6.414,12.535,6.51,12.535,6.606z M16.87,13.158
	c0,0.096,0.096,0.193,0.096,0.193h0.096v-0.096C17.063,13.158,16.966,13.158,16.87,13.158z M15.618,7.762
	c0-0.096,0.096-0.096,0.096-0.193c0,0,0-0.096-0.096-0.096C15.618,7.473,15.521,7.57,15.618,7.762z M14.847,12.58
	C14.847,12.58,14.943,12.58,14.847,12.58c0-0.096,0-0.096-0.096-0.193l0,0C14.75,12.58,14.75,12.58,14.847,12.58z M15.618,8.341
	C15.618,8.341,15.618,8.437,15.618,8.341c0.096,0,0.096-0.096,0.096-0.096s0,0,0-0.096l0,0C15.714,8.148,15.618,8.148,15.618,8.341
	L15.618,8.341z M14.75,4.294c0-0.096,0.096-0.096,0.096-0.096s0,0-0.096-0.096c0,0-0.096,0-0.096,0.096
	C14.75,4.198,14.75,4.294,14.75,4.294z"/>
</svg>
