<?xml version="1.0" encoding="utf-8"?>
<!-- Generator: Adobe Illustrator 27.6.1, SVG Export Plug-In . SVG Version: 6.00 Build 0)  -->
<svg version="1.1" id="frog" xmlns="http://www.w3.org/2000/svg" xmlns:xlink="http://www.w3.org/1999/xlink" x="0px" y="0px"
	 viewBox="0 0 32 32" style="enable-background:new 0 0 32 32;" xml:space="preserve">
<path d="M22.985,3.326C23.031,3.264,23.08,3.2,23.114,3.13c0.011-0.021,0.017-0.045,0.017-0.069c0-0.217-0.071-0.327-0.213-0.327
	c-0.015,0-0.029,0.002-0.043,0.006c-0.339,0.097-0.552,0.376-0.653,0.683c-0.055-0.204-0.037-0.444,0.062-0.595
	c0.044-0.044,0.068-0.137,0.044-0.196c-0.053-0.127-0.21-0.127-0.326-0.127c-0.036,0-0.071,0.013-0.099,0.036
	c-0.276,0.23-0.317,0.571-0.316,0.887c-0.07-0.085-0.139-0.168-0.2-0.225c-0.033-0.05-0.047-0.148-0.058-0.227
	c-0.017-0.122-0.043-0.307-0.22-0.307c-0.024,0-0.071,0.012-0.093,0.023c-0.172,0.086-0.234,0.21-0.256,0.299
	c-0.072,0.293,0.174,0.638,0.372,0.914c0.021,0.03,0.042,0.059,0.062,0.086c-0.007,0-0.014,0.001-0.019,0.002
	C20.77,4.06,20.58,3.835,20.474,3.707c-0.05-0.061-0.09-0.109-0.16-0.123c-0.054-0.01-0.135,0.017-0.171,0.057
	c-0.069,0.077-0.057,0.188-0.046,0.285c0.002,0.016,0.003,0.03,0.004,0.039c0,0.017,0.003,0.033,0.008,0.049
	c0.109,0.327,0.341,0.496,0.546,0.645c0.152,0.111,0.284,0.206,0.349,0.356c0.016,0.053-0.027,0.226-0.488,0.788l-0.053,0.065
	c-0.136,0.17-0.194,0.406-0.244,0.615c-0.027,0.111-0.071,0.297-0.102,0.324c-0.21-0.004-0.835-0.571-0.859-0.731
	c-0.011-0.278-0.391-1.404-0.53-1.7C18.601,4.106,17.393,2.2,16.131,2.2c-0.076,0-0.152,0.007-0.238,0.024
	c-0.657,0.188-1.092,0.723-1.512,1.24c-0.128,0.158-0.256,0.316-0.391,0.464c-0.01,0.011-0.018,0.022-0.024,0.035L13.68,4.535
	c-0.155,0.309-0.452,1.155-0.497,1.59c-0.295,0.155-0.534,0.434-0.73,0.662c-0.051,0.059-0.108,0.126-0.158,0.178
	c-0.026-0.09-0.054-0.21-0.078-0.308c-0.06-0.253-0.129-0.54-0.22-0.752C11.993,5.9,11.723,5.284,11.45,4.964
	c0.083-0.068,0.171-0.129,0.262-0.192c0.183-0.127,0.373-0.258,0.547-0.467c0.007-0.009,0.014-0.019,0.019-0.03
	c0.043-0.085,0.037-0.182-0.015-0.267c-0.062-0.1-0.191-0.185-0.316-0.175c-0.096,0.019-0.185,0.043-0.273,0.067
	c-0.115,0.032-0.226,0.062-0.351,0.079c0.005-0.021,0.009-0.04,0.012-0.057l0.028-0.037c0.138-0.181,0.292-0.381,0.302-0.631
	c0.125-0.053,0.133-0.165,0.133-0.193c0-0.164-0.167-0.384-0.338-0.384c-0.087,0-0.16,0.053-0.192,0.139
	c-0.094,0.256-0.194,0.404-0.326,0.565c-0.005-0.297-0.04-0.597-0.205-0.814c-0.112-0.148-0.452-0.076-0.449,0.177
	c0.019,0.116,0.058,0.405,0.007,0.632c-0.079-0.236-0.249-0.464-0.501-0.665C9.767,2.689,9.733,2.677,9.698,2.677
	c-0.215,0-0.262,0.112-0.269,0.191C9.387,3.066,9.506,3.207,9.584,3.3C9.61,3.33,9.656,3.386,9.657,3.404
	c0,0.066-0.002,0.134-0.004,0.203c-0.01,0.301-0.02,0.643,0.132,0.946C9.878,4.772,9.875,4.97,9.87,5.199
	C9.868,5.345,9.865,5.495,9.887,5.636l0.001,0.225c0.029,0.298,0.058,0.575,0.105,0.922c0.034,0.25,0.489,1.236,0.521,1.298
	c0.005,0.011,0.012,0.021,0.02,0.03c0.022,0.027,0.234,0.267,0.81,0.476c0.284,0.103,0.512,0.158,0.696,0.168
	C11.961,8.9,11.865,9.09,11.801,9.289c-0.128,0.397-0.14,0.803-0.141,0.904c-0.111,0.406-0.06,0.76-0.006,1.135l0.006,0.145
	c0,0.816,0.228,1.508,0.491,2.198c-0.634,0.712-1.277,1.732-1.47,2.174c-0.194,0.445-0.429,0.923-0.428,0.923l0,0
	c-0.312,0.49-0.364,1.011-0.414,1.515c-0.018,0.181-0.036,0.364-0.065,0.539c-0.181,0.846,0.26,1.562,0.735,2.223l0.105,0.41
	c0.59,1.313,1.211,2.106,1.999,3.111c0.127,0.162,0.259,0.33,0.408,0.522l0.078,0.076c0.287,0.277,0.433,0.455,0.443,0.504
	c-0.419,0.419-0.943,0.681-1.498,0.96c-0.176,0.088-0.354,0.178-0.534,0.274c-0.453,0.252-0.941,0.478-1.597,0.741
	c-0.363,0.181-0.606,0.473-0.871,0.871c-0.138,0.276-0.25,0.694-0.109,0.964c0.061,0.117,0.163,0.194,0.311,0.225
	c0.026,0.167,0.11,0.315,0.267,0.393c0.034,0.017,0.069,0.019,0.116,0.016c0.016,0.014,0.035,0.028,0.056,0.042
	C9.748,30.185,9.806,30.2,9.861,30.2c0.185,0,0.257-0.16,0.304-0.266c0.008-0.018,0.016-0.037,0.026-0.056
	c0.155-0.019,0.234-0.088,0.234-0.208c0-0.07,0.01-0.133,0.029-0.191c-0.023,0.142-0.005,0.29,0.081,0.44
	c0.025,0.044,0.071,0.073,0.121,0.078c0.052,0.003,0.1-0.016,0.133-0.055c0.103-0.123,0.198-0.247,0.292-0.37
	c0.012,0.08,0.039,0.16,0.085,0.236c0.025,0.041,0.067,0.069,0.114,0.074c0.048,0.007,0.095-0.01,0.129-0.044
	c0.239-0.239,0.416-0.531,0.586-0.815c0.099-0.099,0.201-0.199,0.278-0.238c0.078-0.031,0.162-0.058,0.246-0.085
	c0.226-0.073,0.482-0.156,0.716-0.344c0.345-0.314,0.627-0.682,0.899-1.037c0.236-0.308,0.479-0.627,0.754-0.902
	c0.356-0.285,0.345-0.797,0.223-1.158c-0.031-0.187-0.105-0.387-0.177-0.582c-0.067-0.181-0.136-0.367-0.162-0.528l-0.047-0.244
	c-0.314-1.63-0.611-3.172-1.48-4.527c0.555-0.279,1.045-0.66,1.498-1.171c0.008-0.011,0.763-1,1.194-1.515
	c0.039,0.025,0.094,0.043,0.168,0.025c0.24,0.333,0.491,0.669,0.782,0.965l0.046,0.137c0.007,0.021,0.018,0.04,0.033,0.056
	c0.636,0.694,1.333,1.214,2.074,1.55l-0.24,0.236c-0.01,0.01-0.019,0.021-0.026,0.034c-0.716,1.279-0.985,2.615-1.27,4.03
	c-0.039,0.195-0.079,0.392-0.122,0.598c-0.027,0.162-0.084,0.345-0.138,0.524c-0.058,0.188-0.118,0.382-0.142,0.54
	c-0.08,0.24-0.232,0.839,0.083,1.233c0.008,0.01,0.018,0.02,0.028,0.028c0.22,0.165,0.448,0.335,0.661,0.547
	c0.097,0.117,0.174,0.242,0.255,0.374c0.146,0.238,0.296,0.483,0.586,0.69c0.235,0.141,0.507,0.245,0.746,0.337l0.18,0.069
	c0.197,0.099,0.354,0.311,0.46,0.469c0.055,0.074,0.091,0.151,0.126,0.226c0.065,0.139,0.138,0.297,0.329,0.392
	c0.072,0.037,0.161,0.011,0.203-0.059c0.041-0.068,0.064-0.137,0.075-0.208c0.11,0.137,0.214,0.254,0.312,0.352
	c0.034,0.034,0.083,0.052,0.131,0.044c0.048-0.007,0.09-0.035,0.114-0.077c0.117-0.205,0.108-0.405,0.041-0.592
	c0.193,0.213,0.31,0.447,0.358,0.715c0.014,0.074,0.078,0.127,0.153,0.127c0.01,0,0.017,0.003,0.037,0.011
	c0.025,0.011,0.06,0.026,0.105,0.026c0.073,0,0.132-0.036,0.181-0.115c0.019,0.011,0.04,0.018,0.062,0.02
	c0.044,0.003,0.092-0.012,0.125-0.045c0.059-0.059,0.075-0.121,0.086-0.172c0.021-0.021,0.036-0.049,0.043-0.08
	c0.006-0.03,0.011-0.059,0.016-0.088c0.038,0.008,0.077,0.002,0.11-0.018c0.129-0.074,0.224-0.21,0.269-0.382
	c0.061-0.235,0.023-0.507-0.097-0.707c-0.354-0.618-0.986-0.852-1.598-1.078c-0.238-0.088-0.485-0.179-0.709-0.291
	c-0.219-0.11-0.51-0.354-0.675-0.572c-0.238-0.238-0.602-0.423-0.924-0.587c-0.202-0.103-0.506-0.258-0.538-0.31
	c0.031-0.181,0.742-1.076,1.167-1.612c0.168-0.212,0.329-0.414,0.448-0.572l0.114-0.114c0.011-0.011,0.019-0.022,0.026-0.035
	c0.112-0.206,0.24-0.41,0.364-0.608c0.249-0.398,0.506-0.809,0.665-1.27l0.089-0.089c0.019-0.019,0.032-0.042,0.039-0.067
	c0.072-0.254,0.226-0.492,0.388-0.743c0.077-0.119,0.155-0.24,0.231-0.375c0.122-0.243,0.188-0.552,0.188-0.855
	c0.109-1.095-0.19-2.34-0.817-3.404l-0.055-0.11c-0.288-0.623-0.69-1.164-1.079-1.687c-0.069-0.092-0.136-0.183-0.204-0.275
	c0.071-0.19,0.15-0.382,0.228-0.576c0.37-0.911,0.752-1.852,0.608-2.863l-0.244-1.282c-0.054-0.168-0.094-0.363-0.097-0.428
	c0.081-0.027,0.288-0.036,0.382-0.04c0.068-0.003,0.128-0.006,0.168-0.011c0.263-0.032,0.81-0.34,0.928-0.497
	c0.062-0.084,0.108-0.214,0.148-0.329c0.018-0.05,0.042-0.12,0.05-0.134c0.185-0.238,0.35-0.742,0.365-0.789
	c0.123-0.307,0.114-0.954,0.113-1.03l-0.011-0.249C22.607,5.439,22.651,5.2,22.775,4.89c0.097-0.26,0.082-0.524,0.067-0.779
	c-0.014-0.233-0.027-0.454,0.041-0.637C22.91,3.424,22.948,3.375,22.985,3.326z"/>
</svg>
