<?xml version="1.0" encoding="utf-8"?>
<!-- Generator: Adobe Illustrator 25.4.1, SVG Export Plug-In . SVG Version: 6.00 Build 0)  -->
<svg version="1.1" id="frog" xmlns="http://www.w3.org/2000/svg" xmlns:xlink="http://www.w3.org/1999/xlink" x="0px" y="0px"
	 viewBox="0 0 32 32" style="enable-background:new 0 0 32 32;" xml:space="preserve">
<style type="text/css">
	.st0{fill:#1B2C39;}
</style>
<path class="st0" d="M23.5,2.2c0-0.1,0.1-0.1,0.1-0.2c0,0,0,0,0-0.1c0-0.2-0.1-0.4-0.2-0.4l0,0C23,1.7,22.8,2,22.7,2.3
	c-0.1-0.2,0-0.5,0.1-0.6c0,0,0.1-0.1,0-0.2s-0.2-0.1-0.3-0.1h-0.1C22,1.6,22,2,22,2.3c-0.1-0.1-0.1-0.2-0.2-0.2c0-0.1,0-0.2-0.1-0.2
	c0-0.1,0-0.3-0.2-0.3h-0.1c-0.2,0.1-0.3,0.2-0.3,0.3c-0.1,0.3,0.2,0.7,0.4,1c0,0,0,0.1,0.1,0.1l0,0c-0.4,0.1-0.6-0.2-0.8-0.3
	c-0.1-0.1-0.1-0.1-0.2-0.1s-0.1,0-0.2,0.1s-0.1,0.2,0,0.3l0,0c0,0,0,0,0,0.1c0.1,0.4,0.4,0.5,0.6,0.7c0.2,0.1,0.3,0.2,0.4,0.4
	c0,0.1,0,0.2-0.5,0.8l-0.1,0.1c-0.1,0.2-0.2,0.4-0.3,0.7c0,0.1-0.1,0.3-0.1,0.3c-0.2,0-0.9-0.6-0.9-0.8c0-0.3-0.4-1.5-0.6-1.8
	C18.8,3,17.5,1,16.1,1c-0.1,0-0.2,0-0.3,0c-0.7,0.2-1.2,0.8-1.6,1.3c-0.1,0.2-0.3,0.3-0.4,0.5l0,0l-0.3,0.6C13.3,3.8,13,4.7,13,5.2
	c-0.3,0.2-0.6,0.5-0.8,0.7C12.1,6,12.1,6.1,12,6.1c0-0.1,0-0.2-0.1-0.3c-0.1-0.3-0.1-0.6-0.2-0.8c0,0-0.3-0.7-0.6-1
	c0.1-0.1,0.2-0.1,0.3-0.2c0.2-0.1,0.4-0.3,0.6-0.5l0,0c0-0.1,0-0.2,0-0.3c-0.1-0.1-0.2-0.2-0.3-0.2s-0.2,0-0.3,0.1
	C11.3,2.9,11.2,3,11,3c0,0,0,0,0-0.1l0,0c0.1-0.2,0.3-0.4,0.3-0.7C11.4,2.1,11.4,2,11.4,2c0-0.2-0.2-0.4-0.4-0.4
	c-0.1,0-0.2,0.1-0.2,0.1c-0.1,0.3-0.2,0.4-0.3,0.6c0-0.3,0-0.6-0.2-0.9c-0.1-0.2-0.5-0.1-0.5,0.2c0,0.1,0.1,0.4,0,0.7
	c0-0.3-0.2-0.5-0.4-0.8H9.3C9,1.5,9,1.6,9,1.7c0,0.2,0.1,0.4,0.2,0.5l0.1,0.1c0,0.1,0,0.1,0,0.2c0,0.3,0,0.7,0.1,1
	c0,0.3,0,0.5,0,0.7s0,0.3,0,0.5v0.2c0,0.3,0.1,0.6,0.1,1c0,0.3,0.5,1.3,0.6,1.4l0,0c0,0,0.3,0.3,0.9,0.5C11.3,8,11.6,8,11.8,8
	c-0.1,0.2-0.2,0.4-0.3,0.6c-0.1,0.4-0.1,0.9-0.2,1c-0.1,0.4-0.1,0.8,0,1.2V11c0,0.9,0.2,1.6,0.5,2.4c-0.7,0.8-1.4,1.9-1.6,2.3
	c-0.2,0.5-0.5,1-0.5,1l0,0c-0.3,0.5-0.4,1.1-0.4,1.6c0,0.2,0,0.4-0.1,0.6C9,19.8,9.5,20.6,10,21.3l0.1,0.4c0.6,1.4,1.3,2.3,2.1,3.3
	c0.1,0.2,0.3,0.4,0.4,0.6l0.1,0.1c0.3,0.3,0.5,0.5,0.5,0.5c-0.4,0.4-1,0.7-1.6,1c-0.2,0.1-0.4,0.2-0.6,0.3c-0.5,0.3-1,0.5-1.7,0.8
	c-0.4,0.2-0.6,0.5-0.9,0.9c-0.1,0.3-0.3,0.7-0.1,1c0.1,0.1,0.2,0.2,0.3,0.2c0,0.2,0.1,0.3,0.3,0.4H9c0,0,0,0,0.1,0
	C9.3,31,9.4,31,9.4,31c0.2,0,0.3-0.2,0.3-0.3c0,0,0,0,0-0.1c0.2,0,0.3-0.1,0.3-0.2s0-0.1,0-0.2c0,0.2,0,0.3,0.1,0.5l0.1,0.1
	c0.1,0,0.1,0,0.1-0.1c0.1-0.1,0.2-0.3,0.3-0.4c0,0.1,0,0.2,0.1,0.3l0.1,0.1c0.1,0,0.1,0,0.1,0c0.3-0.3,0.4-0.6,0.6-0.9
	c0.1-0.1,0.2-0.2,0.3-0.3c0.1,0,0.2-0.1,0.3-0.1c0.2-0.1,0.5-0.2,0.8-0.4c0.4-0.3,0.7-0.7,1-1.1c0.3-0.3,0.5-0.7,0.8-1
	c0.4-0.3,0.4-0.9,0.2-1.2c0-0.2-0.1-0.4-0.2-0.6c-0.1-0.2-0.1-0.4-0.2-0.6l-0.1-0.3c-0.3-1.7-0.7-3.4-1.6-4.9
	c0.6-0.3,1.1-0.7,1.6-1.3c0,0,0.8-1.1,1.3-1.6c0,0,0.1,0,0.2,0c0.3,0.4,0.5,0.7,0.8,1v0.1c0,0,0,0,0,0.1c0.7,0.7,1.4,1.3,2.2,1.7
	l0.1,0.4l0,0c-0.8,1.4-1.1,2.8-1.4,4.3c0,0.2-0.1,0.4-0.1,0.6s-0.1,0.4-0.1,0.6c-0.1,0.2-0.1,0.4-0.2,0.6c-0.1,0.3-0.2,0.9,0.1,1.3
	l0,0c0.2,0.2,0.5,0.4,0.7,0.6c0.1,0.1,0.2,0.3,0.3,0.4c0.2,0.3,0.3,0.5,0.6,0.7c0.3,0.2,0.5,0.3,0.8,0.4l0.2,0.1
	c0.2,0.1,0.4,0.3,0.5,0.5c0.1,0.1,0.1,0.2,0.1,0.2c0.1,0.1,0.1,0.3,0.4,0.4c0.1,0,0.2,0,0.2-0.1s0.1-0.1,0.1-0.2
	c0.1,0.1,0.2,0.3,0.3,0.4c0,0,0.1,0.1,0.1,0c0.1,0,0.1,0,0.1-0.1c0.1-0.2,0.1-0.4,0-0.6c0.2,0.2,0.3,0.5,0.4,0.8
	c0,0.1,0.1,0.1,0.2,0.1l0,0h0.1c0.1,0,0.1,0,0.2-0.1c0,0,0,0,0.1,0h0.1c0.1-0.1,0.1-0.1,0.1-0.2v-0.1v-0.1H23
	c0.1-0.1,0.2-0.2,0.3-0.4c0.1-0.3,0-0.5-0.1-0.8c-0.4-0.7-1.1-0.9-1.7-1.2c-0.3-0.1-0.5-0.2-0.8-0.3c-0.2-0.1-0.5-0.4-0.7-0.6
	c-0.3-0.3-0.6-0.5-1-0.6c-0.2-0.1-0.5-0.3-0.6-0.3c0-0.2,0.8-1.2,1.2-1.7c0.2-0.2,0.4-0.4,0.5-0.6l0.1-0.1l0,0
	c0.1-0.2,0.3-0.4,0.4-0.7c0.3-0.4,0.5-0.9,0.7-1.4l0.1-0.1c0,0,0,0,0-0.1c0.1-0.3,0.2-0.5,0.4-0.8c0.1-0.1,0.2-0.3,0.2-0.4
	c0.1-0.3,0.2-0.6,0.2-0.9c0.1-1.2-0.2-2.5-0.9-3.6l-0.1-0.1c-0.3-0.7-0.7-1.2-1.2-1.8c-0.1-0.1-0.1-0.2-0.2-0.3
	c0.1-0.2,0.2-0.4,0.2-0.6c0.4-1,0.8-2,0.7-3.1l-0.3-1.4C20.9,8.2,20.8,8,20.8,8c0.1,0,0.3,0,0.4,0s0.1,0,0.2,0c0.3,0,0.9-0.4,1-0.5
	s0.1-0.2,0.2-0.4c0-0.1,0-0.1,0.1-0.1C22.8,6.6,23,6.1,23,6c0.1-0.3,0.1-1,0.1-1.1V4.6c0-0.2,0-0.5,0.1-0.8s0.1-0.6,0.1-0.8
	c0-0.2,0-0.5,0-0.7C23.4,2.3,23.4,2.3,23.5,2.2z"/>
</svg>
