<?xml version="1.0" encoding="utf-8"?>
<!-- Generator: Adobe Illustrator 27.6.1, SVG Export Plug-In . SVG Version: 6.00 Build 0)  -->
<svg version="1.1" id="maize" xmlns="http://www.w3.org/2000/svg" xmlns:xlink="http://www.w3.org/1999/xlink" x="0px" y="0px"
	 viewBox="0 0 32 32" style="enable-background:new 0 0 32 32;" xml:space="preserve">
<g>
	<path d="M16.466,8.663c1.496-4.581,1.122-6.825-0.841-5.89c0.561-0.467,2.15-1.402,2.711-0.748c0.187,0.28,0.935,1.589,0.748,4.301
		C17.775,6.98,17.494,7.354,16.466,8.663z"/>
	<path d="M21.608,6.139c0,0,1.122-1.402,3.085-2.618c0,0-1.589,2.524-1.776,4.488l-0.093,0.187
		C22.449,5.858,21.608,6.139,21.608,6.139"/>
	<path d="M16.84,10.159c0.187-0.187,0.187-0.374-0.093-0.561c-0.187-0.093-0.187-0.187-0.28-0.187c0,0-0.093-0.093-0.28,0.093
		C16,9.597,15.907,9.691,16,9.784c0,0.093,0.467,0.374,0.467,0.467C16.56,10.346,16.747,10.252,16.84,10.159z"/>
	<path d="M17.588,9.317c0.093-0.187,0.093-0.374-0.187-0.561c-0.187-0.093-0.187-0.093-0.28-0.093c0,0-0.093,0-0.28,0.187
		c-0.093,0.187-0.187,0.28-0.187,0.374c0,0.093,0.467,0.28,0.467,0.28C17.307,9.504,17.494,9.411,17.588,9.317z"/>
	<path d="M18.149,8.569c0.093-0.187,0.187-0.374-0.093-0.561c-0.093-0.093-0.187-0.093-0.28-0.093c0,0-0.093,0-0.28,0.187
		c-0.187,0.187-0.187,0.187-0.187,0.374c0,0.093,0.374,0.374,0.467,0.374C17.868,8.756,18.055,8.663,18.149,8.569z"/>
	<path d="M18.71,7.821c0.093-0.187,0.093-0.374-0.093-0.467c-0.093-0.093-0.187-0.093-0.187-0.093s-0.093,0-0.187,0.187
		c-0.093,0.093-0.187,0.093-0.187,0.28c0,0.093,0.374,0.28,0.374,0.28C18.523,8.008,18.616,7.915,18.71,7.821z"/>
	<path d="M19.271,7.448c0.093-0.093,0.187-0.28,0-0.467c-0.093-0.093-0.093-0.187-0.187-0.187c0,0-0.093-0.093-0.28,0
		c-0.093,0.093-0.187,0.093-0.187,0.187c0.093,0.187,0.374,0.467,0.374,0.561C18.99,7.541,19.177,7.541,19.271,7.448z"/>
	<path d="M19.738,6.793c0.093-0.093,0.093-0.28,0-0.374c-0.093-0.093-0.093-0.093-0.093-0.093s-0.093,0-0.187,0.093
		c-0.093,0.093-0.093,0.187-0.093,0.187c0,0.093,0.187,0.187,0.28,0.187C19.551,6.887,19.645,6.887,19.738,6.793z"/>
	<path d="M20.299,6.513c0.093-0.093,0.093-0.187-0.093-0.28c-0.093,0-0.093-0.093-0.093,0c0,0,0,0-0.093,0.093
		s-0.093,0.187-0.093,0.187c0,0.093,0.187,0.093,0.187,0.093C20.206,6.7,20.206,6.606,20.299,6.513z"/>
	<path d="M21.795,9.504c0.093-0.187,0.28-0.28,0.467-0.187c0.093,0.093,0.187,0.093,0.187,0.093s0.093,0.093,0,0.28
		c-0.093,0.187-0.093,0.28-0.187,0.28s-0.374-0.187-0.467-0.187C21.795,9.878,21.702,9.691,21.795,9.504z"/>
	<path d="M21.888,8.943c0-0.187,0.093-0.28,0.374-0.28c0.093,0,0.187,0,0.187,0.093c0,0,0.093,0,0.093,0.28
		c0,0.187,0,0.28-0.093,0.28c-0.093,0.093-0.467,0-0.467,0C21.888,9.224,21.795,9.037,21.888,8.943z"/>
	<path d="M22.169,8.195c0.093-0.093,0.187-0.187,0.28-0.093c0.093,0,0.093,0.093,0.093,0.093s0.093,0,0,0.187
		c0,0.093-0.093,0.187-0.093,0.187c-0.093,0-0.28-0.093-0.28-0.093C22.169,8.382,22.169,8.289,22.169,8.195z"/>
	<path d="M17.214,12.496c0.093-0.187,0.093-0.467-0.374-0.748c-0.28-0.093-0.374-0.187-0.467-0.187s-0.187-0.093-0.374,0.187
		c-0.187,0.187-0.28,0.28-0.187,0.467c0.093,0.187,0.748,0.467,0.841,0.561C16.933,12.776,17.12,12.683,17.214,12.496z"/>
	<path d="M17.775,11.468c0.093-0.187,0.093-0.467-0.374-0.748c-0.28-0.093-0.374-0.187-0.467-0.187s-0.187-0.093-0.374,0.187
		c-0.187,0.187-0.28,0.28-0.187,0.467s0.748,0.467,0.841,0.561C17.494,11.748,17.681,11.655,17.775,11.468z"/>
	<path d="M18.429,10.533c0.093-0.187,0-0.374-0.374-0.561c-0.187-0.093-0.28-0.187-0.374-0.187s-0.187,0-0.28,0.187
		s-0.187,0.28-0.093,0.374s0.654,0.374,0.748,0.374C18.149,10.813,18.336,10.72,18.429,10.533z"/>
	<path d="M18.897,9.691c0.093-0.187,0.093-0.374-0.28-0.561c-0.187-0.093-0.28-0.187-0.374-0.187s-0.187-0.093-0.28,0.187
		c-0.093,0.187-0.187,0.28-0.093,0.374c0.093,0.093,0.654,0.374,0.654,0.374C18.616,9.878,18.803,9.878,18.897,9.691z"/>
	<path d="M19.551,8.85c0.093-0.187,0.093-0.374-0.28-0.561c-0.187-0.093-0.28-0.187-0.374-0.093c-0.093,0-0.187,0-0.28,0.187
		s-0.187,0.28-0.093,0.374c0.093,0.093,0.654,0.374,0.654,0.374C19.271,9.037,19.458,9.037,19.551,8.85z"/>
	<path d="M20.112,8.195c0.093-0.187,0.187-0.374-0.093-0.561c-0.187-0.093-0.187-0.187-0.28-0.187c0,0-0.093-0.093-0.28,0.093
		c-0.093,0.093-0.187,0.187-0.187,0.28c0,0.093,0.467,0.374,0.467,0.374C19.832,8.382,19.925,8.289,20.112,8.195z"/>
	<path d="M20.58,7.448c0.093-0.187,0.093-0.28-0.187-0.467c-0.187-0.093-0.187-0.093-0.28-0.187c0,0-0.093-0.093-0.28,0.093
		c-0.093,0.093-0.187,0.187-0.093,0.28c0.093,0.093,0.467,0.374,0.561,0.374C20.393,7.634,20.486,7.541,20.58,7.448z"/>
	<path d="M20.954,6.887c0.093-0.187,0.093-0.28-0.093-0.374C20.768,6.42,20.674,6.42,20.674,6.42s-0.093,0-0.187,0.093
		S20.299,6.7,20.393,6.7c0,0.093,0.28,0.28,0.374,0.28C20.767,6.98,20.86,6.98,20.954,6.887z"/>
	<path d="M21.328,6.419c0.093-0.093,0-0.187-0.093-0.28c-0.093,0-0.093-0.093-0.093-0.093s-0.093,0-0.093,0.093
		c-0.093,0.093-0.093,0.093-0.093,0.187s0.28,0.187,0.28,0.187S21.328,6.513,21.328,6.419z"/>
	<path d="M21.608,7.261c0.093-0.093,0.187-0.187,0.374-0.093c0.093,0.093,0.187,0.093,0.187,0.093s0.093,0.093,0,0.187
		c0,0.093-0.093,0.187-0.093,0.187c-0.093,0-0.374-0.187-0.374-0.187C21.608,7.448,21.608,7.354,21.608,7.261z"/>
	<path d="M18.71,13.524c0.093-0.187,0.093-0.467-0.467-0.748c-0.28-0.187-0.374-0.187-0.467-0.28c-0.093,0-0.187-0.093-0.374,0.187
		c-0.187,0.187-0.28,0.28-0.187,0.467s0.841,0.561,0.935,0.561C18.336,13.805,18.616,13.711,18.71,13.524z"/>
	<path d="M21.141,10.626c0,0-0.093-0.093-0.28-0.187c-0.374-0.187-0.561-0.093-0.654,0.093c0-0.093-0.093-0.28-0.374-0.374
		c-0.28-0.093-0.374-0.187-0.374-0.187c-0.093,0-0.187-0.093-0.374,0.093c-0.093,0.093-0.187,0.187-0.093,0.28
		c0.093,0.187,0.748,0.467,0.841,0.467s0.28,0,0.374-0.187c0,0.093,0,0.093,0.093,0.187c0.093,0.093,0.561,0.374,0.748,0.374
		c0.187,0,0.187-0.093,0.28-0.28C21.328,10.72,21.234,10.626,21.141,10.626z"/>
	<path d="M21.608,9.691c0,0-0.093-0.093-0.28-0.187c-0.28-0.187-0.467-0.187-0.561,0c-0.093-0.093-0.187-0.187-0.28-0.28
		c-0.187-0.093-0.28-0.187-0.374-0.187s-0.187-0.093-0.28,0.187c-0.093,0.187-0.187,0.28-0.093,0.374
		c0.093,0.093,0.654,0.467,0.748,0.467c0.093,0,0.187,0,0.28-0.093c0,0,0,0,0,0.093c0.093,0.093,0.561,0.374,0.654,0.374
		c0.187,0,0.187-0.093,0.28-0.28C21.702,9.785,21.608,9.691,21.608,9.691z"/>
	<path d="M21.702,8.663c0,0-0.093-0.093-0.28-0.093c-0.187-0.093-0.28-0.093-0.374,0c0-0.093-0.093-0.187-0.28-0.187
		c-0.187-0.093-0.28-0.093-0.28-0.093s-0.093,0-0.28,0.187c-0.093,0.187-0.187,0.28-0.093,0.374
		c0.093,0.093,0.561,0.374,0.654,0.374c0,0,0.093,0,0.187-0.093v0.093c0.093,0,0.467,0.28,0.561,0.187
		c0.093,0,0.093-0.093,0.187-0.28C21.795,8.756,21.702,8.663,21.702,8.663z"/>
	<path d="M22.075,8.008c0,0-0.093-0.093-0.28-0.187c-0.187-0.093-0.374-0.093-0.467,0c0-0.093-0.093-0.093-0.187-0.187
		s-0.187-0.187-0.187-0.187s-0.093,0-0.28,0.093c-0.093,0.093-0.187,0.187-0.093,0.28c0,0.093,0.467,0.28,0.561,0.374
		c0,0,0.093,0,0.187-0.093c0,0,0,0,0,0.093c0.093,0,0.467,0.28,0.561,0.28s0.093-0.093,0.187-0.28
		C22.169,8.008,22.075,8.008,22.075,8.008z"/>
	<path d="M21.608,7.261c0.093-0.093,0-0.28-0.187-0.374c-0.093-0.093-0.187-0.093-0.187-0.093s-0.093,0-0.187,0.093
		c-0.093,0.093-0.093,0.187-0.093,0.28c0,0.093,0.374,0.187,0.467,0.28C21.421,7.448,21.515,7.448,21.608,7.261z"/>
	<path d="M21.888,6.98c0.093-0.093,0.093-0.187-0.093-0.28c0-0.187-0.093-0.187-0.093-0.187s-0.093,0-0.187,0.093
		C21.421,6.7,21.421,6.7,21.421,6.793s0.28,0.28,0.28,0.28C21.795,7.074,21.888,6.98,21.888,6.98z"/>
	<path d="M15.718,15.394c0.093-0.187,0.093-0.467-0.467-0.748c-0.28-0.187-0.374-0.187-0.467-0.28c-0.093,0-0.187-0.093-0.374,0.187
		c-0.187,0.187-0.28,0.28-0.187,0.467s0.841,0.561,0.935,0.561C15.344,15.581,15.625,15.581,15.718,15.394z"/>
	<path d="M16.279,14.366c0.093-0.187,0.093-0.467-0.467-0.748c-0.28-0.187-0.374-0.187-0.467-0.28c-0.093,0-0.187-0.093-0.374,0.187
		c-0.187,0.187-0.28,0.28-0.187,0.467c0.093,0.187,0.841,0.561,0.935,0.561C15.999,14.646,16.186,14.553,16.279,14.366z"/>
	<path d="M16.747,13.431c0.093-0.187,0.093-0.374-0.374-0.654c-0.28-0.093-0.374-0.187-0.374-0.187
		c-0.093,0-0.187-0.093-0.374,0.093c-0.093,0.187-0.187,0.187-0.093,0.374s0.748,0.467,0.841,0.467
		C16.466,13.618,16.653,13.618,16.747,13.431z"/>
	<path d="M18.055,14.366c0.093-0.187,0.093-0.374-0.374-0.654c-0.28-0.093-0.374-0.187-0.374-0.187
		c-0.093,0-0.187-0.093-0.374,0.093c-0.093,0.187-0.187,0.187-0.093,0.374s0.748,0.467,0.841,0.467
		C17.775,14.553,17.962,14.553,18.055,14.366z"/>
	<path d="M14.129,18.199c0.093-0.187,0.093-0.467-0.467-0.748c-0.28-0.187-0.374-0.187-0.467-0.28c-0.093,0-0.187-0.093-0.374,0.187
		c-0.187,0.187-0.28,0.28-0.187,0.467c0.093,0.187,0.841,0.561,0.935,0.561C13.755,18.386,14.035,18.386,14.129,18.199z"/>
	<path d="M14.69,17.171c0.093-0.187,0.093-0.467-0.467-0.748c-0.28-0.187-0.374-0.187-0.467-0.28c-0.093,0-0.187-0.093-0.374,0.187
		c-0.187,0.187-0.28,0.28-0.187,0.467c0.093,0.187,0.841,0.561,0.935,0.561C14.316,17.451,14.596,17.358,14.69,17.171z"/>
	<path d="M15.157,16.236c0.093-0.187,0.093-0.374-0.374-0.654c-0.28-0.093-0.374-0.187-0.374-0.187
		c-0.093,0-0.187-0.093-0.374,0.093c-0.093,0.187-0.187,0.187-0.093,0.374c0.093,0.187,0.748,0.467,0.841,0.467
		C14.783,16.423,15.064,16.329,15.157,16.236z"/>
	<path d="M15.531,19.227c0.093-0.187,0.093-0.467-0.467-0.748c-0.28-0.187-0.374-0.187-0.467-0.28c-0.093,0-0.187-0.093-0.374,0.187
		c-0.187,0.187-0.28,0.28-0.187,0.467c0.093,0.187,0.841,0.561,0.935,0.561C15.157,19.414,15.344,19.414,15.531,19.227z"/>
	<path d="M16.466,17.171c0.093-0.187,0.093-0.374-0.374-0.654c-0.28-0.093-0.374-0.187-0.374-0.187
		c-0.093,0-0.187-0.093-0.374,0.093c-0.093,0.187-0.187,0.187-0.093,0.374c0.093,0.187,0.748,0.467,0.841,0.467
		C16.186,17.358,16.373,17.358,16.466,17.171z"/>
	<path d="M13.1,19.975c0.093-0.187,0.093-0.467-0.467-0.748c-0.28-0.187-0.374-0.187-0.467-0.28c-0.093,0-0.187-0.093-0.374,0.187
		c-0.187,0.187-0.28,0.28-0.187,0.467c0.093,0.187,0.841,0.561,0.935,0.561C12.726,20.256,13.007,20.162,13.1,19.975z"/>
	<path d="M13.474,19.04c0.093-0.187,0.093-0.374-0.374-0.654c-0.28-0.093-0.374-0.187-0.374-0.187c-0.093,0-0.187-0.093-0.374,0.093
		c-0.093,0.187-0.187,0.187-0.093,0.374c0.093,0.187,0.748,0.467,0.841,0.467C13.194,19.227,13.381,19.227,13.474,19.04z"/>
	<path d="M14.877,19.975c0.093-0.187,0.093-0.374-0.374-0.654c-0.28-0.093-0.374-0.187-0.374-0.187
		c-0.093,0-0.187-0.093-0.374,0.093c-0.093,0.187-0.187,0.187-0.093,0.374s0.748,0.467,0.841,0.467
		C14.596,20.162,14.783,20.162,14.877,19.975z"/>
	<g>
		<path d="M18.803,12.776c0.093,0,0.374,0,0.467-0.187s0.093-0.467-0.467-0.748c-0.28-0.187-0.374-0.187-0.467-0.28
			c-0.093,0-0.187-0.093-0.374,0.187c-0.187,0.187-0.28,0.28-0.187,0.467C17.962,12.309,18.71,12.683,18.803,12.776z"/>
		<path d="M21.234,14.833c0.187-0.561,0.467-1.215,0.654-1.776c0.187-0.467,0.467-1.496,0.841-2.057
			c0.28-0.28,0.748-0.654,1.215-0.841c0,0-0.654-0.093-1.589,0.374c0-0.093,0-0.093-0.093-0.187c0,0-0.093-0.093-0.28-0.093
			c-0.28-0.093-0.374,0-0.467,0.187s0,0.374,0,0.374s0.093,0.093,0.187,0.093C21.608,11,21.515,11,21.421,11.094
			c-0.28,0.187-0.467,0.467-0.561,0.654c0-0.093,0-0.187-0.093-0.187c0-0.093-0.093-0.093-0.28-0.28
			c-0.374-0.28-0.561-0.187-0.654,0c0-0.093-0.187-0.28-0.374-0.374c-0.28-0.093-0.374-0.187-0.374-0.187
			c-0.093,0-0.187-0.093-0.374,0.093C18.616,11,18.523,11,18.616,11.187c0.093,0.187,0.748,0.467,0.841,0.467s0.28,0,0.374-0.093
			c0,0.093,0,0.093,0,0.093c0.093,0.093,0.561,0.467,0.748,0.467c0.093,0,0.187-0.093,0.187-0.187
			c-0.093,0.28-0.093,0.467-0.093,0.654c-0.093-0.093-0.187-0.187-0.374-0.28c-0.28-0.093-0.374-0.187-0.467-0.187
			s-0.187-0.093-0.374,0.187c-0.187,0.187-0.28,0.28-0.187,0.467s0.748,0.467,0.841,0.561c0.093,0,0.28,0,0.467-0.187
			c0-0.093,0.093-0.093,0.093-0.187c0,0.093,0,0.093,0.093,0.093c-0.187,0.28-0.467,0.654-0.654,0.935
			c0.093-0.187,0-0.374-0.374-0.654c-0.28-0.093-0.374-0.187-0.467-0.187c-0.093,0-0.187-0.093-0.374,0.187
			c-0.187,0.187-0.28,0.28-0.187,0.467s0.748,0.467,0.841,0.561c0.093,0,0.28,0,0.374-0.187c-0.093,0.093-0.187,0.28-0.28,0.374
			c-0.093,0.093-0.093,0.187-0.187,0.28c0-0.093-0.093-0.28-0.374-0.467c-0.28-0.093-0.374-0.187-0.374-0.187
			c-0.093,0-0.187-0.093-0.374,0.093c-0.093,0.187-0.187,0.187-0.093,0.374s0.748,0.467,0.841,0.467s0.187,0,0.28,0
			c-0.093,0.187-0.187,0.28-0.28,0.467c-0.093-0.093-0.187-0.187-0.374-0.374c-0.28-0.187-0.374-0.187-0.467-0.28
			c-0.093,0-0.187-0.093-0.374,0.187c-0.093,0.093-0.093,0.187-0.187,0.187c0.093-0.187,0.093-0.467-0.467-0.748
			c-0.28-0.187-0.374-0.187-0.467-0.28c-0.093,0-0.187-0.093-0.374,0.187c-0.187,0.187-0.28,0.28-0.187,0.467
			s0.841,0.561,0.935,0.561c0.093,0,0.374,0,0.467-0.187c0,0.093,0,0.093,0,0.187c0.093,0.187,0.841,0.561,0.935,0.561h0.093
			c-0.093,0.093-0.187,0.28-0.28,0.374c-0.093-0.093-0.187-0.187-0.374-0.374c-0.28-0.187-0.374-0.187-0.467-0.28
			c-0.093,0-0.187-0.093-0.374,0.187c-0.093,0.093-0.093,0.187-0.187,0.187c0.093-0.187,0.093-0.467-0.467-0.748
			c-0.28-0.187-0.374-0.187-0.467-0.28c-0.093,0-0.187-0.093-0.374,0.187c-0.187,0.187-0.28,0.28-0.187,0.467
			c0.093,0.187,0.841,0.561,0.935,0.561c0.093,0,0.374,0,0.467-0.187c0,0.093,0,0.093,0,0.187c0.093,0.187,0.841,0.561,0.935,0.561
			c-0.093,0.093-0.187,0.093-0.187,0.187c-0.093-0.093-0.187-0.093-0.28-0.187c-0.28-0.093-0.374-0.187-0.374-0.187
			c-0.093,0-0.187-0.093-0.374,0.093c-0.093,0.187-0.187,0.187-0.093,0.374c0.093,0.093,0.374,0.28,0.561,0.374
			c-0.093,0.093-0.093,0.093-0.187,0.187l0,0c-0.28-0.187-0.374-0.187-0.467-0.28c-0.093,0-0.187-0.093-0.374,0.187
			c-0.093,0.093-0.093,0.093-0.187,0.187c0.093-0.187,0.093-0.467-0.467-0.748c-0.28-0.187-0.374-0.187-0.467-0.28
			c-0.093,0-0.187-0.093-0.374,0.187c-0.187,0.187-0.28,0.28-0.187,0.467c0.093,0.187,0.841,0.561,0.935,0.561
			c0.093,0,0.28,0,0.467-0.187c0,0.093,0,0.093,0,0.187s0.187,0.187,0.374,0.28c-0.093,0.093-0.187,0.187-0.187,0.187
			c-0.093-0.093-0.187-0.093-0.28-0.093c-0.093,0-0.187-0.093-0.374,0.187c-0.187,0.187-0.28,0.28-0.187,0.467
			c0,0.093,0.093,0.093,0.28,0.187c-0.093,0.093-0.093,0.187-0.187,0.187h-0.093c-0.093,0-0.187-0.093-0.374,0.093
			c-0.093,0.187-0.187,0.187-0.093,0.374c0,0,0.093,0.093,0.187,0.187c0,0.093-0.093,0.187-0.093,0.28
			c-0.093,0-0.093-0.093-0.093-0.093c-0.093,0-0.187-0.093-0.374,0.187c-0.093,0.093-0.093,0.093-0.187,0.187
			c0.093-0.187,0.093-0.467-0.467-0.748c-0.28-0.187-0.374-0.187-0.467-0.28c-0.093,0-0.187-0.093-0.374,0.187
			c-0.187,0.187-0.28,0.28-0.187,0.467c0.093,0.187,0.841,0.561,0.935,0.561c0.093,0,0.28,0,0.467-0.187c0,0.093,0,0.093,0,0.187
			s0.187,0.187,0.374,0.28v0.093l-0.093,0.093c-0.093-0.093-0.187-0.093-0.187-0.093c-0.093,0-0.187-0.093-0.374,0.187
			c-0.093,0.093-0.093,0.093-0.187,0.187c0.093-0.187,0.093-0.467-0.467-0.748c-0.28-0.187-0.374-0.187-0.467-0.28
			c-0.093,0-0.187-0.093-0.374,0.187c0.28,0.654,0.187,0.748,0.28,0.841c0.093,0.187,0.841,0.561,0.935,0.561
			c0.093,0,0.28,0,0.467-0.187c0,0.093,0,0.093,0,0.187l0.093,0.093c-0.28,0.187-0.467,0.374-0.748,0.561l0,0
			c0.093-0.187,0.093-0.374-0.374-0.654c-0.28-0.093-0.374-0.187-0.374-0.187c-0.093,0-0.187-0.093-0.374,0.093
			c-0.093,0.187-0.187,0.187-0.093,0.374c0.093,0.187,0.748,0.467,0.841,0.467c0,0,0.093,0,0.187,0
			c-0.093,0.093-0.28,0.187-0.374,0.28c-0.093-0.093-0.187-0.093-0.28-0.187c-0.28-0.187-0.374-0.187-0.467-0.28
			c-0.093,0-0.187-0.093-0.374,0.187c-0.187,0.187-0.28,0.28-0.187,0.467c0,0.093,0.187,0.187,0.28,0.28
			c-0.374,0.093-0.748,0.28-1.028,0.467V23.99c0.093,0,0.093-0.093,0.187-0.093c0.093-0.093,0.093-0.28,0-0.374
			c0-0.093,0-0.187,0-0.374V23.06h0.093c0.093,0,0.374,0,0.467-0.187s0.093-0.467-0.467-0.748c0,0-0.093,0-0.093-0.093
			s0-0.187,0-0.28c0.187,0.093,0.467,0.28,0.561,0.28s0.28,0,0.374-0.187c0.093-0.187,0.093-0.374-0.374-0.654
			c-0.28-0.093-0.374-0.187-0.374-0.187h-0.093c0-0.187,0-0.374,0-0.467v0.093c0.093,0.187,0.841,0.561,0.935,0.561
			s0.374,0,0.467-0.187s0.093-0.467-0.467-0.748c-0.28-0.187-0.374-0.187-0.467-0.28c-0.093,0-0.187-0.093-0.374,0.187
			c-0.093,0.093-0.187,0.187-0.187,0.28c0-0.28,0.093-0.654,0.093-0.935c0.187,0,0.187-0.093,0.28-0.374s0-0.374,0-0.374
			l-0.093-0.094c0-0.093,0-0.187,0-0.28c0.187,0.093,0.28,0.187,0.374,0.187c0.187,0,0.187-0.093,0.28-0.28
			c0.093-0.28,0-0.28,0-0.374c0-0.093,0.093-0.093-0.187-0.187c-0.093,0-0.093,0-0.093-0.093s0-0.187,0.093-0.28
			c0.187,0.187,0.561,0.374,0.654,0.374c0.187,0,0.187-0.093,0.28-0.374c0.093-0.28,0-0.374,0-0.374c0-0.093-0.187-0.093-0.374-0.28
			c-0.187-0.093-0.28-0.093-0.374-0.187c0-0.187,0.093-0.28,0.093-0.467c0,0.093,0,0.093,0.093,0.093
			c0.093,0.093,0.748,0.467,0.841,0.467c0.187,0,0.187-0.093,0.28-0.374c0.093-0.28,0-0.374,0-0.374c0-0.093-0.187-0.093-0.374-0.28
			c-0.093,0-0.093-0.093-0.187-0.093l0.467-0.093c0.187,0.093,0.28,0.187,0.374,0.187c0.187,0,0.187-0.093,0.28-0.28s0-0.28,0-0.28
			c0-0.093,0.093-0.187,0.093-0.28h0.093c0.187,0,0.187-0.093,0.28-0.374c0.093-0.28,0-0.374,0-0.374
			c0.093-0.093,0.093-0.187,0.187-0.28c0.093,0,0.093,0.093,0.187,0c0.187,0,0.187-0.093,0.28-0.374c0.093-0.28,0-0.374,0-0.374l0,0
			c0-0.093,0.093-0.187,0.093-0.28c0.093,0.093,0.187,0.093,0.28,0.093c0.187,0,0.187-0.093,0.28-0.28c0.093-0.28,0-0.28,0-0.374
			c0,0-0.093-0.093-0.187-0.093c0-0.093,0.093-0.093,0.093-0.187c0.093,0.093,0.28,0.187,0.28,0.187c0.187,0,0.187-0.093,0.374-0.28
			c0.187-0.187,0.093-0.28,0.093-0.374s-0.093-0.093-0.187-0.28c-0.091-0.1-0.184-0.1-0.184-0.193s0.093-0.187,0.093-0.28
			c0.187,0.093,0.374,0.187,0.467,0.187s0.28-0.093,0.374-0.28c0.093-0.28,0.093-0.467-0.28-0.561
			c-0.187-0.093-0.28-0.093-0.28-0.093c0.374-1.776-0.28-3.927-0.28-3.927s-0.561,1.496-1.028,2.337
			c-0.28,0.467-0.654,1.496-1.122,2.524c0,0,0,0,0-0.093C12.073,13.245,2.257,23.623,6.37,27.082
			c0.374,0.374,0.841,0.841,1.402,0.935c0.093,0,0.28,0,0.374,0c0.187,0.374,0.467,0.748,1.028,1.122
			c3.646,2.337,5.983-2.15,6.825-3.553c1.028-1.776,2.057-3.646,2.992-5.609c2.805-3.366,6.264-7.479,8.04-8.601
			C26.937,11.468,24.506,12.496,21.234,14.833z"/>
	</g>
</g>
</svg>
